<?xml version="1.0" encoding="utf-8"?>
<!-- Generator: Adobe Illustrator 23.0.2, SVG Export Plug-In . SVG Version: 6.00 Build 0)  -->
<svg version="1.1" id="Ebene_1" xmlns="http://www.w3.org/2000/svg" xmlns:xlink="http://www.w3.org/1999/xlink" x="0px" y="0px"
	 viewBox="0 0 1400 1100" style="enable-background:new 0 0 1400 1100;" xml:space="preserve">
<style type="text/css">
	.st0{fill:#FFFFFF;}
	.st1{fill:#033153;}
	.st2{fill:#E3E3E2;}
	.st3{fill:#F2931B;}
	.st4{fill:#D1D3D4;}
</style>
<rect y="0" class="st0" width="1400" height="1100"/>
<title>clock</title>
<g>
	<rect x="267" y="818.1" class="st1" width="866" height="23.3"/>
	<polygon class="st2" points="574.2,291.4 309.4,291.4 309.4,818.1 574.2,818.1 825.8,818.1 825.8,291.4 	"/>
	<rect x="309.4" y="258.6" class="st3" width="516.3" height="32.8"/>
	<polygon class="st4" points="825.8,374.1 825.8,406.9 825.8,818.1 1064,818.1 1077.3,818.1 1090.6,818.1 1090.6,406.9 
		1090.6,374.1 	"/>
	<rect x="358.2" y="362.4" class="st0" width="420.8" height="42.4"/>
	<rect x="358.2" y="473.9" class="st0" width="420.8" height="42.4"/>
	<rect x="855.2" y="472.6" class="st0" width="192.7" height="42.4"/>
	<rect x="855.2" y="570.9" class="st0" width="192.7" height="42.4"/>
	<rect x="855.2" y="669.3" class="st0" width="192.7" height="42.4"/>
	<rect x="358.2" y="585.3" class="st0" width="420.8" height="42.4"/>
	<rect x="358.2" y="696.8" class="st0" width="420.8" height="42.4"/>
</g>
</svg>
