<?xml version="1.0" encoding="utf-8"?>
<!-- Generator: Adobe Illustrator 23.0.2, SVG Export Plug-In . SVG Version: 6.00 Build 0)  -->
<svg version="1.1" id="Ebene_1" xmlns="http://www.w3.org/2000/svg" xmlns:xlink="http://www.w3.org/1999/xlink" x="0px" y="0px"
	 viewBox="0 0 1400 1100" style="enable-background:new 0 0 1400 1100;" xml:space="preserve">
<style type="text/css">
	.st0{fill:#FFFFFF;}
	.st1{fill:#E3E3E2;}
	.st2{fill:#033153;}
	.st3{fill:#F2931B;}
	.st4{fill:#A7A9AC;}
	.st5{fill:#D1D3D4;}
	.st6{fill:#CC710D;}
</style>
<rect y="0" class="st0" width="1400" height="1100"/>
<title>clock</title>
<g>
	<g>
		<rect x="309.1" y="563.1" class="st1" width="678.4" height="335.1"/>
		<rect x="309.1" y="283" class="st2" width="710" height="280.1"/>
		<polygon class="st1" points="857.4,283 695.7,563.1 695.7,898.2 1019.1,898.2 1019.1,563.1 		"/>
		<rect x="529.2" y="774.7" class="st3" width="74.9" height="123.5"/>
		<rect x="388.4" y="706.3" class="st0" width="95.1" height="95.1"/>
		<rect x="756.8" y="576.2" class="st0" width="95.1" height="95.1"/>
		<rect x="862.8" y="576.2" class="st0" width="95.1" height="95.1"/>
		<rect x="756.8" y="706.3" class="st0" width="201.1" height="95.1"/>
		<rect x="486.9" y="178.5" class="st4" width="63.8" height="104.5"/>
		<rect x="231.1" y="898.2" class="st4" width="866" height="23.3"/>
		<polygon class="st5" points="340.7,563.1 695.7,721.5 695.7,563.1 		"/>
	</g>
	<g>
		<polygon class="st3" points="992.3,236.3 992.3,745.7 1068.2,745.7 1068.2,252.2 1029.5,211.5 		"/>
		<path class="st6" d="M891.6,782.9c0,76.4,62.2,138.6,138.6,138.6s138.6-62.2,138.6-138.6s-62.2-138.6-138.6-138.6
			S891.6,706.5,891.6,782.9z M1162.1,782.9c0,72.7-59.1,131.8-131.8,131.8c-72.7,0-131.8-59.1-131.8-131.8s59.1-131.8,131.8-131.8
			C1102.9,651.1,1162.1,710.2,1162.1,782.9z"/>
		<path class="st3" d="M1066,534.8v-10.2h38.2v-0.4c-3.1-2.1-5.9-4.2-8.5-6.2l-29.7-24.2v-12.7l33.6,28.7l45.6-30.9V491l-38.9,26.1
			l8.7,7.5h30.2v10.2H1066z"/>
		<path class="st3" d="M1120.3,457.2l24.9,8.2v10.6L1066,449v-12.3l79.1-27v10.9l-24.9,8.5V457.2z M1112.3,431.2l-22.8,7.8
			c-5.2,1.8-9.9,2.9-14.4,4.1v0.2c4.7,1.2,9.5,2.5,14.3,4l22.9,7.8V431.2z"/>
		<path class="st3" d="M1064.7,391.2h46.9c17.7,0,25.2-7.9,25.2-18.4c0-11.7-7.8-19.3-25.2-19.3h-46.9v-10.3h46.2
			c24.3,0,34.3,12.8,34.3,29.9c0,16.2-9.3,28.4-33.8,28.4h-46.6V391.2z"/>
		<path class="st3" d="M1066,325.4v-42.6h8.6v32.4h26.3v-29.9h8.5v29.9h35.8v10.2H1066z"/>
		
			<rect x="846.4" y="458.1" transform="matrix(6.123234e-17 -1 1 6.123234e-17 565.3087 1495.2069)" class="st6" width="367.8" height="13.7"/>
		
			<rect x="875.8" y="466.9" transform="matrix(6.123234e-17 -1 1 6.123234e-17 577.1271 1524.6158)" class="st6" width="350.2" height="13.7"/>
		<circle class="st3" cx="1030.3" cy="782.9" r="131.8"/>
		<path class="st6" d="M915.4,782.9c0,63.4,51.5,114.9,114.9,114.9c63.4,0,114.9-51.5,114.9-114.9S1093.6,668,1030.3,668
			C966.9,668,915.4,719.5,915.4,782.9z M1139.5,782.9c0,60.2-49,109.2-109.2,109.2c-60.2,0-109.2-49-109.2-109.2
			c0-60.2,49-109.2,109.2-109.2C1090.5,673.7,1139.5,722.7,1139.5,782.9z"/>
		<circle class="st0" cx="1030.3" cy="859.5" r="25.7"/>
	</g>
</g>
</svg>
