<svg xmlns="http://www.w3.org/2000/svg" viewBox="0 0 866 770"><defs><style>.cls-1{fill:#a7a9ac;}.cls-2{fill:#e3e3e2;}.cls-3{fill:#033153;}.cls-4{fill:#fff;}.cls-5{fill:#f2931b;}</style></defs><title>Gewerbe (Commercial)</title><g id="Слой_2" data-name="Слой 2"><g id="Слой_2-2" data-name="Слой 2"><rect class="cls-1" y="746.69" width="866" height="23.31"/><rect class="cls-2" x="307.24" y="219.93" width="251.51" height="526.75"/><rect class="cls-2" x="55.73" y="219.93" width="251.51" height="526.75"/><rect class="cls-2" x="558.76" y="219.93" width="251.51" height="526.75"/><rect class="cls-3" x="293.95" y="219.93" width="26.59" height="526.75"/><rect class="cls-3" x="545.46" y="219.93" width="26.59" height="526.75"/><rect class="cls-3" x="796.97" y="219.93" width="26.59" height="526.75"/><rect class="cls-3" x="42.44" y="219.93" width="26.59" height="526.75"/><polygon class="cls-3" points="293.95 0 42.44 219.93 293.95 219.93 293.95 0"/><polygon class="cls-3" points="545.46 0 293.95 219.93 545.46 219.93 545.46 0"/><polygon class="cls-3" points="796.98 0 545.46 219.93 796.98 219.93 796.98 0"/><rect class="cls-4" x="85.14" y="573.35" width="66.94" height="66.94"/><rect class="cls-4" x="210.9" y="573.35" width="66.94" height="66.94"/><rect class="cls-4" x="85.14" y="475" width="66.94" height="66.94"/><rect class="cls-4" x="210.9" y="475" width="66.94" height="66.94"/><rect class="cls-4" x="85.14" y="376.66" width="66.94" height="66.94"/><rect class="cls-4" x="210.9" y="376.66" width="66.94" height="66.94"/><rect class="cls-4" x="85.14" y="278.31" width="66.94" height="66.94"/><rect class="cls-4" x="210.9" y="278.31" width="66.94" height="66.94"/><rect class="cls-4" x="336.65" y="573.35" width="66.94" height="66.94"/><rect class="cls-4" x="462.41" y="573.35" width="66.94" height="66.94"/><rect class="cls-4" x="336.65" y="475" width="66.94" height="66.94"/><rect class="cls-4" x="462.41" y="475" width="66.94" height="66.94"/><rect class="cls-4" x="336.65" y="376.66" width="66.94" height="66.94"/><rect class="cls-4" x="462.41" y="376.66" width="66.94" height="66.94"/><rect class="cls-4" x="336.65" y="278.31" width="66.94" height="66.94"/><rect class="cls-4" x="462.41" y="278.31" width="66.94" height="66.94"/><rect class="cls-4" x="588.16" y="573.35" width="66.94" height="66.94"/><rect class="cls-4" x="713.92" y="573.35" width="66.94" height="66.94"/><rect class="cls-4" x="588.16" y="475" width="66.94" height="66.94"/><rect class="cls-4" x="713.92" y="475" width="66.94" height="66.94"/><rect class="cls-4" x="588.16" y="376.66" width="66.94" height="66.94"/><rect class="cls-4" x="713.92" y="376.66" width="66.94" height="66.94"/><rect class="cls-4" x="588.16" y="278.31" width="66.94" height="66.94"/><rect class="cls-4" x="713.92" y="278.31" width="66.94" height="66.94"/><rect class="cls-5" x="69.03" y="219.93" width="224.92" height="32.78"/><rect class="cls-5" x="320.54" y="219.93" width="224.92" height="32.78"/><rect class="cls-5" x="572.05" y="219.93" width="224.92" height="32.78"/></g></g></svg>