<?xml version="1.0" encoding="utf-8"?>
<!-- Generator: Adobe Illustrator 23.0.2, SVG Export Plug-In . SVG Version: 6.00 Build 0)  -->
<svg version="1.1" id="Ebene_1" xmlns="http://www.w3.org/2000/svg" xmlns:xlink="http://www.w3.org/1999/xlink" x="0px" y="0px"
	 viewBox="0 0 1400 1100" style="enable-background:new 0 0 1400 1100;" xml:space="preserve">
<style type="text/css">
	.st0{fill:#FFFFFF;}
	.st1{fill:#A7A9AC;}
	.st2{fill:#E3E3E2;}
	.st3{fill:#D1D3D4;}
	.st4{fill:#033153;}
	.st5{fill:#F2931B;}
</style>
<rect y="0" class="st0" width="1400" height="1100"/>
<title>clock</title>
<g>
	<rect x="522.8" y="178.5" class="st1" width="63.8" height="104.5"/>
	<polygon class="st2" points="776.1,721.5 698.6,563.1 345,563.1 345,898.2 689.6,898.2 	"/>
	<polygon class="st1" points="689.6,898.2 267,898.2 267,921.5 678.2,921.5 	"/>
	<polygon class="st3" points="731.5,630.5 698.6,563.1 376.5,563.1 731.5,721.5 	"/>
	<polygon class="st4" points="638.1,439.4 714.6,283 345,283 345,563.1 698.6,563.1 	"/>
	<polygon class="st2" points="776.1,721.5 731.5,630.5 731.5,812.5 	"/>
	<rect x="565" y="774.7" class="st5" width="74.9" height="123.5"/>
	<rect x="424.3" y="706.3" class="st0" width="95.1" height="95.1"/>
	<polygon class="st2" points="1055,898.2 1055,898.2 1055,563.1 1055,563.1 1055,283 763.6,283 687,439.4 747.5,563.1 792.7,655.5 
		792.7,655.5 794.9,659.8 817.6,706.3 817.6,706.3 825,721.5 792.7,787.5 792.7,787.6 738.6,898.2 727.2,921.5 1133,921.5 
		1133,898.2 	"/>
</g>
</svg>
