<?xml version="1.0" encoding="utf-8"?>
<!-- Generator: Adobe Illustrator 23.0.2, SVG Export Plug-In . SVG Version: 6.00 Build 0)  -->
<svg version="1.1" id="Ebene_1" xmlns="http://www.w3.org/2000/svg" xmlns:xlink="http://www.w3.org/1999/xlink" x="0px" y="0px"
	 viewBox="0 0 1400 1100" style="enable-background:new 0 0 1400 1100;" xml:space="preserve">
<style type="text/css">
	.st0{fill:#FFFFFF;}
	.st1{fill:#033153;}
	.st2{fill:#F2931B;}
</style>
<rect y="0" class="st0" width="1400" height="1100"/>
<title>clock</title>
<g>
	<circle class="st1" cx="700" cy="550" r="336.9"/>
	<g>
		<circle class="st0" cx="700" cy="550" r="297.8"/>
		<g>
			<path class="st2" d="M929.1,428.6c-2.6-3.1-7.2-3.5-10.3-0.9c-0.3,0.2-28.1,23.2-59.8,23.2c-26.5,0-53.8-8.5-80.1-16.8
				c-15-4.7-30.4-9.5-45.7-12.7c-1.3-13-10.1-23.7-21.9-28L700,336.1l-11.3,57.3c-11.8,4.3-20.6,15-21.9,28
				c-15.3,3.2-30.6,8-45.7,12.7c-26.3,8.3-53.6,16.8-80.1,16.8c-31.6,0-59.6-23-59.8-23.2c-3.1-2.6-7.7-2.2-10.3,0.9
				c-2.6,3.1-2.2,7.7,0.9,10.3c1.1,0.9,23.6,19.4,52.9,25l-44.2,116.3h-4.1c-1.6,0-2.9,1.3-2.9,2.9v4c0,1.6,1.3,2.9,2.9,2.9h4.8
				c3.2,23.2,23.1,41,47.1,41c24,0,43.9-17.8,47.1-41h4.8c1.6,0,2.9-1.3,2.9-2.9v-4c0-1.6-1.3-2.9-2.9-2.9h-4.1L532.4,465
				c2.8,0.3,5.7,0.5,8.6,0.5c28.8,0,57.1-8.9,84.5-17.5c14.8-4.6,29.1-9.1,43-12.1c4.6,13,16.9,22.3,31.5,22.3s26.9-9.3,31.5-22.3
				c13.9,3,28.2,7.5,43,12.1c27.4,8.6,55.7,17.5,84.5,17.5c2.9,0,5.8-0.2,8.6-0.5l-43.8,115.1h-4.1c-1.6,0-2.9,1.3-2.9,2.9v4
				c0,1.6,1.3,2.9,2.9,2.9h4.8c3.2,23.2,23.1,41,47.1,41c24,0,43.9-17.8,47.1-41h4.8c1.6,0,2.9-1.3,2.9-2.9v-4
				c0-1.6-1.3-2.9-2.9-2.9h-4.1l-44.2-116.3c29.4-5.6,51.8-24.1,52.9-25C931.3,436.3,931.7,431.7,929.1,428.6z M573.2,580.2h-89.8
				l44-115.8c0.6,0.1,1.2,0.2,1.9,0.3L573.2,580.2z M916.5,580.2h-89.8l43.9-115.5c0.6-0.1,1.2-0.2,1.9-0.3L916.5,580.2z"/>
			<path class="st2" d="M755.9,715.5h-32.4V599.5h-13V492.8c13.3-4.4,22.9-16.9,22.9-31.7c0-3.9-0.7-7.7-1.9-11.2
				c-4.6,9-17,15.4-31.5,15.4s-26.9-6.4-31.5-15.4c-1.2,3.5-1.9,7.3-1.9,11.2c0,14.8,9.6,27.3,22.9,31.7v106.8h-13v115.9h-32.4
				c-8.5,0-15.4,6.9-15.4,15.4v0c0,8.5,6.9,15.4,15.4,15.4h32.4h13h21h13h32.4c8.5,0,15.4-6.9,15.4-15.4v0
				C771.3,722.4,764.4,715.5,755.9,715.5z"/>
		</g>
	</g>
</g>
</svg>
