<?xml version="1.0" encoding="utf-8"?>
<!-- Generator: Adobe Illustrator 23.0.2, SVG Export Plug-In . SVG Version: 6.00 Build 0)  -->
<svg version="1.1" id="Ebene_1" xmlns="http://www.w3.org/2000/svg" xmlns:xlink="http://www.w3.org/1999/xlink" x="0px" y="0px"
	 viewBox="0 0 1400 1100" style="enable-background:new 0 0 1400 1100;" xml:space="preserve">
<style type="text/css">
	.st0{fill:#FFFFFF;}
	.st1{fill:#E3E3E2;}
	.st2{fill:#CC710D;}
	.st3{fill:#F2931B;}
</style>
<rect y="0" class="st0" width="1400" height="1100"/>
<title>clock</title>
<g>
	<polygon class="st1" points="1055,898.2 1055,563.1 1055,563.1 1055,283 586.6,283 586.6,178.5 522.8,178.5 522.8,283 345,283 
		345,563.1 345,898.2 267,898.2 267,921.5 1133,921.5 1133,898.2 	"/>
	<g>
		<g>
			<path class="st2" d="M837,388.3c-30.2-28.5-68.9-42.8-116.1-42.8c-46.1,0-84.8,14-116.1,42c-31.3,28-46.9,64.8-46.9,110.3
				c0,4,15.7,7.3,35,7.3c19.3,0,35-3.3,35-7.3c0-0.1,0-0.2,0-0.3c0.6-27.3,9.5-48.9,26.7-64.8c17.3-15.9,39.4-23.9,66.3-23.9
				c25.8,0,47.6,8.1,65.5,24.3c17.8,16.2,26.8,37.7,26.8,64.6c0,19.8-4.8,37.6-14.4,53.5c-9.6,15.9-26.2,34.6-49.8,56l-40.3,36.2
				c-15.9,14.3-23.9,33.5-23.9,57.6v41V756v8.5c0,4,14.7,7.3,32.9,7.3s32.9-3.3,32.9-7.3V756v-13.9v-8c0-14.3,1.5-25.3,4.5-32.9
				c3-7.7,9.5-16.2,19.3-25.5l23.9-23.1c20.9-20.9,34.6-34.9,41.2-42c11-11.5,20.9-27.4,29.6-47.8c9.9-20.9,14.8-41.4,14.8-61.8
				C883.9,453.9,868.2,416.3,837,388.3z"/>
			
				<ellipse transform="matrix(0.9871 -0.1602 0.1602 0.9871 -126.9552 125.9223)" class="st2" cx="717.6" cy="850.4" rx="47.8" ry="47.8"/>
		</g>
		<g>
			<path class="st3" d="M821,388.3c-30.2-28.5-68.9-42.8-116.1-42.8c-46.1,0-84.8,14-116.1,42c-31.3,28-46.9,64.8-46.9,110.3
				c0,4,15.7,7.3,35,7.3c19.3,0,35-3.3,35-7.3c0-0.1,0-0.2,0-0.3c0.6-27.3,9.5-48.9,26.7-64.8c17.3-15.9,39.4-23.9,66.3-23.9
				c25.8,0,47.6,8.1,65.5,24.3c17.8,16.2,26.8,37.7,26.8,64.6c0,19.8-4.8,37.6-14.4,53.5c-9.6,15.9-26.2,34.6-49.8,56l-40.3,36.2
				c-15.9,14.3-23.9,33.5-23.9,57.6v41V756v8.5c0,4,14.7,7.3,32.9,7.3c18.2,0,32.9-3.3,32.9-7.3V756v-13.9v-8
				c0-14.3,1.5-25.3,4.5-32.9c3-7.7,9.5-16.2,19.3-25.5l23.9-23.1c20.9-20.9,34.6-34.9,41.2-42c11-11.5,20.9-27.4,29.6-47.8
				c9.9-20.9,14.8-41.4,14.8-61.8C867.9,453.9,852.3,416.3,821,388.3z"/>
			<circle class="st3" cx="701.6" cy="850.4" r="47.8"/>
		</g>
	</g>
</g>
</svg>
