<?xml version="1.0" encoding="utf-8"?>
<!-- Generator: Adobe Illustrator 23.0.2, SVG Export Plug-In . SVG Version: 6.00 Build 0)  -->
<svg version="1.1" id="Ebene_1" xmlns="http://www.w3.org/2000/svg" xmlns:xlink="http://www.w3.org/1999/xlink" x="0px" y="0px"
	 viewBox="0 0 1400 1100" style="enable-background:new 0 0 1400 1100;" xml:space="preserve">
<style type="text/css">
	.st0{fill:#FFFFFF;}
	.st1{fill:#A7A9AC;}
	.st2{fill:#F2931B;}
</style>
<rect class="st0" width="1400" height="1100"/>
<title>clock</title>
<g>
	<g>
		<path class="st1" d="M872.6,225.1c-42-39.7-95.8-59.6-161.5-59.6c-64.1,0-118,19.5-161.5,58.4s-65.3,90.1-65.3,153.5
			c0,5.6,21.8,10.1,48.7,10.1c26.9,0,48.7-4.5,48.7-10.1c0-0.1,0-0.2,0-0.4c0.8-38,13.2-68,37.2-90.1c24.1-22.1,54.8-33.2,92.2-33.2
			c35.9,0,66.2,11.3,91.1,33.8c24.8,22.5,37.2,52.5,37.2,89.9c0,27.5-6.7,52.3-20.1,74.5C806,474.1,782.9,500,750,529.8l-56.1,50.4
			c-22.2,19.9-33.2,46.6-33.2,80.2v57v19.3v11.9c0,5.6,20.5,10.1,45.8,10.1s45.8-4.5,45.8-10.1v-11.9v-19.3v-11.2
			c0-19.9,2.1-35.1,6.3-45.8c4.2-10.7,13.2-22.5,26.9-35.5l33.2-32.1c29-29,48.1-48.5,57.3-58.4c15.3-16,29-38.2,41.2-66.4
			c13.7-29,20.6-57.6,20.6-85.9C937.9,316.4,916.1,264.1,872.6,225.1z"/>
		
			<ellipse transform="matrix(0.9871 -0.1602 0.1602 0.9871 -129.9051 124.3797)" class="st1" cx="706.5" cy="867.9" rx="66.5" ry="66.5"/>
	</g>
	<g>
		<path class="st2" d="M850.4,225.1c-42-39.7-95.8-59.6-161.5-59.6c-64.1,0-118,19.5-161.5,58.4c-43.5,38.9-65.3,90.1-65.3,153.5
			c0,5.6,21.8,10.1,48.7,10.1s48.7-4.5,48.7-10.1c0-0.1,0-0.2,0-0.4c0.8-38,13.2-68,37.2-90.1c24.1-22.1,54.8-33.2,92.2-33.2
			c35.9,0,66.2,11.3,91.1,33.8c24.8,22.5,37.2,52.5,37.2,89.9c0,27.5-6.7,52.3-20.1,74.5c-13.4,22.1-36.5,48.1-69.3,77.9l-56.1,50.4
			c-22.2,19.9-33.2,46.6-33.2,80.2v57v19.3v11.9c0,5.6,20.5,10.1,45.8,10.1c25.3,0,45.8-4.5,45.8-10.1v-11.9v-19.3v-11.2
			c0-19.9,2.1-35.1,6.3-45.8c4.2-10.7,13.2-22.5,26.9-35.5l33.2-32.1c29-29,48.1-48.5,57.3-58.4c15.3-16,29-38.2,41.2-66.4
			c13.7-29,20.6-57.6,20.6-85.9C915.7,316.4,893.9,264.1,850.4,225.1z"/>
		<circle class="st2" cx="684.3" cy="867.9" r="66.5"/>
	</g>
</g>
</svg>
