<?xml version="1.0" encoding="utf-8"?>
<!-- Generator: Adobe Illustrator 20.0.0, SVG Export Plug-In . SVG Version: 6.00 Build 0)  -->
<svg version="1.1" baseProfile="basic" id="Ebene_1"
	 xmlns="http://www.w3.org/2000/svg" xmlns:xlink="http://www.w3.org/1999/xlink" x="0px" y="0px" viewBox="0 100 1400 1100"
	 xml:space="preserve">
<title>Sonstiges</title>
<polygon fill="#999999" points="880.3,455.7 880.3,579.1 956.3,607.7 956.3,455.7 "/>
<polygon fill="#E8E8E8" points="1079.6,1138.5 320.2,1138.5 320.2,663.9 681,483.3 1079.6,663.9 "/>
<polygon fill="#E8E8E8" points="253.7,692.2 1146,692.2 677.9,480.6 "/>
<rect x="500.4" y="692.2" fill="#FFFFFF" width="171" height="104.6"/>
<rect x="728.3" y="692.2" fill="#FFFFFF" width="171" height="104.6"/>
<rect x="728.3" y="901" fill="#FFFFFF" width="171" height="104.3"/>
<rect x="500.4" y="901" fill="#FFFFFF" width="171" height="237.5"/>
<path fill="#F6F6F6" d="M913.7,419.7h-8.6c0-10.7,5.4-16.1,10.2-20.9c4.3-4.3,7.7-7.7,7.7-14.8s-3.4-10.5-7.7-14.8
	c-4.8-4.8-10.2-10.2-10.2-20.9s5.4-16.1,10.2-20.9c4.3-4.3,7.7-7.7,7.7-14.8s-3.4-10.5-7.7-14.8c-4.8-4.8-10.2-10.2-10.2-20.9
	s5.4-16.1,10.2-20.9c4.3-4.3,7.7-7.7,7.7-14.8h8.6c0,10.7-5.4,16.1-10.2,20.9c-4.3,4.3-7.7,7.7-7.7,14.8c0,7.2,3.4,10.5,7.7,14.8
	c4.8,4.8,10.2,10.2,10.2,20.9s-5.4,16.1-10.2,20.9c-4.3,4.3-7.7,7.7-7.7,14.8s3.4,10.5,7.7,14.8c4.8,4.8,10.2,10.2,10.2,20.9
	s-5.4,16.1-10.2,20.9C917,409.2,913.7,412.5,913.7,419.7z"/>
<rect x="253.7" y="1133.3" fill="#999999" width="892.3" height="25.7"/>
<path fill="#FEB901" class="fill__primary" d="M994,973.8c0-23.7,2.9-42.6,8.8-56.7c5.9-14.1,17.5-29.5,34.8-46.4c17.3-16.8,28.3-28.8,33-36
	c7-10.4,10.7-22.7,10.7-35.2c0-16.7-4.1-29.5-12.4-38.3s-20.4-13.2-36.5-13.2c-15.3,0-27.7,4.3-37,12.9s-14,20.3-14,35h-64.9
	c0.4-31.5,11.1-56.5,32.2-74.9s49-27.5,83.7-27.5c35.8,0,63.7,9.1,83.7,27.3c20,18.2,30,43.6,30,76.2c0,29-13.5,57.6-40.6,85.8
	l-32.8,32.3c-11.8,13.4-17.8,32.9-18.2,58.5L994,973.8z M989.5,1056.7c0-10.5,3.3-18.9,9.9-25.4c6.6-6.5,15.5-9.7,26.7-9.7
	c11.4,0,20.4,3.3,27,10c6.6,6.7,9.9,15,9.9,25.1c0,9.8-3.2,17.9-9.6,24.5c-6.4,6.6-15.5,9.8-27.3,9.8c-11.8,0-20.8-3.3-27.1-9.8
	C992.7,1074.6,989.5,1066.4,989.5,1056.7z"/>
</svg>
