<?xml version="1.0" encoding="utf-8"?>
<!-- Generator: Adobe Illustrator 23.0.2, SVG Export Plug-In . SVG Version: 6.00 Build 0)  -->
<svg version="1.1" id="Ebene_1" xmlns="http://www.w3.org/2000/svg" xmlns:xlink="http://www.w3.org/1999/xlink" x="0px" y="0px"
	 viewBox="0 0 1400 1100" style="enable-background:new 0 0 1400 1100;" xml:space="preserve">
<style type="text/css">
	.st0{fill:#FFFFFF;}
	.st1{fill:#E3E3E2;}
	.st2{fill:#033153;}
	.st3{fill:#F2931B;}
	.st4{fill:#A7A9AC;}
	.st5{fill:#D1D3D4;}
	.st6{fill:#CC710D;}
</style>
<rect y="0" class="st0" width="1400" height="1100"/>
<title>clock</title>
<g>
	<g>
		<rect x="286.5" y="563.1" class="st1" width="678.4" height="335.1"/>
		<rect x="286.5" y="283" class="st2" width="710" height="280.1"/>
		<polygon class="st1" points="834.7,283 673,563.1 673,898.2 996.5,898.2 996.5,563.1 		"/>
		<rect x="506.5" y="774.7" class="st3" width="74.9" height="123.5"/>
		<rect x="365.7" y="706.3" class="st0" width="95.1" height="95.1"/>
		<rect x="734.2" y="576.2" class="st0" width="95.1" height="95.1"/>
		<rect x="840.2" y="576.2" class="st0" width="95.1" height="95.1"/>
		<rect x="734.2" y="706.3" class="st0" width="201.1" height="95.1"/>
		<rect x="464.3" y="178.5" class="st4" width="63.8" height="104.5"/>
		<rect x="208.5" y="898.2" class="st4" width="866" height="23.3"/>
		<polygon class="st5" points="318,563.1 673,721.5 673,563.1 		"/>
	</g>
	<g>
		
			<ellipse transform="matrix(0.7071 -0.7071 0.7071 0.7071 -218.8319 943.1212)" class="st3" cx="1029" cy="735.7" rx="154.5" ry="154.5"/>
		<polygon class="st6" points="1177.6,680.9 889.8,812.3 877.7,785.9 870.6,759.5 1150,632 1167.5,656.7 		"/>
		<polygon class="st6" points="1183.6,706.8 903.7,834.6 899.8,826 894.4,818.8 1179.6,688.6 1182.9,696.9 		"/>
		<polygon class="st6" points="1182.1,780.5 963,880.5 953.2,876.3 943.5,869.4 1186.6,758.4 1185.4,768.3 		"/>
		<path class="st6" d="M1029,573.2c-89.6,0-162.5,72.9-162.5,162.5s72.9,162.5,162.5,162.5s162.5-72.9,162.5-162.5
			S1118.6,573.2,1029,573.2z M1029,890.2c-85.2,0-154.5-69.3-154.5-154.5s69.3-154.5,154.5-154.5s154.5,69.3,154.5,154.5
			S1114.2,890.2,1029,890.2z"/>
		<path class="st6" d="M1029,601c-74.3,0-134.7,60.4-134.7,134.7s60.4,134.7,134.7,134.7s134.7-60.4,134.7-134.7
			S1103.3,601,1029,601z M1029,863.8c-70.6,0-128.1-57.4-128.1-128.1s57.4-128.1,128.1-128.1c70.6,0,128.1,57.4,128.1,128.1
			S1099.6,863.8,1029,863.8z"/>
	</g>
	<g>
		<path class="st0" d="M1086.6,817.8c-8,5.2-26.5,11.5-47.7,11.5c-23,0-45.6-7.7-62.4-24.4c-10.5-10.5-18.1-25.1-21.3-41.5h-22
			v-17.1h19.5c-0.3-3.8-0.7-6.3-0.7-8.4c0-3.5,0.3-7.7,1-12.2h-19.9v-16.7h22.3c3.8-16,11.5-30.3,22-40.8
			c17.8-17.8,41.8-26.1,65.9-26.1c20.6,0,33.8,5.2,42.9,9.8l-7,21.6c-8-4.2-19.5-8.4-36.2-8.4c-15.3,0-30.7,4.9-42.9,16.7
			c-7,7-12.5,16.4-14.3,27.2h86.8v16.7h-90.2c-0.3,3.8-0.7,7.7-0.7,10.1c0,3.1,0,6.3,0.3,10.5h90.6v17.1h-87.1
			c2.4,10.1,7.3,18.8,13.6,25.1c12.5,12.2,26.5,17.1,43.9,17.1c17.1,0,31.4-4.9,39.4-9.1L1086.6,817.8z"/>
	</g>
</g>
</svg>
