<?xml version="1.0" encoding="utf-8"?>
<!-- Generator: Adobe Illustrator 23.0.2, SVG Export Plug-In . SVG Version: 6.00 Build 0)  -->
<svg version="1.1" id="Ebene_1" xmlns="http://www.w3.org/2000/svg" xmlns:xlink="http://www.w3.org/1999/xlink" x="0px" y="0px"
	 viewBox="0 0 1400 1100" style="enable-background:new 0 0 1400 1100;" xml:space="preserve">
<style type="text/css">
	.st0{fill:#FFFFFF;}
	.st1{fill:#E3E3E2;}
	.st2{fill:#033153;}
	.st3{fill:#F2931B;}
	.st4{fill:#032133;}
	.st5{fill:#D1D3D4;}
</style>
<rect y="0" class="st0" width="1400" height="1100"/>
<title>clock</title>
<g>
	<polygon class="st1" points="1094.6,864.4 1094.6,234.1 1094.6,222.5 1094.6,212.3 700,212.3 700,222.5 700,234.1 700,864.4 
		700,876.1 700,887.7 1133,887.7 1133,864.4 	"/>
	<polygon class="st2" points="305.4,212.3 305.4,227.6 305.4,234.1 305.4,864.4 267,864.4 267,887.7 700,887.7 700,871 700,864.4 
		700,234.1 700,227.6 700,212.3 	"/>
	<rect x="305.4" y="556.8" class="st3" width="394.6" height="115.1"/>
	<rect x="700" y="328.2" class="st3" width="394.6" height="115.1"/>
	<polygon class="st4" points="700,274.5 305.4,234.1 700,234.1 	"/>
	<polygon class="st5" points="700,234.1 700,274.5 1094.6,314.8 1094.6,234.1 	"/>
	<rect x="378.8" y="695.4" class="st0" width="243.1" height="69"/>
	<rect x="378.8" y="584" class="st0" width="243.1" height="69"/>
	<rect x="378.8" y="472.5" class="st0" width="243.1" height="69"/>
	<rect x="378.8" y="361" class="st0" width="243.1" height="69"/>
	<rect x="775.7" y="695.4" class="st0" width="243.1" height="69"/>
	<rect x="775.7" y="584" class="st0" width="243.1" height="69"/>
	<rect x="775.7" y="472.5" class="st0" width="243.1" height="69"/>
	<rect x="775.7" y="361" class="st0" width="243.1" height="69"/>
</g>
</svg>
