<?xml version="1.0" encoding="utf-8"?>
<!-- Generator: Adobe Illustrator 23.0.2, SVG Export Plug-In . SVG Version: 6.00 Build 0)  -->
<svg version="1.1" id="Ebene_1" xmlns="http://www.w3.org/2000/svg" xmlns:xlink="http://www.w3.org/1999/xlink" x="0px" y="0px"
	 viewBox="0 0 1400 1100" style="enable-background:new 0 0 1400 1100;" xml:space="preserve">
<style type="text/css">
	.st0{fill:#FFFFFF;}
	.st1{fill:#E3E3E2;}
	.st2{fill:#033153;}
	.st3{fill:#F2931B;}
</style>
<rect y="0" class="st0" width="1400" height="1100"/>
<title>clock</title>
<g>
	<polygon class="st1" points="1090.6,818.1 1090.6,406.9 1090.6,374.1 825.8,374.1 825.8,841.4 1133,841.4 1133,818.1 	"/>
	<polygon class="st2" points="309.4,291.4 309.4,818.1 267,818.1 267,841.4 825.8,841.4 825.8,291.4 	"/>
	<rect x="309.4" y="258.6" class="st3" width="516.3" height="32.8"/>
	<path class="st0" d="M825.8,841.4"/>
	<path class="st0" d="M825.8,374.1"/>
	<rect x="353.3" y="392.2" class="st0" width="420.8" height="42.4"/>
	<rect x="353.3" y="503.6" class="st0" width="420.8" height="42.4"/>
	<rect x="353.3" y="615.1" class="st0" width="420.8" height="42.4"/>
	<rect x="353.3" y="726.5" class="st0" width="420.8" height="42.4"/>
	<rect x="855.2" y="669.3" class="st0" width="192.7" height="42.4"/>
	<rect x="855.2" y="570.9" class="st0" width="192.7" height="42.4"/>
	<rect x="855.2" y="472.6" class="st0" width="192.7" height="42.4"/>
</g>
</svg>
