<?xml version="1.0" encoding="utf-8"?>
<!-- Generator: Adobe Illustrator 20.0.0, SVG Export Plug-In . SVG Version: 6.00 Build 0)  -->
<svg version="1.1" id="Ebene_1" xmlns="http://www.w3.org/2000/svg" xmlns:xlink="http://www.w3.org/1999/xlink" x="0px" y="0px"
	 viewBox="-100 -10 1400 1100" enable-background="new 0 0 1400 1100" xml:space="preserve">
<title>clock</title>
<rect x="728.3" y="503.8" fill="#EEEEEC" width="280.6" height="457"/>
<rect x="191.1" y="215.2" fill="#EEEEEC" width="537.2" height="769.7"/>
<line fill="none" stroke="#AAAAAA" stroke-width="21" stroke-miterlimit="10" x1="167" y1="978.8" x2="752.3" y2="978.8"/>
<rect x="239.2" y="303.3" fill="#FFFFFF" width="256.6" height="104.2"/>
<rect x="535.9" y="303.3" fill="#FFFFFF" width="144.3" height="104.2"/>
<rect x="239.2" y="584" fill="#FFFFFF" width="336.7" height="104.2"/>
<rect x="439.6" y="728.3" fill="#FFFFFF" width="240.5" height="104.2"/>
<rect x="792.4" y="584" fill="#FFFFFF" width="216.5" height="104.2"/>
<rect x="792.4" y="728.3" fill="#FFFFFF" width="216.5" height="104.2"/>
<line fill="none" stroke="#AAAAAA" stroke-width="21" stroke-miterlimit="10" x1="728.3" y1="962.8" x2="1033" y2="962.8"/>
<polygon opacity="0.1" fill="#333333" enable-background="new    " points="1008.9,782.8 732.3,503.8 728.3,503.8 728.3,952.8
	1008.9,952.8 "/>
<g>
	<rect x="191.1" y="423.6" fill="#FEB901" class="fill__primary" width="537.2" height="144.3"/>
</g>
<rect x="279.3" y="447.7" fill="#FFFFFF" width="128.3" height="96.2"/>
<rect x="447.7" y="447.7" fill="#FFFFFF" width="232.5" height="96.2"/>
</svg>
