<svg xmlns="http://www.w3.org/2000/svg" width="60" height="60" viewBox="0 0 60 60"><defs><style>.a{fill:rgba(255,255,255,0);}.b{fill:#9c9b9b;}.c{fill:#e3e3e2;}.d{fill:#ffa700;}</style></defs><g transform="translate(-466 -70)"><rect class="a" width="60" height="60" transform="translate(466 70)"/><g transform="translate(269.896 74.367)"><path class="b" d="M197.1,33.712V50.6H255.07l.058-15.724Z"/><path class="c" d="M253.213,34.873h1.915V33.712H237.779c-15.5.027-11.976-.167-17.059,0V29.187c1.044-.233,1.8-2.089,1.8-4.468,0-2.495-1.218-4.468-1.972-4.468-.813,0-1.973,2.031-1.973,4.468,0,2.2.7,4,1.625,4.409v4.584h-5.861V29.187c1.045-.233,1.8-2.089,1.8-4.468,0-2.495-1.219-4.468-1.973-4.468-.812,0-1.973,2.031-1.973,4.468,0,2.2.7,4,1.625,4.409v4.584H207.9V29.187c1.044-.233,1.8-2.089,1.8-4.468,0-2.495-1.218-4.468-1.973-4.468-.812,0-1.972,2.031-1.972,4.468,0,2.2.7,4,1.624,4.409v4.584h-5.86V29.187c1.044-.233,1.8-2.089,1.8-4.468,0-2.495-1.219-4.468-1.973-4.468-.812,0-1.973,2.031-1.973,4.468,0,2.2.7,4,1.625,4.409v4.584H197.1v1.161h3.25a13.619,13.619,0,0,0-3.25,1.16V37.89c4.062-2.843,8.994-3.017,14.042-3.017A37.079,37.079,0,0,0,197.1,39.457v1.856c4.526-3.191,10.154-5.86,15.841-6.382h4.235c-7.775.638-15.26,5.686-20.076,10.27v3.771c3.6-5.106,12.417-13.229,21.469-14.1h2.9c-9.4.986-18.277,10.85-20.714,15.724h4.816c2.146-4.758,9.515-14.8,17.639-15.724h3.249c-7.427.986-14.68,10.85-16.6,15.724h4.816c1.625-4.7,7.485-14.854,13.636-15.724h3.191c-5.4.986-10.966,10.85-12.359,15.724h4.816c1.044-4.642,5.57-15.086,9.632-15.724h2.553c-5.338.986-5.976,10.85-7.485,15.724h5.222c1.16-4.642.116-15.086,4.526-15.724h2.9c-5.628.986-.464,10.85-2.2,15.724h5.222c1.335-4.642-5.454-15.086-.464-15.724h2.089c-4.99.986,6.266,10.85,4.526,15.724h4.584v-4.41c-3.192-4.932-10.155-10.85-6.5-11.314h2.147c-1.857.464.928,2.669,4.41,5.4v-2.5C252.865,36.207,251.762,35.047,253.213,34.873Z"/><ellipse class="d" cx="1.93" cy="4.517" rx="1.93" ry="4.517" transform="translate(199.403 20.251)"/><ellipse class="d" cx="1.93" cy="4.517" rx="1.93" ry="4.517" transform="translate(205.786 20.251)"/><ellipse class="d" cx="1.93" cy="4.517" rx="1.93" ry="4.517" transform="translate(212.24 20.251)"/><ellipse class="d" cx="1.93" cy="4.517" rx="1.93" ry="4.517" transform="translate(218.624 20.251)"/></g></g></svg>