<svg xmlns="http://www.w3.org/2000/svg" width="60" height="60" viewBox="0 0 60 60"><defs><style>.a{fill:rgba(255,255,255,0);}.b{fill:#f0efed;}.c{fill:#444;opacity:0.1;}.d{fill:#9c9b9b;}.e{fill:#ffa700;}.f,.g,.h{fill:none;stroke:#9c9b9b;stroke-miterlimit:10;}.f{stroke-width:1.38px;}.g{stroke-width:0.794px;}.h{stroke-width:0.718px;}.i{fill:#fff;}</style></defs><g transform="translate(-571 -70)"><rect class="a" width="60" height="60" transform="translate(571 70)"/><g transform="translate(292.902 69.004)"><path class="b" d="M313.145,31.247l24.808,9.532L303.906,47.2,279.1,37.712Z"/><path class="c" d="M313.737,31.485l-4.668.923v6.715h21.839l1.8-.342Z"/><path class="d" d="M303.86,35.513a.7.7,0,0,0,.063-.312.741.741,0,0,0-.21-.523v-.1a.52.52,0,0,0-.523-.523.48.48,0,0,0-.4.19.754.754,0,0,0-.649-.4.706.706,0,0,0-.69.5.69.69,0,0,0-.355-.084.728.728,0,0,0-.733.732.78.78,0,0,0,.21.523l3.283,0Z"/><path class="d" d="M296.639,40.153a.7.7,0,0,0,.063-.313.738.738,0,0,0-.21-.522v-.1a.519.519,0,0,0-.523-.523.482.482,0,0,0-.4.189.755.755,0,0,0-.649-.4.706.706,0,0,0-.691.5.686.686,0,0,0-.354-.084.728.728,0,0,0-.733.733.778.778,0,0,0,.21.522l3.283,0Z"/><circle class="e" cx="4.448" cy="4.448" r="4.448" transform="translate(304.575 26.04)"/><line class="f" y2="5.23" transform="translate(309.227 33.893)"/><circle class="e" cx="1.57" cy="1.57" r="1.57" transform="translate(306.092 24.996)"/><circle class="e" cx="1.57" cy="1.57" r="1.57" transform="translate(303.996 26.566)"/><circle class="e" cx="1.57" cy="1.57" r="1.57" transform="translate(303.477 28.662)"/><circle class="e" cx="1.57" cy="1.57" r="1.57" transform="translate(303.996 31.277)"/><circle class="e" cx="1.57" cy="1.57" r="1.57" transform="translate(305.567 32.322)"/><circle class="e" cx="1.57" cy="1.57" r="1.57" transform="translate(308.182 24.996)"/><circle class="e" cx="1.57" cy="1.57" r="1.57" transform="translate(310.272 26.047)"/><circle class="e" cx="1.57" cy="1.57" r="1.57" transform="translate(311.323 27.611)"/><circle class="e" cx="1.57" cy="1.57" r="1.57" transform="translate(311.323 29.181)"/><circle class="e" cx="1.57" cy="1.57" r="1.57" transform="translate(310.797 31.277)"/><circle class="e" cx="1.57" cy="1.57" r="1.57" transform="translate(308.708 32.322)"/><circle class="d" cx="2.558" cy="2.558" r="2.558" transform="translate(294.924 29.093)"/><line class="g" y2="3.008" transform="translate(297.599 33.609)"/><circle class="d" cx="0.903" cy="0.903" r="0.903" transform="translate(295.797 28.492)"/><circle class="d" cx="0.903" cy="0.903" r="0.903" transform="translate(294.591 29.395)"/><circle class="d" cx="0.903" cy="0.903" r="0.903" transform="translate(294.293 30.601)"/><circle class="d" cx="0.903" cy="0.903" r="0.903" transform="translate(294.591 32.105)"/><circle class="d" cx="0.903" cy="0.903" r="0.903" transform="translate(295.495 32.706)"/><circle class="d" cx="0.903" cy="0.903" r="0.903" transform="translate(296.999 28.492)"/><circle class="d" cx="0.903" cy="0.903" r="0.903" transform="translate(298.2 29.097)"/><circle class="d" cx="0.903" cy="0.903" r="0.903" transform="translate(298.805 29.996)"/><circle class="d" cx="0.903" cy="0.903" r="0.903" transform="translate(298.805 30.899)"/><circle class="d" cx="0.903" cy="0.903" r="0.903" transform="translate(298.502 32.105)"/><circle class="d" cx="0.903" cy="0.903" r="0.903" transform="translate(297.301 32.706)"/><circle class="d" cx="2.558" cy="2.558" r="2.558" transform="translate(300.671 37.217)"/><line class="g" y2="3.008" transform="translate(303.347 41.733)"/><circle class="d" cx="0.903" cy="0.903" r="0.903" transform="translate(301.544 36.617)"/><circle class="d" cx="0.903" cy="0.903" r="0.903" transform="translate(300.339 37.52)"/><circle class="d" cx="0.903" cy="0.903" r="0.903" transform="translate(300.04 38.725)"/><circle class="d" cx="0.903" cy="0.903" r="0.903" transform="translate(300.339 40.229)"/><circle class="d" cx="0.903" cy="0.903" r="0.903" transform="translate(301.242 40.83)"/><circle class="d" cx="0.903" cy="0.903" r="0.903" transform="translate(302.746 36.617)"/><circle class="d" cx="0.903" cy="0.903" r="0.903" transform="translate(303.948 37.221)"/><circle class="d" cx="0.903" cy="0.903" r="0.903" transform="translate(304.552 38.121)"/><circle class="d" cx="0.903" cy="0.903" r="0.903" transform="translate(304.552 39.024)"/><circle class="d" cx="0.903" cy="0.903" r="0.903" transform="translate(304.25 40.229)"/><circle class="d" cx="0.903" cy="0.903" r="0.903" transform="translate(303.048 40.83)"/><circle class="d" cx="2.558" cy="2.558" r="2.558" transform="translate(324.286 34.501)"/><line class="g" y2="3.008" transform="translate(326.961 39.017)"/><circle class="d" cx="0.903" cy="0.903" r="0.903" transform="translate(325.159 33.9)"/><circle class="d" cx="0.903" cy="0.903" r="0.903" transform="translate(323.953 34.803)"/><circle class="d" cx="0.903" cy="0.903" r="0.903" transform="translate(323.655 36.009)"/><circle class="d" cx="0.903" cy="0.903" r="0.903" transform="translate(323.953 37.513)"/><circle class="d" cx="0.903" cy="0.903" r="0.903" transform="translate(324.856 38.114)"/><circle class="d" cx="0.903" cy="0.903" r="0.903" transform="translate(326.36 33.9)"/><circle class="d" cx="0.903" cy="0.903" r="0.903" transform="translate(327.562 34.505)"/><circle class="d" cx="0.903" cy="0.903" r="0.903" transform="translate(328.167 35.404)"/><circle class="d" cx="0.903" cy="0.903" r="0.903" transform="translate(328.167 36.307)"/><circle class="d" cx="0.903" cy="0.903" r="0.903" transform="translate(327.864 37.513)"/><circle class="d" cx="0.903" cy="0.903" r="0.903" transform="translate(326.663 38.114)"/><circle class="d" cx="2.558" cy="2.558" r="2.558" transform="translate(312.47 37.369)"/><line class="g" y2="3.008" transform="translate(315.146 41.884)"/><circle class="d" cx="0.903" cy="0.903" r="0.903" transform="translate(313.343 36.768)"/><circle class="d" cx="0.903" cy="0.903" r="0.903" transform="translate(312.138 37.671)"/><circle class="d" cx="0.903" cy="0.903" r="0.903" transform="translate(311.839 38.876)"/><circle class="d" cx="0.903" cy="0.903" r="0.903" transform="translate(312.138 40.38)"/><circle class="d" cx="0.903" cy="0.903" r="0.903" transform="translate(313.041 40.981)"/><circle class="d" cx="0.903" cy="0.903" r="0.903" transform="translate(314.545 36.768)"/><circle class="d" cx="0.903" cy="0.903" r="0.903" transform="translate(315.746 37.372)"/><circle class="d" cx="0.903" cy="0.903" r="0.903" transform="translate(316.351 38.272)"/><circle class="d" cx="0.903" cy="0.903" r="0.903" transform="translate(316.351 39.175)"/><circle class="d" cx="0.903" cy="0.903" r="0.903" transform="translate(316.049 40.38)"/><circle class="d" cx="0.903" cy="0.903" r="0.903" transform="translate(314.847 40.981)"/><circle class="d" cx="2.313" cy="2.313" r="2.313" transform="translate(288.092 33.879)"/><line class="h" y2="2.72" transform="translate(290.511 37.962)"/><circle class="d" cx="0.817" cy="0.817" r="0.817" transform="translate(288.881 33.336)"/><circle class="d" cx="0.817" cy="0.817" r="0.817" transform="translate(287.791 34.152)"/><circle class="d" cx="0.817" cy="0.817" r="0.817" transform="translate(287.521 35.242)"/><circle class="d" cx="0.817" cy="0.817" r="0.817" transform="translate(287.791 36.602)"/><circle class="d" cx="0.817" cy="0.817" r="0.817" transform="translate(288.608 37.146)"/><circle class="d" cx="0.817" cy="0.817" r="0.817" transform="translate(289.968 33.336)"/><circle class="d" cx="0.817" cy="0.817" r="0.817" transform="translate(291.055 33.882)"/><circle class="d" cx="0.817" cy="0.817" r="0.817" transform="translate(291.601 34.696)"/><circle class="d" cx="0.817" cy="0.817" r="0.817" transform="translate(291.601 35.512)"/><circle class="d" cx="0.817" cy="0.817" r="0.817" transform="translate(291.328 36.602)"/><circle class="d" cx="0.817" cy="0.817" r="0.817" transform="translate(290.241 37.146)"/><path class="g" d="M315.554,44.892"/><path class="i" d="M301.242,40.229s-.993,1.463.9,1.5A2.073,2.073,0,0,1,301.242,40.229Z"/><path class="i" d="M288.56,36.667s-.994,1.463.9,1.5A2.073,2.073,0,0,1,288.56,36.667Z"/></g></g></svg>