<svg xmlns="http://www.w3.org/2000/svg" width="60" height="60" viewBox="0 0 60 60"><defs><style>.a{fill:rgba(255,255,255,0);}.b{fill:#eaeae8;}.c{fill:none;stroke:#9c9b9b;stroke-miterlimit:10;stroke-width:1.421px;}.d{fill:#fff;}.e{fill:#262626;opacity:0.1;}.f{fill:#ffa700;}</style></defs><g transform="translate(-46 -167)"><rect class="a" width="60" height="60" transform="translate(46 167)"/><g transform="translate(-321.398 166.636)"><rect class="b" width="18.989" height="30.926" transform="translate(406.382 25.894)"/><rect class="b" width="36.353" height="52.087" transform="translate(370.029 6.364)"/><line class="c" x2="39.608" transform="translate(368.398 58.038)"/><rect class="d" width="17.364" height="7.051" transform="translate(373.284 12.326)"/><rect class="d" width="9.765" height="7.051" transform="translate(393.362 12.326)"/><rect class="d" width="22.785" height="7.051" transform="translate(373.284 25.201)"/><rect class="d" width="16.275" height="7.051" transform="translate(386.845 36.092)"/><rect class="d" width="14.651" height="7.051" transform="translate(410.72 31.321)"/><rect class="d" width="14.651" height="7.051" transform="translate(410.72 41.086)"/><line class="c" x2="20.619" transform="translate(406.382 56.955)"/><path class="e" d="M425.371,44.774l-18.718-18.88h-.271V56.278h18.989Z"/><rect class="f" width="36.353" height="9.765" transform="translate(370.026 47.573)"/><rect class="d" width="8.682" height="6.51" transform="translate(375.994 49.204)"/><rect class="d" width="15.734" height="6.51" transform="translate(387.39 49.204)"/></g></g></svg>