<?xml version="1.0" encoding="utf-8"?>
<!-- Generator: Adobe Illustrator 20.0.0, SVG Export Plug-In . SVG Version: 6.00 Build 0)  -->
<svg version="1.1" id="Ebene_1" xmlns="http://www.w3.org/2000/svg" xmlns:xlink="http://www.w3.org/1999/xlink" x="0px" y="0px"
	 viewBox="-100 0 1400 1100" enable-background="new 0 0 1400 1100" xml:space="preserve">
<title>clock</title>
<rect x="367.2" y="151.7" fill="#DADADA" stroke="#DADADA" stroke-miterlimit="10" width="578.2" height="682.2"/>
<polygon opacity="0.4" fill="#AAAAAA" enable-background="new    " points="828,298.6 707.8,298.6 490.3,516.1 490.3,665
	664.9,833.8 945.4,833.8 945.4,418.8 "/>
<line fill="none" stroke="#DADADA" stroke-width="15" stroke-miterlimit="10" x1="288" y1="1060" x2="288" y2="974.1"/>
<line fill="none" stroke="#DADADA" stroke-width="15" stroke-miterlimit="10" x1="552.3" y1="1060" x2="552.3" y2="974.1"/>
<line fill="none" stroke="#DADADA" stroke-width="8" stroke-miterlimit="10" x1="526.5" y1="1060" x2="526.5" y2="1012.3"/>
<line fill="none" stroke="#DADADA" stroke-width="8" stroke-miterlimit="10" x1="499.8" y1="1060" x2="499.8" y2="1012.3"/>
<line fill="none" stroke="#DADADA" stroke-width="8" stroke-miterlimit="10" x1="446.4" y1="1060" x2="446.4" y2="1012.3"/>
<line fill="none" stroke="#DADADA" stroke-width="15" stroke-miterlimit="10" x1="420.6" y1="1060" x2="420.6" y2="988.4"/>
<line fill="none" stroke="#DADADA" stroke-width="8" stroke-miterlimit="10" x1="393.9" y1="1060" x2="393.9" y2="1012.3"/>
<line fill="none" stroke="#DADADA" stroke-width="8" stroke-miterlimit="10" x1="473.1" y1="1060" x2="473.1" y2="1012.3"/>
<line fill="none" stroke="#DADADA" stroke-width="8" stroke-miterlimit="10" x1="367.2" y1="1060" x2="367.2" y2="1012.3"/>
<line fill="none" stroke="#DADADA" stroke-width="8" stroke-miterlimit="10" x1="340.5" y1="1060" x2="340.5" y2="1012.3"/>
<line fill="none" stroke="#DADADA" stroke-width="8" stroke-miterlimit="10" x1="314.7" y1="1060" x2="314.7" y2="1012.3"/>
<line fill="none" stroke="#DADADA" stroke-width="15" stroke-miterlimit="10" x1="552.3" y1="1060" x2="552.3" y2="974.1"/>
<line fill="none" stroke="#DADADA" stroke-width="15" stroke-miterlimit="10" x1="817.5" y1="1060" x2="817.5" y2="974.1"/>
<line fill="none" stroke="#DADADA" stroke-width="8" stroke-miterlimit="10" x1="790.8" y1="1060" x2="790.8" y2="1012.3"/>
<line fill="none" stroke="#DADADA" stroke-width="8" stroke-miterlimit="10" x1="765.1" y1="1060" x2="765.1" y2="1012.3"/>
<line fill="none" stroke="#DADADA" stroke-width="8" stroke-miterlimit="10" x1="711.6" y1="1060" x2="711.6" y2="1012.3"/>
<line fill="none" stroke="#DADADA" stroke-width="15" stroke-miterlimit="10" x1="684.9" y1="1060" x2="684.9" y2="988.4"/>
<line fill="none" stroke="#DADADA" stroke-width="8" stroke-miterlimit="10" x1="659.2" y1="1060" x2="659.2" y2="1012.3"/>
<line fill="none" stroke="#DADADA" stroke-width="8" stroke-miterlimit="10" x1="738.3" y1="1060" x2="738.3" y2="1012.3"/>
<line fill="none" stroke="#DADADA" stroke-width="8" stroke-miterlimit="10" x1="632.4" y1="1060" x2="632.4" y2="1012.3"/>
<line fill="none" stroke="#DADADA" stroke-width="8" stroke-miterlimit="10" x1="605.7" y1="1060" x2="605.7" y2="1012.3"/>
<line fill="none" stroke="#DADADA" stroke-width="8" stroke-miterlimit="10" x1="579" y1="1060" x2="579" y2="1012.3"/>
<line fill="none" stroke="#DADADA" stroke-width="15" stroke-miterlimit="10" x1="817.5" y1="1060" x2="817.5" y2="974.1"/>
<line fill="none" stroke="#DADADA" stroke-width="15" stroke-miterlimit="10" x1="817.5" y1="1060" x2="817.5" y2="974.1"/>
<line fill="none" stroke="#DADADA" stroke-width="15" stroke-miterlimit="10" x1="817.5" y1="1060" x2="817.5" y2="974.1"/>
<line fill="none" stroke="#DADADA" stroke-width="15" stroke-miterlimit="10" x1="1082.8" y1="1060" x2="1082.8" y2="974.1"/>
<line fill="none" stroke="#DADADA" stroke-width="8" stroke-miterlimit="10" x1="1056.1" y1="1060" x2="1056.1" y2="1012.3"/>
<line fill="none" stroke="#DADADA" stroke-width="8" stroke-miterlimit="10" x1="1029.4" y1="1060" x2="1029.4" y2="1012.3"/>
<line fill="none" stroke="#DADADA" stroke-width="8" stroke-miterlimit="10" x1="976.9" y1="1060" x2="976.9" y2="1012.3"/>
<line fill="none" stroke="#DADADA" stroke-width="15" stroke-miterlimit="10" x1="950.2" y1="1060" x2="950.2" y2="988.4"/>
<line fill="none" stroke="#DADADA" stroke-width="8" stroke-miterlimit="10" x1="923.4" y1="1060" x2="923.4" y2="1012.3"/>
<line fill="none" stroke="#DADADA" stroke-width="8" stroke-miterlimit="10" x1="1002.6" y1="1060" x2="1002.6" y2="1012.3"/>
<line fill="none" stroke="#DADADA" stroke-width="8" stroke-miterlimit="10" x1="896.7" y1="1060" x2="896.7" y2="1012.3"/>
<line fill="none" stroke="#DADADA" stroke-width="8" stroke-miterlimit="10" x1="871" y1="1060" x2="871" y2="1012.3"/>
<line fill="none" stroke="#DADADA" stroke-width="8" stroke-miterlimit="10" x1="844.3" y1="1060" x2="844.3" y2="1012.3"/>
<line fill="none" stroke="#DADADA" stroke-width="15" stroke-miterlimit="10" x1="1082.8" y1="1060" x2="1082.8" y2="974.1"/>
<line fill="none" stroke="#DADADA" stroke-width="15" stroke-miterlimit="10" x1="117.2" y1="655.4" x2="203.1" y2="655.4"/>
<line fill="none" stroke="#DADADA" stroke-width="15" stroke-miterlimit="10" x1="117.2" y1="655.4" x2="203.1" y2="655.4"/>
<line fill="none" stroke="#DADADA" stroke-width="15" stroke-miterlimit="10" x1="117.2" y1="919.7" x2="203.1" y2="919.7"/>
<line fill="none" stroke="#DADADA" stroke-width="8" stroke-miterlimit="10" x1="117.2" y1="893" x2="164.9" y2="893"/>
<line fill="none" stroke="#DADADA" stroke-width="8" stroke-miterlimit="10" x1="117.2" y1="867.2" x2="164.9" y2="867.2"/>
<line fill="none" stroke="#DADADA" stroke-width="8" stroke-miterlimit="10" x1="117.2" y1="813.8" x2="164.9" y2="813.8"/>
<line fill="none" stroke="#DADADA" stroke-width="15" stroke-miterlimit="10" x1="117.2" y1="787.1" x2="188.8" y2="787.1"/>
<line fill="none" stroke="#DADADA" stroke-width="8" stroke-miterlimit="10" x1="117.2" y1="761.3" x2="164.9" y2="761.3"/>
<line fill="none" stroke="#DADADA" stroke-width="8" stroke-miterlimit="10" x1="117.2" y1="840.5" x2="164.9" y2="840.5"/>
<line fill="none" stroke="#DADADA" stroke-width="8" stroke-miterlimit="10" x1="117.2" y1="734.6" x2="164.9" y2="734.6"/>
<line fill="none" stroke="#DADADA" stroke-width="8" stroke-miterlimit="10" x1="117.2" y1="707.9" x2="164.9" y2="707.9"/>
<line fill="none" stroke="#DADADA" stroke-width="8" stroke-miterlimit="10" x1="117.2" y1="681.2" x2="164.9" y2="681.2"/>
<line fill="none" stroke="#DADADA" stroke-width="15" stroke-miterlimit="10" x1="117.2" y1="390.2" x2="203.1" y2="390.2"/>
<line fill="none" stroke="#DADADA" stroke-width="15" stroke-miterlimit="10" x1="117.2" y1="390.2" x2="203.1" y2="390.2"/>
<line fill="none" stroke="#DADADA" stroke-width="15" stroke-miterlimit="10" x1="117.2" y1="655.4" x2="203.1" y2="655.4"/>
<line fill="none" stroke="#DADADA" stroke-width="8" stroke-miterlimit="10" x1="117.2" y1="628.7" x2="164.9" y2="628.7"/>
<line fill="none" stroke="#DADADA" stroke-width="8" stroke-miterlimit="10" x1="117.2" y1="602" x2="164.9" y2="602"/>
<line fill="none" stroke="#DADADA" stroke-width="8" stroke-miterlimit="10" x1="117.2" y1="549.5" x2="164.9" y2="549.5"/>
<line fill="none" stroke="#DADADA" stroke-width="15" stroke-miterlimit="10" x1="117.2" y1="522.8" x2="188.8" y2="522.8"/>
<line fill="none" stroke="#DADADA" stroke-width="8" stroke-miterlimit="10" x1="117.2" y1="496.1" x2="164.9" y2="496.1"/>
<line fill="none" stroke="#DADADA" stroke-width="8" stroke-miterlimit="10" x1="117.2" y1="575.3" x2="164.9" y2="575.3"/>
<line fill="none" stroke="#DADADA" stroke-width="8" stroke-miterlimit="10" x1="117.2" y1="469.4" x2="164.9" y2="469.4"/>
<line fill="none" stroke="#DADADA" stroke-width="8" stroke-miterlimit="10" x1="117.2" y1="443.6" x2="164.9" y2="443.6"/>
<line fill="none" stroke="#DADADA" stroke-width="8" stroke-miterlimit="10" x1="117.2" y1="416.9" x2="164.9" y2="416.9"/>
<line fill="none" stroke="#DADADA" stroke-width="15" stroke-miterlimit="10" x1="117.2" y1="124.9" x2="203.1" y2="124.9"/>
<line fill="none" stroke="#DADADA" stroke-width="15" stroke-miterlimit="10" x1="117.2" y1="124.9" x2="203.1" y2="124.9"/>
<line fill="none" stroke="#DADADA" stroke-width="15" stroke-miterlimit="10" x1="117.2" y1="390.2" x2="203.1" y2="390.2"/>
<line fill="none" stroke="#DADADA" stroke-width="8" stroke-miterlimit="10" x1="117.2" y1="363.5" x2="164.9" y2="363.5"/>
<line fill="none" stroke="#DADADA" stroke-width="8" stroke-miterlimit="10" x1="117.2" y1="336.8" x2="164.9" y2="336.8"/>
<line fill="none" stroke="#DADADA" stroke-width="8" stroke-miterlimit="10" x1="117.2" y1="284.3" x2="164.9" y2="284.3"/>
<line fill="none" stroke="#DADADA" stroke-width="15" stroke-miterlimit="10" x1="117.2" y1="257.6" x2="188.8" y2="257.6"/>
<line fill="none" stroke="#DADADA" stroke-width="8" stroke-miterlimit="10" x1="117.2" y1="230.8" x2="164.9" y2="230.8"/>
<line fill="none" stroke="#DADADA" stroke-width="8" stroke-miterlimit="10" x1="117.2" y1="311" x2="164.9" y2="311"/>
<line fill="none" stroke="#DADADA" stroke-width="8" stroke-miterlimit="10" x1="117.2" y1="205.1" x2="164.9" y2="205.1"/>
<line fill="none" stroke="#DADADA" stroke-width="8" stroke-miterlimit="10" x1="117.2" y1="178.4" x2="164.9" y2="178.4"/>
<line fill="none" stroke="#DADADA" stroke-width="8" stroke-miterlimit="10" x1="117.2" y1="151.7" x2="164.9" y2="151.7"/>
<rect x="490.3" y="298.6" fill="#FEB901" class="fill__primary" width="337.8" height="366.4"/>
<polygon fill="#F79E00" class="fill__primary_dark" points="828,664 659.2,597.2 659.2,366.3 828,298.6 "/>
<polygon fill="#F9CB00" class="fill__primary_light" points="490.3,664 659.2,597.2 659.2,366.3 490.3,298.6 "/>
<rect x="709.7" y="372.1" fill="#DADADA" width="67.7" height="67.7"/>
<rect x="726.9" y="388.3" fill="#AAAAAA" stroke="#AAAAAA" stroke-miterlimit="10" width="33.4" height="33.4"/>
</svg>
