<?xml version="1.0" encoding="utf-8"?>
<!-- Generator: Adobe Illustrator 20.0.0, SVG Export Plug-In . SVG Version: 6.00 Build 0)  -->
<svg version="1.1" baseProfile="basic" id="Ebene_1"
	 xmlns="http://www.w3.org/2000/svg" xmlns:xlink="http://www.w3.org/1999/xlink" x="0px" y="0px" viewBox="0 130 1400 1100"
	 xml:space="preserve">
<title>Verkauf</title>
<polygon fill="#999999" points="897.3,433 897.3,566.6 979.6,597.6 979.6,433 "/>
<polygon fill="#E8E8E8" points="1113.2,1172.7 290.5,1172.7 290.5,658.5 681.4,462.9 1113.2,658.5 "/>
<polygon fill="#E8E8E8" points="218.5,689.2 1185.2,689.2 678,459.9 "/>
<rect x="485.8" y="689.2" fill="#FFFFFF" width="185.3" height="113.3"/>
<rect x="732.7" y="689.2" fill="#FFFFFF" width="185.3" height="113.3"/>
<rect x="732.7" y="915.4" fill="#FFFFFF" width="185.3" height="112.9"/>
<rect x="485.8" y="915.4" fill="#FFFFFF" width="185.3" height="257.3"/>
<rect x="218.5" y="433" fill="none" width="966.6" height="750.3"/>
<rect x="733.4" y="810.6" fill="#FFFFFF" width="448.1" height="303"/>
<path fill="#FEB901" class="fill__primary" d="M733.4,1113.6h448.1v-303H733.4V1113.6z M1159.3,1091.1H755.9V832.7h403.4L1159.3,1091.1z"/>
<g>
	<defs>
		<rect id="SVGID_1_" x="218.5" y="433" width="966.6" height="750.3"/>
	</defs>
	<clipPath id="SVGID_2_">
		<use xlink:href="#SVGID_1_"  overflow="visible"/>
	</clipPath>
	<g clip-path="url(#SVGID_2_)">
		<path fill="#FEB901" class="fill__primary" d="M784,1063h346.9V861.1H784V1063z M864.1,1006.2h-20v-55l0.4-8.9l0.4-10c-2.2,2.3-4.5,4.6-7,6.6l-11.1,8.9
			l-9.6-12.2l30.6-24.4h16.6L864.1,1006.2z M932,995.5c-5.5,8.1-13.7,11.8-25.1,11.8c-9.9,0.5-19.3-4.3-24.7-12.5
			c-5.5-8.1-8.5-20.3-8.5-36.5c0-16.6,2.6-29.2,8.1-36.9s13.7-11.8,25.1-11.8c9.9-0.5,19.3,4.3,24.7,12.5c5.5,8.5,8.5,20.7,8.5,36.5
			C940.5,975.6,937.5,987.7,932,995.5 M1005.5,995.5c-5.5,8.1-13.7,11.8-25.1,11.8c-9.9,0.7-19.4-4.1-24.7-12.5
			c-5.5-8.1-8.5-20.3-8.5-36.5c0-16.6,2.6-29.2,8.1-36.9s13.7-11.8,25.1-11.8c9.9-0.5,19.3,4.3,24.6,12.5c5.5,8.5,8.5,20.7,8.5,36.5
			C1013.5,975.6,1010.9,987.7,1005.5,995.5 M1082.1,944.5V956h-27.3v7.4h23.3v11.5H1056c2.2,10.7,9.2,15.9,20.7,15.9
			c6.1,0.1,12.2-1.2,17.7-3.7v16.6c-6,2.7-12.6,4-19.2,3.7c-9.5,0.4-18.8-2.6-26.2-8.5c-7.1-6.2-11.7-14.7-12.9-24h-8.9v-11.5h7.8
			c-0.3-1.3-0.4-2.7-0.4-4.1V956h-7.4v-11.5h8.5c1.2-9.5,5.7-18.3,12.9-24.7c7.3-6.3,16.6-9.6,26.2-9.2c7.9,0,15.7,1.8,22.9,5.2
			l-6.3,15.1c-2.6-1.1-5.5-2.2-8.5-3.3c-2.6-0.7-5.4-1.1-8.1-1.1c-4.8,0-9.6,1.5-12.9,4.4c-3.6,3.6-6,8.2-6.6,13.3L1082.1,944.5z"/>
		<path fill="#FEB901" class="fill__primary" d="M907.2,926.1c-4.8,0-9,3.1-10.3,7.8c-2.5,8.1-3.5,16.6-3,25.1c-0.3,8.5,0.7,16.9,3,25.1
			c1.5,4.4,5.6,7.4,10.3,7.4c4.8,0,9-3.1,10.3-7.8c2.6-8.1,3.7-16.6,3-25.1c0.4-8.5-0.8-17-3.3-25.1
			C915.8,929.1,911.8,926.2,907.2,926.1"/>
		<path fill="#FEB901" class="fill__primary" d="M980.3,926.1c-4.8,0-9,3.1-10.3,7.8c-2.5,8.1-3.5,16.6-3,25.1c-0.3,8.5,0.7,16.9,3,25.1
			c1.5,4.4,5.7,7.4,10.3,7.4c4.8,0,9-3.1,10.3-7.8c2.7-8.1,3.7-16.6,3-25.1c0.4-8.5-0.8-17-3.3-25.1
			C989.1,929,985,925.9,980.3,926.1"/>
		<polygon fill="#EA9800" class="fill__primary_dark" points="755.9,1091.1 755.9,832.7 761.8,832.7 739.7,810.9 733.4,810.9 733.4,1113.6 1042.7,1113.6
			1020.2,1091.1 		"/>
		<path fill="#EA9800" class="fill__primary_dark" d="M784,1063h208.1l-63.5-63.5c-5.2,5.2-12.5,7.8-21.8,7.8c-9.9,0.5-19.3-4.2-24.7-12.5
			c-5.5-8.1-8.5-20.3-8.5-36.5c0-4.8,0.4-9.2,0.7-13.3l-10.7-10.7v71.2h-19.9v-55l0.4-8.9l0.4-10c-2.2,2.3-4.5,4.6-7,6.7l-11.1,8.9
			l-9.6-12.2l26.6-21l-53.5-52.8h-6.3L784,1063z"/>
	</g>
</g>
<path fill="#F6F6F6" d="M937.6,396.4h-9.3c0-11.6,5.9-17.5,11-22.6c4.7-4.6,8.3-8.3,8.3-16.1s-3.7-11.4-8.3-16.1
	c-5.2-5.2-11-11-11-22.6s5.9-17.5,11-22.6c4.7-4.6,8.3-8.3,8.3-16.1c0-7.8-3.7-11.4-8.3-16.1c-5.2-5.2-11-11-11-22.6
	c0-11.7,5.9-17.5,11-22.7c4.7-4.6,8.3-8.3,8.3-16.1h9.4c0,11.6-5.9,17.5-11,22.7c-4.7,4.6-8.3,8.3-8.3,16.1c0,7.8,3.7,11.4,8.3,16.1
	c5.2,5.2,11,11,11,22.7c0,11.6-5.9,17.5-11,22.6c-4.7,4.6-8.3,8.3-8.3,16.1c0,7.8,3.7,11.4,8.3,16.1c5.2,5.2,11,11,11,22.6
	s-5.9,17.5-11,22.6C941.3,384.9,937.6,388.6,937.6,396.4z"/>
<rect x="214.8" y="1169.4" fill="#999999" width="966.6" height="27.8"/>
</svg>
