<?xml version="1.0" encoding="utf-8"?>
<!-- Generator: Adobe Illustrator 20.0.0, SVG Export Plug-In . SVG Version: 6.00 Build 0)  -->
<svg version="1.1" id="Ebene_1" xmlns="http://www.w3.org/2000/svg" xmlns:xlink="http://www.w3.org/1999/xlink" x="0px" y="0px"
	 viewBox="-100 0 1400 1100" enable-background="new 0 0 1400 1100" xml:space="preserve">
<title>clock</title>
<rect x="451" y="331.9" fill="#DADADA" stroke="#DADADA" stroke-miterlimit="10" width="442.2" height="415.5"/>
<rect x="605.7" y="747.4" fill="#EEEEEC" width="93.1" height="17.8"/>
<g>
	<polyline fill="none" stroke="#FEB901" class="line__primary" stroke-width="21" stroke-miterlimit="10" points="425.1,391.9 425.1,305.2 618.6,305.2
		"/>
	<line fill="none" stroke="#FEB901" class="line__primary" stroke-width="21" stroke-miterlimit="10" x1="425.1" y1="597.6" x2="425.1" y2="466.4"/>
	<polyline fill="none" stroke="#FEB901" class="line__primary" stroke-width="21" stroke-miterlimit="10" points="464.8,772.5 425.1,772.5 425.1,667.2
		"/>
	<polyline fill="none" stroke="#FEB901" class="line__primary" stroke-width="21" stroke-miterlimit="10" points="525.5,772.5 578.9,772.5 578.9,791.1
		611.3,791.1 700.4,791.1 723.9,791.1 723.9,772.5 819.5,772.5 	"/>
	<polyline fill="none" stroke="#FEB901" class="line__primary" stroke-width="21" stroke-miterlimit="10" points="919.9,667.2 919.9,772.5 885.1,772.5
		"/>
	<line fill="none" stroke="#FEB901" class="line__primary" stroke-width="21" stroke-miterlimit="10" x1="919.9" y1="466.4" x2="919.9" y2="597.6"/>
	<polyline fill="none" stroke="#FEB901" class="line__primary" stroke-width="21" stroke-miterlimit="10" points="684.2,305.2 789.5,305.2 864,305.2
		919.9,305.2 919.9,391.9 	"/>
</g>
<line fill="none" stroke="#DADADA" stroke-width="15" stroke-miterlimit="10" x1="335.2" y1="996.8" x2="335.2" y2="923.9"/>
<line fill="none" stroke="#DADADA" stroke-width="15" stroke-miterlimit="10" x1="559.5" y1="996.8" x2="559.5" y2="923.9"/>
<line fill="none" stroke="#DADADA" stroke-width="8" stroke-miterlimit="10" x1="537.6" y1="996.8" x2="537.6" y2="956.3"/>
<line fill="none" stroke="#DADADA" stroke-width="8" stroke-miterlimit="10" x1="515" y1="996.8" x2="515" y2="956.3"/>
<line fill="none" stroke="#DADADA" stroke-width="8" stroke-miterlimit="10" x1="469.6" y1="996.8" x2="469.6" y2="956.3"/>
<line fill="none" stroke="#DADADA" stroke-width="15" stroke-miterlimit="10" x1="447.7" y1="996.8" x2="447.7" y2="936.1"/>
<line fill="none" stroke="#DADADA" stroke-width="8" stroke-miterlimit="10" x1="425.1" y1="996.8" x2="425.1" y2="956.3"/>
<line fill="none" stroke="#DADADA" stroke-width="8" stroke-miterlimit="10" x1="492.3" y1="996.8" x2="492.3" y2="956.3"/>
<line fill="none" stroke="#DADADA" stroke-width="8" stroke-miterlimit="10" x1="402.4" y1="996.8" x2="402.4" y2="956.3"/>
<line fill="none" stroke="#DADADA" stroke-width="8" stroke-miterlimit="10" x1="379.7" y1="996.8" x2="379.7" y2="956.3"/>
<line fill="none" stroke="#DADADA" stroke-width="8" stroke-miterlimit="10" x1="357.9" y1="996.8" x2="357.9" y2="956.3"/>
<line fill="none" stroke="#DADADA" stroke-width="15" stroke-miterlimit="10" x1="559.5" y1="996.8" x2="559.5" y2="923.9"/>
<line fill="none" stroke="#DADADA" stroke-width="15" stroke-miterlimit="10" x1="784.6" y1="996.8" x2="784.6" y2="923.9"/>
<line fill="none" stroke="#DADADA" stroke-width="8" stroke-miterlimit="10" x1="762" y1="996.8" x2="762" y2="956.3"/>
<line fill="none" stroke="#DADADA" stroke-width="8" stroke-miterlimit="10" x1="740.1" y1="996.8" x2="740.1" y2="956.3"/>
<line fill="none" stroke="#DADADA" stroke-width="8" stroke-miterlimit="10" x1="694.8" y1="996.8" x2="694.8" y2="956.3"/>
<line fill="none" stroke="#DADADA" stroke-width="15" stroke-miterlimit="10" x1="672.1" y1="996.8" x2="672.1" y2="936.1"/>
<line fill="none" stroke="#DADADA" stroke-width="8" stroke-miterlimit="10" x1="650.2" y1="996.8" x2="650.2" y2="956.3"/>
<line fill="none" stroke="#DADADA" stroke-width="8" stroke-miterlimit="10" x1="717.4" y1="996.8" x2="717.4" y2="956.3"/>
<line fill="none" stroke="#DADADA" stroke-width="8" stroke-miterlimit="10" x1="627.5" y1="996.8" x2="627.5" y2="956.3"/>
<line fill="none" stroke="#DADADA" stroke-width="8" stroke-miterlimit="10" x1="604.9" y1="996.8" x2="604.9" y2="956.3"/>
<line fill="none" stroke="#DADADA" stroke-width="8" stroke-miterlimit="10" x1="582.2" y1="996.8" x2="582.2" y2="956.3"/>
<line fill="none" stroke="#DADADA" stroke-width="15" stroke-miterlimit="10" x1="784.6" y1="996.8" x2="784.6" y2="923.9"/>
<line fill="none" stroke="#DADADA" stroke-width="15" stroke-miterlimit="10" x1="784.6" y1="996.8" x2="784.6" y2="923.9"/>
<line fill="none" stroke="#DADADA" stroke-width="15" stroke-miterlimit="10" x1="784.6" y1="996.8" x2="784.6" y2="923.9"/>
<line fill="none" stroke="#DADADA" stroke-width="15" stroke-miterlimit="10" x1="1009.8" y1="996.8" x2="1009.8" y2="923.9"/>
<line fill="none" stroke="#DADADA" stroke-width="8" stroke-miterlimit="10" x1="987.1" y1="996.8" x2="987.1" y2="956.3"/>
<line fill="none" stroke="#DADADA" stroke-width="8" stroke-miterlimit="10" x1="964.4" y1="996.8" x2="964.4" y2="956.3"/>
<line fill="none" stroke="#DADADA" stroke-width="8" stroke-miterlimit="10" x1="919.9" y1="996.8" x2="919.9" y2="956.3"/>
<line fill="none" stroke="#DADADA" stroke-width="15" stroke-miterlimit="10" x1="897.2" y1="996.8" x2="897.2" y2="936.1"/>
<line fill="none" stroke="#DADADA" stroke-width="8" stroke-miterlimit="10" x1="874.5" y1="996.8" x2="874.5" y2="956.3"/>
<line fill="none" stroke="#DADADA" stroke-width="8" stroke-miterlimit="10" x1="941.8" y1="996.8" x2="941.8" y2="956.3"/>
<line fill="none" stroke="#DADADA" stroke-width="8" stroke-miterlimit="10" x1="851.9" y1="996.8" x2="851.9" y2="956.3"/>
<line fill="none" stroke="#DADADA" stroke-width="8" stroke-miterlimit="10" x1="830" y1="996.8" x2="830" y2="956.3"/>
<line fill="none" stroke="#DADADA" stroke-width="8" stroke-miterlimit="10" x1="807.3" y1="996.8" x2="807.3" y2="956.3"/>
<line fill="none" stroke="#DADADA" stroke-width="15" stroke-miterlimit="10" x1="1009.8" y1="996.8" x2="1009.8" y2="923.9"/>
<line fill="none" stroke="#DADADA" stroke-width="15" stroke-miterlimit="10" x1="190.2" y1="653.5" x2="263.1" y2="653.5"/>
<line fill="none" stroke="#DADADA" stroke-width="15" stroke-miterlimit="10" x1="190.2" y1="653.5" x2="263.1" y2="653.5"/>
<line fill="none" stroke="#DADADA" stroke-width="15" stroke-miterlimit="10" x1="190.2" y1="877.8" x2="263.1" y2="877.8"/>
<line fill="none" stroke="#DADADA" stroke-width="8" stroke-miterlimit="10" x1="190.2" y1="855.1" x2="230.7" y2="855.1"/>
<line fill="none" stroke="#DADADA" stroke-width="8" stroke-miterlimit="10" x1="190.2" y1="833.2" x2="230.7" y2="833.2"/>
<line fill="none" stroke="#DADADA" stroke-width="8" stroke-miterlimit="10" x1="190.2" y1="787.9" x2="230.7" y2="787.9"/>
<line fill="none" stroke="#DADADA" stroke-width="15" stroke-miterlimit="10" x1="190.2" y1="765.2" x2="251" y2="765.2"/>
<line fill="none" stroke="#DADADA" stroke-width="8" stroke-miterlimit="10" x1="190.2" y1="743.3" x2="230.7" y2="743.3"/>
<line fill="none" stroke="#DADADA" stroke-width="8" stroke-miterlimit="10" x1="190.2" y1="810.6" x2="230.7" y2="810.6"/>
<line fill="none" stroke="#DADADA" stroke-width="8" stroke-miterlimit="10" x1="190.2" y1="720.7" x2="230.7" y2="720.7"/>
<line fill="none" stroke="#DADADA" stroke-width="8" stroke-miterlimit="10" x1="190.2" y1="698" x2="230.7" y2="698"/>
<line fill="none" stroke="#DADADA" stroke-width="8" stroke-miterlimit="10" x1="190.2" y1="675.3" x2="230.7" y2="675.3"/>
<line fill="none" stroke="#DADADA" stroke-width="15" stroke-miterlimit="10" x1="190.2" y1="428.3" x2="263.1" y2="428.3"/>
<line fill="none" stroke="#DADADA" stroke-width="15" stroke-miterlimit="10" x1="190.2" y1="428.3" x2="263.1" y2="428.3"/>
<line fill="none" stroke="#DADADA" stroke-width="15" stroke-miterlimit="10" x1="190.2" y1="653.5" x2="263.1" y2="653.5"/>
<line fill="none" stroke="#DADADA" stroke-width="8" stroke-miterlimit="10" x1="190.2" y1="630.8" x2="230.7" y2="630.8"/>
<line fill="none" stroke="#DADADA" stroke-width="8" stroke-miterlimit="10" x1="190.2" y1="608.1" x2="230.7" y2="608.1"/>
<line fill="none" stroke="#DADADA" stroke-width="8" stroke-miterlimit="10" x1="190.2" y1="563.6" x2="230.7" y2="563.6"/>
<line fill="none" stroke="#DADADA" stroke-width="15" stroke-miterlimit="10" x1="190.2" y1="540.9" x2="251" y2="540.9"/>
<line fill="none" stroke="#DADADA" stroke-width="8" stroke-miterlimit="10" x1="190.2" y1="518.2" x2="230.7" y2="518.2"/>
<line fill="none" stroke="#DADADA" stroke-width="8" stroke-miterlimit="10" x1="190.2" y1="585.4" x2="230.7" y2="585.4"/>
<line fill="none" stroke="#DADADA" stroke-width="8" stroke-miterlimit="10" x1="190.2" y1="495.5" x2="230.7" y2="495.5"/>
<line fill="none" stroke="#DADADA" stroke-width="8" stroke-miterlimit="10" x1="190.2" y1="473.7" x2="230.7" y2="473.7"/>
<line fill="none" stroke="#DADADA" stroke-width="8" stroke-miterlimit="10" x1="190.2" y1="451" x2="230.7" y2="451"/>
<line fill="none" stroke="#DADADA" stroke-width="15" stroke-miterlimit="10" x1="190.2" y1="203.2" x2="263.1" y2="203.2"/>
<line fill="none" stroke="#DADADA" stroke-width="15" stroke-miterlimit="10" x1="190.2" y1="203.2" x2="263.1" y2="203.2"/>
<line fill="none" stroke="#DADADA" stroke-width="15" stroke-miterlimit="10" x1="190.2" y1="428.3" x2="263.1" y2="428.3"/>
<line fill="none" stroke="#DADADA" stroke-width="8" stroke-miterlimit="10" x1="190.2" y1="405.6" x2="230.7" y2="405.6"/>
<line fill="none" stroke="#DADADA" stroke-width="8" stroke-miterlimit="10" x1="190.2" y1="383" x2="230.7" y2="383"/>
<line fill="none" stroke="#DADADA" stroke-width="8" stroke-miterlimit="10" x1="190.2" y1="338.4" x2="230.7" y2="338.4"/>
<line fill="none" stroke="#DADADA" stroke-width="15" stroke-miterlimit="10" x1="190.2" y1="315.7" x2="251" y2="315.7"/>
<line fill="none" stroke="#DADADA" stroke-width="8" stroke-miterlimit="10" x1="190.2" y1="293.1" x2="230.7" y2="293.1"/>
<line fill="none" stroke="#DADADA" stroke-width="8" stroke-miterlimit="10" x1="190.2" y1="361.1" x2="230.7" y2="361.1"/>
<line fill="none" stroke="#DADADA" stroke-width="8" stroke-miterlimit="10" x1="190.2" y1="271.2" x2="230.7" y2="271.2"/>
<line fill="none" stroke="#DADADA" stroke-width="8" stroke-miterlimit="10" x1="190.2" y1="248.5" x2="230.7" y2="248.5"/>
<line fill="none" stroke="#DADADA" stroke-width="8" stroke-miterlimit="10" x1="190.2" y1="225.8" x2="230.7" y2="225.8"/>
</svg>
