<svg xmlns="http://www.w3.org/2000/svg" width="60" height="60" viewBox="0 0 60 60"><defs><style>.a{fill:rgba(255,255,255,0);}.b{fill:#eaeae8;}.c{fill:#ffa700;}.d{fill:none;stroke:#9c9b9b;stroke-miterlimit:10;stroke-width:1.421px;}.e{fill:#fff;}.f{fill:#262626;opacity:0.1;}</style></defs><g transform="translate(-256 -167)"><rect class="a" width="60" height="60" transform="translate(256 167)"/><g transform="translate(-271.189 167.636)"><rect class="b" width="18.989" height="30.926" transform="translate(565.172 25.894)"/><rect class="b" width="36.353" height="52.087" transform="translate(528.819 6.364)"/><g transform="translate(0 -4.605)"><rect class="c" width="36.353" height="14.37" transform="translate(528.816 10.969)"/></g><line class="d" x2="39.608" transform="translate(527.189 58.038)"/><rect class="e" width="17.364" height="7.051" transform="translate(532.074 12.326)"/><rect class="e" width="9.765" height="7.051" transform="translate(552.153 12.326)"/><rect class="e" width="22.785" height="7.051" transform="translate(532.074 25.201)"/><rect class="e" width="16.275" height="7.051" transform="translate(545.636 36.092)"/><rect class="e" width="14.651" height="7.051" transform="translate(569.51 31.321)"/><rect class="e" width="14.651" height="7.051" transform="translate(569.51 41.086)"/><line class="d" x2="20.619" transform="translate(565.172 56.955)"/><path class="f" d="M584.161,44.774l-18.718-18.88h-.271V56.278h18.989Z"/><rect class="e" width="8.682" height="6.51" transform="translate(534.785 49.204)"/><rect class="e" width="15.734" height="6.51" transform="translate(546.181 49.204)"/></g></g></svg>