<?xml version="1.0" encoding="utf-8"?>
<!-- Generator: Adobe Illustrator 23.0.2, SVG Export Plug-In . SVG Version: 6.00 Build 0)  -->
<svg version="1.1" id="Ebene_1" xmlns="http://www.w3.org/2000/svg" xmlns:xlink="http://www.w3.org/1999/xlink" x="0px" y="0px"
	 viewBox="0 0 1400 1100" style="enable-background:new 0 0 1400 1100;" xml:space="preserve">
<style type="text/css">
	.st0{fill:#FFFFFF;}
	.st1{fill:#E3E3E2;}
	.st2{fill:#033153;}
	.st3{fill:none;stroke:#F2931B;stroke-width:5;stroke-miterlimit:10;}
	.st4{fill:none;stroke:#F2931B;stroke-width:5;stroke-miterlimit:10;stroke-dasharray:58.2986,58.2986;}
	.st5{fill:#032133;}
	.st6{fill:#D1D3D4;}
</style>
<rect y="0" class="st0" width="1400" height="1100"/>
<title>clock</title>
<g>
	<polygon class="st1" points="1094.6,864.4 1094.6,234.1 1094.6,222.5 1094.6,212.3 700,212.3 700,222.5 700,234.1 700,864.4 
		700,876.1 700,887.7 1133,887.7 1133,864.4 	"/>
	<polygon class="st2" points="305.4,212.3 305.4,227.6 305.4,234.1 305.4,864.4 267,864.4 267,887.7 700,887.7 700,871 700,864.4 
		700,234.1 700,227.6 700,212.3 	"/>
	<g>
		<g>
			<polyline class="st3" points="670.8,584.8 670.8,556.8 642.8,556.8 			"/>
			<line class="st4" x1="584.5" y1="556.8" x2="380.4" y2="556.8"/>
			<polyline class="st3" points="351.3,556.8 323.3,556.8 323.3,584.8 			"/>
			<polyline class="st3" points="323.3,643.9 323.3,671.9 351.3,671.9 			"/>
			<line class="st4" x1="409.6" y1="671.9" x2="613.6" y2="671.9"/>
			<polyline class="st3" points="642.8,671.9 670.8,671.9 670.8,643.9 			"/>
		</g>
	</g>
	<g>
		<g>
			<polyline class="st3" points="1076.1,356.2 1076.1,328.2 1048.1,328.2 			"/>
			<line class="st4" x1="989.8" y1="328.2" x2="785.7" y2="328.2"/>
			<polyline class="st3" points="756.6,328.2 728.6,328.2 728.6,356.2 			"/>
			<polyline class="st3" points="728.6,415.3 728.6,443.3 756.6,443.3 			"/>
			<line class="st4" x1="814.9" y1="443.3" x2="1018.9" y2="443.3"/>
			<polyline class="st3" points="1048.1,443.3 1076.1,443.3 1076.1,415.3 			"/>
		</g>
	</g>
	<rect x="378.8" y="345.2" class="st0" width="84.9" height="84.9"/>
	<rect x="378.8" y="456.7" class="st0" width="84.9" height="84.9"/>
	<rect x="378.8" y="568.1" class="st0" width="84.9" height="84.9"/>
	<rect x="378.8" y="679.6" class="st0" width="84.9" height="84.9"/>
	<rect x="522.5" y="387.6" class="st0" width="99.4" height="42.4"/>
	<rect x="522.5" y="499.1" class="st0" width="99.4" height="42.4"/>
	<rect x="522.5" y="610.6" class="st0" width="99.4" height="42.4"/>
	<rect x="522.5" y="722" class="st0" width="99.4" height="42.4"/>
	
		<rect x="936.3" y="345.2" transform="matrix(-1 -4.477320e-11 4.477320e-11 -1 1957.4823 775.2856)" class="st0" width="84.9" height="84.9"/>
	
		<rect x="936.3" y="456.7" transform="matrix(-1 -4.500901e-11 4.500901e-11 -1 1957.4823 998.2056)" class="st0" width="84.9" height="84.9"/>
	
		<rect x="936.3" y="568.1" transform="matrix(-1 -4.500901e-11 4.500901e-11 -1 1957.4823 1221.1254)" class="st0" width="84.9" height="84.9"/>
	
		<rect x="936.3" y="679.6" transform="matrix(-1 -4.479451e-11 4.479451e-11 -1 1957.4823 1444.0453)" class="st0" width="84.9" height="84.9"/>
	
		<rect x="778" y="387.6" transform="matrix(-1 -4.496282e-11 4.496282e-11 -1 1655.5206 817.7206)" class="st0" width="99.4" height="42.4"/>
	
		<rect x="778" y="499.1" transform="matrix(-1 -4.485313e-11 4.485313e-11 -1 1655.5206 1040.6405)" class="st0" width="99.4" height="42.4"/>
	
		<rect x="778" y="610.6" transform="matrix(-1 -4.485313e-11 4.485313e-11 -1 1655.5206 1263.5603)" class="st0" width="99.4" height="42.4"/>
	
		<rect x="778" y="722" transform="matrix(-1 -4.514579e-11 4.514579e-11 -1 1655.5206 1486.4802)" class="st0" width="99.4" height="42.4"/>
	<polygon class="st5" points="700,274.5 305.4,234.1 700,234.1 	"/>
	<polygon class="st6" points="700,234.1 700,274.5 1094.6,314.8 1094.6,234.1 	"/>
</g>
</svg>
