<?xml version="1.0" encoding="utf-8"?>
<!-- Generator: Adobe Illustrator 23.0.2, SVG Export Plug-In . SVG Version: 6.00 Build 0)  -->
<svg version="1.1" id="Ebene_1" xmlns="http://www.w3.org/2000/svg" xmlns:xlink="http://www.w3.org/1999/xlink" x="0px" y="0px"
	 viewBox="0 0 1400 1100" style="enable-background:new 0 0 1400 1100;" xml:space="preserve">
<style type="text/css">
	.st0{fill:#FFFFFF;}
	.st1{fill:#E3E3E2;}
	.st2{fill:#033153;}
	.st3{fill:#D1D3D4;}
	.st4{fill:#032133;}
	.st5{fill:#A7A9AC;}
	.st6{fill:#F2931B;}
	.st7{fill:#CC710D;}
</style>
<rect y="0" class="st0" width="1400" height="1100"/>
<title>clock</title>
<g>
	<rect x="700" y="845.4" class="st1" width="433" height="23.3"/>
	<rect x="267" y="845.4" class="st2" width="433" height="23.3"/>
	<rect x="700" y="800.5" class="st1" width="342.8" height="44.9"/>
	<rect x="357.2" y="800.5" class="st2" width="342.8" height="44.9"/>
	<rect x="357.2" y="461.3" class="st2" width="342.8" height="44.9"/>
	<rect x="700" y="461.3" class="st1" width="342.8" height="44.9"/>
	<polygon class="st2" points="476.9,532.5 476.9,506.1 459,506.1 406.9,506.1 389,506.1 389,532.5 406.9,532.5 406.9,774.2 
		389,774.2 389,800.5 406.9,800.5 459,800.5 476.9,800.5 476.9,774.2 459,774.2 459,532.5 	"/>
	<polygon class="st2" points="644.6,532.5 644.6,506.1 626.6,506.1 574.6,506.1 556.7,506.1 556.7,532.5 574.6,532.5 574.6,774.2 
		556.7,774.2 556.7,800.5 574.6,800.5 626.6,800.5 644.6,800.5 644.6,774.2 626.6,774.2 626.6,532.5 	"/>
	<polygon class="st1" points="843.3,532.5 843.3,506.1 825.4,506.1 773.4,506.1 755.4,506.1 755.4,532.5 773.4,532.5 773.4,774.2 
		755.4,774.2 755.4,800.5 773.4,800.5 825.4,800.5 843.3,800.5 843.3,774.2 825.4,774.2 825.4,532.5 	"/>
	<polygon class="st1" points="1011,532.5 1011,506.1 993.1,506.1 941,506.1 923.1,506.1 923.1,532.5 941,532.5 941,774.2 
		923.1,774.2 923.1,800.5 941,800.5 993.1,800.5 1011,800.5 1011,774.2 993.1,774.2 993.1,532.5 	"/>
	<polygon class="st3" points="1011,532.5 1011,506.1 993.1,506.1 967,506.1 967,800.5 993.1,800.5 1011,800.5 1011,774.2 
		993.1,774.2 993.1,532.5 	"/>
	<polygon class="st3" points="843.3,532.5 843.3,506.1 825.4,506.1 799.4,506.1 799.4,800.5 825.4,800.5 843.3,800.5 843.3,774.2 
		825.4,774.2 825.4,532.5 	"/>
	<polygon class="st4" points="644.6,532.5 644.6,506.1 626.6,506.1 600.6,506.1 600.6,800.5 626.6,800.5 644.6,800.5 644.6,774.2 
		626.6,774.2 626.6,532.5 	"/>
	<polygon class="st4" points="476.9,532.5 476.9,506.1 459,506.1 433,506.1 433,800.5 459,800.5 476.9,800.5 476.9,774.2 459,774.2 
		459,532.5 	"/>
	<polygon class="st1" points="700,345.5 700,461.3 1042.8,461.3 	"/>
	<polygon class="st2" points="700,345.5 357.2,461.3 700,461.3 	"/>
	<g>
		<circle class="st5" cx="700" cy="333.4" r="102.1"/>
		<circle class="st0" cx="700" cy="333.4" r="90.3"/>
		<g>
			<path class="st6" d="M643.4,315.1v6.9c0,1,2,2.6,7.6,4c5.2,1.2,12.1,1.9,19.5,1.9c7.4,0,14.3-0.7,19.5-1.9c5.6-1.3,7.6-2.9,7.6-4
				h0v-6.9c-4,3.2-15.8,4.9-27.1,4.9C659.3,319.9,647.4,318.3,643.4,315.1z"/>
			<path class="st6" d="M643.4,324.3v6.9c0,1,2,2.6,7.6,4c5.2,1.2,12.1,1.9,19.5,1.9s14.3-0.7,19.5-1.9c5.6-1.3,7.6-2.9,7.6-4h0
				v-6.9c-4,3.2-15.8,4.9-27.1,4.9C659.3,329.2,647.4,327.5,643.4,324.3z"/>
			<path class="st6" d="M643.4,296.6v6.9c0,1,2,2.6,7.6,4c5.2,1.2,12.1,1.9,19.5,1.9s14.3-0.7,19.5-1.9c5.6-1.3,7.6-2.9,7.6-4h0
				v-6.9c-4,3.2-15.8,4.9-27.1,4.9C659.3,301.5,647.4,299.8,643.4,296.6z"/>
			<path class="st6" d="M643.4,305.8v6.9c0,1,2,2.6,7.6,4c5.2,1.2,12.1,1.9,19.5,1.9s14.3-0.7,19.5-1.9c5.6-1.3,7.6-2.9,7.6-4h0
				v-6.9c-4,3.2-15.8,4.9-27.1,4.9C659.3,310.7,647.4,309,643.4,305.8z"/>
			<path class="st6" d="M643.4,333.5v6.9c0,1,2,2.6,7.6,4c5.2,1.2,12.1,1.9,19.5,1.9s14.3-0.7,19.5-1.9c5.6-1.3,7.6-2.9,7.6-4h0
				v-6.9c-4,3.2-15.8,4.9-27.1,4.9C659.3,338.4,647.4,336.7,643.4,333.5z"/>
			<path class="st6" d="M643.4,287.4v6.9c0,1,2,2.6,7.6,4c5.2,1.2,12.1,1.9,19.5,1.9s14.3-0.7,19.5-1.9c5.6-1.3,7.6-2.9,7.6-4h0
				v-6.9c-4,3.2-15.8,4.9-27.1,4.9C659.3,292.2,647.4,290.5,643.4,287.4z"/>
			<path class="st6" d="M643.4,361.3v6.9c0,1,2,2.6,7.6,4c5.2,1.2,12.1,1.9,19.5,1.9s14.3-0.7,19.5-1.9c5.6-1.3,7.6-2.9,7.6-4h0
				v-6.9c-4,3.2-15.8,4.9-27.1,4.9C659.3,366.1,647.4,364.4,643.4,361.3z"/>
			<path class="st6" d="M643.4,370.5v6.9c0,1,2,2.6,7.6,4c5.2,1.2,12.1,1.9,19.5,1.9c7.4,0,14.3-0.7,19.5-1.9c5.6-1.3,7.6-2.9,7.6-4
				v-6.9c-4,3.2-15.8,4.9-27.1,4.9C659.3,375.4,647.4,373.7,643.4,370.5z"/>
			<path class="st6" d="M643.4,342.8v6.9c0,1,2,2.6,7.6,4c5.2,1.2,12.1,1.9,19.5,1.9c7.4,0,14.3-0.7,19.5-1.9c5.6-1.3,7.6-2.9,7.6-4
				h0v-6.9c-4,3.2-15.8,4.9-27.1,4.9C659.3,347.7,647.4,346,643.4,342.8z"/>
			<path class="st6" d="M643.4,352v6.9c0,1,2,2.6,7.6,4c5.2,1.2,12.1,1.9,19.5,1.9s14.3-0.7,19.5-1.9c5.6-1.3,7.6-2.9,7.6-4h0V352
				c-4,3.2-15.8,4.9-27.1,4.9C659.3,356.9,647.4,355.2,643.4,352z"/>
			<path class="st6" d="M690.1,281c-5.2-1.2-12.1-1.9-19.5-1.9s-14.3,0.7-19.5,1.9c-5.6,1.3-7.6,2.9-7.6,4s2,2.6,7.6,4
				c5.2,1.2,12.1,1.9,19.5,1.9s14.3-0.7,19.5-1.9c5.6-1.3,7.6-2.9,7.6-4h0C697.7,283.9,695.7,282.4,690.1,281z"/>
			<path class="st7" d="M683,290.8v92.4c0,0,12.5-0.9,15.4-5.6c0-6.5,0-91.8,0-91.8s-2,1.9-6.9,3.3C686.6,290.5,683,290.8,683,290.8
				z"/>
			<path class="st7" d="M647.5,288.6v92.5c0,0,2.4,0.7,4.8,1.1c0-4.5,0-92.3,0-92.3L647.5,288.6z"/>
			<polygon class="st7" points="654.3,290.3 654.3,382.6 655.4,382.8 655.4,290.3 			"/>
			<path class="st2" d="M670.6,277.8c-13.8,0-28.5,2.5-28.5,7.2v92.4c0,4.7,14.7,7.2,28.5,7.2s28.5-2.5,28.5-7.2V285
				C699.1,280.3,684.4,277.8,670.6,277.8z M697.7,377.4c0,1-2,2.6-7.6,4c-5.2,1.2-12.1,1.9-19.5,1.9c-7.4,0-14.3-0.7-19.5-1.9
				c-5.6-1.3-7.6-2.9-7.6-4v-6.9c4,3.2,15.8,4.9,27.1,4.9c11.3,0,23.2-1.7,27.1-4.9V377.4z M697.7,368.1L697.7,368.1
				c0,1-2,2.6-7.6,4c-5.2,1.2-12.1,1.9-19.5,1.9s-14.3-0.7-19.5-1.9c-5.6-1.3-7.6-2.9-7.6-4v-6.9c4,3.2,15.8,4.9,27.1,4.9
				c11.3,0,23.2-1.7,27.1-4.9V368.1z M697.7,358.9L697.7,358.9c0,1-2,2.6-7.6,4c-5.2,1.2-12.1,1.9-19.5,1.9s-14.3-0.7-19.5-1.9
				c-5.6-1.3-7.6-2.9-7.6-4V352c4,3.2,15.8,4.9,27.1,4.9c11.3,0,23.2-1.7,27.1-4.9V358.9z M697.7,349.7L697.7,349.7c0,1-2,2.6-7.6,4
				c-5.2,1.2-12.1,1.9-19.5,1.9c-7.4,0-14.3-0.7-19.5-1.9c-5.6-1.3-7.6-2.9-7.6-4v-6.9c4,3.2,15.8,4.9,27.1,4.9
				c11.3,0,23.2-1.7,27.1-4.9V349.7z M697.7,340.4L697.7,340.4c0,1-2,2.6-7.6,4c-5.2,1.2-12.1,1.9-19.5,1.9s-14.3-0.7-19.5-1.9
				c-5.6-1.3-7.6-2.9-7.6-4v-6.9c4,3.2,15.8,4.9,27.1,4.9c11.3,0,23.2-1.7,27.1-4.9V340.4z M697.7,331.2L697.7,331.2
				c0,1-2,2.6-7.6,4c-5.2,1.2-12.1,1.9-19.5,1.9s-14.3-0.7-19.5-1.9c-5.6-1.3-7.6-2.9-7.6-4v-6.9c4,3.2,15.8,4.9,27.1,4.9
				c11.3,0,23.2-1.7,27.1-4.9V331.2z M697.7,321.9L697.7,321.9c0,1-2,2.6-7.6,4c-5.2,1.2-12.1,1.9-19.5,1.9
				c-7.4,0-14.3-0.7-19.5-1.9c-5.6-1.3-7.6-2.9-7.6-4v-6.9c4,3.2,15.8,4.9,27.1,4.9c11.3,0,23.2-1.7,27.1-4.9V321.9z M697.7,312.7
				L697.7,312.7c0,1-2,2.6-7.6,4c-5.2,1.2-12.1,1.9-19.5,1.9s-14.3-0.7-19.5-1.9c-5.6-1.3-7.6-2.9-7.6-4v-6.9
				c4,3.2,15.8,4.9,27.1,4.9c11.3,0,23.2-1.7,27.1-4.9V312.7z M697.7,303.5L697.7,303.5c0,1-2,2.6-7.6,4c-5.2,1.2-12.1,1.9-19.5,1.9
				s-14.3-0.7-19.5-1.9c-5.6-1.3-7.6-2.9-7.6-4v-6.9c4,3.2,15.8,4.9,27.1,4.9c11.3,0,23.2-1.7,27.1-4.9V303.5z M697.7,294.2
				L697.7,294.2c0,1-2,2.6-7.6,4c-5.2,1.2-12.1,1.9-19.5,1.9s-14.3-0.7-19.5-1.9c-5.6-1.3-7.6-2.9-7.6-4v-6.9
				c4,3.2,15.8,4.9,27.1,4.9c11.3,0,23.2-1.7,27.1-4.9V294.2z M697.7,285c0,1-2,2.6-7.6,4c-5.2,1.2-12.1,1.9-19.5,1.9
				s-14.3-0.7-19.5-1.9c-5.6-1.3-7.6-2.9-7.6-4s2-2.6,7.6-4c5.2-1.2,12.1-1.9,19.5-1.9s14.3,0.7,19.5,1.9
				C695.7,282.4,697.7,283.9,697.7,285L697.7,285z"/>
		</g>
		<g>
			<path class="st6" d="M705.1,342.8v6.9c0,1,2,2.6,7.6,4c5.2,1.2,12.1,1.9,19.5,1.9c7.4,0,14.3-0.7,19.5-1.9c5.6-1.3,7.6-2.9,7.6-4
				v-6.9c-4,3.2-15.8,4.9-27.1,4.9C720.9,347.7,709,346,705.1,342.8z"/>
			<path class="st6" d="M751.7,327.2c-5.2-1.2-12.1-1.9-19.5-1.9c-7.4,0-14.3,0.7-19.5,1.9c-5.6,1.3-7.6,2.9-7.6,4s2,2.6,7.6,4
				c5.2,1.2,12.1,1.9,19.5,1.9c7.4,0,14.3-0.7,19.5-1.9c5.6-1.3,7.6-2.9,7.6-4S757.4,328.5,751.7,327.2z"/>
			<path class="st6" d="M705.1,333.5v6.9c0,1,2,2.6,7.6,4c5.2,1.2,12.1,1.9,19.5,1.9c7.4,0,14.3-0.7,19.5-1.9c5.6-1.3,7.6-2.9,7.6-4
				v-6.9c-4,3.2-15.8,4.9-27.1,4.9C720.9,338.4,709,336.7,705.1,333.5z"/>
			<path class="st6" d="M705.1,352v6.9c0,1,2,2.6,7.6,4c5.2,1.2,12.1,1.9,19.5,1.9c7.4,0,14.3-0.7,19.5-1.9c5.6-1.3,7.6-2.9,7.6-4
				V352c-4,3.2-15.8,4.9-27.1,4.9C720.9,356.9,709,355.2,705.1,352z"/>
			<path class="st6" d="M705.1,370.5v6.9c0,1,2,2.6,7.6,4c5.2,1.2,12.1,1.9,19.5,1.9c7.4,0,14.3-0.7,19.5-1.9c5.6-1.3,7.6-2.9,7.6-4
				v-6.9c-4,3.2-15.8,4.9-27.1,4.9C720.9,375.4,709,373.7,705.1,370.5z"/>
			<path class="st6" d="M705.1,361.3v6.9c0,1,2,2.6,7.6,4c5.2,1.2,12.1,1.9,19.5,1.9c7.4,0,14.3-0.7,19.5-1.9c5.6-1.3,7.6-2.9,7.6-4
				v-6.9c-4,3.2-15.8,4.9-27.1,4.9C720.9,366.1,709,364.4,705.1,361.3z"/>
			<path class="st7" d="M746.1,337c0,0.5,0,46.1,0,46.1s11.8-1.5,14-5.1c0-4.8,0-46.1,0-46.1s-1.6,2.3-5.3,3.3
				C751.1,336.3,746.1,337,746.1,337z"/>
			<polygon class="st7" points="711.5,335.5 711.5,381.7 715.8,382.6 715.8,336.6 			"/>
			<polygon class="st7" points="717.2,336.8 717.2,382.8 718.9,383.2 718.9,337 			"/>
			<path class="st2" d="M732.2,323.9c-13.8,0-28.5,2.5-28.5,7.2v46.2c0,4.7,14.7,7.2,28.5,7.2s28.5-2.5,28.5-7.2v-46.2
				C760.7,326.5,746,323.9,732.2,323.9z M759.4,377.4c0,1-2,2.6-7.6,4c-5.2,1.2-12.1,1.9-19.5,1.9c-7.4,0-14.3-0.7-19.5-1.9
				c-5.6-1.3-7.6-2.9-7.6-4v-6.9c4,3.2,15.8,4.9,27.1,4.9c11.3,0,23.2-1.7,27.1-4.9V377.4z M759.4,368.1c0,1-2,2.6-7.6,4
				c-5.2,1.2-12.1,1.9-19.5,1.9c-7.4,0-14.3-0.7-19.5-1.9c-5.6-1.3-7.6-2.9-7.6-4v-6.9c4,3.2,15.8,4.9,27.1,4.9
				c11.3,0,23.2-1.7,27.1-4.9V368.1z M759.4,358.9c0,1-2,2.6-7.6,4c-5.2,1.2-12.1,1.9-19.5,1.9c-7.4,0-14.3-0.7-19.5-1.9
				c-5.6-1.3-7.6-2.9-7.6-4V352c4,3.2,15.8,4.9,27.1,4.9c11.3,0,23.2-1.7,27.1-4.9V358.9z M759.4,349.7c0,1-2,2.6-7.6,4
				c-5.2,1.2-12.1,1.9-19.5,1.9c-7.4,0-14.3-0.7-19.5-1.9c-5.6-1.3-7.6-2.9-7.6-4v-6.9c4,3.2,15.8,4.9,27.1,4.9
				c11.3,0,23.2-1.7,27.1-4.9V349.7z M759.4,340.4c0,1-2,2.6-7.6,4c-5.2,1.2-12.1,1.9-19.5,1.9c-7.4,0-14.3-0.7-19.5-1.9
				c-5.6-1.3-7.6-2.9-7.6-4v-6.9c4,3.2,15.8,4.9,27.1,4.9c11.3,0,23.2-1.7,27.1-4.9V340.4z M751.7,335.1c-5.2,1.2-12.1,1.9-19.5,1.9
				c-7.4,0-14.3-0.7-19.5-1.9c-5.6-1.3-7.6-2.9-7.6-4s2-2.6,7.6-4c5.2-1.2,12.1-1.9,19.5-1.9c7.4,0,14.3,0.7,19.5,1.9
				c5.6,1.3,7.6,2.9,7.6,4S757.4,333.8,751.7,335.1z"/>
		</g>
	</g>
</g>
</svg>
