<?xml version="1.0" encoding="utf-8"?>
<!-- Generator: Adobe Illustrator 23.0.2, SVG Export Plug-In . SVG Version: 6.00 Build 0)  -->
<svg version="1.1" id="Ebene_1" xmlns="http://www.w3.org/2000/svg" xmlns:xlink="http://www.w3.org/1999/xlink" x="0px" y="0px"
	 viewBox="0 0 1400 1100" style="enable-background:new 0 0 1400 1100;" xml:space="preserve">
<style type="text/css">
	.st0{fill:#FFFFFF;}
	.st1{fill:#E3E3E2;}
	.st2{fill:#033153;}
	.st3{fill:#D1D3D4;}
	.st4{fill:#032133;}
	.st5{fill:#F2931B;}
	.st6{fill:#CC710D;}
</style>
<rect y="0" class="st0" width="1400" height="1100"/>
<title>clock</title>
<g>
	<rect x="700" y="312.8" class="st1" width="360.3" height="451.2"/>
	<rect x="339.7" y="312.8" class="st2" width="360.3" height="451.2"/>
	<rect x="700" y="763.9" class="st3" width="433" height="23.3"/>
	<rect x="267" y="763.9" class="st2" width="433" height="23.3"/>
	<rect x="449.7" y="398.7" class="st4" width="11.5" height="365.2"/>
	<rect x="339.7" y="682.3" class="st4" width="231.5" height="10"/>
	<rect x="339.7" y="599.5" class="st4" width="231.5" height="10"/>
	<rect x="339.7" y="516.6" class="st4" width="231.5" height="10"/>
	<rect x="354.5" y="700.1" class="st5" width="63.9" height="63.9"/>
	<rect x="361" y="706.5" class="st6" width="50.9" height="50.9"/>
	<rect x="492.3" y="700.1" class="st5" width="63.9" height="63.9"/>
	<rect x="498.8" y="706.5" class="st6" width="50.9" height="50.9"/>
	<rect x="354.5" y="618.4" class="st5" width="63.9" height="63.9"/>
	<rect x="361" y="624.9" class="st6" width="50.9" height="50.9"/>
	<rect x="492.3" y="618.4" class="st5" width="63.9" height="63.9"/>
	<rect x="498.8" y="624.9" class="st6" width="50.9" height="50.9"/>
	<rect x="354.5" y="535.6" class="st5" width="63.9" height="63.9"/>
	<rect x="361" y="542.1" class="st6" width="50.9" height="50.9"/>
	<rect x="492.3" y="535.6" class="st5" width="63.9" height="63.9"/>
	<rect x="498.8" y="542.1" class="st6" width="50.9" height="50.9"/>
	<rect x="354.5" y="452.8" class="st5" width="63.9" height="63.9"/>
	<rect x="361" y="459.2" class="st6" width="50.9" height="50.9"/>
	<rect x="492.3" y="452.8" class="st5" width="63.9" height="63.9"/>
	<rect x="498.8" y="459.2" class="st6" width="50.9" height="50.9"/>
	<rect x="938.8" y="398.7" class="st3" width="11.5" height="365.2"/>
	<rect x="828.8" y="682.3" class="st3" width="231.5" height="10"/>
	<rect x="828.8" y="599.5" class="st3" width="231.5" height="10"/>
	<rect x="828.8" y="516.6" class="st3" width="231.5" height="10"/>
	<rect x="843.6" y="700.1" class="st5" width="63.9" height="63.9"/>
	<rect x="850" y="706.5" class="st6" width="50.9" height="50.9"/>
	<rect x="981.3" y="700.1" class="st5" width="63.9" height="63.9"/>
	<rect x="987.8" y="706.5" class="st6" width="50.9" height="50.9"/>
	<rect x="843.6" y="618.4" class="st5" width="63.9" height="63.9"/>
	<rect x="850" y="624.9" class="st6" width="50.9" height="50.9"/>
	<rect x="981.3" y="618.4" class="st5" width="63.9" height="63.9"/>
	<rect x="987.8" y="624.9" class="st6" width="50.9" height="50.9"/>
	<rect x="843.6" y="535.6" class="st5" width="63.9" height="63.9"/>
	<rect x="850" y="542.1" class="st6" width="50.9" height="50.9"/>
	<rect x="981.3" y="535.6" class="st5" width="63.9" height="63.9"/>
	<rect x="987.8" y="542.1" class="st6" width="50.9" height="50.9"/>
	<rect x="843.6" y="452.8" class="st5" width="63.9" height="63.9"/>
	<rect x="850" y="459.2" class="st6" width="50.9" height="50.9"/>
	<rect x="981.3" y="452.8" class="st5" width="63.9" height="63.9"/>
	<rect x="987.8" y="459.2" class="st6" width="50.9" height="50.9"/>
	<rect x="308.6" y="312.8" class="st4" width="31.2" height="451.2"/>
	<rect x="1060.3" y="312.8" class="st3" width="31.2" height="451.2"/>
	<g>
		<path class="st4" d="M658.7,729.6c-9.5,0-17.2,7.7-17.2,17.2c0,9.5,7.7,17.2,17.2,17.2c9.5,0,17.2-7.7,17.2-17.2
			C675.9,737.3,668.2,729.6,658.7,729.6z M658.7,754.8c-4.5,0-8.1-3.6-8.1-8.1c0-4.5,3.6-8.1,8.1-8.1c4.5,0,8.1,3.6,8.1,8.1
			C666.8,751.2,663.2,754.8,658.7,754.8z"/>
		<path class="st4" d="M759.9,729.6c-9.5,0-17.2,7.7-17.2,17.2c0,9.5,7.7,17.2,17.2,17.2c9.5,0,17.2-7.7,17.2-17.2
			C777.1,737.3,769.4,729.6,759.9,729.6z M759.9,754.8c-4.5,0-8.1-3.6-8.1-8.1c0-4.5,3.6-8.1,8.1-8.1c4.5,0,8.1,3.6,8.1,8.1
			C768,751.2,764.4,754.8,759.9,754.8z"/>
		<polygon class="st4" points="630.6,628.9 630.6,630.5 630.6,632.8 630.6,741.7 595.9,741.7 595.9,744.1 595.9,745 595.9,748.1 
			595.9,748.1 632.2,748.1 634,748.1 637,748.1 637,745.2 637,744.5 637,744.1 637,742.7 637,632.8 637,630.5 637,628.9 		"/>
		<path class="st4" d="M768,713.7l-1-1.2l0.1-7c0,0-16.4-61.8-20.2-76.6h-5h-1h-0.4h-48h-3.3h0H651c0,0,0,0,0,0c0,0,0,0,0,0h-2.1
			h-2.2h-2.2h-1.7v1.2v1.8v90v7.2v3.9c3.8-4.5,9.5-7.3,15.9-7.3c11.6,0,21,9.4,21,21c0,1.5-0.2,3-0.5,4.5h2.4h5.3h52.5
			c-0.3-1.4-0.5-2.9-0.5-4.5c0-11.6,9.4-21,21-21c2.9,0,5.6,0.6,8.1,1.6V713.7z M656.2,720.3l-2.6,0h-1v-87h3.6V720.3z M660.5,633.4
			H686l-25.5,76.5V633.4z M745.5,695.9c-0.2,1.2-0.6,2.3-1.1,3.4c-0.1,0.2-0.2,0.5-0.2,0.8l0.7,11c0,0,0,0.1,0,0.1
			c-0.2,0.1-0.3,0.1-0.5,0.1c-0.7,0.1-2.6,0.2-2.6,0.2l-57.8,6.2l-21.4,1l27.5-84.1c0.3-0.7,1.1-1.2,2.1-1.2h0.3h43.9
			c1.4,9,7,42.4,10,61.4C746,694.9,745.6,695.4,745.5,695.9z M750.9,706.9c-2.8-17.7-10.1-63-11.8-73.6h2.2
			c0.1,0.7,9.8,60.5,11.5,71.4C752.3,705.4,751.4,706.4,750.9,706.9z"/>
	</g>
</g>
</svg>
