<?xml version="1.0" encoding="utf-8"?>
<!-- Generator: Adobe Illustrator 23.0.2, SVG Export Plug-In . SVG Version: 6.00 Build 0)  -->
<svg version="1.1" id="Ebene_1" xmlns="http://www.w3.org/2000/svg" xmlns:xlink="http://www.w3.org/1999/xlink" x="0px" y="0px"
	 viewBox="0 0 1400 1100" style="enable-background:new 0 0 1400 1100;" xml:space="preserve">
<style type="text/css">
	.st0{fill:#FFFFFF;}
	.st1{fill:#E3E3E2;}
	.st2{fill:#033153;}
	.st3{fill:#F2931B;}
	.st4{fill:#D1D3D4;}
</style>
<rect y="0" class="st0" width="1400" height="1100"/>
<title>clock</title>
<g>
	<rect x="700" y="741.4" class="st1" width="433" height="23.3"/>
	<polygon class="st2" points="305.4,335.3 305.4,741.4 267,741.4 267,764.7 700,764.7 700,745.1 700,741.4 700,335.3 	"/>
	<path class="st1" d="M1084.4,413.4H673.9l-48.6,134.8v193.2H1133V548.2L1084.4,413.4z"/>
	<rect x="704.8" y="581.7" class="st3" width="107.3" height="14.2"/>
	<rect x="704.8" y="524.9" class="st0" width="47.3" height="32.1"/>
	<rect x="764.8" y="524.9" class="st0" width="47.3" height="32.1"/>
	<rect x="946.2" y="581.7" class="st3" width="107.3" height="14.2"/>
	<rect x="946.2" y="524.9" class="st0" width="47.3" height="32.1"/>
	<rect x="1006.2" y="524.9" class="st0" width="47.3" height="32.1"/>
	<path class="st3" d="M514.5,720.1c1.1-1.7,1.7-3.7,1.7-5.9c0-6-4.9-10.9-10.9-10.9c-1.8,0-3.4,0.4-4.9,1.2
		c-0.6-5.4-5.2-9.6-10.8-9.6c-3.7,0-7,1.9-9,4.8c-2-2.9-5.3-4.8-9-4.8c-4.6,0-8.5,2.9-10.1,6.9c-2-2.4-5-3.9-8.4-3.9
		c-5,0-9.3,3.4-10.5,8.1c-1-0.3-2.1-0.5-3.2-0.5c-6,0-10.9,4.9-10.9,10.9c0,1.9,0.5,3.7,1.4,5.3c-2.8,2-4.7,5.2-4.7,8.9
		c0,6,4.9,10.9,10.9,10.9c4.6,0,75.3,0,75.3,0c6,0,10.9-4.9,10.9-10.9C522.3,725.6,519,721.4,514.5,720.1z"/>
	<rect x="344.2" y="376.1" class="st0" width="87.2" height="52.7"/>
	<rect x="459.1" y="376.1" class="st0" width="87.2" height="52.7"/>
	<rect x="344.2" y="454.4" class="st0" width="87.2" height="52.7"/>
	<rect x="459.1" y="454.4" class="st0" width="87.2" height="52.7"/>
	<rect x="344.2" y="532.8" class="st0" width="87.2" height="52.7"/>
	<rect x="459.1" y="532.8" class="st0" width="87.2" height="52.7"/>
	<rect x="344.2" y="611.2" class="st0" width="87.2" height="52.7"/>
	<rect x="459.1" y="611.2" class="st0" width="87.2" height="52.7"/>
	<rect x="574" y="376.1" class="st0" width="87.2" height="52.7"/>
	<rect x="661.2" y="638.1" class="st0" width="87.2" height="52.7"/>
	<rect x="768.4" y="638.1" class="st0" width="87.2" height="52.7"/>
	<rect x="902.6" y="638.1" class="st0" width="87.2" height="52.7"/>
	<rect x="1009.8" y="638.1" class="st0" width="87.2" height="52.7"/>
	<g>
		<rect x="374.4" y="669.3" class="st3" width="13.1" height="73"/>
		<ellipse class="st3" cx="380.9" cy="669.3" rx="44.3" ry="34.1"/>
		<ellipse class="st3" cx="380.9" cy="629.6" rx="30.8" ry="23.7"/>
	</g>
	<polygon class="st4" points="704.8,595.9 812.1,619.6 812.1,595.9 	"/>
	<polygon class="st4" points="946.2,595.9 1053.4,619.6 1053.4,595.9 	"/>
	<g>
		<g>
			<rect x="583.6" y="687" class="st3" width="1.7" height="52.8"/>
		</g>
		<g>
			<rect x="558.1" y="712.5" class="st3" width="52.8" height="1.7"/>
		</g>
		<g>
			
				<rect x="558.1" y="712.5" transform="matrix(0.7071 -0.7071 0.7071 0.7071 -333.2555 622.2576)" class="st3" width="52.8" height="1.7"/>
		</g>
		<g>
			
				<rect x="583.6" y="687" transform="matrix(0.7071 -0.7071 0.7071 0.7071 -333.2511 622.2138)" class="st3" width="1.7" height="52.8"/>
		</g>
		<g>
			<circle class="st3" cx="584.5" cy="713.4" r="4.7"/>
		</g>
		<g>
			<path class="st3" d="M619.3,699.6h-34.6c-3.7,0-6.9-2.5-7.7-6.1l-4.2-18c-0.3-1.1,0.4-2.2,1.5-2.4c1.1-0.3,2.2,0.4,2.4,1.5
				l4.2,18c0.4,1.8,2,3,3.8,3h34.6c1.1,0,2,0.9,2,2C621.3,698.6,620.4,699.6,619.3,699.6z"/>
		</g>
		<g>
			<path class="st3" d="M621.2,728.3h-1.7V700h-36.2c-3.1,0-5.8-2.1-6.5-5.2l-6.7-28.8h-8v-1.7h9.3l7,30.1c0.5,2.3,2.6,3.9,4.9,3.9
				h37.9V728.3z"/>
		</g>
		<g>
			<path class="st3" d="M584.5,741.4c-15.5,0-28-12.6-28-28c0-15.5,12.6-28,28-28c15.5,0,28,12.6,28,28
				C612.5,728.8,599.9,741.4,584.5,741.4z M584.5,688.7c-13.6,0-24.7,11.1-24.7,24.7c0,13.6,11.1,24.7,24.7,24.7
				c13.6,0,24.7-11.1,24.7-24.7C609.2,699.7,598.1,688.7,584.5,688.7z"/>
		</g>
		<g>
			<path class="st3" d="M565.8,666.4h-8.6c-0.7,0-1.2-0.5-1.2-1.2s0.5-1.2,1.2-1.2h8.6c0.7,0,1.2,0.5,1.2,1.2
				S566.5,666.4,565.8,666.4z"/>
		</g>
		<g>
			<circle class="st3" cx="620.4" cy="734" r="6.3"/>
		</g>
		<g>
			<path class="st3" d="M620.4,741.4c-4.1,0-7.5-3.3-7.5-7.5c0-4.1,3.3-7.5,7.5-7.5s7.5,3.3,7.5,7.5
				C627.8,738.1,624.5,741.4,620.4,741.4z M620.4,728.9c-2.8,0-5.1,2.3-5.1,5.1c0,2.8,2.3,5.1,5.1,5.1c2.8,0,5.1-2.3,5.1-5.1
				C625.5,731.2,623.2,728.9,620.4,728.9z"/>
		</g>
	</g>
</g>
</svg>
