<?xml version="1.0" encoding="utf-8"?>
<!-- Generator: Adobe Illustrator 23.0.2, SVG Export Plug-In . SVG Version: 6.00 Build 0)  -->
<svg version="1.1" id="Ebene_1" xmlns="http://www.w3.org/2000/svg" xmlns:xlink="http://www.w3.org/1999/xlink" x="0px" y="0px"
	 viewBox="0 0 1400 1100" style="enable-background:new 0 0 1400 1100;" xml:space="preserve">
<style type="text/css">
	.st0{fill:#FFFFFF;}
	.st1{fill:#E3E3E2;}
	.st2{fill:#033153;}
	.st3{fill:#D1D3D4;}
	.st4{fill:#032133;}
	.st5{fill:#F2931B;}
	.st6{fill:none;stroke:#F2931B;stroke-miterlimit:10;}
</style>
<rect y="0" class="st0" width="1400" height="1100"/>
<title>clock</title>
<g>
	<rect x="339.7" y="312.8" class="st1" width="720.5" height="451.2"/>
	<rect x="339.7" y="312.8" class="st2" width="360.3" height="451.2"/>
	<rect x="700" y="763.9" class="st3" width="433" height="23.3"/>
	<rect x="267" y="763.9" class="st2" width="433" height="23.3"/>
	<rect x="308.6" y="312.8" class="st4" width="31.2" height="451.2"/>
	<rect x="1060.3" y="312.8" class="st3" width="31.2" height="451.2"/>
	<circle class="st2" cx="655.2" cy="675.5" r="11.5"/>
	<circle class="st2" cx="685" cy="675.5" r="11.5"/>
	<rect x="700" y="452.7" class="st3" width="360.3" height="19.3"/>
	<rect x="339.7" y="452.7" class="st4" width="360.3" height="19.3"/>
	<g>
		<rect x="757.1" y="480.1" class="st2" width="10.1" height="31.4"/>
		
			<rect x="819.8" y="534.1" transform="matrix(-1.836970e-16 1 -1 -1.836970e-16 1374.6691 -274.9874)" class="st2" width="10.1" height="31.4"/>
		
			<rect x="835.5" y="549.8" transform="matrix(-1 -1.224647e-16 1.224647e-16 -1 1681.093 1120.6888)" class="st2" width="10.1" height="21"/>
		<path class="st2" d="M838.4,565.2h4.2v18.9c0,1.2-0.9,2.1-2.1,2.1l0,0c-1.2,0-2.1-0.9-2.1-2.1V565.2z"/>
		
			<rect x="780.7" y="499.9" transform="matrix(0.6376 -0.7704 0.7704 0.6376 -123.9448 797.5953)" class="st2" width="10.1" height="61.2"/>
		<circle class="st2" cx="762.2" cy="511.9" r="9.3"/>
		<circle class="st2" cx="762.2" cy="476" r="9.3"/>
		<circle class="st2" cx="809.1" cy="549.8" r="9.3"/>
		<circle class="st2" cx="840.5" cy="549.8" r="9.3"/>
		<rect x="745.4" y="472" class="st2" width="33.6" height="8.1"/>
	</g>
	<rect x="638.2" y="630.4" class="st5" width="41.6" height="25.8"/>
	<rect x="750.7" y="630.4" class="st5" width="41.6" height="25.8"/>
	<rect x="863.3" y="630.4" class="st5" width="41.6" height="25.8"/>
	<path class="st6" d="M485.4,542.6"/>
	<circle class="st1" cx="420.1" cy="678.5" r="9.1"/>
	<circle class="st1" cx="485.4" cy="558.2" r="7.1"/>
	<circle class="st1" cx="565.4" cy="558.2" r="6.5"/>
	<circle class="st1" cx="420.1" cy="601.3" r="9.8"/>
	<g>
		<rect x="388.2" y="730.6" class="st4" width="63.9" height="33.4"/>
		<path class="st4" d="M420.1,711.4c-6.8,0-13-2-18.3-5.5v24.7h36.5v-24.7C433.2,709.3,426.9,711.4,420.1,711.4z"/>
		<path class="st4" d="M447,675.2l-4.7-73.9c0-12.2-9.9-22.1-22.1-22.1S398,589,398,601.3l-4.7,73.9c-0.1,1.1-0.2,2.2-0.2,3.3l0,0
			l0,0c0,14.9,12.1,27,27,27c14.9,0,27-12.1,27-27C447.2,677.4,447.1,676.3,447,675.2z"/>
		<path class="st4" d="M566.8,542.6c-0.5,0-1-0.1-1.4-0.1v0h-0.1c0,0,0,0,0,0l-67.6,0c1.6,1.3,3.1,2.8,4.3,4.7
			c5.7,8.7,3.7,20.2-4.3,26.5h67.8v0c8,0,14.8-6.1,15.5-14.2C581.7,551,575.4,543.4,566.8,542.6z"/>
		<path class="st4" d="M498.4,549.6c-4.7-7.2-14.4-9.2-21.6-4.4l-49.8,30c6.2,1.6,11.9,5.5,15.7,11.3c3.8,5.8,5.1,12.5,4.2,18.9
			l47.1-34.1C501.2,566.4,503.2,556.8,498.4,549.6z"/>
		<path class="st4" d="M575.4,588.8h-20c-3.1,0-5.6-2.5-5.6-5.6v0c0-3.1,2.5-5.6,5.6-5.6h20c3.1,0,5.6,2.5,5.6,5.6v0
			C581,586.3,578.5,588.8,575.4,588.8z"/>
		<rect x="561.2" y="585.1" class="st4" width="7.4" height="15.4"/>
		<circle class="st4" cx="564.9" cy="601.8" r="6.2"/>
		<polygon class="st4" points="562.4,599.6 546,611.3 542,626 551.6,637.9 546.4,625.2 550.6,614.5 564.9,605.8 		"/>
		<polygon class="st4" points="567.4,599.6 583.7,611.3 587.8,626 578.2,637.9 583.4,625.2 579.2,614.5 564.9,605.8 		"/>
		<circle class="st2" cx="485.4" cy="558.2" r="3.9"/>
		<circle class="st2" cx="565.4" cy="558.2" r="3.6"/>
		<circle class="st2" cx="420.1" cy="601.3" r="5.7"/>
		<circle class="st2" cx="420.1" cy="678.5" r="5.7"/>
	</g>
	<rect x="643.7" y="692" class="st2" width="10" height="71.9"/>
	<g>
		<g>
			<path class="st2" d="M1060.3,694.5H632.4c-10.5,0-19.1-8.6-19.1-19.1s8.6-19.1,19.1-19.1h427.8v5H632.4
				c-7.8,0-14.1,6.3-14.1,14.1s6.3,14.1,14.1,14.1h427.8V694.5z"/>
		</g>
		<circle class="st2" cx="714.7" cy="675.5" r="11.5"/>
		<circle class="st2" cx="805.5" cy="675.5" r="11.5"/>
		<circle class="st2" cx="835.2" cy="675.5" r="11.5"/>
		<circle class="st2" cx="865" cy="675.5" r="11.5"/>
		<circle class="st2" cx="975.5" cy="675.5" r="11.5"/>
		<circle class="st2" cx="1005.3" cy="675.5" r="11.5"/>
		<circle class="st2" cx="1035" cy="675.5" r="11.5"/>
		<rect x="794" y="692" class="st2" width="10" height="71.9"/>
		<rect x="944.2" y="692" class="st2" width="10" height="71.9"/>
	</g>
	<rect x="700" y="332" class="st3" width="360.3" height="55.8"/>
	<rect x="339.7" y="332" class="st4" width="360.3" height="55.8"/>
	<path class="st4" d="M700,689.5h-67.6c-7.8,0-14.1-6.3-14.1-14.1s6.3-14.1,14.1-14.1H700v-5h-67.6c-10.5,0-19.1,8.6-19.1,19.1
		s8.6,19.1,19.1,19.1H700V689.5z"/>
</g>
</svg>
