<?xml version="1.0" encoding="utf-8"?>
<!-- Generator: Adobe Illustrator 23.0.2, SVG Export Plug-In . SVG Version: 6.00 Build 0)  -->
<svg version="1.1" id="Ebene_1" xmlns="http://www.w3.org/2000/svg" xmlns:xlink="http://www.w3.org/1999/xlink" x="0px" y="0px"
	 viewBox="0 0 1400 1100" style="enable-background:new 0 0 1400 1100;" xml:space="preserve">
<style type="text/css">
	.st0{fill:#FFFFFF;}
	.st1{fill:#E3E3E2;}
	.st2{fill:#033153;}
	.st3{fill:#E3E3E2;stroke:#033153;stroke-width:5;stroke-miterlimit:10;}
	.st4{fill:#F2931B;}
</style>
<rect y="0" class="st0" width="1400" height="1100"/>
<title>clock</title>
<g>
	<polygon class="st1" points="999.1,911.7 999.1,217.4 903,217.4 903,195.5 805.3,195.5 805.3,165 647.3,165 647.3,195.5 
		647.3,204.5 647.3,217.4 647.3,222.8 647.3,917.8 647.3,917.8 647.3,935 1133,935 1133,911.7 	"/>
	<polygon class="st2" points="647.3,219.6 647.3,217.4 647.3,201.6 647.3,195.5 647.3,165 489.3,165 489.3,195.5 391.5,195.5 
		391.5,217.4 295.5,217.4 295.5,911.7 267,911.7 267,935 647.3,935 	"/>
	<path class="st3" d="M1101.2,689.1h-60.7c-14,0-25.4-11.4-25.4-25.4V242.8c0-14,11.4-25.4,25.4-25.4h60.7c14,0,25.4,11.4,25.4,25.4
		v420.8C1126.6,677.7,1115.2,689.1,1101.2,689.1z"/>
	<g>
		<path class="st4" d="M1061.8,276.2c0.6-2.8,1.7-4.9,3.2-6.1c1.5-1.2,3.7-1.9,6.5-1.9h3.4l-5.1,23.9h3.6l3.4-15.9
			c0.6-2.8,1.6-4.9,3.1-6.1c1.5-1.2,3.7-1.9,6.5-1.9h3.4l-10.4,49c-0.6,2.8-1.7,4.9-3.2,6.1c-1.5,1.2-3.7,1.9-6.5,1.9h-3.4l5.7-26.8
			h-3.6l-4,18.8c-0.6,2.8-1.7,4.9-3.2,6.1c-1.5,1.2-3.7,1.9-6.5,1.9h-3.4L1061.8,276.2z"/>
		<path class="st4" d="M1061.8,357.6c0.6-2.8,1.7-4.9,3.2-6.1c1.5-1.2,3.7-1.9,6.5-1.9h18.4l-10.4,49c-0.6,2.8-1.7,4.9-3.2,6.1
			c-1.5,1.2-3.7,1.9-6.5,1.9h-18.4L1061.8,357.6z M1076.7,357.7c0.1-0.5,0-0.9-0.2-1.3c-0.3-0.4-0.7-0.6-1.2-0.6
			c-0.5,0-0.9,0.2-1.4,0.6c-0.4,0.4-0.7,0.8-0.8,1.4l-8.6,40.5c-0.1,0.6,0,1.1,0.3,1.4c0.3,0.4,0.7,0.5,1.1,0.5
			c0.2,0,0.5-0.1,1.1-0.2c0.5-0.2,0.9-0.7,1.1-1.7L1076.7,357.7z"/>
		<path class="st4" d="M1069.9,437.2h-7.6c0.4-2.1,1.3-3.6,2.6-4.7c1.3-1.1,2.8-1.6,4.4-1.6h21.1c-0.4,2.1-1.2,3.6-2.5,4.7
			c-1.3,1.1-2.8,1.6-4.5,1.6h-2l-9,42.7c-0.6,2.8-1.7,4.9-3.2,6.1c-1.5,1.2-3.7,1.9-6.5,1.9h-3.4L1069.9,437.2z"/>
		<path class="st4" d="M1064.5,520.2c0.6-2.8,1.7-4.9,3.2-6.1c1.5-1.2,3.7-1.9,6.5-1.9h15.1c-0.4,2.1-1.2,3.6-2.5,4.7
			c-1.3,1.1-2.8,1.6-4.5,1.6h-6.1l-3.7,17.6h11.7c-0.4,2.1-1.2,3.6-2.5,4.7c-1.3,1.1-2.8,1.6-4.4,1.6h-6.1l-4.4,20.5h12.2
			c-0.4,2.1-1.2,3.6-2.5,4.7c-1.3,1.1-2.8,1.6-4.4,1.6h-18L1064.5,520.2z"/>
		<path class="st4" d="M1066.5,601.5c0.6-2.8,1.7-4.9,3.2-6.1c1.5-1.2,3.7-1.9,6.5-1.9h3.4l-10.8,50.7h10.6c0.1,2.1-0.4,3.6-1.5,4.7
			c-1.1,1.1-2.5,1.6-4.1,1.6h-17.6L1066.5,601.5z"/>
	</g>
	<path class="st4" d="M647.3,755.6c-45,0-81.5,15.1-81.5,33.7v122.4h18.6V808.9h125.7v102.7h18.6V789.3
		C728.7,770.7,692.3,755.6,647.3,755.6z"/>
	<rect x="867.9" y="634.9" class="st0" width="86.5" height="86.5"/>
	<rect x="692" y="634.9" class="st0" width="86.5" height="86.5"/>
	<rect x="867.9" y="510.9" class="st0" width="86.5" height="86.5"/>
	<rect x="692" y="510.9" class="st0" width="86.5" height="86.5"/>
	<rect x="867.9" y="386.9" class="st0" width="86.5" height="86.5"/>
	<rect x="692" y="386.9" class="st0" width="86.5" height="86.5"/>
	<rect x="867.9" y="262.9" class="st0" width="86.5" height="86.5"/>
	<rect x="692" y="262.9" class="st0" width="86.5" height="86.5"/>
	<rect x="516.1" y="634.9" class="st0" width="86.5" height="86.5"/>
	<rect x="340.2" y="634.9" class="st0" width="86.5" height="86.5"/>
	<rect x="516.1" y="510.9" class="st0" width="86.5" height="86.5"/>
	<rect x="340.2" y="510.9" class="st0" width="86.5" height="86.5"/>
	<rect x="516.1" y="386.9" class="st0" width="86.5" height="86.5"/>
	<rect x="340.2" y="386.9" class="st0" width="86.5" height="86.5"/>
	<rect x="516.1" y="262.9" class="st0" width="86.5" height="86.5"/>
	<rect x="340.2" y="262.9" class="st0" width="86.5" height="86.5"/>
</g>
</svg>
