<svg xmlns="http://www.w3.org/2000/svg" viewBox="0 0 866 467.01"><defs><style>.cls-1{fill:#e3e3e2;}.cls-2{fill:#d1d3d4;}.cls-3{fill:#033153;}.cls-4{fill:#044d7a;}.cls-5{fill:#a7a9ac;}</style></defs><title>Grundstück (Property)</title><g id="Слой_2" data-name="Слой 2"><g id="Слой_2-2" data-name="Слой 2"><polygon class="cls-1" points="866 265.49 433 467.01 0 265.49 433 63.97 866 265.49"/><polygon class="cls-2" points="0 265.49 433 407.09 866 265.49 433 467.01 0 265.49"/><polygon class="cls-3" points="359.2 122.98 299.78 245.96 240.35 122.98 299.78 0 359.2 122.98"/><polygon class="cls-4" points="299.78 0 299.78 245.96 240.35 122.98 299.78 0"/><polygon class="cls-2" points="418.23 314.16 542 314.16 418.23 241.13 418.23 314.16"/><polygon class="cls-2" points="621.41 299.14 745.18 299.14 621.41 226.11 621.41 299.14"/><polygon class="cls-2" points="506.74 202.25 630.51 202.25 506.74 129.22 506.74 202.25"/><rect class="cls-5" x="411.67" y="241.13" width="13.11" height="73.03"/><ellipse class="cls-5" cx="418.23" cy="241.13" rx="44.26" ry="34.06"/><ellipse class="cls-5" cx="418.23" cy="201.43" rx="30.77" ry="23.68"/><rect class="cls-5" x="500.19" y="129.22" width="13.11" height="73.03"/><ellipse class="cls-5" cx="506.74" cy="129.22" rx="44.26" ry="34.06"/><ellipse class="cls-5" cx="506.74" cy="89.52" rx="30.77" ry="23.68"/><rect class="cls-5" x="614.85" y="226.11" width="13.11" height="73.03"/><ellipse class="cls-5" cx="621.41" cy="226.11" rx="44.26" ry="34.06"/><ellipse class="cls-5" cx="621.41" cy="186.4" rx="30.77" ry="23.68"/></g></g></svg>