<?xml version="1.0" encoding="utf-8"?>
<!-- Generator: Adobe Illustrator 23.0.2, SVG Export Plug-In . SVG Version: 6.00 Build 0)  -->
<svg version="1.1" id="Ebene_1" xmlns="http://www.w3.org/2000/svg" xmlns:xlink="http://www.w3.org/1999/xlink" x="0px" y="0px"
	 viewBox="0 0 1400 1100" style="enable-background:new 0 0 1400 1100;" xml:space="preserve">
<style type="text/css">
	.st0{fill:#FFFFFF;}
	.st1{fill:#033153;}
	.st2{fill:#E3E3E2;}
	.st3{fill:none;stroke:#F2931B;stroke-width:10;stroke-miterlimit:10;}
	.st4{fill:#D1D3D4;}
</style>
<rect y="0" class="st0" width="1400" height="1100"/>
<title>clock</title>
<g>
	<rect x="267" y="864.4" class="st1" width="866" height="23.3"/>
	<rect x="305.4" y="234.1" class="st2" width="789.1" height="630.3"/>
	<rect x="305.4" y="212.3" class="st2" width="789.1" height="21.9"/>
	<rect x="305.4" y="556.8" class="st3" width="365.4" height="115.1"/>
	<rect x="728.6" y="328.2" class="st3" width="366" height="115.1"/>
	<rect x="378.8" y="361" class="st0" width="243.1" height="69"/>
	<rect x="378.8" y="472.5" class="st0" width="243.1" height="69"/>
	<rect x="378.8" y="584" class="st0" width="243.1" height="69"/>
	<rect x="378.8" y="695.4" class="st0" width="243.1" height="69"/>
	<rect x="778.4" y="361" class="st0" width="243.1" height="69"/>
	<rect x="778.4" y="472.5" class="st0" width="243.1" height="69"/>
	<rect x="778.4" y="584" class="st0" width="243.1" height="69"/>
	<rect x="778.4" y="695.4" class="st0" width="243.1" height="69"/>
	<polygon class="st4" points="305.4,234.1 1094.6,314.8 1094.6,234.1 	"/>
</g>
</svg>
