<?xml version="1.0" encoding="utf-8"?>
<!-- Generator: Adobe Illustrator 23.0.2, SVG Export Plug-In . SVG Version: 6.00 Build 0)  -->
<svg version="1.1" id="Ebene_1" xmlns="http://www.w3.org/2000/svg" xmlns:xlink="http://www.w3.org/1999/xlink" x="0px" y="0px"
	 viewBox="0 0 1400 1100" style="enable-background:new 0 0 1400 1100;" xml:space="preserve">
<style type="text/css">
	.st0{fill:#FFFFFF;}
	.st1{fill:#E3E3E2;}
	.st2{fill:#6D6E70;}
	.st3{fill:#F2931B;}
	.st4{fill:none;stroke:#033153;stroke-width:10;stroke-miterlimit:10;}
	.st5{fill:none;stroke:#033153;stroke-width:7;stroke-miterlimit:10;}
</style>
<rect y="0" class="st0" width="1400" height="1100"/>
<title>clock</title>
<g>
	<g>
		<path class="st1" d="M794.8,466.9c-7.6,8.9-14.4,22,0.8,44.1c16.1-6.5,28.3-14.4,37.3-24.4l14.8-16.3c0.3-0.4,0.8-0.5,1.3-0.5
			c0.5,0,1,0.3,1.3,0.7l10,14.2v-29.4c-17.4-15.3-32.5-32.9-38.7-44.8c-1.7,3.1-4.6,3.9-6.4,4.1c-9.2,0.9-23.9-11-30.3-29.4
			c-5.1-14.5-1.9-23.1,1.6-27.8c3.3-4.4,7.7-6.3,9.8-6.1c2.4,0.1,3.8,3.4,6.6,9.9c1.4,3.3,3,7.1,4.9,10.5
			c-2.6-11.9-3.5-28.6,1.4-36.5c1.9-3.1,4.7-4.7,7.9-4.7c7.5,0,11.8,3.2,15.9,6.3c4.4,3.3,8.9,6.6,17.6,6.6
			c9.9,0,21.1-24.7,30.1-44.6c6.2-13.6,11.5-25.4,16.3-29.9c10-12.2,20.4-18.2,30.7-17.7c12.9,0.6,21.4,11.3,24.4,15.8
			c8.5,12.7,18.2,23.4,31.4,34.5c1.7,1.4,3.2,2.8,4.7,4.1c0.7,0.7,1.4,1.3,2,1.9c0.7,0.6,1.3,1.3,1.9,1.9c0.6,0.6,1.2,1.3,1.7,1.9
			c5.9,6.9,8.6,14,10.4,26.9c0.4,3.1,0.6,6.4,0.6,9.9c0,3.5-0.1,7-0.4,10.5c-0.5,7-1.4,13.7-2.2,18.7c5.8-10,8.2-18.9,9.4-23.7
			c0.1-0.3,0.2-0.6,0.2-0.9c0.7-3,1-3.9,2.1-4.3c0.1,0,0.3-0.1,0.4-0.1c0.1,0,0.1,0,0.2,0c0.1,0,0.2,0,0.3,0c0,0,0.1,0,0.1,0
			c0.1,0,0.2,0,0.3,0.1c0,0,0.1,0,0.1,0.1c0.1,0,0.1,0.1,0.2,0.1c0.5,0.3,0.9,0.6,1.4,1c13.2,9.7,14.9,24.9,5.3,46.1
			c-0.3,0.7-0.7,1.4-1,2.1c-4.6,9.6-12.9,16.1-21.3,16.6c-3.8,0.2-7.1-0.9-9.5-3.2c-9.7,15.4-25.2,33.1-41.1,46.7v27.7l10.8-15.3
			c0.3-0.4,0.8-0.7,1.3-0.7c0,0,0.1,0,0.1,0c0.5,0,0.9,0.2,1.2,0.5l14.8,16.3c9.3,10.2,21.9,18.3,38.5,24.8
			c10.2-13.5,10.3-26.9,0.1-41.8c-11.6-17.1-10.8-25.2,3.7-41.3c9-10,17.8-33.2,16.2-53.3c-0.9-11-4.7-19.3-11.3-24.7
			c-0.4-0.3-0.6-0.7-0.6-1.2c-1.5-19.2-16.1-31.6-16.2-31.7c-0.4-0.3-0.6-0.8-0.6-1.2c0-0.5-1.6-51.8-18.4-64.9
			c-0.3-0.2-0.5-0.6-0.6-1c-8.4-42.9-52.9-43.7-53.3-43.7c-0.3,0-0.7-0.1-0.9-0.3c-0.2-0.1-19.7-13.5-40.4-6.1
			c-20.6,7.3-24.4,19.5-24.5,19.7c-0.1,0.4-0.4,0.8-0.8,1c-0.4,0.2-0.9,0.3-1.3,0.1c-1.1-0.4-27.6-8.6-44.1,14.2
			c-17.7,24.4-25.1,54.9-26.1,73.6c-1.1,20.5-4.8,28.4-14.7,49.5c-10.1,21.6-5.8,49.8,10.6,68.7C811,448,803.8,456.4,794.8,466.9z"
			/>
		<path class="st1" d="M905.2,545.6c9.5,0,40.7-40.8,40.7-45.9V491v-33.7c0-0.5,0.2-1,0.6-1.3c16.5-14.1,32.7-32.6,42.3-48.4
			c0.3-0.5,0.8-0.8,1.4-0.8c0,0,0,0,0,0c0.2,0,0.5,0.1,0.7,0.2c0.3,0.1,0.5,0.3,0.7,0.6c1.6,2.6,4.5,3.9,8,3.6
			c5.8-0.3,13.8-5,18.4-14.7c9.7-20.4,8.8-34.7-2.9-43.8c-0.1,0.3-0.2,0.6-0.2,0.9c-1.4,5.6-4.7,18.8-14.6,32.6
			c-0.5,0.6-1.3,0.9-2,0.6c-0.7-0.3-1.1-1.1-1-1.9c0.1-0.3,5.7-28.7,3.4-46.2c-2.4-17.8-6.5-23.6-19.5-34.6
			c-13.5-11.4-23.3-22.2-32-35.2c-2.8-4.1-10.4-13.8-21.8-14.4c-9.1-0.4-18.6,5.1-28.1,16.6c-4.4,4.3-9.9,16.3-15.7,29
			c-10.4,22.9-21.1,46.6-33.2,46.6c-2.5,0-4.6-0.2-6.6-0.7c-5.8-1.2-9.6-4.1-13-6.6c-0.8-0.6-1.6-1.2-2.5-1.8
			c-2.2-1.5-4.4-2.8-7.2-3.4c-1.3-0.3-2.7-0.5-4.3-0.5c-0.5,0-1,0.1-1.5,0.2c-1.4,0.4-2.6,1.4-3.6,2.9c-4.5,7.2-3.3,24.5-0.5,35.8
			c0.8,3.2,1.7,5.9,2.6,7.8c0.4,0.7,0.1,1.6-0.5,2.1c-0.7,0.5-1.6,0.4-2.1-0.2c-5.1-5-8.7-13.3-11.6-20.1c-1.4-3.3-3.2-7.4-4-8
			c-0.4,0-3.8,1.1-6.6,4.9c-3,4-5.7,11.5-1.1,24.7c6.1,17.6,20.1,27.9,26.9,27.2c2.7-0.3,4.3-2.1,4.8-5.6c0.1-0.8,0.7-1.3,1.5-1.4
			c0.1,0,0.1,0,0.2,0c0.1,0,0.1,0,0.2,0c0.1,0,0.2,0,0.3,0c0.1,0,0.1,0.1,0.2,0.1c0.1,0,0.2,0.1,0.2,0.1c0.1,0,0.1,0.1,0.2,0.2
			c0.1,0.1,0.1,0.1,0.2,0.2c0.1,0.1,0.2,0.3,0.3,0.5c4.3,11.1,21.2,31.3,40.2,48c0.4,0.3,0.6,0.8,0.6,1.3V490v8.4
			C863.7,506.6,895.6,545.6,905.2,545.6z"/>
		<path class="st2" d="M991,407c0.3,0.1,0.5,0.3,0.7,0.6C991.5,407.3,991.2,407.1,991,407z"/>
		<path class="st2" d="M1013.8,348.6c0.1,0,0.3-0.1,0.4-0.1C1014.1,348.5,1014,348.5,1013.8,348.6z"/>
		<path class="st2" d="M1015.2,348.7c0.1,0,0.2,0.1,0.3,0.2c0.4,0.3,0.9,0.6,1.3,0.9c-0.4-0.3-0.9-0.7-1.4-1
			C1015.4,348.7,1015.3,348.7,1015.2,348.7z"/>
		<path class="st2" d="M990.2,307.6c-0.7-0.6-1.3-1.3-2-1.9C988.9,306.3,989.6,307,990.2,307.6z"/>
		<path class="st2" d="M990.2,307.6c0.7,0.6,1.3,1.3,1.9,1.9C991.5,308.9,990.9,308.3,990.2,307.6z"/>
		<path class="st2" d="M1004.1,338.3c-1.7-12.9-4.4-20-10.4-26.9C999.7,318.3,1002.4,325.4,1004.1,338.3c0.4,3.1,0.6,6.4,0.6,9.9
			C1004.7,344.7,1004.5,341.4,1004.1,338.3z"/>
		<path class="st2" d="M993.8,311.4c-0.5-0.6-1.1-1.3-1.7-1.9C992.7,310.1,993.2,310.8,993.8,311.4z"/>
		<path class="st2" d="M947.1,492.6c-0.7-0.2-1.2-0.9-1.2-1.6v8.7c0,5.1-31.2,45.9-40.7,45.9c-9.7,0-41.5-39-41.5-47.3V490
			c0,0.7-0.5,1.4-1.2,1.6c-0.7,0.2-1.4,0-1.9-0.6l0.7-1h-0.3l-0.7,0.5v7.9c0,10.6,33.3,50.6,44.8,50.6c11.4,0,44.1-42.1,44.1-49.2
			v-8.2L949,492C948.6,492.6,947.8,492.8,947.1,492.6z"/>
		<path class="st2" d="M1014.7,348.5c-0.1,0-0.2,0-0.3,0C1014.5,348.5,1014.6,348.5,1014.7,348.5z"/>
		<path class="st2" d="M1015.1,348.6c-0.1,0-0.2-0.1-0.3-0.1C1014.9,348.5,1015,348.6,1015.1,348.6z"/>
		<path class="st2" d="M1002.1,377.4C1002.1,377.4,1002.1,377.4,1002.1,377.4c0.8-5,1.7-11.7,2.2-18.7
			C1003.8,365.8,1002.9,372.5,1002.1,377.4z"/>
		<path class="st2" d="M792.3,464.8c-7.9,9.2-16.3,24.3,1.3,49.3c0.4,0.6,1.3,0.9,2,0.6c17.1-6.7,30.2-15.1,39.8-25.7l13.4-14.8
			l11.5,16.3l0,0l0.7-0.5h0.3l-0.7,1c0.4,0.6,1.2,0.9,1.9,0.6c0.7-0.2,1.2-0.9,1.2-1.6v-35.4c0-0.5-0.2-0.9-0.6-1.3
			c-19-16.7-35.9-36.9-40.2-48c-0.1-0.2-0.2-0.3-0.3-0.5c-0.1-0.1-0.1-0.1-0.2-0.2c-0.1-0.1-0.1-0.1-0.2-0.2
			c-0.1-0.1-0.2-0.1-0.2-0.1c-0.1,0-0.1-0.1-0.2-0.1c-0.1,0-0.2,0-0.3,0c-0.1,0-0.2,0-0.4,0c-0.8,0.1-1.4,0.7-1.5,1.4
			c-0.5,3.5-2.1,5.3-4.8,5.6c-6.7,0.7-20.7-9.6-26.9-27.2c-4.6-13.2-1.9-20.7,1.1-24.7c2.8-3.7,6.3-4.8,6.6-4.9c0.9,0.6,2.6,4.7,4,8
			c2.9,6.7,6.4,15.1,11.6,20.1c0.6,0.6,1.5,0.6,2.1,0.2c0.7-0.5,0.9-1.4,0.5-2.1c-0.9-1.9-1.8-4.6-2.6-7.8
			c-2.8-11.3-4-28.6,0.5-35.8c1-1.6,2.2-2.5,3.6-2.9c0.5-0.1,1-0.2,1.5-0.2c1.6,0,3,0.2,4.3,0.5c2.8,0.6,5,1.9,7.2,3.4
			c0.8,0.6,1.6,1.2,2.5,1.8c3.4,2.6,7.2,5.4,13,6.6c1.9,0.4,4.1,0.7,6.6,0.7c12,0,22.8-23.7,33.2-46.6c5.8-12.7,11.2-24.8,15.7-29
			c9.4-11.5,18.9-17,28.1-16.6c11.4,0.6,19.1,10.2,21.8,14.4c8.7,13,18.5,23.9,32,35.2c13,11,17.1,16.8,19.5,34.6
			c2.3,17.5-3.4,45.9-3.4,46.2c-0.2,0.8,0.2,1.5,1,1.9c0.7,0.3,1.6,0.1,2-0.6c9.9-13.8,13.2-27,14.6-32.6c0.1-0.3,0.2-0.6,0.2-0.9
			c11.7,9.1,12.7,23.4,2.9,43.8c-4.6,9.7-12.6,14.4-18.4,14.7c-3.6,0.2-6.4-1.1-8-3.6c-0.2-0.3-0.4-0.5-0.7-0.6
			c-0.2-0.1-0.5-0.2-0.7-0.2c0,0,0,0,0,0c-0.6,0-1.1,0.3-1.4,0.8c-9.5,15.8-25.7,34.3-42.3,48.4c-0.4,0.3-0.6,0.8-0.6,1.3V491
			c0,0.7,0.5,1.4,1.2,1.6c0.7,0.2,1.4,0,1.9-0.6l0.3-0.4l12.3-17.4l13.4,14.8c9.8,10.8,23.2,19.3,40.9,26.1c0.2,0.1,0.4,0.1,0.6,0.1
			c0.5,0,1-0.2,1.3-0.6c11.9-15,12.2-30.3,1-46.7c-10.7-15.9-10.2-22.1,3.4-37.2c9.5-10.5,18.7-34.8,17-55.7
			c-0.9-11.5-5-20.7-12-26.6c-1.7-18.1-13.9-30.2-16.8-32.8c-0.2-6.6-2.5-52.5-19.1-66.4c-8.7-42.4-50.7-45.6-55.9-45.8
			c-3.1-2.1-22.1-13.7-43-6.3c-18.2,6.5-24.3,16.5-26,20.4c-6.3-1.5-30.7-5.7-46.3,15.8c-18.1,24.9-25.7,56.2-26.7,75.4
			c-1.1,19.9-4.7,27.6-14.4,48.2c-10.7,22.7-6.1,52.5,11.1,72.3C806.6,448,801.2,454.3,792.3,464.8z M782.1,358.3
			c9.9-21.1,13.6-29,14.7-49.5c1-18.7,8.4-49.2,26.1-73.6c16.5-22.7,43-14.5,44.1-14.2c0.4,0.1,0.9,0.1,1.3-0.1
			c0.4-0.2,0.7-0.6,0.8-1c0-0.1,3.9-12.3,24.5-19.7c20.7-7.4,40.2,6,40.4,6.1c0.3,0.2,0.6,0.3,0.9,0.3c0.4,0,44.9,0.8,53.3,43.7
			c0.1,0.4,0.3,0.7,0.6,1c16.8,13.1,18.4,64.4,18.4,64.9c0,0.5,0.2,0.9,0.6,1.2c0.1,0.1,14.7,12.5,16.2,31.7c0,0.5,0.3,0.9,0.6,1.2
			c6.6,5.4,10.5,13.7,11.3,24.7c1.6,20-7.2,43.2-16.2,53.3c-14.5,16.1-15.2,24.2-3.7,41.3c10.1,15,10.1,28.3-0.1,41.8
			c-16.6-6.5-29.2-14.7-38.5-24.8l-14.8-16.3c-0.3-0.3-0.8-0.5-1.2-0.5c0,0-0.1,0-0.1,0c-0.5,0-1,0.3-1.3,0.7l-10.8,15.3v-27.7
			c15.9-13.6,31.4-31.3,41.1-46.7c2.3,2.3,5.7,3.4,9.5,3.2c8.3-0.5,16.7-7,21.3-16.6c0.3-0.7,0.7-1.4,1-2.1
			c9.6-21.2,7.8-36.3-5.3-46.1c-0.4-0.3-0.9-0.6-1.3-0.9c-0.1-0.1-0.2-0.1-0.3-0.2c0,0-0.1,0-0.1-0.1c-0.1,0-0.2-0.1-0.3-0.1
			c0,0-0.1,0-0.1,0c-0.1,0-0.2,0-0.3,0c-0.1,0-0.1,0-0.2,0c-0.1,0-0.3,0-0.4,0.1c-1.1,0.4-1.3,1.3-2.1,4.3c-0.1,0.3-0.1,0.6-0.2,0.9
			c-1.2,4.8-3.7,13.7-9.4,23.7c0,0,0,0,0,0c0.8-5,1.7-11.7,2.2-18.7c0.3-3.5,0.4-7.1,0.4-10.5c0-3.5-0.2-6.8-0.6-9.9
			c-1.7-12.9-4.4-20-10.4-26.9c-0.5-0.6-1.1-1.3-1.7-1.9c-0.6-0.6-1.2-1.3-1.9-1.9c-0.7-0.6-1.3-1.3-2-1.9c-1.4-1.3-3-2.7-4.7-4.1
			c-13.2-11.1-22.9-21.8-31.4-34.5c-3-4.5-11.5-15.2-24.4-15.8c-10.3-0.5-20.7,5.5-30.7,17.7c-4.8,4.6-10.1,16.3-16.3,29.9
			c-9,19.9-20.2,44.6-30.1,44.6c-8.7,0-13.2-3.4-17.6-6.6c-4.2-3.1-8.5-6.3-15.9-6.3c-3.3,0-6,1.6-7.9,4.7c-4.9,7.9-4,24.5-1.4,36.5
			c-1.9-3.5-3.5-7.2-4.9-10.5c-2.8-6.5-4.2-9.8-6.6-9.9c-2.1-0.2-6.5,1.7-9.8,6.1c-3.5,4.7-6.6,13.3-1.6,27.8
			c6.4,18.5,21.1,30.3,30.3,29.4c1.8-0.2,4.6-1,6.4-4.1c6.2,11.9,21.4,29.5,38.7,44.8v29.4l-10-14.2c-0.3-0.4-0.8-0.7-1.3-0.7
			c-0.5,0-1,0.2-1.3,0.5l-14.8,16.3c-9,9.9-21.3,17.9-37.3,24.4c-15.1-22.1-8.4-35.2-0.8-44.1c9-10.6,16.1-18.9-2.1-39.9
			C776.4,408.1,772,379.8,782.1,358.3z"/>
		<path class="st3" d="M968.1,334.7c-10.8,0-35.4,1.6-43,5c-7.6,3.3-7.2,4.4-18.7,4.4c-11.5,0-11.1-1.1-18.7-4.4
			c-7.6-3.3-32.1-5-43-5c-10.8,0-30.4,1.6-30.4,8.1c0,3.2,0,5.2,0,7.3c0,2.1,7.2,3.5,7.2,7.2c0,3.7-0.8,19.5,2.6,26.9
			c3.4,7.4,11.8,19.1,32.1,18.7s33.5-14.9,35.9-21.7s8.2-22.6,14.1-22.6c5.9,0,11.8,15.8,14.1,22.6s15.6,21.2,35.9,21.7
			s28.7-11.3,32.1-18.7c3.4-7.4,2.6-23.2,2.6-26.9c0-3.7,7.2-5.1,7.2-7.2c0-2.1,0-4.1,0-7.3C998.5,336.3,979,334.7,968.1,334.7z
			 M891.6,366.1c-2.5,7.8-13.1,28.9-33.9,28.9c-20.9,0-26.8-13.1-27.9-19.9c-1.1-6.9-1.5-26.8,5.5-31.2c7-4.4,34.3-2.4,42.1-0.5
			C888.9,346.2,894.1,358.3,891.6,366.1z M983.2,375.1c-1.1,6.9-7,19.9-27.9,19.9c-20.9,0-31.4-21.1-33.9-28.9
			c-2.5-7.8,2.6-19.9,14.1-22.7c7.8-1.9,35.1-3.8,42.1,0.5C984.7,348.3,984.3,368.2,983.2,375.1z"/>
	</g>
	<g>
		<path class="st1" d="M601.2,276.5c0.4-13.2,2.8-23,4.6-30.2c1.6-6.4,2.7-11.1,1.5-14.3c-2.2-6.1-32.8-27.1-80.8-27.1
			c-4.7,0-9.7,0.2-14.7,0.7c-59.4,5.2-99.6,32.7-113.1,57.7c-14,25.9-13,68-7.5,98.8c1.3,7.2,2.4,14,3.3,20.2
			c1.3,8.2,2.8,17.6,4.3,23.5c-0.1-2.6-0.1-5.5-0.2-8.6c0-9.4,0.5-20.9,2.8-33.9c0.5-2.9,1.1-5.9,1.8-8.9c0.7-3,1.5-6.2,2.4-9.3
			c6.4-22.1,15.3-48.6,22-49.8c1.5-0.3,2.8,0.4,4.2,1.4c0.5,0.3,0.9,0.7,1.4,1.1c0.9,0.7,2,1.6,3.3,2.5c1.7,1.2,3.8,2.3,6.6,3.2
			c0.2,0.1,0.4,0.1,0.6,0.2c0.4,0.1,0.8,0.3,1.3,0.4c4.6,1.2,10.8,1.7,19.3,0.7c8.5-1.1,16.5-4,24.3-7.6c0.7-0.3,1.4-0.7,2.2-1
			c0.1-0.1,0.3-0.1,0.4-0.2c3.9-1.9,7.7-3.9,11.5-5.9c6.7-3.5,13.1-6.9,19.5-9.2c5.3-2,10.6-3.3,15.8-3.3
			c22.9,0,36.5,20.5,39.5,39.5c1.3,8.3,4.7,14.1,8.3,20.3c3.7,6.4,7.9,13.6,10.3,24.4c0.2,0.7,0.3,1.5,0.5,2.2
			c0.5,2.6,0.9,5.2,1.1,7.8c0,0.1,0,0.2,0,0.3c0.1,0.6,0.1,1.2,0.2,1.7c0,0.3,0.1,0.6,0.1,0.9c0,0.4,0,0.7,0.1,1.1
			c0,0.5,0.1,1,0.1,1.5c0,0.2,0,0.3,0,0.5c0.4,9.4-0.3,18.2-1.1,24.5c0.7-2.7,1.2-6.5,1.5-11.6c0-0.4,0-0.7,0.1-1.1
			c0.3-5.8,0.6-14.7,0.9-27.3c0,0,0,0,0,0c0.4-14.3,0.7-31,0.9-46.7C600.7,299.9,601,285.5,601.2,276.5z"/>
		<path class="st1" d="M383,395.7c1.8,10.6,9.1,16.7,15,20c0.5,0.3,0.9,0.8,1,1.4c2.2,13.3,5.4,25.1,9.5,35.1
			c4.6,11.1,18.2,25.2,37.4,38.7c0.5,0.4,0.8,1,0.8,1.6v29.4c0,4.7,20.7,22.5,48.7,22.5c28,0,48.7-17.8,48.7-22.5v-29.4
			c0-0.6,0.3-1.3,0.8-1.6c19.2-13.5,32.9-27.6,37.4-38.7c4.1-10,7.3-21.8,9.5-35.1c0.1-0.6,0.5-1.1,1-1.4c5.9-3.2,13.2-9.3,15-20
			c2.1-12.4,0.4-22.4-4.6-28.7c-0.3,10-0.6,18.5-0.9,24c-0.7,11.4-2.7,18.5-6.1,21.3c-1.5,1.3-2.8,1.2-3.2,1.2l-2.2-0.3l0.5-2.1
			c0.1-0.2,5.2-24.4,1.1-46.3c-0.1-0.7-0.3-1.4-0.4-2.1c-2.2-10.2-6.1-16.8-9.9-23.2c-3-5.1-5.9-10.1-7.6-16.3
			c-0.5-1.7-0.9-3.5-1.2-5.4c-2.2-14.2-10.7-29.2-24.8-34.3c-3.3-1.2-6.8-1.8-10.7-1.8c-1.3,0-2.6,0.1-3.9,0.3
			c-9.3,1.2-19.1,6.4-29.5,11.8c-12.4,6.5-25.2,13.2-39.7,15c-21.1,2.6-29.5-4.1-34-7.8c-0.9-0.7-2.1-1.7-2.5-1.7
			c-2,0.6-8.5,11.3-18.8,47c-7.8,27.1-7,49.8-6.5,63.3l0.1,4c0,0,0,0,0,0.1l0.1,2.5l-2.5-0.5c-5-1.1-6.7-10.7-10.1-32.5
			c-0.5-2.9-0.9-6-1.5-9.2c-0.1-0.3-0.1-0.7-0.2-1c-0.2-1.2-0.4-2.4-0.6-3.6c-0.1-0.6-0.2-1.1-0.3-1.7c-0.1-0.3-0.1-0.6-0.2-0.9
			C382.6,372.8,380.9,383,383,395.7z"/>
		<path class="st2" d="M597.8,374.7c0-0.3-0.1-0.6-0.1-0.9C597.8,374.1,597.8,374.4,597.8,374.7z"/>
		<path class="st2" d="M598,377.4c0-0.5-0.1-1-0.1-1.5C597.9,376.3,598,376.8,598,377.4z"/>
		<path class="st2" d="M598.5,389.7c0,0.4,0,0.8-0.1,1.1C598.5,390.4,598.5,390,598.5,389.7z"/>
		<path class="st2" d="M491.2,295.9c3.9-1.9,7.7-3.9,11.5-5.9c6.7-3.5,13.1-6.9,19.5-9.2c-6.3,2.4-12.8,5.7-19.5,9.2
			C498.9,292,495.1,294,491.2,295.9z"/>
		<path class="st2" d="M597.6,372c0-0.1,0-0.2,0-0.3C597.6,371.9,597.6,371.9,597.6,372z"/>
		<path class="st2" d="M490.8,296.1c-0.7,0.3-1.4,0.7-2.2,1C489.3,296.8,490.1,296.4,490.8,296.1z"/>
		<path class="st2" d="M593.1,413.5c-0.6-0.1-1.1-0.4-1.4-0.8c-0.3-0.5-0.4-1-0.3-1.6l-0.5,2.1L593.1,413.5z"/>
		<path class="st2" d="M603.3,367c-0.3,11.1-0.6,19-0.9,24C602.8,385.5,603.1,377,603.3,367C603.3,367,603.3,367,603.3,367z"/>
		<path class="st2" d="M464.8,308.6c-21.1,2.6-29.5-4.1-34-7.8C435.3,304.5,443.7,311.3,464.8,308.6z"/>
		<path class="st2" d="M592.1,362.6c-2.2-10.2-6.1-16.8-9.9-23.2c-3-5.1-5.9-10.1-7.6-16.3c1.8,6.3,4.6,11.2,7.6,16.3
			C586,345.8,589.9,352.4,592.1,362.6z"/>
		<path class="st2" d="M598,377.9c0.4,9.5-0.3,18.3-1.1,24.6c0.7-2.7,1.2-6.5,1.5-11.7c-0.3,5.2-0.9,8.9-1.5,11.6
			C597.7,396.1,598.5,387.3,598,377.9z"/>
		<path class="st2" d="M389.9,360.6c0.7,0.2,1.1,0.8,1.3,1.5c1.3,7.2,2.4,14,3.3,20.2c-1-6.2-2-13-3.3-20.2
			c-5.5-30.8-6.5-73,7.5-98.8c13.5-25,53.7-52.5,113.1-57.7c5.1-0.4,10-0.7,14.7-0.7c48,0,78.6,21,80.8,27.1
			c1.2,3.3,0.1,7.9-1.5,14.3c-1.8,7.2-4.2,16.9-4.6,30.2c-0.3,9-0.5,23.4-0.8,39.1c-0.3,15.6-0.6,32.4-0.9,46.7
			c0-0.7,0.5-1.4,1.1-1.7c0.7-0.3,1.5-0.2,2.1,0.2c0.3,0.2,0.5,0.5,0.8,0.7c0.3-14.1,0.6-30.5,0.9-45.8c0.3-15.7,0.6-30.1,0.8-39.1
			c0.4-12.8,2.6-21.9,4.5-29.3c1.8-7.1,3-12.2,1.4-16.7c-3.5-9.4-43.1-34-99.6-29c-60.9,5.3-102.3,33.9-116.3,59.8
			c-14.3,26.5-13.6,69-8.1,100.3c0.3-0.3,0.6-0.5,0.9-0.8C388.6,360.5,389.3,360.4,389.9,360.6z"/>
		<path class="st2" d="M379,396.3c1.9,11.7,9.7,18.6,16.1,22.3c2.2,13.2,5.5,25,9.6,35c6.5,15.8,26.2,31.5,38,39.9v28.3
			c0,7.7,22.8,26.5,52.7,26.5c29.9,0,52.7-18.8,52.7-26.5v-28.3c11.8-8.4,31.5-24.1,38-39.9c4.1-10,7.4-21.8,9.6-35
			c6.5-3.8,14.2-10.6,16.1-22.3c2.6-15.7-0.4-28-8.4-34.9c-0.3-0.2-0.5-0.5-0.8-0.7c-0.6-0.5-1.4-0.6-2.1-0.2
			c-0.7,0.3-1.1,1-1.1,1.7c0,0,0,0,0,0c-0.3,12.6-0.6,21.6-0.9,27.3c0,0.4,0,0.8-0.1,1.1c-0.3,5.2-0.9,9-1.5,11.7
			c0.8-6.3,1.6-15.1,1.1-24.6c0-0.2,0-0.3,0-0.5c0-0.5-0.1-1-0.1-1.5c0-0.4,0-0.7-0.1-1.1c0-0.3-0.1-0.6-0.1-0.9
			c0-0.6-0.1-1.2-0.2-1.7c0-0.1,0-0.2,0-0.3c-0.3-2.6-0.6-5.2-1.1-7.8c-0.1-0.8-0.3-1.5-0.5-2.2c-2.4-10.8-6.6-18-10.3-24.4
			c-3.6-6.2-7-12-8.3-20.3c-2.9-19-16.6-39.5-39.5-39.5c-5.2,0-10.5,1.3-15.8,3.3c-6.3,2.4-12.8,5.7-19.5,9.2c-3.8,2-7.6,4-11.5,5.9
			c-0.1,0.1-0.3,0.1-0.4,0.2c-0.7,0.3-1.4,0.7-2.2,1c-7.8,3.6-15.8,6.5-24.3,7.6c-8.5,1.1-14.7,0.5-19.3-0.7
			c-0.5-0.1-0.9-0.3-1.3-0.4c-0.2-0.1-0.4-0.1-0.6-0.2c-2.8-0.9-4.9-2.1-6.6-3.2c-1.3-0.9-2.3-1.7-3.3-2.5c-0.5-0.4-1-0.8-1.4-1.1
			c-1.4-1-2.7-1.7-4.2-1.4c-6.6,1.2-15.6,27.8-22,49.8c-0.9,3.2-1.7,6.3-2.4,9.3c-0.7,3-1.3,6-1.8,8.9c-2.3,13-2.8,24.6-2.8,33.9
			c0,3.1,0.1,6,0.2,8.6c0,0,0,0,0,0c-1.6-5.9-3-15.3-4.3-23.5c-1-6.2-2-13-3.3-20.2c-0.1-0.7-0.6-1.3-1.3-1.5
			c-0.7-0.3-1.4-0.1-1.9,0.3c-0.3,0.3-0.6,0.5-0.9,0.8C379.3,368.7,376.5,380.9,379,396.3z M388.1,367.5c0.1,0.6,0.2,1.2,0.3,1.7
			c0.2,1.2,0.4,2.4,0.6,3.6c0.1,0.3,0.1,0.7,0.2,1c0.5,3.2,1,6.3,1.5,9.2c3.4,21.8,5.1,31.4,10.1,32.5c0.6,0.1,1.2,0,1.7-0.4
			c0.5-0.4,0.7-0.9,0.7-1.5c0,0,0,0,0-0.1l-0.1-4c-0.5-13.5-1.3-36.2,6.5-63.3c10.3-35.7,16.9-46.4,18.8-47c0.4,0,1.6,1,2.5,1.7
			c4.5,3.6,12.9,10.4,34,7.8c14.4-1.8,27.3-8.5,39.7-15c10.3-5.4,20.2-10.6,29.5-11.8c1.3-0.2,2.6-0.3,3.9-0.3
			c3.9,0,7.4,0.7,10.7,1.8c14.1,5.1,22.6,20.2,24.8,34.3c0.3,1.9,0.7,3.7,1.2,5.4c1.8,6.3,4.6,11.2,7.6,16.3
			c3.8,6.4,7.6,13,9.9,23.2c0.1,0.7,0.3,1.4,0.4,2.1c4.1,22-1,46.1-1.1,46.3c-0.1,0.5,0,1.1,0.3,1.6c0.3,0.5,0.8,0.8,1.4,0.8
			c0.4,0,1.7,0.1,3.2-1.2c3.3-2.8,5.4-9.9,6.1-21.3c0.3-5.1,0.6-12.9,0.9-24c0,0,0,0,0,0c5,6.3,6.7,16.3,4.6,28.7
			c-1.8,10.6-9.1,16.7-15,20c-0.5,0.3-0.9,0.8-1,1.4c-2.2,13.3-5.4,25.1-9.5,35.1c-4.6,11.1-18.2,25.2-37.4,38.7
			c-0.5,0.4-0.8,1-0.8,1.6v29.4c0,4.7-20.7,22.5-48.7,22.5c-28,0-48.7-17.8-48.7-22.5v-29.4c0-0.6-0.3-1.3-0.8-1.6
			c-19.2-13.5-32.8-27.6-37.4-38.7c-4.1-10-7.3-21.7-9.5-35.1c-0.1-0.6-0.5-1.1-1-1.4c-5.9-3.2-13.2-9.3-15-20
			c-2.1-12.7-0.4-22.8,5-29.1c0,0,0,0,0,0C388,366.9,388,367.2,388.1,367.5z"/>
		<path class="st3" d="M495.5,437.7c-15.6,0-45.5,6.3-59.8,20.4l56,0c0,0,1-7.9,3.7-7.9s3.7,7.9,3.7,7.9l56,0
			C540.9,444,511,437.7,495.5,437.7z"/>
	</g>
	<g>
		<path class="st1" d="M812,734.1C812,734.1,812,734.1,812,734.1c0-0.2,0-0.3,0-0.5c0-61.9-50.2-112.2-112.2-112.2
			c-61.9,0-112.2,50.2-112.2,112.2c0,0.2,0,0.3,0,0.5c0,0,0,0,0,0c-11.2,0-20.3,9.1-20.3,20.3c0,11.2,9.1,20.3,20.3,20.3
			c2.6,0,5-0.5,7.2-1.4c16,42.4,56.9,72.5,104.9,72.5c48,0,88.9-30.1,104.9-72.5c2.3,0.9,4.7,1.4,7.2,1.4c11.2,0,20.3-9.1,20.3-20.3
			C832.3,743.2,823.2,734.1,812,734.1z"/>
		<path class="st2" d="M699.9,848.2c-46.6,0-89-28.8-106.4-71.9c-1.9,0.5-3.8,0.8-5.8,0.8c-12.5,0-22.7-10.2-22.7-22.7
			c0-11.7,8.9-21.3,20.3-22.6c1-62.4,52-112.8,114.6-112.8c62.6,0,113.6,50.4,114.6,112.8c11.4,1.2,20.3,10.9,20.3,22.6
			c0,12.5-10.2,22.7-22.7,22.7c-2,0-3.9-0.3-5.8-0.8C788.9,819.4,746.5,848.2,699.9,848.2z M596.4,770.1l0.9,2.3
			c16,42.4,57.3,70.9,102.6,70.9c45.3,0,86.6-28.5,102.6-70.9l0.9-2.3l2.3,0.9c2.1,0.8,4.2,1.2,6.4,1.2c9.8,0,17.8-8,17.8-17.8
			c0-9.8-8-17.8-17.8-17.8h-2.5l0-2.8c0-60.7-49.2-109.9-109.7-109.9c-60.5,0-109.7,49.2-109.7,109.7l0,3h-2.5
			c-9.8,0-17.8,8-17.8,17.8c0,9.8,8,17.8,17.8,17.8c2.2,0,4.3-0.4,6.4-1.2L596.4,770.1z"/>
	</g>
	<path class="st3" d="M699.9,658.2c-13.4,0-29.6-16-21.2-36.2c8.5-20.2,42.8-27,42.8-27s-22.9,13.2-22.5,28.3
		c0.5,15.1,18.6,16.4,22.5,17.4C730.5,643.2,730.8,658.2,699.9,658.2z"/>
	<circle class="st4" cx="699.5" cy="729.8" r="204.9"/>
	<circle class="st5" cx="904.9" cy="370.2" r="204.9"/>
	<circle class="st5" cx="495.1" cy="370.2" r="204.9"/>
</g>
</svg>
