<?xml version="1.0" encoding="utf-8"?>
<!-- Generator: Adobe Illustrator 23.0.2, SVG Export Plug-In . SVG Version: 6.00 Build 0)  -->
<svg version="1.1" id="Ebene_1" xmlns="http://www.w3.org/2000/svg" xmlns:xlink="http://www.w3.org/1999/xlink" x="0px" y="0px"
	 viewBox="0 0 1400 1100" style="enable-background:new 0 0 1400 1100;" xml:space="preserve">
<style type="text/css">
	.st0{fill:#FFFFFF;}
	.st1{fill:#033153;}
	.st2{fill:#E3E3E2;}
	.st3{fill:#F2931B;}
	.st4{fill:#CC710D;}
</style>
<rect y="0" class="st0" width="1400" height="1100"/>
<title>clock</title>
<g>
	<rect x="267" y="840.6" class="st1" width="866" height="23.3"/>
	<rect x="304.7" y="236.1" class="st2" width="780.3" height="604.5"/>
	<rect x="671.2" y="647.5" class="st3" width="348.9" height="193.1"/>
	<rect x="694.1" y="669.8" class="st0" width="217.7" height="139.5"/>
	<rect x="937" y="707.1" class="st4" width="66.5" height="133.5"/>
	<polygon class="st3" points="1041.3,638.5 650,638.5 671.2,604.1 1020.1,604.1 	"/>
	<rect x="353.6" y="470.5" class="st0" width="240.6" height="94.5"/>
	<rect x="353.6" y="311.3" class="st0" width="240.6" height="94.5"/>
	<rect x="779.4" y="470.5" class="st0" width="240.6" height="94.5"/>
	<rect x="779.4" y="311.3" class="st0" width="240.6" height="94.5"/>
	<rect x="353.6" y="624.5" class="st0" width="240.6" height="94.5"/>
	<g>
		<circle class="st1" cx="792.4" cy="792" r="9.4"/>
		<circle class="st1" cx="845.5" cy="792" r="9.4"/>
		<path class="st1" d="M890.2,707.9c-0.4-0.6-1.1-1-1.9-1H752.5l-4.9-15.3c-0.3-1-1.2-1.6-2.2-1.6h-27.7c-1.3,0-2.3,1-2.3,2.3
			c0,1.3,1,2.3,2.3,2.3h26l4.9,15.3l21.2,65.8c0.3,1,1.2,1.6,2.2,1.6c0.1,0,0.1,0,0.2,0l98-9.3c0.9-0.1,1.7-0.7,2-1.6l18.2-56.4
			C890.7,709.3,890.6,708.5,890.2,707.9z M874.8,743.4L766,749l-8-24.8h123L874.8,743.4z M868.3,763.6l-94.6,9l-7.1-22l107.7-5.5
			L868.3,763.6z M881.6,722.5H757.5l-3.5-10.9h131.1L881.6,722.5z"/>
	</g>
</g>
</svg>
