<?xml version="1.0" encoding="utf-8"?>
<!-- Generator: Adobe Illustrator 23.0.2, SVG Export Plug-In . SVG Version: 6.00 Build 0)  -->
<svg version="1.1" id="Ebene_1" xmlns="http://www.w3.org/2000/svg" xmlns:xlink="http://www.w3.org/1999/xlink" x="0px" y="0px"
	 viewBox="0 0 1400 1100" style="enable-background:new 0 0 1400 1100;" xml:space="preserve">
<style type="text/css">
	.st0{fill:#FFFFFF;}
	.st1{fill:#033153;}
	.st2{fill:#D1D3D4;}
	.st3{fill:#E3E3E2;}
	.st4{fill:#F2931B;}
</style>
<rect y="0" class="st0" width="1400" height="1100"/>
<title>clock</title>
<g>
	<rect x="267" y="925.1" class="st1" width="866" height="23.3"/>
	<polygon class="st2" points="1101.8,469.4 1024.8,151.6 375.2,151.6 298.2,469.4 375.2,469.4 375.2,469.3 1024.8,469.3 
		1024.8,469.4 	"/>
	<rect x="298.2" y="469.3" class="st3" width="803.6" height="455.7"/>
	<polygon class="st3" points="700,200 388.1,469.3 1011.9,469.3 	"/>
	<path class="st4" d="M913.8,446H808.4v0c-5.3,0.2-10,3.9-11.2,9.3l-32.3,136.2c-9.9-1.8-20.2-2.8-30.6-2.8
		c-52.1,0-98.7,23.8-129.5,61h-78.8c-6.7,0-12.1,5.4-12.1,12.1v4.8v7.3v162c-22.3,2.5-39.7,21.4-39.7,44.4c0,24.6,20,44.7,44.7,44.7
		c24.6,0,44.7-20,44.7-44.7c0-20.5-13.9-37.8-32.7-43V676.7h55.7c-13,23.9-20.4,51.2-20.4,80.2c0,92.7,75.4,168.1,168.1,168.1
		c92.7,0,168.1-75.4,168.1-168.1c0-72.7-46.4-134.8-111.2-158.2L820.5,473h48.1v0h45.2c6.7,0,12.1-6,12.1-13.5S920.5,446,913.8,446z
		 M609.7,676.7h37.2l64.2,64.2c-2.3,3.3-3.9,7-4.6,11.1H586.1C587,724.3,595.5,698.5,609.7,676.7z M586.1,761.9h120.4
		c0.7,4.1,2.3,7.8,4.6,11.1L626,858.1C602.3,832.7,587.3,799,586.1,761.9z M729.2,905c-37.1-1.2-70.8-16.2-96.2-39.9l85.1-85.1
		c3.3,2.3,7,3.9,11.1,4.6V905z M729.2,729.2c-4.1,0.7-7.8,2.3-11.1,4.6L661,676.7h68.2V729.2z M729.2,649.8h-95.1l-1.1-1.1
		c25.4-23.7,59.1-38.7,96.2-39.9V649.8z M739.2,608.8c7.1,0.2,14.2,1,21,2.2l-5,20.9c-2,8.4-8.2,14.7-16.1,17V608.8z M739.2,905
		V784.6c4.1-0.7,7.8-2.3,11.1-4.6l85.1,85.1C810,888.9,776.3,903.8,739.2,905z M842.4,858.1L757.3,773c2.3-3.3,3.9-7,4.6-11.1h120.4
		C881,799,866.1,832.7,842.4,858.1z M882.3,752H761.9c-0.7-4.1-2.3-7.8-4.6-11.1l85.1-85.1C866.1,681.2,881,714.8,882.3,752z
		 M835.3,648.7l-85.1,85.1c-3.3-2.3-7-3.9-11.1-4.6v-52.5h1.7c18.8,0,35-12.8,39.3-31.1l6.4-27.3
		C804.8,625.2,821.3,635.6,835.3,648.7z"/>
</g>
</svg>
