<?xml version="1.0" encoding="utf-8"?>
<!-- Generator: Adobe Illustrator 23.0.2, SVG Export Plug-In . SVG Version: 6.00 Build 0)  -->
<svg version="1.1" xmlns="http://www.w3.org/2000/svg" xmlns:xlink="http://www.w3.org/1999/xlink" x="0px" y="0px"
	 viewBox="0 0 1400 1100" style="enable-background:new 0 0 1400 1100;" xml:space="preserve">
<style type="text/css">
	.st0{fill:#1B4691;}
	.st1{display:none;}
	.st2{display:inline;fill:#FFFFFF;}
	.st3{fill:#FFFFFF;}
	.st4{fill:#A7A9AC;}
	.st5{fill:#E3E3E2;}
	.st6{fill:#033153;}
	.st7{fill:#D1D3D4;}
	.st8{fill:#F2931B;}
	.st9{fill:#00A201;}
</style>
<g id="Ebene_1">
	<rect class="st0" width="1400" height="1100"/>
	<g class="st1">
		<path class="st2" d="M207.3,163.7L207.3,163.7c-1.5-2.7-5-3.6-7.6-2l-18.4,10.6l-32.4-18.7l32.4-18.7l18.4,10.6
			c2.7,1.5,6.1,0.6,7.6-2c1.5-2.7,0.6-6.1-2-7.6l-12.8-7.4l11.9-6.9c2.7-1.5,3.6-5,2-7.6v0c-1.5-2.7-5-3.6-7.6-2l-11.9,6.9V104
			c0-3.1-2.5-5.6-5.6-5.6l0,0c-3.1,0-5.6,2.5-5.6,5.6v21.2l-32.4,18.7v-37.4l18.4-10.6c2.7-1.5,3.6-5,2-7.6v0c-1.5-2.7-5-3.6-7.6-2
			l-12.8,7.4V79.9c0-3.1-2.5-5.6-5.6-5.6l0,0c-3.1,0-5.6,2.5-5.6,5.6v13.7l-12.8-7.4c-2.7-1.5-6.1-0.6-7.6,2v0
			c-1.5,2.7-0.6,6.1,2,7.6l18.4,10.6v37.4l-32.4-18.7V104c0-3.1-2.5-5.6-5.6-5.6c-3.1,0-5.6,2.5-5.6,5.6v14.7l-11.9-6.9
			c-2.7-1.5-6.1-0.6-7.6,2v0c-1.5,2.7-0.6,6.1,2,7.6l11.9,6.9l-12.8,7.4c-2.7,1.5-3.6,5-2,7.6c1.5,2.7,5,3.6,7.6,2l18.4-10.6
			l32.4,18.7l-32.4,18.7l-18.4-10.6c-2.7-1.5-6.1-0.6-7.6,2v0c-1.5,2.7-0.6,6.1,2,7.6l12.8,7.4l-11.9,6.9c-2.7,1.5-3.6,5-2,7.6v0
			c1.5,2.7,5,3.6,7.6,2l11.9-6.9v14.7c0,3.1,2.5,5.6,5.6,5.6c3.1,0,5.6-2.5,5.6-5.6v-21.2l32.4-18.7v37.4l-18.4,10.6
			c-2.7,1.5-3.6,5-2,7.6c1.5,2.7,5,3.6,7.6,2l12.8-7.4v13.7c0,3.1,2.5,5.6,5.6,5.6l0,0c3.1,0,5.6-2.5,5.6-5.6v-13.7l12.8,7.4
			c2.7,1.5,6.1,0.6,7.6-2c1.5-2.7,0.6-6.1-2-7.6l-18.4-10.6v-37.4l32.4,18.7v21.2c0,3.1,2.5,5.6,5.6,5.6l0,0c3.1,0,5.6-2.5,5.6-5.6
			v-14.7l11.9,6.9c2.7,1.5,6.1,0.6,7.6-2v0c1.5-2.7,0.6-6.1-2-7.6l-11.9-6.9l12.8-7.4C207.9,169.8,208.8,166.4,207.3,163.7z"/>
		<path class="st2" d="M488.4,163.7L488.4,163.7c-1.5-2.7-5-3.6-7.6-2l-18.4,10.6L430,153.6l32.4-18.7l18.4,10.6
			c2.7,1.5,6.1,0.6,7.6-2c1.5-2.7,0.6-6.1-2-7.6l-12.8-7.4l11.9-6.9c2.7-1.5,3.6-5,2-7.6v0c-1.5-2.7-5-3.6-7.6-2l-11.9,6.9V104
			c0-3.1-2.5-5.6-5.6-5.6l0,0c-3.1,0-5.6,2.5-5.6,5.6v21.2l-32.4,18.7v-37.4l18.4-10.6c2.7-1.5,3.6-5,2-7.6v0c-1.5-2.7-5-3.6-7.6-2
			l-12.8,7.4V79.9c0-3.1-2.5-5.6-5.6-5.6l0,0c-3.1,0-5.6,2.5-5.6,5.6v13.7l-12.8-7.4c-2.7-1.5-6.1-0.6-7.6,2v0
			c-1.5,2.7-0.6,6.1,2,7.6l18.4,10.6v37.4l-32.4-18.7V104c0-3.1-2.5-5.6-5.6-5.6c-3.1,0-5.6,2.5-5.6,5.6v14.7l-11.9-6.9
			c-2.7-1.5-6.1-0.6-7.6,2v0c-1.5,2.7-0.6,6.1,2,7.6l11.9,6.9l-12.8,7.4c-2.7,1.5-3.6,5-2,7.6c1.5,2.7,5,3.6,7.6,2l18.4-10.6
			l32.4,18.7l-32.4,18.7L357,161.7c-2.7-1.5-6.1-0.6-7.6,2v0c-1.5,2.7-0.6,6.1,2,7.6l12.8,7.4l-11.9,6.9c-2.7,1.5-3.6,5-2,7.6v0
			c1.5,2.7,5,3.6,7.6,2l11.9-6.9v14.7c0,3.1,2.5,5.6,5.6,5.6c3.1,0,5.6-2.5,5.6-5.6v-21.2l32.4-18.7v37.4l-18.4,10.6
			c-2.7,1.5-3.6,5-2,7.6c1.5,2.7,5,3.6,7.6,2l12.8-7.4v13.7c0,3.1,2.5,5.6,5.6,5.6l0,0c3.1,0,5.6-2.5,5.6-5.6v-13.7l12.8,7.4
			c2.7,1.5,6.1,0.6,7.6-2c1.5-2.7,0.6-6.1-2-7.6l-18.4-10.6v-37.4l32.4,18.7v21.2c0,3.1,2.5,5.6,5.6,5.6l0,0c3.1,0,5.6-2.5,5.6-5.6
			v-14.7l11.9,6.9c2.7,1.5,6.1,0.6,7.6-2v0c1.5-2.7,0.6-6.1-2-7.6l-11.9-6.9l12.8-7.4C489,169.8,489.9,166.4,488.4,163.7z"/>
		<path class="st2" d="M769.5,163.7L769.5,163.7c-1.5-2.7-5-3.6-7.6-2l-18.4,10.6l-32.4-18.7l32.4-18.7l18.4,10.6
			c2.7,1.5,6.1,0.6,7.6-2c1.5-2.7,0.6-6.1-2-7.6l-12.8-7.4l11.9-6.9c2.7-1.5,3.6-5,2-7.6v0c-1.5-2.7-5-3.6-7.6-2l-11.9,6.9V104
			c0-3.1-2.5-5.6-5.6-5.6l0,0c-3.1,0-5.6,2.5-5.6,5.6v21.2l-32.4,18.7v-37.4l18.4-10.6c2.7-1.5,3.6-5,2-7.6v0c-1.5-2.7-5-3.6-7.6-2
			l-12.8,7.4V79.9c0-3.1-2.5-5.6-5.6-5.6l0,0c-3.1,0-5.6,2.5-5.6,5.6v13.7l-12.8-7.4c-2.7-1.5-6.1-0.6-7.6,2v0
			c-1.5,2.7-0.6,6.1,2,7.6l18.4,10.6v37.4L662,125.2V104c0-3.1-2.5-5.6-5.6-5.6s-5.6,2.5-5.6,5.6v14.7l-11.9-6.9
			c-2.7-1.5-6.1-0.6-7.6,2v0c-1.5,2.7-0.6,6.1,2,7.6l11.9,6.9l-12.8,7.4c-2.7,1.5-3.6,5-2,7.6c1.5,2.7,5,3.6,7.6,2l18.4-10.6
			l32.4,18.7l-32.4,18.7l-18.4-10.6c-2.7-1.5-6.1-0.6-7.6,2v0c-1.5,2.7-0.6,6.1,2,7.6l12.8,7.4l-11.9,6.9c-2.7,1.5-3.6,5-2,7.6v0
			c1.5,2.7,5,3.6,7.6,2l11.9-6.9v14.7c0,3.1,2.5,5.6,5.6,5.6s5.6-2.5,5.6-5.6v-21.2l32.4-18.7v37.4l-18.4,10.6c-2.7,1.5-3.6,5-2,7.6
			c1.5,2.7,5,3.6,7.6,2l12.8-7.4v13.7c0,3.1,2.5,5.6,5.6,5.6l0,0c3.1,0,5.6-2.5,5.6-5.6v-13.7l12.8,7.4c2.7,1.5,6.1,0.6,7.6-2
			c1.5-2.7,0.6-6.1-2-7.6l-18.4-10.6v-37.4l32.4,18.7v21.2c0,3.1,2.5,5.6,5.6,5.6l0,0c3.1,0,5.6-2.5,5.6-5.6v-14.7l11.9,6.9
			c2.7,1.5,6.1,0.6,7.6-2v0c1.5-2.7,0.6-6.1-2-7.6l-11.9-6.9l12.8-7.4C770.2,169.8,771.1,166.4,769.5,163.7z"/>
		<path class="st2" d="M1050.7,163.7L1050.7,163.7c-1.5-2.7-5-3.6-7.6-2l-18.4,10.6l-32.4-18.7l32.4-18.7l18.4,10.6
			c2.7,1.5,6.1,0.6,7.6-2c1.5-2.7,0.6-6.1-2-7.6l-12.8-7.4l11.9-6.9c2.7-1.5,3.6-5,2-7.6v0c-1.5-2.7-5-3.6-7.6-2l-11.9,6.9V104
			c0-3.1-2.5-5.6-5.6-5.6l0,0c-3.1,0-5.6,2.5-5.6,5.6v21.2l-32.4,18.7v-37.4l18.4-10.6c2.7-1.5,3.6-5,2-7.6v0c-1.5-2.7-5-3.6-7.6-2
			l-12.8,7.4V79.9c0-3.1-2.5-5.6-5.6-5.6l0,0c-3.1,0-5.6,2.5-5.6,5.6v13.7l-12.8-7.4c-2.7-1.5-6.1-0.6-7.6,2v0
			c-1.5,2.7-0.6,6.1,2,7.6l18.4,10.6v37.4l-32.4-18.7V104c0-3.1-2.5-5.6-5.6-5.6s-5.6,2.5-5.6,5.6v14.7l-11.9-6.9
			c-2.7-1.5-6.1-0.6-7.6,2v0c-1.5,2.7-0.6,6.1,2,7.6l11.9,6.9l-12.8,7.4c-2.7,1.5-3.6,5-2,7.6c1.5,2.7,5,3.6,7.6,2l18.4-10.6
			l32.4,18.7l-32.4,18.7l-18.4-10.6c-2.7-1.5-6.1-0.6-7.6,2v0c-1.5,2.7-0.6,6.1,2,7.6l12.8,7.4l-11.9,6.9c-2.7,1.5-3.6,5-2,7.6v0
			c1.5,2.7,5,3.6,7.6,2l11.9-6.9v14.7c0,3.1,2.5,5.6,5.6,5.6s5.6-2.5,5.6-5.6v-21.2l32.4-18.7v37.4l-18.4,10.6c-2.7,1.5-3.6,5-2,7.6
			c1.5,2.7,5,3.6,7.6,2l12.8-7.4v13.7c0,3.1,2.5,5.6,5.6,5.6l0,0c3.1,0,5.6-2.5,5.6-5.6v-13.7l12.8,7.4c2.7,1.5,6.1,0.6,7.6-2
			c1.5-2.7,0.6-6.1-2-7.6l-18.4-10.6v-37.4l32.4,18.7v21.2c0,3.1,2.5,5.6,5.6,5.6l0,0c3.1,0,5.6-2.5,5.6-5.6v-14.7l11.9,6.9
			c2.7,1.5,6.1,0.6,7.6-2v0c1.5-2.7,0.6-6.1-2-7.6l-11.9-6.9l12.8-7.4C1051.3,169.8,1052.2,166.4,1050.7,163.7z"/>
		<path class="st2" d="M1331.8,163.7L1331.8,163.7c-1.5-2.7-5-3.6-7.6-2l-18.4,10.6l-32.4-18.7l32.4-18.7l18.4,10.6
			c2.7,1.5,6.1,0.6,7.6-2c1.5-2.7,0.6-6.1-2-7.6l-12.8-7.4l11.9-6.9c2.7-1.5,3.6-5,2-7.6v0c-1.5-2.7-5-3.6-7.6-2l-11.9,6.9V104
			c0-3.1-2.5-5.6-5.6-5.6l0,0c-3.1,0-5.6,2.5-5.6,5.6v21.2l-32.4,18.7v-37.4l18.4-10.6c2.7-1.5,3.6-5,2-7.6v0c-1.5-2.7-5-3.6-7.6-2
			l-12.8,7.4V79.9c0-3.1-2.5-5.6-5.6-5.6l0,0c-3.1,0-5.6,2.5-5.6,5.6v13.7l-12.8-7.4c-2.7-1.5-6.1-0.6-7.6,2v0
			c-1.5,2.7-0.6,6.1,2,7.6l18.4,10.6v37.4l-32.4-18.7V104c0-3.1-2.5-5.6-5.6-5.6s-5.6,2.5-5.6,5.6v14.7l-11.9-6.9
			c-2.7-1.5-6.1-0.6-7.6,2v0c-1.5,2.7-0.6,6.1,2,7.6l11.9,6.9l-12.8,7.4c-2.7,1.5-3.6,5-2,7.6c1.5,2.7,5,3.6,7.6,2l18.4-10.6
			l32.4,18.7l-32.4,18.7l-18.4-10.6c-2.7-1.5-6.1-0.6-7.6,2v0c-1.5,2.7-0.6,6.1,2,7.6l12.8,7.4l-11.9,6.9c-2.7,1.5-3.6,5-2,7.6v0
			c1.5,2.7,5,3.6,7.6,2l11.9-6.9v14.7c0,3.1,2.5,5.6,5.6,5.6s5.6-2.5,5.6-5.6v-21.2l32.4-18.7v37.4l-18.4,10.6c-2.7,1.5-3.6,5-2,7.6
			c1.5,2.7,5,3.6,7.6,2l12.8-7.4v13.7c0,3.1,2.5,5.6,5.6,5.6l0,0c3.1,0,5.6-2.5,5.6-5.6v-13.7l12.8,7.4c2.7,1.5,6.1,0.6,7.6-2
			c1.5-2.7,0.6-6.1-2-7.6l-18.4-10.6v-37.4l32.4,18.7v21.2c0,3.1,2.5,5.6,5.6,5.6l0,0c3.1,0,5.6-2.5,5.6-5.6v-14.7l11.9,6.9
			c2.7,1.5,6.1,0.6,7.6-2v0c1.5-2.7,0.6-6.1-2-7.6l-11.9-6.9l12.8-7.4C1332.4,169.8,1333.3,166.4,1331.8,163.7z"/>
		<path class="st2" d="M347.8,322.3L347.8,322.3c-1.5-2.7-5-3.6-7.6-2l-18.4,10.6l-32.4-18.7l32.4-18.7l18.4,10.6
			c2.7,1.5,6.1,0.6,7.6-2s0.6-6.1-2-7.6L333,287l11.9-6.9c2.7-1.5,3.6-5,2-7.6l0,0c-1.5-2.7-5-3.6-7.6-2l-11.9,6.9v-14.7
			c0-3.1-2.5-5.6-5.6-5.6l0,0c-3.1,0-5.6,2.5-5.6,5.6v21.2l-32.4,18.7v-37.4l18.4-10.6c2.7-1.5,3.6-5,2-7.6v0c-1.5-2.7-5-3.6-7.6-2
			l-12.8,7.4v-13.7c0-3.1-2.5-5.6-5.6-5.6l0,0c-3.1,0-5.6,2.5-5.6,5.6v13.7l-12.8-7.4c-2.7-1.5-6.1-0.6-7.6,2v0
			c-1.5,2.7-0.6,6.1,2,7.6l18.4,10.6v37.4l-32.4-18.7v-21.2c0-3.1-2.5-5.6-5.6-5.6c-3.1,0-5.6,2.5-5.6,5.6v14.7l-11.9-6.9
			c-2.7-1.5-6.1-0.6-7.6,2l0,0c-1.5,2.7-0.6,6.1,2,7.6l11.9,6.9l-12.8,7.4c-2.7,1.5-3.6,5-2,7.6c1.5,2.7,5,3.6,7.6,2l18.4-10.6
			l32.4,18.7l-32.4,18.7l-18.4-10.6c-2.7-1.5-6.1-0.6-7.6,2v0c-1.5,2.7-0.6,6.1,2,7.6l12.8,7.4l-11.9,6.9c-2.7,1.5-3.6,5-2,7.6v0
			c1.5,2.7,5,3.6,7.6,2l11.9-6.9v14.7c0,3.1,2.5,5.6,5.6,5.6c3.1,0,5.6-2.5,5.6-5.6v-21.2l32.4-18.7v37.4l-18.4,10.6
			c-2.7,1.5-3.6,5-2,7.6c1.5,2.7,5,3.6,7.6,2l12.8-7.4v13.7c0,3.1,2.5,5.6,5.6,5.6l0,0c3.1,0,5.6-2.5,5.6-5.6v-13.7l12.8,7.4
			c2.7,1.5,6.1,0.6,7.6-2c1.5-2.7,0.6-6.1-2-7.6l-18.4-10.6v-37.4l32.4,18.7v21.2c0,3.1,2.5,5.6,5.6,5.6l0,0c3.1,0,5.6-2.5,5.6-5.6
			V347l11.9,6.9c2.7,1.5,6.1,0.6,7.6-2v0c1.5-2.7,0.6-6.1-2-7.6l-11.9-6.9l12.8-7.4C348.5,328.4,349.4,324.9,347.8,322.3z"/>
		<path class="st2" d="M629,322.3L629,322.3c-1.5-2.7-5-3.6-7.6-2L603,330.8l-32.4-18.7l32.4-18.7l18.4,10.6c2.7,1.5,6.1,0.6,7.6-2
			s0.6-6.1-2-7.6l-12.8-7.4l11.9-6.9c2.7-1.5,3.6-5,2-7.6l0,0c-1.5-2.7-5-3.6-7.6-2l-11.9,6.9v-14.7c0-3.1-2.5-5.6-5.6-5.6l0,0
			c-3.1,0-5.6,2.5-5.6,5.6v21.2L565,302.5v-37.4l18.4-10.6c2.7-1.5,3.6-5,2-7.6v0c-1.5-2.7-5-3.6-7.6-2l-12.8,7.4v-13.7
			c0-3.1-2.5-5.6-5.6-5.6l0,0c-3.1,0-5.6,2.5-5.6,5.6v13.7l-12.8-7.4c-2.7-1.5-6.1-0.6-7.6,2v0c-1.5,2.7-0.6,6.1,2,7.6l18.4,10.6
			v37.4l-32.4-18.7v-21.2c0-3.1-2.5-5.6-5.6-5.6c-3.1,0-5.6,2.5-5.6,5.6v14.7l-11.9-6.9c-2.7-1.5-6.1-0.6-7.6,2l0,0
			c-1.5,2.7-0.6,6.1,2,7.6l11.9,6.9l-12.8,7.4c-2.7,1.5-3.6,5-2,7.6s5,3.6,7.6,2l18.4-10.6l32.4,18.7l-32.4,18.7l-18.4-10.6
			c-2.7-1.5-6.1-0.6-7.6,2v0c-1.5,2.7-0.6,6.1,2,7.6l12.8,7.4l-11.9,6.9c-2.7,1.5-3.6,5-2,7.6v0c1.5,2.7,5,3.6,7.6,2l11.9-6.9v14.7
			c0,3.1,2.5,5.6,5.6,5.6c3.1,0,5.6-2.5,5.6-5.6v-21.2l32.4-18.7v37.4l-18.4,10.6c-2.7,1.5-3.6,5-2,7.6c1.5,2.7,5,3.6,7.6,2
			l12.8-7.4v13.7c0,3.1,2.5,5.6,5.6,5.6l0,0c3.1,0,5.6-2.5,5.6-5.6v-13.7l12.8,7.4c2.7,1.5,6.1,0.6,7.6-2c1.5-2.7,0.6-6.1-2-7.6
			L565,359.2v-37.4l32.4,18.7v21.2c0,3.1,2.5,5.6,5.6,5.6l0,0c3.1,0,5.6-2.5,5.6-5.6V347l11.9,6.9c2.7,1.5,6.1,0.6,7.6-2v0
			c1.5-2.7,0.6-6.1-2-7.6l-11.9-6.9l12.8-7.4C629.6,328.4,630.5,324.9,629,322.3z"/>
		<path class="st2" d="M910.1,322.3L910.1,322.3c-1.5-2.7-5-3.6-7.6-2l-18.4,10.6l-32.4-18.7l32.4-18.7l18.4,10.6
			c2.7,1.5,6.1,0.6,7.6-2s0.6-6.1-2-7.6l-12.8-7.4l11.9-6.9c2.7-1.5,3.6-5,2-7.6l0,0c-1.5-2.7-5-3.6-7.6-2l-11.9,6.9v-14.7
			c0-3.1-2.5-5.6-5.6-5.6l0,0c-3.1,0-5.6,2.5-5.6,5.6v21.2l-32.4,18.7v-37.4l18.4-10.6c2.7-1.5,3.6-5,2-7.6v0c-1.5-2.7-5-3.6-7.6-2
			l-12.8,7.4v-13.7c0-3.1-2.5-5.6-5.6-5.6l0,0c-3.1,0-5.6,2.5-5.6,5.6v13.7l-12.8-7.4c-2.7-1.5-6.1-0.6-7.6,2v0
			c-1.5,2.7-0.6,6.1,2,7.6l18.4,10.6v37.4l-32.4-18.7v-21.2c0-3.1-2.5-5.6-5.6-5.6c-3.1,0-5.6,2.5-5.6,5.6v14.7l-11.9-6.9
			c-2.7-1.5-6.1-0.6-7.6,2l0,0c-1.5,2.7-0.6,6.1,2,7.6l11.9,6.9l-12.8,7.4c-2.7,1.5-3.6,5-2,7.6s5,3.6,7.6,2l18.4-10.6l32.4,18.7
			L797,330.8l-18.4-10.6c-2.7-1.5-6.1-0.6-7.6,2v0c-1.5,2.7-0.6,6.1,2,7.6l12.8,7.4l-11.9,6.9c-2.7,1.5-3.6,5-2,7.6v0
			c1.5,2.7,5,3.6,7.6,2l11.9-6.9v14.7c0,3.1,2.5,5.6,5.6,5.6c3.1,0,5.6-2.5,5.6-5.6v-21.2l32.4-18.7v37.4l-18.4,10.6
			c-2.7,1.5-3.6,5-2,7.6c1.5,2.7,5,3.6,7.6,2l12.8-7.4v13.7c0,3.1,2.5,5.6,5.6,5.6l0,0c3.1,0,5.6-2.5,5.6-5.6v-13.7l12.8,7.4
			c2.7,1.5,6.1,0.6,7.6-2c1.5-2.7,0.6-6.1-2-7.6l-18.4-10.6v-37.4l32.4,18.7v21.2c0,3.1,2.5,5.6,5.6,5.6l0,0c3.1,0,5.6-2.5,5.6-5.6
			V347l11.9,6.9c2.7,1.5,6.1,0.6,7.6-2v0c1.5-2.7,0.6-6.1-2-7.6l-11.9-6.9l12.8-7.4C910.7,328.4,911.6,324.9,910.1,322.3z"/>
		<path class="st2" d="M1191.2,322.3L1191.2,322.3c-1.5-2.7-5-3.6-7.6-2l-18.4,10.6l-32.4-18.7l32.4-18.7l18.4,10.6
			c2.7,1.5,6.1,0.6,7.6-2c1.5-2.7,0.6-6.1-2-7.6l-12.8-7.4l11.9-6.9c2.7-1.5,3.6-5,2-7.6l0,0c-1.5-2.7-5-3.6-7.6-2l-11.9,6.9v-14.7
			c0-3.1-2.5-5.6-5.6-5.6l0,0c-3.1,0-5.6,2.5-5.6,5.6v21.2l-32.4,18.7v-37.4l18.4-10.6c2.7-1.5,3.6-5,2-7.6v0c-1.5-2.7-5-3.6-7.6-2
			l-12.8,7.4v-13.7c0-3.1-2.5-5.6-5.6-5.6l0,0c-3.1,0-5.6,2.5-5.6,5.6v13.7l-12.8-7.4c-2.7-1.5-6.1-0.6-7.6,2v0
			c-1.5,2.7-0.6,6.1,2,7.6l18.4,10.6v37.4l-32.4-18.7v-21.2c0-3.1-2.5-5.6-5.6-5.6s-5.6,2.5-5.6,5.6v14.7l-11.9-6.9
			c-2.7-1.5-6.1-0.6-7.6,2l0,0c-1.5,2.7-0.6,6.1,2,7.6l11.9,6.9l-12.8,7.4c-2.7,1.5-3.6,5-2,7.6c1.5,2.7,5,3.6,7.6,2l18.4-10.6
			l32.4,18.7l-32.4,18.7l-18.4-10.6c-2.7-1.5-6.1-0.6-7.6,2v0c-1.5,2.7-0.6,6.1,2,7.6l12.8,7.4l-11.9,6.9c-2.7,1.5-3.6,5-2,7.6v0
			c1.5,2.7,5,3.6,7.6,2l11.9-6.9v14.7c0,3.1,2.5,5.6,5.6,5.6s5.6-2.5,5.6-5.6v-21.2l32.4-18.7v37.4l-18.4,10.6c-2.7,1.5-3.6,5-2,7.6
			c1.5,2.7,5,3.6,7.6,2l12.8-7.4v13.7c0,3.1,2.5,5.6,5.6,5.6l0,0c3.1,0,5.6-2.5,5.6-5.6v-13.7l12.8,7.4c2.7,1.5,6.1,0.6,7.6-2
			c1.5-2.7,0.6-6.1-2-7.6l-18.4-10.6v-37.4l32.4,18.7v21.2c0,3.1,2.5,5.6,5.6,5.6l0,0c3.1,0,5.6-2.5,5.6-5.6V347l11.9,6.9
			c2.7,1.5,6.1,0.6,7.6-2v0c1.5-2.7,0.6-6.1-2-7.6l-11.9-6.9l12.8-7.4C1191.9,328.4,1192.8,324.9,1191.2,322.3z"/>
		<path class="st2" d="M207.3,480.8L207.3,480.8c-1.5-2.7-5-3.6-7.6-2l-18.4,10.6l-32.4-18.7l32.4-18.7l18.4,10.6
			c2.7,1.5,6.1,0.6,7.6-2c1.5-2.7,0.6-6.1-2-7.6l-12.8-7.4l11.9-6.9c2.7-1.5,3.6-5,2-7.6v0c-1.5-2.7-5-3.6-7.6-2l-11.9,6.9v-14.7
			c0-3.1-2.5-5.6-5.6-5.6l0,0c-3.1,0-5.6,2.5-5.6,5.6v21.2L143.3,461v-37.4l18.4-10.6c2.7-1.5,3.6-5,2-7.6l0,0c-1.5-2.7-5-3.6-7.6-2
			l-12.8,7.4V397c0-3.1-2.5-5.6-5.6-5.6l0,0c-3.1,0-5.6,2.5-5.6,5.6v13.7l-12.8-7.4c-2.7-1.5-6.1-0.6-7.6,2l0,0
			c-1.5,2.7-0.6,6.1,2,7.6l18.4,10.6V461l-32.4-18.7v-21.2c0-3.1-2.5-5.6-5.6-5.6c-3.1,0-5.6,2.5-5.6,5.6v14.7L76.7,429
			c-2.7-1.5-6.1-0.6-7.6,2v0c-1.5,2.7-0.6,6.1,2,7.6l11.9,6.9l-12.8,7.4c-2.7,1.5-3.6,5-2,7.6c1.5,2.7,5,3.6,7.6,2L94.2,452
			l32.4,18.7l-32.4,18.7l-18.4-10.6c-2.7-1.5-6.1-0.6-7.6,2l0,0c-1.5,2.7-0.6,6.1,2,7.6l12.8,7.4l-11.9,6.9c-2.7,1.5-3.6,5-2,7.6
			l0,0c1.5,2.7,5,3.6,7.6,2l11.9-6.9v14.7c0,3.1,2.5,5.6,5.6,5.6c3.1,0,5.6-2.5,5.6-5.6v-21.2l32.4-18.7v37.4l-18.4,10.6
			c-2.7,1.5-3.6,5-2,7.6c1.5,2.7,5,3.6,7.6,2l12.8-7.4v13.7c0,3.1,2.5,5.6,5.6,5.6l0,0c3.1,0,5.6-2.5,5.6-5.6v-13.7l12.8,7.4
			c2.7,1.5,6.1,0.6,7.6-2c1.5-2.7,0.6-6.1-2-7.6l-18.4-10.6v-37.4l32.4,18.7v21.2c0,3.1,2.5,5.6,5.6,5.6l0,0c3.1,0,5.6-2.5,5.6-5.6
			v-14.7l11.9,6.9c2.7,1.5,6.1,0.6,7.6-2l0,0c1.5-2.7,0.6-6.1-2-7.6l-11.9-6.9l12.8-7.4C207.9,486.9,208.8,483.5,207.3,480.8z"/>
		<path class="st2" d="M488.4,480.8L488.4,480.8c-1.5-2.7-5-3.6-7.6-2l-18.4,10.6L430,470.7l32.4-18.7l18.4,10.6
			c2.7,1.5,6.1,0.6,7.6-2s0.6-6.1-2-7.6l-12.8-7.4l11.9-6.9c2.7-1.5,3.6-5,2-7.6v0c-1.5-2.7-5-3.6-7.6-2l-11.9,6.9v-14.7
			c0-3.1-2.5-5.6-5.6-5.6l0,0c-3.1,0-5.6,2.5-5.6,5.6v21.2L424.5,461v-37.4l18.4-10.6c2.7-1.5,3.6-5,2-7.6l0,0c-1.5-2.7-5-3.6-7.6-2
			l-12.8,7.4V397c0-3.1-2.5-5.6-5.6-5.6l0,0c-3.1,0-5.6,2.5-5.6,5.6v13.7l-12.8-7.4c-2.7-1.5-6.1-0.6-7.6,2l0,0
			c-1.5,2.7-0.6,6.1,2,7.6l18.4,10.6V461l-32.4-18.7v-21.2c0-3.1-2.5-5.6-5.6-5.6c-3.1,0-5.6,2.5-5.6,5.6v14.7l-11.9-6.9
			c-2.7-1.5-6.1-0.6-7.6,2v0c-1.5,2.7-0.6,6.1,2,7.6l11.9,6.9l-12.8,7.4c-2.7,1.5-3.6,5-2,7.6c1.5,2.7,5,3.6,7.6,2l18.4-10.6
			l32.4,18.7l-32.4,18.7L357,478.8c-2.7-1.5-6.1-0.6-7.6,2l0,0c-1.5,2.7-0.6,6.1,2,7.6l12.8,7.4l-11.9,6.9c-2.7,1.5-3.6,5-2,7.6l0,0
			c1.5,2.7,5,3.6,7.6,2l11.9-6.9v14.7c0,3.1,2.5,5.6,5.6,5.6c3.1,0,5.6-2.5,5.6-5.6v-21.2l32.4-18.7v37.4l-18.4,10.6
			c-2.7,1.5-3.6,5-2,7.6c1.5,2.7,5,3.6,7.6,2l12.8-7.4v13.7c0,3.1,2.5,5.6,5.6,5.6l0,0c3.1,0,5.6-2.5,5.6-5.6v-13.7l12.8,7.4
			c2.7,1.5,6.1,0.6,7.6-2c1.5-2.7,0.6-6.1-2-7.6l-18.4-10.6v-37.4l32.4,18.7v21.2c0,3.1,2.5,5.6,5.6,5.6l0,0c3.1,0,5.6-2.5,5.6-5.6
			v-14.7l11.9,6.9c2.7,1.5,6.1,0.6,7.6-2l0,0c1.5-2.7,0.6-6.1-2-7.6l-11.9-6.9l12.8-7.4C489,486.9,489.9,483.5,488.4,480.8z"/>
		<path class="st2" d="M769.5,480.8L769.5,480.8c-1.5-2.7-5-3.6-7.6-2l-18.4,10.6l-32.4-18.7l32.4-18.7l18.4,10.6
			c2.7,1.5,6.1,0.6,7.6-2s0.6-6.1-2-7.6l-12.8-7.4l11.9-6.9c2.7-1.5,3.6-5,2-7.6v0c-1.5-2.7-5-3.6-7.6-2l-11.9,6.9v-14.7
			c0-3.1-2.5-5.6-5.6-5.6l0,0c-3.1,0-5.6,2.5-5.6,5.6v21.2L705.6,461v-37.4l18.4-10.6c2.7-1.5,3.6-5,2-7.6l0,0c-1.5-2.7-5-3.6-7.6-2
			l-12.8,7.4V397c0-3.1-2.5-5.6-5.6-5.6l0,0c-3.1,0-5.6,2.5-5.6,5.6v13.7l-12.8-7.4c-2.7-1.5-6.1-0.6-7.6,2l0,0
			c-1.5,2.7-0.6,6.1,2,7.6l18.4,10.6V461L662,442.3v-21.2c0-3.1-2.5-5.6-5.6-5.6s-5.6,2.5-5.6,5.6v14.7L639,429
			c-2.7-1.5-6.1-0.6-7.6,2v0c-1.5,2.7-0.6,6.1,2,7.6l11.9,6.9l-12.8,7.4c-2.7,1.5-3.6,5-2,7.6s5,3.6,7.6,2l18.4-10.6l32.4,18.7
			l-32.4,18.7l-18.4-10.6c-2.7-1.5-6.1-0.6-7.6,2l0,0c-1.5,2.7-0.6,6.1,2,7.6l12.8,7.4l-11.9,6.9c-2.7,1.5-3.6,5-2,7.6l0,0
			c1.5,2.7,5,3.6,7.6,2l11.9-6.9v14.7c0,3.1,2.5,5.6,5.6,5.6s5.6-2.5,5.6-5.6v-21.2l32.4-18.7v37.4l-18.4,10.6c-2.7,1.5-3.6,5-2,7.6
			c1.5,2.7,5,3.6,7.6,2l12.8-7.4v13.7c0,3.1,2.5,5.6,5.6,5.6l0,0c3.1,0,5.6-2.5,5.6-5.6v-13.7l12.8,7.4c2.7,1.5,6.1,0.6,7.6-2
			c1.5-2.7,0.6-6.1-2-7.6l-18.4-10.6v-37.4l32.4,18.7v21.2c0,3.1,2.5,5.6,5.6,5.6l0,0c3.1,0,5.6-2.5,5.6-5.6v-14.7l11.9,6.9
			c2.7,1.5,6.1,0.6,7.6-2l0,0c1.5-2.7,0.6-6.1-2-7.6l-11.9-6.9l12.8-7.4C770.2,486.9,771.1,483.5,769.5,480.8z"/>
		<path class="st2" d="M1050.7,480.8L1050.7,480.8c-1.5-2.7-5-3.6-7.6-2l-18.4,10.6l-32.4-18.7l32.4-18.7l18.4,10.6
			c2.7,1.5,6.1,0.6,7.6-2c1.5-2.7,0.6-6.1-2-7.6l-12.8-7.4l11.9-6.9c2.7-1.5,3.6-5,2-7.6v0c-1.5-2.7-5-3.6-7.6-2l-11.9,6.9v-14.7
			c0-3.1-2.5-5.6-5.6-5.6l0,0c-3.1,0-5.6,2.5-5.6,5.6v21.2L986.7,461v-37.4l18.4-10.6c2.7-1.5,3.6-5,2-7.6l0,0c-1.5-2.7-5-3.6-7.6-2
			l-12.8,7.4V397c0-3.1-2.5-5.6-5.6-5.6l0,0c-3.1,0-5.6,2.5-5.6,5.6v13.7l-12.8-7.4c-2.7-1.5-6.1-0.6-7.6,2l0,0
			c-1.5,2.7-0.6,6.1,2,7.6l18.4,10.6V461l-32.4-18.7v-21.2c0-3.1-2.5-5.6-5.6-5.6s-5.6,2.5-5.6,5.6v14.7l-11.9-6.9
			c-2.7-1.5-6.1-0.6-7.6,2v0c-1.5,2.7-0.6,6.1,2,7.6l11.9,6.9l-12.8,7.4c-2.7,1.5-3.6,5-2,7.6s5,3.6,7.6,2l18.4-10.6l32.4,18.7
			l-32.4,18.7l-18.4-10.6c-2.7-1.5-6.1-0.6-7.6,2l0,0c-1.5,2.7-0.6,6.1,2,7.6l12.8,7.4l-11.9,6.9c-2.7,1.5-3.6,5-2,7.6l0,0
			c1.5,2.7,5,3.6,7.6,2l11.9-6.9v14.7c0,3.1,2.5,5.6,5.6,5.6s5.6-2.5,5.6-5.6v-21.2l32.4-18.7v37.4l-18.4,10.6c-2.7,1.5-3.6,5-2,7.6
			c1.5,2.7,5,3.6,7.6,2l12.8-7.4v13.7c0,3.1,2.5,5.6,5.6,5.6l0,0c3.1,0,5.6-2.5,5.6-5.6v-13.7l12.8,7.4c2.7,1.5,6.1,0.6,7.6-2
			c1.5-2.7,0.6-6.1-2-7.6l-18.4-10.6v-37.4l32.4,18.7v21.2c0,3.1,2.5,5.6,5.6,5.6l0,0c3.1,0,5.6-2.5,5.6-5.6v-14.7l11.9,6.9
			c2.7,1.5,6.1,0.6,7.6-2l0,0c1.5-2.7,0.6-6.1-2-7.6l-11.9-6.9l12.8-7.4C1051.3,486.9,1052.2,483.5,1050.7,480.8z"/>
		<path class="st2" d="M1331.8,480.8L1331.8,480.8c-1.5-2.7-5-3.6-7.6-2l-18.4,10.6l-32.4-18.7l32.4-18.7l18.4,10.6
			c2.7,1.5,6.1,0.6,7.6-2c1.5-2.7,0.6-6.1-2-7.6l-12.8-7.4l11.9-6.9c2.7-1.5,3.6-5,2-7.6v0c-1.5-2.7-5-3.6-7.6-2l-11.9,6.9v-14.7
			c0-3.1-2.5-5.6-5.6-5.6l0,0c-3.1,0-5.6,2.5-5.6,5.6v21.2l-32.4,18.7v-37.4l18.4-10.6c2.7-1.5,3.6-5,2-7.6l0,0
			c-1.5-2.7-5-3.6-7.6-2l-12.8,7.4V397c0-3.1-2.5-5.6-5.6-5.6l0,0c-3.1,0-5.6,2.5-5.6,5.6v13.7l-12.8-7.4c-2.7-1.5-6.1-0.6-7.6,2
			l0,0c-1.5,2.7-0.6,6.1,2,7.6l18.4,10.6V461l-32.4-18.7v-21.2c0-3.1-2.5-5.6-5.6-5.6s-5.6,2.5-5.6,5.6v14.7l-11.9-6.9
			c-2.7-1.5-6.1-0.6-7.6,2v0c-1.5,2.7-0.6,6.1,2,7.6l11.9,6.9l-12.8,7.4c-2.7,1.5-3.6,5-2,7.6s5,3.6,7.6,2l18.4-10.6l32.4,18.7
			l-32.4,18.7l-18.4-10.6c-2.7-1.5-6.1-0.6-7.6,2l0,0c-1.5,2.7-0.6,6.1,2,7.6l12.8,7.4l-11.9,6.9c-2.7,1.5-3.6,5-2,7.6l0,0
			c1.5,2.7,5,3.6,7.6,2l11.9-6.9v14.7c0,3.1,2.5,5.6,5.6,5.6s5.6-2.5,5.6-5.6v-21.2l32.4-18.7v37.4l-18.4,10.6c-2.7,1.5-3.6,5-2,7.6
			c1.5,2.7,5,3.6,7.6,2l12.8-7.4v13.7c0,3.1,2.5,5.6,5.6,5.6l0,0c3.1,0,5.6-2.5,5.6-5.6v-13.7l12.8,7.4c2.7,1.5,6.1,0.6,7.6-2
			c1.5-2.7,0.6-6.1-2-7.6l-18.4-10.6v-37.4l32.4,18.7v21.2c0,3.1,2.5,5.6,5.6,5.6l0,0c3.1,0,5.6-2.5,5.6-5.6v-14.7l11.9,6.9
			c2.7,1.5,6.1,0.6,7.6-2l0,0c1.5-2.7,0.6-6.1-2-7.6l-11.9-6.9l12.8-7.4C1332.4,486.9,1333.3,483.5,1331.8,480.8z"/>
		<path class="st2" d="M347.8,639.4L347.8,639.4c-1.5-2.7-5-3.6-7.6-2L321.8,648l-32.4-18.7l32.4-18.7l18.4,10.6
			c2.7,1.5,6.1,0.6,7.6-2c1.5-2.7,0.6-6.1-2-7.6l-12.8-7.4l11.9-6.9c2.7-1.5,3.6-5,2-7.6v0c-1.5-2.7-5-3.6-7.6-2l-11.9,6.9v-14.7
			c0-3.1-2.5-5.6-5.6-5.6l0,0c-3.1,0-5.6,2.5-5.6,5.6v21.2l-32.4,18.7v-37.4l18.4-10.6c2.7-1.5,3.6-5,2-7.6l0,0
			c-1.5-2.7-5-3.6-7.6-2l-12.8,7.4v-13.7c0-3.1-2.5-5.6-5.6-5.6l0,0c-3.1,0-5.6,2.5-5.6,5.6v13.7l-12.8-7.4c-2.7-1.5-6.1-0.6-7.6,2
			l0,0c-1.5,2.7-0.6,6.1,2,7.6l18.4,10.6v37.4l-32.4-18.7v-21.2c0-3.1-2.5-5.6-5.6-5.6c-3.1,0-5.6,2.5-5.6,5.6v14.7l-11.9-6.9
			c-2.7-1.5-6.1-0.6-7.6,2v0c-1.5,2.7-0.6,6.1,2,7.6l11.9,6.9l-12.8,7.4c-2.7,1.5-3.6,5-2,7.6c1.5,2.7,5,3.6,7.6,2l18.4-10.6
			l32.4,18.7L234.8,648l-18.4-10.6c-2.7-1.5-6.1-0.6-7.6,2l0,0c-1.5,2.7-0.6,6.1,2,7.6l12.8,7.4l-11.9,6.9c-2.7,1.5-3.6,5-2,7.6l0,0
			c1.5,2.7,5,3.6,7.6,2l11.9-6.9v14.7c0,3.1,2.5,5.6,5.6,5.6c3.1,0,5.6-2.5,5.6-5.6v-21.2l32.4-18.7v37.4l-18.4,10.6
			c-2.7,1.5-3.6,5-2,7.6c1.5,2.7,5,3.6,7.6,2l12.8-7.4V703c0,3.1,2.5,5.6,5.6,5.6l0,0c3.1,0,5.6-2.5,5.6-5.6v-13.7l12.8,7.4
			c2.7,1.5,6.1,0.6,7.6-2c1.5-2.7,0.6-6.1-2-7.6l-18.4-10.6V639l32.4,18.7v21.2c0,3.1,2.5,5.6,5.6,5.6l0,0c3.1,0,5.6-2.5,5.6-5.6
			v-14.7l11.9,6.9c2.7,1.5,6.1,0.6,7.6-2l0,0c1.5-2.7,0.6-6.1-2-7.6l-11.9-6.9l12.8-7.4C348.5,645.5,349.4,642.1,347.8,639.4z"/>
		<path class="st2" d="M629,639.4L629,639.4c-1.5-2.7-5-3.6-7.6-2L603,648l-32.4-18.7l32.4-18.7l18.4,10.6c2.7,1.5,6.1,0.6,7.6-2
			c1.5-2.7,0.6-6.1-2-7.6l-12.8-7.4l11.9-6.9c2.7-1.5,3.6-5,2-7.6v0c-1.5-2.7-5-3.6-7.6-2l-11.9,6.9v-14.7c0-3.1-2.5-5.6-5.6-5.6
			l0,0c-3.1,0-5.6,2.5-5.6,5.6v21.2L565,619.6v-37.4l18.4-10.6c2.7-1.5,3.6-5,2-7.6l0,0c-1.5-2.7-5-3.6-7.6-2l-12.8,7.4v-13.7
			c0-3.1-2.5-5.6-5.6-5.6l0,0c-3.1,0-5.6,2.5-5.6,5.6v13.7l-12.8-7.4c-2.7-1.5-6.1-0.6-7.6,2l0,0c-1.5,2.7-0.6,6.1,2,7.6l18.4,10.6
			v37.4l-32.4-18.7v-21.2c0-3.1-2.5-5.6-5.6-5.6c-3.1,0-5.6,2.5-5.6,5.6v14.7l-11.9-6.9c-2.7-1.5-6.1-0.6-7.6,2v0
			c-1.5,2.7-0.6,6.1,2,7.6l11.9,6.9l-12.8,7.4c-2.7,1.5-3.6,5-2,7.6c1.5,2.7,5,3.6,7.6,2l18.4-10.6l32.4,18.7L515.9,648l-18.4-10.6
			c-2.7-1.5-6.1-0.6-7.6,2l0,0c-1.5,2.7-0.6,6.1,2,7.6l12.8,7.4l-11.9,6.9c-2.7,1.5-3.6,5-2,7.6l0,0c1.5,2.7,5,3.6,7.6,2l11.9-6.9
			v14.7c0,3.1,2.5,5.6,5.6,5.6c3.1,0,5.6-2.5,5.6-5.6v-21.2l32.4-18.7v37.4l-18.4,10.6c-2.7,1.5-3.6,5-2,7.6c1.5,2.7,5,3.6,7.6,2
			l12.8-7.4V703c0,3.1,2.5,5.6,5.6,5.6l0,0c3.1,0,5.6-2.5,5.6-5.6v-13.7l12.8,7.4c2.7,1.5,6.1,0.6,7.6-2c1.5-2.7,0.6-6.1-2-7.6
			L565,676.3V639l32.4,18.7v21.2c0,3.1,2.5,5.6,5.6,5.6l0,0c3.1,0,5.6-2.5,5.6-5.6v-14.7l11.9,6.9c2.7,1.5,6.1,0.6,7.6-2l0,0
			c1.5-2.7,0.6-6.1-2-7.6l-11.9-6.9l12.8-7.4C629.6,645.5,630.5,642.1,629,639.4z"/>
		<path class="st2" d="M910.1,639.4L910.1,639.4c-1.5-2.7-5-3.6-7.6-2L884.1,648l-32.4-18.7l32.4-18.7l18.4,10.6
			c2.7,1.5,6.1,0.6,7.6-2c1.5-2.7,0.6-6.1-2-7.6l-12.8-7.4l11.9-6.9c2.7-1.5,3.6-5,2-7.6v0c-1.5-2.7-5-3.6-7.6-2l-11.9,6.9v-14.7
			c0-3.1-2.5-5.6-5.6-5.6l0,0c-3.1,0-5.6,2.5-5.6,5.6v21.2l-32.4,18.7v-37.4l18.4-10.6c2.7-1.5,3.6-5,2-7.6l0,0
			c-1.5-2.7-5-3.6-7.6-2l-12.8,7.4v-13.7c0-3.1-2.5-5.6-5.6-5.6l0,0c-3.1,0-5.6,2.5-5.6,5.6v13.7l-12.8-7.4c-2.7-1.5-6.1-0.6-7.6,2
			l0,0c-1.5,2.7-0.6,6.1,2,7.6l18.4,10.6v37.4l-32.4-18.7v-21.2c0-3.1-2.5-5.6-5.6-5.6c-3.1,0-5.6,2.5-5.6,5.6v14.7l-11.9-6.9
			c-2.7-1.5-6.1-0.6-7.6,2v0c-1.5,2.7-0.6,6.1,2,7.6l11.9,6.9l-12.8,7.4c-2.7,1.5-3.6,5-2,7.6c1.5,2.7,5,3.6,7.6,2l18.4-10.6
			l32.4,18.7L797,648l-18.4-10.6c-2.7-1.5-6.1-0.6-7.6,2l0,0c-1.5,2.7-0.6,6.1,2,7.6l12.8,7.4l-11.9,6.9c-2.7,1.5-3.6,5-2,7.6l0,0
			c1.5,2.7,5,3.6,7.6,2l11.9-6.9v14.7c0,3.1,2.5,5.6,5.6,5.6c3.1,0,5.6-2.5,5.6-5.6v-21.2L835,639v37.4l-18.4,10.6
			c-2.7,1.5-3.6,5-2,7.6c1.5,2.7,5,3.6,7.6,2l12.8-7.4V703c0,3.1,2.5,5.6,5.6,5.6l0,0c3.1,0,5.6-2.5,5.6-5.6v-13.7l12.8,7.4
			c2.7,1.5,6.1,0.6,7.6-2c1.5-2.7,0.6-6.1-2-7.6l-18.4-10.6V639l32.4,18.7v21.2c0,3.1,2.5,5.6,5.6,5.6l0,0c3.1,0,5.6-2.5,5.6-5.6
			v-14.7l11.9,6.9c2.7,1.5,6.1,0.6,7.6-2l0,0c1.5-2.7,0.6-6.1-2-7.6l-11.9-6.9l12.8-7.4C910.7,645.5,911.6,642.1,910.1,639.4z"/>
		<path class="st2" d="M1191.2,639.4L1191.2,639.4c-1.5-2.7-5-3.6-7.6-2l-18.4,10.6l-32.4-18.7l32.4-18.7l18.4,10.6
			c2.7,1.5,6.1,0.6,7.6-2c1.5-2.7,0.6-6.1-2-7.6l-12.8-7.4l11.9-6.9c2.7-1.5,3.6-5,2-7.6v0c-1.5-2.7-5-3.6-7.6-2l-11.9,6.9v-14.7
			c0-3.1-2.5-5.6-5.6-5.6l0,0c-3.1,0-5.6,2.5-5.6,5.6v21.2l-32.4,18.7v-37.4l18.4-10.6c2.7-1.5,3.6-5,2-7.6l0,0
			c-1.5-2.7-5-3.6-7.6-2l-12.8,7.4v-13.7c0-3.1-2.5-5.6-5.6-5.6l0,0c-3.1,0-5.6,2.5-5.6,5.6v13.7l-12.8-7.4c-2.7-1.5-6.1-0.6-7.6,2
			l0,0c-1.5,2.7-0.6,6.1,2,7.6l18.4,10.6v37.4l-32.4-18.7v-21.2c0-3.1-2.5-5.6-5.6-5.6s-5.6,2.5-5.6,5.6v14.7l-11.9-6.9
			c-2.7-1.5-6.1-0.6-7.6,2v0c-1.5,2.7-0.6,6.1,2,7.6l11.9,6.9l-12.8,7.4c-2.7,1.5-3.6,5-2,7.6c1.5,2.7,5,3.6,7.6,2l18.4-10.6
			l32.4,18.7l-32.4,18.7l-18.4-10.6c-2.7-1.5-6.1-0.6-7.6,2l0,0c-1.5,2.7-0.6,6.1,2,7.6l12.8,7.4l-11.9,6.9c-2.7,1.5-3.6,5-2,7.6
			l0,0c1.5,2.7,5,3.6,7.6,2l11.9-6.9v14.7c0,3.1,2.5,5.6,5.6,5.6s5.6-2.5,5.6-5.6v-21.2l32.4-18.7v37.4l-18.4,10.6
			c-2.7,1.5-3.6,5-2,7.6c1.5,2.7,5,3.6,7.6,2l12.8-7.4V703c0,3.1,2.5,5.6,5.6,5.6l0,0c3.1,0,5.6-2.5,5.6-5.6v-13.7l12.8,7.4
			c2.7,1.5,6.1,0.6,7.6-2c1.5-2.7,0.6-6.1-2-7.6l-18.4-10.6V639l32.4,18.7v21.2c0,3.1,2.5,5.6,5.6,5.6l0,0c3.1,0,5.6-2.5,5.6-5.6
			v-14.7l11.9,6.9c2.7,1.5,6.1,0.6,7.6-2l0,0c1.5-2.7,0.6-6.1-2-7.6l-11.9-6.9l12.8-7.4C1191.9,645.5,1192.8,642.1,1191.2,639.4z"/>
		<path class="st2" d="M207.3,798L207.3,798c-1.5-2.7-5-3.6-7.6-2l-18.4,10.6l-32.4-18.7l32.4-18.7l18.4,10.6c2.7,1.5,6.1,0.6,7.6-2
			c1.5-2.7,0.6-6.1-2-7.6l-12.8-7.4l11.9-6.9c2.7-1.5,3.6-5,2-7.6l0,0c-1.5-2.7-5-3.6-7.6-2l-11.9,6.9v-14.7c0-3.1-2.5-5.6-5.6-5.6
			l0,0c-3.1,0-5.6,2.5-5.6,5.6v21.2l-32.4,18.7v-37.4l18.4-10.6c2.7-1.5,3.6-5,2-7.6v0c-1.5-2.7-5-3.6-7.6-2l-12.8,7.4v-13.7
			c0-3.1-2.5-5.6-5.6-5.6l0,0c-3.1,0-5.6,2.5-5.6,5.6v13.7l-12.8-7.4c-2.7-1.5-6.1-0.6-7.6,2v0c-1.5,2.7-0.6,6.1,2,7.6l18.4,10.6
			v37.4l-32.4-18.7v-21.2c0-3.1-2.5-5.6-5.6-5.6c-3.1,0-5.6,2.5-5.6,5.6V753l-11.9-6.9c-2.7-1.5-6.1-0.6-7.6,2l0,0
			c-1.5,2.7-0.6,6.1,2,7.6l11.9,6.9l-12.8,7.4c-2.7,1.5-3.6,5-2,7.6c1.5,2.7,5,3.6,7.6,2l18.4-10.6l32.4,18.7l-32.4,18.7L75.8,796
			c-2.7-1.5-6.1-0.6-7.6,2l0,0c-1.5,2.7-0.6,6.1,2,7.6L83,813l-11.9,6.9c-2.7,1.5-3.6,5-2,7.6l0,0c1.5,2.7,5,3.6,7.6,2l11.9-6.9
			v14.7c0,3.1,2.5,5.6,5.6,5.6c3.1,0,5.6-2.5,5.6-5.6v-21.2l32.4-18.7v37.4l-18.4,10.6c-2.7,1.5-3.6,5-2,7.6c1.5,2.7,5,3.6,7.6,2
			l12.8-7.4v13.7c0,3.1,2.5,5.6,5.6,5.6l0,0c3.1,0,5.6-2.5,5.6-5.6v-13.7l12.8,7.4c2.7,1.5,6.1,0.6,7.6-2c1.5-2.7,0.6-6.1-2-7.6
			l-18.4-10.6v-37.4l32.4,18.7v21.2c0,3.1,2.5,5.6,5.6,5.6l0,0c3.1,0,5.6-2.5,5.6-5.6v-14.7l11.9,6.9c2.7,1.5,6.1,0.6,7.6-2l0,0
			c1.5-2.7,0.6-6.1-2-7.6l-11.9-6.9l12.8-7.4C207.9,804.1,208.8,800.7,207.3,798z"/>
		<path class="st2" d="M488.4,798L488.4,798c-1.5-2.7-5-3.6-7.6-2l-18.4,10.6L430,787.9l32.4-18.7l18.4,10.6c2.7,1.5,6.1,0.6,7.6-2
			c1.5-2.7,0.6-6.1-2-7.6l-12.8-7.4l11.9-6.9c2.7-1.5,3.6-5,2-7.6l0,0c-1.5-2.7-5-3.6-7.6-2L468,753v-14.7c0-3.1-2.5-5.6-5.6-5.6
			l0,0c-3.1,0-5.6,2.5-5.6,5.6v21.2l-32.4,18.7v-37.4l18.4-10.6c2.7-1.5,3.6-5,2-7.6v0c-1.5-2.7-5-3.6-7.6-2l-12.8,7.4v-13.7
			c0-3.1-2.5-5.6-5.6-5.6l0,0c-3.1,0-5.6,2.5-5.6,5.6v13.7l-12.8-7.4c-2.7-1.5-6.1-0.6-7.6,2v0c-1.5,2.7-0.6,6.1,2,7.6l18.4,10.6
			v37.4l-32.4-18.7v-21.2c0-3.1-2.5-5.6-5.6-5.6c-3.1,0-5.6,2.5-5.6,5.6V753l-11.9-6.9c-2.7-1.5-6.1-0.6-7.6,2l0,0
			c-1.5,2.7-0.6,6.1,2,7.6l11.9,6.9l-12.8,7.4c-2.7,1.5-3.6,5-2,7.6c1.5,2.7,5,3.6,7.6,2l18.4-10.6l32.4,18.7l-32.4,18.7L357,796
			c-2.7-1.5-6.1-0.6-7.6,2l0,0c-1.5,2.7-0.6,6.1,2,7.6l12.8,7.4l-11.9,6.9c-2.7,1.5-3.6,5-2,7.6l0,0c1.5,2.7,5,3.6,7.6,2l11.9-6.9
			v14.7c0,3.1,2.5,5.6,5.6,5.6c3.1,0,5.6-2.5,5.6-5.6v-21.2l32.4-18.7v37.4l-18.4,10.6c-2.7,1.5-3.6,5-2,7.6c1.5,2.7,5,3.6,7.6,2
			l12.8-7.4v13.7c0,3.1,2.5,5.6,5.6,5.6l0,0c3.1,0,5.6-2.5,5.6-5.6v-13.7l12.8,7.4c2.7,1.5,6.1,0.6,7.6-2c1.5-2.7,0.6-6.1-2-7.6
			l-18.4-10.6v-37.4l32.4,18.7v21.2c0,3.1,2.5,5.6,5.6,5.6l0,0c3.1,0,5.6-2.5,5.6-5.6v-14.7l11.9,6.9c2.7,1.5,6.1,0.6,7.6-2l0,0
			c1.5-2.7,0.6-6.1-2-7.6l-11.9-6.9l12.8-7.4C489,804.1,489.9,800.7,488.4,798z"/>
		<path class="st2" d="M769.5,798L769.5,798c-1.5-2.7-5-3.6-7.6-2l-18.4,10.6l-32.4-18.7l32.4-18.7l18.4,10.6c2.7,1.5,6.1,0.6,7.6-2
			c1.5-2.7,0.6-6.1-2-7.6l-12.8-7.4l11.9-6.9c2.7-1.5,3.6-5,2-7.6l0,0c-1.5-2.7-5-3.6-7.6-2l-11.9,6.9v-14.7c0-3.1-2.5-5.6-5.6-5.6
			l0,0c-3.1,0-5.6,2.5-5.6,5.6v21.2l-32.4,18.7v-37.4l18.4-10.6c2.7-1.5,3.6-5,2-7.6v0c-1.5-2.7-5-3.6-7.6-2l-12.8,7.4v-13.7
			c0-3.1-2.5-5.6-5.6-5.6l0,0c-3.1,0-5.6,2.5-5.6,5.6v13.7l-12.8-7.4c-2.7-1.5-6.1-0.6-7.6,2v0c-1.5,2.7-0.6,6.1,2,7.6l18.4,10.6
			v37.4L662,759.5v-21.2c0-3.1-2.5-5.6-5.6-5.6s-5.6,2.5-5.6,5.6V753l-11.9-6.9c-2.7-1.5-6.1-0.6-7.6,2l0,0c-1.5,2.7-0.6,6.1,2,7.6
			l11.9,6.9l-12.8,7.4c-2.7,1.5-3.6,5-2,7.6c1.5,2.7,5,3.6,7.6,2l18.4-10.6l32.4,18.7l-32.4,18.7L638.1,796c-2.7-1.5-6.1-0.6-7.6,2
			l0,0c-1.5,2.7-0.6,6.1,2,7.6l12.8,7.4l-11.9,6.9c-2.7,1.5-3.6,5-2,7.6l0,0c1.5,2.7,5,3.6,7.6,2l11.9-6.9v14.7
			c0,3.1,2.5,5.6,5.6,5.6s5.6-2.5,5.6-5.6v-21.2l32.4-18.7v37.4l-18.4,10.6c-2.7,1.5-3.6,5-2,7.6c1.5,2.7,5,3.6,7.6,2l12.8-7.4v13.7
			c0,3.1,2.5,5.6,5.6,5.6l0,0c3.1,0,5.6-2.5,5.6-5.6v-13.7l12.8,7.4c2.7,1.5,6.1,0.6,7.6-2c1.5-2.7,0.6-6.1-2-7.6l-18.4-10.6v-37.4
			l32.4,18.7v21.2c0,3.1,2.5,5.6,5.6,5.6l0,0c3.1,0,5.6-2.5,5.6-5.6v-14.7l11.9,6.9c2.7,1.5,6.1,0.6,7.6-2l0,0
			c1.5-2.7,0.6-6.1-2-7.6l-11.9-6.9l12.8-7.4C770.2,804.1,771.1,800.7,769.5,798z"/>
		<path class="st2" d="M1050.7,798L1050.7,798c-1.5-2.7-5-3.6-7.6-2l-18.4,10.6l-32.4-18.7l32.4-18.7l18.4,10.6
			c2.7,1.5,6.1,0.6,7.6-2c1.5-2.7,0.6-6.1-2-7.6l-12.8-7.4l11.9-6.9c2.7-1.5,3.6-5,2-7.6l0,0c-1.5-2.7-5-3.6-7.6-2l-11.9,6.9v-14.7
			c0-3.1-2.5-5.6-5.6-5.6l0,0c-3.1,0-5.6,2.5-5.6,5.6v21.2l-32.4,18.7v-37.4l18.4-10.6c2.7-1.5,3.6-5,2-7.6v0c-1.5-2.7-5-3.6-7.6-2
			l-12.8,7.4v-13.7c0-3.1-2.5-5.6-5.6-5.6l0,0c-3.1,0-5.6,2.5-5.6,5.6v13.7l-12.8-7.4c-2.7-1.5-6.1-0.6-7.6,2v0
			c-1.5,2.7-0.6,6.1,2,7.6l18.4,10.6v37.4l-32.4-18.7v-21.2c0-3.1-2.5-5.6-5.6-5.6s-5.6,2.5-5.6,5.6V753l-11.9-6.9
			c-2.7-1.5-6.1-0.6-7.6,2l0,0c-1.5,2.7-0.6,6.1,2,7.6l11.9,6.9l-12.8,7.4c-2.7,1.5-3.6,5-2,7.6c1.5,2.7,5,3.6,7.6,2l18.4-10.6
			l32.4,18.7l-32.4,18.7L919.2,796c-2.7-1.5-6.1-0.6-7.6,2l0,0c-1.5,2.7-0.6,6.1,2,7.6l12.8,7.4l-11.9,6.9c-2.7,1.5-3.6,5-2,7.6l0,0
			c1.5,2.7,5,3.6,7.6,2l11.9-6.9v14.7c0,3.1,2.5,5.6,5.6,5.6s5.6-2.5,5.6-5.6v-21.2l32.4-18.7v37.4l-18.4,10.6c-2.7,1.5-3.6,5-2,7.6
			c1.5,2.7,5,3.6,7.6,2l12.8-7.4v13.7c0,3.1,2.5,5.6,5.6,5.6l0,0c3.1,0,5.6-2.5,5.6-5.6v-13.7l12.8,7.4c2.7,1.5,6.1,0.6,7.6-2
			c1.5-2.7,0.6-6.1-2-7.6l-18.4-10.6v-37.4l32.4,18.7v21.2c0,3.1,2.5,5.6,5.6,5.6l0,0c3.1,0,5.6-2.5,5.6-5.6v-14.7l11.9,6.9
			c2.7,1.5,6.1,0.6,7.6-2l0,0c1.5-2.7,0.6-6.1-2-7.6l-11.9-6.9l12.8-7.4C1051.3,804.1,1052.2,800.7,1050.7,798z"/>
		<path class="st2" d="M1331.8,798L1331.8,798c-1.5-2.7-5-3.6-7.6-2l-18.4,10.6l-32.4-18.7l32.4-18.7l18.4,10.6
			c2.7,1.5,6.1,0.6,7.6-2c1.5-2.7,0.6-6.1-2-7.6l-12.8-7.4l11.9-6.9c2.7-1.5,3.6-5,2-7.6l0,0c-1.5-2.7-5-3.6-7.6-2l-11.9,6.9v-14.7
			c0-3.1-2.5-5.6-5.6-5.6l0,0c-3.1,0-5.6,2.5-5.6,5.6v21.2l-32.4,18.7v-37.4l18.4-10.6c2.7-1.5,3.6-5,2-7.6v0c-1.5-2.7-5-3.6-7.6-2
			l-12.8,7.4v-13.7c0-3.1-2.5-5.6-5.6-5.6l0,0c-3.1,0-5.6,2.5-5.6,5.6v13.7l-12.8-7.4c-2.7-1.5-6.1-0.6-7.6,2v0
			c-1.5,2.7-0.6,6.1,2,7.6l18.4,10.6v37.4l-32.4-18.7v-21.2c0-3.1-2.5-5.6-5.6-5.6s-5.6,2.5-5.6,5.6V753l-11.9-6.9
			c-2.7-1.5-6.1-0.6-7.6,2l0,0c-1.5,2.7-0.6,6.1,2,7.6l11.9,6.9l-12.8,7.4c-2.7,1.5-3.6,5-2,7.6c1.5,2.7,5,3.6,7.6,2l18.4-10.6
			l32.4,18.7l-32.4,18.7l-18.4-10.6c-2.7-1.5-6.1-0.6-7.6,2l0,0c-1.5,2.7-0.6,6.1,2,7.6l12.8,7.4l-11.9,6.9c-2.7,1.5-3.6,5-2,7.6
			l0,0c1.5,2.7,5,3.6,7.6,2l11.9-6.9v14.7c0,3.1,2.5,5.6,5.6,5.6s5.6-2.5,5.6-5.6v-21.2l32.4-18.7v37.4l-18.4,10.6
			c-2.7,1.5-3.6,5-2,7.6s5,3.6,7.6,2l12.8-7.4v13.7c0,3.1,2.5,5.6,5.6,5.6l0,0c3.1,0,5.6-2.5,5.6-5.6v-13.7l12.8,7.4
			c2.7,1.5,6.1,0.6,7.6-2s0.6-6.1-2-7.6l-18.4-10.6v-37.4l32.4,18.7v21.2c0,3.1,2.5,5.6,5.6,5.6l0,0c3.1,0,5.6-2.5,5.6-5.6v-14.7
			l11.9,6.9c2.7,1.5,6.1,0.6,7.6-2l0,0c1.5-2.7,0.6-6.1-2-7.6L1317,813l12.8-7.4C1332.4,804.1,1333.3,800.7,1331.8,798z"/>
		<path class="st2" d="M347.8,956.6L347.8,956.6c-1.5-2.7-5-3.6-7.6-2l-18.4,10.6l-32.4-18.7l32.4-18.7l18.4,10.6
			c2.7,1.5,6.1,0.6,7.6-2c1.5-2.7,0.6-6.1-2-7.6l-12.8-7.4l11.9-6.9c2.7-1.5,3.6-5,2-7.6l0,0c-1.5-2.7-5-3.6-7.6-2l-11.9,6.9v-14.7
			c0-3.1-2.5-5.6-5.6-5.6l0,0c-3.1,0-5.6,2.5-5.6,5.6v21.2l-32.4,18.7v-37.4l18.4-10.6c2.7-1.5,3.6-5,2-7.6l0,0
			c-1.5-2.7-5-3.6-7.6-2l-12.8,7.4v-13.7c0-3.1-2.5-5.6-5.6-5.6l0,0c-3.1,0-5.6,2.5-5.6,5.6v13.7l-12.8-7.4c-2.7-1.5-6.1-0.6-7.6,2
			l0,0c-1.5,2.7-0.6,6.1,2,7.6l18.4,10.6v37.4l-32.4-18.7v-21.2c0-3.1-2.5-5.6-5.6-5.6c-3.1,0-5.6,2.5-5.6,5.6v14.7l-11.9-6.9
			c-2.7-1.5-6.1-0.6-7.6,2l0,0c-1.5,2.7-0.6,6.1,2,7.6l11.9,6.9l-12.8,7.4c-2.7,1.5-3.6,5-2,7.6c1.5,2.7,5,3.6,7.6,2l18.4-10.6
			l32.4,18.7l-32.4,18.7l-18.4-10.6c-2.7-1.5-6.1-0.6-7.6,2l0,0c-1.5,2.7-0.6,6.1,2,7.6l12.8,7.4l-11.9,6.9c-2.7,1.5-3.6,5-2,7.6
			l0,0c1.5,2.7,5,3.6,7.6,2l11.9-6.9V996c0,3.1,2.5,5.6,5.6,5.6c3.1,0,5.6-2.5,5.6-5.6v-21.2l32.4-18.7v37.4l-18.4,10.6
			c-2.7,1.5-3.6,5-2,7.6c1.5,2.7,5,3.6,7.6,2l12.8-7.4v13.7c0,3.1,2.5,5.6,5.6,5.6l0,0c3.1,0,5.6-2.5,5.6-5.6v-13.7l12.8,7.4
			c2.7,1.5,6.1,0.6,7.6-2c1.5-2.7,0.6-6.1-2-7.6l-18.4-10.6v-37.4l32.4,18.7V996c0,3.1,2.5,5.6,5.6,5.6l0,0c3.1,0,5.6-2.5,5.6-5.6
			v-14.7l11.9,6.9c2.7,1.5,6.1,0.6,7.6-2l0,0c1.5-2.7,0.6-6.1-2-7.6l-11.9-6.9l12.8-7.4C348.5,962.7,349.4,959.2,347.8,956.6z"/>
		<path class="st2" d="M629,956.6L629,956.6c-1.5-2.7-5-3.6-7.6-2L603,965.1l-32.4-18.7l32.4-18.7l18.4,10.6c2.7,1.5,6.1,0.6,7.6-2
			c1.5-2.7,0.6-6.1-2-7.6l-12.8-7.4l11.9-6.9c2.7-1.5,3.6-5,2-7.6l0,0c-1.5-2.7-5-3.6-7.6-2l-11.9,6.9v-14.7c0-3.1-2.5-5.6-5.6-5.6
			l0,0c-3.1,0-5.6,2.5-5.6,5.6v21.2L565,936.8v-37.4l18.4-10.6c2.7-1.5,3.6-5,2-7.6l0,0c-1.5-2.7-5-3.6-7.6-2l-12.8,7.4v-13.7
			c0-3.1-2.5-5.6-5.6-5.6l0,0c-3.1,0-5.6,2.5-5.6,5.6v13.7l-12.8-7.4c-2.7-1.5-6.1-0.6-7.6,2l0,0c-1.5,2.7-0.6,6.1,2,7.6l18.4,10.6
			v37.4l-32.4-18.7v-21.2c0-3.1-2.5-5.6-5.6-5.6c-3.1,0-5.6,2.5-5.6,5.6v14.7l-11.9-6.9c-2.7-1.5-6.1-0.6-7.6,2l0,0
			c-1.5,2.7-0.6,6.1,2,7.6l11.9,6.9l-12.8,7.4c-2.7,1.5-3.6,5-2,7.6c1.5,2.7,5,3.6,7.6,2l18.4-10.6l32.4,18.7l-32.4,18.7l-18.4-10.6
			c-2.7-1.5-6.1-0.6-7.6,2l0,0c-1.5,2.7-0.6,6.1,2,7.6l12.8,7.4l-11.9,6.9c-2.7,1.5-3.6,5-2,7.6l0,0c1.5,2.7,5,3.6,7.6,2l11.9-6.9
			V996c0,3.1,2.5,5.6,5.6,5.6c3.1,0,5.6-2.5,5.6-5.6v-21.2l32.4-18.7v37.4l-18.4,10.6c-2.7,1.5-3.6,5-2,7.6c1.5,2.7,5,3.6,7.6,2
			l12.8-7.4v13.7c0,3.1,2.5,5.6,5.6,5.6l0,0c3.1,0,5.6-2.5,5.6-5.6v-13.7l12.8,7.4c2.7,1.5,6.1,0.6,7.6-2c1.5-2.7,0.6-6.1-2-7.6
			L565,993.5v-37.4l32.4,18.7V996c0,3.1,2.5,5.6,5.6,5.6l0,0c3.1,0,5.6-2.5,5.6-5.6v-14.7l11.9,6.9c2.7,1.5,6.1,0.6,7.6-2l0,0
			c1.5-2.7,0.6-6.1-2-7.6l-11.9-6.9l12.8-7.4C629.6,962.7,630.5,959.2,629,956.6z"/>
		<path class="st2" d="M910.1,956.6L910.1,956.6c-1.5-2.7-5-3.6-7.6-2l-18.4,10.6l-32.4-18.7l32.4-18.7l18.4,10.6
			c2.7,1.5,6.1,0.6,7.6-2c1.5-2.7,0.6-6.1-2-7.6l-12.8-7.4l11.9-6.9c2.7-1.5,3.6-5,2-7.6l0,0c-1.5-2.7-5-3.6-7.6-2l-11.9,6.9v-14.7
			c0-3.1-2.5-5.6-5.6-5.6l0,0c-3.1,0-5.6,2.5-5.6,5.6v21.2l-32.4,18.7v-37.4l18.4-10.6c2.7-1.5,3.6-5,2-7.6l0,0
			c-1.5-2.7-5-3.6-7.6-2l-12.8,7.4v-13.7c0-3.1-2.5-5.6-5.6-5.6l0,0c-3.1,0-5.6,2.5-5.6,5.6v13.7l-12.8-7.4c-2.7-1.5-6.1-0.6-7.6,2
			l0,0c-1.5,2.7-0.6,6.1,2,7.6l18.4,10.6v37.4l-32.4-18.7v-21.2c0-3.1-2.5-5.6-5.6-5.6c-3.1,0-5.6,2.5-5.6,5.6v14.7l-11.9-6.9
			c-2.7-1.5-6.1-0.6-7.6,2l0,0c-1.5,2.7-0.6,6.1,2,7.6l11.9,6.9l-12.8,7.4c-2.7,1.5-3.6,5-2,7.6c1.5,2.7,5,3.6,7.6,2l18.4-10.6
			l32.4,18.7L797,965.1l-18.4-10.6c-2.7-1.5-6.1-0.6-7.6,2l0,0c-1.5,2.7-0.6,6.1,2,7.6l12.8,7.4l-11.9,6.9c-2.7,1.5-3.6,5-2,7.6l0,0
			c1.5,2.7,5,3.6,7.6,2l11.9-6.9V996c0,3.1,2.5,5.6,5.6,5.6c3.1,0,5.6-2.5,5.6-5.6v-21.2l32.4-18.7v37.4l-18.4,10.6
			c-2.7,1.5-3.6,5-2,7.6c1.5,2.7,5,3.6,7.6,2l12.8-7.4v13.7c0,3.1,2.5,5.6,5.6,5.6l0,0c3.1,0,5.6-2.5,5.6-5.6v-13.7l12.8,7.4
			c2.7,1.5,6.1,0.6,7.6-2c1.5-2.7,0.6-6.1-2-7.6l-18.4-10.6v-37.4l32.4,18.7V996c0,3.1,2.5,5.6,5.6,5.6l0,0c3.1,0,5.6-2.5,5.6-5.6
			v-14.7l11.9,6.9c2.7,1.5,6.1,0.6,7.6-2l0,0c1.5-2.7,0.6-6.1-2-7.6l-11.9-6.9l12.8-7.4C910.7,962.7,911.6,959.2,910.1,956.6z"/>
		<path class="st2" d="M1191.2,956.6L1191.2,956.6c-1.5-2.7-5-3.6-7.6-2l-18.4,10.6l-32.4-18.7l32.4-18.7l18.4,10.6
			c2.7,1.5,6.1,0.6,7.6-2c1.5-2.7,0.6-6.1-2-7.6l-12.8-7.4l11.9-6.9c2.7-1.5,3.6-5,2-7.6l0,0c-1.5-2.7-5-3.6-7.6-2l-11.9,6.9v-14.7
			c0-3.1-2.5-5.6-5.6-5.6l0,0c-3.1,0-5.6,2.5-5.6,5.6v21.2l-32.4,18.7v-37.4l18.4-10.6c2.7-1.5,3.6-5,2-7.6l0,0
			c-1.5-2.7-5-3.6-7.6-2l-12.8,7.4v-13.7c0-3.1-2.5-5.6-5.6-5.6l0,0c-3.1,0-5.6,2.5-5.6,5.6v13.7l-12.8-7.4c-2.7-1.5-6.1-0.6-7.6,2
			l0,0c-1.5,2.7-0.6,6.1,2,7.6l18.4,10.6v37.4l-32.4-18.7v-21.2c0-3.1-2.5-5.6-5.6-5.6s-5.6,2.5-5.6,5.6v14.7l-11.9-6.9
			c-2.7-1.5-6.1-0.6-7.6,2l0,0c-1.5,2.7-0.6,6.1,2,7.6l11.9,6.9l-12.8,7.4c-2.7,1.5-3.6,5-2,7.6c1.5,2.7,5,3.6,7.6,2l18.4-10.6
			l32.4,18.7l-32.4,18.7l-18.4-10.6c-2.7-1.5-6.1-0.6-7.6,2l0,0c-1.5,2.7-0.6,6.1,2,7.6l12.8,7.4l-11.9,6.9c-2.7,1.5-3.6,5-2,7.6
			l0,0c1.5,2.7,5,3.6,7.6,2l11.9-6.9V996c0,3.1,2.5,5.6,5.6,5.6s5.6-2.5,5.6-5.6v-21.2l32.4-18.7v37.4l-18.4,10.6
			c-2.7,1.5-3.6,5-2,7.6c1.5,2.7,5,3.6,7.6,2l12.8-7.4v13.7c0,3.1,2.5,5.6,5.6,5.6l0,0c3.1,0,5.6-2.5,5.6-5.6v-13.7l12.8,7.4
			c2.7,1.5,6.1,0.6,7.6-2c1.5-2.7,0.6-6.1-2-7.6l-18.4-10.6v-37.4l32.4,18.7V996c0,3.1,2.5,5.6,5.6,5.6l0,0c3.1,0,5.6-2.5,5.6-5.6
			v-14.7l11.9,6.9c2.7,1.5,6.1,0.6,7.6-2l0,0c1.5-2.7,0.6-6.1-2-7.6l-11.9-6.9l12.8-7.4C1191.9,962.7,1192.8,959.2,1191.2,956.6z"/>
	</g>
	<g>
		<path class="st3" d="M212.6,191.7L212.6,191.7c-1.8-3.1-5.8-4.2-8.9-2.4l-21.4,12.4l-37.8-21.8l37.8-21.8l21.4,12.4
			c3.1,1.8,7.1,0.7,8.9-2.4c1.8-3.1,0.7-7.1-2.4-8.9l-14.9-8.6l13.9-8c3.1-1.8,4.2-5.8,2.4-8.9v0c-1.8-3.1-5.8-4.2-8.9-2.4l-13.9,8
			v-17.2c0-3.6-2.9-6.5-6.5-6.5l0,0c-3.6,0-6.5,2.9-6.5,6.5v24.7L138,168.6V125l21.4-12.4c3.1-1.8,4.2-5.8,2.4-8.9v0
			c-1.8-3.1-5.8-4.2-8.9-2.4l-14.9,8.6v-16c0-3.6-2.9-6.5-6.5-6.5l0,0c-3.6,0-6.5,2.9-6.5,6.5v16l-14.9-8.6
			c-3.1-1.8-7.1-0.7-8.9,2.4v0c-1.8,3.1-0.7,7.1,2.4,8.9l21.4,12.4v43.6l-37.8-21.8v-24.7c0-3.6-2.9-6.5-6.5-6.5s-6.5,2.9-6.5,6.5
			v17.2l-13.9-8c-3.1-1.8-7.1-0.7-8.9,2.4v0c-1.8,3.1-0.7,7.1,2.4,8.9l13.9,8l-14.9,8.6c-3.1,1.8-4.2,5.8-2.4,8.9
			c1.8,3.1,5.8,4.2,8.9,2.4l21.4-12.4l37.8,21.8l-37.8,21.8l-21.4-12.4c-3.1-1.8-7.1-0.7-8.9,2.4v0c-1.8,3.1-0.7,7.1,2.4,8.9
			l14.9,8.6l-13.9,8c-3.1,1.8-4.2,5.8-2.4,8.9v0c1.8,3.1,5.8,4.2,8.9,2.4l13.9-8v17.2c0,3.6,2.9,6.5,6.5,6.5s6.5-2.9,6.5-6.5V213
			l37.8-21.8v43.6l-21.4,12.4c-3.1,1.8-4.2,5.8-2.4,8.9c1.8,3.1,5.8,4.2,8.9,2.4l14.9-8.6v16c0,3.6,2.9,6.5,6.5,6.5l0,0
			c3.6,0,6.5-2.9,6.5-6.5v-16l14.9,8.6c3.1,1.8,7.1,0.7,8.9-2.4c1.8-3.1,0.7-7.1-2.4-8.9L138,234.8v-43.6l37.8,21.8v24.7
			c0,3.6,2.9,6.5,6.5,6.5l0,0c3.6,0,6.5-2.9,6.5-6.5v-17.2l13.9,8c3.1,1.8,7.1,0.7,8.9-2.4v0c1.8-3.1,0.7-7.1-2.4-8.9l-13.9-8
			l14.9-8.6C213.3,198.8,214.4,194.9,212.6,191.7z"/>
		<path class="st3" d="M591.6,191.7L591.6,191.7c-1.8-3.1-5.8-4.2-8.9-2.4l-21.4,12.4l-37.8-21.8l37.8-21.8l21.4,12.4
			c3.1,1.8,7.1,0.7,8.9-2.4s0.7-7.1-2.4-8.9l-14.9-8.6l13.9-8c3.1-1.8,4.2-5.8,2.4-8.9v0c-1.8-3.1-5.8-4.2-8.9-2.4l-13.9,8v-17.2
			c0-3.6-2.9-6.5-6.5-6.5l0,0c-3.6,0-6.5,2.9-6.5,6.5v24.7L517,168.6V125l21.4-12.4c3.1-1.8,4.2-5.8,2.4-8.9v0
			c-1.8-3.1-5.8-4.2-8.9-2.4l-14.9,8.6v-16c0-3.6-2.9-6.5-6.5-6.5l0,0c-3.6,0-6.5,2.9-6.5,6.5v16l-14.9-8.6
			c-3.1-1.8-7.1-0.7-8.9,2.4v0c-1.8,3.1-0.7,7.1,2.4,8.9L504,125v43.6l-37.8-21.8v-24.7c0-3.6-2.9-6.5-6.5-6.5s-6.5,2.9-6.5,6.5
			v17.2l-13.9-8c-3.1-1.8-7.1-0.7-8.9,2.4v0c-1.8,3.1-0.7,7.1,2.4,8.9l13.9,8l-14.9,8.6c-3.1,1.8-4.2,5.8-2.4,8.9s5.8,4.2,8.9,2.4
			l21.4-12.4l37.8,21.8l-37.8,21.8l-21.4-12.4c-3.1-1.8-7.1-0.7-8.9,2.4v0c-1.8,3.1-0.7,7.1,2.4,8.9l14.9,8.6l-13.9,8
			c-3.1,1.8-4.2,5.8-2.4,8.9v0c1.8,3.1,5.8,4.2,8.9,2.4l13.9-8v17.2c0,3.6,2.9,6.5,6.5,6.5s6.5-2.9,6.5-6.5V213l37.8-21.8v43.6
			l-21.4,12.4c-3.1,1.8-4.2,5.8-2.4,8.9c1.8,3.1,5.8,4.2,8.9,2.4l14.9-8.6v16c0,3.6,2.9,6.5,6.5,6.5l0,0c3.6,0,6.5-2.9,6.5-6.5v-16
			l14.9,8.6c3.1,1.8,7.1,0.7,8.9-2.4c1.8-3.1,0.7-7.1-2.4-8.9L517,234.8v-43.6l37.8,21.8v24.7c0,3.6,2.9,6.5,6.5,6.5l0,0
			c3.6,0,6.5-2.9,6.5-6.5v-17.2l13.9,8c3.1,1.8,7.1,0.7,8.9-2.4v0c1.8-3.1,0.7-7.1-2.4-8.9l-13.9-8l14.9-8.6
			C592.4,198.8,593.4,194.9,591.6,191.7z"/>
		<path class="st3" d="M970.7,191.7L970.7,191.7c-1.8-3.1-5.8-4.2-8.9-2.4l-21.4,12.4l-37.8-21.8l37.8-21.8l21.4,12.4
			c3.1,1.8,7.1,0.7,8.9-2.4s0.7-7.1-2.4-8.9l-14.9-8.6l13.9-8c3.1-1.8,4.2-5.8,2.4-8.9v0c-1.8-3.1-5.8-4.2-8.9-2.4l-13.9,8v-17.2
			c0-3.6-2.9-6.5-6.5-6.5l0,0c-3.6,0-6.5,2.9-6.5,6.5v24.7L896,168.6V125l21.4-12.4c3.1-1.8,4.2-5.8,2.4-8.9v0
			c-1.8-3.1-5.8-4.2-8.9-2.4l-14.9,8.6v-16c0-3.6-2.9-6.5-6.5-6.5l0,0c-3.6,0-6.5,2.9-6.5,6.5v16l-14.9-8.6
			c-3.1-1.8-7.1-0.7-8.9,2.4v0c-1.8,3.1-0.7,7.1,2.4,8.9L883,125v43.6l-37.8-21.8v-24.7c0-3.6-2.9-6.5-6.5-6.5s-6.5,2.9-6.5,6.5
			v17.2l-13.9-8c-3.1-1.8-7.1-0.7-8.9,2.4v0c-1.8,3.1-0.7,7.1,2.4,8.9l13.9,8l-14.9,8.6c-3.1,1.8-4.2,5.8-2.4,8.9s5.8,4.2,8.9,2.4
			l21.4-12.4l37.8,21.8l-37.8,21.8l-21.4-12.4c-3.1-1.8-7.1-0.7-8.9,2.4v0c-1.8,3.1-0.7,7.1,2.4,8.9l14.9,8.6l-13.9,8
			c-3.1,1.8-4.2,5.8-2.4,8.9v0c1.8,3.1,5.8,4.2,8.9,2.4l13.9-8v17.2c0,3.6,2.9,6.5,6.5,6.5s6.5-2.9,6.5-6.5V213l37.8-21.8v43.6
			l-21.4,12.4c-3.1,1.8-4.2,5.8-2.4,8.9c1.8,3.1,5.8,4.2,8.9,2.4l14.9-8.6v16c0,3.6,2.9,6.5,6.5,6.5l0,0c3.6,0,6.5-2.9,6.5-6.5v-16
			l14.9,8.6c3.1,1.8,7.1,0.7,8.9-2.4c1.8-3.1,0.7-7.1-2.4-8.9L896,234.8v-43.6l37.8,21.8v24.7c0,3.6,2.9,6.5,6.5,6.5l0,0
			c3.6,0,6.5-2.9,6.5-6.5v-17.2l13.9,8c3.1,1.8,7.1,0.7,8.9-2.4v0c1.8-3.1,0.7-7.1-2.4-8.9l-13.9-8l14.9-8.6
			C971.4,198.8,972.5,194.9,970.7,191.7z"/>
		<path class="st3" d="M1349.7,191.7L1349.7,191.7c-1.8-3.1-5.8-4.2-8.9-2.4l-21.4,12.4l-37.8-21.8l37.8-21.8l21.4,12.4
			c3.1,1.8,7.1,0.7,8.9-2.4s0.7-7.1-2.4-8.9l-14.9-8.6l13.9-8c3.1-1.8,4.2-5.8,2.4-8.9v0c-1.8-3.1-5.8-4.2-8.9-2.4l-13.9,8v-17.2
			c0-3.6-2.9-6.5-6.5-6.5l0,0c-3.6,0-6.5,2.9-6.5,6.5v24.7l-37.8,21.8V125l21.4-12.4c3.1-1.8,4.2-5.8,2.4-8.9v0
			c-1.8-3.1-5.8-4.2-8.9-2.4l-14.9,8.6v-16c0-3.6-2.9-6.5-6.5-6.5l0,0c-3.6,0-6.5,2.9-6.5,6.5v16l-14.9-8.6
			c-3.1-1.8-7.1-0.7-8.9,2.4v0c-1.8,3.1-0.7,7.1,2.4,8.9L1262,125v43.6l-37.8-21.8v-24.7c0-3.6-2.9-6.5-6.5-6.5s-6.5,2.9-6.5,6.5
			v17.2l-13.9-8c-3.1-1.8-7.1-0.7-8.9,2.4v0c-1.8,3.1-0.7,7.1,2.4,8.9l13.9,8l-14.9,8.6c-3.1,1.8-4.2,5.8-2.4,8.9s5.8,4.2,8.9,2.4
			l21.4-12.4l37.8,21.8l-37.8,21.8l-21.4-12.4c-3.1-1.8-7.1-0.7-8.9,2.4v0c-1.8,3.1-0.7,7.1,2.4,8.9l14.9,8.6l-13.9,8
			c-3.1,1.8-4.2,5.8-2.4,8.9v0c1.8,3.1,5.8,4.2,8.9,2.4l13.9-8v17.2c0,3.6,2.9,6.5,6.5,6.5s6.5-2.9,6.5-6.5V213l37.8-21.8v43.6
			l-21.4,12.4c-3.1,1.8-4.2,5.8-2.4,8.9c1.8,3.1,5.8,4.2,8.9,2.4l14.9-8.6v16c0,3.6,2.9,6.5,6.5,6.5l0,0c3.6,0,6.5-2.9,6.5-6.5v-16
			l14.9,8.6c3.1,1.8,7.1,0.7,8.9-2.4c1.8-3.1,0.7-7.1-2.4-8.9l-21.4-12.4v-43.6l37.8,21.8v24.7c0,3.6,2.9,6.5,6.5,6.5l0,0
			c3.6,0,6.5-2.9,6.5-6.5v-17.2l13.9,8c3.1,1.8,7.1,0.7,8.9-2.4v0c1.8-3.1,0.7-7.1-2.4-8.9l-13.9-8l14.9-8.6
			C1350.4,198.8,1351.5,194.9,1349.7,191.7z"/>
		<path class="st3" d="M402.1,376.8L402.1,376.8c-1.8-3.1-5.8-4.2-8.9-2.4l-21.4,12.4L334,365l37.8-21.8l21.4,12.4
			c3.1,1.8,7.1,0.7,8.9-2.4c1.8-3.1,0.7-7.1-2.4-8.9l-14.9-8.6l13.9-8c3.1-1.8,4.2-5.8,2.4-8.9v0c-1.8-3.1-5.8-4.2-8.9-2.4l-13.9,8
			v-17.2c0-3.6-2.9-6.5-6.5-6.5l0,0c-3.6,0-6.5,2.9-6.5,6.5v24.7l-37.8,21.8V310l21.4-12.4c3.1-1.8,4.2-5.8,2.4-8.9v0
			c-1.8-3.1-5.8-4.2-8.9-2.4l-14.9,8.6v-16c0-3.6-2.9-6.5-6.5-6.5l0,0c-3.6,0-6.5,2.9-6.5,6.5v16l-14.9-8.6
			c-3.1-1.8-7.1-0.7-8.9,2.4v0c-1.8,3.1-0.7,7.1,2.4,8.9l21.4,12.4v43.6l-37.8-21.8v-24.7c0-3.6-2.9-6.5-6.5-6.5
			c-3.6,0-6.5,2.9-6.5,6.5v17.2l-13.9-8c-3.1-1.8-7.1-0.7-8.9,2.4v0c-1.8,3.1-0.7,7.1,2.4,8.9l13.9,8l-14.9,8.6
			c-3.1,1.8-4.2,5.8-2.4,8.9s5.8,4.2,8.9,2.4l21.4-12.4l37.8,21.8l-37.8,21.8l-21.4-12.4c-3.1-1.8-7.1-0.7-8.9,2.4v0
			c-1.8,3.1-0.7,7.1,2.4,8.9l14.9,8.6l-13.9,8c-3.1,1.8-4.2,5.8-2.4,8.9l0,0c1.8,3.1,5.8,4.2,8.9,2.4l13.9-8v17.2
			c0,3.6,2.9,6.5,6.5,6.5c3.6,0,6.5-2.9,6.5-6.5v-24.7l37.8-21.8v43.6L293,432.2c-3.1,1.8-4.2,5.8-2.4,8.9c1.8,3.1,5.8,4.2,8.9,2.4
			l14.9-8.6v16c0,3.6,2.9,6.5,6.5,6.5l0,0c3.6,0,6.5-2.9,6.5-6.5v-16l14.9,8.6c3.1,1.8,7.1,0.7,8.9-2.4c1.8-3.1,0.7-7.1-2.4-8.9
			l-21.4-12.4v-43.6l37.8,21.8v24.7c0,3.6,2.9,6.5,6.5,6.5l0,0c3.6,0,6.5-2.9,6.5-6.5v-17.2l13.9,8c3.1,1.8,7.1,0.7,8.9-2.4l0,0
			c1.8-3.1,0.7-7.1-2.4-8.9l-13.9-8l14.9-8.6C402.8,383.9,403.9,379.9,402.1,376.8z"/>
		<path class="st3" d="M781.1,376.8L781.1,376.8c-1.8-3.1-5.8-4.2-8.9-2.4l-21.4,12.4L713,365l37.8-21.8l21.4,12.4
			c3.1,1.8,7.1,0.7,8.9-2.4c1.8-3.1,0.7-7.1-2.4-8.9l-14.9-8.6l13.9-8c3.1-1.8,4.2-5.8,2.4-8.9v0c-1.8-3.1-5.8-4.2-8.9-2.4l-13.9,8
			v-17.2c0-3.6-2.9-6.5-6.5-6.5l0,0c-3.6,0-6.5,2.9-6.5,6.5v24.7l-37.8,21.8V310l21.4-12.4c3.1-1.8,4.2-5.8,2.4-8.9v0
			c-1.8-3.1-5.8-4.2-8.9-2.4l-14.9,8.6v-16c0-3.6-2.9-6.5-6.5-6.5l0,0c-3.6,0-6.5,2.9-6.5,6.5v16l-14.9-8.6
			c-3.1-1.8-7.1-0.7-8.9,2.4v0c-1.8,3.1-0.7,7.1,2.4,8.9l21.4,12.4v43.6l-37.8-21.8v-24.7c0-3.6-2.9-6.5-6.5-6.5
			c-3.6,0-6.5,2.9-6.5,6.5v17.2l-13.9-8c-3.1-1.8-7.1-0.7-8.9,2.4v0c-1.8,3.1-0.7,7.1,2.4,8.9l13.9,8l-14.9,8.6
			c-3.1,1.8-4.2,5.8-2.4,8.9c1.8,3.1,5.8,4.2,8.9,2.4l21.4-12.4L687,365l-37.8,21.8l-21.4-12.4c-3.1-1.8-7.1-0.7-8.9,2.4v0
			c-1.8,3.1-0.7,7.1,2.4,8.9l14.9,8.6l-13.9,8c-3.1,1.8-4.2,5.8-2.4,8.9l0,0c1.8,3.1,5.8,4.2,8.9,2.4l13.9-8v17.2
			c0,3.6,2.9,6.5,6.5,6.5c3.6,0,6.5-2.9,6.5-6.5v-24.7l37.8-21.8v43.6l-21.4,12.4c-3.1,1.8-4.2,5.8-2.4,8.9c1.8,3.1,5.8,4.2,8.9,2.4
			l14.9-8.6v16c0,3.6,2.9,6.5,6.5,6.5l0,0c3.6,0,6.5-2.9,6.5-6.5v-16l14.9,8.6c3.1,1.8,7.1,0.7,8.9-2.4c1.8-3.1,0.7-7.1-2.4-8.9
			l-21.4-12.4v-43.6l37.8,21.8v24.7c0,3.6,2.9,6.5,6.5,6.5l0,0c3.6,0,6.5-2.9,6.5-6.5v-17.2l13.9,8c3.1,1.8,7.1,0.7,8.9-2.4l0,0
			c1.8-3.1,0.7-7.1-2.4-8.9l-13.9-8l14.9-8.6C781.9,383.9,782.9,379.9,781.1,376.8z"/>
		<path class="st3" d="M1160.2,376.8L1160.2,376.8c-1.8-3.1-5.8-4.2-8.9-2.4l-21.4,12.4l-37.8-21.8l37.8-21.8l21.4,12.4
			c3.1,1.8,7.1,0.7,8.9-2.4s0.7-7.1-2.4-8.9l-14.9-8.6l13.9-8c3.1-1.8,4.2-5.8,2.4-8.9v0c-1.8-3.1-5.8-4.2-8.9-2.4l-13.9,8v-17.2
			c0-3.6-2.9-6.5-6.5-6.5l0,0c-3.6,0-6.5,2.9-6.5,6.5v24.7l-37.8,21.8V310l21.4-12.4c3.1-1.8,4.2-5.8,2.4-8.9v0
			c-1.8-3.1-5.8-4.2-8.9-2.4l-14.9,8.6v-16c0-3.6-2.9-6.5-6.5-6.5l0,0c-3.6,0-6.5,2.9-6.5,6.5v16l-14.9-8.6
			c-3.1-1.8-7.1-0.7-8.9,2.4v0c-1.8,3.1-0.7,7.1,2.4,8.9l21.4,12.4v43.6l-37.8-21.8v-24.7c0-3.6-2.9-6.5-6.5-6.5s-6.5,2.9-6.5,6.5
			v17.2l-13.9-8c-3.1-1.8-7.1-0.7-8.9,2.4v0c-1.8,3.1-0.7,7.1,2.4,8.9l13.9,8l-14.9,8.6c-3.1,1.8-4.2,5.8-2.4,8.9s5.8,4.2,8.9,2.4
			l21.4-12.4L1066,365l-37.8,21.8l-21.4-12.4c-3.1-1.8-7.1-0.7-8.9,2.4v0c-1.8,3.1-0.7,7.1,2.4,8.9l14.9,8.6l-13.9,8
			c-3.1,1.8-4.2,5.8-2.4,8.9l0,0c1.8,3.1,5.8,4.2,8.9,2.4l13.9-8v17.2c0,3.6,2.9,6.5,6.5,6.5s6.5-2.9,6.5-6.5v-24.7l37.8-21.8v43.6
			l-21.4,12.4c-3.1,1.8-4.2,5.8-2.4,8.9s5.8,4.2,8.9,2.4l14.9-8.6v16c0,3.6,2.9,6.5,6.5,6.5l0,0c3.6,0,6.5-2.9,6.5-6.5v-16l14.9,8.6
			c3.1,1.8,7.1,0.7,8.9-2.4c1.8-3.1,0.7-7.1-2.4-8.9l-21.4-12.4v-43.6l37.8,21.8v24.7c0,3.6,2.9,6.5,6.5,6.5l0,0
			c3.6,0,6.5-2.9,6.5-6.5v-17.2l13.9,8c3.1,1.8,7.1,0.7,8.9-2.4l0,0c1.8-3.1,0.7-7.1-2.4-8.9l-13.9-8l14.9-8.6
			C1160.9,383.9,1162,379.9,1160.2,376.8z"/>
		<path class="st3" d="M212.6,561.8L212.6,561.8c-1.8-3.1-5.8-4.2-8.9-2.4l-21.4,12.4L144.5,550l37.8-21.8l21.4,12.4
			c3.1,1.8,7.1,0.7,8.9-2.4c1.8-3.1,0.7-7.1-2.4-8.9l-14.9-8.6l13.9-8c3.1-1.8,4.2-5.8,2.4-8.9v0c-1.8-3.1-5.8-4.2-8.9-2.4l-13.9,8
			v-17.2c0-3.6-2.9-6.5-6.5-6.5l0,0c-3.6,0-6.5,2.9-6.5,6.5v24.7L138,538.7v-43.6l21.4-12.4c3.1-1.8,4.2-5.8,2.4-8.9l0,0
			c-1.8-3.1-5.8-4.2-8.9-2.4L138,480v-16c0-3.6-2.9-6.5-6.5-6.5l0,0c-3.6,0-6.5,2.9-6.5,6.5v16l-14.9-8.6c-3.1-1.8-7.1-0.7-8.9,2.4
			l0,0c-1.8,3.1-0.7,7.1,2.4,8.9l21.4,12.4v43.6l-37.8-21.8v-24.7c0-3.6-2.9-6.5-6.5-6.5s-6.5,2.9-6.5,6.5v17.2l-13.9-8
			c-3.1-1.8-7.1-0.7-8.9,2.4v0c-1.8,3.1-0.7,7.1,2.4,8.9l13.9,8l-14.9,8.6c-3.1,1.8-4.2,5.8-2.4,8.9c1.8,3.1,5.8,4.2,8.9,2.4
			l21.4-12.4l37.8,21.8l-37.8,21.8l-21.4-12.4c-3.1-1.8-7.1-0.7-8.9,2.4v0c-1.8,3.1-0.7,7.1,2.4,8.9l14.9,8.6l-13.9,8
			c-3.1,1.8-4.2,5.8-2.4,8.9l0,0c1.8,3.1,5.8,4.2,8.9,2.4l13.9-8v17.2c0,3.6,2.9,6.5,6.5,6.5s6.5-2.9,6.5-6.5v-24.7l37.8-21.8v43.6
			l-21.4,12.4c-3.1,1.8-4.2,5.8-2.4,8.9c1.8,3.1,5.8,4.2,8.9,2.4l14.9-8.6v16c0,3.6,2.9,6.5,6.5,6.5l0,0c3.6,0,6.5-2.9,6.5-6.5v-16
			l14.9,8.6c3.1,1.8,7.1,0.7,8.9-2.4c1.8-3.1,0.7-7.1-2.4-8.9L138,604.9v-43.6l37.8,21.8v24.7c0,3.6,2.9,6.5,6.5,6.5l0,0
			c3.6,0,6.5-2.9,6.5-6.5v-17.2l13.9,8c3.1,1.8,7.1,0.7,8.9-2.4l0,0c1.8-3.1,0.7-7.1-2.4-8.9l-13.9-8l14.9-8.6
			C213.3,568.9,214.4,564.9,212.6,561.8z"/>
		<path class="st3" d="M591.6,561.8L591.6,561.8c-1.8-3.1-5.8-4.2-8.9-2.4l-21.4,12.4L523.5,550l37.8-21.8l21.4,12.4
			c3.1,1.8,7.1,0.7,8.9-2.4c1.8-3.1,0.7-7.1-2.4-8.9l-14.9-8.6l13.9-8c3.1-1.8,4.2-5.8,2.4-8.9v0c-1.8-3.1-5.8-4.2-8.9-2.4l-13.9,8
			v-17.2c0-3.6-2.9-6.5-6.5-6.5l0,0c-3.6,0-6.5,2.9-6.5,6.5v24.7L517,538.7v-43.6l21.4-12.4c3.1-1.8,4.2-5.8,2.4-8.9l0,0
			c-1.8-3.1-5.8-4.2-8.9-2.4L517,480v-16c0-3.6-2.9-6.5-6.5-6.5l0,0c-3.6,0-6.5,2.9-6.5,6.5v16l-14.9-8.6c-3.1-1.8-7.1-0.7-8.9,2.4
			l0,0c-1.8,3.1-0.7,7.1,2.4,8.9l21.4,12.4v43.6l-37.8-21.8v-24.7c0-3.6-2.9-6.5-6.5-6.5s-6.5,2.9-6.5,6.5v17.2l-13.9-8
			c-3.1-1.8-7.1-0.7-8.9,2.4v0c-1.8,3.1-0.7,7.1,2.4,8.9l13.9,8l-14.9,8.6c-3.1,1.8-4.2,5.8-2.4,8.9c1.8,3.1,5.8,4.2,8.9,2.4
			l21.4-12.4l37.8,21.8l-37.8,21.8l-21.4-12.4c-3.1-1.8-7.1-0.7-8.9,2.4v0c-1.8,3.1-0.7,7.1,2.4,8.9l14.9,8.6l-13.9,8
			c-3.1,1.8-4.2,5.8-2.4,8.9l0,0c1.8,3.1,5.8,4.2,8.9,2.4l13.9-8v17.2c0,3.6,2.9,6.5,6.5,6.5s6.5-2.9,6.5-6.5v-24.7l37.8-21.8v43.6
			l-21.4,12.4c-3.1,1.8-4.2,5.8-2.4,8.9c1.8,3.1,5.8,4.2,8.9,2.4L504,620v16c0,3.6,2.9,6.5,6.5,6.5l0,0c3.6,0,6.5-2.9,6.5-6.5v-16
			l14.9,8.6c3.1,1.8,7.1,0.7,8.9-2.4c1.8-3.1,0.7-7.1-2.4-8.9L517,604.9v-43.6l37.8,21.8v24.7c0,3.6,2.9,6.5,6.5,6.5l0,0
			c3.6,0,6.5-2.9,6.5-6.5v-17.2l13.9,8c3.1,1.8,7.1,0.7,8.9-2.4l0,0c1.8-3.1,0.7-7.1-2.4-8.9l-13.9-8l14.9-8.6
			C592.4,568.9,593.4,564.9,591.6,561.8z"/>
		<path class="st3" d="M970.7,561.8L970.7,561.8c-1.8-3.1-5.8-4.2-8.9-2.4l-21.4,12.4L902.6,550l37.8-21.8l21.4,12.4
			c3.1,1.8,7.1,0.7,8.9-2.4c1.8-3.1,0.7-7.1-2.4-8.9l-14.9-8.6l13.9-8c3.1-1.8,4.2-5.8,2.4-8.9v0c-1.8-3.1-5.8-4.2-8.9-2.4l-13.9,8
			v-17.2c0-3.6-2.9-6.5-6.5-6.5l0,0c-3.6,0-6.5,2.9-6.5,6.5v24.7L896,538.7v-43.6l21.4-12.4c3.1-1.8,4.2-5.8,2.4-8.9l0,0
			c-1.8-3.1-5.8-4.2-8.9-2.4L896,480v-16c0-3.6-2.9-6.5-6.5-6.5l0,0c-3.6,0-6.5,2.9-6.5,6.5v16l-14.9-8.6c-3.1-1.8-7.1-0.7-8.9,2.4
			l0,0c-1.8,3.1-0.7,7.1,2.4,8.9l21.4,12.4v43.6l-37.8-21.8v-24.7c0-3.6-2.9-6.5-6.5-6.5s-6.5,2.9-6.5,6.5v17.2l-13.9-8
			c-3.1-1.8-7.1-0.7-8.9,2.4v0c-1.8,3.1-0.7,7.1,2.4,8.9l13.9,8l-14.9,8.6c-3.1,1.8-4.2,5.8-2.4,8.9c1.8,3.1,5.8,4.2,8.9,2.4
			l21.4-12.4l37.8,21.8l-37.8,21.8l-21.4-12.4c-3.1-1.8-7.1-0.7-8.9,2.4v0c-1.8,3.1-0.7,7.1,2.4,8.9l14.9,8.6l-13.9,8
			c-3.1,1.8-4.2,5.8-2.4,8.9l0,0c1.8,3.1,5.8,4.2,8.9,2.4l13.9-8v17.2c0,3.6,2.9,6.5,6.5,6.5s6.5-2.9,6.5-6.5v-24.7l37.8-21.8v43.6
			l-21.4,12.4c-3.1,1.8-4.2,5.8-2.4,8.9c1.8,3.1,5.8,4.2,8.9,2.4L883,620v16c0,3.6,2.9,6.5,6.5,6.5l0,0c3.6,0,6.5-2.9,6.5-6.5v-16
			l14.9,8.6c3.1,1.8,7.1,0.7,8.9-2.4c1.8-3.1,0.7-7.1-2.4-8.9L896,604.9v-43.6l37.8,21.8v24.7c0,3.6,2.9,6.5,6.5,6.5l0,0
			c3.6,0,6.5-2.9,6.5-6.5v-17.2l13.9,8c3.1,1.8,7.1,0.7,8.9-2.4l0,0c1.8-3.1,0.7-7.1-2.4-8.9l-13.9-8l14.9-8.6
			C971.4,568.9,972.5,564.9,970.7,561.8z"/>
		<path class="st3" d="M1349.7,561.8L1349.7,561.8c-1.8-3.1-5.8-4.2-8.9-2.4l-21.4,12.4l-37.8-21.8l37.8-21.8l21.4,12.4
			c3.1,1.8,7.1,0.7,8.9-2.4c1.8-3.1,0.7-7.1-2.4-8.9l-14.9-8.6l13.9-8c3.1-1.8,4.2-5.8,2.4-8.9v0c-1.8-3.1-5.8-4.2-8.9-2.4l-13.9,8
			v-17.2c0-3.6-2.9-6.5-6.5-6.5l0,0c-3.6,0-6.5,2.9-6.5,6.5v24.7l-37.8,21.8v-43.6l21.4-12.4c3.1-1.8,4.2-5.8,2.4-8.9l0,0
			c-1.8-3.1-5.8-4.2-8.9-2.4l-14.9,8.6v-16c0-3.6-2.9-6.5-6.5-6.5l0,0c-3.6,0-6.5,2.9-6.5,6.5v16l-14.9-8.6
			c-3.1-1.8-7.1-0.7-8.9,2.4l0,0c-1.8,3.1-0.7,7.1,2.4,8.9l21.4,12.4v43.6l-37.8-21.8v-24.7c0-3.6-2.9-6.5-6.5-6.5s-6.5,2.9-6.5,6.5
			v17.2l-13.9-8c-3.1-1.8-7.1-0.7-8.9,2.4v0c-1.8,3.1-0.7,7.1,2.4,8.9l13.9,8l-14.9,8.6c-3.1,1.8-4.2,5.8-2.4,8.9
			c1.8,3.1,5.8,4.2,8.9,2.4l21.4-12.4l37.8,21.8l-37.8,21.8l-21.4-12.4c-3.1-1.8-7.1-0.7-8.9,2.4v0c-1.8,3.1-0.7,7.1,2.4,8.9
			l14.9,8.6l-13.9,8c-3.1,1.8-4.2,5.8-2.4,8.9l0,0c1.8,3.1,5.8,4.2,8.9,2.4l13.9-8v17.2c0,3.6,2.9,6.5,6.5,6.5s6.5-2.9,6.5-6.5
			v-24.7l37.8-21.8v43.6l-21.4,12.4c-3.1,1.8-4.2,5.8-2.4,8.9c1.8,3.1,5.8,4.2,8.9,2.4l14.9-8.6v16c0,3.6,2.9,6.5,6.5,6.5l0,0
			c3.6,0,6.5-2.9,6.5-6.5v-16l14.9,8.6c3.1,1.8,7.1,0.7,8.9-2.4c1.8-3.1,0.7-7.1-2.4-8.9l-21.4-12.4v-43.6l37.8,21.8v24.7
			c0,3.6,2.9,6.5,6.5,6.5l0,0c3.6,0,6.5-2.9,6.5-6.5v-17.2l13.9,8c3.1,1.8,7.1,0.7,8.9-2.4l0,0c1.8-3.1,0.7-7.1-2.4-8.9l-13.9-8
			l14.9-8.6C1350.4,568.9,1351.5,564.9,1349.7,561.8z"/>
		<path class="st3" d="M402.1,746.9L402.1,746.9c-1.8-3.1-5.8-4.2-8.9-2.4l-21.4,12.4L334,735l37.8-21.8l21.4,12.4
			c3.1,1.8,7.1,0.7,8.9-2.4c1.8-3.1,0.7-7.1-2.4-8.9l-14.9-8.6l13.9-8c3.1-1.8,4.2-5.8,2.4-8.9l0,0c-1.8-3.1-5.8-4.2-8.9-2.4
			l-13.9,8v-17.2c0-3.6-2.9-6.5-6.5-6.5l0,0c-3.6,0-6.5,2.9-6.5,6.5v24.7l-37.8,21.8v-43.6l21.4-12.4c3.1-1.8,4.2-5.8,2.4-8.9l0,0
			c-1.8-3.1-5.8-4.2-8.9-2.4l-14.9,8.6v-16c0-3.6-2.9-6.5-6.5-6.5l0,0c-3.6,0-6.5,2.9-6.5,6.5v16l-14.9-8.6
			c-3.1-1.8-7.1-0.7-8.9,2.4l0,0c-1.8,3.1-0.7,7.1,2.4,8.9l21.4,12.4v43.6l-37.8-21.8v-24.7c0-3.6-2.9-6.5-6.5-6.5
			c-3.6,0-6.5,2.9-6.5,6.5v17.2l-13.9-8c-3.1-1.8-7.1-0.7-8.9,2.4l0,0c-1.8,3.1-0.7,7.1,2.4,8.9l13.9,8l-14.9,8.6
			c-3.1,1.8-4.2,5.8-2.4,8.9c1.8,3.1,5.8,4.2,8.9,2.4l21.4-12.4l37.8,21.8l-37.8,21.8l-21.4-12.4c-3.1-1.8-7.1-0.7-8.9,2.4l0,0
			c-1.8,3.1-0.7,7.1,2.4,8.9l14.9,8.6l-13.9,8c-3.1,1.8-4.2,5.8-2.4,8.9v0c1.8,3.1,5.8,4.2,8.9,2.4l13.9-8v17.2
			c0,3.6,2.9,6.5,6.5,6.5c3.6,0,6.5-2.9,6.5-6.5v-24.7l37.8-21.8V790L293,802.3c-3.1,1.8-4.2,5.8-2.4,8.9c1.8,3.1,5.8,4.2,8.9,2.4
			l14.9-8.6v16c0,3.6,2.9,6.5,6.5,6.5l0,0c3.6,0,6.5-2.9,6.5-6.5v-16l14.9,8.6c3.1,1.8,7.1,0.7,8.9-2.4c1.8-3.1,0.7-7.1-2.4-8.9
			L327.5,790v-43.6l37.8,21.8v24.7c0,3.6,2.9,6.5,6.5,6.5l0,0c3.6,0,6.5-2.9,6.5-6.5v-17.2l13.9,8c3.1,1.8,7.1,0.7,8.9-2.4v0
			c1.8-3.1,0.7-7.1-2.4-8.9l-13.9-8l14.9-8.6C402.8,754,403.9,750,402.1,746.9z"/>
		<path class="st3" d="M781.1,746.9L781.1,746.9c-1.8-3.1-5.8-4.2-8.9-2.4l-21.4,12.4L713,735l37.8-21.8l21.4,12.4
			c3.1,1.8,7.1,0.7,8.9-2.4c1.8-3.1,0.7-7.1-2.4-8.9l-14.9-8.6l13.9-8c3.1-1.8,4.2-5.8,2.4-8.9l0,0c-1.8-3.1-5.8-4.2-8.9-2.4
			l-13.9,8v-17.2c0-3.6-2.9-6.5-6.5-6.5l0,0c-3.6,0-6.5,2.9-6.5,6.5v24.7l-37.8,21.8v-43.6l21.4-12.4c3.1-1.8,4.2-5.8,2.4-8.9l0,0
			c-1.8-3.1-5.8-4.2-8.9-2.4l-14.9,8.6v-16c0-3.6-2.9-6.5-6.5-6.5l0,0c-3.6,0-6.5,2.9-6.5,6.5v16l-14.9-8.6
			c-3.1-1.8-7.1-0.7-8.9,2.4l0,0c-1.8,3.1-0.7,7.1,2.4,8.9l21.4,12.4v43.6l-37.8-21.8v-24.7c0-3.6-2.9-6.5-6.5-6.5
			c-3.6,0-6.5,2.9-6.5,6.5v17.2l-13.9-8c-3.1-1.8-7.1-0.7-8.9,2.4l0,0c-1.8,3.1-0.7,7.1,2.4,8.9l13.9,8l-14.9,8.6
			c-3.1,1.8-4.2,5.8-2.4,8.9c1.8,3.1,5.8,4.2,8.9,2.4l21.4-12.4L687,735l-37.8,21.8l-21.4-12.4c-3.1-1.8-7.1-0.7-8.9,2.4l0,0
			c-1.8,3.1-0.7,7.1,2.4,8.9l14.9,8.6l-13.9,8c-3.1,1.8-4.2,5.8-2.4,8.9v0c1.8,3.1,5.8,4.2,8.9,2.4l13.9-8v17.2
			c0,3.6,2.9,6.5,6.5,6.5c3.6,0,6.5-2.9,6.5-6.5v-24.7l37.8-21.8V790l-21.4,12.4c-3.1,1.8-4.2,5.8-2.4,8.9c1.8,3.1,5.8,4.2,8.9,2.4
			l14.9-8.6v16c0,3.6,2.9,6.5,6.5,6.5l0,0c3.6,0,6.5-2.9,6.5-6.5v-16l14.9,8.6c3.1,1.8,7.1,0.7,8.9-2.4c1.8-3.1,0.7-7.1-2.4-8.9
			L706.5,790v-43.6l37.8,21.8v24.7c0,3.6,2.9,6.5,6.5,6.5l0,0c3.6,0,6.5-2.9,6.5-6.5v-17.2l13.9,8c3.1,1.8,7.1,0.7,8.9-2.4v0
			c1.8-3.1,0.7-7.1-2.4-8.9l-13.9-8l14.9-8.6C781.9,754,782.9,750,781.1,746.9z"/>
		<path class="st3" d="M1160.2,746.9L1160.2,746.9c-1.8-3.1-5.8-4.2-8.9-2.4l-21.4,12.4l-37.8-21.8l37.8-21.8l21.4,12.4
			c3.1,1.8,7.1,0.7,8.9-2.4c1.8-3.1,0.7-7.1-2.4-8.9l-14.9-8.6l13.9-8c3.1-1.8,4.2-5.8,2.4-8.9l0,0c-1.8-3.1-5.8-4.2-8.9-2.4
			l-13.9,8v-17.2c0-3.6-2.9-6.5-6.5-6.5l0,0c-3.6,0-6.5,2.9-6.5,6.5v24.7l-37.8,21.8v-43.6l21.4-12.4c3.1-1.8,4.2-5.8,2.4-8.9l0,0
			c-1.8-3.1-5.8-4.2-8.9-2.4l-14.9,8.6v-16c0-3.6-2.9-6.5-6.5-6.5l0,0c-3.6,0-6.5,2.9-6.5,6.5v16l-14.9-8.6
			c-3.1-1.8-7.1-0.7-8.9,2.4l0,0c-1.8,3.1-0.7,7.1,2.4,8.9l21.4,12.4v43.6l-37.8-21.8v-24.7c0-3.6-2.9-6.5-6.5-6.5s-6.5,2.9-6.5,6.5
			v17.2l-13.9-8c-3.1-1.8-7.1-0.7-8.9,2.4l0,0c-1.8,3.1-0.7,7.1,2.4,8.9l13.9,8l-14.9,8.6c-3.1,1.8-4.2,5.8-2.4,8.9
			c1.8,3.1,5.8,4.2,8.9,2.4l21.4-12.4L1066,735l-37.8,21.8l-21.4-12.4c-3.1-1.8-7.1-0.7-8.9,2.4l0,0c-1.8,3.1-0.7,7.1,2.4,8.9
			l14.9,8.6l-13.9,8c-3.1,1.8-4.2,5.8-2.4,8.9v0c1.8,3.1,5.8,4.2,8.9,2.4l13.9-8v17.2c0,3.6,2.9,6.5,6.5,6.5s6.5-2.9,6.5-6.5v-24.7
			l37.8-21.8V790l-21.4,12.4c-3.1,1.8-4.2,5.8-2.4,8.9c1.8,3.1,5.8,4.2,8.9,2.4l14.9-8.6v16c0,3.6,2.9,6.5,6.5,6.5l0,0
			c3.6,0,6.5-2.9,6.5-6.5v-16l14.9,8.6c3.1,1.8,7.1,0.7,8.9-2.4c1.8-3.1,0.7-7.1-2.4-8.9l-21.4-12.4v-43.6l37.8,21.8v24.7
			c0,3.6,2.9,6.5,6.5,6.5l0,0c3.6,0,6.5-2.9,6.5-6.5v-17.2l13.9,8c3.1,1.8,7.1,0.7,8.9-2.4v0c1.8-3.1,0.7-7.1-2.4-8.9l-13.9-8
			l14.9-8.6C1160.9,754,1162,750,1160.2,746.9z"/>
		<path class="st3" d="M212.6,931.9L212.6,931.9c-1.8-3.1-5.8-4.2-8.9-2.4l-21.4,12.4l-37.8-21.8l37.8-21.8l21.4,12.4
			c3.1,1.8,7.1,0.7,8.9-2.4c1.8-3.1,0.7-7.1-2.4-8.9l-14.9-8.6l13.9-8c3.1-1.8,4.2-5.8,2.4-8.9l0,0c-1.8-3.1-5.8-4.2-8.9-2.4
			l-13.9,8v-17.2c0-3.6-2.9-6.5-6.5-6.5l0,0c-3.6,0-6.5,2.9-6.5,6.5V887L138,908.8v-43.6l21.4-12.4c3.1-1.8,4.2-5.8,2.4-8.9l0,0
			c-1.8-3.1-5.8-4.2-8.9-2.4l-14.9,8.6v-16c0-3.6-2.9-6.5-6.5-6.5l0,0c-3.6,0-6.5,2.9-6.5,6.5v16l-14.9-8.6
			c-3.1-1.8-7.1-0.7-8.9,2.4l0,0c-1.8,3.1-0.7,7.1,2.4,8.9l21.4,12.4v43.6L87.2,887v-24.7c0-3.6-2.9-6.5-6.5-6.5s-6.5,2.9-6.5,6.5
			v17.2l-13.9-8c-3.1-1.8-7.1-0.7-8.9,2.4l0,0c-1.8,3.1-0.7,7.1,2.4,8.9l13.9,8l-14.9,8.6c-3.1,1.8-4.2,5.8-2.4,8.9
			c1.8,3.1,5.8,4.2,8.9,2.4l21.4-12.4l37.8,21.8l-37.8,21.8l-21.4-12.4c-3.1-1.8-7.1-0.7-8.9,2.4l0,0c-1.8,3.1-0.7,7.1,2.4,8.9
			l14.9,8.6l-13.9,8c-3.1,1.8-4.2,5.8-2.4,8.9l0,0c1.8,3.1,5.8,4.2,8.9,2.4l13.9-8v17.2c0,3.6,2.9,6.5,6.5,6.5s6.5-2.9,6.5-6.5
			v-24.7l37.8-21.8V975l-21.4,12.4c-3.1,1.8-4.2,5.8-2.4,8.9c1.8,3.1,5.8,4.2,8.9,2.4l14.9-8.6v16c0,3.6,2.9,6.5,6.5,6.5l0,0
			c3.6,0,6.5-2.9,6.5-6.5v-16l14.9,8.6c3.1,1.8,7.1,0.7,8.9-2.4c1.8-3.1,0.7-7.1-2.4-8.9L138,975v-43.6l37.8,21.8v24.7
			c0,3.6,2.9,6.5,6.5,6.5l0,0c3.6,0,6.5-2.9,6.5-6.5v-17.2l13.9,8c3.1,1.8,7.1,0.7,8.9-2.4l0,0c1.8-3.1,0.7-7.1-2.4-8.9l-13.9-8
			l14.9-8.6C213.3,939,214.4,935,212.6,931.9z"/>
		<path class="st3" d="M591.6,931.9L591.6,931.9c-1.8-3.1-5.8-4.2-8.9-2.4l-21.4,12.4l-37.8-21.8l37.8-21.8l21.4,12.4
			c3.1,1.8,7.1,0.7,8.9-2.4s0.7-7.1-2.4-8.9l-14.9-8.6l13.9-8c3.1-1.8,4.2-5.8,2.4-8.9l0,0c-1.8-3.1-5.8-4.2-8.9-2.4l-13.9,8v-17.2
			c0-3.6-2.9-6.5-6.5-6.5l0,0c-3.6,0-6.5,2.9-6.5,6.5V887L517,908.8v-43.6l21.4-12.4c3.1-1.8,4.2-5.8,2.4-8.9l0,0
			c-1.8-3.1-5.8-4.2-8.9-2.4l-14.9,8.6v-16c0-3.6-2.9-6.5-6.5-6.5l0,0c-3.6,0-6.5,2.9-6.5,6.5v16l-14.9-8.6
			c-3.1-1.8-7.1-0.7-8.9,2.4l0,0c-1.8,3.1-0.7,7.1,2.4,8.9l21.4,12.4v43.6L466.2,887v-24.7c0-3.6-2.9-6.5-6.5-6.5s-6.5,2.9-6.5,6.5
			v17.2l-13.9-8c-3.1-1.8-7.1-0.7-8.9,2.4l0,0c-1.8,3.1-0.7,7.1,2.4,8.9l13.9,8l-14.9,8.6c-3.1,1.8-4.2,5.8-2.4,8.9s5.8,4.2,8.9,2.4
			l21.4-12.4l37.8,21.8l-37.8,21.8l-21.4-12.4c-3.1-1.8-7.1-0.7-8.9,2.4l0,0c-1.8,3.1-0.7,7.1,2.4,8.9l14.9,8.6l-13.9,8
			c-3.1,1.8-4.2,5.8-2.4,8.9l0,0c1.8,3.1,5.8,4.2,8.9,2.4l13.9-8v17.2c0,3.6,2.9,6.5,6.5,6.5s6.5-2.9,6.5-6.5v-24.7l37.8-21.8V975
			l-21.4,12.4c-3.1,1.8-4.2,5.8-2.4,8.9c1.8,3.1,5.8,4.2,8.9,2.4l14.9-8.6v16c0,3.6,2.9,6.5,6.5,6.5l0,0c3.6,0,6.5-2.9,6.5-6.5v-16
			l14.9,8.6c3.1,1.8,7.1,0.7,8.9-2.4c1.8-3.1,0.7-7.1-2.4-8.9L517,975v-43.6l37.8,21.8v24.7c0,3.6,2.9,6.5,6.5,6.5l0,0
			c3.6,0,6.5-2.9,6.5-6.5v-17.2l13.9,8c3.1,1.8,7.1,0.7,8.9-2.4l0,0c1.8-3.1,0.7-7.1-2.4-8.9l-13.9-8l14.9-8.6
			C592.4,939,593.4,935,591.6,931.9z"/>
		<path class="st3" d="M970.7,931.9L970.7,931.9c-1.8-3.1-5.8-4.2-8.9-2.4l-21.4,12.4l-37.8-21.8l37.8-21.8l21.4,12.4
			c3.1,1.8,7.1,0.7,8.9-2.4s0.7-7.1-2.4-8.9l-14.9-8.6l13.9-8c3.1-1.8,4.2-5.8,2.4-8.9l0,0c-1.8-3.1-5.8-4.2-8.9-2.4l-13.9,8v-17.2
			c0-3.6-2.9-6.5-6.5-6.5l0,0c-3.6,0-6.5,2.9-6.5,6.5V887L896,908.8v-43.6l21.4-12.4c3.1-1.8,4.2-5.8,2.4-8.9l0,0
			c-1.8-3.1-5.8-4.2-8.9-2.4l-14.9,8.6v-16c0-3.6-2.9-6.5-6.5-6.5l0,0c-3.6,0-6.5,2.9-6.5,6.5v16l-14.9-8.6
			c-3.1-1.8-7.1-0.7-8.9,2.4l0,0c-1.8,3.1-0.7,7.1,2.4,8.9l21.4,12.4v43.6L845.2,887v-24.7c0-3.6-2.9-6.5-6.5-6.5s-6.5,2.9-6.5,6.5
			v17.2l-13.9-8c-3.1-1.8-7.1-0.7-8.9,2.4l0,0c-1.8,3.1-0.7,7.1,2.4,8.9l13.9,8l-14.9,8.6c-3.1,1.8-4.2,5.8-2.4,8.9s5.8,4.2,8.9,2.4
			l21.4-12.4l37.8,21.8l-37.8,21.8l-21.4-12.4c-3.1-1.8-7.1-0.7-8.9,2.4l0,0c-1.8,3.1-0.7,7.1,2.4,8.9l14.9,8.6l-13.9,8
			c-3.1,1.8-4.2,5.8-2.4,8.9l0,0c1.8,3.1,5.8,4.2,8.9,2.4l13.9-8v17.2c0,3.6,2.9,6.5,6.5,6.5s6.5-2.9,6.5-6.5v-24.7l37.8-21.8V975
			l-21.4,12.4c-3.1,1.8-4.2,5.8-2.4,8.9c1.8,3.1,5.8,4.2,8.9,2.4l14.9-8.6v16c0,3.6,2.9,6.5,6.5,6.5l0,0c3.6,0,6.5-2.9,6.5-6.5v-16
			l14.9,8.6c3.1,1.8,7.1,0.7,8.9-2.4c1.8-3.1,0.7-7.1-2.4-8.9L896,975v-43.6l37.8,21.8v24.7c0,3.6,2.9,6.5,6.5,6.5l0,0
			c3.6,0,6.5-2.9,6.5-6.5v-17.2l13.9,8c3.1,1.8,7.1,0.7,8.9-2.4l0,0c1.8-3.1,0.7-7.1-2.4-8.9l-13.9-8l14.9-8.6
			C971.4,939,972.5,935,970.7,931.9z"/>
		<path class="st3" d="M1349.7,931.9L1349.7,931.9c-1.8-3.1-5.8-4.2-8.9-2.4l-21.4,12.4l-37.8-21.8l37.8-21.8l21.4,12.4
			c3.1,1.8,7.1,0.7,8.9-2.4s0.7-7.1-2.4-8.9l-14.9-8.6l13.9-8c3.1-1.8,4.2-5.8,2.4-8.9l0,0c-1.8-3.1-5.8-4.2-8.9-2.4l-13.9,8v-17.2
			c0-3.6-2.9-6.5-6.5-6.5l0,0c-3.6,0-6.5,2.9-6.5,6.5V887l-37.8,21.8v-43.6l21.4-12.4c3.1-1.8,4.2-5.8,2.4-8.9l0,0
			c-1.8-3.1-5.8-4.2-8.9-2.4l-14.9,8.6v-16c0-3.6-2.9-6.5-6.5-6.5l0,0c-3.6,0-6.5,2.9-6.5,6.5v16l-14.9-8.6
			c-3.1-1.8-7.1-0.7-8.9,2.4l0,0c-1.8,3.1-0.7,7.1,2.4,8.9l21.4,12.4v43.6l-37.8-21.8v-24.7c0-3.6-2.9-6.5-6.5-6.5s-6.5,2.9-6.5,6.5
			v17.2l-13.9-8c-3.1-1.8-7.1-0.7-8.9,2.4l0,0c-1.8,3.1-0.7,7.1,2.4,8.9l13.9,8l-14.9,8.6c-3.1,1.8-4.2,5.8-2.4,8.9s5.8,4.2,8.9,2.4
			l21.4-12.4l37.8,21.8l-37.8,21.8l-21.4-12.4c-3.1-1.8-7.1-0.7-8.9,2.4l0,0c-1.8,3.1-0.7,7.1,2.4,8.9l14.9,8.6l-13.9,8
			c-3.1,1.8-4.2,5.8-2.4,8.9l0,0c1.8,3.1,5.8,4.2,8.9,2.4l13.9-8v17.2c0,3.6,2.9,6.5,6.5,6.5s6.5-2.9,6.5-6.5v-24.7l37.8-21.8V975
			l-21.4,12.4c-3.1,1.8-4.2,5.8-2.4,8.9c1.8,3.1,5.8,4.2,8.9,2.4l14.9-8.6v16c0,3.6,2.9,6.5,6.5,6.5l0,0c3.6,0,6.5-2.9,6.5-6.5v-16
			l14.9,8.6c3.1,1.8,7.1,0.7,8.9-2.4s0.7-7.1-2.4-8.9l-21.4-12.4v-43.6l37.8,21.8v24.7c0,3.6,2.9,6.5,6.5,6.5l0,0
			c3.6,0,6.5-2.9,6.5-6.5v-17.2l13.9,8c3.1,1.8,7.1,0.7,8.9-2.4l0,0c1.8-3.1,0.7-7.1-2.4-8.9l-13.9-8l14.9-8.6
			C1350.4,939,1351.5,935,1349.7,931.9z"/>
	</g>
	<title>clock</title>
	<g>
		<rect x="267" y="898.2" class="st4" width="866" height="23.3"/>
		<g>
			<rect x="308.3" y="563.1" class="st5" width="748.6" height="335.1"/>
			<rect x="308.3" y="283" class="st6" width="783.4" height="280.1"/>
			<polygon class="st5" points="930,283 768.3,563.1 768.3,898.2 1091.7,898.2 1091.7,563.1 			"/>
			<rect x="829.5" y="576.2" class="st3" width="95.1" height="95.1"/>
			<rect x="935.5" y="576.2" class="st3" width="95.1" height="95.1"/>
			<rect x="829.5" y="706.3" class="st3" width="201.1" height="95.1"/>
			<polygon class="st5" points="470,283 308.3,563.1 308.3,898.2 631.7,898.2 631.7,563.1 			"/>
			<rect x="369.5" y="576.2" class="st3" width="95.1" height="95.1"/>
			<rect x="475.5" y="576.2" class="st3" width="95.1" height="95.1"/>
			<rect x="369.5" y="706.3" class="st3" width="201.1" height="95.1"/>
			<rect x="506.3" y="178.5" class="st4" width="63.8" height="104.5"/>
			<rect x="631.7" y="563.1" class="st7" width="136.5" height="335.1"/>
			<rect x="662.6" y="774.7" class="st8" width="74.9" height="123.5"/>
		</g>
		<rect x="663.8" y="611.6" class="st3" width="72.5" height="72.5"/>
	</g>
	<path class="st9" d="M389,881.2c0,0,21.7,6.4,28.4,6.3c6.7-0.1,8.5-6.4,3.9-13.3c-4.6-6.9-4-11.2,2.6-11.1
		c6.5,0.1,20.3,3.9,25.4,2.2c5.2-1.7,5.6-9.3-0.6-10.3c-6.2-1-14.5,3.4-22.6,1.3c-8.1-2-16-6.3-17.8-13.3c-1.8-7,1.1-14.3,14.7-20.7
		c-6.9-6.7-6-15.1-2-16.5s10.2-0.3,15.6-2.8c5.4-2.5,5.6-11-1.9-10.6S421,798,413,797.5s-15.5-2.8-18.4-8.2
		c9.8-1.5,5.7-14.6,1.8-19.6c14.9-0.7,19.7-10.5,13.5-10.9c-6.2-0.4-33.3,1.9-42.1-2.1c-8.9-4-10.1-15.8-2.4-18.1s10.9-1.6,12.2-5.2
		c1.3-3.6,0.9-7,0.9-7s6.6,1,12.3-3.7c5.8-4.6-0.3-7-5.2-7s-20.2,1.5-31.2-4.4s-16.1-20-16.1-20s20.4,1.2,21.2-15.5
		c15.3,7.5,19.8-8.7,16.3-8.7s-32.5,3.8-39.2-4.4c10.7-1.9,9.9-8.8,8.1-11c-1.8-2.2-2.9-4.9,1.9-5.9c4.8-1,10.2-2.9,7-5.4
		c-3.3-2.5-8.8,0.7-12.3,1.3c-3.6,0.6-19.4,1.9-18.9-9c0.6-10.9,10.2-11,14.6-12.1c4.4-1.1,6-4.8-0.7-5.4
		c-6.6-0.6-13.1,1.9-12.6-10.1c0.6-12,1.2-14.5-2.1-14.6c-3.4-0.1-3.8,7.8-4.3,12.5s0.6,8.3-5.1,8.3s-9.4,0.3-6.1,3
		c3.4,2.7,9.9,7.6,6.1,13.6c-3.8,6-10.2,9.8-18.4,8.8s-15.5-5.7-17.2-4.5c-1.7,1.2,1.8,4.4,3.3,5.4s2.2,2.6-0.2,5.6
		c-2.4,2.9-0.3,8.3,2.7,5.4c3-2.9,4.3-5.3,6.7-4.7c2.4,0.6-2.1,5.6-1,7.3s7.2-0.6,11.3-0.1c4,0.5,8.3,5.8,2.6,12.1
		c-5.6,6.3-20.1,9.3-29.2,7.2S251,662,246.4,659c-4.7-2.9-8.9-0.3-3.4,2.9s10.8,5.7,8.9,7.8c-1.9,2.1-7.8,5.3-4.6,7.4
		c3.3,2.1,5.3,0.2,8.9-1.4c3.5-1.6,5.3-2.2,5.8,2.4c0.6,4.7,1.2,5.7,5.1,3.9c3.9-1.7,7.9-2.8,9.7,0.8c1.7,3.5,0.8,7.4-2.3,11.7
		s-12.9,14.5-25.9,15.4s-31-3.3-32.4-3.1c-1.3,0.1-1.3,1.8,1.7,3.2c3,1.4,4.9,3.3,1.9,4.1c-3.1,0.8-6.4,2.1-2.9,3.7
		c3.4,1.6,7.1-0.8,9.2,1.5c2.1,2.3,1.5,3.1-0.8,5.5c-2.3,2.4-0.1,4.6,4.5,4.6c4.6,0,8.9-0.7,6.2,3.2s-5.8,7-3.1,11.9
		c2.7,4.9,9.4,2.5,10.9-0.6c-0.9,6.7-12.1,20-27.3,19.1s-26.6-5.3-29.6-2.2c-3,3.1-2.3,8.2,0,12.3s6.2,8.4,1.4,10.9
		s-13,4.3-12.2,7.9c0.8,3.6,3,3.9-0.1,6.2c-3,2.3-6,3.2-4.2,5.5c1.8,2.3,5.5,2.5,5.5,3.8c0,1.3-5.2,1.6-4.4,4.2
		c0.7,2.6,7.5,2.2,8.2,6.3s-7.9,10.6-17.5,8.6c-9.6-2-19.1-4.6-20.2-1.6c-1.1,3,1.2,5.3,4.4,5.5c3.1,0.2,6.3,1.4,3.6,3.8
		c-2.7,2.4-7.3,7.9-3.4,9.7c4,1.7,4.9-2.6,7.3-2.7c2.5-0.1,0.3,4.8-2.2,8.4c-2.5,3.6-1.6,6.1,1.3,6.3c2.8,0.2,7.2-3.1,8.2-2.2
		c1,0.9-3.7,6.5-6.3,10.4c-2.6,3.9-0.1,9.3,4,6.4c4-2.9,5.4-5,6.8-5c1.4,0-2.9,8.8-0.4,11.1s6.5,4.3,14.1,2.2s11.8-5.8,13.2-4
		s-5.7,8.8-3.4,12.1c2.3,3.3,7.8,0,10.3-3.1c2.5-3.1,6.1-1.6,4.3,3.5c-1.8,5.1,1.7,11.9,7.8,8.9s6.4-4.3,7.4-4.3s2.7,2.2,3.1,7.1
		c0.4,4.9,5,9.4,10.4,4.1s10-11.2,11.3-11.1c1.3,0.1-2.6,14.2,2.2,14.8s15.3-7.9,16.7-12.1c5.2,13.9,14.9,19.5,18.7-0.1
		c14.1,17.6,16.6,17.9,19,16.6c2.4-1.3,1.3-16,1.3-16s17,15,26.4,11.2c3.1-1.3-0.2-14.5-0.2-14.5s16.6,14.2,26.7,11.5
		c10.2-2.7-2.6-19-2.6-19s24.6,16,35.9,11.1C396.9,892,389,881.2,389,881.2z"/>
</g>
<g id="_2">
</g>
</svg>
