<?xml version="1.0" encoding="utf-8"?>
<!-- Generator: Adobe Illustrator 23.0.2, SVG Export Plug-In . SVG Version: 6.00 Build 0)  -->
<svg version="1.1" id="Ebene_1" xmlns="http://www.w3.org/2000/svg" xmlns:xlink="http://www.w3.org/1999/xlink" x="0px" y="0px"
	 viewBox="0 0 1400 1100" style="enable-background:new 0 0 1400 1100;" xml:space="preserve">
<style type="text/css">
	.st0{fill:#1B4691;}
	.st1{fill:#FFFFFF;}
	.st2{fill:#E3E3E2;}
	.st3{fill:#033153;}
	.st4{fill:#F2931B;}
	.st5{fill:#A7A9AC;}
	.st6{fill:#D1D3D4;}
	.st7{fill:#CC710D;}
	.st8{fill:#00A201;}
</style>
<rect y="0" class="st0" width="1400" height="1100"/>
<title>clock</title>
<g>
	<path class="st1" d="M212.6,191.7L212.6,191.7c-1.8-3.1-5.8-4.2-8.9-2.4l-21.4,12.4l-37.8-21.8l37.8-21.8l21.4,12.4
		c3.1,1.8,7.1,0.7,8.9-2.4c1.8-3.1,0.7-7.1-2.4-8.9l-14.9-8.6l13.9-8c3.1-1.8,4.2-5.8,2.4-8.9v0c-1.8-3.1-5.8-4.2-8.9-2.4l-13.9,8
		v-17.2c0-3.6-2.9-6.5-6.5-6.5l0,0c-3.6,0-6.5,2.9-6.5,6.5v24.7L138,168.6V125l21.4-12.4c3.1-1.8,4.2-5.8,2.4-8.9v0
		c-1.8-3.1-5.8-4.2-8.9-2.4l-14.9,8.6v-16c0-3.6-2.9-6.5-6.5-6.5l0,0c-3.6,0-6.5,2.9-6.5,6.5v16l-14.9-8.6c-3.1-1.8-7.1-0.7-8.9,2.4
		v0c-1.8,3.1-0.7,7.1,2.4,8.9l21.4,12.4v43.6l-37.8-21.8v-24.7c0-3.6-2.9-6.5-6.5-6.5s-6.5,2.9-6.5,6.5v17.2l-13.9-8
		c-3.1-1.8-7.1-0.7-8.9,2.4v0c-1.8,3.1-0.7,7.1,2.4,8.9l13.9,8l-14.9,8.6c-3.1,1.8-4.2,5.8-2.4,8.9c1.8,3.1,5.8,4.2,8.9,2.4
		l21.4-12.4l37.8,21.8l-37.8,21.8l-21.4-12.4c-3.1-1.8-7.1-0.7-8.9,2.4v0c-1.8,3.1-0.7,7.1,2.4,8.9l14.9,8.6l-13.9,8
		c-3.1,1.8-4.2,5.8-2.4,8.9v0c1.8,3.1,5.8,4.2,8.9,2.4l13.9-8v17.2c0,3.6,2.9,6.5,6.5,6.5s6.5-2.9,6.5-6.5V213l37.8-21.8v43.6
		l-21.4,12.4c-3.1,1.8-4.2,5.8-2.4,8.9c1.8,3.1,5.8,4.2,8.9,2.4l14.9-8.6v16c0,3.6,2.9,6.5,6.5,6.5l0,0c3.6,0,6.5-2.9,6.5-6.5v-16
		l14.9,8.6c3.1,1.8,7.1,0.7,8.9-2.4c1.8-3.1,0.7-7.1-2.4-8.9L138,234.8v-43.6l37.8,21.8v24.7c0,3.6,2.9,6.5,6.5,6.5l0,0
		c3.6,0,6.5-2.9,6.5-6.5v-17.2l13.9,8c3.1,1.8,7.1,0.7,8.9-2.4v0c1.8-3.1,0.7-7.1-2.4-8.9l-13.9-8l14.9-8.6
		C213.3,198.8,214.4,194.9,212.6,191.7z"/>
	<path class="st1" d="M591.6,191.7L591.6,191.7c-1.8-3.1-5.8-4.2-8.9-2.4l-21.4,12.4l-37.8-21.8l37.8-21.8l21.4,12.4
		c3.1,1.8,7.1,0.7,8.9-2.4s0.7-7.1-2.4-8.9l-14.9-8.6l13.9-8c3.1-1.8,4.2-5.8,2.4-8.9v0c-1.8-3.1-5.8-4.2-8.9-2.4l-13.9,8v-17.2
		c0-3.6-2.9-6.5-6.5-6.5l0,0c-3.6,0-6.5,2.9-6.5,6.5v24.7L517,168.6V125l21.4-12.4c3.1-1.8,4.2-5.8,2.4-8.9v0
		c-1.8-3.1-5.8-4.2-8.9-2.4l-14.9,8.6v-16c0-3.6-2.9-6.5-6.5-6.5l0,0c-3.6,0-6.5,2.9-6.5,6.5v16l-14.9-8.6c-3.1-1.8-7.1-0.7-8.9,2.4
		v0c-1.8,3.1-0.7,7.1,2.4,8.9L504,125v43.6l-37.8-21.8v-24.7c0-3.6-2.9-6.5-6.5-6.5s-6.5,2.9-6.5,6.5v17.2l-13.9-8
		c-3.1-1.8-7.1-0.7-8.9,2.4v0c-1.8,3.1-0.7,7.1,2.4,8.9l13.9,8l-14.9,8.6c-3.1,1.8-4.2,5.8-2.4,8.9s5.8,4.2,8.9,2.4l21.4-12.4
		l37.8,21.8l-37.8,21.8l-21.4-12.4c-3.1-1.8-7.1-0.7-8.9,2.4v0c-1.8,3.1-0.7,7.1,2.4,8.9l14.9,8.6l-13.9,8c-3.1,1.8-4.2,5.8-2.4,8.9
		v0c1.8,3.1,5.8,4.2,8.9,2.4l13.9-8v17.2c0,3.6,2.9,6.5,6.5,6.5s6.5-2.9,6.5-6.5V213l37.8-21.8v43.6l-21.4,12.4
		c-3.1,1.8-4.2,5.8-2.4,8.9c1.8,3.1,5.8,4.2,8.9,2.4l14.9-8.6v16c0,3.6,2.9,6.5,6.5,6.5l0,0c3.6,0,6.5-2.9,6.5-6.5v-16l14.9,8.6
		c3.1,1.8,7.1,0.7,8.9-2.4c1.8-3.1,0.7-7.1-2.4-8.9L517,234.8v-43.6l37.8,21.8v24.7c0,3.6,2.9,6.5,6.5,6.5l0,0
		c3.6,0,6.5-2.9,6.5-6.5v-17.2l13.9,8c3.1,1.8,7.1,0.7,8.9-2.4v0c1.8-3.1,0.7-7.1-2.4-8.9l-13.9-8l14.9-8.6
		C592.4,198.8,593.4,194.9,591.6,191.7z"/>
	<path class="st1" d="M970.7,191.7L970.7,191.7c-1.8-3.1-5.8-4.2-8.9-2.4l-21.4,12.4l-37.8-21.8l37.8-21.8l21.4,12.4
		c3.1,1.8,7.1,0.7,8.9-2.4s0.7-7.1-2.4-8.9l-14.9-8.6l13.9-8c3.1-1.8,4.2-5.8,2.4-8.9v0c-1.8-3.1-5.8-4.2-8.9-2.4l-13.9,8v-17.2
		c0-3.6-2.9-6.5-6.5-6.5l0,0c-3.6,0-6.5,2.9-6.5,6.5v24.7L896,168.6V125l21.4-12.4c3.1-1.8,4.2-5.8,2.4-8.9v0
		c-1.8-3.1-5.8-4.2-8.9-2.4l-14.9,8.6v-16c0-3.6-2.9-6.5-6.5-6.5l0,0c-3.6,0-6.5,2.9-6.5,6.5v16l-14.9-8.6c-3.1-1.8-7.1-0.7-8.9,2.4
		v0c-1.8,3.1-0.7,7.1,2.4,8.9L883,125v43.6l-37.8-21.8v-24.7c0-3.6-2.9-6.5-6.5-6.5s-6.5,2.9-6.5,6.5v17.2l-13.9-8
		c-3.1-1.8-7.1-0.7-8.9,2.4v0c-1.8,3.1-0.7,7.1,2.4,8.9l13.9,8l-14.9,8.6c-3.1,1.8-4.2,5.8-2.4,8.9s5.8,4.2,8.9,2.4l21.4-12.4
		l37.8,21.8l-37.8,21.8l-21.4-12.4c-3.1-1.8-7.1-0.7-8.9,2.4v0c-1.8,3.1-0.7,7.1,2.4,8.9l14.9,8.6l-13.9,8c-3.1,1.8-4.2,5.8-2.4,8.9
		v0c1.8,3.1,5.8,4.2,8.9,2.4l13.9-8v17.2c0,3.6,2.9,6.5,6.5,6.5s6.5-2.9,6.5-6.5V213l37.8-21.8v43.6l-21.4,12.4
		c-3.1,1.8-4.2,5.8-2.4,8.9c1.8,3.1,5.8,4.2,8.9,2.4l14.9-8.6v16c0,3.6,2.9,6.5,6.5,6.5l0,0c3.6,0,6.5-2.9,6.5-6.5v-16l14.9,8.6
		c3.1,1.8,7.1,0.7,8.9-2.4c1.8-3.1,0.7-7.1-2.4-8.9L896,234.8v-43.6l37.8,21.8v24.7c0,3.6,2.9,6.5,6.5,6.5l0,0
		c3.6,0,6.5-2.9,6.5-6.5v-17.2l13.9,8c3.1,1.8,7.1,0.7,8.9-2.4v0c1.8-3.1,0.7-7.1-2.4-8.9l-13.9-8l14.9-8.6
		C971.4,198.8,972.5,194.9,970.7,191.7z"/>
	<path class="st1" d="M1349.7,191.7L1349.7,191.7c-1.8-3.1-5.8-4.2-8.9-2.4l-21.4,12.4l-37.8-21.8l37.8-21.8l21.4,12.4
		c3.1,1.8,7.1,0.7,8.9-2.4s0.7-7.1-2.4-8.9l-14.9-8.6l13.9-8c3.1-1.8,4.2-5.8,2.4-8.9v0c-1.8-3.1-5.8-4.2-8.9-2.4l-13.9,8v-17.2
		c0-3.6-2.9-6.5-6.5-6.5l0,0c-3.6,0-6.5,2.9-6.5,6.5v24.7l-37.8,21.8V125l21.4-12.4c3.1-1.8,4.2-5.8,2.4-8.9v0
		c-1.8-3.1-5.8-4.2-8.9-2.4l-14.9,8.6v-16c0-3.6-2.9-6.5-6.5-6.5l0,0c-3.6,0-6.5,2.9-6.5,6.5v16l-14.9-8.6c-3.1-1.8-7.1-0.7-8.9,2.4
		v0c-1.8,3.1-0.7,7.1,2.4,8.9L1262,125v43.6l-37.8-21.8v-24.7c0-3.6-2.9-6.5-6.5-6.5s-6.5,2.9-6.5,6.5v17.2l-13.9-8
		c-3.1-1.8-7.1-0.7-8.9,2.4v0c-1.8,3.1-0.7,7.1,2.4,8.9l13.9,8l-14.9,8.6c-3.1,1.8-4.2,5.8-2.4,8.9s5.8,4.2,8.9,2.4l21.4-12.4
		l37.8,21.8l-37.8,21.8l-21.4-12.4c-3.1-1.8-7.1-0.7-8.9,2.4v0c-1.8,3.1-0.7,7.1,2.4,8.9l14.9,8.6l-13.9,8c-3.1,1.8-4.2,5.8-2.4,8.9
		v0c1.8,3.1,5.8,4.2,8.9,2.4l13.9-8v17.2c0,3.6,2.9,6.5,6.5,6.5s6.5-2.9,6.5-6.5V213l37.8-21.8v43.6l-21.4,12.4
		c-3.1,1.8-4.2,5.8-2.4,8.9c1.8,3.1,5.8,4.2,8.9,2.4l14.9-8.6v16c0,3.6,2.9,6.5,6.5,6.5l0,0c3.6,0,6.5-2.9,6.5-6.5v-16l14.9,8.6
		c3.1,1.8,7.1,0.7,8.9-2.4c1.8-3.1,0.7-7.1-2.4-8.9l-21.4-12.4v-43.6l37.8,21.8v24.7c0,3.6,2.9,6.5,6.5,6.5l0,0
		c3.6,0,6.5-2.9,6.5-6.5v-17.2l13.9,8c3.1,1.8,7.1,0.7,8.9-2.4v0c1.8-3.1,0.7-7.1-2.4-8.9l-13.9-8l14.9-8.6
		C1350.4,198.8,1351.5,194.9,1349.7,191.7z"/>
	<path class="st1" d="M402.1,376.8L402.1,376.8c-1.8-3.1-5.8-4.2-8.9-2.4l-21.4,12.4L334,365l37.8-21.8l21.4,12.4
		c3.1,1.8,7.1,0.7,8.9-2.4c1.8-3.1,0.7-7.1-2.4-8.9l-14.9-8.6l13.9-8c3.1-1.8,4.2-5.8,2.4-8.9v0c-1.8-3.1-5.8-4.2-8.9-2.4l-13.9,8
		v-17.2c0-3.6-2.9-6.5-6.5-6.5l0,0c-3.6,0-6.5,2.9-6.5,6.5v24.7l-37.8,21.8V310l21.4-12.4c3.1-1.8,4.2-5.8,2.4-8.9v0
		c-1.8-3.1-5.8-4.2-8.9-2.4l-14.9,8.6v-16c0-3.6-2.9-6.5-6.5-6.5l0,0c-3.6,0-6.5,2.9-6.5,6.5v16l-14.9-8.6c-3.1-1.8-7.1-0.7-8.9,2.4
		v0c-1.8,3.1-0.7,7.1,2.4,8.9l21.4,12.4v43.6l-37.8-21.8v-24.7c0-3.6-2.9-6.5-6.5-6.5c-3.6,0-6.5,2.9-6.5,6.5v17.2l-13.9-8
		c-3.1-1.8-7.1-0.7-8.9,2.4v0c-1.8,3.1-0.7,7.1,2.4,8.9l13.9,8l-14.9,8.6c-3.1,1.8-4.2,5.8-2.4,8.9s5.8,4.2,8.9,2.4l21.4-12.4
		l37.8,21.8l-37.8,21.8l-21.4-12.4c-3.1-1.8-7.1-0.7-8.9,2.4v0c-1.8,3.1-0.7,7.1,2.4,8.9l14.9,8.6l-13.9,8c-3.1,1.8-4.2,5.8-2.4,8.9
		l0,0c1.8,3.1,5.8,4.2,8.9,2.4l13.9-8v17.2c0,3.6,2.9,6.5,6.5,6.5c3.6,0,6.5-2.9,6.5-6.5v-24.7l37.8-21.8v43.6L293,432.2
		c-3.1,1.8-4.2,5.8-2.4,8.9c1.8,3.1,5.8,4.2,8.9,2.4l14.9-8.6v16c0,3.6,2.9,6.5,6.5,6.5l0,0c3.6,0,6.5-2.9,6.5-6.5v-16l14.9,8.6
		c3.1,1.8,7.1,0.7,8.9-2.4c1.8-3.1,0.7-7.1-2.4-8.9l-21.4-12.4v-43.6l37.8,21.8v24.7c0,3.6,2.9,6.5,6.5,6.5l0,0
		c3.6,0,6.5-2.9,6.5-6.5v-17.2l13.9,8c3.1,1.8,7.1,0.7,8.9-2.4l0,0c1.8-3.1,0.7-7.1-2.4-8.9l-13.9-8l14.9-8.6
		C402.8,383.9,403.9,379.9,402.1,376.8z"/>
	<path class="st1" d="M781.1,376.8L781.1,376.8c-1.8-3.1-5.8-4.2-8.9-2.4l-21.4,12.4L713,365l37.8-21.8l21.4,12.4
		c3.1,1.8,7.1,0.7,8.9-2.4c1.8-3.1,0.7-7.1-2.4-8.9l-14.9-8.6l13.9-8c3.1-1.8,4.2-5.8,2.4-8.9v0c-1.8-3.1-5.8-4.2-8.9-2.4l-13.9,8
		v-17.2c0-3.6-2.9-6.5-6.5-6.5l0,0c-3.6,0-6.5,2.9-6.5,6.5v24.7l-37.8,21.8V310l21.4-12.4c3.1-1.8,4.2-5.8,2.4-8.9v0
		c-1.8-3.1-5.8-4.2-8.9-2.4l-14.9,8.6v-16c0-3.6-2.9-6.5-6.5-6.5l0,0c-3.6,0-6.5,2.9-6.5,6.5v16l-14.9-8.6c-3.1-1.8-7.1-0.7-8.9,2.4
		v0c-1.8,3.1-0.7,7.1,2.4,8.9l21.4,12.4v43.6l-37.8-21.8v-24.7c0-3.6-2.9-6.5-6.5-6.5c-3.6,0-6.5,2.9-6.5,6.5v17.2l-13.9-8
		c-3.1-1.8-7.1-0.7-8.9,2.4v0c-1.8,3.1-0.7,7.1,2.4,8.9l13.9,8l-14.9,8.6c-3.1,1.8-4.2,5.8-2.4,8.9c1.8,3.1,5.8,4.2,8.9,2.4
		l21.4-12.4L687,365l-37.8,21.8l-21.4-12.4c-3.1-1.8-7.1-0.7-8.9,2.4v0c-1.8,3.1-0.7,7.1,2.4,8.9l14.9,8.6l-13.9,8
		c-3.1,1.8-4.2,5.8-2.4,8.9l0,0c1.8,3.1,5.8,4.2,8.9,2.4l13.9-8v17.2c0,3.6,2.9,6.5,6.5,6.5c3.6,0,6.5-2.9,6.5-6.5v-24.7l37.8-21.8
		v43.6l-21.4,12.4c-3.1,1.8-4.2,5.8-2.4,8.9c1.8,3.1,5.8,4.2,8.9,2.4l14.9-8.6v16c0,3.6,2.9,6.5,6.5,6.5l0,0c3.6,0,6.5-2.9,6.5-6.5
		v-16l14.9,8.6c3.1,1.8,7.1,0.7,8.9-2.4c1.8-3.1,0.7-7.1-2.4-8.9l-21.4-12.4v-43.6l37.8,21.8v24.7c0,3.6,2.9,6.5,6.5,6.5l0,0
		c3.6,0,6.5-2.9,6.5-6.5v-17.2l13.9,8c3.1,1.8,7.1,0.7,8.9-2.4l0,0c1.8-3.1,0.7-7.1-2.4-8.9l-13.9-8l14.9-8.6
		C781.9,383.9,782.9,379.9,781.1,376.8z"/>
	<path class="st1" d="M212.6,561.8L212.6,561.8c-1.8-3.1-5.8-4.2-8.9-2.4l-21.4,12.4L144.5,550l37.8-21.8l21.4,12.4
		c3.1,1.8,7.1,0.7,8.9-2.4c1.8-3.1,0.7-7.1-2.4-8.9l-14.9-8.6l13.9-8c3.1-1.8,4.2-5.8,2.4-8.9v0c-1.8-3.1-5.8-4.2-8.9-2.4l-13.9,8
		v-17.2c0-3.6-2.9-6.5-6.5-6.5l0,0c-3.6,0-6.5,2.9-6.5,6.5v24.7L138,538.7v-43.6l21.4-12.4c3.1-1.8,4.2-5.8,2.4-8.9l0,0
		c-1.8-3.1-5.8-4.2-8.9-2.4L138,480v-16c0-3.6-2.9-6.5-6.5-6.5l0,0c-3.6,0-6.5,2.9-6.5,6.5v16l-14.9-8.6c-3.1-1.8-7.1-0.7-8.9,2.4
		l0,0c-1.8,3.1-0.7,7.1,2.4,8.9l21.4,12.4v43.6l-37.8-21.8v-24.7c0-3.6-2.9-6.5-6.5-6.5s-6.5,2.9-6.5,6.5v17.2l-13.9-8
		c-3.1-1.8-7.1-0.7-8.9,2.4v0c-1.8,3.1-0.7,7.1,2.4,8.9l13.9,8l-14.9,8.6c-3.1,1.8-4.2,5.8-2.4,8.9c1.8,3.1,5.8,4.2,8.9,2.4
		l21.4-12.4l37.8,21.8l-37.8,21.8l-21.4-12.4c-3.1-1.8-7.1-0.7-8.9,2.4v0c-1.8,3.1-0.7,7.1,2.4,8.9l14.9,8.6l-13.9,8
		c-3.1,1.8-4.2,5.8-2.4,8.9l0,0c1.8,3.1,5.8,4.2,8.9,2.4l13.9-8v17.2c0,3.6,2.9,6.5,6.5,6.5s6.5-2.9,6.5-6.5v-24.7l37.8-21.8v43.6
		l-21.4,12.4c-3.1,1.8-4.2,5.8-2.4,8.9c1.8,3.1,5.8,4.2,8.9,2.4l14.9-8.6v16c0,3.6,2.9,6.5,6.5,6.5l0,0c3.6,0,6.5-2.9,6.5-6.5v-16
		l14.9,8.6c3.1,1.8,7.1,0.7,8.9-2.4c1.8-3.1,0.7-7.1-2.4-8.9L138,604.9v-43.6l37.8,21.8v24.7c0,3.6,2.9,6.5,6.5,6.5l0,0
		c3.6,0,6.5-2.9,6.5-6.5v-17.2l13.9,8c3.1,1.8,7.1,0.7,8.9-2.4l0,0c1.8-3.1,0.7-7.1-2.4-8.9l-13.9-8l14.9-8.6
		C213.3,568.9,214.4,564.9,212.6,561.8z"/>
	<path class="st1" d="M591.6,561.8L591.6,561.8c-1.8-3.1-5.8-4.2-8.9-2.4l-21.4,12.4L523.5,550l37.8-21.8l21.4,12.4
		c3.1,1.8,7.1,0.7,8.9-2.4c1.8-3.1,0.7-7.1-2.4-8.9l-14.9-8.6l13.9-8c3.1-1.8,4.2-5.8,2.4-8.9v0c-1.8-3.1-5.8-4.2-8.9-2.4l-13.9,8
		v-17.2c0-3.6-2.9-6.5-6.5-6.5l0,0c-3.6,0-6.5,2.9-6.5,6.5v24.7L517,538.7v-43.6l21.4-12.4c3.1-1.8,4.2-5.8,2.4-8.9l0,0
		c-1.8-3.1-5.8-4.2-8.9-2.4L517,480v-16c0-3.6-2.9-6.5-6.5-6.5l0,0c-3.6,0-6.5,2.9-6.5,6.5v16l-14.9-8.6c-3.1-1.8-7.1-0.7-8.9,2.4
		l0,0c-1.8,3.1-0.7,7.1,2.4,8.9l21.4,12.4v43.6l-37.8-21.8v-24.7c0-3.6-2.9-6.5-6.5-6.5s-6.5,2.9-6.5,6.5v17.2l-13.9-8
		c-3.1-1.8-7.1-0.7-8.9,2.4v0c-1.8,3.1-0.7,7.1,2.4,8.9l13.9,8l-14.9,8.6c-3.1,1.8-4.2,5.8-2.4,8.9c1.8,3.1,5.8,4.2,8.9,2.4
		l21.4-12.4l37.8,21.8l-37.8,21.8l-21.4-12.4c-3.1-1.8-7.1-0.7-8.9,2.4v0c-1.8,3.1-0.7,7.1,2.4,8.9l14.9,8.6l-13.9,8
		c-3.1,1.8-4.2,5.8-2.4,8.9l0,0c1.8,3.1,5.8,4.2,8.9,2.4l13.9-8v17.2c0,3.6,2.9,6.5,6.5,6.5s6.5-2.9,6.5-6.5v-24.7l37.8-21.8v43.6
		l-21.4,12.4c-3.1,1.8-4.2,5.8-2.4,8.9c1.8,3.1,5.8,4.2,8.9,2.4L504,620v16c0,3.6,2.9,6.5,6.5,6.5l0,0c3.6,0,6.5-2.9,6.5-6.5v-16
		l14.9,8.6c3.1,1.8,7.1,0.7,8.9-2.4c1.8-3.1,0.7-7.1-2.4-8.9L517,604.9v-43.6l37.8,21.8v24.7c0,3.6,2.9,6.5,6.5,6.5l0,0
		c3.6,0,6.5-2.9,6.5-6.5v-17.2l13.9,8c3.1,1.8,7.1,0.7,8.9-2.4l0,0c1.8-3.1,0.7-7.1-2.4-8.9l-13.9-8l14.9-8.6
		C592.4,568.9,593.4,564.9,591.6,561.8z"/>
	<path class="st1" d="M970.7,561.8L970.7,561.8c-1.8-3.1-5.8-4.2-8.9-2.4l-21.4,12.4L902.6,550l37.8-21.8l21.4,12.4
		c3.1,1.8,7.1,0.7,8.9-2.4c1.8-3.1,0.7-7.1-2.4-8.9l-14.9-8.6l13.9-8c3.1-1.8,4.2-5.8,2.4-8.9v0c-1.8-3.1-5.8-4.2-8.9-2.4l-13.9,8
		v-17.2c0-3.6-2.9-6.5-6.5-6.5l0,0c-3.6,0-6.5,2.9-6.5,6.5v24.7L896,538.7v-43.6l21.4-12.4c3.1-1.8,4.2-5.8,2.4-8.9l0,0
		c-1.8-3.1-5.8-4.2-8.9-2.4L896,480v-16c0-3.6-2.9-6.5-6.5-6.5l0,0c-3.6,0-6.5,2.9-6.5,6.5v16l-14.9-8.6c-3.1-1.8-7.1-0.7-8.9,2.4
		l0,0c-1.8,3.1-0.7,7.1,2.4,8.9l21.4,12.4v43.6l-37.8-21.8v-24.7c0-3.6-2.9-6.5-6.5-6.5s-6.5,2.9-6.5,6.5v17.2l-13.9-8
		c-3.1-1.8-7.1-0.7-8.9,2.4v0c-1.8,3.1-0.7,7.1,2.4,8.9l13.9,8l-14.9,8.6c-3.1,1.8-4.2,5.8-2.4,8.9c1.8,3.1,5.8,4.2,8.9,2.4
		l21.4-12.4l37.8,21.8l-37.8,21.8l-21.4-12.4c-3.1-1.8-7.1-0.7-8.9,2.4v0c-1.8,3.1-0.7,7.1,2.4,8.9l14.9,8.6l-13.9,8
		c-3.1,1.8-4.2,5.8-2.4,8.9l0,0c1.8,3.1,5.8,4.2,8.9,2.4l13.9-8v17.2c0,3.6,2.9,6.5,6.5,6.5s6.5-2.9,6.5-6.5v-24.7l37.8-21.8v43.6
		l-21.4,12.4c-3.1,1.8-4.2,5.8-2.4,8.9c1.8,3.1,5.8,4.2,8.9,2.4L883,620v16c0,3.6,2.9,6.5,6.5,6.5l0,0c3.6,0,6.5-2.9,6.5-6.5v-16
		l14.9,8.6c3.1,1.8,7.1,0.7,8.9-2.4c1.8-3.1,0.7-7.1-2.4-8.9L896,604.9v-43.6l37.8,21.8v24.7c0,3.6,2.9,6.5,6.5,6.5l0,0
		c3.6,0,6.5-2.9,6.5-6.5v-17.2l13.9,8c3.1,1.8,7.1,0.7,8.9-2.4l0,0c1.8-3.1,0.7-7.1-2.4-8.9l-13.9-8l14.9-8.6
		C971.4,568.9,972.5,564.9,970.7,561.8z"/>
	<path class="st1" d="M1349.7,561.8L1349.7,561.8c-1.8-3.1-5.8-4.2-8.9-2.4l-21.4,12.4l-37.8-21.8l37.8-21.8l21.4,12.4
		c3.1,1.8,7.1,0.7,8.9-2.4c1.8-3.1,0.7-7.1-2.4-8.9l-14.9-8.6l13.9-8c3.1-1.8,4.2-5.8,2.4-8.9v0c-1.8-3.1-5.8-4.2-8.9-2.4l-13.9,8
		v-17.2c0-3.6-2.9-6.5-6.5-6.5l0,0c-3.6,0-6.5,2.9-6.5,6.5v24.7l-37.8,21.8v-43.6l21.4-12.4c3.1-1.8,4.2-5.8,2.4-8.9l0,0
		c-1.8-3.1-5.8-4.2-8.9-2.4l-14.9,8.6v-16c0-3.6-2.9-6.5-6.5-6.5l0,0c-3.6,0-6.5,2.9-6.5,6.5v16l-14.9-8.6c-3.1-1.8-7.1-0.7-8.9,2.4
		l0,0c-1.8,3.1-0.7,7.1,2.4,8.9l21.4,12.4v43.6l-37.8-21.8v-24.7c0-3.6-2.9-6.5-6.5-6.5s-6.5,2.9-6.5,6.5v17.2l-13.9-8
		c-3.1-1.8-7.1-0.7-8.9,2.4v0c-1.8,3.1-0.7,7.1,2.4,8.9l13.9,8l-14.9,8.6c-3.1,1.8-4.2,5.8-2.4,8.9c1.8,3.1,5.8,4.2,8.9,2.4
		l21.4-12.4l37.8,21.8l-37.8,21.8l-21.4-12.4c-3.1-1.8-7.1-0.7-8.9,2.4v0c-1.8,3.1-0.7,7.1,2.4,8.9l14.9,8.6l-13.9,8
		c-3.1,1.8-4.2,5.8-2.4,8.9l0,0c1.8,3.1,5.8,4.2,8.9,2.4l13.9-8v17.2c0,3.6,2.9,6.5,6.5,6.5s6.5-2.9,6.5-6.5v-24.7l37.8-21.8v43.6
		l-21.4,12.4c-3.1,1.8-4.2,5.8-2.4,8.9c1.8,3.1,5.8,4.2,8.9,2.4l14.9-8.6v16c0,3.6,2.9,6.5,6.5,6.5l0,0c3.6,0,6.5-2.9,6.5-6.5v-16
		l14.9,8.6c3.1,1.8,7.1,0.7,8.9-2.4c1.8-3.1,0.7-7.1-2.4-8.9l-21.4-12.4v-43.6l37.8,21.8v24.7c0,3.6,2.9,6.5,6.5,6.5l0,0
		c3.6,0,6.5-2.9,6.5-6.5v-17.2l13.9,8c3.1,1.8,7.1,0.7,8.9-2.4l0,0c1.8-3.1,0.7-7.1-2.4-8.9l-13.9-8l14.9-8.6
		C1350.4,568.9,1351.5,564.9,1349.7,561.8z"/>
	<path class="st1" d="M402.1,746.9L402.1,746.9c-1.8-3.1-5.8-4.2-8.9-2.4l-21.4,12.4L334,735l37.8-21.8l21.4,12.4
		c3.1,1.8,7.1,0.7,8.9-2.4c1.8-3.1,0.7-7.1-2.4-8.9l-14.9-8.6l13.9-8c3.1-1.8,4.2-5.8,2.4-8.9l0,0c-1.8-3.1-5.8-4.2-8.9-2.4l-13.9,8
		v-17.2c0-3.6-2.9-6.5-6.5-6.5l0,0c-3.6,0-6.5,2.9-6.5,6.5v24.7l-37.8,21.8v-43.6l21.4-12.4c3.1-1.8,4.2-5.8,2.4-8.9l0,0
		c-1.8-3.1-5.8-4.2-8.9-2.4l-14.9,8.6v-16c0-3.6-2.9-6.5-6.5-6.5l0,0c-3.6,0-6.5,2.9-6.5,6.5v16l-14.9-8.6c-3.1-1.8-7.1-0.7-8.9,2.4
		l0,0c-1.8,3.1-0.7,7.1,2.4,8.9l21.4,12.4v43.6l-37.8-21.8v-24.7c0-3.6-2.9-6.5-6.5-6.5c-3.6,0-6.5,2.9-6.5,6.5v17.2l-13.9-8
		c-3.1-1.8-7.1-0.7-8.9,2.4l0,0c-1.8,3.1-0.7,7.1,2.4,8.9l13.9,8l-14.9,8.6c-3.1,1.8-4.2,5.8-2.4,8.9c1.8,3.1,5.8,4.2,8.9,2.4
		l21.4-12.4l37.8,21.8l-37.8,21.8l-21.4-12.4c-3.1-1.8-7.1-0.7-8.9,2.4l0,0c-1.8,3.1-0.7,7.1,2.4,8.9l14.9,8.6l-13.9,8
		c-3.1,1.8-4.2,5.8-2.4,8.9v0c1.8,3.1,5.8,4.2,8.9,2.4l13.9-8v17.2c0,3.6,2.9,6.5,6.5,6.5c3.6,0,6.5-2.9,6.5-6.5v-24.7l37.8-21.8
		V790L293,802.3c-3.1,1.8-4.2,5.8-2.4,8.9c1.8,3.1,5.8,4.2,8.9,2.4l14.9-8.6v16c0,3.6,2.9,6.5,6.5,6.5l0,0c3.6,0,6.5-2.9,6.5-6.5
		v-16l14.9,8.6c3.1,1.8,7.1,0.7,8.9-2.4c1.8-3.1,0.7-7.1-2.4-8.9L327.5,790v-43.6l37.8,21.8v24.7c0,3.6,2.9,6.5,6.5,6.5l0,0
		c3.6,0,6.5-2.9,6.5-6.5v-17.2l13.9,8c3.1,1.8,7.1,0.7,8.9-2.4v0c1.8-3.1,0.7-7.1-2.4-8.9l-13.9-8l14.9-8.6
		C402.8,754,403.9,750,402.1,746.9z"/>
	<path class="st1" d="M781.1,746.9L781.1,746.9c-1.8-3.1-5.8-4.2-8.9-2.4l-21.4,12.4L713,735l37.8-21.8l21.4,12.4
		c3.1,1.8,7.1,0.7,8.9-2.4c1.8-3.1,0.7-7.1-2.4-8.9l-14.9-8.6l13.9-8c3.1-1.8,4.2-5.8,2.4-8.9l0,0c-1.8-3.1-5.8-4.2-8.9-2.4l-13.9,8
		v-17.2c0-3.6-2.9-6.5-6.5-6.5l0,0c-3.6,0-6.5,2.9-6.5,6.5v24.7l-37.8,21.8v-43.6l21.4-12.4c3.1-1.8,4.2-5.8,2.4-8.9l0,0
		c-1.8-3.1-5.8-4.2-8.9-2.4l-14.9,8.6v-16c0-3.6-2.9-6.5-6.5-6.5l0,0c-3.6,0-6.5,2.9-6.5,6.5v16l-14.9-8.6c-3.1-1.8-7.1-0.7-8.9,2.4
		l0,0c-1.8,3.1-0.7,7.1,2.4,8.9l21.4,12.4v43.6l-37.8-21.8v-24.7c0-3.6-2.9-6.5-6.5-6.5c-3.6,0-6.5,2.9-6.5,6.5v17.2l-13.9-8
		c-3.1-1.8-7.1-0.7-8.9,2.4l0,0c-1.8,3.1-0.7,7.1,2.4,8.9l13.9,8l-14.9,8.6c-3.1,1.8-4.2,5.8-2.4,8.9c1.8,3.1,5.8,4.2,8.9,2.4
		l21.4-12.4L687,735l-37.8,21.8l-21.4-12.4c-3.1-1.8-7.1-0.7-8.9,2.4l0,0c-1.8,3.1-0.7,7.1,2.4,8.9l14.9,8.6l-13.9,8
		c-3.1,1.8-4.2,5.8-2.4,8.9v0c1.8,3.1,5.8,4.2,8.9,2.4l13.9-8v17.2c0,3.6,2.9,6.5,6.5,6.5c3.6,0,6.5-2.9,6.5-6.5v-24.7l37.8-21.8
		V790l-21.4,12.4c-3.1,1.8-4.2,5.8-2.4,8.9c1.8,3.1,5.8,4.2,8.9,2.4l14.9-8.6v16c0,3.6,2.9,6.5,6.5,6.5l0,0c3.6,0,6.5-2.9,6.5-6.5
		v-16l14.9,8.6c3.1,1.8,7.1,0.7,8.9-2.4c1.8-3.1,0.7-7.1-2.4-8.9L706.5,790v-43.6l37.8,21.8v24.7c0,3.6,2.9,6.5,6.5,6.5l0,0
		c3.6,0,6.5-2.9,6.5-6.5v-17.2l13.9,8c3.1,1.8,7.1,0.7,8.9-2.4v0c1.8-3.1,0.7-7.1-2.4-8.9l-13.9-8l14.9-8.6
		C781.9,754,782.9,750,781.1,746.9z"/>
	<path class="st1" d="M1160.2,746.9L1160.2,746.9c-1.8-3.1-5.8-4.2-8.9-2.4l-21.4,12.4l-37.8-21.8l37.8-21.8l21.4,12.4
		c3.1,1.8,7.1,0.7,8.9-2.4c1.8-3.1,0.7-7.1-2.4-8.9l-14.9-8.6l13.9-8c3.1-1.8,4.2-5.8,2.4-8.9l0,0c-1.8-3.1-5.8-4.2-8.9-2.4l-13.9,8
		v-17.2c0-3.6-2.9-6.5-6.5-6.5l0,0c-3.6,0-6.5,2.9-6.5,6.5v24.7l-37.8,21.8v-43.6l21.4-12.4c3.1-1.8,4.2-5.8,2.4-8.9l0,0
		c-1.8-3.1-5.8-4.2-8.9-2.4l-14.9,8.6v-16c0-3.6-2.9-6.5-6.5-6.5l0,0c-3.6,0-6.5,2.9-6.5,6.5v16l-14.9-8.6c-3.1-1.8-7.1-0.7-8.9,2.4
		l0,0c-1.8,3.1-0.7,7.1,2.4,8.9l21.4,12.4v43.6l-37.8-21.8v-24.7c0-3.6-2.9-6.5-6.5-6.5s-6.5,2.9-6.5,6.5v17.2l-13.9-8
		c-3.1-1.8-7.1-0.7-8.9,2.4l0,0c-1.8,3.1-0.7,7.1,2.4,8.9l13.9,8l-14.9,8.6c-3.1,1.8-4.2,5.8-2.4,8.9c1.8,3.1,5.8,4.2,8.9,2.4
		l21.4-12.4L1066,735l-37.8,21.8l-21.4-12.4c-3.1-1.8-7.1-0.7-8.9,2.4l0,0c-1.8,3.1-0.7,7.1,2.4,8.9l14.9,8.6l-13.9,8
		c-3.1,1.8-4.2,5.8-2.4,8.9v0c1.8,3.1,5.8,4.2,8.9,2.4l13.9-8v17.2c0,3.6,2.9,6.5,6.5,6.5s6.5-2.9,6.5-6.5v-24.7l37.8-21.8V790
		l-21.4,12.4c-3.1,1.8-4.2,5.8-2.4,8.9c1.8,3.1,5.8,4.2,8.9,2.4l14.9-8.6v16c0,3.6,2.9,6.5,6.5,6.5l0,0c3.6,0,6.5-2.9,6.5-6.5v-16
		l14.9,8.6c3.1,1.8,7.1,0.7,8.9-2.4c1.8-3.1,0.7-7.1-2.4-8.9l-21.4-12.4v-43.6l37.8,21.8v24.7c0,3.6,2.9,6.5,6.5,6.5l0,0
		c3.6,0,6.5-2.9,6.5-6.5v-17.2l13.9,8c3.1,1.8,7.1,0.7,8.9-2.4v0c1.8-3.1,0.7-7.1-2.4-8.9l-13.9-8l14.9-8.6
		C1160.9,754,1162,750,1160.2,746.9z"/>
	<path class="st1" d="M212.6,931.9L212.6,931.9c-1.8-3.1-5.8-4.2-8.9-2.4l-21.4,12.4l-37.8-21.8l37.8-21.8l21.4,12.4
		c3.1,1.8,7.1,0.7,8.9-2.4c1.8-3.1,0.7-7.1-2.4-8.9l-14.9-8.6l13.9-8c3.1-1.8,4.2-5.8,2.4-8.9l0,0c-1.8-3.1-5.8-4.2-8.9-2.4l-13.9,8
		v-17.2c0-3.6-2.9-6.5-6.5-6.5l0,0c-3.6,0-6.5,2.9-6.5,6.5V887L138,908.8v-43.6l21.4-12.4c3.1-1.8,4.2-5.8,2.4-8.9l0,0
		c-1.8-3.1-5.8-4.2-8.9-2.4l-14.9,8.6v-16c0-3.6-2.9-6.5-6.5-6.5l0,0c-3.6,0-6.5,2.9-6.5,6.5v16l-14.9-8.6c-3.1-1.8-7.1-0.7-8.9,2.4
		l0,0c-1.8,3.1-0.7,7.1,2.4,8.9l21.4,12.4v43.6L87.2,887v-24.7c0-3.6-2.9-6.5-6.5-6.5s-6.5,2.9-6.5,6.5v17.2l-13.9-8
		c-3.1-1.8-7.1-0.7-8.9,2.4l0,0c-1.8,3.1-0.7,7.1,2.4,8.9l13.9,8l-14.9,8.6c-3.1,1.8-4.2,5.8-2.4,8.9c1.8,3.1,5.8,4.2,8.9,2.4
		l21.4-12.4l37.8,21.8l-37.8,21.8l-21.4-12.4c-3.1-1.8-7.1-0.7-8.9,2.4l0,0c-1.8,3.1-0.7,7.1,2.4,8.9l14.9,8.6l-13.9,8
		c-3.1,1.8-4.2,5.8-2.4,8.9l0,0c1.8,3.1,5.8,4.2,8.9,2.4l13.9-8v17.2c0,3.6,2.9,6.5,6.5,6.5s6.5-2.9,6.5-6.5v-24.7l37.8-21.8V975
		l-21.4,12.4c-3.1,1.8-4.2,5.8-2.4,8.9c1.8,3.1,5.8,4.2,8.9,2.4l14.9-8.6v16c0,3.6,2.9,6.5,6.5,6.5l0,0c3.6,0,6.5-2.9,6.5-6.5v-16
		l14.9,8.6c3.1,1.8,7.1,0.7,8.9-2.4c1.8-3.1,0.7-7.1-2.4-8.9L138,975v-43.6l37.8,21.8v24.7c0,3.6,2.9,6.5,6.5,6.5l0,0
		c3.6,0,6.5-2.9,6.5-6.5v-17.2l13.9,8c3.1,1.8,7.1,0.7,8.9-2.4l0,0c1.8-3.1,0.7-7.1-2.4-8.9l-13.9-8l14.9-8.6
		C213.3,939,214.4,935,212.6,931.9z"/>
	<path class="st1" d="M591.6,931.9L591.6,931.9c-1.8-3.1-5.8-4.2-8.9-2.4l-21.4,12.4l-37.8-21.8l37.8-21.8l21.4,12.4
		c3.1,1.8,7.1,0.7,8.9-2.4s0.7-7.1-2.4-8.9l-14.9-8.6l13.9-8c3.1-1.8,4.2-5.8,2.4-8.9l0,0c-1.8-3.1-5.8-4.2-8.9-2.4l-13.9,8v-17.2
		c0-3.6-2.9-6.5-6.5-6.5l0,0c-3.6,0-6.5,2.9-6.5,6.5V887L517,908.8v-43.6l21.4-12.4c3.1-1.8,4.2-5.8,2.4-8.9l0,0
		c-1.8-3.1-5.8-4.2-8.9-2.4l-14.9,8.6v-16c0-3.6-2.9-6.5-6.5-6.5l0,0c-3.6,0-6.5,2.9-6.5,6.5v16l-14.9-8.6c-3.1-1.8-7.1-0.7-8.9,2.4
		l0,0c-1.8,3.1-0.7,7.1,2.4,8.9l21.4,12.4v43.6L466.2,887v-24.7c0-3.6-2.9-6.5-6.5-6.5s-6.5,2.9-6.5,6.5v17.2l-13.9-8
		c-3.1-1.8-7.1-0.7-8.9,2.4l0,0c-1.8,3.1-0.7,7.1,2.4,8.9l13.9,8l-14.9,8.6c-3.1,1.8-4.2,5.8-2.4,8.9s5.8,4.2,8.9,2.4l21.4-12.4
		l37.8,21.8l-37.8,21.8l-21.4-12.4c-3.1-1.8-7.1-0.7-8.9,2.4l0,0c-1.8,3.1-0.7,7.1,2.4,8.9l14.9,8.6l-13.9,8
		c-3.1,1.8-4.2,5.8-2.4,8.9l0,0c1.8,3.1,5.8,4.2,8.9,2.4l13.9-8v17.2c0,3.6,2.9,6.5,6.5,6.5s6.5-2.9,6.5-6.5v-24.7l37.8-21.8V975
		l-21.4,12.4c-3.1,1.8-4.2,5.8-2.4,8.9c1.8,3.1,5.8,4.2,8.9,2.4l14.9-8.6v16c0,3.6,2.9,6.5,6.5,6.5l0,0c3.6,0,6.5-2.9,6.5-6.5v-16
		l14.9,8.6c3.1,1.8,7.1,0.7,8.9-2.4c1.8-3.1,0.7-7.1-2.4-8.9L517,975v-43.6l37.8,21.8v24.7c0,3.6,2.9,6.5,6.5,6.5l0,0
		c3.6,0,6.5-2.9,6.5-6.5v-17.2l13.9,8c3.1,1.8,7.1,0.7,8.9-2.4l0,0c1.8-3.1,0.7-7.1-2.4-8.9l-13.9-8l14.9-8.6
		C592.4,939,593.4,935,591.6,931.9z"/>
	<path class="st1" d="M970.7,931.9L970.7,931.9c-1.8-3.1-5.8-4.2-8.9-2.4l-21.4,12.4l-37.8-21.8l37.8-21.8l21.4,12.4
		c3.1,1.8,7.1,0.7,8.9-2.4s0.7-7.1-2.4-8.9l-14.9-8.6l13.9-8c3.1-1.8,4.2-5.8,2.4-8.9l0,0c-1.8-3.1-5.8-4.2-8.9-2.4l-13.9,8v-17.2
		c0-3.6-2.9-6.5-6.5-6.5l0,0c-3.6,0-6.5,2.9-6.5,6.5V887L896,908.8v-43.6l21.4-12.4c3.1-1.8,4.2-5.8,2.4-8.9l0,0
		c-1.8-3.1-5.8-4.2-8.9-2.4l-14.9,8.6v-16c0-3.6-2.9-6.5-6.5-6.5l0,0c-3.6,0-6.5,2.9-6.5,6.5v16l-14.9-8.6c-3.1-1.8-7.1-0.7-8.9,2.4
		l0,0c-1.8,3.1-0.7,7.1,2.4,8.9l21.4,12.4v43.6L845.2,887v-24.7c0-3.6-2.9-6.5-6.5-6.5s-6.5,2.9-6.5,6.5v17.2l-13.9-8
		c-3.1-1.8-7.1-0.7-8.9,2.4l0,0c-1.8,3.1-0.7,7.1,2.4,8.9l13.9,8l-14.9,8.6c-3.1,1.8-4.2,5.8-2.4,8.9s5.8,4.2,8.9,2.4l21.4-12.4
		l37.8,21.8l-37.8,21.8l-21.4-12.4c-3.1-1.8-7.1-0.7-8.9,2.4l0,0c-1.8,3.1-0.7,7.1,2.4,8.9l14.9,8.6l-13.9,8
		c-3.1,1.8-4.2,5.8-2.4,8.9l0,0c1.8,3.1,5.8,4.2,8.9,2.4l13.9-8v17.2c0,3.6,2.9,6.5,6.5,6.5s6.5-2.9,6.5-6.5v-24.7l37.8-21.8V975
		l-21.4,12.4c-3.1,1.8-4.2,5.8-2.4,8.9c1.8,3.1,5.8,4.2,8.9,2.4l14.9-8.6v16c0,3.6,2.9,6.5,6.5,6.5l0,0c3.6,0,6.5-2.9,6.5-6.5v-16
		l14.9,8.6c3.1,1.8,7.1,0.7,8.9-2.4c1.8-3.1,0.7-7.1-2.4-8.9L896,975v-43.6l37.8,21.8v24.7c0,3.6,2.9,6.5,6.5,6.5l0,0
		c3.6,0,6.5-2.9,6.5-6.5v-17.2l13.9,8c3.1,1.8,7.1,0.7,8.9-2.4l0,0c1.8-3.1,0.7-7.1-2.4-8.9l-13.9-8l14.9-8.6
		C971.4,939,972.5,935,970.7,931.9z"/>
	<path class="st1" d="M1349.7,931.9L1349.7,931.9c-1.8-3.1-5.8-4.2-8.9-2.4l-21.4,12.4l-37.8-21.8l37.8-21.8l21.4,12.4
		c3.1,1.8,7.1,0.7,8.9-2.4s0.7-7.1-2.4-8.9l-14.9-8.6l13.9-8c3.1-1.8,4.2-5.8,2.4-8.9l0,0c-1.8-3.1-5.8-4.2-8.9-2.4l-13.9,8v-17.2
		c0-3.6-2.9-6.5-6.5-6.5l0,0c-3.6,0-6.5,2.9-6.5,6.5V887l-37.8,21.8v-43.6l21.4-12.4c3.1-1.8,4.2-5.8,2.4-8.9l0,0
		c-1.8-3.1-5.8-4.2-8.9-2.4l-14.9,8.6v-16c0-3.6-2.9-6.5-6.5-6.5l0,0c-3.6,0-6.5,2.9-6.5,6.5v16l-14.9-8.6c-3.1-1.8-7.1-0.7-8.9,2.4
		l0,0c-1.8,3.1-0.7,7.1,2.4,8.9l21.4,12.4v43.6l-37.8-21.8v-24.7c0-3.6-2.9-6.5-6.5-6.5s-6.5,2.9-6.5,6.5v17.2l-13.9-8
		c-3.1-1.8-7.1-0.7-8.9,2.4l0,0c-1.8,3.1-0.7,7.1,2.4,8.9l13.9,8l-14.9,8.6c-3.1,1.8-4.2,5.8-2.4,8.9s5.8,4.2,8.9,2.4l21.4-12.4
		l37.8,21.8l-37.8,21.8l-21.4-12.4c-3.1-1.8-7.1-0.7-8.9,2.4l0,0c-1.8,3.1-0.7,7.1,2.4,8.9l14.9,8.6l-13.9,8
		c-3.1,1.8-4.2,5.8-2.4,8.9l0,0c1.8,3.1,5.8,4.2,8.9,2.4l13.9-8v17.2c0,3.6,2.9,6.5,6.5,6.5s6.5-2.9,6.5-6.5v-24.7l37.8-21.8V975
		l-21.4,12.4c-3.1,1.8-4.2,5.8-2.4,8.9c1.8,3.1,5.8,4.2,8.9,2.4l14.9-8.6v16c0,3.6,2.9,6.5,6.5,6.5l0,0c3.6,0,6.5-2.9,6.5-6.5v-16
		l14.9,8.6c3.1,1.8,7.1,0.7,8.9-2.4s0.7-7.1-2.4-8.9l-21.4-12.4v-43.6l37.8,21.8v24.7c0,3.6,2.9,6.5,6.5,6.5l0,0
		c3.6,0,6.5-2.9,6.5-6.5v-17.2l13.9,8c3.1,1.8,7.1,0.7,8.9-2.4l0,0c1.8-3.1,0.7-7.1-2.4-8.9l-13.9-8l14.9-8.6
		C1350.4,939,1351.5,935,1349.7,931.9z"/>
</g>
<g>
	<g>
		<rect x="309.1" y="563.1" class="st2" width="678.4" height="335.1"/>
		<rect x="309.1" y="283" class="st3" width="710" height="280.1"/>
		<polygon class="st2" points="857.4,283 695.7,563.1 695.7,898.2 1019.1,898.2 1019.1,563.1 		"/>
		<rect x="529.2" y="774.7" class="st4" width="74.9" height="123.5"/>
		<rect x="388.4" y="706.3" class="st1" width="95.1" height="95.1"/>
		<rect x="756.8" y="576.2" class="st1" width="95.1" height="95.1"/>
		<rect x="862.8" y="576.2" class="st1" width="95.1" height="95.1"/>
		<rect x="756.8" y="706.3" class="st1" width="201.1" height="95.1"/>
		<rect x="486.9" y="178.5" class="st5" width="63.8" height="104.5"/>
		<rect x="231.1" y="898.2" class="st5" width="866" height="23.3"/>
		<polygon class="st6" points="340.7,563.1 695.7,721.5 695.7,563.1 		"/>
	</g>
	<g>
		<polygon class="st4" points="992.3,236.3 992.3,745.7 1068.2,745.7 1068.2,252.2 1029.5,211.5 		"/>
		<path class="st7" d="M891.6,782.9c0,76.4,62.2,138.6,138.6,138.6s138.6-62.2,138.6-138.6s-62.2-138.6-138.6-138.6
			S891.6,706.5,891.6,782.9z M1162.1,782.9c0,72.7-59.1,131.8-131.8,131.8s-131.8-59.1-131.8-131.8s59.1-131.8,131.8-131.8
			C1102.9,651.1,1162.1,710.2,1162.1,782.9z"/>
		<path class="st4" d="M1066,534.8v-10.2h38.2v-0.4c-3.1-2.1-5.9-4.2-8.5-6.2l-29.7-24.2v-12.7l33.6,28.7l45.6-30.9V491l-38.9,26.1
			l8.7,7.5h30.2v10.2H1066z"/>
		<path class="st4" d="M1120.3,457.2l24.9,8.2V476l-79.2-27v-12.3l79.1-27v10.9l-24.9,8.5v28.1H1120.3z M1112.3,431.2l-22.8,7.8
			c-5.2,1.8-9.9,2.9-14.4,4.1v0.2c4.7,1.2,9.5,2.5,14.3,4l22.9,7.8V431.2z"/>
		<path class="st4" d="M1064.7,391.2h46.9c17.7,0,25.2-7.9,25.2-18.4c0-11.7-7.8-19.3-25.2-19.3h-46.9v-10.3h46.2
			c24.3,0,34.3,12.8,34.3,29.9c0,16.2-9.3,28.4-33.8,28.4h-46.6L1064.7,391.2L1064.7,391.2z"/>
		<path class="st4" d="M1066,325.4v-42.6h8.6v32.4h26.3v-29.9h8.5v29.9h35.8v10.2H1066z"/>
		<rect x="1023.4" y="281" class="st7" width="13.7" height="367.8"/>
		<rect x="1044" y="298.6" class="st7" width="13.7" height="350.2"/>
		
			<ellipse transform="matrix(0.7071 -0.7071 0.7071 0.7071 -251.826 957.8383)" class="st4" cx="1030.3" cy="782.9" rx="131.8" ry="131.8"/>
		<path class="st7" d="M915.4,782.9c0,63.4,51.5,114.9,114.9,114.9s114.9-51.5,114.9-114.9S1093.6,668,1030.3,668
			C966.9,668,915.4,719.5,915.4,782.9z M1139.5,782.9c0,60.2-49,109.2-109.2,109.2c-60.2,0-109.2-49-109.2-109.2
			s49-109.2,109.2-109.2C1090.5,673.7,1139.5,722.7,1139.5,782.9z"/>
		
			<ellipse transform="matrix(0.1602 -0.9871 0.9871 0.1602 16.8625 1738.8195)" class="st1" cx="1030.3" cy="859.5" rx="25.7" ry="25.7"/>
	</g>
</g>
<path class="st8" d="M389,894.8c0,0,21.7,6.4,28.4,6.3c6.7-0.1,8.5-6.4,3.9-13.3c-4.6-6.9-4-11.2,2.6-11.1
	c6.5,0.1,20.3,3.9,25.4,2.2c5.2-1.7,5.6-9.3-0.6-10.3c-6.2-1-14.5,3.4-22.6,1.3c-8.1-2-16-6.3-17.8-13.3c-1.8-7,1.1-14.3,14.7-20.7
	c-6.9-6.7-6-15.1-2-16.5s10.2-0.3,15.6-2.8c5.4-2.5,5.6-11-1.9-10.6s-13.8,5.4-21.8,4.9s-15.5-2.8-18.4-8.2
	c9.8-1.5,5.7-14.6,1.8-19.6c14.9-0.7,19.7-10.5,13.5-10.9c-6.2-0.4-33.3,1.9-42.1-2.1c-8.9-4-10.1-15.8-2.4-18.1s10.9-1.6,12.2-5.2
	c1.3-3.6,0.9-7,0.9-7s6.6,1,12.3-3.7c5.8-4.6-0.3-7-5.2-7s-20.2,1.5-31.2-4.4s-16.1-20-16.1-20s20.4,1.2,21.2-15.5
	c15.3,7.5,19.8-8.7,16.3-8.7s-32.5,3.8-39.2-4.4c10.7-1.9,9.9-8.8,8.1-11c-1.8-2.2-2.9-4.9,1.9-5.9c4.8-1,10.2-2.9,7-5.4
	c-3.3-2.5-8.8,0.7-12.3,1.3c-3.6,0.6-19.4,1.9-18.9-9c0.6-10.9,10.2-11,14.6-12.1c4.4-1.1,6-4.8-0.7-5.4
	c-6.6-0.6-13.1,1.9-12.6-10.1c0.6-12,1.2-14.5-2.1-14.6c-3.4-0.1-3.8,7.8-4.3,12.5s0.6,8.3-5.1,8.3s-9.4,0.3-6.1,3
	c3.4,2.7,9.9,7.6,6.1,13.6c-3.8,6-10.2,9.8-18.4,8.8s-15.5-5.7-17.2-4.5c-1.7,1.2,1.8,4.4,3.3,5.4s2.2,2.6-0.2,5.6
	c-2.4,2.9-0.3,8.3,2.7,5.4c3-2.9,4.3-5.3,6.7-4.7c2.4,0.6-2.1,5.6-1,7.3s7.2-0.6,11.3-0.1c4,0.5,8.3,5.8,2.6,12.1
	c-5.6,6.3-20.1,9.3-29.2,7.2s-21.6-8.7-26.3-11.6c-4.7-2.9-8.9-0.3-3.4,2.9s10.8,5.7,8.9,7.8c-1.9,2.1-7.8,5.3-4.6,7.4
	c3.3,2.1,5.3,0.2,8.9-1.4c3.5-1.6,5.3-2.2,5.8,2.4c0.6,4.7,1.2,5.7,5.1,3.9c3.9-1.7,7.9-2.8,9.7,0.8c1.7,3.5,0.8,7.4-2.3,11.7
	s-12.9,14.5-25.9,15.4s-31-3.3-32.4-3.1c-1.3,0.1-1.3,1.8,1.7,3.2c3,1.4,4.9,3.3,1.9,4.1c-3.1,0.8-6.4,2.1-2.9,3.7
	c3.4,1.6,7.1-0.8,9.2,1.5c2.1,2.3,1.5,3.1-0.8,5.5c-2.3,2.4-0.1,4.6,4.5,4.6c4.6,0,8.9-0.7,6.2,3.2s-5.8,7-3.1,11.9
	c2.7,4.9,9.4,2.5,10.9-0.6c-0.9,6.7-12.1,20-27.3,19.1s-26.6-5.3-29.6-2.2c-3,3.1-2.3,8.2,0,12.3s6.2,8.4,1.4,10.9s-13,4.3-12.2,7.9
	c0.8,3.6,3,3.9-0.1,6.2c-3,2.3-6,3.2-4.2,5.5c1.8,2.3,5.5,2.5,5.5,3.8c0,1.3-5.2,1.6-4.4,4.2c0.7,2.6,7.5,2.2,8.2,6.3
	s-7.9,10.6-17.5,8.6c-9.6-2-19.1-4.6-20.2-1.6c-1.1,3,1.2,5.3,4.4,5.5c3.1,0.2,6.3,1.4,3.6,3.8c-2.7,2.4-7.3,7.9-3.4,9.7
	c4,1.7,4.9-2.6,7.3-2.7c2.5-0.1,0.3,4.8-2.2,8.4c-2.5,3.6-1.6,6.1,1.3,6.3c2.8,0.2,7.2-3.1,8.2-2.2c1,0.9-3.7,6.5-6.3,10.4
	c-2.6,3.9-0.1,9.3,4,6.4c4-2.9,5.4-5,6.8-5c1.4,0-2.9,8.8-0.4,11.1s6.5,4.3,14.1,2.2s11.8-5.8,13.2-4s-5.7,8.8-3.4,12.1
	c2.3,3.3,7.8,0,10.3-3.1c2.5-3.1,6.1-1.6,4.3,3.5c-1.8,5.1,1.7,11.9,7.8,8.9s6.4-4.3,7.4-4.3s2.7,2.2,3.1,7.1
	c0.4,4.9,5,9.4,10.4,4.1s10-11.2,11.3-11.1c1.3,0.1-2.6,14.2,2.2,14.8s15.3-7.9,16.7-12.1c5.2,13.9,14.9,19.5,18.7-0.1
	c14.1,17.6,16.6,17.9,19,16.6c2.4-1.3,1.3-16,1.3-16s17,15,26.4,11.2c3.1-1.3-0.2-14.5-0.2-14.5s16.6,14.2,26.7,11.5
	c10.2-2.7-2.6-19-2.6-19s24.6,16,35.9,11.1C396.9,905.6,389,894.8,389,894.8z"/>
</svg>
