<?xml version="1.0" encoding="utf-8"?>
<!-- Generator: Adobe Illustrator 23.0.2, SVG Export Plug-In . SVG Version: 6.00 Build 0)  -->
<svg version="1.1" id="Ebene_1" xmlns="http://www.w3.org/2000/svg" xmlns:xlink="http://www.w3.org/1999/xlink" x="0px" y="0px"
	 viewBox="0 0 1400 1100" style="enable-background:new 0 0 1400 1100;" xml:space="preserve">
<style type="text/css">
	.st0{fill:#1B4691;}
	.st1{fill:#FFFFFF;}
	.st2{fill:#00A201;}
	.st3{fill:#033153;}
	.st4{fill:#E3E3E2;}
	.st5{fill:#A7A9AC;}
	.st6{fill:#F2931B;}
</style>
<rect y="0" class="st0" width="1400" height="1100"/>
<g>
	<path class="st1" d="M212.6,191.7L212.6,191.7c-1.8-3.1-5.8-4.2-8.9-2.4l-21.4,12.4l-37.8-21.8l37.8-21.8l21.4,12.4
		c3.1,1.8,7.1,0.7,8.9-2.4c1.8-3.1,0.7-7.1-2.4-8.9l-14.9-8.6l13.9-8c3.1-1.8,4.2-5.8,2.4-8.9v0c-1.8-3.1-5.8-4.2-8.9-2.4l-13.9,8
		v-17.2c0-3.6-2.9-6.5-6.5-6.5l0,0c-3.6,0-6.5,2.9-6.5,6.5v24.7L138,168.6V125l21.4-12.4c3.1-1.8,4.2-5.8,2.4-8.9v0
		c-1.8-3.1-5.8-4.2-8.9-2.4l-14.9,8.6v-16c0-3.6-2.9-6.5-6.5-6.5l0,0c-3.6,0-6.5,2.9-6.5,6.5v16l-14.9-8.6c-3.1-1.8-7.1-0.7-8.9,2.4
		v0c-1.8,3.1-0.7,7.1,2.4,8.9l21.4,12.4v43.6l-37.8-21.8v-24.7c0-3.6-2.9-6.5-6.5-6.5s-6.5,2.9-6.5,6.5v17.2l-13.9-8
		c-3.1-1.8-7.1-0.7-8.9,2.4v0c-1.8,3.1-0.7,7.1,2.4,8.9l13.9,8l-14.9,8.6c-3.1,1.8-4.2,5.8-2.4,8.9c1.8,3.1,5.8,4.2,8.9,2.4
		l21.4-12.4l37.8,21.8l-37.8,21.8l-21.4-12.4c-3.1-1.8-7.1-0.7-8.9,2.4v0c-1.8,3.1-0.7,7.1,2.4,8.9l14.9,8.6l-13.9,8
		c-3.1,1.8-4.2,5.8-2.4,8.9v0c1.8,3.1,5.8,4.2,8.9,2.4l13.9-8v17.2c0,3.6,2.9,6.5,6.5,6.5s6.5-2.9,6.5-6.5V213l37.8-21.8v43.6
		l-21.4,12.4c-3.1,1.8-4.2,5.8-2.4,8.9c1.8,3.1,5.8,4.2,8.9,2.4l14.9-8.6v16c0,3.6,2.9,6.5,6.5,6.5l0,0c3.6,0,6.5-2.9,6.5-6.5v-16
		l14.9,8.6c3.1,1.8,7.1,0.7,8.9-2.4c1.8-3.1,0.7-7.1-2.4-8.9L138,234.8v-43.6l37.8,21.8v24.7c0,3.6,2.9,6.5,6.5,6.5l0,0
		c3.6,0,6.5-2.9,6.5-6.5v-17.2l13.9,8c3.1,1.8,7.1,0.7,8.9-2.4v0c1.8-3.1,0.7-7.1-2.4-8.9l-13.9-8l14.9-8.6
		C213.3,198.8,214.4,194.9,212.6,191.7z"/>
	<path class="st1" d="M591.6,191.7L591.6,191.7c-1.8-3.1-5.8-4.2-8.9-2.4l-21.4,12.4l-37.8-21.8l37.8-21.8l21.4,12.4
		c3.1,1.8,7.1,0.7,8.9-2.4s0.7-7.1-2.4-8.9l-14.9-8.6l13.9-8c3.1-1.8,4.2-5.8,2.4-8.9v0c-1.8-3.1-5.8-4.2-8.9-2.4l-13.9,8v-17.2
		c0-3.6-2.9-6.5-6.5-6.5l0,0c-3.6,0-6.5,2.9-6.5,6.5v24.7L517,168.6V125l21.4-12.4c3.1-1.8,4.2-5.8,2.4-8.9v0
		c-1.8-3.1-5.8-4.2-8.9-2.4l-14.9,8.6v-16c0-3.6-2.9-6.5-6.5-6.5l0,0c-3.6,0-6.5,2.9-6.5,6.5v16l-14.9-8.6c-3.1-1.8-7.1-0.7-8.9,2.4
		v0c-1.8,3.1-0.7,7.1,2.4,8.9L504,125v43.6l-37.8-21.8v-24.7c0-3.6-2.9-6.5-6.5-6.5s-6.5,2.9-6.5,6.5v17.2l-13.9-8
		c-3.1-1.8-7.1-0.7-8.9,2.4v0c-1.8,3.1-0.7,7.1,2.4,8.9l13.9,8l-14.9,8.6c-3.1,1.8-4.2,5.8-2.4,8.9s5.8,4.2,8.9,2.4l21.4-12.4
		l37.8,21.8l-37.8,21.8l-21.4-12.4c-3.1-1.8-7.1-0.7-8.9,2.4v0c-1.8,3.1-0.7,7.1,2.4,8.9l14.9,8.6l-13.9,8c-3.1,1.8-4.2,5.8-2.4,8.9
		v0c1.8,3.1,5.8,4.2,8.9,2.4l13.9-8v17.2c0,3.6,2.9,6.5,6.5,6.5s6.5-2.9,6.5-6.5V213l37.8-21.8v43.6l-21.4,12.4
		c-3.1,1.8-4.2,5.8-2.4,8.9c1.8,3.1,5.8,4.2,8.9,2.4l14.9-8.6v16c0,3.6,2.9,6.5,6.5,6.5l0,0c3.6,0,6.5-2.9,6.5-6.5v-16l14.9,8.6
		c3.1,1.8,7.1,0.7,8.9-2.4c1.8-3.1,0.7-7.1-2.4-8.9L517,234.8v-43.6l37.8,21.8v24.7c0,3.6,2.9,6.5,6.5,6.5l0,0
		c3.6,0,6.5-2.9,6.5-6.5v-17.2l13.9,8c3.1,1.8,7.1,0.7,8.9-2.4v0c1.8-3.1,0.7-7.1-2.4-8.9l-13.9-8l14.9-8.6
		C592.4,198.8,593.4,194.9,591.6,191.7z"/>
	<path class="st1" d="M970.7,191.7L970.7,191.7c-1.8-3.1-5.8-4.2-8.9-2.4l-21.4,12.4l-37.8-21.8l37.8-21.8l21.4,12.4
		c3.1,1.8,7.1,0.7,8.9-2.4s0.7-7.1-2.4-8.9l-14.9-8.6l13.9-8c3.1-1.8,4.2-5.8,2.4-8.9v0c-1.8-3.1-5.8-4.2-8.9-2.4l-13.9,8v-17.2
		c0-3.6-2.9-6.5-6.5-6.5l0,0c-3.6,0-6.5,2.9-6.5,6.5v24.7L896,168.6V125l21.4-12.4c3.1-1.8,4.2-5.8,2.4-8.9v0
		c-1.8-3.1-5.8-4.2-8.9-2.4l-14.9,8.6v-16c0-3.6-2.9-6.5-6.5-6.5l0,0c-3.6,0-6.5,2.9-6.5,6.5v16l-14.9-8.6c-3.1-1.8-7.1-0.7-8.9,2.4
		v0c-1.8,3.1-0.7,7.1,2.4,8.9L883,125v43.6l-37.8-21.8v-24.7c0-3.6-2.9-6.5-6.5-6.5s-6.5,2.9-6.5,6.5v17.2l-13.9-8
		c-3.1-1.8-7.1-0.7-8.9,2.4v0c-1.8,3.1-0.7,7.1,2.4,8.9l13.9,8l-14.9,8.6c-3.1,1.8-4.2,5.8-2.4,8.9s5.8,4.2,8.9,2.4l21.4-12.4
		l37.8,21.8l-37.8,21.8l-21.4-12.4c-3.1-1.8-7.1-0.7-8.9,2.4v0c-1.8,3.1-0.7,7.1,2.4,8.9l14.9,8.6l-13.9,8c-3.1,1.8-4.2,5.8-2.4,8.9
		v0c1.8,3.1,5.8,4.2,8.9,2.4l13.9-8v17.2c0,3.6,2.9,6.5,6.5,6.5s6.5-2.9,6.5-6.5V213l37.8-21.8v43.6l-21.4,12.4
		c-3.1,1.8-4.2,5.8-2.4,8.9c1.8,3.1,5.8,4.2,8.9,2.4l14.9-8.6v16c0,3.6,2.9,6.5,6.5,6.5l0,0c3.6,0,6.5-2.9,6.5-6.5v-16l14.9,8.6
		c3.1,1.8,7.1,0.7,8.9-2.4c1.8-3.1,0.7-7.1-2.4-8.9L896,234.8v-43.6l37.8,21.8v24.7c0,3.6,2.9,6.5,6.5,6.5l0,0
		c3.6,0,6.5-2.9,6.5-6.5v-17.2l13.9,8c3.1,1.8,7.1,0.7,8.9-2.4v0c1.8-3.1,0.7-7.1-2.4-8.9l-13.9-8l14.9-8.6
		C971.4,198.8,972.5,194.9,970.7,191.7z"/>
	<path class="st1" d="M1349.7,191.7L1349.7,191.7c-1.8-3.1-5.8-4.2-8.9-2.4l-21.4,12.4l-37.8-21.8l37.8-21.8l21.4,12.4
		c3.1,1.8,7.1,0.7,8.9-2.4s0.7-7.1-2.4-8.9l-14.9-8.6l13.9-8c3.1-1.8,4.2-5.8,2.4-8.9v0c-1.8-3.1-5.8-4.2-8.9-2.4l-13.9,8v-17.2
		c0-3.6-2.9-6.5-6.5-6.5l0,0c-3.6,0-6.5,2.9-6.5,6.5v24.7l-37.8,21.8V125l21.4-12.4c3.1-1.8,4.2-5.8,2.4-8.9v0
		c-1.8-3.1-5.8-4.2-8.9-2.4l-14.9,8.6v-16c0-3.6-2.9-6.5-6.5-6.5l0,0c-3.6,0-6.5,2.9-6.5,6.5v16l-14.9-8.6c-3.1-1.8-7.1-0.7-8.9,2.4
		v0c-1.8,3.1-0.7,7.1,2.4,8.9L1262,125v43.6l-37.8-21.8v-24.7c0-3.6-2.9-6.5-6.5-6.5s-6.5,2.9-6.5,6.5v17.2l-13.9-8
		c-3.1-1.8-7.1-0.7-8.9,2.4v0c-1.8,3.1-0.7,7.1,2.4,8.9l13.9,8l-14.9,8.6c-3.1,1.8-4.2,5.8-2.4,8.9s5.8,4.2,8.9,2.4l21.4-12.4
		l37.8,21.8l-37.8,21.8l-21.4-12.4c-3.1-1.8-7.1-0.7-8.9,2.4v0c-1.8,3.1-0.7,7.1,2.4,8.9l14.9,8.6l-13.9,8c-3.1,1.8-4.2,5.8-2.4,8.9
		v0c1.8,3.1,5.8,4.2,8.9,2.4l13.9-8v17.2c0,3.6,2.9,6.5,6.5,6.5s6.5-2.9,6.5-6.5V213l37.8-21.8v43.6l-21.4,12.4
		c-3.1,1.8-4.2,5.8-2.4,8.9c1.8,3.1,5.8,4.2,8.9,2.4l14.9-8.6v16c0,3.6,2.9,6.5,6.5,6.5l0,0c3.6,0,6.5-2.9,6.5-6.5v-16l14.9,8.6
		c3.1,1.8,7.1,0.7,8.9-2.4c1.8-3.1,0.7-7.1-2.4-8.9l-21.4-12.4v-43.6l37.8,21.8v24.7c0,3.6,2.9,6.5,6.5,6.5l0,0
		c3.6,0,6.5-2.9,6.5-6.5v-17.2l13.9,8c3.1,1.8,7.1,0.7,8.9-2.4v0c1.8-3.1,0.7-7.1-2.4-8.9l-13.9-8l14.9-8.6
		C1350.4,198.8,1351.5,194.9,1349.7,191.7z"/>
	<path class="st1" d="M402.1,376.8L402.1,376.8c-1.8-3.1-5.8-4.2-8.9-2.4l-21.4,12.4L334,365l37.8-21.8l21.4,12.4
		c3.1,1.8,7.1,0.7,8.9-2.4c1.8-3.1,0.7-7.1-2.4-8.9l-14.9-8.6l13.9-8c3.1-1.8,4.2-5.8,2.4-8.9v0c-1.8-3.1-5.8-4.2-8.9-2.4l-13.9,8
		v-17.2c0-3.6-2.9-6.5-6.5-6.5l0,0c-3.6,0-6.5,2.9-6.5,6.5v24.7l-37.8,21.8V310l21.4-12.4c3.1-1.8,4.2-5.8,2.4-8.9v0
		c-1.8-3.1-5.8-4.2-8.9-2.4l-14.9,8.6v-16c0-3.6-2.9-6.5-6.5-6.5l0,0c-3.6,0-6.5,2.9-6.5,6.5v16l-14.9-8.6c-3.1-1.8-7.1-0.7-8.9,2.4
		v0c-1.8,3.1-0.7,7.1,2.4,8.9l21.4,12.4v43.6l-37.8-21.8v-24.7c0-3.6-2.9-6.5-6.5-6.5c-3.6,0-6.5,2.9-6.5,6.5v17.2l-13.9-8
		c-3.1-1.8-7.1-0.7-8.9,2.4v0c-1.8,3.1-0.7,7.1,2.4,8.9l13.9,8l-14.9,8.6c-3.1,1.8-4.2,5.8-2.4,8.9s5.8,4.2,8.9,2.4l21.4-12.4
		l37.8,21.8l-37.8,21.8l-21.4-12.4c-3.1-1.8-7.1-0.7-8.9,2.4v0c-1.8,3.1-0.7,7.1,2.4,8.9l14.9,8.6l-13.9,8c-3.1,1.8-4.2,5.8-2.4,8.9
		l0,0c1.8,3.1,5.8,4.2,8.9,2.4l13.9-8v17.2c0,3.6,2.9,6.5,6.5,6.5c3.6,0,6.5-2.9,6.5-6.5v-24.7l37.8-21.8v43.6L293,432.2
		c-3.1,1.8-4.2,5.8-2.4,8.9c1.8,3.1,5.8,4.2,8.9,2.4l14.9-8.6v16c0,3.6,2.9,6.5,6.5,6.5l0,0c3.6,0,6.5-2.9,6.5-6.5v-16l14.9,8.6
		c3.1,1.8,7.1,0.7,8.9-2.4c1.8-3.1,0.7-7.1-2.4-8.9l-21.4-12.4v-43.6l37.8,21.8v24.7c0,3.6,2.9,6.5,6.5,6.5l0,0
		c3.6,0,6.5-2.9,6.5-6.5v-17.2l13.9,8c3.1,1.8,7.1,0.7,8.9-2.4l0,0c1.8-3.1,0.7-7.1-2.4-8.9l-13.9-8l14.9-8.6
		C402.8,383.9,403.9,379.9,402.1,376.8z"/>
	<path class="st1" d="M781.1,376.8L781.1,376.8c-1.8-3.1-5.8-4.2-8.9-2.4l-21.4,12.4L713,365l37.8-21.8l21.4,12.4
		c3.1,1.8,7.1,0.7,8.9-2.4c1.8-3.1,0.7-7.1-2.4-8.9l-14.9-8.6l13.9-8c3.1-1.8,4.2-5.8,2.4-8.9v0c-1.8-3.1-5.8-4.2-8.9-2.4l-13.9,8
		v-17.2c0-3.6-2.9-6.5-6.5-6.5l0,0c-3.6,0-6.5,2.9-6.5,6.5v24.7l-37.8,21.8V310l21.4-12.4c3.1-1.8,4.2-5.8,2.4-8.9v0
		c-1.8-3.1-5.8-4.2-8.9-2.4l-14.9,8.6v-16c0-3.6-2.9-6.5-6.5-6.5l0,0c-3.6,0-6.5,2.9-6.5,6.5v16l-14.9-8.6c-3.1-1.8-7.1-0.7-8.9,2.4
		v0c-1.8,3.1-0.7,7.1,2.4,8.9l21.4,12.4v43.6l-37.8-21.8v-24.7c0-3.6-2.9-6.5-6.5-6.5c-3.6,0-6.5,2.9-6.5,6.5v17.2l-13.9-8
		c-3.1-1.8-7.1-0.7-8.9,2.4v0c-1.8,3.1-0.7,7.1,2.4,8.9l13.9,8l-14.9,8.6c-3.1,1.8-4.2,5.8-2.4,8.9c1.8,3.1,5.8,4.2,8.9,2.4
		l21.4-12.4L687,365l-37.8,21.8l-21.4-12.4c-3.1-1.8-7.1-0.7-8.9,2.4v0c-1.8,3.1-0.7,7.1,2.4,8.9l14.9,8.6l-13.9,8
		c-3.1,1.8-4.2,5.8-2.4,8.9l0,0c1.8,3.1,5.8,4.2,8.9,2.4l13.9-8v17.2c0,3.6,2.9,6.5,6.5,6.5c3.6,0,6.5-2.9,6.5-6.5v-24.7l37.8-21.8
		v43.6l-21.4,12.4c-3.1,1.8-4.2,5.8-2.4,8.9c1.8,3.1,5.8,4.2,8.9,2.4l14.9-8.6v16c0,3.6,2.9,6.5,6.5,6.5l0,0c3.6,0,6.5-2.9,6.5-6.5
		v-16l14.9,8.6c3.1,1.8,7.1,0.7,8.9-2.4c1.8-3.1,0.7-7.1-2.4-8.9l-21.4-12.4v-43.6l37.8,21.8v24.7c0,3.6,2.9,6.5,6.5,6.5l0,0
		c3.6,0,6.5-2.9,6.5-6.5v-17.2l13.9,8c3.1,1.8,7.1,0.7,8.9-2.4l0,0c1.8-3.1,0.7-7.1-2.4-8.9l-13.9-8l14.9-8.6
		C781.9,383.9,782.9,379.9,781.1,376.8z"/>
	<path class="st1" d="M1160.2,376.8L1160.2,376.8c-1.8-3.1-5.8-4.2-8.9-2.4l-21.4,12.4l-37.8-21.8l37.8-21.8l21.4,12.4
		c3.1,1.8,7.1,0.7,8.9-2.4s0.7-7.1-2.4-8.9l-14.9-8.6l13.9-8c3.1-1.8,4.2-5.8,2.4-8.9v0c-1.8-3.1-5.8-4.2-8.9-2.4l-13.9,8v-17.2
		c0-3.6-2.9-6.5-6.5-6.5l0,0c-3.6,0-6.5,2.9-6.5,6.5v24.7l-37.8,21.8V310l21.4-12.4c3.1-1.8,4.2-5.8,2.4-8.9v0
		c-1.8-3.1-5.8-4.2-8.9-2.4l-14.9,8.6v-16c0-3.6-2.9-6.5-6.5-6.5l0,0c-3.6,0-6.5,2.9-6.5,6.5v16l-14.9-8.6c-3.1-1.8-7.1-0.7-8.9,2.4
		v0c-1.8,3.1-0.7,7.1,2.4,8.9l21.4,12.4v43.6l-37.8-21.8v-24.7c0-3.6-2.9-6.5-6.5-6.5s-6.5,2.9-6.5,6.5v17.2l-13.9-8
		c-3.1-1.8-7.1-0.7-8.9,2.4v0c-1.8,3.1-0.7,7.1,2.4,8.9l13.9,8l-14.9,8.6c-3.1,1.8-4.2,5.8-2.4,8.9s5.8,4.2,8.9,2.4l21.4-12.4
		L1066,365l-37.8,21.8l-21.4-12.4c-3.1-1.8-7.1-0.7-8.9,2.4v0c-1.8,3.1-0.7,7.1,2.4,8.9l14.9,8.6l-13.9,8c-3.1,1.8-4.2,5.8-2.4,8.9
		l0,0c1.8,3.1,5.8,4.2,8.9,2.4l13.9-8v17.2c0,3.6,2.9,6.5,6.5,6.5s6.5-2.9,6.5-6.5v-24.7l37.8-21.8v43.6l-21.4,12.4
		c-3.1,1.8-4.2,5.8-2.4,8.9s5.8,4.2,8.9,2.4l14.9-8.6v16c0,3.6,2.9,6.5,6.5,6.5l0,0c3.6,0,6.5-2.9,6.5-6.5v-16l14.9,8.6
		c3.1,1.8,7.1,0.7,8.9-2.4c1.8-3.1,0.7-7.1-2.4-8.9l-21.4-12.4v-43.6l37.8,21.8v24.7c0,3.6,2.9,6.5,6.5,6.5l0,0
		c3.6,0,6.5-2.9,6.5-6.5v-17.2l13.9,8c3.1,1.8,7.1,0.7,8.9-2.4l0,0c1.8-3.1,0.7-7.1-2.4-8.9l-13.9-8l14.9-8.6
		C1160.9,383.9,1162,379.9,1160.2,376.8z"/>
	<path class="st1" d="M212.6,561.8L212.6,561.8c-1.8-3.1-5.8-4.2-8.9-2.4l-21.4,12.4L144.5,550l37.8-21.8l21.4,12.4
		c3.1,1.8,7.1,0.7,8.9-2.4c1.8-3.1,0.7-7.1-2.4-8.9l-14.9-8.6l13.9-8c3.1-1.8,4.2-5.8,2.4-8.9v0c-1.8-3.1-5.8-4.2-8.9-2.4l-13.9,8
		v-17.2c0-3.6-2.9-6.5-6.5-6.5l0,0c-3.6,0-6.5,2.9-6.5,6.5v24.7L138,538.7v-43.6l21.4-12.4c3.1-1.8,4.2-5.8,2.4-8.9l0,0
		c-1.8-3.1-5.8-4.2-8.9-2.4L138,480v-16c0-3.6-2.9-6.5-6.5-6.5l0,0c-3.6,0-6.5,2.9-6.5,6.5v16l-14.9-8.6c-3.1-1.8-7.1-0.7-8.9,2.4
		l0,0c-1.8,3.1-0.7,7.1,2.4,8.9l21.4,12.4v43.6l-37.8-21.8v-24.7c0-3.6-2.9-6.5-6.5-6.5s-6.5,2.9-6.5,6.5v17.2l-13.9-8
		c-3.1-1.8-7.1-0.7-8.9,2.4v0c-1.8,3.1-0.7,7.1,2.4,8.9l13.9,8l-14.9,8.6c-3.1,1.8-4.2,5.8-2.4,8.9c1.8,3.1,5.8,4.2,8.9,2.4
		l21.4-12.4l37.8,21.8l-37.8,21.8l-21.4-12.4c-3.1-1.8-7.1-0.7-8.9,2.4v0c-1.8,3.1-0.7,7.1,2.4,8.9l14.9,8.6l-13.9,8
		c-3.1,1.8-4.2,5.8-2.4,8.9l0,0c1.8,3.1,5.8,4.2,8.9,2.4l13.9-8v17.2c0,3.6,2.9,6.5,6.5,6.5s6.5-2.9,6.5-6.5v-24.7l37.8-21.8v43.6
		l-21.4,12.4c-3.1,1.8-4.2,5.8-2.4,8.9c1.8,3.1,5.8,4.2,8.9,2.4l14.9-8.6v16c0,3.6,2.9,6.5,6.5,6.5l0,0c3.6,0,6.5-2.9,6.5-6.5v-16
		l14.9,8.6c3.1,1.8,7.1,0.7,8.9-2.4c1.8-3.1,0.7-7.1-2.4-8.9L138,604.9v-43.6l37.8,21.8v24.7c0,3.6,2.9,6.5,6.5,6.5l0,0
		c3.6,0,6.5-2.9,6.5-6.5v-17.2l13.9,8c3.1,1.8,7.1,0.7,8.9-2.4l0,0c1.8-3.1,0.7-7.1-2.4-8.9l-13.9-8l14.9-8.6
		C213.3,568.9,214.4,564.9,212.6,561.8z"/>
	<path class="st1" d="M970.7,561.8L970.7,561.8c-1.8-3.1-5.8-4.2-8.9-2.4l-21.4,12.4L902.6,550l37.8-21.8l21.4,12.4
		c3.1,1.8,7.1,0.7,8.9-2.4c1.8-3.1,0.7-7.1-2.4-8.9l-14.9-8.6l13.9-8c3.1-1.8,4.2-5.8,2.4-8.9v0c-1.8-3.1-5.8-4.2-8.9-2.4l-13.9,8
		v-17.2c0-3.6-2.9-6.5-6.5-6.5l0,0c-3.6,0-6.5,2.9-6.5,6.5v24.7L896,538.7v-43.6l21.4-12.4c3.1-1.8,4.2-5.8,2.4-8.9l0,0
		c-1.8-3.1-5.8-4.2-8.9-2.4L896,480v-16c0-3.6-2.9-6.5-6.5-6.5l0,0c-3.6,0-6.5,2.9-6.5,6.5v16l-14.9-8.6c-3.1-1.8-7.1-0.7-8.9,2.4
		l0,0c-1.8,3.1-0.7,7.1,2.4,8.9l21.4,12.4v43.6l-37.8-21.8v-24.7c0-3.6-2.9-6.5-6.5-6.5s-6.5,2.9-6.5,6.5v17.2l-13.9-8
		c-3.1-1.8-7.1-0.7-8.9,2.4v0c-1.8,3.1-0.7,7.1,2.4,8.9l13.9,8l-14.9,8.6c-3.1,1.8-4.2,5.8-2.4,8.9c1.8,3.1,5.8,4.2,8.9,2.4
		l21.4-12.4l37.8,21.8l-37.8,21.8l-21.4-12.4c-3.1-1.8-7.1-0.7-8.9,2.4v0c-1.8,3.1-0.7,7.1,2.4,8.9l14.9,8.6l-13.9,8
		c-3.1,1.8-4.2,5.8-2.4,8.9l0,0c1.8,3.1,5.8,4.2,8.9,2.4l13.9-8v17.2c0,3.6,2.9,6.5,6.5,6.5s6.5-2.9,6.5-6.5v-24.7l37.8-21.8v43.6
		l-21.4,12.4c-3.1,1.8-4.2,5.8-2.4,8.9c1.8,3.1,5.8,4.2,8.9,2.4L883,620v16c0,3.6,2.9,6.5,6.5,6.5l0,0c3.6,0,6.5-2.9,6.5-6.5v-16
		l14.9,8.6c3.1,1.8,7.1,0.7,8.9-2.4c1.8-3.1,0.7-7.1-2.4-8.9L896,604.9v-43.6l37.8,21.8v24.7c0,3.6,2.9,6.5,6.5,6.5l0,0
		c3.6,0,6.5-2.9,6.5-6.5v-17.2l13.9,8c3.1,1.8,7.1,0.7,8.9-2.4l0,0c1.8-3.1,0.7-7.1-2.4-8.9l-13.9-8l14.9-8.6
		C971.4,568.9,972.5,564.9,970.7,561.8z"/>
	<path class="st1" d="M1349.7,561.8L1349.7,561.8c-1.8-3.1-5.8-4.2-8.9-2.4l-21.4,12.4l-37.8-21.8l37.8-21.8l21.4,12.4
		c3.1,1.8,7.1,0.7,8.9-2.4c1.8-3.1,0.7-7.1-2.4-8.9l-14.9-8.6l13.9-8c3.1-1.8,4.2-5.8,2.4-8.9v0c-1.8-3.1-5.8-4.2-8.9-2.4l-13.9,8
		v-17.2c0-3.6-2.9-6.5-6.5-6.5l0,0c-3.6,0-6.5,2.9-6.5,6.5v24.7l-37.8,21.8v-43.6l21.4-12.4c3.1-1.8,4.2-5.8,2.4-8.9l0,0
		c-1.8-3.1-5.8-4.2-8.9-2.4l-14.9,8.6v-16c0-3.6-2.9-6.5-6.5-6.5l0,0c-3.6,0-6.5,2.9-6.5,6.5v16l-14.9-8.6c-3.1-1.8-7.1-0.7-8.9,2.4
		l0,0c-1.8,3.1-0.7,7.1,2.4,8.9l21.4,12.4v43.6l-37.8-21.8v-24.7c0-3.6-2.9-6.5-6.5-6.5s-6.5,2.9-6.5,6.5v17.2l-13.9-8
		c-3.1-1.8-7.1-0.7-8.9,2.4v0c-1.8,3.1-0.7,7.1,2.4,8.9l13.9,8l-14.9,8.6c-3.1,1.8-4.2,5.8-2.4,8.9c1.8,3.1,5.8,4.2,8.9,2.4
		l21.4-12.4l37.8,21.8l-37.8,21.8l-21.4-12.4c-3.1-1.8-7.1-0.7-8.9,2.4v0c-1.8,3.1-0.7,7.1,2.4,8.9l14.9,8.6l-13.9,8
		c-3.1,1.8-4.2,5.8-2.4,8.9l0,0c1.8,3.1,5.8,4.2,8.9,2.4l13.9-8v17.2c0,3.6,2.9,6.5,6.5,6.5s6.5-2.9,6.5-6.5v-24.7l37.8-21.8v43.6
		l-21.4,12.4c-3.1,1.8-4.2,5.8-2.4,8.9c1.8,3.1,5.8,4.2,8.9,2.4l14.9-8.6v16c0,3.6,2.9,6.5,6.5,6.5l0,0c3.6,0,6.5-2.9,6.5-6.5v-16
		l14.9,8.6c3.1,1.8,7.1,0.7,8.9-2.4c1.8-3.1,0.7-7.1-2.4-8.9l-21.4-12.4v-43.6l37.8,21.8v24.7c0,3.6,2.9,6.5,6.5,6.5l0,0
		c3.6,0,6.5-2.9,6.5-6.5v-17.2l13.9,8c3.1,1.8,7.1,0.7,8.9-2.4l0,0c1.8-3.1,0.7-7.1-2.4-8.9l-13.9-8l14.9-8.6
		C1350.4,568.9,1351.5,564.9,1349.7,561.8z"/>
	<path class="st1" d="M1160.2,746.9L1160.2,746.9c-1.8-3.1-5.8-4.2-8.9-2.4l-21.4,12.4l-37.8-21.8l37.8-21.8l21.4,12.4
		c3.1,1.8,7.1,0.7,8.9-2.4c1.8-3.1,0.7-7.1-2.4-8.9l-14.9-8.6l13.9-8c3.1-1.8,4.2-5.8,2.4-8.9l0,0c-1.8-3.1-5.8-4.2-8.9-2.4l-13.9,8
		v-17.2c0-3.6-2.9-6.5-6.5-6.5l0,0c-3.6,0-6.5,2.9-6.5,6.5v24.7l-37.8,21.8v-43.6l21.4-12.4c3.1-1.8,4.2-5.8,2.4-8.9l0,0
		c-1.8-3.1-5.8-4.2-8.9-2.4l-14.9,8.6v-16c0-3.6-2.9-6.5-6.5-6.5l0,0c-3.6,0-6.5,2.9-6.5,6.5v16l-14.9-8.6c-3.1-1.8-7.1-0.7-8.9,2.4
		l0,0c-1.8,3.1-0.7,7.1,2.4,8.9l21.4,12.4v43.6l-37.8-21.8v-24.7c0-3.6-2.9-6.5-6.5-6.5s-6.5,2.9-6.5,6.5v17.2l-13.9-8
		c-3.1-1.8-7.1-0.7-8.9,2.4l0,0c-1.8,3.1-0.7,7.1,2.4,8.9l13.9,8l-14.9,8.6c-3.1,1.8-4.2,5.8-2.4,8.9c1.8,3.1,5.8,4.2,8.9,2.4
		l21.4-12.4L1066,735l-37.8,21.8l-21.4-12.4c-3.1-1.8-7.1-0.7-8.9,2.4l0,0c-1.8,3.1-0.7,7.1,2.4,8.9l14.9,8.6l-13.9,8
		c-3.1,1.8-4.2,5.8-2.4,8.9v0c1.8,3.1,5.8,4.2,8.9,2.4l13.9-8v17.2c0,3.6,2.9,6.5,6.5,6.5s6.5-2.9,6.5-6.5v-24.7l37.8-21.8V790
		l-21.4,12.4c-3.1,1.8-4.2,5.8-2.4,8.9c1.8,3.1,5.8,4.2,8.9,2.4l14.9-8.6v16c0,3.6,2.9,6.5,6.5,6.5l0,0c3.6,0,6.5-2.9,6.5-6.5v-16
		l14.9,8.6c3.1,1.8,7.1,0.7,8.9-2.4c1.8-3.1,0.7-7.1-2.4-8.9l-21.4-12.4v-43.6l37.8,21.8v24.7c0,3.6,2.9,6.5,6.5,6.5l0,0
		c3.6,0,6.5-2.9,6.5-6.5v-17.2l13.9,8c3.1,1.8,7.1,0.7,8.9-2.4v0c1.8-3.1,0.7-7.1-2.4-8.9l-13.9-8l14.9-8.6
		C1160.9,754,1162,750,1160.2,746.9z"/>
	<path class="st1" d="M212.6,931.9L212.6,931.9c-1.8-3.1-5.8-4.2-8.9-2.4l-21.4,12.4l-37.8-21.8l37.8-21.8l21.4,12.4
		c3.1,1.8,7.1,0.7,8.9-2.4c1.8-3.1,0.7-7.1-2.4-8.9l-14.9-8.6l13.9-8c3.1-1.8,4.2-5.8,2.4-8.9l0,0c-1.8-3.1-5.8-4.2-8.9-2.4l-13.9,8
		v-17.2c0-3.6-2.9-6.5-6.5-6.5l0,0c-3.6,0-6.5,2.9-6.5,6.5V887L138,908.8v-43.6l21.4-12.4c3.1-1.8,4.2-5.8,2.4-8.9l0,0
		c-1.8-3.1-5.8-4.2-8.9-2.4l-14.9,8.6v-16c0-3.6-2.9-6.5-6.5-6.5l0,0c-3.6,0-6.5,2.9-6.5,6.5v16l-14.9-8.6c-3.1-1.8-7.1-0.7-8.9,2.4
		l0,0c-1.8,3.1-0.7,7.1,2.4,8.9l21.4,12.4v43.6L87.2,887v-24.7c0-3.6-2.9-6.5-6.5-6.5s-6.5,2.9-6.5,6.5v17.2l-13.9-8
		c-3.1-1.8-7.1-0.7-8.9,2.4l0,0c-1.8,3.1-0.7,7.1,2.4,8.9l13.9,8l-14.9,8.6c-3.1,1.8-4.2,5.8-2.4,8.9c1.8,3.1,5.8,4.2,8.9,2.4
		l21.4-12.4l37.8,21.8l-37.8,21.8l-21.4-12.4c-3.1-1.8-7.1-0.7-8.9,2.4l0,0c-1.8,3.1-0.7,7.1,2.4,8.9l14.9,8.6l-13.9,8
		c-3.1,1.8-4.2,5.8-2.4,8.9l0,0c1.8,3.1,5.8,4.2,8.9,2.4l13.9-8v17.2c0,3.6,2.9,6.5,6.5,6.5s6.5-2.9,6.5-6.5v-24.7l37.8-21.8V975
		l-21.4,12.4c-3.1,1.8-4.2,5.8-2.4,8.9c1.8,3.1,5.8,4.2,8.9,2.4l14.9-8.6v16c0,3.6,2.9,6.5,6.5,6.5l0,0c3.6,0,6.5-2.9,6.5-6.5v-16
		l14.9,8.6c3.1,1.8,7.1,0.7,8.9-2.4c1.8-3.1,0.7-7.1-2.4-8.9L138,975v-43.6l37.8,21.8v24.7c0,3.6,2.9,6.5,6.5,6.5l0,0
		c3.6,0,6.5-2.9,6.5-6.5v-17.2l13.9,8c3.1,1.8,7.1,0.7,8.9-2.4l0,0c1.8-3.1,0.7-7.1-2.4-8.9l-13.9-8l14.9-8.6
		C213.3,939,214.4,935,212.6,931.9z"/>
	<path class="st1" d="M591.6,931.9L591.6,931.9c-1.8-3.1-5.8-4.2-8.9-2.4l-21.4,12.4l-37.8-21.8l37.8-21.8l21.4,12.4
		c3.1,1.8,7.1,0.7,8.9-2.4s0.7-7.1-2.4-8.9l-14.9-8.6l13.9-8c3.1-1.8,4.2-5.8,2.4-8.9l0,0c-1.8-3.1-5.8-4.2-8.9-2.4l-13.9,8v-17.2
		c0-3.6-2.9-6.5-6.5-6.5l0,0c-3.6,0-6.5,2.9-6.5,6.5V887L517,908.8v-43.6l21.4-12.4c3.1-1.8,4.2-5.8,2.4-8.9l0,0
		c-1.8-3.1-5.8-4.2-8.9-2.4l-14.9,8.6v-16c0-3.6-2.9-6.5-6.5-6.5l0,0c-3.6,0-6.5,2.9-6.5,6.5v16l-14.9-8.6c-3.1-1.8-7.1-0.7-8.9,2.4
		l0,0c-1.8,3.1-0.7,7.1,2.4,8.9l21.4,12.4v43.6L466.2,887v-24.7c0-3.6-2.9-6.5-6.5-6.5s-6.5,2.9-6.5,6.5v17.2l-13.9-8
		c-3.1-1.8-7.1-0.7-8.9,2.4l0,0c-1.8,3.1-0.7,7.1,2.4,8.9l13.9,8l-14.9,8.6c-3.1,1.8-4.2,5.8-2.4,8.9s5.8,4.2,8.9,2.4l21.4-12.4
		l37.8,21.8l-37.8,21.8l-21.4-12.4c-3.1-1.8-7.1-0.7-8.9,2.4l0,0c-1.8,3.1-0.7,7.1,2.4,8.9l14.9,8.6l-13.9,8
		c-3.1,1.8-4.2,5.8-2.4,8.9l0,0c1.8,3.1,5.8,4.2,8.9,2.4l13.9-8v17.2c0,3.6,2.9,6.5,6.5,6.5s6.5-2.9,6.5-6.5v-24.7l37.8-21.8V975
		l-21.4,12.4c-3.1,1.8-4.2,5.8-2.4,8.9c1.8,3.1,5.8,4.2,8.9,2.4l14.9-8.6v16c0,3.6,2.9,6.5,6.5,6.5l0,0c3.6,0,6.5-2.9,6.5-6.5v-16
		l14.9,8.6c3.1,1.8,7.1,0.7,8.9-2.4c1.8-3.1,0.7-7.1-2.4-8.9L517,975v-43.6l37.8,21.8v24.7c0,3.6,2.9,6.5,6.5,6.5l0,0
		c3.6,0,6.5-2.9,6.5-6.5v-17.2l13.9,8c3.1,1.8,7.1,0.7,8.9-2.4l0,0c1.8-3.1,0.7-7.1-2.4-8.9l-13.9-8l14.9-8.6
		C592.4,939,593.4,935,591.6,931.9z"/>
	<path class="st1" d="M970.7,931.9L970.7,931.9c-1.8-3.1-5.8-4.2-8.9-2.4l-21.4,12.4l-37.8-21.8l37.8-21.8l21.4,12.4
		c3.1,1.8,7.1,0.7,8.9-2.4s0.7-7.1-2.4-8.9l-14.9-8.6l13.9-8c3.1-1.8,4.2-5.8,2.4-8.9l0,0c-1.8-3.1-5.8-4.2-8.9-2.4l-13.9,8v-17.2
		c0-3.6-2.9-6.5-6.5-6.5l0,0c-3.6,0-6.5,2.9-6.5,6.5V887L896,908.8v-43.6l21.4-12.4c3.1-1.8,4.2-5.8,2.4-8.9l0,0
		c-1.8-3.1-5.8-4.2-8.9-2.4l-14.9,8.6v-16c0-3.6-2.9-6.5-6.5-6.5l0,0c-3.6,0-6.5,2.9-6.5,6.5v16l-14.9-8.6c-3.1-1.8-7.1-0.7-8.9,2.4
		l0,0c-1.8,3.1-0.7,7.1,2.4,8.9l21.4,12.4v43.6L845.2,887v-24.7c0-3.6-2.9-6.5-6.5-6.5s-6.5,2.9-6.5,6.5v17.2l-13.9-8
		c-3.1-1.8-7.1-0.7-8.9,2.4l0,0c-1.8,3.1-0.7,7.1,2.4,8.9l13.9,8l-14.9,8.6c-3.1,1.8-4.2,5.8-2.4,8.9s5.8,4.2,8.9,2.4l21.4-12.4
		l37.8,21.8l-37.8,21.8l-21.4-12.4c-3.1-1.8-7.1-0.7-8.9,2.4l0,0c-1.8,3.1-0.7,7.1,2.4,8.9l14.9,8.6l-13.9,8
		c-3.1,1.8-4.2,5.8-2.4,8.9l0,0c1.8,3.1,5.8,4.2,8.9,2.4l13.9-8v17.2c0,3.6,2.9,6.5,6.5,6.5s6.5-2.9,6.5-6.5v-24.7l37.8-21.8V975
		l-21.4,12.4c-3.1,1.8-4.2,5.8-2.4,8.9c1.8,3.1,5.8,4.2,8.9,2.4l14.9-8.6v16c0,3.6,2.9,6.5,6.5,6.5l0,0c3.6,0,6.5-2.9,6.5-6.5v-16
		l14.9,8.6c3.1,1.8,7.1,0.7,8.9-2.4c1.8-3.1,0.7-7.1-2.4-8.9L896,975v-43.6l37.8,21.8v24.7c0,3.6,2.9,6.5,6.5,6.5l0,0
		c3.6,0,6.5-2.9,6.5-6.5v-17.2l13.9,8c3.1,1.8,7.1,0.7,8.9-2.4l0,0c1.8-3.1,0.7-7.1-2.4-8.9l-13.9-8l14.9-8.6
		C971.4,939,972.5,935,970.7,931.9z"/>
	<path class="st1" d="M1349.7,931.9L1349.7,931.9c-1.8-3.1-5.8-4.2-8.9-2.4l-21.4,12.4l-37.8-21.8l37.8-21.8l21.4,12.4
		c3.1,1.8,7.1,0.7,8.9-2.4s0.7-7.1-2.4-8.9l-14.9-8.6l13.9-8c3.1-1.8,4.2-5.8,2.4-8.9l0,0c-1.8-3.1-5.8-4.2-8.9-2.4l-13.9,8v-17.2
		c0-3.6-2.9-6.5-6.5-6.5l0,0c-3.6,0-6.5,2.9-6.5,6.5V887l-37.8,21.8v-43.6l21.4-12.4c3.1-1.8,4.2-5.8,2.4-8.9l0,0
		c-1.8-3.1-5.8-4.2-8.9-2.4l-14.9,8.6v-16c0-3.6-2.9-6.5-6.5-6.5l0,0c-3.6,0-6.5,2.9-6.5,6.5v16l-14.9-8.6c-3.1-1.8-7.1-0.7-8.9,2.4
		l0,0c-1.8,3.1-0.7,7.1,2.4,8.9l21.4,12.4v43.6l-37.8-21.8v-24.7c0-3.6-2.9-6.5-6.5-6.5s-6.5,2.9-6.5,6.5v17.2l-13.9-8
		c-3.1-1.8-7.1-0.7-8.9,2.4l0,0c-1.8,3.1-0.7,7.1,2.4,8.9l13.9,8l-14.9,8.6c-3.1,1.8-4.2,5.8-2.4,8.9s5.8,4.2,8.9,2.4l21.4-12.4
		l37.8,21.8l-37.8,21.8l-21.4-12.4c-3.1-1.8-7.1-0.7-8.9,2.4l0,0c-1.8,3.1-0.7,7.1,2.4,8.9l14.9,8.6l-13.9,8
		c-3.1,1.8-4.2,5.8-2.4,8.9l0,0c1.8,3.1,5.8,4.2,8.9,2.4l13.9-8v17.2c0,3.6,2.9,6.5,6.5,6.5s6.5-2.9,6.5-6.5v-24.7l37.8-21.8V975
		l-21.4,12.4c-3.1,1.8-4.2,5.8-2.4,8.9c1.8,3.1,5.8,4.2,8.9,2.4l14.9-8.6v16c0,3.6,2.9,6.5,6.5,6.5l0,0c3.6,0,6.5-2.9,6.5-6.5v-16
		l14.9,8.6c3.1,1.8,7.1,0.7,8.9-2.4s0.7-7.1-2.4-8.9l-21.4-12.4v-43.6l37.8,21.8v24.7c0,3.6,2.9,6.5,6.5,6.5l0,0
		c3.6,0,6.5-2.9,6.5-6.5v-17.2l13.9,8c3.1,1.8,7.1,0.7,8.9-2.4l0,0c1.8-3.1,0.7-7.1-2.4-8.9l-13.9-8l14.9-8.6
		C1350.4,939,1351.5,935,1349.7,931.9z"/>
</g>
<path class="st2" d="M493.8,790.8c0,0,21.7,6.4,28.4,6.3c6.7-0.1,8.5-6.4,3.9-13.3c-4.6-6.9-4-11.2,2.6-11.1
	c6.5,0.1,20.3,3.9,25.4,2.2c5.2-1.7,5.6-9.3-0.6-10.3c-6.2-1-14.5,3.4-22.6,1.3c-8.1-2-16-6.3-17.8-13.3c-1.8-7,1.1-14.3,14.7-20.7
	c-6.9-6.7-6-15.1-2-16.5c4-1.5,10.2-0.3,15.6-2.8c5.4-2.5,5.6-11-1.9-10.6s-13.8,5.4-21.8,4.9c-8-0.4-15.5-2.8-18.4-8.2
	c9.8-1.5,5.7-14.6,1.8-19.6c14.9-0.7,19.7-10.5,13.5-10.9c-6.2-0.4-33.3,1.9-42.1-2.1c-8.9-4-10.1-15.8-2.4-18.1s10.9-1.6,12.2-5.2
	c1.3-3.6,0.9-7,0.9-7s6.6,1,12.3-3.7c5.8-4.6-0.3-7-5.2-7c-4.9,0-20.2,1.5-31.2-4.4c-11.1-5.9-16.1-20-16.1-20s20.4,1.2,21.2-15.5
	c15.3,7.5,19.8-8.7,16.3-8.7s-32.5,3.8-39.2-4.4c10.7-1.9,9.9-8.8,8.1-11c-1.8-2.2-2.9-4.9,1.9-5.9c4.8-1,10.2-2.9,7-5.4
	s-8.8,0.7-12.3,1.3c-3.6,0.6-19.4,1.9-18.9-9s10.2-11,14.6-12.1c4.4-1.1,6-4.8-0.7-5.4c-6.6-0.6-13.1,1.9-12.6-10.1
	c0.6-12,1.2-14.5-2.1-14.6c-3.4-0.1-3.8,7.8-4.3,12.5c-0.4,4.7,0.6,8.3-5.1,8.3s-9.4,0.3-6.1,3s9.9,7.6,6.1,13.6
	c-3.8,6-10.2,9.8-18.4,8.8c-8.2-1-15.5-5.7-17.2-4.5c-1.7,1.2,1.8,4.4,3.3,5.4s2.2,2.6-0.2,5.6c-2.4,2.9-0.3,8.3,2.7,5.4
	c3-2.9,4.3-5.3,6.7-4.7s-2.1,5.6-1,7.3s7.2-0.6,11.3-0.1c4,0.5,8.3,5.8,2.6,12.1c-5.6,6.3-20.1,9.3-29.2,7.2
	c-9.1-2-21.6-8.7-26.3-11.6s-8.9-0.3-3.4,2.9c5.5,3.1,10.8,5.7,8.9,7.8s-7.8,5.3-4.6,7.4s5.3,0.2,8.9-1.4c3.5-1.6,5.3-2.2,5.8,2.4
	c0.6,4.7,1.2,5.7,5.1,3.9c3.9-1.7,7.9-2.8,9.7,0.8c1.7,3.5,0.8,7.4-2.3,11.7c-3.1,4.3-12.9,14.5-25.9,15.4c-13,0.9-31-3.3-32.4-3.1
	c-1.3,0.1-1.3,1.8,1.7,3.2c3,1.4,4.9,3.3,1.9,4.1c-3.1,0.8-6.4,2.1-2.9,3.7c3.4,1.6,7.1-0.8,9.2,1.5c2.1,2.3,1.5,3.1-0.8,5.5
	c-2.3,2.4-0.1,4.6,4.5,4.6s8.9-0.7,6.2,3.2c-2.7,4-5.8,7-3.1,11.9c2.7,4.9,9.4,2.5,10.9-0.6c-0.9,6.7-12.1,20-27.3,19.1
	c-15.3-0.9-26.6-5.3-29.6-2.2c-3,3.1-2.3,8.2,0,12.3c2.3,4.1,6.2,8.4,1.4,10.9s-13,4.3-12.2,7.9s3,3.9-0.1,6.2c-3,2.3-6,3.2-4.2,5.5
	c1.8,2.3,5.5,2.5,5.5,3.8c0,1.3-5.2,1.6-4.4,4.2s7.5,2.2,8.2,6.3c0.7,4.1-7.9,10.6-17.5,8.6c-9.6-2-19.1-4.6-20.2-1.6
	c-1.1,3,1.2,5.3,4.4,5.5c3.1,0.2,6.3,1.4,3.6,3.8c-2.7,2.4-7.3,7.9-3.4,9.7c4,1.7,4.9-2.6,7.3-2.7c2.5-0.1,0.3,4.8-2.2,8.4
	c-2.5,3.6-1.6,6.1,1.3,6.3c2.8,0.2,7.2-3.1,8.2-2.2s-3.7,6.5-6.3,10.4c-2.6,3.9-0.1,9.3,4,6.4c4-2.9,5.4-5,6.8-5s-2.9,8.8-0.4,11.1
	c2.5,2.2,6.5,4.3,14.1,2.2c7.6-2.1,11.8-5.8,13.2-4s-5.7,8.8-3.4,12.1c2.3,3.3,7.8,0,10.3-3.1c2.5-3.1,6.1-1.6,4.3,3.5
	c-1.8,5.1,1.7,11.9,7.8,8.9c6.1-3,6.4-4.3,7.4-4.3s2.7,2.2,3.1,7.1c0.4,4.9,5,9.4,10.4,4.1s10-11.2,11.3-11.1
	c1.3,0.1-2.6,14.2,2.2,14.8s15.3-7.9,16.7-12.1c5.2,13.9,14.9,19.5,18.7-0.1c14.1,17.6,16.6,17.9,19,16.6c2.4-1.3,1.3-16,1.3-16
	s17,15,26.4,11.2c3.1-1.3-0.2-14.5-0.2-14.5s16.6,14.2,26.7,11.5s-2.6-19-2.6-19s24.6,16,35.9,11.1
	C501.8,801.6,493.8,790.8,493.8,790.8z"/>
<g>
	<circle class="st3" cx="647.8" cy="778.5" r="46.2"/>
	<circle class="st3" cx="910.2" cy="778.5" r="46.2"/>
	<polygon class="st4" points="1121.5,370.2 442.4,370.2 547.4,694.9 1031.4,648.9 	"/>
	<path class="st5" d="M1130.8,363.4c-2.2-3-5.6-4.7-9.3-4.7H450.8l-24.4-75.4c-1.5-4.7-6-8-10.9-8h-137c-6.4,0-11.5,5.1-11.5,11.5
		s5.1,11.5,11.5,11.5h128.6l24.4,75.4l104.9,324.8c1.5,4.8,6,8,10.9,8c0.4,0,0.7,0,1.1-0.1l484.1-46.1c4.6-0.4,8.4-3.5,9.9-7.9
		l90.1-278.7C1133.6,370.2,1133,366.4,1130.8,363.4z M1055,538.6L517.8,566l-39.6-122.6h607.6L1055,538.6z M1022.8,638.1
		l-467.3,44.5L520.4,574l531.9-27.2L1022.8,638.1z M1088.4,435.3H475.6l-17.3-53.6h647.5L1088.4,435.3z"/>
	<g>
		<path class="st6" d="M664.9,461H675v37.8h0.3c2.1-3,4.2-5.8,6.2-8.4l24-29.4h12.6l-28.4,33.3l30.6,45.1h-12l-25.8-38.5l-7.4,8.6
			v29.9H665L664.9,461L664.9,461z"/>
		<path class="st6" d="M760.6,539.4l-0.8-7.1h-0.3c-3.1,4.4-9.2,8.4-17.2,8.4c-11.4,0-17.2-8-17.2-16.2c0-13.6,12.1-21,33.8-20.9
			v-1.2c0-4.7-1.3-13-12.8-13c-5.2,0-10.7,1.6-14.7,4.2l-2.3-6.7c4.7-3,11.4-5,18.5-5c17.2,0,21.4,11.7,21.4,23v21
			c0,4.9,0.2,9.7,0.9,13.5H760.6z M759.1,510.7c-11.2-0.2-23.8,1.7-23.8,12.7c0,6.6,4.4,9.8,9.7,9.8c7.3,0,12-4.7,13.6-9.4
			c0.3-1,0.6-2.2,0.6-3.3L759.1,510.7L759.1,510.7z"/>
		<path class="st6" d="M832.6,524.1c0,5.8,0.1,10.9,0.5,15.4H824l-0.6-9.2h-0.2c-2.7,4.5-8.6,10.5-18.6,10.5
			c-8.8,0-19.4-4.9-19.4-24.7v-32.9h10.2v31.2c0,10.7,3.3,17.9,12.6,17.9c6.9,0,11.6-4.8,13.5-9.3c0.6-1.5,0.9-3.4,0.9-5.2v-34.5
			h10.2L832.6,524.1L832.6,524.1z"/>
		<path class="st6" d="M850.6,539.4v-48.5h-7.9v-7.8h7.9v-2.7c0-7.9,1.7-15.1,6.5-19.7c3.8-3.7,9-5.2,13.7-5.2
			c3.6,0,6.7,0.8,8.7,1.6l-1.4,7.9c-1.5-0.7-3.6-1.3-6.5-1.3c-8.7,0-10.9,7.7-10.9,16.3v3h13.6v7.8h-13.6v48.5h-10.1V539.4z"/>
	</g>
</g>
</svg>
