<svg id="flat" height="512" viewBox="0 0 512 512" width="512" xmlns="http://www.w3.org/2000/svg"><path d="m344 488v-168.29334a56 56 0 0 0 -27.18824-48.0196l-52.81176-31.68706-24-32h-48l-24 32-52.81176 31.68706a56 56 0 0 0 -27.18824 48.0196v96.29334l24 18v54z" fill="#d1e4ff"/><path d="m216 392 32-32-16-80 8-16-24-32-24 32 8 16-16 80z" fill="#ef5e3b"/><rect fill="#d14521" height="16" rx="8" width="48" x="192" y="272"/><path d="m424 304v128l-56 56h-120l-67.61-60.39 51.61-51.61v-64l96 22.15 8 1.85 8-2.91z" fill="#548aff"/><path d="m112 434 72 54h-72z" fill="#b2c6eb"/><path d="m240 264 24-24-24-32h-24v24z" fill="#e0edff"/><path d="m194.57373 453.88721-56.23047-56.23047a7.99877 7.99877 0 0 1 -2.34326-5.65674v-56h16v52.686l53.88721 53.88769z" fill="#bdd1f2"/><path d="m344 333.09v90.91a7.98393 7.98393 0 0 1 -1.98 5.27l-51.39 58.73h-21.26l58.63-67.01v-86.84l8 1.85z" fill="#4976f2"/><path d="m169.655 477.241 14.345 10.759h64v-40l-16-16-40 8z" fill="#ffceb6"/><path d="m192 264-24-24 24-32h24v24z" fill="#e8f2ff"/><path d="m272 96v64a56 56 0 0 1 -55.99994 56h-.00012a56 56 0 0 1 -55.99994-56v-64z" fill="#ffceb6"/><path d="m208 184h-8v-16h8a8.00917 8.00917 0 0 0 8-8v-8h16v8a24.0275 24.0275 0 0 1 -24 24z" fill="#c78869"/><circle cx="192" cy="136" fill="#b1712c" r="8"/><circle cx="240" cy="136" fill="#b1712c" r="8"/><path d="m272 72h-112a47.94823 47.94823 0 0 1 48-48h16a48.00395 48.00395 0 0 1 48 48z" fill="#ffc431"/><g fill="#ffb401"><path d="m160 72-8 16a16 16 0 0 0 16 16h96a16 16 0 0 0 16-16l-8-16z"/><path d="m208 24v32h-16v-29.27a47.87293 47.87293 0 0 1 16-2.73z"/><path d="m240 26.73v45.27h-16v-48a47.87293 47.87293 0 0 1 16 2.73z"/></g></svg>