<?xml version="1.0" encoding="iso-8859-1"?>
<!-- Generator: Adobe Illustrator 19.0.0, SVG Export Plug-In . SVG Version: 6.00 Build 0)  -->
<svg version="1.1" id="Capa_1" xmlns="http://www.w3.org/2000/svg" xmlns:xlink="http://www.w3.org/1999/xlink" x="0px" y="0px"
	 viewBox="0 0 512 512" style="enable-background:new 0 0 512 512;" xml:space="preserve">
<g>
	<path style="fill:#4482C3;" d="M70.621,52.966h423.724c9.751,0,17.655,7.904,17.655,17.655v423.724
		c0,9.751-7.905,17.655-17.655,17.655H35.31"/>
	<path style="fill:#285680;" d="M35.31,0L35.31,0c19.501,0,35.31,15.809,35.31,35.31V476.69c0,19.501-15.809,35.31-35.31,35.31l0,0
		C15.809,512,0,496.191,0,476.69V35.31C0,15.809,15.809,0,35.31,0z"/>
	<rect x="70.621" y="97.103" style="fill:#E6E7E8;" width="397.241" height="370.759"/>
	<g>
		<path style="fill:#BDC3C7;" d="M467.862,291.31v17.655h-35.31c-4.869-0.014-8.813-3.958-8.828-8.828v-43.255
			c-20.537,4.222-35.285,22.288-35.31,43.255c-0.014,4.869-3.958,8.813-8.828,8.828h-26.483v79.448
			c-0.014,4.869-3.958,8.813-8.828,8.828h-43.255c4.223,20.537,22.289,35.284,43.255,35.31c4.869,0.014,8.813,3.958,8.828,8.828
			v26.483h-17.655v-18.361c-30.37-4.394-52.919-30.401-52.966-61.087c0.014-4.869,3.958-8.813,8.828-8.828h44.138V185.379h-18.362
			c-4.394,30.369-30.401,52.919-61.086,52.966c-4.869-0.014-8.813-3.958-8.828-8.828v-44.138H123.586
			c-4.875,0-8.828-3.952-8.828-8.828s3.952-8.828,8.828-8.828h26.483V97.103h17.655v70.621H256c4.869,0.014,8.813,3.958,8.828,8.828
			v43.255c20.537-4.222,35.285-22.288,35.31-43.255c0.014-4.869,3.958-8.813,8.828-8.828h26.483V97.103h17.655V291.31h18.362
			c4.394-30.369,30.401-52.919,61.086-52.965c4.869,0.014,8.813,3.958,8.828,8.828v44.138H467.862z"/>
		<path style="fill:#BDC3C7;" d="M256,300.138v167.724h-17.655V308.966h-61.793c-4.869-0.014-8.813-3.958-8.828-8.828v-43.255
			c-20.537,4.222-35.285,22.288-35.31,43.255c-0.014,4.869-3.958,8.813-8.828,8.828H70.621V291.31h44.845
			c4.394-30.369,30.401-52.919,61.086-52.965c4.869,0.014,8.813,3.958,8.828,8.828v44.138h61.793
			C252.042,291.324,255.986,295.268,256,300.138L256,300.138z"/>
	</g>
	<circle style="fill:#35495E;" cx="35.31" cy="476.69" r="35.31"/>
</g>
<g>
</g>
<g>
</g>
<g>
</g>
<g>
</g>
<g>
</g>
<g>
</g>
<g>
</g>
<g>
</g>
<g>
</g>
<g>
</g>
<g>
</g>
<g>
</g>
<g>
</g>
<g>
</g>
<g>
</g>
</svg>
