<svg height="512pt" viewBox="0 0 512.00002 512" width="512pt" xmlns="http://www.w3.org/2000/svg"><path d="m354.171875 231.078125-32.84375 21.898437-32.84375-21.898437-32.84375 21.898437-32.84375-21.898437-32.84375 21.898437-32.847656-21.898437-47.84375 31.898437v233.34375h292.757812v-233.34375zm0 0" fill="#725d57"/><path d="m402.019531 262.976562-47.847656-31.898437-32.84375 21.898437-32.84375-21.898437-32.84375 21.898437v243.34375h146.378906zm0 0" fill="#53433f"/><path d="m152.589844 0-38.949219 191.898438 53.234375-21.742188 27.832031 27.992188 36.542969-14.925782 27.832031 27.992188 36.542969-14.929688 27.835938 27.992188 36.542968-14.925782 40.542969 40.777344 38.945313-191.898437zm0 0" fill="#725d57"/><path d="m296.039062 29.113281-36.957031 182.101563 36.542969-14.929688 27.835938 27.992188 36.542968-14.925782 40.542969 40.777344 38.945313-191.898437zm0 0" fill="#53433f"/><g fill="#f3eee9"><path d="m259.976562 131.40625 9.371094-46.167969 29.398438 5.964844-9.371094 46.171875zm0 0"/><path d="m313.253906 142.21875 9.371094-46.167969 29.398438 5.964844-9.371094 46.171875zm0 0"/><path d="m206.691406 120.585938 9.371094-46.167969 29.398438 5.964843-9.371094 46.171876zm0 0"/><path d="m240.640625 302.980469h30v47.109375h-30zm0 0"/><path d="m295.003906 302.980469h30v47.109375h-30zm0 0"/><path d="m186.277344 302.980469h30v47.109375h-30zm0 0"/></g><path d="m210.277344 398.164062h90.726562v98.160157h-90.726562zm0 0" fill="#e9dfda"/><path d="m255.640625 398.164062h45.363281v98.160157h-45.363281zm0 0" fill="#dad0cb"/><path d="m0 481.320312h512v30h-512zm0 0" fill="#70da40"/><path d="m313.253906 142.21875 9.371094-46.167969 29.398438 5.964844-9.371094 46.171875zm0 0" fill="#e9dfda"/><path d="m295.003906 302.980469h30v47.109375h-30zm0 0" fill="#e9dfda"/><path d="m255.640625 481.320312h256.359375v30h-256.359375zm0 0" fill="#49a520"/><path d="m255.640625 302.980469h15v47.109375h-15zm0 0" fill="#e9dfda"/><path d="m274.675781 134.390625 9.371094-46.171875 14.699219 2.984375-9.371094 46.171875zm0 0" fill="#e9dfda"/></svg>