<?xml version="1.0" encoding="iso-8859-1"?>
<!-- Generator: Adobe Illustrator 19.0.0, SVG Export Plug-In . SVG Version: 6.00 Build 0)  -->
<svg version="1.1" id="Capa_1" xmlns="http://www.w3.org/2000/svg" xmlns:xlink="http://www.w3.org/1999/xlink" x="0px" y="0px"
	 viewBox="0 0 512 512" style="enable-background:new 0 0 512 512;" xml:space="preserve">
<g>
	<polygon style="fill:#CBB292;" points="492.491,286.897 492.491,493.286 256,493.286 256,489.048 24.894,489.048 24.894,138.681 
		105.931,138.681 105.931,14.124 261.297,14.124 261.297,7.239 417.457,7.239 417.457,128 497.876,128 497.876,284.072 	"/>
	<path style="fill:#7F8C8D;" d="M432.552,123.586V0H79.448v123.586H0V512h512V123.586H432.552z M238.345,476.69H35.31V158.897
		h79.448V35.31h123.586V476.69z M476.69,476.69H273.655V308.966H476.69V476.69z M476.69,273.655H273.655V35.31h123.586v123.586
		h79.448V273.655z"/>
	<g>
		<path style="fill:#E6E7E8;" d="M238.345,132.414v88.276c-44.138,0-52.966-35.31-52.966-35.31L238.345,132.414z"/>
		<path style="fill:#E6E7E8;" d="M238.345,344.276v88.276c-44.138,0-52.966-35.31-52.966-35.31L238.345,344.276z"/>
		<path style="fill:#E6E7E8;" d="M423.724,273.655h-88.276c0-44.138,35.31-52.966,35.31-52.966L423.724,273.655z"/>
		<path style="fill:#E6E7E8;" d="M476.69,353.103v88.276c-44.138,0-52.966-35.31-52.966-35.31L476.69,353.103z"/>
	</g>
</g>
<g>
</g>
<g>
</g>
<g>
</g>
<g>
</g>
<g>
</g>
<g>
</g>
<g>
</g>
<g>
</g>
<g>
</g>
<g>
</g>
<g>
</g>
<g>
</g>
<g>
</g>
<g>
</g>
<g>
</g>
</svg>
