<?xml version="1.0" encoding="iso-8859-1"?>
<!-- Generator: Adobe Illustrator 19.0.0, SVG Export Plug-In . SVG Version: 6.00 Build 0)  -->
<svg version="1.1" id="Capa_1" xmlns="http://www.w3.org/2000/svg" xmlns:xlink="http://www.w3.org/1999/xlink" x="0px" y="0px"
	 viewBox="0 0 512.004 512.004" style="enable-background:new 0 0 512.004 512.004;" xml:space="preserve">
<g>
	<path style="fill:#4482C3;" d="M68.006,52.968h392.337c9.383,0.375,16.694,8.271,16.347,17.655v423.724
		c0.347,9.384-6.964,17.28-16.347,17.655H35.312"/>
	<path style="fill:#285680;" d="M35.312,0.002L35.312,0.002c19.501,0,35.31,15.809,35.31,35.31v441.379
		c0,19.501-15.809,35.31-35.31,35.31l0,0c-19.501,0-35.31-15.809-35.31-35.31V35.313C0.001,15.811,15.81,0.002,35.312,0.002z"/>
	<circle style="fill:#35495E;" cx="35.312" cy="476.692" r="35.31"/>
	<path style="fill:#E6E7E8;" d="M511.471,190.943l-6.091,16.596l-6.002,16.596l-6.003,16.596h-0.088l-6.003,16.596l-4.855,13.33
		l-5.915,16.331l-6.179,16.861l-5.914,16.331l-6.18,16.861l-5.914,16.331l-6.091,16.861l-6.003,16.331l-6.092,16.861l-6.002,16.331
		l-6.091,16.772l-5.914,16.419l-6.18,16.772l-5.914,16.419l-7.328,20.039c-0.792,2.204-2.429,4.001-4.55,4.995
		c-2.12,0.994-4.549,1.102-6.75,0.301l-37.517-13.683c-89.952-32.75-141.065-130.56-111.58-221.661
		c14.75-45.61,47.411-83.262,90.481-104.305s92.844-23.67,137.889-7.275l41.49,15.095c2.204,0.792,4.001,2.43,4.994,4.55
		C512.164,186.314,512.272,188.743,511.471,190.943z"/>
	<path style="fill:#4482C3;" d="M362.061,446.6c-64.099-23.372-97.133-94.265-73.798-158.378
		c23.335-64.113,94.21-97.187,158.336-73.888L362.061,446.6z"/>
	<g>
		<path style="fill:#BDC3C7;" d="M505.381,207.539l-6.002,16.596l-8.299-3.001c-2.204-0.792-4.001-2.429-4.995-4.55
			c-0.994-2.12-1.102-4.549-0.302-6.75c1.692-4.598,6.781-6.965,11.388-5.297L505.381,207.539z"/>
		<path style="fill:#BDC3C7;" d="M493.287,240.731l-6.003,16.596l-8.298-3.001c-4.563-1.696-6.896-6.761-5.219-11.331
			c1.677-4.57,6.733-6.923,11.31-5.265L493.287,240.731z"/>
		<path style="fill:#BDC3C7;" d="M482.429,270.656l-5.915,16.331c-0.454-0.002-0.903-0.092-1.323-0.265l-8.211-3.001
			c-4.574-1.664-6.937-6.717-5.282-11.294c1.656-4.577,6.705-6.949,11.285-5.302l8.297,3.001
			C481.68,270.267,482.064,270.444,482.429,270.656L482.429,270.656z"/>
		<path style="fill:#BDC3C7;" d="M470.335,303.848l-5.914,16.331c-0.426-0.003-0.846-0.093-1.236-0.265l-8.298-3.001
			c-2.965-1.072-5.132-3.645-5.685-6.748c-0.554-3.104,0.59-6.267,3.001-8.298c2.411-2.031,5.722-2.622,8.687-1.55l8.298,3.001
			C469.586,303.459,469.97,303.636,470.335,303.848L470.335,303.848z"/>
		<path style="fill:#BDC3C7;" d="M458.241,337.04l-5.914,16.331c-0.426-0.003-0.846-0.093-1.236-0.265l-8.298-3.001
			c-4.598-1.692-6.964-6.781-5.295-11.388c0.8-2.195,2.443-3.98,4.565-4.958c2.122-0.978,4.546-1.068,6.735-0.25l8.297,3.001
			C457.492,336.65,457.876,336.827,458.241,337.04L458.241,337.04z"/>
		<path style="fill:#BDC3C7;" d="M446.236,370.231l-6.003,16.331c-0.426-0.003-0.846-0.093-1.236-0.265l-8.298-3.09
			c-2.963-1.062-5.131-3.628-5.683-6.727s0.596-6.256,3.009-8.276c2.414-2.02,5.723-2.594,8.676-1.505l8.386,3.001
			C445.53,369.878,445.883,370.055,446.236,370.231z"/>
		<path style="fill:#BDC3C7;" d="M434.142,403.423l-6.002,16.331c-0.423-0.077-0.837-0.195-1.236-0.353l-8.298-3.001
			c-4.546-1.707-6.864-6.762-5.19-11.321c1.673-4.559,6.711-6.914,11.282-5.275l8.298,3.09
			C433.436,403.07,433.789,403.247,434.142,403.423z"/>
		<path style="fill:#BDC3C7;" d="M422.049,436.527l-5.914,16.419c-0.423-0.077-0.837-0.195-1.236-0.353l-8.297-3.001
			c-2.979-1.062-5.161-3.636-5.721-6.748c-0.56-3.112,0.588-6.286,3.009-8.32c2.421-2.034,5.746-2.617,8.714-1.528l8.297,3.001
			C421.254,436.173,421.695,436.35,422.049,436.527z"/>
		<path style="fill:#BDC3C7;" d="M409.954,469.718l-5.914,16.419c-0.423-0.076-0.837-0.195-1.236-0.353l-8.298-3.001
			c-4.583-1.658-6.954-6.717-5.296-11.3c1.658-4.583,6.717-6.954,11.3-5.296l8.298,3.001
			C409.16,469.365,409.601,469.542,409.954,469.718z"/>
	</g>
	<polygon style="fill:#B0D3F0;" points="196.68,231.903 144.509,241.172 112.377,58.529 164.459,49.349 	"/>
	<path style="fill:#2C3E50;" d="M164.459,49.349l-52.083,9.181l-6.179-34.781c-1.647-9.572,4.74-18.68,14.301-20.392l17.39-3.09
		c9.598-1.677,18.748,4.712,20.48,14.301L164.459,49.349z"/>
	<polygon style="fill:#35495E;" points="144.527,241.128 181.338,297.386 196.689,231.93 	"/>
</g>
<g>
</g>
<g>
</g>
<g>
</g>
<g>
</g>
<g>
</g>
<g>
</g>
<g>
</g>
<g>
</g>
<g>
</g>
<g>
</g>
<g>
</g>
<g>
</g>
<g>
</g>
<g>
</g>
<g>
</g>
</svg>
