<svg height="512pt" viewBox="0 0 511 512" width="512pt" xmlns="http://www.w3.org/2000/svg"><path d="m183.203125 19.882812-132.246094 108.695313-17.132812 177.746094 240.855469 23.226562 17.191406-178.097656zm0 0" fill="#e9dfda"/><path d="m183.214844 19.894531-27.445313 298.191407 118.910157 11.464843 17.191406-178.097656zm0 0" fill="#dad0cb"/><path d="m302.871094 189.765625-121.726563-147.386719-148.050781 121.339844-19.046875-23.167969 170.996094-140.550781 140.957031 170.664062zm0 0" fill="#ff1f3e"/><path d="m118.695312 174.417969-13.441406 138.792969 97.796875 9.433593 13.800781-138.75zm0 0" fill="#725d57"/><path d="m216.851562 183.894531-48.300781-4.664062-12.78125 138.855469 47.28125 4.558593zm0 0" fill="#53433f"/><path d="m332.71875 277.839844-43.828125 48.566406 30.234375 36.976562-79.210938 84.25 3.539063-94.226562-34.28125-30.636719 23.300781-44.929687h-231.972656v234.160156h510.84375v-234.160156zm0 0" fill="#b35f49"/><path d="m326 170.664062-140.957031-170.664062-3.898438 42.378906 121.726563 147.386719zm0 0" fill="#bf0000"/><path d="m332.71875 277.839844-43.828125 48.566406 30.234375 36.976562-63.203125 67.222657v81.394531h255.421875v-234.160156zm0 0" fill="#804231"/></svg>