<?xml version="1.0" encoding="UTF-8"?>
<svg xmlns="http://www.w3.org/2000/svg" xmlns:xlink="http://www.w3.org/1999/xlink" width="512" height="512" viewBox="0 0 58 58" version="1.1"><!-- Generator: Sketch 50.2 (55047) - http://www.bohemiancoding.com/sketch --><title>040 - Tools </title><desc>Created with Sketch.</desc><defs/><g id="Page-1" stroke="none" stroke-width="1" fill="none" fill-rule="evenodd"><g id="040---Tools-" fill-rule="nonzero"><rect id="Rectangle-path" fill="#D1D4D1" x="50" y="43" width="8" height="10"/><path d="M54.928,2.321 C54.7758244,1.94197019 54.4084373,1.69358019 54,1.69358019 C53.5915627,1.69358019 53.2241756,1.94197019 53.072,2.321 L50,10 L50,13 L58,13 L58,10 L54.928,2.321 Z" id="Shape" fill="#CB8252"/><rect id="Rectangle-path" fill="#95A5A5" x="0" y="0" width="8" height="58" rx="1"/><path d="M0,5 L2,5 C2.55228475,5 3,4.55228475 3,4 C3,3.44771525 2.55228475,3 2,3 L0,3 L0,5 Z" id="Shape" fill="#5E5F62"/><path d="M0,10 L2,10 C2.55228475,10 3,9.55228475 3,9 C3,8.44771525 2.55228475,8 2,8 L0,8 L0,10 Z" id="Shape" fill="#5E5F62"/><path d="M0,20 L2,20 C2.55228475,20 3,19.5522847 3,19 C3,18.4477153 2.55228475,18 2,18 L0,18 L0,20 Z" id="Shape" fill="#5E5F62"/><path d="M0,25 L2,25 C2.55228475,25 3,24.5522847 3,24 C3,23.4477153 2.55228475,23 2,23 L0,23 L0,25 Z" id="Shape" fill="#5E5F62"/><path d="M0,35 L2,35 C2.55228475,35 3,34.5522847 3,34 C3,33.4477153 2.55228475,33 2,33 L0,33 L0,35 Z" id="Shape" fill="#5E5F62"/><path d="M0,40 L2,40 C2.55228475,40 3,39.5522847 3,39 C3,38.4477153 2.55228475,38 2,38 L0,38 L0,40 Z" id="Shape" fill="#5E5F62"/><path d="M0,15 L3,15 C3.55228475,15 4,14.5522847 4,14 C4,13.4477153 3.55228475,13 3,13 L0,13 L0,15 Z" id="Shape" fill="#5E5F62"/><path d="M0,30 L3,30 C3.55228475,30 4,29.5522847 4,29 C4,28.4477153 3.55228475,28 3,28 L0,28 L0,30 Z" id="Shape" fill="#5E5F62"/><path d="M0,45 L3,45 C3.55228475,45 4,44.5522847 4,44 C4,43.4477153 3.55228475,43 3,43 L0,43 L0,45 Z" id="Shape" fill="#5E5F62"/><path d="M0,50 L2,50 C2.55228475,50 3,49.5522847 3,49 C3,48.4477153 2.55228475,48 2,48 L0,48 L0,50 Z" id="Shape" fill="#5E5F62"/><path d="M0,55 L2,55 C2.55228475,55 3,54.5522847 3,54 C3,53.4477153 2.55228475,53 2,53 L0,53 L0,55 Z" id="Shape" fill="#5E5F62"/><rect id="Rectangle-path" fill="#F29C1F" x="50" y="10" width="8" height="36"/><path d="M58,51 L58,54 C58,56.209139 56.209139,58 54,58 C51.790861,58 50,56.209139 50,54 L50,51 L58,51 Z" id="Shape" fill="#DF4D60"/><path d="M56.31,5.77 C55.5498542,5.92521516 54.7758274,6.00228277 54,6 C53.2241726,6.00228277 52.4501458,5.92521516 51.69,5.77 L53.072,2.319 C53.2241756,1.93997019 53.5915627,1.69158019 54,1.69158019 C54.4084373,1.69158019 54.7758244,1.93997019 54.928,2.319 L56.31,5.77 Z" id="Shape" fill="#35495E"/><path d="M42,5 L33,5 L33,13 L16,13 C13.790861,13 12,14.790861 12,17 L12,49 C12,51.209139 13.790861,53 16,53 L29,53 L29,45 L42,45 C44.209139,45 46,43.209139 46,41 L46,9 C46,6.790861 44.209139,5 42,5 Z" id="Shape" fill="#3B97D3"/><path d="M46,41 C46,43.209139 44.209139,45 42,45 L16,45 C13.790861,45 12,46.790861 12,49 L12,17 C12,14.790861 13.790861,13 16,13 L33,13 L33,37 L42,37 C44.209139,37 46,38.790861 46,41 Z" id="Shape" fill="#2980BA"/></g></g></svg>
