<?xml version="1.0" encoding="UTF-8"?>
<svg xmlns="http://www.w3.org/2000/svg" xmlns:xlink="http://www.w3.org/1999/xlink" width="512" height="512" viewBox="0 0 58 58" version="1.1"><!-- Generator: Sketch 50.2 (55047) - http://www.bohemiancoding.com/sketch --><title>071 - Floor Plan </title><desc>Created with Sketch.</desc><defs/><g id="Page-1" stroke="none" stroke-width="1" fill="none" fill-rule="evenodd"><g id="071---Floor-Plan-" fill-rule="nonzero"><polygon id="Shape" fill="#3B97D3" points="49 19 57 0 8 0 0 19 9 39 0 58 49 58 58 39"/><polygon id="Shape" fill="#2980BA" points="58 39 9 39 0 19 49 19"/><path d="M31.92,38.62 C31.91,38.6 31.91,38.59 31.9,38.57 L29.53,33.57 C29.5056669,33.5284925 29.4789557,33.4884257 29.45,33.45 C29.4088742,33.3889888 29.361993,33.3320617 29.31,33.28 C29.2642904,33.2378156 29.213973,33.2009162 29.16,33.17 C29.11,33.14 29.05,33.1 28.99,33.07 C28.9243815,33.0518764 28.8575415,33.0385084 28.79,33.03 C28.7378982,33.0142855 28.6842556,33.0042275 28.63,33 L15.4,33 L14.76,31.59 C14.513683,31.1225832 13.9462529,30.9274341 13.464541,31.1444691 C12.9828292,31.3615041 12.7530725,31.9158253 12.94,32.41 L15.9,38.99 L15.9,39 L17.99,39 C17.9938843,38.9458713 17.9870888,38.891507 17.97,38.84 C17.9651922,38.7676967 17.9482911,38.696712 17.92,38.63 C17.9214964,38.615904 17.9179537,38.6017335 17.91,38.59 L16.3,35 L28,35 L29.89,39 L31.99,39 C31.9882924,38.9395523 31.981603,38.8793483 31.97,38.82 C31.95,38.75 31.94,38.68 31.92,38.62 Z M49.99,39 C49.9938843,38.9458713 49.9870888,38.891507 49.97,38.84 C49.9651922,38.7676967 49.9482911,38.696712 49.92,38.63 C49.9214964,38.615904 49.9179537,38.6017335 49.91,38.59 L41.1,19.01 L41.1,19 L7,19 L7,19.01 C7.00603448,19.0640011 7.01606193,19.1174808 7.03,19.17 C7.0385263,19.2342508 7.05189774,19.2977652 7.07,19.36 C7.08,19.37 7.08,19.39 7.09,19.4 L7.09,19.41 L10.69,27.41 C10.8494637,27.7697489 11.2064947,28.0012305 11.6,28 C11.7415698,28.0000282 11.8814581,27.9693211 12.01,27.91 C12.5117535,27.6827874 12.7353043,27.0926133 12.51,26.59 L11.8,25 L24.37,25 C24.5112622,24.9973118 24.6505996,24.9667255 24.78,24.91 C24.79,24.9 24.79,24.91 24.8,24.9 C24.8389751,24.8766612 24.875788,24.8498882 24.91,24.82 C24.9764236,24.7822372 25.0370487,24.7350844 25.09,24.68 C25.1321844,24.6342904 25.1690838,24.583973 25.2,24.53 C25.23,24.47 25.27,24.42 25.3,24.36 C25.3190353,24.2878187 25.3324092,24.2142621 25.34,24.14 C25.3547589,24.0944814 25.3648114,24.0475694 25.37,24 L25.37,23.98 C25.36,23.91 25.34,23.85 25.33,23.78 C25.3180332,23.7155222 25.3013211,23.6520161 25.28,23.59 C25.2792708,23.5823214 25.2757054,23.5751905 25.27,23.57 L23.58,20 L39.35,20 L45.2,33 L36,33 C35.4477153,33 35,33.4477153 35,34 C35,34.5522847 35.4477153,35 36,35 L46.1,35 L47.9,38.99 L47.9,39 L49.99,39 Z M10.9,23 L9.55,20 L21.37,20 L22.79,23 L10.9,23 Z" id="Shape" fill="#BDC3C7"/><path d="M49.99,39 L49.99,39.01 C49.988279,39.0671397 49.9815871,39.1240211 49.97,39.18 C49.9546457,39.2512447 49.934602,39.3213975 49.91,39.39 C49.9114964,39.404096 49.9079537,39.4182665 49.9,39.43 L43.27,53.43 C43.1080836,53.7803567 42.7559473,54.0033764 42.37,54 L10.37,54 C10.0282995,53.9956276 9.71055135,53.8236697 9.52,53.54 C9.3393043,53.2462576 9.32046446,52.8807647 9.47,52.57 L15.9,39 L17.99,39 L17.99,39.01 C17.988279,39.0671397 17.9815871,39.1240211 17.97,39.18 C17.9546457,39.2512447 17.934602,39.3213975 17.91,39.39 C17.9114964,39.404096 17.9079537,39.4182665 17.9,39.43 L11.95,52 L23.74,52 L29.89,39 L31.99,39 C31.9882924,39.0604477 31.981603,39.1206517 31.97,39.18 C31.95,39.25 31.94,39.31 31.92,39.38 C31.91,39.4 31.91,39.41 31.9,39.43 L25.95,52 L34.37,52 L37.1,46.24 C37.2283868,45.8818507 37.5488878,45.6275832 37.9268515,45.5840225 C38.3048153,45.5404617 38.6747545,45.7151553 38.8812473,46.0347094 C39.0877402,46.3542635 39.095009,46.7633111 38.9,47.09 L36.58,52 L41.74,52 L47.9,39 L49.99,39 Z" id="Shape" fill="#FFFFFF"/><path d="M47.48,4.46 C47.2894486,4.17633027 46.9717005,4.00437244 46.63,4 L14.63,4 C14.2440527,3.99662363 13.8919164,4.21964328 13.73,4.57 L10.4,11.59 C10.4,11.6 10.39,11.61 10.39,11.63 L7.1,18.57 C7.09429464,18.5751905 7.09072916,18.5823214 7.09,18.59 C7.08749592,18.6050374 7.0805275,18.6189743 7.07,18.63 C7.05436345,18.6923139 7.04432357,18.7558998 7.04,18.82 C7.02198479,18.8720525 7.00859951,18.9255936 7,18.98 L7,19 L41.1,19 L47.53,5.43 C47.6795355,5.11923532 47.6606957,4.75374245 47.48,4.46 Z M39.37,18 L9.58,18 L11.95,13 L22,13 C22.5522847,13 23,12.5522847 23,12 C23,11.4477153 22.5522847,11 22,11 L12.89,11 L15.26,6 L36.42,6 L34.1,10.91 C33.9847278,11.1485095 33.9695342,11.4231907 34.057798,11.6729586 C34.1460618,11.9227265 34.3304653,12.1268733 34.57,12.24 C34.7058732,12.2984515 34.8520905,12.3290551 35,12.33 C35.3846594,12.3289111 35.7345973,12.1072838 35.9,11.76 L38.63,6 L45.05,6 L39.37,18 Z" id="Shape" fill="#FFFFFF"/></g></g></svg>
