<svg xmlns="http://www.w3.org/2000/svg" height="585pt" version="1.1" viewBox="0 -22 585.60021 585" width="585pt">
<g id="surface1">
<path d="M 110.464844 124.9375 L 170.371094 65.03125 L 232.53125 127.191406 L 172.625 187.097656 Z M 110.464844 124.9375 " style=" stroke:none;fill-rule:nonzero;fill:rgb(100%,100%,100%);fill-opacity:1;" />
<path d="M 318.890625 333.449219 L 378.796875 273.542969 L 574.988281 469.734375 L 515.082031 529.640625 Z M 318.890625 333.449219 " style=" stroke:none;fill-rule:nonzero;fill:rgb(100%,100%,100%);fill-opacity:1;" />
<path d="M 146.335938 11.203125 L 42.164062 115.488281 L 11.066406 224.273438 L 185.234375 50.105469 Z M 146.335938 11.203125 " style=" stroke:none;fill-rule:nonzero;fill:rgb(99.215686%,74.901961%,36.862745%);fill-opacity:1;" />
<path d="M 247.433594 112.300781 L 73.152344 286.46875 L 174.246094 263.171875 L 199.191406 238.230469 L 306.660156 345.699219 L 393.691406 258.558594 Z M 247.433594 112.300781 " style=" stroke:none;fill-rule:nonzero;fill:rgb(99.215686%,74.901961%,36.862745%);fill-opacity:1;" />
<path d="M 394.347656 273.503906 L 401.492188 266.359375 C 405.757812 262.074219 405.757812 255.152344 401.492188 250.867188 L 306.769531 156.144531 L 318.417969 144.496094 C 322.363281 139.890625 321.824219 132.949219 317.21875 129.003906 C 313.109375 125.476562 307.035156 125.476562 302.925781 129.003906 L 291.277344 140.652344 L 255.125 104.496094 C 250.839844 100.234375 243.914062 100.234375 239.628906 104.496094 L 232.488281 111.640625 L 185.894531 64.9375 L 193.039062 57.796875 C 197.300781 53.511719 197.300781 46.585938 193.039062 42.300781 L 154.140625 3.515625 C 149.851562 -0.75 142.929688 -0.75 138.644531 3.515625 L 34.363281 107.683594 C 33.066406 109.003906 32.121094 110.628906 31.617188 112.410156 L 0.519531 221.199219 C -1.316406 226.976562 1.878906 233.164062 7.660156 235 C 11.628906 236.261719 15.96875 235.175781 18.871094 232.1875 L 110.402344 140.652344 L 156.996094 187.242188 L 65.460938 278.777344 C 61.1875 283.085938 61.207031 290.042969 65.515625 294.316406 C 68.1875 296.964844 72.011719 298.0625 75.679688 297.238281 L 176.664062 273.941406 C 178.664062 273.46875 180.488281 272.4375 181.941406 270.976562 L 199.082031 253.835938 L 298.859375 353.609375 C 303.144531 357.875 310.066406 357.875 314.351562 353.609375 L 318.855469 349.105469 L 507.3125 537.339844 C 511.597656 541.601562 518.519531 541.601562 522.804688 537.339844 L 582.804688 477.339844 C 587.066406 473.054688 587.066406 466.132812 582.804688 461.847656 Z M 102.601562 117.136719 L 33.261719 186.472656 L 51.945312 121.203125 L 146.445312 26.699219 L 169.742188 49.996094 Z M 125.898438 124.9375 L 162.488281 88.34375 L 170.292969 80.542969 L 216.992188 127.574219 L 173.039062 171.527344 Z M 311.164062 325.367188 L 306.660156 329.875 L 206.882812 230.097656 C 202.597656 225.832031 195.675781 225.832031 191.390625 230.097656 L 168.644531 252.84375 L 108.097656 267.128906 L 235.34375 139.882812 L 247.429688 127.574219 L 378.195312 258.339844 L 342.484375 294.160156 Z M 515.113281 514.042969 L 334.460938 333.390625 L 378.855469 288.996094 L 559.507812 469.648438 Z M 515.113281 514.042969 " style=" stroke:none;fill-rule:nonzero;fill:rgb(18.823529%,21.176471%,22.745098%);fill-opacity:1;" />
</g>
</svg>