<?xml version="1.0" encoding="utf-8"?>
<!-- Generator: Adobe Illustrator 20.0.0, SVG Export Plug-In . SVG Version: 6.00 Build 0)  -->
<svg version="1.1" baseProfile="basic" id="Ebene_1"
	 xmlns="http://www.w3.org/2000/svg" xmlns:xlink="http://www.w3.org/1999/xlink" x="0px" y="0px" viewBox="0 100 1400 1100"
	 xml:space="preserve">
<title>Kauf</title>
<polygon fill="#999999" points="812.6,455.7 812.6,579.1 888.6,607.7 888.6,455.7 "/>
<polygon fill="#E8E8E8" points="1011.9,1138.5 252.5,1138.5 252.5,663.9 613.3,483.3 1011.9,663.9 "/>
<polygon fill="#E8E8E8" points="186,692.2 1078.3,692.2 610.2,480.6 "/>
<rect x="432.7" y="692.2" fill="#FFFFFF" width="171" height="104.6"/>
<rect x="660.6" y="692.2" fill="#FFFFFF" width="171" height="104.6"/>
<rect x="660.6" y="901" fill="#FFFFFF" width="171" height="104.3"/>
<rect x="432.7" y="901" fill="#FFFFFF" width="171" height="237.5"/>
<path fill="#F6F6F6" d="M846,419.7h-8.6c0-10.7,5.4-16.1,10.2-20.9c4.3-4.3,7.7-7.7,7.7-14.8s-3.4-10.6-7.7-14.8
	c-4.8-4.8-10.2-10.2-10.2-20.9s5.4-16.1,10.2-20.9c4.3-4.3,7.7-7.7,7.7-14.8s-3.4-10.6-7.7-14.8c-4.8-4.8-10.2-10.2-10.2-20.9
	s5.4-16.1,10.2-20.9c4.3-4.3,7.7-7.7,7.7-14.8h8.6c0,10.7-5.4,16.1-10.2,20.9c-4.3,4.3-7.7,7.7-7.7,14.8c0,7.2,3.4,10.6,7.7,14.8
	c4.8,4.8,10.2,10.2,10.2,20.9s-5.4,16.1-10.2,20.9c-4.3,4.3-7.7,7.7-7.7,14.8s3.4,10.6,7.7,14.8c4.8,4.8,10.2,10.2,10.2,20.9
	s-5.4,16.1-10.2,20.9C849.3,409.2,846,412.6,846,419.7z"/>
<circle fill="#FFFFFF" cx="961" cy="1003.1" r="52.8"/>
<g id="Filled_Icons">
	<g id="Filled_Icons-2">
		<path fill="#FEB901" class="fill__primary" d="M1207.1,753.1h-41c-1.8,0-3.6,0.7-4.8,2l-130.4,130.4c-51.5-23.5-112.4-0.8-135.9,50.7
			s-0.8,112.4,50.7,135.9c51.5,23.5,112.4,0.8,135.9-50.7c12.4-27.1,12.4-58.1,0-85.2l39.5-39.5h17.7c3.8,0,6.8-3.1,6.8-6.8v-17.7
			l2.8-2.8h17.7c3.8,0,6.8-3.1,6.8-6.8v-17.7l2.8-2.8h17.7c3.8,0,6.8-3.1,6.8-6.8v-17.7l11.7-11.7c1.3-1.3,2-3,2-4.8v-41
			C1214,756.2,1210.9,753.1,1207.1,753.1C1207.2,753.1,1207.1,753.1,1207.1,753.1z M941.7,1025.4c-10.7-10.7-10.7-28,0-38.7
			c10.7-10.7,28-10.7,38.7,0c10.7,10.7,10.7,28,0,38.7C969.7,1036.1,952.4,1036.1,941.7,1025.4z"/>
	</g>
</g>
<rect x="186" y="1133.3" fill="#999999" width="892.3" height="25.7"/>
</svg>
