<?xml version="1.0" encoding="utf-8"?>
<!-- Generator: Adobe Illustrator 20.0.0, SVG Export Plug-In . SVG Version: 6.00 Build 0)  -->
<svg version="1.1" id="Ebene_1" xmlns="http://www.w3.org/2000/svg" xmlns:xlink="http://www.w3.org/1999/xlink" x="0px" y="0px"
	 viewBox="-100 0 1400 1100" enable-background="new 0 0 1200 1200" xml:space="preserve">
<rect x="750" y="534.4" fill="#E8E8E8" width="328.1" height="534.4"/>
<rect x="121.9" y="196.9" fill="#E8E8E8" width="628.1" height="900"/>
<line fill="none" stroke="#AAAAAA" stroke-width="3" stroke-miterlimit="10" x1="93.8" y1="1092.2" x2="778.1" y2="1092.2"/>
<rect x="178.1" y="300" fill="#FFFFFF" width="300" height="121.9"/>
<rect x="525" y="300" fill="#FFFFFF" width="168.8" height="121.9"/>
<rect x="178.1" y="628.1" fill="#FFFFFF" width="393.8" height="121.9"/>
<rect x="412.5" y="796.9" fill="#FFFFFF" width="281.3" height="121.9"/>
<rect x="825" y="628.1" fill="#FFFFFF" width="253.1" height="121.9"/>
<rect x="825" y="796.9" fill="#FFFFFF" width="253.1" height="121.9"/>
<line fill="none" stroke="#AAAAAA" stroke-width="3" stroke-miterlimit="10" x1="750" y1="1073.4" x2="1106.3" y2="1073.4"/>
<polygon opacity="0.1" fill="#4E4E59" enable-background="new    " points="1078.1,860.6 754.7,534.4 750,534.4 750,1059.4
	1078.1,1059.4 "/>
<g>
	<rect x="121.9" y="440.6" fill="#FEB901" class="fill__primary" width="628.1" height="168.8"/>
</g>
<rect x="225" y="468.8" fill="#FFFFFF" width="150" height="112.5"/>
<rect x="421.9" y="468.8" fill="#FFFFFF" width="271.9" height="112.5"/>
</svg>
