<?xml version="1.0" encoding="utf-8"?>
<!-- Generator: Adobe Illustrator 20.0.0, SVG Export Plug-In . SVG Version: 6.00 Build 0)  -->
<svg version="1.1" id="Ebene_1" xmlns="http://www.w3.org/2000/svg" xmlns:xlink="http://www.w3.org/1999/xlink" x="0px" y="0px"
	 viewBox="-100 -60 1400 1100" enable-background="new 0 0 1400 1100" xml:space="preserve">
<title>clock</title>
<polyline fill="#EEEEEC" points="531.3,933.3 194.5,933.3 194.5,557.4 419.2,461.2 528.5,557.4 751.2,461.2 861.2,557.4
	861.2,933.3 524.4,933.3 "/>
<polyline fill="#FEB901" class="fill__primary" points="249.5,521 249.5,411 304.5,411 304.5,500.3 "/>
<polyline fill="#FEB901" class="fill__primary" points="579.4,521 579.4,411 634.4,411 634.4,500.3 "/>
<polygon fill="#EEEEEC" points="1012.4,804.1 861.2,742.3 861.2,905.8 1012.4,905.8 "/>
<line fill="none" stroke="#AAAAAA" stroke-width="21" stroke-miterlimit="10" x1="861.2" y1="909.3" x2="1033" y2="909.3"/>
<rect x="242.6" y="768.4" fill="#FFFFFF" width="110" height="151.2"/>
<rect x="380.1" y="768.4" fill="#FFFFFF" width="110" height="151.2"/>
<rect x="242.6" y="651.5" fill="#FFFFFF" width="110" height="61.9"/>
<rect x="380.1" y="651.5" fill="#FFFFFF" width="110" height="61.9"/>
<rect x="558.8" y="768.4" fill="#FFFFFF" width="110" height="151.2"/>
<rect x="696.2" y="768.4" fill="#FFFFFF" width="110" height="151.2"/>
<rect x="558.8" y="651.5" fill="#FFFFFF" width="110" height="61.9"/>
<rect x="696.2" y="651.5" fill="#FFFFFF" width="110" height="61.9"/>
<g>
	<path fill="none" stroke="#EEEEEC" stroke-width="7" stroke-miterlimit="10" d="M604.1,390.4c0-12.4,12.4-12.4,12.4-24.7
		c0-12.4-12.4-12.4-12.4-24.7c0-12.4,12.4-12.4,12.4-24.7c0-12.4-12.4-12.4-12.4-24.7s12.4-12.4,12.4-24.7"/>
</g>
<g>
	<path fill="none" stroke="#EEEEEC" stroke-width="7" stroke-miterlimit="10" d="M274.2,390.4c0-12.4,12.4-12.4,12.4-24.7
		c0-12.4-12.4-12.4-12.4-24.7c0-12.4,12.4-12.4,12.4-24.7c0-12.4-12.4-12.4-12.4-24.7s12.4-12.4,12.4-24.7"/>
</g>
<polygon opacity="0.1" fill="#4E4E59" enable-background="new    " points="861.2,751.2 1008.9,899 861.2,899 "/>
<line fill="none" stroke="#AAAAAA" stroke-width="21" stroke-miterlimit="10" x1="167" y1="929.9" x2="888.7" y2="929.9"/>
</svg>
