<svg xmlns="http://www.w3.org/2000/svg" width="60" height="60.384" viewBox="0 0 60 60.384"><defs><style>.a{fill:rgba(255,255,255,0);}.b{fill:#eaeae8;}.c{fill:none;stroke:#9c9b9b;stroke-miterlimit:10;stroke-width:1.421px;}.d{fill:#fff;}.e{fill:#ffa700;}.f{fill:#262626;opacity:0.1;}</style></defs><g transform="translate(-151 -167)"><rect class="a" width="60" height="60" transform="translate(151 167)"/><g transform="translate(-299.84 168.636)"><rect class="b" width="18.989" height="30.926" transform="translate(489.824 25.894)"/><rect class="b" width="36.353" height="52.087" transform="translate(453.471 6.364)"/><line class="c" x2="39.608" transform="translate(451.84 58.038)"/><rect class="d" width="17.364" height="7.051" transform="translate(456.726 12.326)"/><rect class="e" width="36.353" height="9.765" transform="translate(453.467 23.844)"/><rect class="d" width="9.765" height="7.051" transform="translate(476.804 12.326)"/><rect class="d" width="22.785" height="7.051" transform="translate(456.726 25.201)"/><rect class="d" width="16.275" height="7.051" transform="translate(470.287 36.092)"/><rect class="d" width="14.651" height="7.051" transform="translate(494.162 31.321)"/><rect class="d" width="14.651" height="7.051" transform="translate(494.162 41.086)"/><line class="c" x2="20.619" transform="translate(489.824 56.955)"/><path class="f" d="M508.812,44.774l-18.718-18.88h-.271V56.278h18.989Z"/><rect class="d" width="8.682" height="6.51" transform="translate(459.436 49.204)"/><rect class="d" width="15.734" height="6.51" transform="translate(470.832 49.204)"/></g></g></svg>