<?xml version="1.0" encoding="utf-8"?>
<!-- Generator: Adobe Illustrator 23.0.2, SVG Export Plug-In . SVG Version: 6.00 Build 0)  -->
<svg version="1.1" id="Ebene_1" xmlns="http://www.w3.org/2000/svg" xmlns:xlink="http://www.w3.org/1999/xlink" x="0px" y="0px"
	 viewBox="0 0 1400 1100" style="enable-background:new 0 0 1400 1100;" xml:space="preserve">
<style type="text/css">
	.st0{fill:#FFFFFF;}
	.st1{fill:#070039;}
	.st2{fill:#E3E3E2;}
	.st3{fill:#033153;}
	.st4{fill:#F2931B;}
	.st5{fill:#CC710D;}
	.st6{fill:#00A201;}
</style>
<rect class="st0" width="1400" height="1100"/>
<g>
	<rect class="st1" width="1400" height="563.1"/>
	<path class="st0" d="M1349.9,156.2c-0.8-2-3.1-6.4-3.1-6.4s1.8-0.8,2.3-5.6c0.5-4.8,0.5-15,0.5-17.2s-0.1-5.2-4.8-5.7
		c-4.7-0.5-12,0.2-13.8-2.1c-1.9-2.3-1.8-5.8-3.1-9.8c-1.3-4-5.4-7.7-2.6-10c2.8-2.2,7.8-8.8,7.8-8.8s3.3-0.1,3.6-4.1
		c0.4-4-2.7-5.2-5.2-4.5c-2.5,0.7-2.8,4.5-2.8,4.5s-3.7,2.6-10,2.7c-6.3,0.1-9.9,0-11.7,0.8c-0.9,0.2-2.9-0.5-3.6-1.2
		c-0.7-0.7,0.2-1.7,1.1-2.4c0.9-0.7,0.4-2.8-0.6-3.3c-1.1-0.5-2.5,0.7-3.4,1.7c-0.8,0.9-2.3,1.5-2.2-1c0.1-2.5,0.2-3.7,0.1-5.1
		c-0.1-1.4-3.8-2.3-4,0.5c-0.2,2.7,0,3.5-0.1,4.4c-0.1,0.9-1.5,2.6-4.3-0.1c-2.9-2.7-5.5-4.1-7.4-5.4c-1.8-1.2-5.8,1.1-2.6,3.7
		c3.2,2.6,8.7,6.1,8.7,6.1s0.2,1.7,0.5,2.6c0.3,0.8,0.1,2.3-2.6,1.6s-8.6-1.5-14.2-7.2c-2.3-2.3-4.9,0-3.7,2.3s8.2,7.8,18.5,9
		s14.5,1.2,14.5,1.2s-0.5,2.8,1.1,4.5c-6.6,1.1-14.3,7.5-17.4,15c11.7,0.6,18.7-6.1,20.2-10c2.1,1.6,3.7,8.6,0.2,11.8
		c-1.1-2.7-3.6-3.7-6-1.4s-4.9,4-10.2,5.8s-13.5,2.1-15.6,2c-2-0.1-4.6,2.4-3,4.8c-4,0-11.1,0.4-12.7,1.7c0,0-4.5-4.6-6.4-7
		s-4.7-3.8-4.7-3.8s-3.6,2.9-4.1,7.5s2.1,6.3,4.2,6.1c-0.7,4.3,5.7,6.7,9.9,4.2c0.7,6.3,6.2,13.9,7.4,18.4c0.2,0.9,0.4,1.8,0.4,2.8
		c-16.1,14.5-27.7,19.7-37.5,23.9c-2.2-0.8-4.1-1.4-5-1.9c-2.6-1.3-2.5-3-2.3-6.7c0.2-3.7-1.3-8.6-2.6-10.5s1-4.1,3.6-5.5
		c2.6-1.4,6.5-4.1,7.2-5.8c3.9-0.2,5-2.4,4.8-5.6s-3-3.9-5.3-3.4c-2.3,0.5-2.7,4.1-2.7,4.1s-4.8,1.5-9.1,0.9s-9.6-2.7-13.4-1.8
		c-1.4-0.8-3-1.2-2.9-2.2c0.2-1.1,1.9-1.2,2.1-3.6c0.2-2.4-2.5-2.3-3.9-1c-1.4,1.4-2.2,1.4-2.2,0c0.1-1.4,0.6-3.9,1.1-5.6
		c0.5-1.7-2.6-3.1-4.1-0.5c-1.5,2.6-0.5,5-1.7,5.6c-1.2,0.6-8-7.3-10.1-9.4c-2.2-2.1-4.1,0.7-2.5,2.9c1.6,2.2,7.1,7.2,7.1,7.2
		s0.1,3.5,0.1,4.1s-0.3,1.7-3.1,0.1c-2.8-1.6-10.3-5.8-12.2-9.3c-1.9-3.5-5.3-2-4.2,1.2c1,3.1,3.6,6.9,12.9,11.2
		c9.3,4.2,17.2,6,17.2,6l0.2,4.1c0,0-13.4,1.4-19.7,11c8.6,3.2,17.9,0.8,21.8-6.1c1.4,3.8,2.2,10.4-1.9,11.8c-1.1-3-3.4-4.1-6-2.3
		c-2.6,1.8-10.9,4.6-17.8,3.6c-6.9-1-11.6-2.3-12.6,0.9c-6.7-6.9-12.7-13.3-25.8-13.6c-13.1-0.3-31.1,17.4-31.1,17.4s0.6-5-5.3-5.3
		l-7.3-8.3c0,0,6.1-22-10.2-24.8c-0.1-0.2-0.9-1.1-0.9-1.1s3.6-0.2,0.5-5s-10.5-6.4-10.5-6.4s-6.3-3.6-13.7-1.2
		c-7.4,2.4-26.6,18.8-40.2,10.5c2.2-3.5-1.3-6.8-4.3-9.8c-3-3-7.2-3.7-10.1-0.9c-3,2.8-1.7,7.9,1.3,11.6c3,3.7,7.6,4.8,10.1,2.8
		c1.2,2.7,4.7,7.3,9.8,10c-9.6,0.2-20.1,5.5-19.5,12.9c-5.2,3.4-10.5,8.9-10.5,16.2c0.1,7.3,5.4,12.6,9.2,13.1
		c2,4.6,4.4,9.9,5.3,14.8c0.9,4.8,1,10,6.5,11.6c-3.7,1.7-6.4,9.5,0.3,13.6c-4.1-0.2-9.8-0.5-12.1-1.7c-2.3-1.3-1.8-4.1-0.8-5.2
		c0.9-1.1-0.1-2.9-1.2-3.3c-1.1-0.5-3.4,0.1-4,3.4c-0.6,3.3-0.5,10.5,11.2,11.4c11.7,0.9,79.5,6.8,87.5,7.1
		c8,0.4,14.6-5.6,14.6-13.7c0-5.3-1.8-7.9-1.8-7.9s8,1.4,11.9-6.4c3.9-7.8-0.6-15.5-6.6-18.4c-6-2.9-11.5,1-13,3.8
		c0.2-3.6-1.3-7.7-4.2-9.2c0.9-2.2,0.8-6.9,0.8-6.9s1.9,0.6,6.4-1.3c4.5-1.9,20-6.8,42.2,0c0.2,6.2,9.5,24.7-4.2,32.2
		c3.9,6.1,8.5,11.7,4.6,25.1c3.9,2.9,7.6,6.4,7.6,6.4s6-17.7,0-27.9c6.1,0.1,10.1-3.6,10.1-3.6s2.4,5.3,1.3,9.5
		c5.3,1,15.4,4.5,16.8,16.1c3.4,0.1,8.3,0.3,8.3,0.3s-1.2-13.3-11.9-22c3-3.3,2.1-11.9,2.1-11.9s22.4,4.9,35.7-9.6
		c1.6,2.6,4.9,7.1,4.9,7.1l-1.8,0l-0.9,9.1c0,0,4.2,0.3,6.5-0.6c0.4,0.7,0.9,1.5-0.2,2.3c-1.1,0.9-5.6,3.9-6.3,4.3
		c-0.7,0.5-2,0-3.3-1.9c-1.3-1.8-2.8-4-2.8-4l-3.7,7.4c0,0,2.9,7,8.4,7.9c2.1,0.3,7.8-3.4,11.6-6.9c3.7-3.5,4.4-5.9,3.8-8.1
		c-0.6-2.2-1.2-4-1.2-4s2.8-1.8,4.9-10.4c2.1-8.6,2.8-13.7,2.7-15.4c-0.1-0.8-3.3-2.2-6.8-3.4c17.9-8.1,28.4-16.1,33.3-20.5
		c-0.7,3.1-2.1,6.2-4.6,8.6c8,7,10.4,14.3,9.4,22.5c3.9,1.4,8.6,4.6,8.6,4.6s1.7-18.1-5.2-26.9c4-1.1,9.2-5.2,9.2-5.2s3.3,4.8,3,9.5
		c6-0.5,15.7-0.1,19.5,12c3.5-0.8,8.2-1.7,8.2-1.7s-4.2-12.7-16.2-19.1c2.1-5.3-0.2-12.2-0.2-12.2s24.6-1.4,33.2-16.6
		c3.4,3.3,5.9,6.1,5.9,6.1l-1.3,0.2l0.6,9.2c0,0,4-0.3,6.1-2.1c0.5,0.7,1.3,1.6,0.8,2.5c-0.5,0.9-5.2,5.2-5.8,5.8s-2.1,0.7-3.3-0.8
		s-3.2-3.7-3.2-3.7l-2.5,7.8c0,0,5.2,3.4,6.8,4.1s3,1,6.7-1.4c3.7-2.4,7.9-5.9,9.2-7.1C1351.3,159.8,1350.7,158.2,1349.9,156.2z
		 M1022.7,236.1c4.1-2.2,3.8-5.7,2.1-7.3c-1.7-1.6-4.4-1.3-6-0.1c-1.6,1.1-3-1.1-2.4-2.1c0.6-1,3-5.1,9.5-2.4
		c6.6,2.7,16.4,11.7,28.2,14.5C1048.1,237.8,1022.7,236.1,1022.7,236.1z M1030.9,222.9l26.2,0.6c0,0-2,1.8-1.7,5.5
		c0.3,3.7,3.7,6.9,7.7,7c4,0.1,4.9-4,3.6-5.5c-1.3-1.5-4.6-1.4-5.5-2.2c-0.9-0.8-1-4.4,4.5-4.2c5.6,0.2,6.1,4.7,6.1,6.3
		c0,1.6-1,6.8-9.8,6.7C1053.3,237,1044.3,231.7,1030.9,222.9z M1097.9,212l1-1.5c1,3.2,3.6,4.5,5.5,3.3c1.9-1.1,2.5-2.6,1.6-4.2
		c-0.9-1.6,0.8-3,2.8-2.9c2,0.1,6.2,1.2,6.1,7.2s-7.1,6.3-9.9,6c-2.8-0.3-4.3-2.9-8.5-2.6C1099.5,215.1,1097.9,212,1097.9,212z
		 M1096.3,224c5.5,0,7.5,4.8,7.4,8.1c-0.1,3.3-1.7,8.7-8,8.9c-6.3,0.2-28.8-1.5-28.8-1.5c15.9-5.3,7.2-15.9,7.2-15.9l12.1-0.5
		c0,0-1.6,2.5-1.5,5.3c0.1,2.8,3,5.3,5.4,4c2.4-1.3,1.4-3.3,1.1-4.5C1091,226.8,1090.8,224,1096.3,224z M1147.4,179.1
		c0,0-6.5-8.1-7.9-12.4c-3.9,3-4.7,12.1,3.7,17.2c-9.4-3-17.2-5.4-39.2,0.3c0.1-0.4,0-1,0-1s21.5-16.6,31.6-17.1
		c10.1-0.5,14.1,3.9,24.9,13C1156.2,179.4,1147.4,179.1,1147.4,179.1z M1228.4,203.3l-2.9-9.3c0,0,4.6-0.2,4.5,0.6
		C1229.9,195.3,1228.4,203.3,1228.4,203.3z M1342.1,140.2l-4.6-9.5c0,0,1.5-0.4,3.1-0.4c1.6,0,2.1,0.5,2.1,1.7
		S1342.1,140.2,1342.1,140.2z"/>
	<polygon class="st0" points="1020.5,25.7 1027,45.4 1047.7,45.4 1030.9,57.6 1037.3,77.3 1020.5,65.1 1003.8,77.3 1010.2,57.6 
		993.4,45.4 1014.1,45.4 	"/>
	<polygon class="st0" points="538.2,101.8 544.6,121.6 565.4,121.6 548.6,133.7 555,153.5 538.2,141.3 521.4,153.5 527.8,133.7 
		511,121.6 531.8,121.6 	"/>
	<polygon class="st0" points="107,448.9 113.4,468.6 134.2,468.6 117.4,480.8 123.8,500.5 107,488.4 90.2,500.5 96.6,480.8 
		79.9,468.6 100.6,468.6 	"/>
	<polygon class="st0" points="1187.6,436.3 1194.1,456 1214.8,456 1198,468.2 1204.4,487.9 1187.6,475.7 1170.9,487.9 1177.3,468.2 
		1160.5,456 1181.2,456 	"/>
	<polygon class="st0" points="1304.8,288 1309.1,301.2 1323,301.2 1311.8,309.3 1316.1,322.6 1304.8,314.4 1293.6,322.6 
		1297.9,309.3 1286.6,301.2 1300.5,301.2 	"/>
	<polygon class="st0" points="728,230.8 732.3,244 746.2,244 735,252.1 739.2,265.3 728,257.2 716.8,265.3 721.1,252.1 709.8,244 
		723.7,244 	"/>
	<polygon class="st0" points="251.3,344.9 255.6,358.1 269.5,358.1 258.3,366.2 262.6,379.5 251.3,371.3 240.1,379.5 244.4,366.2 
		233.1,358.1 247,358.1 	"/>
	<polygon class="st0" points="359.2,68.6 363.5,81.8 377.4,81.8 366.1,89.9 370.4,103.2 359.2,95 347.9,103.2 352.2,89.9 341,81.8 
		354.9,81.8 	"/>
	<polygon class="st0" points="786.4,42.7 790.7,55.9 804.6,55.9 793.3,64.1 797.6,77.3 786.4,69.2 775.1,77.3 779.4,64.1 
		768.2,55.9 782.1,55.9 	"/>
	<path class="st0" d="M190.2,228.5c-35.6,0-64.5-28.9-64.5-64.5c0-35.6,28.9-64.5,64.5-64.5c1.3,0,2.6,0,3.9,0.1
		c-12.2-8.1-26.9-12.9-42.7-12.9c-42.6,0-77.2,34.6-77.2,77.2s34.6,77.2,77.2,77.2c15.8,0,30.5-4.7,42.7-12.9
		C192.8,228.4,191.5,228.5,190.2,228.5z"/>
</g>
<g>
	<polygon class="st2" points="1094.6,816.7 1094.6,259.9 700,259.9 700,816.7 700,821.3 700,840.1 1133,840.1 1133,816.7 	"/>
	<polygon class="st3" points="305.4,259.9 305.4,816.7 267,816.7 267,840.1 700,840.1 700,823.9 700,816.7 700,259.9 	"/>
	<rect x="718.8" y="645.9" class="st4" width="308.8" height="170.9"/>
	<rect x="739" y="665.6" class="st0" width="192.7" height="123.5"/>
	<rect x="954" y="698.6" class="st5" width="58.8" height="118.2"/>
	<polygon class="st4" points="1046.3,637.9 700,637.9 718.8,607.5 1027.5,607.5 	"/>
	<rect x="369.3" y="358.5" class="st0" width="288.3" height="88.6"/>
	<rect x="369.3" y="499.5" class="st0" width="288.3" height="88.6"/>
	<rect x="741.8" y="358.5" class="st0" width="288.3" height="88.6"/>
	<rect x="741.8" y="499.5" class="st0" width="288.3" height="88.6"/>
	<rect x="369.3" y="635.7" class="st0" width="288.3" height="88.6"/>
	<g>
		<circle class="st3" cx="828.9" cy="761.2" r="5.8"/>
		<circle class="st3" cx="861.6" cy="761.2" r="5.8"/>
		<path class="st3" d="M889,709.6c-0.3-0.4-0.7-0.6-1.2-0.6h-83.5l-3-9.4c-0.2-0.6-0.7-1-1.4-1h-17.1c-0.8,0-1.4,0.6-1.4,1.4
			s0.6,1.4,1.4,1.4h16l3,9.4l13.1,40.4c0.2,0.6,0.7,1,1.4,1h0.1l60.3-5.7c0.6-0.1,1.1-0.4,1.2-1l11.2-34.7
			C889.4,710.4,889.3,709.9,889,709.6z M879.6,731.4l-66.9,3.4l-4.9-15.3h75.6L879.6,731.4z M875.6,743.8l-58.2,5.5l-4.4-13.5
			l66.2-3.4L875.6,743.8z M883.7,718.5h-76.3l-2.2-6.7h80.6L883.7,718.5z"/>
	</g>
</g>
<path class="st6" d="M398.1,797c0,0,21.7,6.4,28.4,6.3s8.5-6.4,3.9-13.3c-4.6-6.9-4-11.2,2.6-11.1c6.5,0.1,20.3,3.9,25.4,2.2
	s5.6-9.3-0.6-10.3s-14.5,3.4-22.6,1.3c-8.1-2-16-6.3-17.8-13.3s1.1-14.3,14.7-20.7c-6.9-6.7-6-15.1-2-16.5s10.2-0.3,15.6-2.8
	s5.6-11-1.9-10.6s-13.8,5.4-21.8,4.9s-15.5-2.8-18.4-8.2c9.8-1.5,5.7-14.6,1.8-19.6c14.9-0.7,19.7-10.5,13.5-10.9
	s-33.3,1.9-42.1-2.1c-8.9-4-10.1-15.8-2.4-18.1s10.9-1.6,12.2-5.2c1.3-3.6,0.9-7,0.9-7s6.6,1,12.3-3.7c5.8-4.6-0.3-7-5.2-7
	s-20.2,1.5-31.2-4.4s-16.1-20-16.1-20s20.4,1.2,21.2-15.5c15.3,7.5,19.8-8.7,16.3-8.7s-32.5,3.8-39.2-4.4c10.7-1.9,9.9-8.8,8.1-11
	s-2.9-4.9,1.9-5.9s10.2-2.9,7-5.4c-3.3-2.5-8.8,0.7-12.3,1.3s-19.4,1.9-18.9-9c0.6-10.9,10.2-11,14.6-12.1s6-4.8-0.7-5.4
	c-6.6-0.6-13.1,1.9-12.6-10.1c0.6-12,1.2-14.5-2.1-14.6c-3.4-0.1-3.8,7.8-4.3,12.5s0.6,8.3-5.1,8.3s-9.4,0.3-6.1,3
	c3.4,2.7,9.9,7.6,6.1,13.6s-10.2,9.8-18.4,8.8s-15.5-5.7-17.2-4.5s1.8,4.4,3.3,5.4s2.2,2.6-0.2,5.6c-2.4,2.9-0.3,8.3,2.7,5.4
	c3-2.9,4.3-5.3,6.7-4.7c2.4,0.6-2.1,5.6-1,7.3s7.2-0.6,11.3-0.1c4,0.5,8.3,5.8,2.6,12.1c-5.6,6.3-20.1,9.3-29.2,7.2
	s-21.6-8.7-26.3-11.6c-4.7-2.9-8.9-0.3-3.4,2.9c5.5,3.1,10.8,5.7,8.9,7.8s-7.8,5.3-4.6,7.4c3.3,2.1,5.3,0.2,8.9-1.4s5.3-2.2,5.8,2.4
	c0.6,4.7,1.2,5.7,5.1,3.9c3.9-1.7,7.9-2.8,9.7,0.8s0.8,7.4-2.3,11.7s-12.9,14.5-25.9,15.4s-31-3.3-32.4-3.1
	c-1.3,0.1-1.3,1.8,1.7,3.2s4.9,3.3,1.9,4.1c-3.1,0.8-6.4,2.1-2.9,3.7c3.4,1.6,7.1-0.8,9.2,1.5c2.1,2.3,1.5,3.1-0.8,5.5
	s-0.1,4.6,4.5,4.6s8.9-0.7,6.2,3.2s-5.8,7-3.1,11.9s9.4,2.5,10.9-0.6c-0.9,6.7-12.1,20-27.3,19.1s-26.6-5.3-29.6-2.2
	s-2.3,8.2,0,12.3s6.2,8.4,1.4,10.9s-13,4.3-12.2,7.9c0.8,3.6,3,3.9-0.1,6.2c-3,2.3-6,3.2-4.2,5.5s5.5,2.5,5.5,3.8s-5.2,1.6-4.4,4.2
	c0.7,2.6,7.5,2.2,8.2,6.3s-7.9,10.6-17.5,8.6s-19.1-4.6-20.2-1.6c-1.1,3,1.2,5.3,4.4,5.5c3.1,0.2,6.3,1.4,3.6,3.8
	c-2.7,2.4-7.3,7.9-3.4,9.7c4,1.7,4.9-2.6,7.3-2.7c2.5-0.1,0.3,4.8-2.2,8.4c-2.5,3.6-1.6,6.1,1.3,6.3c2.8,0.2,7.2-3.1,8.2-2.2
	c1,0.9-3.7,6.5-6.3,10.4s-0.1,9.3,4,6.4c4-2.9,5.4-5,6.8-5c1.4,0-2.9,8.8-0.4,11.1s6.5,4.3,14.1,2.2s11.8-5.8,13.2-4
	s-5.7,8.8-3.4,12.1s7.8,0,10.3-3.1s6.1-1.6,4.3,3.5s1.7,11.9,7.8,8.9s6.4-4.3,7.4-4.3s2.7,2.2,3.1,7.1c0.4,4.9,5,9.4,10.4,4.1
	s10-11.2,11.3-11.1c1.3,0.1-2.6,14.2,2.2,14.8s15.3-7.9,16.7-12.1c5.2,13.9,14.9,19.5,18.7-0.1c14.1,17.6,16.6,17.9,19,16.6
	c2.4-1.3,1.3-16,1.3-16s17,15,26.4,11.2c3.1-1.3-0.2-14.5-0.2-14.5s16.6,14.2,26.7,11.5c10.2-2.7-2.6-19-2.6-19s24.6,16,35.9,11.1
	C406.1,807.8,398.1,797,398.1,797z"/>
</svg>
