<?xml version="1.0" encoding="utf-8"?>
<!-- Generator: Adobe Illustrator 23.0.2, SVG Export Plug-In . SVG Version: 6.00 Build 0)  -->
<svg version="1.1" id="Ebene_1" xmlns="http://www.w3.org/2000/svg" xmlns:xlink="http://www.w3.org/1999/xlink" x="0px" y="0px"
	 viewBox="0 0 1400 1100" style="enable-background:new 0 0 1400 1100;" xml:space="preserve">
<style type="text/css">
	.st0{fill:#FFFFFF;}
	.st1{fill:#E3E3E2;}
	.st2{fill:#6D6E70;}
	.st3{fill:#033153;}
	.st4{fill:#F2931B;}
</style>
<rect class="st0" width="1400" height="1100"/>
<title>clock</title>
<g>
	<g>
		<path class="st1" d="M366.3,460.6c1.2,7.4,6.3,11.6,10.4,13.9c0.4,0.2,0.6,0.6,0.7,1c1.5,9.2,3.7,17.4,6.6,24.3
			c3.2,7.7,12.7,17.5,26,26.9c0.4,0.3,0.6,0.7,0.6,1.1v20.4c0,3.3,14.4,15.6,33.8,15.6s33.8-12.3,33.8-15.6v-20.4
			c0-0.5,0.2-0.9,0.6-1.1c13.3-9.4,22.8-19.2,26-26.9c2.9-6.9,5.1-15.1,6.6-24.3c0.1-0.4,0.3-0.8,0.7-1c4.1-2.2,9.2-6.5,10.4-13.9
			c1.4-8.6,0.3-15.5-3.2-19.9c-0.2,7-0.4,12.9-0.6,16.7c-0.5,7.9-1.9,12.9-4.2,14.8c-1.1,0.9-2,0.8-2.2,0.8l-1.5-0.2l0.3-1.5
			c0-0.2,3.6-16.9,0.8-32.2c-0.1-0.5-0.2-1-0.3-1.4c-1.6-7.1-4.2-11.7-6.9-16.1c-2.1-3.6-4.1-7-5.3-11.3c-0.3-1.2-0.6-2.4-0.8-3.7
			c-1.5-9.8-7.4-20.2-17.2-23.8c-2.3-0.8-4.7-1.3-7.4-1.3c-1.8,0-3.6,0.3-5.5,0.7c-5.6,1.3-11.5,4.4-17.7,7.7
			c-8.6,4.5-17.5,9.2-27.5,10.4c-14.7,1.8-20.5-2.9-23.6-5.4c-0.6-0.5-1.4-1.1-1.7-1.2c-1.4,0.5-5.9,7.9-13.1,32.6
			c-5.4,18.8-4.9,34.5-4.5,43.9l0.1,2.8c0,0,0,0,0,0l0.1,1.7l-1.7-0.4c-3.4-0.7-4.6-7.4-7-22.5c-0.3-2-0.7-4.2-1-6.4
			c0-0.2-0.1-0.5-0.1-0.7c-0.1-0.8-0.3-1.6-0.4-2.4c-0.1-0.4-0.1-0.8-0.2-1.2c0-0.2-0.1-0.4-0.1-0.6
			C366.1,444.8,364.8,451.8,366.3,460.6z"/>
		<path class="st1" d="M517.7,378c0.3-9.2,2-16,3.2-20.9c1.1-4.5,1.9-7.7,1.1-9.9c-1.6-4.2-22.8-18.8-56.1-18.8
			c-3.3,0-6.7,0.1-10.2,0.5c-41.2,3.6-69.1,22.7-78.5,40c-9.7,18-9,47.2-5.2,68.6c0.9,5,1.6,9.7,2.3,14c0.9,5.7,1.9,12.2,3,16.3
			c-0.1-1.8-0.1-3.8-0.1-6c0-6.5,0.3-14.5,1.9-23.5c0.7-4,1.7-8.3,2.9-12.7c4.4-15.3,10.6-33.7,15.2-34.6c1.1-0.2,1.9,0.2,2.9,1
			c0.3,0.2,0.7,0.5,1,0.8c0.6,0.5,1.4,1.1,2.3,1.7c1.2,0.8,2.7,1.6,4.6,2.2c0.1,0,0.3,0.1,0.4,0.1c0.3,0.1,0.6,0.2,0.9,0.3
			c3.2,0.8,7.5,1.2,13.4,0.5c5.6-0.7,10.9-2.6,16.1-4.9c3.6-1.6,7-3.4,10.5-5.2c4.3-2.2,8.4-4.4,12.5-6c3-1.2,5.9-2,8.8-2.4
			c0.2,0,0.4,0,0.5-0.1c0.9-0.1,1.8-0.2,2.7-0.2c15.9,0,25.3,14.2,27.4,27.4c0.9,5.8,3.3,9.8,5.8,14.1c2.6,4.4,5.5,9.4,7.2,16.9
			c0.1,0.5,0.2,1,0.3,1.5c0.3,1.8,0.6,3.6,0.8,5.4c0,0.1,0,0.1,0,0.2c0,0.4,0.1,0.8,0.1,1.2c0,0.2,0,0.4,0.1,0.6c0,0.3,0,0.5,0,0.8
			c0,0.4,0,0.7,0.1,1.1c0,0.1,0,0.2,0,0.4c0.3,6.5-0.2,12.6-0.8,17c0.5-1.9,0.8-4.5,1.1-8.1c0-0.2,0-0.5,0-0.8
			c0.2-4,0.4-10.2,0.7-19c0,0,0,0,0,0c0.2-9.9,0.5-21.5,0.7-32.4C517.4,394.2,517.6,384.2,517.7,378z"/>
		<path class="st1" d="M599.8,619.4c-12.9-9.6-51.7-31.1-80-46.8c-13.1-7.3-24.5-13.6-30.5-17.2c-9.2,12.7-33.3,22.8-44.9,22.8
			c-11.6,0-35.7-10.1-44.9-22.8c-6,3.6-17.4,9.9-30.5,17.2c-28.3,15.7-67.1,37.3-80,46.8c-11,8.1-16.3,35-18.9,56.2
			c-0.8,6.3,1.2,12.6,5.4,17.3c4.2,4.8,10.3,7.5,16.6,7.5h151.2c0.5,0,0.7,0,0.9,0l152.5,0c6.3,0,12.4-2.7,16.6-7.5
			c4.2-4.7,6.2-11,5.4-17.3C616.1,654.4,610.7,627.5,599.8,619.4z"/>
		<path class="st2" d="M380.3,473c0,0.4-0.2,0.8-0.5,1.1c-0.3,0.3-0.8,0.4-1.2,0.3l1.7,0.4L380.3,473z"/>
		<path class="st2" d="M515.5,448.3c0.3,6.6-0.2,12.7-0.8,17c0.5-1.9,0.9-4.5,1.1-8.1c-0.2,3.6-0.6,6.2-1.1,8.1
			C515.3,460.9,515.8,454.8,515.5,448.3z"/>
		<path class="st2" d="M438.9,392.6c3.6-1.6,7-3.4,10.5-5.2c4.3-2.2,8.4-4.4,12.5-6c-4.1,1.6-8.2,3.8-12.5,6
			C445.9,389.2,442.4,391,438.9,392.6z"/>
		<path class="st2" d="M377.2,461.7c0-6.5,0.3-14.5,1.9-23.5C377.6,447.2,377.2,455.2,377.2,461.7z"/>
		<path class="st2" d="M397.3,390.9c1.1-0.2,1.9,0.3,2.9,1C399.3,391.2,398.4,390.7,397.3,390.9z"/>
		<path class="st2" d="M369.9,441.1c0-0.2-0.1-0.4-0.1-0.6c0,0,0,0,0,0C369.8,440.7,369.8,440.9,369.9,441.1z"/>
		<path class="st2" d="M512.1,473c-0.4-0.1-0.7-0.3-1-0.6c-0.2-0.3-0.3-0.7-0.2-1.1l-0.3,1.5L512.1,473z"/>
		<path class="st2" d="M371.2,436.3c0.5,0.2,0.8,0.6,0.9,1.1c0.9,5,1.6,9.7,2.3,14c-0.7-4.3-1.4-9.1-2.3-14
			c-3.8-21.4-4.5-50.6,5.2-68.6c9.4-17.3,37.2-36.4,78.5-40c3.5-0.3,6.9-0.5,10.2-0.5c33.3,0,54.5,14.6,56.1,18.8
			c0.8,2.3,0,5.5-1.1,9.9c-1.2,5-2.9,11.8-3.2,20.9c-0.2,6.2-0.4,16.2-0.6,27.1c-0.2,10.9-0.4,22.5-0.7,32.4c0-0.5,0.3-1,0.8-1.2
			c0.5-0.2,1-0.2,1.4,0.2c0.2,0.1,0.4,0.3,0.5,0.5c0.2-9.8,0.4-21.1,0.6-31.7c0.2-10.9,0.4-20.9,0.6-27.1c0.3-8.9,1.8-15.2,3.1-20.3
			c1.2-4.9,2.1-8.5,1-11.6c-2.4-6.5-29.9-23.6-69.1-20.1c-42.3,3.7-71,23.5-80.7,41.5c-9.9,18.4-9.4,47.8-5.6,69.6
			c0.2-0.2,0.4-0.4,0.6-0.6C370.2,436.2,370.7,436.2,371.2,436.3z"/>
		<path class="st2" d="M519.2,440.7c-0.2,7.7-0.4,13.2-0.6,16.7C518.8,453.6,519,447.7,519.2,440.7
			C519.2,440.7,519.2,440.7,519.2,440.7z"/>
		<path class="st2" d="M511.4,437.7c-1.6-7.1-4.2-11.7-6.9-16.1c-2.1-3.6-4.1-7-5.3-11.3c1.2,4.4,3.2,7.8,5.3,11.3
			C507.2,426,509.9,430.6,511.4,437.7z"/>
		<path class="st2" d="M370.1,442.3c0.1,0.8,0.3,1.6,0.4,2.4C370.3,443.9,370.2,443.1,370.1,442.3z"/>
		<path class="st2" d="M370.6,445.4c0.4,2.2,0.7,4.4,1,6.4C371.3,449.8,370.9,447.7,370.6,445.4z"/>
		<path class="st2" d="M409.4,397c-0.3-0.1-0.6-0.2-0.9-0.3C408.8,396.8,409.1,396.9,409.4,397z"/>
		<path class="st2" d="M377.3,467.7C377.3,467.7,377.3,467.7,377.3,467.7c-1.1-4.1-2.1-10.6-3-16.3
			C375.2,457.1,376.3,463.6,377.3,467.7z"/>
		<path class="st2" d="M515.2,444.2c0-0.1,0-0.1,0-0.2C515.2,444.1,515.2,444.2,515.2,444.2z"/>
		<path class="st2" d="M515.4,446.1c0-0.2,0-0.4-0.1-0.6C515.4,445.7,515.4,445.9,515.4,446.1z"/>
		<path class="st2" d="M515.9,456.5c0,0.3,0,0.5,0,0.8C515.8,457,515.8,456.7,515.9,456.5z"/>
		<path class="st2" d="M515.5,447.9c0-0.4,0-0.7-0.1-1.1C515.5,447.2,515.5,447.6,515.5,447.9z"/>
		<path class="st2" d="M471.1,378.8c-0.2,0-0.4,0-0.5,0.1C470.7,378.9,470.9,378.9,471.1,378.8z"/>
		<path class="st2" d="M423.1,400.2c-14.7,1.8-20.5-2.9-23.6-5.4C402.6,397.4,408.5,402.1,423.1,400.2z"/>
		<path class="st2" d="M408.1,396.6c-1.9-0.6-3.4-1.4-4.6-2.2C404.7,395.2,406.2,396,408.1,396.6z"/>
		<path class="st2" d="M363.6,461.1c1.4,8.1,6.7,12.9,11.2,15.5c1.6,9.2,3.8,17.3,6.7,24.3c4.5,10.9,18.2,21.9,26.4,27.7v19.7
			c0,5.3,15.8,18.4,36.6,18.4c20.7,0,36.6-13,36.6-18.4v-19.7c8.2-5.8,21.8-16.7,26.4-27.7c2.9-6.9,5.1-15.1,6.7-24.3
			c4.5-2.6,9.8-7.4,11.2-15.5c1.8-10.9-0.3-19.4-5.8-24.2c-0.2-0.2-0.4-0.3-0.5-0.5c-0.4-0.3-1-0.4-1.4-0.2
			c-0.5,0.2-0.8,0.7-0.8,1.2c0,0,0,0,0,0c-0.2,8.8-0.4,15-0.7,19c0,0.3,0,0.5,0,0.8c-0.2,3.6-0.6,6.2-1.1,8.1
			c0.6-4.4,1.1-10.5,0.8-17c0-0.1,0-0.2,0-0.4c0-0.4,0-0.7-0.1-1.1c0-0.3,0-0.5,0-0.8c0-0.2,0-0.4-0.1-0.6c0-0.4-0.1-0.8-0.1-1.2
			c0-0.1,0-0.1,0-0.2c-0.2-1.8-0.4-3.6-0.8-5.4c-0.1-0.5-0.2-1-0.3-1.5c-1.7-7.5-4.6-12.5-7.2-16.9c-2.5-4.3-4.9-8.3-5.8-14.1
			c-2-13.2-11.5-27.4-27.4-27.4c-0.9,0-1.8,0.1-2.7,0.2c-0.2,0-0.4,0-0.5,0.1c-2.9,0.4-5.8,1.3-8.8,2.4c-4.1,1.6-8.2,3.8-12.5,6
			c-3.4,1.8-6.9,3.6-10.5,5.2c-5.2,2.3-10.5,4.2-16.1,4.9c-5.9,0.7-10.2,0.4-13.4-0.5c-0.3-0.1-0.6-0.2-0.9-0.3
			c-0.1,0-0.3-0.1-0.4-0.1c-1.9-0.6-3.4-1.4-4.6-2.2c-0.9-0.6-1.6-1.2-2.3-1.7c-0.3-0.3-0.7-0.5-1-0.8c-1-0.7-1.9-1.2-2.9-1
			c-4.6,0.8-10.8,19.3-15.2,34.6c-1.3,4.4-2.2,8.6-2.9,12.7c-1.6,9-1.9,17-1.9,23.5c0,2.2,0.1,4.2,0.1,6c0,0,0,0,0,0
			c-1.1-4.1-2.1-10.6-3-16.3c-0.7-4.3-1.4-9.1-2.3-14c-0.1-0.5-0.4-0.9-0.9-1.1c-0.5-0.2-1-0.1-1.4,0.2c-0.2,0.2-0.4,0.4-0.6,0.6
			C363.8,441.9,361.8,450.4,363.6,461.1z M369.9,441.1c0.1,0.4,0.1,0.8,0.2,1.2c0.1,0.8,0.3,1.6,0.4,2.4c0,0.2,0.1,0.5,0.1,0.7
			c0.4,2.2,0.7,4.4,1,6.4c2.4,15.1,3.6,21.8,7,22.5c0.4,0.1,0.8,0,1.2-0.3c0.3-0.3,0.5-0.6,0.5-1.1c0,0,0,0,0,0l-0.1-2.8
			c-0.3-9.4-0.9-25.1,4.5-43.9c7.1-24.8,11.7-32.2,13.1-32.6c0.3,0,1.1,0.7,1.7,1.2c3.1,2.5,9,7.2,23.6,5.4
			c10-1.3,18.9-5.9,27.5-10.4c6.2-3.2,12.1-6.3,17.7-7.7c1.9-0.4,3.7-0.7,5.5-0.7c2.7,0,5.1,0.5,7.4,1.3c9.8,3.6,15.7,14,17.2,23.8
			c0.2,1.3,0.5,2.6,0.8,3.7c1.2,4.3,3.2,7.8,5.3,11.3c2.6,4.4,5.3,9,6.9,16.1c0.1,0.5,0.2,1,0.3,1.4c2.9,15.2-0.7,32-0.8,32.2
			c-0.1,0.4,0,0.8,0.2,1.1c0.2,0.3,0.6,0.5,1,0.6c0.3,0,1.2,0.1,2.2-0.8c2.3-1.9,3.7-6.9,4.2-14.8c0.2-3.5,0.4-9,0.6-16.7
			c0,0,0,0,0,0c3.5,4.4,4.6,11.3,3.2,19.9c-1.2,7.4-6.3,11.6-10.4,13.9c-0.4,0.2-0.6,0.6-0.7,1c-1.5,9.2-3.7,17.4-6.6,24.3
			c-3.2,7.7-12.7,17.5-26,26.9c-0.4,0.3-0.6,0.7-0.6,1.1v20.4c0,3.3-14.4,15.6-33.8,15.6s-33.8-12.3-33.8-15.6v-20.4
			c0-0.5-0.2-0.9-0.6-1.1c-13.3-9.4-22.8-19.2-26-26.9c-2.9-6.9-5.1-15.1-6.6-24.3c-0.1-0.4-0.3-0.8-0.7-1
			c-4.1-2.2-9.2-6.5-10.4-13.9c-1.5-8.8-0.2-15.9,3.4-20.2c0,0,0,0,0,0C369.8,440.7,369.8,440.9,369.9,441.1z"/>
		<path class="st2" d="M601.4,617.2c-13.1-9.7-51.9-31.3-80.3-47c-13.9-7.7-25.9-14.4-31.5-17.8c-0.6-0.4-1.5-0.2-1.9,0.4
			c-7.9,12.3-32.2,22.7-43.3,22.7S409,565,401.1,552.8c-0.4-0.6-1.2-0.8-1.9-0.4c-5.6,3.4-17.6,10.1-31.5,17.8
			c-28.4,15.8-67.3,37.4-80.3,47c-11.7,8.7-17.4,36.4-20,58.1c-0.9,7,1.4,14.1,6.1,19.5c4.7,5.3,11.5,8.4,18.7,8.4l151,0
			c0.3,0,0.5,0,0.8,0c0.2,0,0.4,0,0.5,0h152.3c7.1,0,13.9-3.1,18.7-8.4c4.7-5.3,6.9-12.4,6.1-19.5
			C618.8,653.6,613.2,625.9,601.4,617.2z M613.3,692.9c-4.2,4.7-10.3,7.5-16.6,7.5l-152.5,0c-0.2,0-0.5,0-0.9,0H292.1
			c-6.3,0-12.4-2.7-16.6-7.5c-4.2-4.7-6.2-11-5.4-17.3c2.6-21.2,7.9-48.1,18.9-56.2c12.9-9.6,51.7-31.1,80-46.8
			c13.1-7.3,24.5-13.6,30.5-17.2c9.2,12.7,33.3,22.8,44.9,22.8c11.6,0,35.7-10.1,44.9-22.8c6,3.6,17.4,9.9,30.5,17.2
			c28.3,15.7,67.1,37.3,80,46.8c11,8.1,16.3,35,18.9,56.2C619.4,681.9,617.5,688.2,613.3,692.9z"/>
	</g>
	<g>
		<path class="st3" d="M647.1,250.7c7.8,10,15.6,20.1,23.3,30.2c7.7,10.1,15.3,20.3,23,30.4c7.7,10.1,15.2,20.3,22.8,30.5
			c7.6,10.2,15.2,20.4,22.6,30.6l1.6,2.2l-1.2,2.6l-17.3,36.8l-17.4,36.8l-17.6,36.7l-17.7,36.6l-0.4-6.3l22.5,34.7l22.4,34.8
			l22.2,34.9l22.1,34.9l2.2,3.4l-2.4,3.1c-6.1,8-12.1,16-18.2,24l-18.3,23.9c-6.1,8-12.2,16-18.3,23.9l-18.5,23.8l0.5-3.3
			c2.8,7.7,5.4,15.5,8.1,23.3l8,23.3l7.9,23.4c2.6,7.8,5.2,15.6,7.7,23.4c-3.3-7.5-6.5-15.1-9.8-22.6l-9.6-22.7l-9.5-22.8
			c-3.2-7.6-6.3-15.2-9.4-22.8l-0.7-1.7l1.1-1.6l17.3-24.7c5.7-8.2,11.6-16.4,17.4-24.6l17.5-24.5c5.8-8.2,11.7-16.3,17.5-24.5
			l-0.2,6.5l-22.8-34.5l-22.6-34.6l-22.5-34.7L658,524.8l-2-3.1l1.6-3.2l18.1-36.4l18.2-36.4l18.4-36.3l18.5-36.2l0.4,4.7
			c-7.2-10.5-14.2-21.1-21.3-31.6c-7.1-10.6-14.2-21.1-21.2-31.7c-7-10.6-14-21.2-21-31.8C660.9,272.1,654,261.5,647.1,250.7z"/>
	</g>
	<g>
		<path class="st1" d="M873,551.3c-6.3,7.4-11.9,18.2,0.7,36.6c13.3-5.4,23.4-12,30.9-20.2l12.3-13.5c0.3-0.3,0.7-0.5,1.1-0.5
			c0.4,0,0.8,0.2,1,0.6l8.3,11.8v-24.4c-14.4-12.7-26.9-27.3-32.1-37.2c-1.4,2.6-3.8,3.3-5.3,3.4c-7.6,0.7-19.8-9.1-25.2-24.4
			c-4.2-12.1-1.6-19.2,1.3-23c2.8-3.7,6.4-5.2,8.1-5.1c2,0.1,3.2,2.8,5.5,8.2c1.2,2.8,2.5,5.9,4,8.7c-2.2-9.9-2.9-23.7,1.1-30.2
			c1.6-2.5,3.9-3.9,6.6-3.9c6.2,0,9.8,2.7,13.2,5.2c3.6,2.7,7.4,5.5,14.6,5.5c8.2,0,17.5-20.5,25-37c5.1-11.3,9.5-21,13.5-24.8
			c8.3-10.1,16.9-15.1,25.4-14.7c10.7,0.5,17.7,9.4,20.2,13.1c7,10.6,15.1,19.4,26,28.6c3.2,2.7,5.7,5,7.9,7.4
			c5.4,6,7.8,11.9,9.3,23.1c0.3,2.5,0.5,5.3,0.5,8.2c0,2.9-0.1,5.8-0.3,8.7c-0.4,5.8-1.2,11.4-1.8,15.5c4.8-8.3,6.8-15.7,7.8-19.7
			c0.1-0.3,0.1-0.5,0.2-0.7c0.6-2.5,0.8-3.2,1.7-3.6c0.1,0,0.2-0.1,0.3-0.1c0,0,0.1,0,0.1,0c0.1,0,0.2,0,0.2,0c0,0,0.1,0,0.1,0
			c0.1,0,0.2,0,0.2,0.1c0,0,0.1,0,0.1,0.1c0.1,0,0.1,0.1,0.2,0.1c0.4,0.3,0.8,0.5,1.1,0.8c10.5,7.8,12.3,19.8,5.2,36.5
			c-0.5,1.1-1,2.3-1.6,3.5c-3.8,8-10.7,13.4-17.6,13.8c-3.2,0.2-5.9-0.8-7.9-2.7c-8.1,12.8-20.9,27.4-34.1,38.7v23l8.9-12.7
			c0.2-0.3,0.6-0.6,1-0.6c0,0,0.1,0,0.1,0c0.4,0,0.8,0.2,1,0.5l12.3,13.5c7.7,8.4,18.1,15.2,31.9,20.6c8.5-11.2,8.5-22.3,0.1-34.7
			c-9.6-14.2-9-20.9,3-34.3c7.5-8.3,14.7-27.6,13.4-44.2c-0.7-9.1-3.9-16-9.4-20.5c-0.3-0.2-0.5-0.6-0.5-1
			c-1.3-15.9-13.3-26.2-13.5-26.3c-0.3-0.3-0.5-0.6-0.5-1c0-0.4-1.3-43-15.2-53.8c-0.3-0.2-0.4-0.5-0.5-0.8
			c-7-35.6-43.8-36.3-44.2-36.3c-0.3,0-0.6-0.1-0.8-0.3c-0.2-0.1-16.3-11.2-33.5-5.1c-17.1,6.1-20.3,16.2-20.3,16.3
			c-0.1,0.4-0.4,0.7-0.7,0.8c-0.3,0.2-0.7,0.2-1.1,0.1c-0.9-0.3-22.9-7.1-36.6,11.8c-14.6,20.2-20.8,45.5-21.6,61
			c-0.9,17-4,23.6-12.2,41c-8.4,17.9-4.8,41.3,8.8,57C886.4,535.7,880.5,542.6,873,551.3z"/>
		<path class="st1" d="M964.6,616.6c7.9,0,33.8-33.8,33.8-38v-7.2v-28c0-0.4,0.2-0.8,0.5-1.1c13.7-11.7,27.1-27,35-40.1
			c0.2-0.4,0.7-0.7,1.2-0.7c0,0,0,0,0,0c0.2,0,0.4,0.1,0.6,0.1c0.2,0.1,0.4,0.3,0.6,0.5c1.3,2.1,3.7,3.2,6.7,3
			c4.8-0.3,11.5-4.2,15.3-12.2c8.1-16.9,7.3-28.8-2.4-36.3c-0.1,0.2-0.1,0.5-0.2,0.8c-1.2,4.7-3.9,15.6-12.1,27
			c-0.4,0.5-1.1,0.7-1.7,0.5c-0.6-0.3-0.9-0.9-0.8-1.5c0-0.2,4.8-23.8,2.8-38.3c-2-14.7-5.4-19.6-16.2-28.7
			c-11.2-9.4-19.4-18.4-26.5-29.2c-2.3-3.4-8.6-11.4-18.1-11.9c-7.6-0.4-15.5,4.3-23.3,13.8c-3.7,3.5-8.2,13.5-13,24.1
			c-8.6,19-17.5,38.6-27.5,38.6c-2,0-3.8-0.2-5.4-0.5c-4.8-1-8-3.4-10.8-5.5c-0.6-0.5-1.3-0.9-1.9-1.4c-2.7-1.9-5.4-3.3-9.7-3.3
			c-0.4,0-0.9,0.1-1.2,0.2c-1.2,0.3-2.2,1.1-3,2.4c-3.8,6-2.7,20.3-0.4,29.7c0.6,2.6,1.4,4.9,2.2,6.5c0.3,0.6,0.1,1.3-0.4,1.7
			c-0.5,0.4-1.3,0.3-1.8-0.1c-4.3-4.1-7.2-11.1-9.6-16.6c-1.2-2.7-2.6-6.2-3.3-6.6c-0.3,0-3.2,1-5.5,4c-2.5,3.3-4.7,9.6-0.9,20.5
			c5.1,14.6,16.7,23.1,22.3,22.6c2.2-0.2,3.5-1.8,3.9-4.6c0.1-0.6,0.6-1.1,1.2-1.2c0.1,0,0.1,0,0.2,0c0.1,0,0.1,0,0.2,0
			c0.1,0,0.1,0,0.2,0c0.1,0,0.1,0,0.2,0.1c0.1,0,0.1,0.1,0.2,0.1c0.1,0,0.1,0.1,0.2,0.1c0,0,0.1,0.1,0.1,0.1
			c0.1,0.1,0.2,0.2,0.2,0.4c3.6,9.2,17.6,26,33.4,39.8c0.3,0.3,0.5,0.6,0.5,1v29.4v6.9C930.1,584.3,956.5,616.6,964.6,616.6z"/>
		<path class="st1" d="M1108.6,619.3c-3.2-0.7-6.6-1.3-10.2-2c-26.4-5.1-62.4-12.1-85.6-36.6c-5.6,7.7-32.3,44.2-47.6,51.2
			c-0.4,0.2-0.8,0.2-1.2,0c-15.3-7-42.1-43.5-47.6-51.2c-23.2,24.4-59.2,31.4-85.6,36.6c-3.6,0.7-7,1.4-10.2,2
			c-16.1,3.4-20.4,37.6-21.5,57.7c-0.3,6.1,1.8,12,6,16.5c4.2,4.5,9.9,6.9,16.1,6.9H1108c6.2,0,11.9-2.5,16.1-6.9
			c4.2-4.5,6.4-10.3,6-16.5C1129,656.9,1124.7,622.7,1108.6,619.3z"/>
		<path class="st2" d="M1035.6,501.7c0.2,0.1,0.4,0.3,0.6,0.5C1036.1,501.9,1035.9,501.8,1035.6,501.7z"/>
		<path class="st2" d="M1046.6,444.7c-1.5-11.2-3.9-17.1-9.3-23.1C1042.7,427.6,1045.1,433.5,1046.6,444.7c0.3,2.5,0.5,5.3,0.5,8.2
			C1047.1,450,1046.9,447.2,1046.6,444.7z"/>
		<path class="st2" d="M1054.6,453.2c0.1,0,0.2-0.1,0.3-0.1C1054.8,453.1,1054.7,453.2,1054.6,453.2z"/>
		<path class="st2" d="M1055.7,453.2c-0.1,0-0.2,0-0.2-0.1C1055.5,453.2,1055.6,453.2,1055.7,453.2z"/>
		<path class="st2" d="M896.1,499.8c0.1,0.1,0.2,0.2,0.2,0.4C896.3,500.1,896.2,500,896.1,499.8z"/>
		<path class="st2" d="M999.3,572.7c-0.6-0.2-1-0.7-1-1.3v7.2c0,4.2-25.9,38-33.8,38c-8,0-34.4-32.3-34.4-39.2v-6.9
			c0,0.6-0.4,1.1-1,1.3c-0.6,0.2-1.2,0-1.5-0.5l0.6-0.8H928l-0.6,0.4v6.5c0,8.8,27.6,42,37.2,42c9.5,0,36.5-34.9,36.5-40.8v-6.8
			l-0.3,0.4C1000.5,572.6,999.9,572.8,999.3,572.7z"/>
		<path class="st2" d="M891.4,438.2c6.2,0,9.8,2.7,13.2,5.2c3.6,2.7,7.4,5.5,14.6,5.5c-7.2,0-11-2.8-14.6-5.5
			C901.2,440.9,897.6,438.2,891.4,438.2z"/>
		<path class="st2" d="M1044.9,477.1C1044.9,477.1,1044.9,477.1,1044.9,477.1c0.7-4.1,1.4-9.7,1.8-15.5
			C1046.3,467.5,1045.5,473,1044.9,477.1z"/>
		<path class="st2" d="M1055.3,453.1c-0.1,0-0.2,0-0.2,0C1055.2,453.1,1055.2,453.1,1055.3,453.1z"/>
		<path class="st2" d="M894.9,499.4c0.1,0,0.2,0,0.3,0c-0.1,0-0.1,0-0.2,0C895,499.3,894.9,499.3,894.9,499.4z"/>
		<path class="st2" d="M895.9,499.7c-0.1-0.1-0.1-0.1-0.2-0.1C895.8,499.6,895.9,499.7,895.9,499.7z"/>
		<path class="st2" d="M895.6,499.5c-0.1,0-0.1-0.1-0.2-0.1C895.5,499.4,895.5,499.4,895.6,499.5z"/>
		<path class="st2" d="M913.8,451.2c-4.8-1-8-3.4-10.8-5.5c-0.6-0.5-1.3-0.9-1.9-1.4c0.6,0.4,1.3,0.9,1.9,1.4
			C905.9,447.8,909,450.2,913.8,451.2z"/>
		<path class="st2" d="M1055.8,453.3c0.1,0,0.2,0.1,0.2,0.1c0.4,0.3,0.7,0.5,1.1,0.8c-0.4-0.3-0.7-0.5-1.1-0.8
			C1055.9,453.3,1055.8,453.3,1055.8,453.3z"/>
		<path class="st2" d="M1109.1,616.6c-3.2-0.7-6.6-1.3-10.2-2c-26.5-5.1-62.7-12.2-85.3-37c-0.3-0.3-0.6-0.5-1.1-0.5
			c-0.4,0-0.8,0.2-1,0.6c-0.3,0.4-30.7,43.3-46.9,51.4c-16.2-8.1-46.6-51-46.9-51.4c-0.2-0.3-0.6-0.6-1-0.6c-0.5,0-0.8,0.1-1.1,0.5
			c-22.6,24.8-58.8,31.8-85.3,37c-3.6,0.7-7,1.4-10.2,2c-17,3.6-22.3,34.7-23.7,60.2c-0.4,6.9,2,13.5,6.8,18.5
			c4.8,5,11.2,7.8,18.1,7.8H1108c6.9,0,13.4-2.8,18.1-7.8c4.8-5,7.2-11.6,6.8-18.5C1131.4,651.4,1126.1,620.2,1109.1,616.6z
			 M1124.1,693.5c-4.2,4.5-9.9,6.9-16.1,6.9H821.2c-6.2,0-11.9-2.5-16.1-6.9c-4.2-4.5-6.4-10.3-6-16.5c1.1-20.1,5.4-54.3,21.5-57.7
			c3.2-0.7,6.6-1.3,10.2-2c26.4-5.1,62.4-12.1,85.6-36.6c5.6,7.7,32.3,44.2,47.6,51.2c0.4,0.2,0.8,0.2,1.2,0
			c15.3-7,42.1-43.5,47.6-51.2c23.2,24.4,59.2,31.4,85.6,36.6c3.6,0.7,7,1.4,10.2,2c16.1,3.4,20.4,37.6,21.5,57.7
			C1130.4,683.2,1128.3,689,1124.1,693.5z"/>
		<path class="st2" d="M870.9,549.5c-6.5,7.6-13.5,20.2,1.1,40.9c0.4,0.5,1,0.7,1.6,0.5c14.2-5.6,25-12.6,33-21.3l11.2-12.2
			l9.6,13.5l0,0l0.6-0.4h0.2l-0.6,0.8c0.3,0.5,1,0.7,1.5,0.5c0.6-0.2,1-0.7,1-1.3v-29.4c0-0.4-0.2-0.8-0.5-1
			c-15.7-13.8-29.8-30.6-33.4-39.8c-0.1-0.1-0.1-0.3-0.2-0.4c0-0.1-0.1-0.1-0.1-0.1c-0.1-0.1-0.1-0.1-0.2-0.1
			c-0.1,0-0.1-0.1-0.2-0.1c-0.1,0-0.1-0.1-0.2-0.1c-0.1,0-0.1,0-0.2,0c-0.1,0-0.2,0-0.3,0c-0.6,0.1-1.1,0.6-1.2,1.2
			c-0.4,2.9-1.7,4.4-3.9,4.6c-5.6,0.5-17.2-8-22.3-22.6c-3.8-10.9-1.6-17.2,0.9-20.5c2.3-3.1,5.2-4,5.5-4c0.7,0.5,2.2,3.9,3.3,6.6
			c2.4,5.6,5.3,12.5,9.6,16.6c0.5,0.5,1.2,0.5,1.8,0.1c0.5-0.4,0.7-1.1,0.4-1.7c-0.8-1.6-1.5-3.8-2.2-6.5
			c-2.3-9.4-3.3-23.7,0.4-29.7c0.8-1.3,1.8-2.1,3-2.4c0.4-0.1,0.8-0.2,1.2-0.2c4.3,0,7,1.4,9.7,3.3c0.6,0.4,1.3,0.9,1.9,1.4
			c2.8,2.1,6,4.5,10.8,5.5c1.6,0.3,3.4,0.5,5.4,0.5c10,0,18.9-19.6,27.5-38.6c4.8-10.6,9.3-20.5,13-24.1
			c7.8-9.5,15.7-14.1,23.3-13.8c9.5,0.5,15.8,8.5,18.1,11.9c7.2,10.8,15.4,19.8,26.5,29.2c10.8,9.1,14.2,14,16.2,28.7
			c1.9,14.5-2.8,38.1-2.8,38.3c-0.1,0.6,0.2,1.3,0.8,1.5c0.6,0.3,1.3,0.1,1.7-0.5c8.2-11.4,10.9-22.4,12.1-27
			c0.1-0.3,0.1-0.5,0.2-0.8c9.7,7.5,10.5,19.4,2.4,36.3c-3.8,8-10.4,11.9-15.3,12.2c-3,0.2-5.3-0.9-6.7-3c-0.1-0.2-0.3-0.4-0.6-0.5
			c-0.2-0.1-0.4-0.1-0.6-0.1c0,0,0,0,0,0c-0.5,0-0.9,0.3-1.2,0.7c-7.9,13.1-21.3,28.5-35,40.1c-0.3,0.3-0.5,0.6-0.5,1.1v28
			c0,0.6,0.4,1.1,1,1.3c0.6,0.2,1.2,0,1.5-0.5l0.3-0.4l10.2-14.4l11.2,12.2c8.1,8.9,19.2,16,33.9,21.7c0.2,0.1,0.3,0.1,0.5,0.1
			c0.4,0,0.8-0.2,1.1-0.5c9.8-12.4,10.1-25.1,0.9-38.8c-8.9-13.2-8.4-18.3,2.8-30.9c7.8-8.7,15.5-28.9,14.1-46.2
			c-0.7-9.5-4.2-17.1-9.9-22c-1.4-15-11.5-25-13.9-27.2c-0.2-5.5-2.1-43.6-15.9-55c-7.2-35.1-42.1-37.8-46.4-38
			c-2.6-1.7-18.3-11.3-35.7-5.2c-15.1,5.4-20.1,13.7-21.5,16.9c-5.2-1.3-25.5-4.7-38.4,13.1c-15,20.7-21.3,46.6-22.2,62.5
			c-0.9,16.5-3.9,22.9-11.9,40c-8.8,18.9-5.1,43.5,9.2,60C882.7,535.7,878.3,540.9,870.9,549.5z M862.5,461.2
			c8.2-17.5,11.3-24,12.2-41c0.8-15.5,7-40.8,21.6-61c13.7-18.9,35.6-12.1,36.6-11.8c0.3,0.1,0.7,0.1,1.1-0.1
			c0.3-0.2,0.6-0.5,0.7-0.8c0-0.1,3.2-10.2,20.3-16.3c17.2-6.1,33.3,5,33.5,5.1c0.2,0.2,0.5,0.2,0.8,0.3c0.4,0,37.2,0.7,44.2,36.3
			c0.1,0.3,0.2,0.6,0.5,0.8c13.9,10.9,15.2,53.4,15.2,53.8c0,0.4,0.2,0.8,0.5,1c0.1,0.1,12.2,10.4,13.5,26.3c0,0.4,0.2,0.7,0.5,1
			c5.5,4.5,8.7,11.4,9.4,20.5c1.3,16.6-5.9,35.9-13.4,44.2c-12,13.4-12.6,20.1-3,34.3c8.4,12.4,8.4,23.5-0.1,34.7
			c-13.8-5.4-24.2-12.2-31.9-20.6l-12.3-13.5c-0.3-0.3-0.6-0.5-1-0.5c0,0-0.1,0-0.1,0c-0.4,0-0.8,0.2-1,0.6l-8.9,12.7v-23
			c13.2-11.3,26.1-25.9,34.1-38.7c1.9,1.9,4.7,2.8,7.9,2.7c6.9-0.4,13.8-5.8,17.6-13.8c0.6-1.2,1.1-2.4,1.6-3.5
			c7.1-16.7,5.4-28.7-5.2-36.5c-0.4-0.3-0.7-0.5-1.1-0.8c-0.1-0.1-0.1-0.1-0.2-0.1c0,0-0.1,0-0.1-0.1c-0.1,0-0.2,0-0.2-0.1
			c0,0-0.1,0-0.1,0c-0.1,0-0.2,0-0.2,0c0,0-0.1,0-0.1,0c-0.1,0-0.2,0-0.3,0.1c-0.9,0.3-1.1,1.1-1.7,3.6c-0.1,0.2-0.1,0.5-0.2,0.7
			c-1,4-3,11.4-7.8,19.7c0,0,0,0,0,0c0.7-4.1,1.4-9.7,1.8-15.5c0.2-2.9,0.3-5.9,0.3-8.7c0-2.9-0.2-5.7-0.5-8.2
			c-1.5-11.2-3.9-17.1-9.3-23.1c-2.1-2.3-4.7-4.7-7.9-7.4c-11-9.2-19-18.1-26-28.6c-2.5-3.8-9.5-12.6-20.2-13.1
			c-8.6-0.4-17.2,4.5-25.4,14.7c-4,3.8-8.4,13.5-13.5,24.8c-7.5,16.5-16.8,37-25,37c-7.2,0-11-2.8-14.6-5.5c-3.5-2.6-7-5.2-13.2-5.2
			c-2.7,0-5,1.3-6.6,3.9c-4.1,6.5-3.3,20.3-1.1,30.2c-1.5-2.9-2.9-6-4-8.7c-2.3-5.4-3.5-8.1-5.5-8.2c-1.7-0.1-5.4,1.4-8.1,5.1
			c-2.9,3.9-5.5,11-1.3,23c5.3,15.3,17.5,25.1,25.2,24.4c1.5-0.1,3.8-0.8,5.3-3.4c5.2,9.9,17.7,24.5,32.1,37.2v24.4l-8.3-11.8
			c-0.2-0.3-0.6-0.6-1-0.6c-0.4,0-0.8,0.1-1.1,0.5l-12.3,13.5c-7.5,8.2-17.6,14.9-30.9,20.2c-12.6-18.4-7-29.2-0.7-36.6
			c7.5-8.8,13.4-15.7-1.8-33.1C857.7,502.6,854.1,479.1,862.5,461.2z"/>
	</g>
	<path class="st4" d="M1016.7,441.7c-9,0-29.3,1.4-35.6,4.1c-6.3,2.8-6,3.7-15.5,3.7s-9.2-0.9-15.5-3.7c-6.3-2.8-26.6-4.1-35.6-4.1
		c-9,0-25.2,1.4-25.2,6.8c0,2.6,0,4.3,0,6.1c0,1.8,6,2.9,6,6s-0.7,16.2,2.2,22.3c2.8,6.1,9.8,15.8,26.6,15.5
		c16.9-0.4,27.8-12.4,29.8-18c2-5.6,6.8-18.7,11.7-18.7c4.9,0,9.7,13.1,11.7,18.7c2,5.6,12.9,17.6,29.8,18
		c16.9,0.4,23.8-9.3,26.6-15.5c2.8-6.1,2.2-19.3,2.2-22.3s6-4.2,6-6c0-1.8,0-3.4,0-6.1C1041.9,443,1025.7,441.7,1016.7,441.7z
		 M953.2,467.8c-2.1,6.5-10.8,24-28.1,24s-22.2-10.8-23.1-16.5c-0.9-5.7-1.2-22.2,4.6-25.8c5.8-3.6,28.5-2,34.9-0.4
		C951,451.2,955.3,461.3,953.2,467.8z M1029.2,475.2c-0.9,5.7-5.8,16.5-23.1,16.5c-17.3,0-26.1-17.5-28.1-24s2.2-16.5,11.7-18.8
		c6.5-1.6,29.1-3.2,34.9,0.4C1030.4,453,1030.1,469.5,1029.2,475.2z"/>
	<path class="st4" d="M444.4,489.8c-10.8,0-31.5,4.4-41.5,14.2l38.9,0c0,0,0.7-5.5,2.6-5.5s2.6,5.5,2.6,5.5l38.9,0
		C475.9,494.1,455.2,489.8,444.4,489.8z"/>
</g>
</svg>
