<?xml version="1.0" encoding="utf-8"?>
<!-- Generator: Adobe Illustrator 23.0.2, SVG Export Plug-In . SVG Version: 6.00 Build 0)  -->
<svg version="1.1" id="Ebene_1" xmlns="http://www.w3.org/2000/svg" xmlns:xlink="http://www.w3.org/1999/xlink" x="0px" y="0px"
	 viewBox="0 0 1400 1100" style="enable-background:new 0 0 1400 1100;" xml:space="preserve">
<style type="text/css">
	.st0{fill:#FFFFFF;}
	.st1{fill:#033153;}
	.st2{fill:#E3E3E2;}
	.st3{fill:#F2931B;}
</style>
<rect y="0" class="st0" width="1400" height="1100"/>
<title>clock</title>
<g>
	<rect x="267" y="892.4" class="st1" width="433" height="23.3"/>
	<rect x="700" y="892.4" class="st2" width="433" height="23.3"/>
	<rect x="298.2" y="436.7" class="st1" width="401.8" height="455.7"/>
	<rect x="700" y="436.7" class="st2" width="401.8" height="455.7"/>
	<g>
		<g>
			<path class="st3" d="M955.1,715c-5.5-4.6-11-9.1-16.5-13.6c-3.5-2.9-7.2-5.6-10.5-8.7c-1.6-1.5-2.6-3.7-3.7-5.6
				c-3.2-5.8-6.3-11.6-9.7-17.8c-1.6,1.8-3.1,3.2-4.3,4.9c-4.2,5.9-6.3,12.7-7.7,19.7c-1.2,5.7-1.9,11.6-2.8,17.3
				c-0.7,4.2,0.4,8.1,1.4,12.1c10.1,39.2,20.1,78.5,30.1,117.7c1.2,4.6-0.3,8.7-4.3,11.5c-1.1,0.8-1.5,1.5-1.3,2.9
				c0.9,5.5,1.6,11,2.4,16.5c1.3,8.7-2.5,15.3-10.2,18c-9,3.1-18.6-2.6-20.1-12.2c-0.9-6.2-1.8-12.3-2.6-18.5
				c-0.2-1.1-0.4-2.3-0.6-3.5c-0.8,0-1.4-0.1-2.1-0.1c-15.5,0-31.1,0-46.6,0c-1.4,0-2.2,0.3-2.8,1.8c-3.3,7.9-6.6,15.8-10.1,23.7
				c-2.7,6.2-8.2,9.6-14.8,9.4c-6.1-0.2-11.6-4.1-13.8-9.9c-1.5-4-1.2-8,0.4-12c1.8-4.1,3.5-8.2,5.2-12.3c0.1-0.1,0-0.3,0-0.6
				c-0.9-0.3-1.9-0.5-2.8-0.9c-3.8-1.3-6.9-3.5-8.2-7.4c-0.6-1.7-0.8-3.8-0.4-5.6c3.9-15.5,8.1-31,12.1-46.6
				c6.6-25.3,13.2-50.6,19.7-75.9c0.3-1.1,0.3-2.3,0-3.6c-0.3,0.4-0.5,0.8-0.7,1.2c-3.9,6.8-12.2,9.3-19.2,5.8
				c-6.8-3.4-9.8-11.6-6.7-18.8c7.6-17.4,15.1-34.8,22.9-52.1c1.1-2.4,3-4.8,5.1-6.4c14.2-10.7,28.5-21.1,42.8-31.6
				c17.2-12.6,40.9-7.1,50.9,11.6c8.1,15.2,16.4,30.3,24.6,45.4c0.4,0.7,0.9,1.3,1.5,1.8c8.4,7,16.9,13.9,25.3,20.9
				c4.7,3.9,6.6,8.9,5.6,14.9c-0.3,1.6-0.9,4.4-4,8.1c-5.5,4.8-11.6,5.8-18.3,2.8C959.4,718.4,956.2,715.9,955.1,715z"/>
			<path class="st3" d="M941.5,617.5c-13.7,0-25.3-9.8-27.6-23.4c-0.3-1.6-0.9-2.4-2.5-3.1c-7.8-3.3-12.7-10.9-12.3-18.8
				c0.5-8.7,5.7-15.8,13.6-18.4c8.1-2.6,16.6-0.1,21.9,6.6c1,1.2,1.9,1.2,3.2,1.1c17.6-2.1,32.1,11.1,31.9,28.7
				C969.6,605.3,956.9,617.6,941.5,617.5z"/>
		</g>
		<g>
			<path class="st3" d="M999.3,892.4c-1.9,0-3.5-1.6-3.5-3.5V744.5c0-9.4-7.6-17-17-17s-17,7.6-17,17c0,1.9-1.6,3.5-3.5,3.5
				s-3.5-1.6-3.5-3.5c0-13.3,10.8-24,24-24s24,10.8,24,24v144.4C1002.9,890.8,1001.3,892.4,999.3,892.4z"/>
		</g>
	</g>
	<polygon class="st2" points="1101.8,436.8 1024.8,184.3 700,184.3 700,436.7 1024.8,436.7 1024.8,436.8 	"/>
	<polygon class="st0" points="578.6,725.7 543.8,725.7 367.9,725.7 367.9,800 543.8,800 578.6,800 630.3,800 630.3,725.7 	"/>
	<polygon class="st0" points="578.6,594.5 543.8,594.5 367.9,594.5 367.9,668.8 543.8,668.8 578.6,668.8 630.3,668.8 630.3,594.5 	
		"/>
	<polygon class="st0" points="578.6,463.4 543.8,463.4 367.9,463.4 367.9,537.6 543.8,537.6 578.6,537.6 630.3,537.6 630.3,463.4 	
		"/>
	<polygon class="st1" points="700,184.3 375.2,184.3 298.2,436.8 375.2,436.8 375.2,436.7 700,436.7 	"/>
</g>
</svg>
