<?xml version="1.0" encoding="utf-8"?>
<!-- Generator: Adobe Illustrator 23.0.2, SVG Export Plug-In . SVG Version: 6.00 Build 0)  -->
<svg version="1.1" id="Ebene_1" xmlns="http://www.w3.org/2000/svg" xmlns:xlink="http://www.w3.org/1999/xlink" x="0px" y="0px"
	 viewBox="0 0 1400 1100" style="enable-background:new 0 0 1400 1100;" xml:space="preserve">
<style type="text/css">
	.st0{fill:#FFFFFF;}
	.st1{fill:#E3E3E2;}
	.st2{fill:#033153;}
	.st3{fill:#D1D3D4;}
	.st4{fill:#032133;}
</style>
<rect y="0" class="st0" width="1400" height="1100"/>
<title>clock</title>
<g>
	<rect x="700" y="788.3" class="st1" width="433" height="23.3"/>
	<rect x="267" y="788.3" class="st2" width="433" height="23.3"/>
	<rect x="700" y="743.4" class="st1" width="342.8" height="44.9"/>
	<rect x="357.2" y="743.4" class="st2" width="342.8" height="44.9"/>
	<rect x="357.2" y="404.1" class="st2" width="342.8" height="44.9"/>
	<rect x="700" y="404.1" class="st1" width="342.8" height="44.9"/>
	<polygon class="st2" points="476.9,475.4 476.9,449 459,449 406.9,449 389,449 389,475.4 406.9,475.4 406.9,717 389,717 389,743.4 
		406.9,743.4 459,743.4 476.9,743.4 476.9,717 459,717 459,475.4 	"/>
	<polygon class="st2" points="644.6,475.4 644.6,449 626.6,449 574.6,449 556.7,449 556.7,475.4 574.6,475.4 574.6,717 556.7,717 
		556.7,743.4 574.6,743.4 626.6,743.4 644.6,743.4 644.6,717 626.6,717 626.6,475.4 	"/>
	<polygon class="st1" points="843.3,475.4 843.3,449 825.4,449 773.4,449 755.4,449 755.4,475.4 773.4,475.4 773.4,717 755.4,717 
		755.4,743.4 773.4,743.4 825.4,743.4 843.3,743.4 843.3,717 825.4,717 825.4,475.4 	"/>
	<polygon class="st1" points="1011,475.4 1011,449 993.1,449 941,449 923.1,449 923.1,475.4 941,475.4 941,717 923.1,717 
		923.1,743.4 941,743.4 993.1,743.4 1011,743.4 1011,717 993.1,717 993.1,475.4 	"/>
	<polygon class="st3" points="1011,475.4 1011,449 993.1,449 967,449 967,743.4 993.1,743.4 1011,743.4 1011,717 993.1,717 
		993.1,475.4 	"/>
	<polygon class="st3" points="843.3,475.4 843.3,449 825.4,449 799.4,449 799.4,743.4 825.4,743.4 843.3,743.4 843.3,717 825.4,717 
		825.4,475.4 	"/>
	<polygon class="st4" points="644.6,475.4 644.6,449 626.6,449 600.6,449 600.6,743.4 626.6,743.4 644.6,743.4 644.6,717 626.6,717 
		626.6,475.4 	"/>
	<polygon class="st4" points="476.9,475.4 476.9,449 459,449 433,449 433,743.4 459,743.4 476.9,743.4 476.9,717 459,717 459,475.4 
			"/>
	<polygon class="st1" points="700,288.4 700,404.1 1042.8,404.1 	"/>
	<polygon class="st2" points="700,288.4 357.2,404.1 700,404.1 	"/>
</g>
</svg>
