<?xml version="1.0" encoding="utf-8"?>
<!-- Generator: Adobe Illustrator 23.0.2, SVG Export Plug-In . SVG Version: 6.00 Build 0)  -->
<svg version="1.1" id="Ebene_1" xmlns="http://www.w3.org/2000/svg" xmlns:xlink="http://www.w3.org/1999/xlink" x="0px" y="0px"
	 viewBox="0 0 1400 1100" style="enable-background:new 0 0 1400 1100;" xml:space="preserve">
<style type="text/css">
	.st0{fill:#FFFFFF;}
	.st1{fill:#E3E3E2;}
	.st2{fill:#033153;}
	.st3{fill:#F2931B;}
</style>
<rect y="0" class="st0" width="1400" height="1100"/>
<title>clock</title>
<g>
	<polygon class="st1" points="1077.3,911.7 1077.3,384.9 1064,384.9 1064,165 812.5,384.9 812.5,165 560.9,384.9 700,384.9 
		700,911.7 700,935 1133,935 1133,911.7 	"/>
	<polygon class="st2" points="336,384.9 309.4,384.9 309.4,911.7 267,911.7 267,935 700,935 700,911.7 700,384.9 	"/>
	<polygon class="st3" points="560.9,165 309.4,384.9 560.9,384.9 	"/>
	<polygon class="st3" points="700,384.9 700,263.3 560.9,384.9 	"/>
	<polygon class="st0" points="460.4,459.8 432,459.8 352.1,459.8 352.1,510.2 432,510.2 460.4,510.2 544.8,510.2 544.8,459.8 	"/>
	<polygon class="st0" points="460.4,558.1 432,558.1 352.1,558.1 352.1,608.6 432,608.6 460.4,608.6 544.8,608.6 544.8,558.1 	"/>
	<polygon class="st0" points="460.4,656.4 432,656.4 352.1,656.4 352.1,706.9 432,706.9 460.4,706.9 544.8,706.9 544.8,656.4 	"/>
	<polygon class="st0" points="460.4,754.8 432,754.8 352.1,754.8 352.1,805.3 432,805.3 460.4,805.3 544.8,805.3 544.8,754.8 	"/>
	<polygon class="st0" points="711.9,459.8 683.5,459.8 603.7,459.8 603.7,510.2 683.5,510.2 711.9,510.2 796.3,510.2 796.3,459.8 	
		"/>
	<polygon class="st0" points="711.9,558.1 683.5,558.1 603.7,558.1 603.7,608.6 683.5,608.6 711.9,608.6 796.3,608.6 796.3,558.1 	
		"/>
	<polygon class="st0" points="711.9,656.4 683.5,656.4 603.7,656.4 603.7,706.9 683.5,706.9 711.9,706.9 796.3,706.9 796.3,656.4 	
		"/>
	<polygon class="st0" points="711.9,754.8 683.5,754.8 603.7,754.8 603.7,805.3 683.5,805.3 711.9,805.3 796.3,805.3 796.3,754.8 	
		"/>
	<polygon class="st0" points="963.4,459.8 935.1,459.8 855.2,459.8 855.2,510.2 935.1,510.2 963.4,510.2 1047.9,510.2 1047.9,459.8 
			"/>
	<polygon class="st0" points="963.4,558.1 935.1,558.1 855.2,558.1 855.2,608.6 935.1,608.6 963.4,608.6 1047.9,608.6 1047.9,558.1 
			"/>
	<polygon class="st0" points="963.4,656.4 935.1,656.4 855.2,656.4 855.2,706.9 935.1,706.9 963.4,706.9 1047.9,706.9 1047.9,656.4 
			"/>
	<polygon class="st0" points="963.4,754.8 935.1,754.8 855.2,754.8 855.2,805.3 935.1,805.3 963.4,805.3 1047.9,805.3 1047.9,754.8 
			"/>
</g>
</svg>
