<?xml version="1.0" encoding="utf-8"?>
<!-- Generator: Adobe Illustrator 23.0.2, SVG Export Plug-In . SVG Version: 6.00 Build 0)  -->
<svg version="1.1" id="Ebene_1" xmlns="http://www.w3.org/2000/svg" xmlns:xlink="http://www.w3.org/1999/xlink" x="0px" y="0px"
	 viewBox="0 0 1400 1100" style="enable-background:new 0 0 1400 1100;" xml:space="preserve">
<style type="text/css">
	.st0{fill:#FFFFFF;}
	.st1{fill:#E3E3E2;}
	.st2{fill:#033153;}
	.st3{fill:#F2931B;}
</style>
<rect y="0" class="st0" width="1400" height="1100"/>
<title>clock</title>
<g>
	<polygon class="st1" points="1051.8,911.7 1051.8,217.4 700,217.4 700,911.7 700,911.7 700,935 1133,935 1133,911.7 	"/>
	<polygon class="st2" points="348.2,217.4 348.2,911.7 267,911.7 267,935 700,935 700,911.7 700,911.7 700,217.4 700,217.4 	"/>
	<path class="st3" d="M700,755.6c-45,0-81.5,15.1-81.5,33.7v122.4h18.6V808.9h125.7v102.7h18.6V789.3
		C781.5,770.7,745,755.6,700,755.6z"/>
	<polygon class="st0" points="603.6,275.2 568.8,275.2 392.9,275.2 392.9,349.4 568.8,349.4 603.6,349.4 655.3,349.4 655.3,275.2 	
		"/>
	<polygon class="st0" points="603.6,399.2 568.8,399.2 392.9,399.2 392.9,473.4 568.8,473.4 603.6,473.4 655.3,473.4 655.3,399.2 	
		"/>
	<polygon class="st0" points="603.6,523.2 568.8,523.2 392.9,523.2 392.9,597.4 568.8,597.4 603.6,597.4 655.3,597.4 655.3,523.2 	
		"/>
	<polygon class="st0" points="603.6,647.2 568.8,647.2 392.9,647.2 392.9,721.4 568.8,721.4 603.6,721.4 655.3,721.4 655.3,647.2 	
		"/>
	<polygon class="st0" points="955.4,275.2 920.6,275.2 744.7,275.2 744.7,349.4 920.6,349.4 955.4,349.4 1007.1,349.4 1007.1,275.2 
			"/>
	<polygon class="st0" points="955.4,399.2 920.6,399.2 744.7,399.2 744.7,473.4 920.6,473.4 955.4,473.4 1007.1,473.4 1007.1,399.2 
			"/>
	<polygon class="st0" points="955.4,523.2 920.6,523.2 744.7,523.2 744.7,597.4 920.6,597.4 955.4,597.4 1007.1,597.4 1007.1,523.2 
			"/>
	<polygon class="st0" points="955.4,647.2 920.6,647.2 744.7,647.2 744.7,721.4 920.6,721.4 955.4,721.4 1007.1,721.4 1007.1,647.2 
			"/>
	<polygon class="st3" points="858,195.5 858,165 542,165 542,195.5 444.2,195.5 444.2,217.4 955.8,217.4 955.8,195.5 	"/>
</g>
</svg>
