<?xml version="1.0" encoding="utf-8"?>
<!-- Generator: Adobe Illustrator 23.0.2, SVG Export Plug-In . SVG Version: 6.00 Build 0)  -->
<svg version="1.1" id="Ebene_1" xmlns="http://www.w3.org/2000/svg" xmlns:xlink="http://www.w3.org/1999/xlink" x="0px" y="0px"
	 viewBox="0 0 1400 1100" style="enable-background:new 0 0 1400 1100;" xml:space="preserve">
<style type="text/css">
	.st0{fill:#FFFFFF;}
	.st1{fill:#E3E3E2;}
	.st2{fill:#033153;}
	.st3{fill:#032133;}
	.st4{fill:#F2931B;}
</style>
<rect y="0" class="st0" width="1400" height="1100"/>
<title>clock</title>
<g>
	<polygon class="st1" points="1071.5,857.3 1071.5,499.7 1071.5,499.7 1000.3,284.9 700,284.9 700,499.6 700,499.7 700,857.3 
		700,857.3 700,880.7 1133,880.7 1133,857.3 	"/>
	<polygon class="st2" points="700,499.6 700,284.9 700,284.9 399.7,284.9 328.5,499.7 328.5,499.7 328.5,857.3 267,857.3 267,880.7 
		700,880.7 700,863.3 700,863.3 700,499.7 	"/>
	<rect x="328.5" y="499.6" class="st3" width="185.7" height="357.7"/>
	<rect x="354" y="733.9" class="st4" width="74.9" height="123.5"/>
	<rect x="784.4" y="219.3" class="st1" width="40" height="65.5"/>
	<rect x="756.6" y="542.2" class="st0" width="255.2" height="60"/>
	<rect x="548.2" y="542.2" class="st0" width="131.8" height="60"/>
	<rect x="548.2" y="644.8" class="st0" width="131.8" height="60"/>
	<rect x="548.2" y="747.3" class="st0" width="131.8" height="60"/>
	<rect x="756.6" y="644.8" class="st0" width="255.2" height="60"/>
	<rect x="756.6" y="747.3" class="st0" width="255.2" height="60"/>
</g>
</svg>
