<?xml version="1.0" encoding="utf-8"?>
<!-- Generator: Adobe Illustrator 23.0.2, SVG Export Plug-In . SVG Version: 6.00 Build 0)  -->
<svg version="1.1" id="Ebene_1" xmlns="http://www.w3.org/2000/svg" xmlns:xlink="http://www.w3.org/1999/xlink" x="0px" y="0px"
	 viewBox="0 0 1400 1100" style="enable-background:new 0 0 1400 1100;" xml:space="preserve">
<style type="text/css">
	.st0{fill:#FFFFFF;}
	.st1{fill:#E3E3E2;}
	.st2{fill:#033153;}
	.st3{fill:#F2931B;}
</style>
<rect y="0" class="st0" width="1400" height="1100"/>
<title>clock</title>
<g>
	<polygon class="st1" points="1091.7,898.2 1091.7,563.1 1091.7,283 700,283 700,563.1 700,898.2 700,902.7 700,921.5 1133,921.5 
		1133,898.2 	"/>
	<polygon class="st2" points="570.1,283 570.1,178.5 506.3,178.5 506.3,283 308.3,283 308.3,898.2 267,898.2 267,921.5 700,921.5 
		700,903.7 700,898.2 700,283 	"/>
	<rect x="829.5" y="576.2" class="st0" width="201.1" height="95.1"/>
	<rect x="829.5" y="706.3" class="st0" width="201.1" height="95.1"/>
	<rect x="369.5" y="576.2" class="st0" width="201.1" height="95.1"/>
	<rect x="369.5" y="706.3" class="st0" width="201.1" height="95.1"/>
	<rect x="662.6" y="774.7" class="st3" width="74.9" height="123.5"/>
	<rect x="663.8" y="611.6" class="st0" width="72.5" height="72.5"/>
</g>
</svg>
