<?xml version="1.0" encoding="utf-8"?>
<!-- Generator: Adobe Illustrator 23.0.2, SVG Export Plug-In . SVG Version: 6.00 Build 0)  -->
<svg version="1.1" id="Ebene_1" xmlns="http://www.w3.org/2000/svg" xmlns:xlink="http://www.w3.org/1999/xlink" x="0px" y="0px"
	 viewBox="0 0 1400 1100" style="enable-background:new 0 0 1400 1100;" xml:space="preserve">
<style type="text/css">
	.st0{fill:#FFFFFF;}
	.st1{fill:#033153;}
	.st2{fill:#E3E3E2;}
	.st3{fill:#F2931B;}
</style>
<rect y="0" class="st0" width="1400" height="1100"/>
<title>clock</title>
<g>
	<rect x="572.4" y="378.2" class="st1" width="261.3" height="409"/>
	<polygon class="st2" points="1133,764 1118.9,764 1118.9,553.9 1089.8,378.2 833.7,378.2 833.7,787.3 1133,787.3 	"/>
	<polygon class="st2" points="310.2,378.2 281.1,553.9 281.1,764 281.1,764 267,764 267,787.3 572.4,787.3 572.4,378.2 	"/>
	<rect x="335.1" y="562.1" class="st0" width="126.1" height="59.6"/>
	<rect x="335.1" y="643.6" class="st0" width="126.1" height="59.6"/>
	<rect x="507.6" y="686.6" class="st3" width="46.9" height="77.4"/>
	<rect x="854.8" y="562.1" class="st0" width="126.1" height="59.6"/>
	<rect x="854.8" y="643.6" class="st0" width="126.1" height="59.6"/>
	<rect x="1027.3" y="686.6" class="st3" width="46.9" height="77.4"/>
	<rect x="590.3" y="562.1" class="st0" width="126.1" height="59.6"/>
	<rect x="590.3" y="643.6" class="st0" width="126.1" height="59.6"/>
	<rect x="762.8" y="686.6" class="st3" width="46.9" height="77.4"/>
	<rect x="394.7" y="312.7" class="st2" width="40" height="65.5"/>
	<rect x="649.9" y="312.7" class="st1" width="40" height="65.5"/>
	<rect x="914.4" y="312.7" class="st2" width="40" height="65.5"/>
</g>
</svg>
