<?xml version="1.0" encoding="utf-8"?>
<!-- Generator: Adobe Illustrator 23.0.2, SVG Export Plug-In . SVG Version: 6.00 Build 0)  -->
<svg version="1.1" id="Ebene_1" xmlns="http://www.w3.org/2000/svg" xmlns:xlink="http://www.w3.org/1999/xlink" x="0px" y="0px"
	 viewBox="0 0 1400 1100" style="enable-background:new 0 0 1400 1100;" xml:space="preserve">
<style type="text/css">
	.st0{fill:#FFFFFF;}
	.st1{fill:#033153;}
	.st2{fill:#E3E3E2;}
	.st3{fill:#6D6E70;}
	.st4{fill:#F2931B;}
</style>
<rect y="0" class="st0" width="1400" height="1100"/>
<title>clock</title>
<g>
	<g>
		<path class="st1" d="M632.2,250.7c7.8,10,15.6,20.1,23.3,30.2c7.7,10.1,15.3,20.3,23,30.4c7.7,10.1,15.2,20.3,22.8,30.5
			c7.6,10.2,15.2,20.4,22.6,30.6l1.6,2.2l-1.2,2.6L707,414.1l-17.4,36.8l-17.6,36.7l-17.7,36.6l-0.4-6.3l22.5,34.7l22.4,34.8
			l22.2,34.9l22.1,34.9l2.2,3.4l-2.4,3.1c-6.1,8-12.1,16-18.2,24l-18.3,23.9c-6.1,8-12.2,16-18.3,23.9l-18.5,23.8l0.5-3.3
			c2.8,7.7,5.4,15.5,8.1,23.3l8,23.3l7.9,23.4c2.6,7.8,5.2,15.6,7.7,23.4c-3.3-7.5-6.5-15.1-9.8-22.6l-9.6-22.7l-9.5-22.8
			c-3.2-7.6-6.3-15.2-9.4-22.8l-0.7-1.7l1.1-1.6l17.3-24.7c5.7-8.2,11.6-16.4,17.4-24.6l17.5-24.5c5.8-8.2,11.7-16.3,17.5-24.5
			l-0.2,6.5l-22.8-34.5l-22.6-34.6l-22.5-34.7L643,524.8l-2-3.1l1.6-3.2l18.1-36.4l18.2-36.4l18.4-36.3l18.5-36.2l0.4,4.7
			c-7.2-10.5-14.2-21.1-21.3-31.6c-7.1-10.6-14.2-21.1-21.2-31.7c-7-10.6-14-21.2-21-31.8C645.9,272.1,639,261.5,632.2,250.7z"/>
	</g>
	<g>
		<g>
			<path class="st2" d="M827.2,660.1c-11,12.9-20.7,31.7,1.1,63.6c23.1-9.3,40.7-20.8,53.7-35.1l21.4-23.5c0.5-0.5,1.2-0.8,1.9-0.8
				c0.7,0,1.4,0.4,1.8,1l14.4,20.4v-42.4c-25-22.1-46.8-47.4-55.8-64.6c-2.5,4.5-6.6,5.7-9.2,5.9c-13.3,1.3-34.5-15.8-43.7-42.4
				c-7.3-20.9-2.8-33.3,2.3-40c4.8-6.3,11.1-9,14.1-8.8c3.5,0.2,5.5,4.9,9.5,14.3c2,4.8,4.3,10.2,7,15.2c-3.8-17.2-5.1-41.2,2-52.5
				c2.8-4.4,6.7-6.8,11.4-6.8c10.7,0,17,4.6,23,9.1c6.3,4.7,12.8,9.5,25.4,9.5c14.2,0,30.4-35.6,43.4-64.3
				c8.9-19.6,16.6-36.5,23.4-43.1c14.4-17.6,29.3-26.1,44.2-25.5c18.6,0.9,30.8,16.3,35.2,22.8c12.2,18.3,26.2,33.7,45.2,49.7
				c5.5,4.6,10,8.7,13.6,12.8c9.4,10.4,13.5,20.7,16.1,40.1c0.6,4.4,0.8,9.3,0.8,14.3c0,5-0.2,10.1-0.6,15.2
				c-0.7,10.1-2,19.8-3.2,26.9c8.3-14.4,11.8-27.2,13.6-34.1c0.1-0.5,0.2-0.9,0.3-1.3c1.1-4.3,1.4-5.6,3-6.2
				c0.2-0.1,0.4-0.1,0.6-0.1c0.1,0,0.2,0,0.2,0c0.1,0,0.3,0,0.4,0c0.1,0,0.1,0,0.2,0.1c0.1,0,0.3,0.1,0.4,0.1c0.1,0,0.1,0.1,0.2,0.1
				c0.1,0,0.2,0.1,0.3,0.1c0.7,0.5,1.3,0.9,2,1.4c18.3,13.6,21.3,34.4,9,63.4c-0.8,2-1.8,4-2.8,6.1c-6.6,13.8-18.6,23.2-30.6,23.9
				c-5.5,0.3-10.3-1.3-13.6-4.6c-14,22.2-36.4,47.6-59.2,67.2v39.9l15.5-22c0.4-0.6,1.1-1,1.8-1c0.1,0,0.1,0,0.2,0
				c0.7,0,1.3,0.3,1.8,0.8l21.4,23.5c13.3,14.6,31.5,26.3,55.4,35.7c14.8-19.5,14.8-38.7,0.2-60.2c-16.7-24.6-15.6-36.3,5.3-59.5
				c13-14.4,25.6-47.8,23.3-76.7c-1.2-15.8-6.7-27.8-16.3-35.6c-0.5-0.4-0.8-1-0.9-1.7c-2.2-27.6-23.2-45.5-23.4-45.6
				c-0.5-0.4-0.8-1.1-0.9-1.8c0-0.7-2.3-74.7-26.5-93.5c-0.5-0.4-0.8-0.9-0.9-1.4c-12.2-61.8-76.1-63-76.8-63c-0.5,0-1-0.2-1.4-0.4
				c-0.3-0.2-28.3-19.4-58.2-8.8c-29.7,10.5-35.2,28.2-35.3,28.3c-0.2,0.6-0.6,1.2-1.2,1.5c-0.6,0.3-1.3,0.4-1.9,0.2
				c-1.6-0.5-39.7-12.3-63.5,20.4c-25.4,35.1-36.1,79-37.6,106c-1.6,29.5-6.9,40.9-21.1,71.3c-14.6,31.1-8.3,71.8,15.2,99
				C850.4,632.9,840.2,644.9,827.2,660.1z"/>
			<path class="st2" d="M986.2,773.4c13.7,0,58.7-58.7,58.7-66.1v-12.5v-48.6c0-0.7,0.3-1.4,0.8-1.8c23.8-20.2,47.1-46.9,60.9-69.7
				c0.4-0.7,1.2-1.2,2-1.2c0,0,0,0,0,0c0.4,0,0.7,0.1,1,0.2c0.4,0.2,0.8,0.5,1,0.9c2.3,3.7,6.5,5.5,11.6,5.2
				c8.4-0.5,19.9-7.3,26.6-21.2c14-29.4,12.7-50-4.2-63.1c-0.1,0.4-0.2,0.9-0.3,1.3c-2,8.1-6.8,27.1-21,47c-0.7,0.9-1.9,1.3-2.9,0.8
				c-1-0.5-1.6-1.6-1.4-2.7c0.1-0.4,8.3-41.4,4.9-66.5c-3.4-25.6-9.3-34-28.1-49.8c-19.4-16.4-33.6-32-46.1-50.7
				c-4-5.9-15-19.9-31.4-20.7c-13.2-0.6-26.9,7.4-40.4,23.9c-6.4,6.1-14.3,23.5-22.6,41.8c-15,33-30.4,67.1-47.8,67.1
				c-3.5,0-6.7-0.3-9.5-0.9c-8.4-1.8-13.8-5.9-18.8-9.5c-1.1-0.8-2.2-1.6-3.3-2.4c-4.6-3.3-9.4-5.7-16.8-5.7c-0.8,0-1.5,0.1-2.2,0.3
				c-2,0.6-3.8,1.9-5.2,4.2c-6.5,10.4-4.7,35.3-0.7,51.6c1.1,4.6,2.4,8.5,3.8,11.2c0.5,1,0.2,2.3-0.7,3c-1,0.7-2.2,0.6-3.1-0.2
				c-7.4-7.2-12.6-19.2-16.7-28.9c-2-4.8-4.6-10.7-5.8-11.5c-0.5,0.1-5.5,1.7-9.5,7c-4.3,5.8-8.1,16.6-1.6,35.6
				c8.8,25.4,29,40.1,38.7,39.2c3.8-0.4,6.1-3.1,6.9-8.1c0.2-1.1,1-1.9,2.1-2c0.1,0,0.2,0,0.3,0c0.1,0,0.2,0,0.3,0
				c0.1,0,0.3,0,0.4,0.1c0.1,0,0.2,0.1,0.3,0.1c0.1,0.1,0.2,0.1,0.4,0.2c0.1,0.1,0.2,0.2,0.3,0.3c0.1,0.1,0.2,0.1,0.3,0.2
				c0.2,0.2,0.3,0.4,0.4,0.7c6.2,16.1,30.6,45.1,57.9,69.1c0.5,0.5,0.8,1.1,0.8,1.8v51v12.1C926.4,717.3,972.3,773.4,986.2,773.4z"
				/>
			<path class="st3" d="M1109.7,573.9c0.4,0.2,0.8,0.5,1,0.9C1110.4,574.3,1110.1,574.1,1109.7,573.9z"/>
			<path class="st3" d="M1128.7,474.9c-2.6-19.4-6.7-29.7-16.1-40.1C1121.9,445.2,1126.1,455.5,1128.7,474.9
				c0.6,4.4,0.8,9.3,0.8,14.3C1129.5,484.2,1129.2,479.3,1128.7,474.9z"/>
			<path class="st3" d="M1142.6,489.7c0.2-0.1,0.4-0.1,0.6-0.1C1143,489.6,1142.8,489.6,1142.6,489.7z"/>
			<path class="st3" d="M1144.4,489.7c-0.1,0-0.3-0.1-0.4-0.1C1144.2,489.7,1144.3,489.7,1144.4,489.7z"/>
			<path class="st3" d="M867.3,570.7c0.2,0.2,0.3,0.4,0.4,0.7C867.6,571.1,867.5,570.9,867.3,570.7z"/>
			<path class="st3" d="M1046.5,697.2c-1-0.3-1.7-1.2-1.7-2.3v12.5c0,7.4-45,66.1-58.7,66.1c-13.9,0-59.8-56.1-59.8-68.1v-12.1
				c0,1-0.7,2-1.7,2.3c-1,0.3-2.1,0-2.7-0.9l1-1.4h-0.4l-1,0.7v11.3c0,15.2,48,72.9,64.6,72.9c16.4,0,63.5-60.7,63.5-70.9v-11.8
				l-0.5,0.6C1048.6,697.1,1047.5,697.5,1046.5,697.2z"/>
			<path class="st3" d="M859.2,463.7c10.7,0,16.9,4.6,23,9.1c6.3,4.7,12.8,9.5,25.4,9.5c-12.6,0-19.1-4.8-25.4-9.5
				C876.2,468.3,870,463.7,859.2,463.7z"/>
			<path class="st3" d="M1125.7,531.3C1125.7,531.3,1125.7,531.3,1125.7,531.3c1.1-7.2,2.4-16.8,3.2-26.9
				C1128.2,514.4,1126.9,524.1,1125.7,531.3z"/>
			<path class="st3" d="M1143.8,489.6c-0.1,0-0.3,0-0.4,0C1143.6,489.6,1143.7,489.6,1143.8,489.6z"/>
			<path class="st3" d="M865.2,569.8c0.2,0,0.4,0,0.5,0c-0.1,0-0.2,0-0.3,0C865.4,569.8,865.3,569.8,865.2,569.8z"/>
			<path class="st3" d="M867.1,570.5c-0.1-0.1-0.2-0.2-0.3-0.3C866.9,570.3,867,570.4,867.1,570.5z"/>
			<path class="st3" d="M866.4,570c-0.1,0-0.2-0.1-0.3-0.1C866.2,569.9,866.3,570,866.4,570z"/>
			<path class="st3" d="M898.1,486.2c-8.4-1.8-13.8-5.9-18.8-9.5c-1.1-0.8-2.2-1.6-3.3-2.4c1.1,0.8,2.2,1.6,3.3,2.4
				C884.3,480.3,889.7,484.4,898.1,486.2z"/>
			<path class="st3" d="M1144.6,489.8c0.1,0.1,0.3,0.1,0.4,0.2c0.6,0.4,1.3,0.9,1.9,1.3c-0.6-0.5-1.3-0.9-2-1.4
				C1144.8,489.9,1144.7,489.9,1144.6,489.8z"/>
			<path class="st3" d="M823.6,657c-11.3,13.3-23.5,35.1,1.9,71c0.6,0.9,1.8,1.3,2.8,0.8c24.7-9.7,43.4-21.8,57.3-37l19.4-21.3
				l16.6,23.5l0,0l1-0.7h0.4l-1,1.4c0.6,0.9,1.7,1.2,2.7,0.9c1-0.3,1.7-1.2,1.7-2.3v-51c0-0.7-0.3-1.3-0.8-1.8
				c-27.4-24-51.7-53.1-57.9-69.1c-0.1-0.2-0.2-0.5-0.4-0.7c-0.1-0.1-0.2-0.2-0.3-0.2c-0.1-0.1-0.2-0.2-0.3-0.3
				c-0.1-0.1-0.2-0.1-0.4-0.2c-0.1,0-0.2-0.1-0.3-0.1c-0.1,0-0.2,0-0.4-0.1c-0.2,0-0.4,0-0.5,0c-1.1,0.1-2,1-2.1,2
				c-0.7,5-3,7.7-6.9,8.1c-9.7,0.9-29.9-13.8-38.7-39.2c-6.6-18.9-2.8-29.8,1.6-35.6c4-5.4,9-7,9.5-7c1.2,0.8,3.8,6.7,5.8,11.5
				c4.1,9.7,9.3,21.7,16.7,28.9c0.8,0.8,2.1,0.9,3.1,0.2c0.9-0.7,1.3-2,0.7-3c-1.3-2.7-2.6-6.6-3.8-11.2c-4-16.3-5.8-41.2,0.7-51.6
				c1.4-2.3,3.1-3.7,5.2-4.2c0.7-0.2,1.4-0.3,2.2-0.3c7.4,0,12.1,2.5,16.8,5.7c1.1,0.8,2.2,1.6,3.3,2.4c4.9,3.7,10.4,7.7,18.8,9.5
				c2.8,0.6,5.9,0.9,9.5,0.9c17.3,0,32.8-34.1,47.8-67.1c8.3-18.3,16.2-35.7,22.6-41.8c13.6-16.5,27.3-24.6,40.4-23.9
				c16.4,0.8,27.4,14.7,31.4,20.7c12.5,18.7,26.7,34.4,46.1,50.7c18.7,15.8,24.7,24.2,28.1,49.8c3.3,25.2-4.8,66.1-4.9,66.5
				c-0.2,1.1,0.4,2.2,1.4,2.7c1,0.5,2.2,0.1,2.9-0.8c14.2-19.9,19-38.8,21-47c0.1-0.4,0.2-0.9,0.3-1.3c16.9,13.1,18.2,33.7,4.2,63.1
				c-6.7,14-18.1,20.7-26.6,21.2c-5.1,0.3-9.3-1.6-11.6-5.2c-0.2-0.4-0.6-0.7-1-0.9c-0.3-0.1-0.7-0.2-1-0.2c0,0,0,0,0,0
				c-0.8,0-1.6,0.4-2,1.2c-13.7,22.7-37.1,49.4-60.9,69.7c-0.5,0.5-0.8,1.1-0.8,1.8v48.6c0,1,0.7,2,1.7,2.3c1,0.3,2.1,0,2.7-0.9
				l0.5-0.6l17.7-25.1l19.4,21.3c14.1,15.5,33.4,27.9,58.9,37.6c0.3,0.1,0.6,0.2,0.9,0.2c0.7,0,1.4-0.3,1.9-0.9
				c17.1-21.6,17.6-43.6,1.5-67.3c-15.5-22.9-14.7-31.9,4.9-53.6c13.6-15.2,26.9-50.2,24.5-80.3c-1.3-16.5-7.3-29.7-17.3-38.3
				c-2.5-26.1-20.1-43.5-24.2-47.2c-0.4-9.6-3.6-75.6-27.6-95.6c-12.6-61-73-65.6-80.5-66c-4.5-3-31.8-19.7-61.9-9
				c-26.2,9.3-35,23.8-37.4,29.3c-9.1-2.2-44.2-8.2-66.7,22.8c-26.1,35.9-37,80.9-38.5,108.5c-1.5,28.6-6.7,39.7-20.7,69.5
				c-15.4,32.8-8.8,75.6,16,104.2C844.1,632.9,836.4,642,823.6,657z M808.9,503.6c14.2-30.4,19.6-41.7,21.1-71.3
				c1.4-27,12.1-70.9,37.6-106c23.8-32.7,61.9-20.9,63.5-20.4c0.6,0.2,1.3,0.1,1.9-0.2c0.6-0.3,1-0.8,1.2-1.5
				c0.1-0.2,5.5-17.8,35.3-28.3c29.9-10.6,57.9,8.6,58.2,8.8c0.4,0.3,0.9,0.4,1.4,0.4c0.6,0,64.6,1.2,76.8,63
				c0.1,0.6,0.4,1.1,0.9,1.4c24.2,18.9,26.4,92.8,26.5,93.5c0,0.7,0.3,1.3,0.9,1.8c0.2,0.2,21.2,18.1,23.4,45.6
				c0.1,0.7,0.4,1.3,0.9,1.7c9.6,7.8,15.1,19.8,16.3,35.6c2.3,28.8-10.3,62.3-23.3,76.7c-20.9,23.2-21.9,34.9-5.3,59.5
				c14.6,21.6,14.6,40.7-0.2,60.2c-24-9.4-42.1-21.1-55.4-35.7l-21.4-23.5c-0.5-0.5-1.1-0.8-1.8-0.8c0,0-0.1,0-0.2,0
				c-0.7,0-1.4,0.4-1.8,1l-15.5,22v-39.9c22.9-19.6,45.2-45,59.2-67.2c3.4,3.3,8.1,4.9,13.6,4.6c12-0.7,24-10.1,30.6-23.9
				c1-2.1,1.9-4.1,2.8-6.1c12.3-29,9.3-49.8-9-63.4c-0.6-0.5-1.2-0.9-1.9-1.3c-0.1-0.1-0.3-0.2-0.4-0.2c-0.1,0-0.1-0.1-0.2-0.1
				c-0.1,0-0.3-0.1-0.4-0.1c-0.1,0-0.1,0-0.2-0.1c-0.1,0-0.3,0-0.4,0c-0.1,0-0.2,0-0.2,0c-0.2,0-0.4,0.1-0.6,0.1
				c-1.6,0.6-1.9,1.9-3,6.2c-0.1,0.4-0.2,0.8-0.3,1.3c-1.7,6.9-5.3,19.8-13.6,34.1c0,0,0,0,0,0c1.1-7.2,2.4-16.8,3.2-26.9
				c0.4-5,0.6-10.2,0.6-15.2c0-5-0.3-9.8-0.8-14.2c-2.6-19.4-6.7-29.7-16.1-40.1c-3.7-4.1-8.1-8.1-13.6-12.8
				c-19-16-33-31.4-45.2-49.7c-4.4-6.6-16.5-21.9-35.2-22.8c-14.9-0.7-29.8,7.9-44.2,25.5c-6.9,6.6-14.5,23.5-23.4,43.1
				c-13,28.6-29.2,64.3-43.4,64.3c-12.6,0-19.1-4.8-25.4-9.5c-6-4.5-12.2-9.1-23-9.1c-4.7,0-8.7,2.3-11.4,6.8
				c-7.1,11.3-5.8,35.3-2,52.5c-2.7-5-5-10.4-7-15.2c-4-9.4-6-14.1-9.5-14.3c-3-0.2-9.3,2.5-14.1,8.8c-5.1,6.7-9.5,19.1-2.3,40
				c9.2,26.6,30.4,43.7,43.7,42.4c2.6-0.3,6.7-1.4,9.2-5.9c9,17.1,30.8,42.5,55.8,64.6v42.4l-14.4-20.4c-0.4-0.6-1.1-1-1.8-1
				c-0.8,0-1.4,0.2-1.9,0.8l-21.4,23.5c-13,14.3-30.6,25.8-53.7,35.1c-21.8-31.9-12.1-50.7-1.1-63.6c13-15.2,23.2-27.2-3.1-57.5
				C800.6,575.4,794.3,534.7,808.9,503.6z"/>
		</g>
		<path class="st4" d="M1076.8,469.7c-15.6,0-51,2.3-61.9,7.2c-10.9,4.8-10.4,6.3-26.9,6.3s-16-1.5-26.9-6.3
			c-10.9-4.8-46.3-7.2-61.9-7.2c-15.6,0-43.7,2.3-43.7,11.7c0,4.6,0,7.5,0,10.5c0,3,10.4,5.1,10.4,10.4s-1.1,28.1,3.8,38.8
			c4.9,10.7,17,27.5,46.3,26.9c29.3-0.6,48.3-21.5,51.7-31.2s11.8-32.5,20.4-32.5s16.9,22.8,20.4,32.5s22.4,30.6,51.7,31.2
			c29.3,0.6,41.3-16.2,46.3-26.9c4.9-10.7,3.8-33.5,3.8-38.8s10.4-7.4,10.4-10.4c0-3,0-6,0-10.5
			C1120.6,472.1,1092.4,469.7,1076.8,469.7z M966.5,515c-3.6,11.2-18.8,41.7-48.9,41.7s-38.6-18.8-40.1-28.7
			c-1.5-9.9-2.1-38.6,8-44.9c10.1-6.3,49.4-3.5,60.7-0.8C962.7,486.3,970.1,503.8,966.5,515z M1098.5,527.9
			c-1.5,9.9-10.1,28.7-40.1,28.7s-45.3-30.4-48.9-41.7c-3.6-11.2,3.8-28.7,20.3-32.7c11.2-2.7,50.6-5.5,60.7,0.8
			C1100.6,489.3,1100,518,1098.5,527.9z"/>
	</g>
	<g>
		<g>
			<path class="st2" d="M227.6,572.8c2.6,15.8,13.6,24.9,22.3,29.7c0.8,0.4,1.3,1.2,1.5,2.1c3.3,19.8,8,37.3,14.1,52.1
				c6.8,16.5,27.1,37.5,55.6,57.5c0.8,0.6,1.3,1.5,1.3,2.4v43.6c0,7,30.8,33.4,72.4,33.4s72.4-26.4,72.4-33.4v-43.6
				c0-1,0.5-1.9,1.3-2.4c28.5-20.1,48.8-41,55.6-57.5c6.1-14.8,10.9-32.3,14.1-52.1c0.1-0.9,0.7-1.7,1.5-2.1
				c8.7-4.8,19.6-13.9,22.2-29.7c3.1-18.4,0.6-33.2-6.8-42.6c-0.4,14.9-0.8,27.5-1.3,35.7c-1,16.9-4.1,27.5-9,31.6
				c-2.3,1.9-4.2,1.8-4.8,1.7l-3.2-0.4l0.7-3.2c0.1-0.4,7.8-36.2,1.6-68.8c-0.2-1.1-0.4-2.1-0.6-3.1c-3.3-15.1-9.1-25-14.7-34.5
				c-4.5-7.6-8.7-14.9-11.3-24.3c-0.7-2.5-1.3-5.1-1.8-8c-3.3-21-15.9-43.4-36.9-51c-4.8-1.8-10.1-2.7-15.9-2.7
				c-3.9,0-7.8,0.5-11.8,1.5c-12,2.9-24.6,9.5-37.8,16.4c-18.4,9.7-37.5,19.6-58.9,22.3c-31.4,3.9-43.9-6.2-50.6-11.6
				c-1.3-1-3.1-2.5-3.6-2.5c-2.9,1-12.7,16.8-27.9,69.9c-11.6,40.3-10.4,74-9.7,94.1l0.2,6c0,0,0,0.1,0,0.1l0.1,3.7l-3.7-0.8
				c-7.4-1.6-9.9-15.9-15-48.3c-0.7-4.4-1.4-9-2.2-13.7c-0.1-0.5-0.2-1-0.3-1.5c-0.3-1.7-0.6-3.5-0.9-5.2c-0.1-0.9-0.3-1.7-0.4-2.6
				c-0.1-0.5-0.2-0.9-0.2-1.4C227.1,538.9,224.5,554,227.6,572.8z"/>
			<path class="st2" d="M551.9,395.8c0.6-19.6,4.2-34.2,6.8-44.8c2.4-9.5,4.1-16.4,2.3-21.3c-3.3-9-48.8-40.2-120-40.2
				c-7.1,0-14.3,0.3-21.9,1c-88.3,7.8-148,48.6-168,85.7c-20.8,38.5-19.4,101.1-11.1,146.8c1.9,10.6,3.5,20.8,5,30
				c1.9,12.1,4.1,26.2,6.4,34.9c-0.1-3.9-0.2-8.2-0.2-12.8c0-13.9,0.7-31,4.1-50.4c1.5-8.6,3.5-17.7,6.3-27.1
				c9.5-32.8,22.8-72.3,32.6-74c2.3-0.4,4.2,0.5,6.2,2.1c0.7,0.5,1.4,1.1,2.1,1.7c1.4,1.1,3,2.4,4.9,3.6c2.6,1.7,5.7,3.4,9.8,4.8
				c0.3,0.1,0.6,0.2,0.9,0.3c0.6,0.2,1.2,0.4,1.9,0.6c6.9,1.8,16,2.6,28.7,1c12-1.5,23.4-5.5,34.5-10.5c7.6-3.4,15.1-7.3,22.4-11.2
				c9.1-4.8,18-9.4,26.7-12.9c6.3-2.5,12.6-4.4,18.7-5.2c0.4-0.1,0.8-0.1,1.1-0.1c1.9-0.2,3.9-0.4,5.8-0.4c34,0,54.2,30.5,58.6,58.8
				c1.9,12.3,7,21,12.4,30.2c5.6,9.5,11.8,20.1,15.3,36.2c0.2,1.1,0.5,2.2,0.7,3.3c0.7,3.9,1.3,7.7,1.7,11.6c0,0.1,0,0.3,0,0.4
				c0.1,0.9,0.2,1.7,0.2,2.6c0,0.5,0.1,0.9,0.1,1.4c0,0.6,0.1,1.1,0.1,1.7c0,0.8,0.1,1.5,0.1,2.3c0,0.3,0,0.5,0,0.8
				c0.6,14-0.4,27.1-1.6,36.4c1-4,1.8-9.6,2.3-17.3c0-0.5,0.1-1.1,0.1-1.7c0.5-8.5,0.9-21.9,1.4-40.6c0,0,0,0,0,0
				c0.5-21.2,1-46.1,1.4-69.3C551.1,430.5,551.5,409.2,551.9,395.8z"/>
			<path class="st3" d="M257.5,599.4c0,0.9-0.4,1.7-1.1,2.3c-0.7,0.6-1.6,0.8-2.5,0.6l3.7,0.8L257.5,599.4z"/>
			<path class="st3" d="M547.1,546.4c0.6,14.1-0.5,27.2-1.7,36.5c1-4,1.8-9.6,2.3-17.4c-0.5,7.7-1.3,13.2-2.3,17.3
				C546.7,573.5,547.7,560.4,547.1,546.4z"/>
			<path class="st3" d="M383,427.1c7.6-3.4,15.1-7.3,22.4-11.2c9.1-4.8,18-9.4,26.7-12.9c-8.7,3.5-17.6,8.1-26.7,12.9
				C398.1,419.8,390.6,423.7,383,427.1z"/>
			<path class="st3" d="M251,575.2c0-13.9,0.7-31,4.1-50.4C251.7,544.1,251,561.2,251,575.2z"/>
			<path class="st3" d="M294,423.6c2.3-0.4,4.2,0.5,6.2,2.1C298.2,424.1,296.3,423.2,294,423.6z"/>
			<path class="st3" d="M235.2,531c-0.1-0.5-0.2-0.9-0.2-1.4c0,0,0,0,0,0C235.1,530.1,235.1,530.5,235.2,531z"/>
			<path class="st3" d="M539.8,599.3c-0.8-0.1-1.6-0.6-2-1.2c-0.5-0.7-0.6-1.5-0.5-2.3l-0.7,3.2L539.8,599.3z"/>
			<path class="st3" d="M238,520.8c1,0.4,1.7,1.2,1.9,2.3c1.9,10.6,3.5,20.8,5,30c-1.4-9.2-3-19.4-5-30
				c-8.2-45.8-9.6-108.4,11.1-146.8c20-37.1,79.8-78,168-85.7c7.5-0.7,14.8-1,21.9-1c71.3,0,116.7,31.2,120,40.2
				c1.8,4.9,0.1,11.8-2.3,21.3c-2.6,10.6-6.2,25.2-6.8,44.8c-0.4,13.4-0.8,34.7-1.2,58.1c-0.4,23.2-0.9,48.1-1.4,69.3
				c0-1.1,0.7-2.1,1.7-2.6c1-0.5,2.2-0.3,3.1,0.3c0.4,0.3,0.8,0.7,1.2,1c0.5-20.9,1-45.2,1.4-68c0.4-23.4,0.8-44.7,1.2-58.1
				c0.6-19,3.9-32.6,6.6-43.5c2.6-10.6,4.5-18.2,2.1-24.8c-5.1-14-64-50.5-148-43.1c-90.5,7.9-151.9,50.3-172.7,88.8
				c-21.2,39.3-20.2,102.4-12,149.1c0.4-0.4,0.9-0.8,1.4-1.2C235.9,520.6,237,520.4,238,520.8z"/>
			<path class="st3" d="M555,530.2c-0.4,16.5-0.9,28.2-1.3,35.7C554.1,557.8,554.6,545.2,555,530.2C555,530.2,555,530.2,555,530.2z"
				/>
			<path class="st3" d="M538.3,523.8c-3.3-15.1-9.1-25-14.7-34.5c-4.5-7.6-8.7-14.9-11.3-24.2c2.6,9.3,6.9,16.6,11.3,24.3
				C529.2,498.8,535,508.6,538.3,523.8z"/>
			<path class="st3" d="M235.6,533.5c0.3,1.8,0.6,3.5,0.9,5.2C236.2,537,235.9,535.3,235.6,533.5z"/>
			<path class="st3" d="M236.8,540.3c0.8,4.7,1.5,9.3,2.2,13.7C238.3,549.6,237.5,545,236.8,540.3z"/>
			<path class="st3" d="M319.8,436.6c-0.7-0.2-1.3-0.4-1.9-0.6C318.5,436.2,319.2,436.4,319.8,436.6z"/>
			<path class="st3" d="M251.2,588C251.2,588,251.2,588,251.2,588c-2.3-8.8-4.5-22.8-6.4-34.9C246.7,565.2,248.9,579.2,251.2,588z"
				/>
			<path class="st3" d="M546.5,537.7c0-0.1,0-0.3,0-0.4C546.4,537.5,546.5,537.6,546.5,537.7z"/>
			<path class="st3" d="M546.8,541.7c0-0.5-0.1-0.9-0.1-1.4C546.7,540.8,546.8,541.2,546.8,541.7z"/>
			<path class="st3" d="M547.8,563.9c0,0.6-0.1,1.1-0.1,1.7C547.8,565,547.8,564.5,547.8,563.9z"/>
			<path class="st3" d="M547.1,545.6c0-0.8-0.1-1.5-0.1-2.3C547,544.1,547,544.9,547.1,545.6z"/>
			<path class="st3" d="M452,397.7c-0.4,0-0.8,0.1-1.1,0.1C451.2,397.8,451.6,397.7,452,397.7z"/>
			<path class="st3" d="M349.2,443.5c-31.4,3.9-43.9-6.2-50.6-11.6C305.4,437.4,317.9,447.4,349.2,443.5z"/>
			<path class="st3" d="M317,435.8c-4.1-1.4-7.2-3.1-9.8-4.8C309.8,432.7,312.9,434.4,317,435.8z"/>
			<path class="st3" d="M221.8,573.8c2.9,17.4,14.4,27.6,24,33.2c3.3,19.6,8.1,37.1,14.3,52c9.7,23.4,39,46.8,56.4,59.2v42.1
				c0,11.4,33.9,39.4,78.3,39.4c44.4,0,78.3-27.9,78.3-39.4v-42.1c17.5-12.4,46.8-35.8,56.4-59.2c6.1-14.9,10.9-32.3,14.3-52
				c9.6-5.6,21.1-15.8,24-33.2c3.9-23.3-0.6-41.6-12.5-51.8c-0.4-0.3-0.8-0.7-1.2-1c-0.9-0.7-2.1-0.8-3.1-0.3
				c-1,0.5-1.7,1.5-1.7,2.6c0,0,0,0,0,0c-0.5,18.8-0.9,32.1-1.4,40.6c0,0.6-0.1,1.1-0.1,1.7c-0.5,7.7-1.3,13.3-2.3,17.4
				c1.2-9.3,2.3-22.4,1.7-36.5c0-0.3,0-0.5,0-0.8c0-0.8-0.1-1.5-0.1-2.3c0-0.6-0.1-1.1-0.1-1.7c0-0.5-0.1-0.9-0.1-1.4
				c-0.1-0.9-0.1-1.7-0.2-2.6c0-0.1,0-0.3,0-0.4c-0.4-3.8-0.9-7.7-1.7-11.6c-0.2-1.1-0.4-2.2-0.7-3.3c-3.5-16.1-9.8-26.7-15.3-36.2
				c-5.4-9.2-10.5-17.8-12.4-30.2c-4.4-28.3-24.6-58.8-58.6-58.8c-1.9,0-3.9,0.1-5.8,0.4c-0.4,0-0.8,0.1-1.1,0.1
				c-6.2,0.8-12.4,2.7-18.7,5.2c-8.7,3.5-17.6,8.1-26.7,12.9c-7.4,3.9-14.8,7.7-22.4,11.2c-11,5-22.4,9-34.5,10.5
				c-12.6,1.6-21.8,0.8-28.7-1c-0.7-0.2-1.3-0.4-1.9-0.6c-0.3-0.1-0.6-0.2-0.9-0.3c-4.1-1.4-7.2-3.1-9.8-4.8
				c-1.9-1.3-3.5-2.5-4.9-3.6c-0.7-0.6-1.5-1.2-2.1-1.7c-2.1-1.5-4-2.5-6.2-2.1c-9.8,1.8-23.2,41.3-32.6,74
				c-2.7,9.4-4.8,18.5-6.3,27.1c-3.4,19.4-4.2,36.5-4.1,50.4c0,4.6,0.1,8.9,0.2,12.8c0,0,0,0,0,0c-2.3-8.8-4.5-22.8-6.4-34.9
				c-1.4-9.2-3-19.4-5-30c-0.2-1-0.9-1.9-1.9-2.3c-1-0.4-2.1-0.2-2.9,0.5c-0.5,0.4-0.9,0.8-1.4,1.2
				C222.2,532.7,218,550.9,221.8,573.8z M235.2,531c0.1,0.9,0.3,1.7,0.4,2.6c0.3,1.8,0.6,3.5,0.9,5.2c0.1,0.5,0.2,1,0.3,1.5
				c0.8,4.7,1.5,9.3,2.2,13.7c5.1,32.3,7.6,46.7,15,48.3c0.9,0.2,1.8,0,2.5-0.6c0.7-0.6,1.1-1.4,1.1-2.3c0,0,0-0.1,0-0.1l-0.2-6
				c-0.7-20.1-1.9-53.7,9.7-94.1c15.3-53,25-68.9,27.9-69.9c0.6,0.1,2.4,1.5,3.6,2.5c6.7,5.4,19.2,15.5,50.6,11.6
				c21.4-2.7,40.5-12.7,58.9-22.3c13.2-6.9,25.8-13.5,37.8-16.4c4-1,7.9-1.5,11.8-1.5c5.7,0,11,1,15.9,2.7c21,7.6,33.6,30,36.9,51
				c0.4,2.9,1.1,5.5,1.8,8c2.6,9.3,6.9,16.6,11.3,24.2c5.6,9.5,11.4,19.4,14.7,34.5c0.2,1,0.4,2,0.6,3.1c6.2,32.6-1.6,68.5-1.6,68.8
				c-0.2,0.8,0,1.7,0.5,2.3c0.5,0.7,1.2,1.1,2,1.2c0.6,0.1,2.5,0.2,4.8-1.7c5-4.1,8-14.8,9-31.6c0.5-7.5,0.9-19.2,1.3-35.7
				c0,0,0,0,0,0c7.5,9.3,9.9,24.2,6.8,42.6c-2.6,15.8-13.5,24.9-22.2,29.7c-0.8,0.4-1.3,1.2-1.5,2.1c-3.3,19.8-8,37.3-14.1,52.1
				c-6.8,16.5-27.1,37.5-55.6,57.5c-0.8,0.6-1.3,1.5-1.3,2.4v43.6c0,7-30.8,33.4-72.4,33.4s-72.4-26.4-72.4-33.4v-43.6
				c0-1-0.5-1.9-1.3-2.4c-28.5-20-48.8-41-55.6-57.5c-6.1-14.8-10.9-32.3-14.1-52.1c-0.1-0.9-0.7-1.7-1.5-2.1
				c-8.7-4.8-19.6-13.9-22.3-29.7c-3.1-18.9-0.5-33.9,7.4-43.2c0,0,0,0,0,0C235.1,530.1,235.1,530.5,235.2,531z"/>
		</g>
		<path class="st4" d="M394.7,635.2c-23.2,0-67.5,9.4-88.8,30.3l83.3,0c0,0,1.5-11.7,5.5-11.7s5.5,11.7,5.5,11.7l83.3,0
			C462.3,644.6,417.9,635.2,394.7,635.2z"/>
	</g>
</g>
</svg>
