<?xml version="1.0" encoding="utf-8"?>
<!-- Generator: Adobe Illustrator 23.0.2, SVG Export Plug-In . SVG Version: 6.00 Build 0)  -->
<svg version="1.1" id="Ebene_1" xmlns="http://www.w3.org/2000/svg" xmlns:xlink="http://www.w3.org/1999/xlink" x="0px" y="0px"
	 viewBox="0 0 1400 1100" style="enable-background:new 0 0 1400 1100;" xml:space="preserve">
<style type="text/css">
	.st0{fill:#FFFFFF;}
	.st1{fill:#E3E3E2;}
	.st2{fill:#033153;}
	.st3{fill:#F2931B;}
	.st4{fill:#A7A9AC;}
	.st5{fill:#D1D3D4;}
	.st6{fill:#CC710D;}
</style>
<rect y="0" class="st0" width="1400" height="1100"/>
<title>clock</title>
<g>
	<g>
		<rect x="306.9" y="563.1" class="st1" width="678.4" height="335.1"/>
		<rect x="306.9" y="283" class="st2" width="710" height="280.1"/>
		<polygon class="st1" points="855.2,283 693.5,563.1 693.5,898.2 1016.9,898.2 1016.9,563.1 		"/>
		<rect x="527" y="774.7" class="st3" width="74.9" height="123.5"/>
		<rect x="386.2" y="706.3" class="st0" width="95.1" height="95.1"/>
		<rect x="754.7" y="576.2" class="st0" width="95.1" height="95.1"/>
		<rect x="860.6" y="576.2" class="st0" width="95.1" height="95.1"/>
		<rect x="754.7" y="706.3" class="st0" width="201.1" height="95.1"/>
		<rect x="484.7" y="178.5" class="st4" width="63.8" height="104.5"/>
		<rect x="228.9" y="898.2" class="st4" width="866" height="23.3"/>
		<polygon class="st5" points="338.5,563.1 693.5,721.5 693.5,563.1 		"/>
	</g>
	<g>
		<rect x="908.3" y="483.5" class="st6" width="262.8" height="376.6"/>
		<rect x="919.3" y="499.3" class="st3" width="240.8" height="345.1"/>
		<path class="st0" d="M1138.5,551.6H940.9c-2.3,0-4.3-1.9-4.3-4.3v-0.1c0-2.3,1.9-4.3,4.3-4.3h197.6c2.3,0,4.3,1.9,4.3,4.3v0.1
			C1142.7,549.7,1140.8,551.6,1138.5,551.6z"/>
		<path class="st0" d="M1138.5,586H940.9c-2.3,0-4.3-1.9-4.3-4.3v-0.1c0-2.3,1.9-4.3,4.3-4.3h197.6c2.3,0,4.3,1.9,4.3,4.3v0.1
			C1142.7,584.1,1140.8,586,1138.5,586z"/>
		<path class="st0" d="M1138.5,620.5H940.9c-2.3,0-4.3-1.9-4.3-4.3v-0.1c0-2.3,1.9-4.3,4.3-4.3h197.6c2.3,0,4.3,1.9,4.3,4.3v0.1
			C1142.7,618.5,1140.8,620.5,1138.5,620.5z"/>
		<path class="st0" d="M1139.7,659.7h-101.6c-1.7,0-3.1-1.4-3.1-3.1v-2.4c0-1.7,1.4-3.1,3.1-3.1h101.6c1.7,0,3.1,1.4,3.1,3.1v2.4
			C1142.7,658.4,1141.4,659.7,1139.7,659.7z"/>
		<path class="st0" d="M1139.7,680.6h-101.6c-1.7,0-3.1-1.4-3.1-3.1v-2.4c0-1.7,1.4-3.1,3.1-3.1h101.6c1.7,0,3.1,1.4,3.1,3.1v2.4
			C1142.7,679.2,1141.4,680.6,1139.7,680.6z"/>
		<path class="st0" d="M1041.3,716.8H939.7c-1.7,0-3.1-1.4-3.1-3.1v-2.4c0-1.7,1.4-3.1,3.1-3.1h101.6c1.7,0,3.1,1.4,3.1,3.1v2.4
			C1044.3,715.4,1042.9,716.8,1041.3,716.8z"/>
		<path class="st0" d="M1041.3,737.6H939.7c-1.7,0-3.1-1.4-3.1-3.1v-2.4c0-1.7,1.4-3.1,3.1-3.1h101.6c1.7,0,3.1,1.4,3.1,3.1v2.4
			C1044.3,736.3,1042.9,737.6,1041.3,737.6z"/>
		<circle class="st3" cx="908.3" cy="860.2" r="38.1"/>
		<rect x="908.3" y="840.2" class="st3" width="224.8" height="58"/>
		<circle class="st6" cx="1133" cy="860.2" r="38.1"/>
		<polygon class="st2" points="1110.9,760.5 1121.6,757 1126.7,767 1136.7,772.1 1133.3,782.8 1136.7,793.5 1126.7,798.6 
			1121.6,808.6 1110.9,805.1 1100.3,808.6 1095.2,798.6 1085.2,793.5 1088.6,782.8 1085.2,772.1 1095.2,767 1100.3,757 		"/>
		<polygon class="st0" points="1110.9,765.5 1119.2,762.9 1123.2,770.6 1130.9,774.5 1128.2,782.8 1130.9,791.1 1123.2,795 
			1119.2,802.8 1110.9,800.1 1102.7,802.8 1098.7,795 1091,791.1 1093.7,782.8 1091,774.5 1098.7,770.6 1102.7,762.9 		"/>
	</g>
</g>
</svg>
