<?xml version="1.0" encoding="utf-8"?>
<!-- Generator: Adobe Illustrator 23.0.2, SVG Export Plug-In . SVG Version: 6.00 Build 0)  -->
<svg version="1.1" id="Ebene_1" xmlns="http://www.w3.org/2000/svg" xmlns:xlink="http://www.w3.org/1999/xlink" x="0px" y="0px"
	 viewBox="0 0 1400 1100" style="enable-background:new 0 0 1400 1100;" xml:space="preserve">
<style type="text/css">
	.st0{fill:#FFFFFF;}
	.st1{fill:#E3E3E2;}
	.st2{fill:#033153;}
	.st3{fill:#F2931B;}
	.st4{fill:#A7A9AC;}
	.st5{fill:#D1D3D4;}
	.st6{fill:#CC710D;}
</style>
<rect y="0" class="st0" width="1400" height="1100"/>
<title>clock</title>
<g>
	<g>
		<rect x="308.5" y="563.1" class="st1" width="678.4" height="335.1"/>
		<rect x="308.5" y="283" class="st2" width="710" height="280.1"/>
		<polygon class="st1" points="856.8,283 695.1,563.1 695.1,898.2 1018.5,898.2 1018.5,563.1 		"/>
		<rect x="528.6" y="774.7" class="st3" width="74.9" height="123.5"/>
		<rect x="387.8" y="706.3" class="st0" width="95.1" height="95.1"/>
		<rect x="756.3" y="576.2" class="st0" width="95.1" height="95.1"/>
		<rect x="862.2" y="576.2" class="st0" width="95.1" height="95.1"/>
		<rect x="756.3" y="706.3" class="st0" width="201.1" height="95.1"/>
		<rect x="486.3" y="178.5" class="st4" width="63.8" height="104.5"/>
		<rect x="230.5" y="898.2" class="st4" width="866" height="23.3"/>
		<polygon class="st5" points="340.1,563.1 695.1,721.5 695.1,563.1 		"/>
	</g>
	<g>
		<g>
			<path class="st6" d="M1128,448.1c-26.7-25.2-60.8-37.8-102.5-37.8c-40.7,0-74.9,12.4-102.5,37.1s-41.4,57.2-41.4,97.4
				c0,3.6,13.8,6.4,30.9,6.4c17.1,0,30.9-2.9,30.9-6.4c0-0.1,0-0.1,0-0.2c0.5-24.1,8.4-43.2,23.6-57.2c15.3-14,34.8-21.1,58.5-21.1
				c22.8,0,42,7.2,57.8,21.4c15.7,14.3,23.6,33.3,23.6,57.1c0,17.4-4.2,33.2-12.7,47.3c-8.5,14-23.1,30.5-44,49.4l-35.6,32
				c-14.1,12.6-21.1,29.6-21.1,50.9v36.2v12.3v7.5c0,3.6,13,6.4,29.1,6.4s29.1-2.9,29.1-6.4v-7.5v-12.3v-7.1c0-12.6,1.3-22.3,4-29.1
				c2.7-6.8,8.4-14.3,17.1-22.5l21.1-20.4c18.4-18.4,30.5-30.8,36.3-37.1c9.7-10.2,18.4-24.2,26.2-42.2
				c8.7-18.4,13.1-36.6,13.1-54.5C1169.5,506,1155.7,472.8,1128,448.1z"/>
			
				<ellipse transform="matrix(0.9871 -0.1602 0.1602 0.9871 -123.9136 174.8637)" class="st6" cx="1022.6" cy="856" rx="42.2" ry="42.2"/>
		</g>
		<g>
			<path class="st3" d="M1113.9,448.1c-26.7-25.2-60.8-37.8-102.5-37.8c-40.7,0-74.9,12.4-102.5,37.1
				c-27.6,24.7-41.4,57.2-41.4,97.4c0,3.6,13.8,6.4,30.9,6.4s30.9-2.9,30.9-6.4c0-0.1,0-0.1,0-0.2c0.5-24.1,8.4-43.2,23.6-57.2
				c15.3-14,34.8-21.1,58.5-21.1c22.8,0,42,7.2,57.8,21.4c15.7,14.3,23.6,33.3,23.6,57.1c0,17.4-4.2,33.2-12.7,47.3
				s-23.1,30.5-44,49.4l-35.6,32c-14.1,12.6-21.1,29.6-21.1,50.9v36.2v12.3v7.5c0,3.6,13,6.4,29.1,6.4s29.1-2.9,29.1-6.4v-7.5v-12.3
				v-7.1c0-12.6,1.3-22.3,4-29.1c2.7-6.8,8.4-14.3,17.1-22.5l21.1-20.4c18.4-18.4,30.5-30.8,36.3-37.1c9.7-10.2,18.4-24.2,26.2-42.2
				c8.7-18.4,13.1-36.6,13.1-54.5C1155.4,506,1141.6,472.8,1113.9,448.1z"/>
			<circle class="st3" cx="1008.6" cy="856" r="42.2"/>
		</g>
	</g>
</g>
</svg>
