<?xml version="1.0" encoding="utf-8"?>
<!-- Generator: Adobe Illustrator 20.0.0, SVG Export Plug-In . SVG Version: 6.00 Build 0)  -->
<svg version="1.1" id="Ebene_1" xmlns="http://www.w3.org/2000/svg" xmlns:xlink="http://www.w3.org/1999/xlink" x="0px" y="0px"
	 viewBox="0 0 1112.9 559.5" enable-background="new 0 0 1112.9 559.5" xml:space="preserve">
<g>
	<path d="M721.1,435.6c0.1-3.5,0.6-7.1-0.9-10.6c2.6-0.7,5.1-0.5,7.5-0.1c-1.4,7.3-0.9,14.6-0.5,21.8c0.2,3.8-1.8,2.8-3.6,2.9
		c-1.9,0.1-3.5,0.1-2.7-3c0.7-2.7,0.1-5.7,0-8.6C720.5,437,720.5,436.3,721.1,435.6z"/>
	<path d="M293.2,437.8c-0.1,2.6-0.5,5.1-0.2,7.7c0.3,2.4,1,4.2-2.7,4.1c-3-0.1-3.4-0.8-3.3-4c0.3-6.9,1.1-13.8-0.7-20.9
		c2.5,0,4.8,0,7.6,0c-1.1,3.7-1.2,7.3-0.8,10.9C293.7,436.3,293.7,437,293.2,437.8z"/>
	<path d="M419,424.7c-1.6,7.3-0.9,14.5-0.6,21.5c0.1,2.6-0.3,3.2-2.6,3.2c-2.4,0-3.6-0.3-3.3-3.4c0.5-4.9,0.1-9.9,0.2-14.8
		c0-2.2,0.2-4.3-1.5-6.6C414.1,424.7,416.6,424.7,419,424.7z"/>
	<path d="M301.2,446.8c0-3,0-6.1,0-9.1c-0.5-0.8-0.5-1.5,0.1-2.2c0-3.6,0.5-7.1-0.8-10.8c2.5,0,4.9,0,7.3,0
		c-0.7,8.1-0.4,16.2-0.2,24.3c-1.6,0.7-3.4,0.4-5,0.3C300.9,449.2,300.5,448.2,301.2,446.8z"/>
	<path d="M133,440.7c-0.3,3.2-0.4,7.7-3.4,8.2c-2.9,0.4-2.6-4.4-3.8-6.8c-2.5-5.5-3.5-11.6-6.9-17.3c3,0,5.8,0,8.5,0
		c-1,5.5,1.6,10.2,3.6,15C131.5,440.2,132.5,439.9,133,440.7z"/>
	<path d="M713,447.8c-1.2,3.2-3.8,1.5-5.6,1.3c-2.6-0.3-0.4-2.1-0.4-3.1c-0.4-7,0.6-14.1-0.8-21.4c2.4,0,4.7,0,7.4,0
		c-1.1,3.7-1,7.3-0.7,10.9C713.1,439.7,711.3,443.8,713,447.8z"/>
	<path d="M135,430.4c-0.9-1.8-1.8-3.5-2.8-5.4c1-1.2,2.5-0.5,3.7-0.6c2.4-0.2,4.2-0.4,4.2,3.4c0,3.6,2,7.1,3.1,10.6
		c0.8,1.8,3.3,2.9,2.2,5.5c-0.7,2-0.3,5.2-2.7,5.4c-2.1,0.1-2.1-3-2.8-4.8c-0.7-1.9-1.3-3.8-1.9-5.7
		C136.8,436.1,135.1,433.6,135,430.4z"/>
	<path d="M168.2,424.5c-2.5,7.4-0.9,14.8-1.2,22.1c0,0.9,1.2,2.1-0.3,2.5c-1.4,0.3-3.1,0.3-4.5,0c-2.2-0.4-0.4-1.8-0.5-2.8
		c-0.2-6.6,0.8-13.2-0.6-19.8c-0.4-1.8,0.1-2.1,1.6-2.1C164.6,424.5,166.4,424.5,168.2,424.5z"/>
	<path d="M500,449.1c-5.7-1.1-7.5-5.2-7.8-10.3c-0.4-7.6,1.4-10.9,7.2-13.5c1.1-0.7,2-0.8,2,0.9c-4.6,6.2-4.6,15.6,0.1,21.6
		C501.7,449,501.3,449.6,500,449.1z"/>
	<path d="M265.5,426.6c-3.9,6.7-3.5,15.9,0.9,21.3c0.1,2-1,1.6-2.1,1.1c-5.7-1.4-7.1-5.6-7.3-10.7c-0.2-7.3,1.6-10.5,7.3-13
		C265.4,424.9,265.8,425.5,265.5,426.6z"/>
	<path d="M562,446.9c2-3.1,0.8-5.1-2.3-6.3c-1.6-0.6-3.2-1.1-4.8-1.7c-6.3-2.3-7.5-6.9-3.2-12.5c1.1-0.3,1.4,0.2,1.1,1.2
		c-1,5.7,3.8,5.4,7,6.5c7.2,2.6,8.6,8.2,3.3,13.9C562,448.4,561.8,447.8,562,446.9z"/>
	<path d="M244.9,446.9c2.1-3.4,0.7-5.3-2.6-6.5c-1.3-0.5-2.5-0.9-3.8-1.3c-6.3-2.2-7.5-5.2-4.8-11.6c2.5-0.2,0.7,2.4,1.9,3
		c1.9,2.5,4.9,2.9,7.6,3.8c6.9,2.5,8,8.3,2.8,13.7C244.9,448.4,244.7,447.9,244.9,446.9z"/>
	<path d="M684.1,449c-6.1-1.3-7.3-6.1-7.5-11.2c-0.3-6.5,2-10.2,7.5-12.5c1.2-0.3,1.5,0.2,1.3,1.3c-4.2,6.7-3.8,15.7,0.9,21.3
		C686.3,449.9,685.2,449.5,684.1,449z"/>
	<path d="M581.5,426.3c0,3.1,0,6.2,0,9.3c0.6,0.7,0.6,1.4,0.1,2.1c0,3.3,0,6.6,0.1,10c0.4,0.5,0.4,0.9-0.1,1.3
		c-1.7,0.7-3.4,0.7-5.1,0.1c-1.1-7.3-0.3-14.6-0.4-21.9C575.9,424.3,578.4,424,581.5,426.3z"/>
	<path d="M664.7,446.9c1.9-3.4,0.5-5.4-2.7-6.6c-1.3-0.5-2.6-0.8-3.8-1.3c-6.2-2.2-7.4-5.2-4.6-11.7c2.3,1,1.3,4.4,3.9,5.1
		c1.9,0.6,3.9,1.1,5.7,1.8c6.8,2.5,7.9,8.3,2.6,13.6C664.7,448.4,664.4,447.9,664.7,446.9z"/>
	<path d="M529.2,448.9c-3.8,1.1-6.1,1.1-5.3-4.3c0.8-5.6,0.2-11.5,0.2-17.2c-1-2.9,1.1-2.5,2.8-2.6c1.7-0.1,3,0.3,2.9,2.4
		C529.5,434.5,530.3,441.7,529.2,448.9z"/>
	<path d="M439.9,440.7c-1.9-0.6-3.8-1.4-5.7-1.8c-5.5-1-7.7-7.8-3.3-12.5c1.7,0.1,1.5,0.9,0.8,1.9c0.2,4.4,3.9,4.6,6.9,5.6
		c6.7,2.2,8,5.1,5.5,12c-1.1,0.4-1.6-0.3-1.6-1.2C442.6,442.7,441.3,441.6,439.9,440.7z"/>
	<path d="M212,448.8c-0.6,1.1-1.5-0.1-1.4-0.2c2.6-5.7,0.7-11.6,1.1-17.4c0.1-1.7,1.1-4.3-1.3-4.9c-2.4-0.6-3.4,1.7-4.4,3.6
		c-0.4,0.7-0.3,1.7-1.3,2c-1.7-6.8-1.3-7.6,5.6-7.3c4.6,0.2,9.4-1.2,13.9,0.8c-0.8,1-1.9,1.2-3.1,1.4c-2.4-1-4.1-0.7-3.9,2.4
		c0.6,6.5-1.4,13.1,1.2,19.5c-0.4,0.1-0.9,0.2-1.3,0.3c-2.4-1.2-2.4-3.5-2.5-5.7c-0.1-4.4,0-8.8-0.1-14c-0.2,5.1,0,9.6-0.1,14
		C214.4,445.3,214.5,447.7,212,448.8z"/>
	<path d="M632.8,449.1c-3.5,1.1-5.1,0.6-4.6-3.9c0.7-5.7,0.3-11.6,0.3-17.4c-0.9-2.5,0.5-2.9,2.5-2.9c1.8,0,2.3,1,2.3,2.6
		C633,434.6,634,441.9,632.8,449.1z"/>
	<path d="M607.2,449.1c-3.2,0.9-5,0.8-4.6-3.6c0.6-5.9,0.2-11.8,0.2-17.7c-0.8-2.4,0.5-3,2.5-3c1.8,0,2.3,1,2.3,2.6
		C607.4,434.6,608.3,441.9,607.2,449.1z"/>
	<path d="M383.4,448.9c-2.1,0.9-4.3,0.7-5.1,0.4c0-8,0-15.4,0-22.9c0.4-2.5,2.3-1.6,3.5-1.3c1.5,0.3,1.1,1.9,1.1,3
		C383.1,435,382.4,442,383.4,448.9z"/>
	<path d="M357.6,439.8c-0.3-0.3-0.6-0.7-0.9-1c-1.9-1.1-3.3-1-3.5,1.5c-0.2,1.7,0,3.4,0,5.1c-0.1,4.5-0.4,4.6-5,3
		c-0.1-6.6,0-13.2,0-19.9c0-1.6-0.7-3.8,2.1-3.7c2.7,0.1,1.7,2.3,2,3.8c0.4,2.6-0.9,5.3,0.9,7.7c2,0.3,3.8,0.1,5-1.8
		C359.9,436.5,360.4,438.3,357.6,439.8z"/>
	<path d="M807.2,426.7c-2.9-1.2-4-0.4-4,2.8c0.1,6.1,0.1,12.3,0.1,18.4c-3-0.4-2.4-2.9-2.5-4.7c-0.3-4.2-0.1-8.5-0.1-12.7
		c-0.2,4.2,0,8.4-0.1,12.5c-0.1,2.2,0.1,4.5-2.4,5.7c-0.5-0.1-0.9-0.2-1.4-0.2c2.1-5.5,0.6-11.3,0.9-16.9c0.1-1.8,1.2-4.6-1.3-5.3
		c-2.6-0.6-3.4,2.2-4.5,4c-2.6-1.3-1.3-3.3-0.9-5.1c6.4-1.3,12.9-1.4,19.3,0.1C809.4,426.3,808.3,426.5,807.2,426.7z"/>
	<path d="M459.2,447.7c0.1-6,0.3-11.9,0.3-17.9c0-1.2,0.8-3-1-3.5c-1.4-0.5-2.6,0.5-3.4,1.7c-0.7,1-1.2,2-2.2,2.7
		c-1.5-4.7-0.4-6.9,4.4-6.3c4.8,0.6,9.8-0.9,14.6,0.8c-0.7,1.3-2,1.3-3.3,1.3c-2.5-0.8-3.2,0.2-3.1,2.7c0.2,5.9,0.1,11.8,0.1,17.7
		c0.6,1.3,0.7,2.3-1.2,2c-2.3-3.8-1-7.9-1.3-11.9c-0.2-2.5,0.2-5.1-0.7-7.6c-0.5,3.8-0.4,7.7-0.5,11.6c-0.1,2.7,0.5,5.5-1.2,7.9
		C459.4,449.4,459.1,448.8,459.2,447.7z"/>
	<path d="M772.8,436.5c0.3-0.2,0.5-0.1,0.6,0.2c0.3,0.2,0.5,0.5,0.4,0.7c-0.1,0.3-0.2,0.4-0.3,0.4l0.1,0.1c-1.5,2.3-0.7,4.9-0.6,7.3
		c0.1,3.9-1.2,5.4-5,3.6c-0.4-6.9-0.1-13.9-0.2-20.8c0-1.6,0-3.2,2.2-3.1c1.9,0.1,1.7,1.6,1.9,2.9
		C772.3,430.7,770.8,433.8,772.8,436.5z"/>
	<path d="M529.2,448.9c-0.1-6.8-0.1-13.5-0.2-20.3c0-1.2,0.6-2.9-1.5-3.2c-1.6-0.2-3.1-0.2-3.4,1.9c-0.3-1-3.2-2.7-0.5-2.8
		c5.2-0.2,10.7-1.5,15.8,0.7c-1.1,1.3-2.6,1-4,1.1c-1.8,0.1-4.1-1.2-5.1,0.9c-1,2.3-0.6,5-0.1,7.5c0.3,1.4,1.6,0.9,2.5,0.5
		c1.2-0.5,1.3-2.5,3.3-2.4c0,2.9,0,5.9,0,8.8c-0.3,0-0.8,0-1-0.1c-1.5-1.2-1.5-4.1-4.2-3.7c-1.1,0.1-1.1,1.4-0.9,2.1
		c0.9,2.7-2.5,6.6,2.3,8.1c0.3,0.2,0.4,0.3,0.3,0.5c-0.1,0.2-0.2,0.2-0.3,0.2C531.2,449.4,530.2,449.3,529.2,448.9z"/>
	<path d="M798.1,448.8c2-5.1,0.5-10.5,1-15.7c0.1-1.4,0-2.7,0-4.1c0.1-1.3-0.5-3.2,1.5-3.3c2-0.1,1.6,1.8,1.6,3.1
		c0.1,4.8,0,9.6,0.1,14.3c0,1.6-0.6,3.5,1.1,4.7C802,450.6,800,449.4,798.1,448.8z"/>
	<path d="M212,448.8c2.1-5.4,0.5-11.1,1-16.7c0.1-1.4,0-2.7,0-4.1c0-1,0-2.2,1.3-2.4c1.8-0.2,1.7,1.3,1.7,2.4c0,4.9,0,9.9,0,14.8
		c0,2-0.2,4.1,1,5.9C215.4,449.6,213.7,449.7,212,448.8z"/>
	<path d="M500,449.1c0.5-0.4,1-0.9,1.5-1.3c6.2,0.5,7.5-1.7,4.7-8.8c1.4,0,2.7,0,4.1,0c1.2,0,2.4,0,3.8,0c-0.4,0.9-0.6,1.7-0.9,2.4
		c-1,2.4,0.9,6.6-1.1,7.1C508.2,449.3,504.1,451,500,449.1z"/>
	<path d="M180.2,449.1c0-6.8,0-13.6,0-20.4c0-1.2-0.4-3.1,1.7-2.9c1.6,0.2,1.3,1.8,1.3,2.9c0,6.8,0,13.6,0,20.4
		C182.2,449.6,181.2,449.6,180.2,449.1z"/>
	<path d="M383.4,448.9c-2.1-6.6-0.6-13.3-1-20c-0.2-3.1-0.9-4.8-4.1-2.5c-4.5-1.5-4.9,3.2-7.3,4.9c-1.7-6.2-1.2-7,4.7-6.7
		c5,0.2,10-1.1,14.9,0.8c-0.8,1.2-2,1.1-3.2,1.4c-2.4-1.1-4.1-0.6-3.8,2.4c0.5,6.5-1.4,13.1,1.1,19.4
		C384.2,448.6,383.8,448.8,383.4,448.9z"/>
	<path d="M772.8,436.5c-2.7-1.7-0.9-4.3-1.4-6.5c-0.4-1.5,0.9-4.1-1.5-4.2c-2.5-0.1-1.5,2.5-1.6,4c-0.1,6.3,0,12.6,0,18.8
		c-0.2,0.7-0.5,0.9-1.1,0.4c-0.4-8,1.4-16.2-1.1-24.5c4.2,0,8.6,0.2,13-0.1c2.5-0.1,3.3,1.2,3.8,3.1c0.1,0.5-0.1,1.5-0.5,1.8
		c-0.5,0.4-1.3,0.1-1.6-0.6c-1.5-3.2-4.5-3.4-6.9-2.3c-2.4,1-0.8,3.9-1.1,6C772.5,433.7,772.8,435.1,772.8,436.5z"/>
	<path d="M352.9,436.5c-2.7-2.1-0.9-5-1.4-7.6c-0.2-1.2,0.4-3.2-1.5-3.2c-2-0.1-1.6,1.8-1.6,3.1c0,6.6,0,13.2,0,19.8
		c-0.2,0.7-0.5,0.9-1.1,0.4c-0.2-7.9,0.9-15.9-0.7-24.4c5,0,10.1-0.7,15.3,0.4c0.5,1,1.8,1.7,1.1,3c-0.4,0.9-1.2,1-2,0.3
		c-1.7-2.4-4.4-2.9-6.8-2.2c-2.9,0.9-1.1,3.8-1.4,5.8C352.7,433.4,352.9,435,352.9,436.5z"/>
	<path d="M581.5,426.3c-3.8-2.2-5.2-0.9-5.1,3.2c0.1,6.5,0,13,0,19.4c-1.8,0.2-1.1-0.8-1.1-1.8c0.2-7.5,0.6-14.9-0.3-22.7
		c3.9,0,8.2,0.2,12.4,0c4-0.2,5.2,1.4,3.9,5.7C588.4,427.3,585.6,424.9,581.5,426.3z"/>
	<path d="M607.2,449.1c0-6.8,0-13.6-0.1-20.3c0-1.3,0.4-2.9-1.5-3.3c-1.8-0.4-2.4,0.8-2.7,2.3c-0.8-1.4-3.8-3.5,1-3.4
		c2.4,0.1,4.7,0,7.4,0.3c-2.9,1.4-3.4,3.5-3.2,6.3c0.3,4.4,0.2,8.8,0,13.2c-0.1,2.5,0.6,3.9,3.3,3.8c0.5,0.5,1.6,0.1,1.8,1.1
		C611.2,450,609.2,449.1,607.2,449.1z"/>
	<path d="M632.8,449.1c0-6.8,0-13.5-0.1-20.3c0-1.3,0.3-2.9-1.5-3.3c-1.8-0.4-2.4,0.8-2.7,2.2c-0.9-1.5-3.6-3.5,1-3.3
		c2,0.1,4,0,5.9,0c-3.2,7.5-1.5,15-1.4,22.4c0,1.9,2.6,0.7,3.9,1.2c0.3,0.4,0.3,0.8,0,1.1C636.3,449.1,634.6,449.1,632.8,449.1z"/>
	<path d="M145.4,444c0.1-2.1-2.7-3.2-2.2-5.5c2.6,1.2,2.3-1.3,2.8-2.4c1-2.5,1.6-5.2,2.4-7.8c0.3-0.3,0.7-0.4,1.1-0.2
		c0.2,0.4,0.4,0.8,0.6,1.2C148.7,434.3,147.7,439.3,145.4,444z"/>
	<path d="M581.5,449c0-0.4,0.1-0.9,0.1-1.3c5,1.6,7.8-1.4,10.3-5.5c1.2,5.9,0.2,7.4-4.5,7.3C585.4,449.5,583.5,449.1,581.5,449z"/>
	<path d="M532.3,448.8c0-0.3,0-0.5,0-0.8c3.7-0.1,5.9-2.5,7.9-5.9C540.9,449.9,539.3,451.1,532.3,448.8z"/>
	<path d="M713,447.8c-2.1-4.1-0.9-8.1-0.1-12.2c2.7,0.4,5.5,0.4,8.2,0c0,0.7-0.1,1.5-0.1,2.2c-0.2,0-0.3,0-0.5,0
		c-7.7-0.2-7.7-0.2-7.6,7.5C712.9,446.1,713,447,713,447.8z"/>
	<path d="M432.5,449.1c-4.4-0.5-4.6-0.7-3.7-7.4c2.3,2.6,3.5,5.9,6.9,6.4C435.2,450.5,433.6,449.1,432.5,449.1z"/>
	<path d="M553.4,449.2c-5.7,0.3-4.5-3.4-4-6.7c2.4,2,3.7,5.2,7.3,5.6C556.3,450.5,554.6,449,553.4,449.2z"/>
	<path d="M613.2,449.2c-0.6-0.4-1.2-0.7-1.8-1.1c3.4-0.6,5.1-3.2,6.7-6.5C619.4,448.9,619,449.5,613.2,449.2z"/>
	<path d="M328,437.6c1.5,1.2,0.9,2.8,0.9,4.3c-2.9,0.1-6.2-2-8.3,1.8c-0.9,0.1-1.5,0-0.9-1.1c0.1-1.1,0.2-2.2,1.2-2.9
		c0.3-0.3,0.7-0.6,1.1-0.8C324,438.4,326,438.3,328,437.6z"/>
	<path d="M347.4,449c0.4-0.1,0.7-0.2,1.1-0.4c3,0.7,4.4-0.3,4-3.5c-0.2-1.6-0.2-3.4,0-5c0.5-2.9,1.8-3.8,4.1-1.3
		c-1.3-0.2-3.1-1-3,1.2c0.1,2.9-1.5,6.3,2,9C352.7,449.8,350.1,450.3,347.4,449z"/>
	<path d="M135,430.4c0.7,2.9,3.3,5.1,3,8.4c-3.9-5.1-3,2.3-5,1.9c-0.8,0-1.6,0-2.1-0.8C133.8,437.4,134.5,434,135,430.4z"/>
	<path d="M236.4,449.2c-5.5,0.6-4-3.3-4.4-7c3,1.8,3.8,5.1,6.7,5.8C238.7,450,237.4,449.3,236.4,449.2z"/>
	<path d="M638,449.2c0-0.4,0-0.8,0-1.1c1.8-0.5,2.7-2.1,3.9-3.3c0.6-0.6,1.3-1.3,2.1-0.9c0.8,0.4,0.7,1.4,0.2,2.1
		C643.8,450.2,640.9,449.7,638,449.2z"/>
	<path d="M581.5,437.7c0-0.7,0-1.4-0.1-2.1c2.6,1.3,3.9-1.9,6.2-1.8c0.5,1.9,0.4,3.9,0.1,5.8c-1.2,0.7-1.6-0.5-2.3-0.9
		C584.2,438.1,583.1,437,581.5,437.7z"/>
	<path d="M767.2,449c0.4-0.1,0.7-0.3,1.1-0.4c3,0.8,4.1-0.3,4-3.5c-0.1-2.4-1.4-5.3,1.3-7.3c-0.3,3.8-1.6,7.8,1.7,11.4
		C772.4,449.6,769.8,450.5,767.2,449z"/>
	<path d="M656.2,449.2c-4.9,0.3-4.9-2.7-4.4-6.4c3.3,0.5,2.8,4.6,5.6,5.3C657.6,449,657.3,449.5,656.2,449.2z"/>
	<path d="M387.3,426.7c0.6-1.4,1.9-1.4,3.2-1.4c1.7,2,0.4,4.3,0.2,6.6C389.6,430.2,388.5,428.5,387.3,426.7z"/>
	<path d="M271.5,448c1.8-1.5,3.3-3.3,4.6-5.5c1.7,5.2,1.2,6.1-3.3,6.6C271.6,449.6,271.4,449,271.5,448z"/>
	<path d="M740.5,442.7c0.4,1.8-1.2,3.3-0.4,5.3c0.6,1.6-1.4,1.5-2.4,1.4c-1.4-0.1-1.5-0.9-0.8-2c0.9-1.5,1.7-3.1,2.6-4.6
		C739.8,442.4,740.2,442.3,740.5,442.7z"/>
	<path d="M431.6,428.4c-0.3-0.6-0.5-1.3-0.8-1.9c3.1-3.2,6.6-2.6,10.2-1.2c-0.2,0.8-0.6,1.3-1.4,1.5
		C436.6,425.2,433.8,425.3,431.6,428.4z"/>
	<path d="M691.4,448c1.6-1.7,3.1-3.4,4.7-5.2c0.8,5.8,0.8,5.8-3.6,6.2C691.4,449.6,691.2,448.9,691.4,448z"/>
	<path d="M692.5,425c5.4-0.6,3.6,3.4,4.1,6.5c-2.5-1-2.8-3.5-4.3-4.8C691.9,426.1,692,425.5,692.5,425z"/>
	<path d="M535.3,426.4c1-1.6,2.6-0.9,4-1.1c0.5,1.6,1.6,3.3-0.1,5.2C537.9,429.1,536.6,427.7,535.3,426.4z"/>
	<path d="M657.4,432.5c-3.6,0.1-2.3-3.6-3.9-5.1c1-2.1,2.8-2.9,5-3c0.3,0.2,0.5,0.5,0.4,0.7c-0.1,0.3-0.2,0.4-0.3,0.4
		C655.2,427.4,654.1,429.6,657.4,432.5z"/>
	<path d="M301.3,435.6c0,0.7,0,1.5-0.1,2.2c-2.7,0-5.3,0-8,0.1c0-0.7-0.1-1.5-0.1-2.2C295.8,435.9,298.5,436.2,301.3,435.6z"/>
	<path d="M773.5,437.7c0-0.4,0-0.7-0.1-1.1c1.7-0.1,3.3-0.3,4.2-2c2,2.3,2,3.6,0.1,6C777,438.7,775.3,438.1,773.5,437.7z"/>
	<path d="M273.7,425.2c4,0.4,2.7,3,1.9,5.5c-1.1-1.4-2.2-2.7-3.2-4.1C272.1,425.5,272.5,425,273.7,425.2z"/>
	<path d="M747.8,439.6c0.4,1,0.8,2,1.1,3c-2.3-1.5-4.9-0.5-7.3-0.9c-0.6-0.9-0.6-1.7,0.2-2.4C743.9,438.1,745.9,438.2,747.8,439.6z"
		/>
	<path d="M236.5,425.1c3.2-1.7,6.3-1.1,9.4,0.2c-0.8,1.3-2.2,0.4-3.1,1c-2-0.4-4.1-0.6-6,0.4C236.2,426.2,236.2,425.7,236.5,425.1z"
		/>
	<path d="M552.9,427.6c-0.4-0.4-0.8-0.8-1.1-1.2c2.9-2.9,6.2-2.6,9.6-1.3c-0.2,0.8-0.7,1.2-1.4,1.4
		C557.3,425.3,555,425.7,552.9,427.6z"/>
	<path d="M692.5,425c-0.1,0.6-0.2,1.2-0.3,1.7c-2.3-1.2-4.6-1.2-6.9-0.2c-0.4-0.4-0.8-0.9-1.3-1.3
		C686.8,423.7,689.6,423.9,692.5,425z"/>
	<path d="M691.4,448c0.4,0.3,0.8,0.7,1.2,1c-2.8,1-5.6,1.2-8.5,0c0.7-0.4,1.4-0.7,2.1-1.1C687.9,447.9,689.6,448,691.4,448z"/>
	<path d="M510.7,425.4c2.7,1.4,1.2,4,2.3,6.2c-2.5-0.2-3-1.7-3.5-3.1C509.5,427.4,509.7,426.2,510.7,425.4z"/>
	<path d="M273.7,425.2c-0.4,0.5-0.9,1-1.3,1.4c-2.3-1.3-4.6-1.2-6.9-0.1c-0.4-0.4-0.8-0.9-1.3-1.3
		C267.4,423.6,270.5,423.9,273.7,425.2z"/>
	<path d="M501.4,426.2c-0.7-0.3-1.3-0.6-2-0.9c3.1-1.7,6.2-1.6,9.4-0.1c-0.2,0.7-0.6,1.2-1.3,1.4
		C505.5,425.5,503.5,425.6,501.4,426.2z"/>
	<path d="M777.7,440.6c1.4-2,1.7-4-0.1-6c0-1.2,1.1-2.3,1.5-1.2c1,2.6,1,5.6,0,8.3C778.9,442.4,777.8,441.6,777.7,440.6z"/>
	<path d="M664.1,425.1c0.9,0.1,1.8,0.1,2.6,0.2c0.2,1.7,1.8,3.7-0.8,5c-1.1-1.3-2.2-2.6-3.3-4C662.4,425.2,662.8,424.6,664.1,425.1z
		"/>
	<path d="M439.9,440.7c3.7-0.1,2.3,3.9,4.2,5.2c-0.4,1.7-1.3,2.5-3.1,2c-0.4,0.5-0.7,0.5-0.9-0.1C442.5,445.4,442.7,443,439.9,440.7
		z"/>
	<path d="M559.9,426.4c0.5-0.5,1-0.9,1.4-1.4c0.9,0.2,1.8,0.3,2.7,0.5c0.5,1.6,1.8,3.4-1.1,3.9C561.9,428.5,560.9,427.5,559.9,426.4
		z"/>
	<path d="M271.5,448c0.4,0.4,0.8,0.7,1.2,1.1c-2.9,1.1-5.7,1.2-8.5-0.1c0.7-0.4,1.4-0.7,2.1-1.1C268.1,447.9,269.8,447.9,271.5,448z
		"/>
	<path d="M319.7,442.6c0.3,0.4,0.6,0.8,0.9,1.1c-0.1,0.5,0,1.2-0.3,1.4c-1.5,1.1,1.1,3-0.8,3.9c-0.4,0.2-1.2,0.2-1.4-0.1
		c-1.3-1.7,0-3.2,0.6-4.7C319,443.7,319.4,443.2,319.7,442.6z"/>
	<path d="M357.6,439.8c1.7-1.6,1.4-3.3,0.4-5.1c0.2-0.7,0.9-2.1,1.2-1.3c1,2.5,1,5.4,0.1,7.8C358.9,442.2,357.8,440.8,357.6,439.8z"
		/>
	<path d="M440.1,447.8c0.3-0.1,0.6,0,0.9,0.1c-2.4,3.4-5.5,2.2-8.5,1.2c1.1-0.3,2.4,0.1,3.2-1C437.1,447.1,438.7,449.2,440.1,447.8z
		"/>
	<path d="M807.2,426.7c0.6-1.4,1.8-1.4,3-1.4c0.3,0.1,0.5,0.3,0.4,0.7c-0.1,1.6,1.5,3.6-1.2,4.4
		C808.7,429.2,807.9,427.9,807.2,426.7z"/>
	<path d="M149.2,428.3c-0.2,0-0.5,0.1-0.8,0.1c0.6-1.5-2.8-2.4-0.9-3.8c1-0.7,3-0.5,4.4,0c1,0.3,0.4,1.4-0.5,1.8
		C150.1,426.3,150.1,427.8,149.2,428.3z"/>
	<path d="M221.1,426.7c0.6-1.4,1.9-1.3,3.1-1.4c0.3,0.1,0.4,0.4,0.3,0.7c0.1,1.6,1.6,3.5-1.1,4.4
		C222.6,429.2,221.8,427.9,221.1,426.7z"/>
	<path d="M242.8,426.3c0.8-1.2,2.1-0.6,3.1-1c0.3,0.1,0.6,0.2,0.9,0.4c0.4,1.6,1.8,3.4-1.2,3.9C244.7,428.4,243.7,427.4,242.8,426.3
		z"/>
	<path d="M656.2,449.2c0.4-0.4,0.8-0.8,1.2-1.2c1.4,0,2.8,0,4.3,0.1c0.6,0.6,1.8,0,2.3,1C661.4,450.4,658.8,450.4,656.2,449.2z"/>
	<path d="M361.1,428.3c2.5-0.5,0.8-2.2,0.9-3.3c3.1,1.5,0.9,3.9,1.8,6.2C361.5,430.6,361.5,429.3,361.1,428.3z"/>
	<path d="M439.7,426.7c0.5-0.5,0.9-1,1.4-1.5c0.6,0.1,1.2,0.1,1.9,0.2c0.4,1.6,1.8,3.4-1.1,4.1C441.1,428.5,440.4,427.6,439.7,426.7
		z"/>
	<path d="M236.4,449.2c0.8-0.3,1.9-0.2,2.3-1.2c1.1,0,2.1,0.1,3.2,0.1c0.7,0.6,1.9-0.1,2.3,1.1C241.5,450.4,239,450.4,236.4,449.2z"
		/>
	<path d="M321.8,439.7l-0.5,0l-0.5,0c0.4-2.7,1.1-5.2,3-7.2c0,0,0-0.1,0-0.1C325.7,435.6,324.4,437.8,321.8,439.7z"/>
	<path d="M742.6,433.5c0.4,0,0.8,0,1.2,0c1.2,2.3,0.4,4.1-1.6,5.5c-0.6,0.1-1,0-1.5-0.3C741.2,436.9,741.1,434.9,742.6,433.5z"/>
	<path d="M236.5,425.1c0.1,0.5,0.2,1.1,0.2,1.6c-0.6,1.2-1.4,2.3-1.2,3.8c-0.6-1-1.3-2-1.9-3C234,425.9,235.2,425.4,236.5,425.1z"/>
	<path d="M468.5,426.5c0.7-1.3,2.1-1.1,3.3-1.3l0,0c0,1.5,1.4,3.4-1,4.3C470.1,428.4,469.3,427.4,468.5,426.5z"/>
	<path d="M301.2,446.8c0.9,4.3,4.3,1.2,6.3,2.2c-1.7,1.7-3.9,1-5.8,0.7C299.5,449.4,300.1,448,301.2,446.8z"/>
	<path d="M553.4,449.2c1.1-0.3,2.5,0,3.3-1.1c0.7,0,1.5,0,2.2,0c0.7,0.6,1.9-0.1,2.3,1C558.7,450.4,556.1,450.4,553.4,449.2z"/>
	<path d="M507.5,426.6c0.4-0.5,0.9-0.9,1.3-1.4c0.6,0.1,1.2,0.1,1.9,0.2c0,1.2,0.1,2.4-1.2,3.1C508.8,427.9,508.1,427.2,507.5,426.6
		z"/>
	<path d="M562.9,429.5c1.7-0.9,1-2.6,1.1-3.9c1.8,1.2,1.2,3.2,0.8,4.5C564.1,431.9,563.2,431,562.9,429.5z"/>
	<path d="M790.9,425.2c0.2,1.7-0.7,3.7,0.9,5.1c-0.3,1-0.9,2.8-1.7,0.8C789.5,429.5,789,427,790.9,425.2z"/>
	<path d="M245.6,429.5c1.7-0.9,1.1-2.5,1.2-3.9c1.6,1.1,0.7,2.7,0.9,4.1c0.1,0.6,0,1.5-0.9,1.2C246.3,430.8,246,430,245.6,429.5z"/>
	<path d="M644.2,446c-0.3-1.3-1-1.8-2.3-1.2c0.4-1.2,0.6-2.5,2.5-3.1C645.4,443.1,644.9,444.6,644.2,446z"/>
	<path d="M809.4,430.4c1.4-1.2,0.6-3,1.2-4.4c1.2,1.5,0.9,3.3,0.5,4.7C810.7,432.3,809.6,432.6,809.4,430.4z"/>
	<path d="M665.9,430.3c1.5-1.5,0.7-3.3,0.8-5c1.9,1.6,1.1,3.7,0.8,5.5C667.3,431.8,666.2,431.3,665.9,430.3z"/>
	<path d="M441.8,429.5c1.6-1,1.1-2.6,1.1-4.1c2.2,1.2,0.7,3.1,1,4.7c0.1,0.6-0.2,1.4-1,0.9C442.4,430.7,442.2,430,441.8,429.5z"/>
	<path d="M470.8,429.4c1.3-1.2,0.7-2.8,1-4.3c1.7,1.4,0.5,3.4,1,5c0.2,0.7-0.2,1.5-0.9,1.2C471.1,431.1,470.8,430.2,470.8,429.4z"/>
	<path d="M664.1,425.1c-0.5,0.4-1,0.8-1.5,1.2c-1.3-0.3-2.7-0.6-4-0.9c0-0.4,0-0.7-0.1-1.1C660.4,424.2,662.3,423.9,664.1,425.1z"/>
	<path d="M464.5,448.7c1.2-0.2,0.8-1.2,1.1-1.9c0.8,0.5,1.6,1,2.5,1.6c-1.4,1.2-2.9,1.7-4.6,1.3c-0.2-0.2-0.3-0.5-0.2-0.7
		c0.1-0.2,0.1-0.4,0.2-0.4C463.7,448.5,464.1,448.5,464.5,448.7z"/>
	<path d="M463.5,449.1c0,0.2-0.1,0.4-0.1,0.6c-1.7,0.2-3.5,0.4-5-0.5c-1.8-1.2-0.1-1.3,0.7-1.5c0.4,0.3,0.8,0.6,1.2,1
		C461.6,448,462.6,448,463.5,449.1z"/>
	<path d="M740.7,438.7c0.3-0.1,0.6-0.1,1,0c0.3,0.1,0.5,0.3,0.4,0.5c-0.1,0.2-0.2,0.3-0.3,0.3c-0.1,0.7-0.1,1.5-0.2,2.2
		c-0.4,0.3-0.7,0.7-1.1,1c0,0-0.5-0.1-0.5-0.1l-0.5,0.1C739.9,441.4,740.3,440,740.7,438.7z"/>
	<path d="M223.4,430.4c1.4-1.2,0.6-3,1.1-4.4c0.9,1.4,0.9,3,0.6,4.4C224.7,431.9,223.9,432,223.4,430.4z"/>
	<path d="M149.2,428.3c0.5-1-0.8-3.9,2.2-1.9c-0.4,1-0.9,2-1.3,3C149.9,429,149.5,428.7,149.2,428.3z"/>
	<path d="M561.3,449.1c-0.8-0.3-1.5-0.7-2.3-1c1-0.4,2-0.8,3-1.2c0.4,0.4,0.8,0.7,1.1,1.1C562.9,448.9,562,449,561.3,449.1z"/>
	<path d="M663.9,449.1c-0.8-0.3-1.5-0.7-2.3-1c1-0.4,2-0.8,3-1.2c0.4,0.4,0.7,0.7,1.1,1.1C665.5,448.9,664.7,449,663.9,449.1z"/>
	<path d="M585.5,438.7c0.8,0.3,1.5,0.6,2.3,0.9c0.8,0.8,0,1.6-0.4,1.6C586,441.1,585.6,439.9,585.5,438.7z"/>
	<path d="M244.1,449.2c-0.8-0.4-1.5-0.7-2.3-1.1c1-0.4,2-0.8,3-1.1c0.4,0.3,0.7,0.7,1.1,1C245.7,448.9,244.9,449,244.1,449.2z"/>
	<path d="M197.5,446.6c-3.4,0.8-1.9-1.6-2-2.6c-0.3-1.8,0.4-3.9-1.2-5.3c-1.8-1.6-0.8-2.5,0.4-4c3.2-4.1,1.5-8.3-3.6-9.5
		c-4.5-1.1-9.1-0.6-13.9-0.5c0.7,1.3,1.7,2.3,1.7,3.3c0,6.5,1,13-0.5,19.4c-0.6,2.6,0.5,1.8,1.7,1.7c1.4-1.5,1.5-3.4,1.5-5.3
		c0.1-4.6,0-9.2,0-14.3c0.1,3-0.1,5.6,0.1,8.1c0.3,3.8-1.1,7.9,1.5,11.4c1.8,0.3,2.8,0.9,1.4-1.9c-1.3-2.8-0.9-6.3,0.1-9.5
		c0.1-0.3,1.7-0.4,2.4-0.1c3.8,1.5,1.8,5,2.4,7.6c0.1,0.5,0,1,0.2,1.5c1.1,3.2,5.6,4.3,8,1.8C198.2,447.9,199.3,446.2,197.5,446.6z
		 M186.3,435.7c-4.3-0.6-1.4-4.2-2-6.4c-0.4-1.5-0.5-3.6,2.3-3.3c3.1,0.3,3.7,2.5,3.9,4.9C190,433.4,189.2,436.1,186.3,435.7z"/>
	<path d="M751.4,433.6c-1.3-3-1.3-8.4-4.3-8.4c-3.3,0-3,5.4-4.5,8.3c0.3,0.3,0.6,0.6,1,0.8c0.1-0.2,0.1-0.5,0.2-0.7
		c4.6-0.1,2.9,3.9,4,6.1c-0.3,0-0.6,0-0.9,0c0,0.1,0,0.1,0.1,0.2c0.4,1.1,1.2,2,2,2.8c1,4.4,1.6,9.4,8.2,6.1
		C755.2,443.7,753.5,438.5,751.4,433.6z"/>
	<path d="M330.9,431.4c-0.9-2.3-0.8-6.6-3.8-6.2c-2.6,0.4-3.1,4.3-3.2,7.2c3.8-0.2,2.5,3.7,4.1,5.2c-0.1,0.6-0.3,1.1-0.5,1.5
		c0.4,1,0.7,2,1.4,2.8c2.8,8.5,2.8,8.5,8.3,6.7C335.1,442.9,333.2,437.1,330.9,431.4z"/>
	<path d="M463.5,449.1c-1-0.1-2.1-0.3-3.1-0.4c0-6.6,0-13.2,0-19.8c0-1.5-0.4-3.3,2-3.3c2.3,0,2,1.9,2,3.4c0,6.6,0,13.2,0,19.8
		C464.2,448.9,463.9,449.1,463.5,449.1z"/>
</g>
<g>
	<path d="M499.7,323.5c-0.1,1.1-0.2,2.2-0.2,3.3c0,16,0.1,32-0.1,48c0,3.9,1.3,5.3,5.2,5.2c8.7-0.2,17.3-0.1,26,0c1.8,0,3.6,0,5.6,0
		c0,2.6,0,4.6,0,7.1c-1.7,0.1-3.5,0.4-5.2,0.4c-28.8,0-57.7,0-86.5,0c-6.2,0-6.2-0.1-5.1-7.5c5,0,10.1-0.2,15.1,0.1
		c3.6,0.2,5-0.9,5-4.8c-0.1-55.2-0.1-110.3,0-165.5c0-3.7-1.1-5.1-4.9-4.9c-4.6,0.3-9.3,0.1-13.8,0.1c-2.1-6.7-1.5-7.6,4.7-7.6
		c16.2,0,32.3,0,48.5,0c1.6,0,3.2,0.2,5.3,0.3c0,6.3,0,12.3,0,19.2c1.5-1.4,2.4-1.9,3-2.8c12.6-17.8,30.4-21.6,50.4-18.6
		c19.7,3,31.8,15.4,37.5,33.9c7.2,23.2,7.3,46.7,0.5,69.9c-6.9,23.6-25,37-49.5,37.6c-9.4,0.2-18.8,0.5-27.4-3.9
		C508.9,330.4,504.6,326.8,499.7,323.5z M500.3,269.5c-0.3,0-0.6,0-0.9,0c0,8.2-0.1,16.3,0,24.5c0.2,9.4,2.8,18.2,9.4,25.1
		c6.8,7.2,15.3,9.9,25,7.5c8.7-2.1,12.4-8.8,14.7-16.7c0.4-1.3,0.8-2.6,1-3.9c1-10.4,3-20.8,2.8-31.2c-0.3-16.7-0.7-33.7-3.4-50.1
		c-3-17.9-20.9-23.1-35.1-11.4c-7.6,6.3-12.6,14.6-13.4,24.3C499.6,248.2,500.3,258.9,500.3,269.5z"/>
	<path d="M285.3,193.6c-4.6,1.9-6.7,0.5-8.1-3.8c-4.7-14.2-11.2-27.3-22.2-38c-19.5-18.9-61.2-18.5-75,13.5
		c-5.4,12.6-8.4,25.6-9.4,39.1c-1,13.4-1.4,27-1.1,40.4c0.5,18.5,3,36.7,10.5,54c15.7,36.2,59.3,37.8,81.5,10.8
		c8.4-10.2,14.1-21.8,18.3-34.1c1.3-3.8,3.2-5.2,7.7-3.7c-0.7,20.3-1.3,40.9-2,62.9c-2.4-1.3-3.9-2.4-5.6-3.1
		c-2.7-1.2-5.7-3.4-8.2-3c-10.1,1.7-20.1,4.7-30.2,6.4c-22.5,3.6-44.8,3-66.3-5.4c-21-8.2-35.9-23.1-43.4-44.3
		c-11.8-33.4-12.4-67.4,0.8-100.6c12.8-32.1,37.8-49.1,71.7-53.8c20.3-2.8,39.7,0.9,59.1,6.3c2.1,0.6,4.3,1.6,6.3,1.3
		c2.7-0.4,5.2-1.9,7.8-3c1.4-0.6,2.6-1.5,3.9-2.3c0.7,1.3,1.8,2.7,1.9,4c0.6,14.8,1,29.6,1.6,44.4
		C284.9,185.8,285.1,189.7,285.3,193.6z"/>
	<path d="M380.5,318.4c-5.9,10.7-14.7,16.4-25.8,17.9c-10.9,1.5-21.9,1.5-32.4-2.8c-13.3-5.5-19.7-16.4-18.9-31.9
		c0.9-18.7,11.1-30,31.6-33.2c12.6-2,25.5-2.1,38.2-3.1c2-0.1,3.9,0,5.6,0c0.5-0.6,0.8-0.9,0.8-1.2c-0.6-14.9-0.1-30-2.1-44.8
		c-2.2-15.8-16.4-22.1-31-15.6c-3.7,1.7-6.5,4.2-6.9,8.5c-0.3,3.7,0.1,6.6,5.2,6.3c1.4-0.1,4,1.9,4.4,3.3c2.1,8,2.5,16-4.1,22.4
		c-6.6,6.5-14.9,7-23.3,4.6c-7.6-2.2-11.3-8.1-12-15.6c-1.4-14.7,4.7-25.8,18.4-31.6c7.3-3.1,15.2-5.4,23-6
		c10.9-0.8,22-0.6,32.8,0.7c21.7,2.7,34,15.4,35.1,37.4c1.2,23.9,0.8,47.9,1.2,71.9c0.1,3.3,0,6.9,1.4,9.7c1.2,2.4,4,4.8,6.6,5.7
		c3.4,1.2,6.4-1.2,7.3-4.5c1.7-5.9,3-11.9,3.9-17.9c0.5-3.6,1.8-5.3,5.4-4.2c0.9,0.3,2.2,1.9,2,2.6c-1.4,8.1-2.3,16.5-5,24.3
		c-3.5,10.1-11.9,14.9-22.4,15.5c-5.3,0.3-10.7,0.5-15.9-0.4C391.8,334.5,388,331.2,380.5,318.4z M379.3,272.6
		c-5.2,0.4-10,0.4-14.7,1.2c-10.8,1.9-16.7,7.5-18.2,18.3c-0.9,6.5-1.1,13.3-0.2,19.8c1.8,12.6,13.2,16.7,23.3,8.7
		c5.9-4.7,9.3-11.2,9.7-18.5C379.7,292.7,379.3,283.2,379.3,272.6z"/>
	<path d="M930,295.1c-0.1,20-5.4,35.8-19.9,40.4c-18.7,5.9-36-0.2-46-16.4c-0.4,0.2-1,0.4-1.2,0.7c-7.9,12.6-19.7,17.1-34,17.1
		c-9.3,0-18.3-0.7-26.7-5c-7.8-4-12.6-10.2-14.6-18.6c-5.6-23.3,5.5-40.6,30-45c11.2-2,22.8-2.2,34.2-3.1c3.5-0.3,6.9,0,10.1,0
		c0.5-0.8,0.9-1,0.9-1.3c-0.7-15.1-0.3-30.3-2.3-45.2c-2.2-15.5-18.2-22.2-31.8-14.3c-2.6,1.5-4.8,5-5.7,8.1c-1,3.2,0.2,6.4,4.9,5.9
		c2.9-0.4,4.1,1.2,4.7,3.9c1.7,8,2.1,15.8-4.2,22c-6.6,6.5-14.9,7.1-23.3,4.6c-9.5-2.8-14.5-13.9-12-25.5
		c2.6-11.9,10.4-19.3,21.4-23.2c20.7-7.4,41.9-7.6,62.9-1.5c16.4,4.8,23.2,17.8,24.8,33.5c1.2,11.9,1,23.9,1.2,35.9
		c0.2,12.5,0,25,0.1,37.5c0,2.8,0.4,5.6,1,8.4c0.8,3.8,2.6,6.9,7,7.3c4.7,0.4,7.2-2.5,8.3-6.5c1.4-4.9,2.3-10,3-15.1
		C923.6,293.7,924.1,293.3,930,295.1z M862.5,272.6c-5.2,0.4-10.4,0.5-15.4,1.3c-9.9,1.7-16.2,7.8-17.5,17.9
		c-0.8,6.3-0.6,12.9-0.3,19.3c0.3,5.5,2.1,10.8,8,12.6c6.2,1.9,11.9,0.2,16.6-4.1c5-4.6,8-10.5,8.4-17.1
		C862.9,292.9,862.5,283.3,862.5,272.6z"/>
	<path d="M1004.1,326.6c0,3,0,5.1,0,7.6c-2,0.1-3.8,0.2-5.6,0.2c-15.5,0-31,0-46.5,0c-7.2,0-7.2,0-7.2-7c0-64.6,0-129.3,0-193.9
		c0-2.1,0-4.2,0-6.9c-5.6,0-10.5-0.1-15.5,0c-2.9,0.1-3.8-1.2-3.7-3.9c0.1-2.5,0.3-4.1,3.4-4.1c18.2,0.1,36.3,0.1,54.5,0.1
		c0.5,0,0.9,0.3,1.8,0.5c0,68.8,0,137.7,0,207.2C991.8,326.6,997.7,326.6,1004.1,326.6z"/>
	<path d="M686.8,204.9c-1.2-7.4-1.1-7.6,5.5-7.6c3.8,0,7.6,0,12.4,0c0-4.5,0-8.7,0-12.9c0-6.7-0.2-13.3,0.1-20
		c0.1-1.6,1.6-4.2,3-4.6c12-3.3,24.1-6.2,36.2-9.1c0.3-0.1,0.6,0.2,1.6,0.5c0,4.7,0,9.6,0,14.6c0,8.5,0.3,17-0.1,25.5
		c-0.2,4.7,1,6.4,6,6.2c8.8-0.4,17.7-0.1,26.5-0.1c6.6,0,6.6,0,6,7.6c-3.5,0-7.1,0-10.6,0c-7.7,0-15.3,0.1-23-0.1
		c-3.3-0.1-4.8,0.8-4.8,4.4c0.1,32.6,0,65.3,0.1,97.9c0,2.8,0.2,6,1.6,8.2c1.5,2.4,4.3,5.1,6.7,5.3c2.4,0.1,6.4-2.3,7.1-4.5
		c2.4-6.8,3.7-14.1,5.5-21.6c1.3,0,3.3,0,5.7,0c0.1,10.9-1,21.2-6.7,30.1c-2.6,4.1-7,8.1-11.4,9.8c-11.6,4.3-23.5,3.8-35-1.1
		c-6.8-2.9-10.9-8.3-12.4-15.3c-1.2-5.5-2.1-11.2-2.1-16.8c-0.2-30.1-0.2-60.3,0-90.4c0-4.5-1.1-6.4-5.8-5.9
		C695,205.2,691,204.9,686.8,204.9z"/>
	<path d="M625.4,326.7c0-40.8,0-80.9,0-121.6c-6,0-12,0-17.7,0c-2.1-7-1.5-7.8,5-7.8c16.2,0,32.3,0,48.5,0c1.6,0,3.2,0.2,5.3,0.3
		c0,2.4,0,4.4,0,6.3c0,39,0.1,78-0.1,117c0,4.5,1.1,6.4,5.8,5.9c4.1-0.4,8.3-0.1,12.8-0.1c0,2.7,0,4.9,0,7.5
		c-1.6,0.1-3.1,0.3-4.5,0.3c-22.7,0-45.3,0-68,0c-2.8,0-5.2,0.3-5.3-3.9c0-4.2,2.4-3.9,5.2-3.9C616.5,326.8,620.7,326.7,625.4,326.7
		z"/>
	<path d="M643.8,172.9c-19.7,0.9-26-15.3-22-29.3c0.9-3.1,2.8-6.1,5-8.4c10.6-10.8,33.7-7.5,38.4,5.6
		C671,156.6,663.8,173.9,643.8,172.9z"/>
</g>
</svg>
