<?xml version="1.0" encoding="utf-8"?>
<!-- Generator: Adobe Illustrator 23.0.2, SVG Export Plug-In . SVG Version: 6.00 Build 0)  -->
<svg version="1.1" id="Слой_1" xmlns="http://www.w3.org/2000/svg" xmlns:xlink="http://www.w3.org/1999/xlink" x="0px" y="0px"
	 viewBox="0 0 1400 1100" style="enable-background:new 0 0 1400 1100;" xml:space="preserve">
<style type="text/css">
	.st0{fill:#FFFFFF;}
	.st1{fill:#070039;}
	.st2{fill:#A7A9AC;}
	.st3{fill:#E3E3E2;}
	.st4{fill:#033153;}
	.st5{fill:#D1D3D4;}
	.st6{fill:#F2931B;}
	.st7{fill:#5B0E0E;}
	.st8{fill:#E1E0DC;}
	.st9{fill:#FF0209;}
	.st10{fill:#00A201;}
</style>
<rect class="st0" width="1400" height="1100"/>
<title>clock</title>
<g>
	<rect class="st1" width="1400" height="563.1"/>
	<path class="st0" d="M1349.9,156.2c-0.8-2-3.1-6.4-3.1-6.4s1.8-0.8,2.3-5.6s0.5-15,0.5-17.2s-0.1-5.2-4.8-5.7
		c-4.7-0.5-12,0.2-13.8-2.1c-1.9-2.3-1.8-5.8-3.1-9.8c-1.3-4-5.4-7.7-2.6-10c2.8-2.2,7.8-8.8,7.8-8.8s3.3-0.1,3.6-4.1
		c0.4-4-2.7-5.2-5.2-4.5s-2.8,4.5-2.8,4.5s-3.7,2.6-10,2.7s-9.9,0-11.7,0.8c-0.9,0.2-2.9-0.5-3.6-1.2s0.2-1.7,1.1-2.4
		c0.9-0.7,0.4-2.8-0.6-3.3c-1.1-0.5-2.5,0.7-3.4,1.7c-0.8,0.9-2.3,1.5-2.2-1c0.1-2.5,0.2-3.7,0.1-5.1s-3.8-2.3-4,0.5
		c-0.2,2.7,0,3.5-0.1,4.4s-1.5,2.6-4.3-0.1c-2.9-2.7-5.5-4.1-7.4-5.4c-1.8-1.2-5.8,1.1-2.6,3.7c3.2,2.6,8.7,6.1,8.7,6.1
		s0.2,1.7,0.5,2.6c0.3,0.8,0.1,2.3-2.6,1.6s-8.6-1.5-14.2-7.2c-2.3-2.3-4.9,0-3.7,2.3s8.2,7.8,18.5,9s14.5,1.2,14.5,1.2
		s-0.5,2.8,1.1,4.5c-6.6,1.1-14.3,7.5-17.4,15c11.7,0.6,18.7-6.1,20.2-10c2.1,1.6,3.7,8.6,0.2,11.8c-1.1-2.7-3.6-3.7-6-1.4
		s-4.9,4-10.2,5.8s-13.5,2.1-15.6,2c-2-0.1-4.6,2.4-3,4.8c-4,0-11.1,0.4-12.7,1.7c0,0-4.5-4.6-6.4-7s-4.7-3.8-4.7-3.8
		s-3.6,2.9-4.1,7.5c-0.5,4.6,2.1,6.3,4.2,6.1c-0.7,4.3,5.7,6.7,9.9,4.2c0.7,6.3,6.2,13.9,7.4,18.4c0.2,0.9,0.4,1.8,0.4,2.8
		c-16.1,14.5-27.7,19.7-37.5,23.9c-2.2-0.8-4.1-1.4-5-1.9c-2.6-1.3-2.5-3-2.3-6.7s-1.3-8.6-2.6-10.5s1-4.1,3.6-5.5s6.5-4.1,7.2-5.8
		c3.9-0.2,5-2.4,4.8-5.6s-3-3.9-5.3-3.4s-2.7,4.1-2.7,4.1s-4.8,1.5-9.1,0.9s-9.6-2.7-13.4-1.8c-1.4-0.8-3-1.2-2.9-2.2
		c0.2-1.1,1.9-1.2,2.1-3.6c0.2-2.4-2.5-2.3-3.9-1c-1.4,1.4-2.2,1.4-2.2,0c0.1-1.4,0.6-3.9,1.1-5.6c0.5-1.7-2.6-3.1-4.1-0.5
		s-0.5,5-1.7,5.6s-8-7.3-10.1-9.4c-2.2-2.1-4.1,0.7-2.5,2.9s7.1,7.2,7.1,7.2s0.1,3.5,0.1,4.1s-0.3,1.7-3.1,0.1
		c-2.8-1.6-10.3-5.8-12.2-9.3c-1.9-3.5-5.3-2-4.2,1.2c1,3.1,3.6,6.9,12.9,11.2c9.3,4.2,17.2,6,17.2,6l0.2,4.1c0,0-13.4,1.4-19.7,11
		c8.6,3.2,17.9,0.8,21.8-6.1c1.4,3.8,2.2,10.4-1.9,11.8c-1.1-3-3.4-4.1-6-2.3s-10.9,4.6-17.8,3.6s-11.6-2.3-12.6,0.9
		c-6.7-6.9-12.7-13.3-25.8-13.6c-13.1-0.3-31.1,17.4-31.1,17.4s0.6-5-5.3-5.3l-7.3-8.3c0,0,6.1-22-10.2-24.8
		c-0.1-0.2-0.9-1.1-0.9-1.1s3.6-0.2,0.5-5s-10.5-6.4-10.5-6.4s-6.3-3.6-13.7-1.2c-7.4,2.4-26.6,18.8-40.2,10.5
		c2.2-3.5-1.3-6.8-4.3-9.8s-7.2-3.7-10.1-0.9c-3,2.8-1.7,7.9,1.3,11.6c3,3.7,7.6,4.8,10.1,2.8c1.2,2.7,4.7,7.3,9.8,10
		c-9.6,0.2-20.1,5.5-19.5,12.9c-5.2,3.4-10.5,8.9-10.5,16.2c0.1,7.3,5.4,12.6,9.2,13.1c2,4.6,4.4,9.9,5.3,14.8
		c0.9,4.8,1,10,6.5,11.6c-3.7,1.7-6.4,9.5,0.3,13.6c-4.1-0.2-9.8-0.5-12.1-1.7c-2.3-1.3-1.8-4.1-0.8-5.2c0.9-1.1-0.1-2.9-1.2-3.3
		c-1.1-0.5-3.4,0.1-4,3.4c-0.6,3.3-0.5,10.5,11.2,11.4s79.5,6.8,87.5,7.1c8,0.4,14.6-5.6,14.6-13.7c0-5.3-1.8-7.9-1.8-7.9
		s8,1.4,11.9-6.4c3.9-7.8-0.6-15.5-6.6-18.4s-11.5,1-13,3.8c0.2-3.6-1.3-7.7-4.2-9.2c0.9-2.2,0.8-6.9,0.8-6.9s1.9,0.6,6.4-1.3
		c4.5-1.9,20-6.8,42.2,0c0.2,6.2,9.5,24.7-4.2,32.2c3.9,6.1,8.5,11.7,4.6,25.1c3.9,2.9,7.6,6.4,7.6,6.4s6-17.7,0-27.9
		c6.1,0.1,10.1-3.6,10.1-3.6s2.4,5.3,1.3,9.5c5.3,1,15.4,4.5,16.8,16.1c3.4,0.1,8.3,0.3,8.3,0.3s-1.2-13.3-11.9-22
		c3-3.3,2.1-11.9,2.1-11.9s22.4,4.9,35.7-9.6c1.6,2.6,4.9,7.1,4.9,7.1h-1.8l-0.9,9.1c0,0,4.2,0.3,6.5-0.6c0.4,0.7,0.9,1.5-0.2,2.3
		c-1.1,0.9-5.6,3.9-6.3,4.3c-0.7,0.5-2,0-3.3-1.9c-1.3-1.8-2.8-4-2.8-4l-3.7,7.4c0,0,2.9,7,8.4,7.9c2.1,0.3,7.8-3.4,11.6-6.9
		c3.7-3.5,4.4-5.9,3.8-8.1c-0.6-2.2-1.2-4-1.2-4s2.8-1.8,4.9-10.4c2.1-8.6,2.8-13.7,2.7-15.4c-0.1-0.8-3.3-2.2-6.8-3.4
		c17.9-8.1,28.4-16.1,33.3-20.5c-0.7,3.1-2.1,6.2-4.6,8.6c8,7,10.4,14.3,9.4,22.5c3.9,1.4,8.6,4.6,8.6,4.6s1.7-18.1-5.2-26.9
		c4-1.1,9.2-5.2,9.2-5.2s3.3,4.8,3,9.5c6-0.5,15.7-0.1,19.5,12c3.5-0.8,8.2-1.7,8.2-1.7s-4.2-12.7-16.2-19.1
		c2.1-5.3-0.2-12.2-0.2-12.2s24.6-1.4,33.2-16.6c3.4,3.3,5.9,6.1,5.9,6.1l-1.3,0.2l0.6,9.2c0,0,4-0.3,6.1-2.1
		c0.5,0.7,1.3,1.6,0.8,2.5s-5.2,5.2-5.8,5.8s-2.1,0.7-3.3-0.8s-3.2-3.7-3.2-3.7l-2.5,7.8c0,0,5.2,3.4,6.8,4.1s3,1,6.7-1.4
		s7.9-5.9,9.2-7.1C1351.3,159.8,1350.7,158.2,1349.9,156.2z M1022.7,236.1c4.1-2.2,3.8-5.7,2.1-7.3c-1.7-1.6-4.4-1.3-6-0.1
		c-1.6,1.1-3-1.1-2.4-2.1s3-5.1,9.5-2.4c6.6,2.7,16.4,11.7,28.2,14.5C1048.1,237.8,1022.7,236.1,1022.7,236.1z M1030.9,222.9
		l26.2,0.6c0,0-2,1.8-1.7,5.5s3.7,6.9,7.7,7s4.9-4,3.6-5.5s-4.6-1.4-5.5-2.2s-1-4.4,4.5-4.2c5.6,0.2,6.1,4.7,6.1,6.3s-1,6.8-9.8,6.7
		C1053.3,237,1044.3,231.7,1030.9,222.9z M1097.9,212l1-1.5c1,3.2,3.6,4.5,5.5,3.3c1.9-1.1,2.5-2.6,1.6-4.2c-0.9-1.6,0.8-3,2.8-2.9
		s6.2,1.2,6.1,7.2s-7.1,6.3-9.9,6s-4.3-2.9-8.5-2.6C1099.5,215.1,1097.9,212,1097.9,212z M1096.3,224c5.5,0,7.5,4.8,7.4,8.1
		s-1.7,8.7-8,8.9s-28.8-1.5-28.8-1.5c15.9-5.3,7.2-15.9,7.2-15.9l12.1-0.5c0,0-1.6,2.5-1.5,5.3s3,5.3,5.4,4s1.4-3.3,1.1-4.5
		C1091,226.8,1090.8,224,1096.3,224z M1147.4,179.1c0,0-6.5-8.1-7.9-12.4c-3.9,3-4.7,12.1,3.7,17.2c-9.4-3-17.2-5.4-39.2,0.3
		c0.1-0.4,0-1,0-1s21.5-16.6,31.6-17.1s14.1,3.9,24.9,13C1156.2,179.4,1147.4,179.1,1147.4,179.1z M1228.4,203.3l-2.9-9.3
		c0,0,4.6-0.2,4.5,0.6C1229.9,195.3,1228.4,203.3,1228.4,203.3z M1342.1,140.2l-4.6-9.5c0,0,1.5-0.4,3.1-0.4s2.1,0.5,2.1,1.7
		S1342.1,140.2,1342.1,140.2z"/>
	<polygon class="st0" points="1020.5,25.7 1027,45.4 1047.7,45.4 1030.9,57.6 1037.3,77.3 1020.5,65.1 1003.8,77.3 1010.2,57.6 
		993.4,45.4 1014.1,45.4 	"/>
	<polygon class="st0" points="538.2,101.8 544.6,121.6 565.4,121.6 548.6,133.7 555,153.5 538.2,141.3 521.4,153.5 527.8,133.7 
		511,121.6 531.8,121.6 	"/>
	<polygon class="st0" points="107,448.9 113.4,468.6 134.2,468.6 117.4,480.8 123.8,500.5 107,488.4 90.2,500.5 96.6,480.8 
		79.9,468.6 100.6,468.6 	"/>
	<polygon class="st0" points="1187.6,436.3 1194.1,456 1214.8,456 1198,468.2 1204.4,487.9 1187.6,475.7 1170.9,487.9 1177.3,468.2 
		1160.5,456 1181.2,456 	"/>
	<polygon class="st0" points="1304.8,288 1309.1,301.2 1323,301.2 1311.8,309.3 1316.1,322.6 1304.8,314.4 1293.6,322.6 
		1297.9,309.3 1286.6,301.2 1300.5,301.2 	"/>
	<polygon class="st0" points="728,230.8 732.3,244 746.2,244 735,252.1 739.2,265.3 728,257.2 716.8,265.3 721.1,252.1 709.8,244 
		723.7,244 	"/>
	<polygon class="st0" points="251.3,344.9 255.6,358.1 269.5,358.1 258.3,366.2 262.6,379.5 251.3,371.3 240.1,379.5 244.4,366.2 
		233.1,358.1 247,358.1 	"/>
	<polygon class="st0" points="359.2,68.6 363.5,81.8 377.4,81.8 366.1,89.9 370.4,103.2 359.2,95 347.9,103.2 352.2,89.9 341,81.8 
		354.9,81.8 	"/>
	<polygon class="st0" points="786.4,42.7 790.7,55.9 804.6,55.9 793.3,64.1 797.6,77.3 786.4,69.2 775.1,77.3 779.4,64.1 
		768.2,55.9 782.1,55.9 	"/>
	<path class="st0" d="M190.2,228.5c-35.6,0-64.5-28.9-64.5-64.5s28.9-64.5,64.5-64.5c1.3,0,2.6,0,3.9,0.1
		c-12.2-8.1-26.9-12.9-42.7-12.9c-42.6,0-77.2,34.6-77.2,77.2s34.6,77.2,77.2,77.2c15.8,0,30.5-4.7,42.7-12.9
		C192.8,228.4,191.5,228.5,190.2,228.5z"/>
</g>
<g>
	<rect x="267" y="898.2" class="st2" width="866" height="23.3"/>
	<g>
		<rect x="308.3" y="563.1" class="st3" width="748.6" height="335.1"/>
		<rect x="308.3" y="283" class="st4" width="783.4" height="280.1"/>
		<polygon class="st3" points="930,283 768.3,563.1 768.3,898.2 1091.7,898.2 1091.7,563.1 		"/>
		<rect x="829.5" y="576.2" class="st0" width="95.1" height="95.1"/>
		<rect x="935.5" y="576.2" class="st0" width="95.1" height="95.1"/>
		<rect x="829.5" y="706.3" class="st0" width="201.1" height="95.1"/>
		<polygon class="st3" points="470,283 308.3,563.1 308.3,898.2 631.7,898.2 631.7,563.1 		"/>
		<rect x="369.5" y="576.2" class="st0" width="95.1" height="95.1"/>
		<rect x="475.5" y="576.2" class="st0" width="95.1" height="95.1"/>
		<rect x="369.5" y="706.3" class="st0" width="201.1" height="95.1"/>
		<rect x="506.3" y="178.5" class="st2" width="63.8" height="104.5"/>
		<rect x="631.7" y="563.1" class="st5" width="136.5" height="335.1"/>
		<rect x="662.6" y="774.7" class="st6" width="74.9" height="123.5"/>
	</g>
	<rect x="663.8" y="611.6" class="st0" width="72.5" height="72.5"/>
</g>
<g>
	<path class="st7" d="M1195,940.3c-3.4-0.2-14.5,0.5-15.3,0.5c-0.8,0-18.4-14.4-20.6-15.5s-8.6-2.8-8.6-2.8s1.9-6,1.9-6.4
		s-5.4,5.1-6,5.1s-2.8-4-2.6-7c0.2-3,1-7.4,0.3-8.6c-0.7-1.2-7-3.6-8.1-4.2c-1.1-0.7,5.1,3.7,5.1,5.7c0.1,2-1,8.4,0.5,11.4
		c-6.5-4.6-10.8-7.7-13.4-7.7s-12.4,1.4-12.4,1.4s11,0.7,12.5,0.8c1.5,0.2,12.3,9.7,14.7,11.6c2.4,1.9,12.1,3,13.1,3.8
		c1,0.8,18.9,17.4,21.1,18.8s18.3,1.4,19.5,1.2C1198,948.2,1203.1,940.8,1195,940.3z"/>
	<circle class="st8" cx="1240.6" cy="975.5" r="68.2"/>
	<circle class="st8" cx="1240.6" cy="880.2" r="37.9"/>
	<path class="st6" d="M1225.3,872.5c-8.6-0.7-31.3,4.2-39.3,8.3c-8,4.2,41.1,3.8,44,3.1C1232.9,883.2,1235.4,873.3,1225.3,872.5z"/>
	<circle cx="1243.3" cy="866" r="4.5"/>
	<circle cx="1219.6" cy="866" r="4.5"/>
	<path class="st6" d="M1212.8,854.5c5.2-0.2,18.2-0.9,22,0c3.9,0.9,14.3,1.4,20.9,1.6c6.6,0.3,11,2.7,15.7,1.9
		c4.7-0.8,6.2-9.8,0-14.9c-6.2-5.1-15.5-4-21.2-5.7c-5.7-1.6-16.1-1.5-20,0c-3.9,1.5-9.1,0.3-13.4,2.1
		C1212.5,841.4,1203.7,854.9,1212.8,854.5z"/>
	<circle class="st6" cx="1308" cy="837" r="6.9"/>
	<path class="st9" d="M1219.6,838.9c2-12.5,13.9-37.5,41.9-37.5s44.9,17.6,48,30.5c-2.2,6.9-6.2,4.6-6.2,4.6l-1.6-2.5
		c0,0-10.7-10-20.9-6.8s-9.3,16.1-9.3,16.1s-9.6-0.6-10.9-0.9c-1.3-0.3-23.6-3.3-27.9-2.7C1228.3,840.2,1219.6,838.9,1219.6,838.9z"
		/>
	<circle cx="1210.8" cy="1010.6" r="4.8"/>
	<circle cx="1199.5" cy="990.6" r="4.1"/>
	<circle cx="1198.5" cy="966.5" r="3.1"/>
	<circle cx="1209" cy="941.4" r="3.1"/>
	<path class="st9" d="M1273.4,899.9c1.2-0.9,2.6,0.3,1,3.6c-1.6,3.3,3.7,10.8,5.2,12.2c1.4,1.4,3.6,5.1-10.3,8.5
		c-13.8,3.4-32,7.1-51.3,1.5c-19.3-5.6-19.4-7.8-19.3-9.2c0.1-1.4,6.1-1.7,9.1-6.4c3.1-4.7-1.4-6.7,1.8-7.8c3.3-1.1,10.9,6.4,29.5,7
		C1257.7,909.9,1271.5,901.3,1273.4,899.9z"/>
	<path class="st9" d="M1242.7,928.7c7.9,9.7,9.2,24.2,0,34.5c-9.2,10.3-11.2,16.2-11.2,16.2s13.3-0.7,17.6,5.4
		c1.8-11.2,7.1-21.3,8.8-30.7c1.6-9.4-8.3-26-8.3-26s-3.4-3.1-6.4-3.1C1240.2,924.9,1242.7,928.7,1242.7,928.7z"/>
	<path class="st9" d="M1252,925.8c1.6,3.1,10,17.2,10.2,26.4s-4.1,17.1-4.6,21.9c4.3-1.3,8.4,0,8.4,0s3.2-14,2.2-24.1
		s-11.4-25.6-12.4-26.7C1254.9,922.1,1250.2,922.4,1252,925.8z"/>
	<path class="st7" d="M1287.7,947.1c3.7-0.1,9.3,0.3,9.9,0s17.4-5,18.3-5.6s17.2-17.2,19.1-19.3c1.8-2.1,18.2-14.5,19.6-14.9
		c1.4-0.4,13,1.1,13.9,1.6s-10.4,1.5-12.4,2.1s-14.8,11.2-15.4,11.2c-0.5,0,4.4,1.1,5.7,1c1.4,0,9.2-1.3,11.4-1.4s15.3,3.8,16.2,3.8
		c0.9,0-15.1-0.3-16.6-0.5c-1.5-0.2-11.6,3.1-14.6,2.5c-2.9-0.5-6.5-1.3-6.5-1.3s-14.8,17.8-15.6,18.5c-0.8,0.7-21.1,9.6-23.6,9.6
		c-2.5,0-7.5-0.4-9.1-0.4C1286.4,954.2,1284.2,947.2,1287.7,947.1z"/>
</g>
<g>
	<path class="st10" d="M320.8,981.6c-23.6,1.9-41.7-2-52.7-18.5c21.5-7.2,28.6-28.9,28.6-28.9s-38.2,15.3-53.2-18.4
		c21.2-3.9,30.3-17.3,30.3-17.3s-33.8-1.7-47.6-36.4c15.2,0.2,31.6-16.3,31.6-16.3s-30.7-4.5-41.6-19.5c16.9-10.7,21.5-23,21.5-23
		s-17.5,1.4-26.9-14.4c12.1-0.2,16.6-8,16.6-8s-13-1.7-32.7-42.8c-19.7,41.1-32.7,42.8-32.7,42.8s4.5,7.8,16.6,8
		c-9.5,15.8-26.9,14.4-26.9,14.4s4.7,12.4,21.5,23c-10.9,15.1-41.6,19.5-41.6,19.5s16.4,16.5,31.6,16.3
		c-13.9,34.7-47.6,36.4-47.6,36.4s9.1,13.4,30.3,17.3c-15.1,33.7-53.2,18.4-53.2,18.4s7.1,21.7,28.6,28.9
		c-11,16.5-29.2,20.4-52.7,18.5c4,8.6,17.7,24.1,38.5,26.7c-14.8,3.8-10.1,12.7,30.5,3.4c12.7,25.5,44.5,10.5,44.5,10.5v20.8h12.7
		h12.7v-20.8c0,0,31.8,15,44.5-10.5c40.6,9.4,45.3,0.5,30.5-3.4C303,1005.7,316.8,990.2,320.8,981.6z"/>
	<polygon class="st9" points="149.2,944 148.7,947.6 152,949.2 148.4,949.9 147.9,953.5 146.1,950.3 142.5,950.9 145.1,948.3 
		143.3,945 146.6,946.6 	"/>
	<polygon class="st9" points="180.1,996.5 181.1,1000.1 184.8,1000.2 181.7,1002.3 182.7,1005.8 179.8,1003.5 176.8,1005.6 
		178.1,1002.1 175.2,999.9 178.8,1000 	"/>
	<polygon class="st9" points="252.3,895.6 250.5,898.7 252.9,901.5 249.3,900.7 247.4,903.8 247.1,900.2 243.5,899.4 246.9,897.9 
		246.5,894.2 249,897 	"/>
	<polygon class="st9" points="181.9,821 179,823.2 180.2,826.7 177.2,824.6 174.2,826.8 175.3,823.3 172.3,821.1 176,821.1 
		177.1,817.6 178.3,821.1 	"/>
	<polygon class="st9" points="199.8,954.3 200.4,955.6 201.9,955.4 200.8,956.4 201.4,957.7 200.1,957 199.1,958 199.3,956.6 
		198.1,955.9 199.5,955.7 	"/>
	<polygon class="st9" points="235,987.9 236.1,988.9 237.4,988.2 236.8,989.5 237.8,990.5 236.4,990.3 235.8,991.7 235.5,990.2 
		234,990 235.3,989.3 	"/>
	<polygon class="st9" points="225.8,993.7 226.4,995.1 227.8,994.9 226.8,995.9 227.4,997.2 226.1,996.5 225,997.5 225.3,996.1 
		224,995.4 225.5,995.2 	"/>
	<polygon class="st9" points="167.5,951.1 168.1,952.5 169.5,952.3 168.5,953.3 169.1,954.6 167.8,953.9 166.7,954.9 167,953.5 
		165.7,952.8 167.2,952.6 	"/>
	<polygon class="st9" points="111.2,976.9 110.6,978.3 111.7,979.3 110.2,979.1 109.6,980.4 109.3,979 107.8,978.8 109.1,978.1 
		108.8,976.7 109.9,977.7 	"/>
	<polygon class="st9" points="153.7,996.7 154.1,998.1 155.5,998.3 154.3,999 154.6,1000.4 153.5,999.5 152.2,1000.3 152.8,998.9 
		151.7,997.9 153.2,998.1 	"/>
	<polygon class="st9" points="138.1,1000.4 138.5,1001.9 139.9,1002 138.7,1002.8 139,1004.2 137.9,1003.2 136.6,1004 137.2,1002.6 
		136.1,1001.7 137.6,1001.8 	"/>
	<polygon class="st9" points="161.5,1004.3 161.8,1005.7 163.3,1005.8 162,1006.6 162.3,1008 161.2,1007.1 160,1007.8 160.5,1006.5 
		159.4,1005.5 160.9,1005.6 	"/>
	<polygon class="st9" points="225.8,908.5 226.4,909.8 227.8,909.6 226.8,910.6 227.4,911.9 226.1,911.2 225,912.2 225.3,910.8 
		224,910.1 225.5,909.9 	"/>
	<polygon class="st9" points="253.2,937.3 253.8,938.6 255.3,938.5 254.2,939.5 254.8,940.8 253.6,940.1 252.5,941.1 252.8,939.6 
		251.5,938.9 252.9,938.8 	"/>
	<polygon class="st9" points="147.6,918.1 147.7,919.6 149.1,919.9 147.8,920.5 147.9,922 146.9,920.9 145.6,921.4 146.3,920.2 
		145.4,919.1 146.8,919.4 	"/>
	<polygon class="st9" points="161.9,917.1 162.5,918.5 163.9,918.3 162.8,919.3 163.4,920.6 162.2,919.9 161.1,920.9 161.4,919.4 
		160.1,918.7 161.6,918.5 	"/>
	<polygon class="st9" points="215.7,876.9 216,878.3 217.5,878.4 216.2,879.2 216.6,880.6 215.5,879.7 214.2,880.4 214.8,879.1 
		213.7,878.1 215.1,878.2 	"/>
	<polygon class="st9" points="178.1,873.7 178.5,875.1 179.9,875.2 178.7,876 179,877.4 177.9,876.5 176.7,877.2 177.2,875.9 
		176.1,874.9 177.6,875 	"/>
	<polygon class="st9" points="218.1,803.9 219.2,804.9 220.5,804.2 219.9,805.5 220.9,806.5 219.5,806.3 218.8,807.7 218.6,806.2 
		217.1,806 218.4,805.3 	"/>
	<polygon class="st9" points="225,802.4 226.1,803.4 227.4,802.7 226.8,804 227.8,805.1 226.4,804.9 225.7,806.2 225.5,804.7 
		224,804.6 225.3,803.9 	"/>
	<polygon class="st9" points="199,820.3 199.7,821.6 201.1,821.3 200.1,822.4 200.7,823.7 199.4,823 198.4,824.1 198.6,822.6 
		197.3,822 198.8,821.7 	"/>
	<polygon class="st9" points="234,903.6 234.8,904.8 236.2,904.5 235.2,905.6 236,906.9 234.6,906.3 233.7,907.4 233.8,906 
		232.4,905.4 233.9,905 	"/>
	<polygon class="st9" points="167.5,919.5 168.1,920.8 169.6,920.7 168.4,921.7 169,923 167.7,922.2 166.6,923.2 167,921.8 
		165.7,921 167.2,920.9 	"/>
	<polygon class="st9" points="246.1,949.5 246.7,950.8 248.2,950.7 247.1,951.7 247.7,953 246.5,952.3 245.4,953.3 245.7,951.8 
		244.4,951.1 245.8,950.9 	"/>
	<polygon class="st9" points="217.8,960 218.7,961.9 220.8,961.6 219.2,963.1 220.1,965 218.3,964 216.7,965.4 217.1,963.3 
		215.3,962.3 217.4,962.1 	"/>
	<circle class="st9" cx="134.6" cy="939.8" r="4.2"/>
	<circle class="st9" cx="158.5" cy="953.4" r="1.6"/>
	<circle class="st9" cx="172.1" cy="958.3" r="1.6"/>
	<circle class="st9" cx="163.9" cy="1002.7" r="1.6"/>
	<circle class="st9" cx="145.4" cy="1001.2" r="1.6"/>
	<circle class="st9" cx="113.2" cy="986.3" r="1.6"/>
	<circle class="st9" cx="242.8" cy="907.4" r="1.6"/>
	<circle class="st9" cx="250.9" cy="946.6" r="1.6"/>
	<circle class="st9" cx="155.4" cy="921.3" r="1.6"/>
	<circle class="st9" cx="224.4" cy="958.3" r="1.6"/>
	<circle class="st9" cx="215.3" cy="995.6" r="1.6"/>
	<circle class="st9" cx="268.7" cy="974.5" r="1.6"/>
	<circle class="st9" cx="260.2" cy="982.8" r="1.6"/>
	<circle class="st9" cx="198.4" cy="917.9" r="1.6"/>
	<circle class="st9" cx="194.6" cy="876.6" r="1.6"/>
	<circle class="st9" cx="174" cy="871.7" r="1.6"/>
	<circle class="st9" cx="187.9" cy="823.1" r="1.6"/>
	<circle class="st9" cx="164.8" cy="868.3" r="1.6"/>
	<circle class="st9" cx="193.4" cy="820" r="1.6"/>
	<circle class="st9" cx="189.5" cy="919.5" r="1.6"/>
	<circle class="st9" cx="227.8" cy="878.8" r="1.6"/>
	<circle class="st9" cx="217.1" cy="813" r="1.6"/>
	<circle class="st9" cx="207.3" cy="960.5" r="2.2"/>
	<circle class="st9" cx="235.9" cy="953.4" r="3.9"/>
	<circle class="st9" cx="199.2" cy="1000.4" r="3.9"/>
	<circle class="st9" cx="205.8" cy="876.6" r="3.9"/>
	<circle class="st9" cx="180" cy="920.4" r="3.9"/>
	<circle class="st9" cx="207.9" cy="815.4" r="3.9"/>
	<circle class="st9" cx="189.2" cy="960.5" r="7.1"/>
	<circle class="st9" cx="126.3" cy="995.6" r="7.1"/>
	<circle class="st9" cx="249.4" cy="988.4" r="7.1"/>
	<circle class="st9" cx="212.2" cy="913" r="7.1"/>
	<polygon class="st6" points="194.6,717.4 198.1,728.4 209.7,728.4 200.3,735.2 203.9,746.2 194.6,739.4 185.2,746.2 188.8,735.2 
		179.4,728.4 191,728.4 	"/>
</g>
</svg>
