<?xml version="1.0" encoding="utf-8"?>
<!-- Generator: Adobe Illustrator 23.0.2, SVG Export Plug-In . SVG Version: 6.00 Build 0)  -->
<svg version="1.1" id="Ebene_1" xmlns="http://www.w3.org/2000/svg" xmlns:xlink="http://www.w3.org/1999/xlink" x="0px" y="0px"
	 viewBox="0 0 1400 1100" style="enable-background:new 0 0 1400 1100;" xml:space="preserve">
<style type="text/css">
	.st0{fill:#FFFFFF;}
	.st1{fill:#E3E3E2;}
	.st2{fill:#033153;}
	.st3{fill:none;stroke:#D1D3D4;stroke-width:14;stroke-miterlimit:10;}
	.st4{fill:#F2931B;}
</style>
<rect y="0" class="st0" width="1400" height="1100"/>
<title>clock</title>
<g>
	<rect x="762" y="227.4" class="st1" width="335.9" height="621.9"/>
	<rect x="762" y="849.3" class="st1" width="371" height="23.3"/>
	<rect x="267" y="849.3" class="st2" width="495" height="23.3"/>
	<rect x="302.1" y="227.4" class="st2" width="459.8" height="621.9"/>
	<rect x="805.8" y="745.4" class="st0" width="248.3" height="49.5"/>
	<rect x="805.8" y="507.4" class="st0" width="248.3" height="49.5"/>
	<rect x="805.8" y="631.8" class="st0" width="248.3" height="49.5"/>
	<polyline class="st3" points="1097.9,849.3 1097.9,227.4 762,227.4 762,849.3 	"/>
	<polygon class="st4" points="1033.6,331.1 959,331.1 959,256.5 900.9,256.5 900.9,331.1 826.3,331.1 826.3,389.2 900.9,389.2 
		900.9,463.8 959,463.8 959,389.2 1033.6,389.2 	"/>
	<rect x="367.2" y="303" class="st0" width="332.8" height="54.6"/>
	<rect x="367.2" y="426.8" class="st0" width="332.8" height="54.6"/>
	<rect x="367.2" y="550.5" class="st0" width="332.8" height="54.6"/>
	<rect x="367.2" y="674.2" class="st0" width="332.8" height="54.6"/>
</g>
</svg>
