<?xml version="1.0" encoding="utf-8"?>
<!-- Generator: Adobe Illustrator 23.0.2, SVG Export Plug-In . SVG Version: 6.00 Build 0)  -->
<svg version="1.1" id="Ebene_1" xmlns="http://www.w3.org/2000/svg" xmlns:xlink="http://www.w3.org/1999/xlink" x="0px" y="0px"
	 viewBox="0 0 1400 1100" style="enable-background:new 0 0 1400 1100;" xml:space="preserve">
<style type="text/css">
	.st0{fill:#FFFFFF;}
	.st1{fill:#E3E3E2;}
	.st2{fill:#033153;}
	.st3{fill:#F2931B;}
	.st4{opacity:0.13;fill:#58595B;}
</style>
<rect y="0" class="st0" width="1400" height="1100"/>
<title>clock</title>
<g>
	<polygon class="st1" points="1094.6,778.7 1094.6,623.4 1094.6,623.4 1094.6,298 700,298 700,623.4 700,630.5 700,778.7 700,785.3 
		700,802 1133,802 1133,778.7 	"/>
	<path class="st2" d="M700,623.4V298H305.4v318.3v7.1v155.3H267V802h433v-23.3H530.3V623.4H700z M336.6,778.7V623.4h162.5v155.3
		H336.6z"/>
	<rect x="380.6" y="512.5" class="st0" width="250.1" height="64"/>
	<rect x="815.7" y="660.1" class="st0" width="237.3" height="118.6"/>
	<rect x="727.4" y="695.2" class="st3" width="50.6" height="83.5"/>
	<polygon class="st4" points="692.8,623.4 1094.6,726.8 1094.6,623.4 	"/>
	<rect x="380.6" y="385" class="st0" width="250.1" height="64"/>
	<rect x="768.7" y="512.5" class="st0" width="250.1" height="64"/>
	<rect x="768.7" y="385" class="st0" width="250.1" height="64"/>
</g>
</svg>
