<?xml version="1.0" encoding="utf-8"?>
<!-- Generator: Adobe Illustrator 23.0.2, SVG Export Plug-In . SVG Version: 6.00 Build 0)  -->
<svg version="1.1" id="Ebene_1" xmlns="http://www.w3.org/2000/svg" xmlns:xlink="http://www.w3.org/1999/xlink" x="0px" y="0px"
	 viewBox="0 0 1400 1100" style="enable-background:new 0 0 1400 1100;" xml:space="preserve">
<style type="text/css">
	.st0{fill:#FFFFFF;}
	.st1{fill:#E3E3E2;}
	.st2{fill:#033153;}
	.st3{fill:#F2931B;}
	.st4{fill:none;stroke:#F2931B;stroke-width:5;stroke-miterlimit:10;}
</style>
<rect y="0" class="st0" width="1400" height="1100"/>
<title>clock</title>
<g>
	<polygon class="st1" points="1118.9,764 1118.9,764 1118.9,553.9 1089.8,378.2 864.2,378.2 864.2,312.7 824.2,312.7 824.2,378.2 
		700,378.2 700,553.9 700,553.9 700,764 700,768.8 700,787.3 1133,787.3 1133,764 	"/>
	<polygon class="st2" points="575.8,378.2 575.8,312.7 535.8,312.7 535.8,378.2 310.2,378.2 281.1,553.9 281.1,764 281.1,764 
		267,764 267,787.3 700,787.3 700,771.9 700,764 700,378.2 	"/>
	<rect x="925.4" y="562.1" class="st0" width="59.6" height="59.6"/>
	<rect x="991.8" y="562.1" class="st0" width="59.6" height="59.6"/>
	<rect x="925.4" y="643.6" class="st0" width="126.1" height="59.6"/>
	<rect x="637" y="562.1" class="st0" width="59.6" height="59.6"/>
	<rect x="703.4" y="562.1" class="st0" width="59.6" height="59.6"/>
	<rect x="637" y="643.6" class="st0" width="126.1" height="59.6"/>
	<rect x="348.6" y="562.1" class="st0" width="59.6" height="59.6"/>
	<rect x="415" y="562.1" class="st0" width="59.6" height="59.6"/>
	<rect x="348.6" y="643.6" class="st0" width="126.1" height="59.6"/>
	<rect x="820.7" y="686.6" class="st3" width="46.9" height="77.4"/>
	<rect x="532.3" y="686.6" class="st3" width="46.9" height="77.4"/>
	<rect x="519.2" y="563.7" class="st0" width="50.6" height="50.6"/>
	<rect x="830.2" y="563.7" class="st0" width="50.6" height="50.6"/>
	<rect x="801.4" y="378.2" class="st4" width="317.5" height="385.7"/>
</g>
</svg>
