<?xml version="1.0" encoding="utf-8"?>
<!-- Generator: Adobe Illustrator 23.0.2, SVG Export Plug-In . SVG Version: 6.00 Build 0)  -->
<svg version="1.1" id="Ebene_1" xmlns="http://www.w3.org/2000/svg" xmlns:xlink="http://www.w3.org/1999/xlink" x="0px" y="0px"
	 viewBox="0 0 1400 1100" style="enable-background:new 0 0 1400 1100;" xml:space="preserve">
<style type="text/css">
	.st0{fill:#FFFFFF;}
	.st1{fill:#E3E3E2;}
	.st2{fill:#033153;}
	.st3{fill:#D1D3D4;}
	.st4{fill:#032133;}
	.st5{fill:#A7A9AC;}
	.st6{fill:#F2931B;}
</style>
<rect y="0" class="st0" width="1400" height="1100"/>
<title>clock</title>
<g>
	<g>
		<rect x="700" y="845.4" class="st1" width="433" height="23.3"/>
		<rect x="267" y="845.4" class="st2" width="433" height="23.3"/>
		<rect x="700" y="800.5" class="st1" width="342.8" height="44.9"/>
		<rect x="357.2" y="800.5" class="st2" width="342.8" height="44.9"/>
		<rect x="357.2" y="461.3" class="st2" width="342.8" height="44.9"/>
		<rect x="700" y="461.3" class="st1" width="342.8" height="44.9"/>
		<polygon class="st2" points="476.9,532.5 476.9,506.1 459,506.1 406.9,506.1 389,506.1 389,532.5 406.9,532.5 406.9,774.2 
			389,774.2 389,800.5 406.9,800.5 459,800.5 476.9,800.5 476.9,774.2 459,774.2 459,532.5 		"/>
		<polygon class="st2" points="644.6,532.5 644.6,506.1 626.6,506.1 574.6,506.1 556.7,506.1 556.7,532.5 574.6,532.5 574.6,774.2 
			556.7,774.2 556.7,800.5 574.6,800.5 626.6,800.5 644.6,800.5 644.6,774.2 626.6,774.2 626.6,532.5 		"/>
		<polygon class="st1" points="843.3,532.5 843.3,506.1 825.4,506.1 773.4,506.1 755.4,506.1 755.4,532.5 773.4,532.5 773.4,774.2 
			755.4,774.2 755.4,800.5 773.4,800.5 825.4,800.5 843.3,800.5 843.3,774.2 825.4,774.2 825.4,532.5 		"/>
		<polygon class="st1" points="1011,532.5 1011,506.1 993.1,506.1 941,506.1 923.1,506.1 923.1,532.5 941,532.5 941,774.2 
			923.1,774.2 923.1,800.5 941,800.5 993.1,800.5 1011,800.5 1011,774.2 993.1,774.2 993.1,532.5 		"/>
		<polygon class="st3" points="1011,532.5 1011,506.1 993.1,506.1 967,506.1 967,800.5 993.1,800.5 1011,800.5 1011,774.2 
			993.1,774.2 993.1,532.5 		"/>
		<polygon class="st3" points="843.3,532.5 843.3,506.1 825.4,506.1 799.4,506.1 799.4,800.5 825.4,800.5 843.3,800.5 843.3,774.2 
			825.4,774.2 825.4,532.5 		"/>
		<polygon class="st4" points="644.6,532.5 644.6,506.1 626.6,506.1 600.6,506.1 600.6,800.5 626.6,800.5 644.6,800.5 644.6,774.2 
			626.6,774.2 626.6,532.5 		"/>
		<polygon class="st4" points="476.9,532.5 476.9,506.1 459,506.1 433,506.1 433,800.5 459,800.5 476.9,800.5 476.9,774.2 
			459,774.2 459,532.5 		"/>
		<polygon class="st1" points="700,345.5 700,461.3 1042.8,461.3 		"/>
		<polygon class="st2" points="700,345.5 357.2,461.3 700,461.3 		"/>
	</g>
	<circle class="st5" cx="700" cy="333.4" r="102.1"/>
	<g>
		<circle class="st0" cx="700" cy="333.4" r="90.3"/>
		<g>
			<path class="st6" d="M769.4,296.6c-0.8-0.9-2.2-1.1-3.1-0.3c-0.1,0.1-8.5,7-18.1,7c-8,0-16.3-2.6-24.3-5.1
				c-4.6-1.4-9.2-2.9-13.8-3.9c-0.4-3.9-3-7.2-6.6-8.5l-3.4-17.4l-3.4,17.4c-3.6,1.3-6.2,4.6-6.6,8.5c-4.6,1-9.3,2.4-13.8,3.9
				c-8,2.5-16.2,5.1-24.3,5.1c-9.6,0-18.1-7-18.1-7c-0.9-0.8-2.3-0.7-3.1,0.3c-0.8,0.9-0.7,2.3,0.3,3.1c0.3,0.3,7.1,5.9,16,7.6
				l-13.4,35.2h-1.2c-0.5,0-0.9,0.4-0.9,0.9v1.2c0,0.5,0.4,0.9,0.9,0.9h1.4c1,7,7,12.4,14.3,12.4c7.3,0,13.3-5.4,14.3-12.4h1.4
				c0.5,0,0.9-0.4,0.9-0.9v-1.2c0-0.5-0.4-0.9-0.9-0.9h-1.2l-13.3-34.9c0.9,0.1,1.7,0.1,2.6,0.1c8.7,0,17.3-2.7,25.6-5.3
				c4.5-1.4,8.8-2.8,13-3.7c1.4,3.9,5.1,6.8,9.5,6.8s8.2-2.8,9.5-6.8c4.2,0.9,8.6,2.3,13,3.7c8.3,2.6,16.9,5.3,25.6,5.3
				c0.9,0,1.8-0.1,2.6-0.1l-13.3,34.9h-1.2c-0.5,0-0.9,0.4-0.9,0.9v1.2c0,0.5,0.4,0.9,0.9,0.9h1.4c1,7,7,12.4,14.3,12.4
				c7.3,0,13.3-5.4,14.3-12.4h1.4c0.5,0,0.9-0.4,0.9-0.9v-1.2c0-0.5-0.4-0.9-0.9-0.9h-1.2l-13.4-35.2c8.9-1.7,15.7-7.3,16-7.6
				C770.1,299,770.2,297.6,769.4,296.6z M661.6,342.6h-27.2l13.3-35.1c0.2,0,0.4,0.1,0.6,0.1L661.6,342.6z M765.6,342.6h-27.2
				l13.3-35c0.2,0,0.4,0,0.6-0.1L765.6,342.6z"/>
			<path class="st6" d="M716.9,383.6h-9.8v-35.1h-3.9v-32.4c4-1.3,6.9-5.1,6.9-9.6c0-1.2-0.2-2.3-0.6-3.4c-1.4,2.7-5.1,4.7-9.5,4.7
				s-8.1-1.9-9.5-4.7c-0.4,1.1-0.6,2.2-0.6,3.4c0,4.5,2.9,8.3,6.9,9.6v32.4h-3.9v35.1h-9.8c-2.6,0-4.7,2.1-4.7,4.7v0
				c0,2.6,2.1,4.7,4.7,4.7h9.8h3.9h6.4h3.9h9.8c2.6,0,4.7-2.1,4.7-4.7v0C721.6,385.7,719.5,383.6,716.9,383.6z"/>
		</g>
	</g>
</g>
</svg>
