<?xml version="1.0" encoding="utf-8"?>
<!-- Generator: Adobe Illustrator 23.0.2, SVG Export Plug-In . SVG Version: 6.00 Build 0)  -->
<svg version="1.1" id="Ebene_1" xmlns="http://www.w3.org/2000/svg" xmlns:xlink="http://www.w3.org/1999/xlink" x="0px" y="0px"
	 viewBox="0 0 1400 1100" style="enable-background:new 0 0 1400 1100;" xml:space="preserve">
<style type="text/css">
	.st0{fill:#FFFFFF;}
	.st1{fill:#E3E3E2;}
	.st2{fill:#033153;}
	.st3{fill:#F2931B;}
</style>
<rect y="0" class="st0" width="1400" height="1100"/>
<title>clock</title>
<g>
	<polygon class="st1" points="1077.3,911.7 1077.3,384.9 1064,384.9 1064,165 812.5,384.9 812.5,165 560.9,384.9 700,384.9 
		700,911.7 700,935 1133,935 1133,911.7 	"/>
	<polygon class="st2" points="336,384.9 309.4,384.9 309.4,911.7 267,911.7 267,935 700,935 700,911.7 700,384.9 	"/>
	<polygon class="st3" points="560.9,165 309.4,384.9 560.9,384.9 	"/>
	<rect x="352.1" y="738.3" class="st0" width="66.9" height="66.9"/>
	<rect x="477.9" y="738.3" class="st0" width="66.9" height="66.9"/>
	<rect x="352.1" y="640" class="st0" width="66.9" height="66.9"/>
	<rect x="477.9" y="640" class="st0" width="66.9" height="66.9"/>
	<rect x="352.1" y="541.7" class="st0" width="66.9" height="66.9"/>
	<rect x="477.9" y="541.7" class="st0" width="66.9" height="66.9"/>
	<rect x="352.1" y="443.3" class="st0" width="66.9" height="66.9"/>
	<rect x="477.9" y="443.3" class="st0" width="66.9" height="66.9"/>
	<rect x="603.7" y="738.3" class="st0" width="66.9" height="66.9"/>
	<rect x="729.4" y="738.3" class="st0" width="66.9" height="66.9"/>
	<rect x="603.7" y="640" class="st0" width="66.9" height="66.9"/>
	<rect x="729.4" y="640" class="st0" width="66.9" height="66.9"/>
	<rect x="603.7" y="541.7" class="st0" width="66.9" height="66.9"/>
	<rect x="729.4" y="541.7" class="st0" width="66.9" height="66.9"/>
	<rect x="603.7" y="443.3" class="st0" width="66.9" height="66.9"/>
	<rect x="729.4" y="443.3" class="st0" width="66.9" height="66.9"/>
	<rect x="855.2" y="738.3" class="st0" width="66.9" height="66.9"/>
	<rect x="980.9" y="738.3" class="st0" width="66.9" height="66.9"/>
	<rect x="855.2" y="640" class="st0" width="66.9" height="66.9"/>
	<rect x="980.9" y="640" class="st0" width="66.9" height="66.9"/>
	<rect x="855.2" y="541.7" class="st0" width="66.9" height="66.9"/>
	<rect x="980.9" y="541.7" class="st0" width="66.9" height="66.9"/>
	<rect x="855.2" y="443.3" class="st0" width="66.9" height="66.9"/>
	<rect x="980.9" y="443.3" class="st0" width="66.9" height="66.9"/>
	<polygon class="st3" points="700,384.9 700,263.3 560.9,384.9 	"/>
</g>
</svg>
