<?xml version="1.0" encoding="utf-8"?>
<!-- Generator: Adobe Illustrator 23.0.2, SVG Export Plug-In . SVG Version: 6.00 Build 0)  -->
<svg version="1.1" id="Ebene_1" xmlns="http://www.w3.org/2000/svg" xmlns:xlink="http://www.w3.org/1999/xlink" x="0px" y="0px"
	 viewBox="0 0 1400 1100" style="enable-background:new 0 0 1400 1100;" xml:space="preserve">
<style type="text/css">
	.st0{fill:#FFFFFF;}
	.st1{fill:#E3E3E2;}
	.st2{fill:#033153;}
	.st3{fill:#F2931B;}
	.st4{fill:#032133;}
</style>
<rect y="0" class="st0" width="1400" height="1100"/>
<title>clock</title>
<g>
	<polygon class="st1" points="1055,898.2 1055,563.1 1055,563.1 1055,283 699.6,283 699.6,563.1 699.6,898.2 699.6,898.2 
		699.6,921.5 1133,921.5 1133,898.2 	"/>
	<polygon class="st2" points="586.6,282.7 586.6,178.5 522.8,178.5 522.8,282.7 344.6,282.7 344.6,898.2 267,898.2 267,921.5 
		699.6,921.5 699.6,909.7 699.6,898.2 699.6,282.7 	"/>
	<rect x="565" y="774.7" class="st3" width="74.9" height="123.5"/>
	<rect x="424.3" y="706.3" class="st0" width="95.1" height="95.1"/>
	<rect x="792.7" y="576.2" class="st0" width="95.1" height="95.1"/>
	<rect x="898.7" y="576.2" class="st0" width="95.1" height="95.1"/>
	<rect x="792.7" y="706.3" class="st0" width="201.1" height="95.1"/>
	<polygon class="st4" points="345,563.1 699.6,671.3 699.6,563.1 	"/>
</g>
</svg>
