<?xml version="1.0" encoding="utf-8"?>
<!-- Generator: Adobe Illustrator 23.0.2, SVG Export Plug-In . SVG Version: 6.00 Build 0)  -->
<svg version="1.1" id="Ebene_1" xmlns="http://www.w3.org/2000/svg" xmlns:xlink="http://www.w3.org/1999/xlink" x="0px" y="0px"
	 viewBox="0 0 1400 1100" style="enable-background:new 0 0 1400 1100;" xml:space="preserve">
<style type="text/css">
	.st0{fill:#FFFFFF;}
	.st1{fill:#E3E3E2;}
	.st2{fill:#033153;}
	.st3{fill:#F2931B;}
</style>
<rect y="0" class="st0" width="1400" height="1100"/>
<title>clock</title>
<g>
	<polygon class="st1" points="1051.8,911.7 1051.8,217.4 955.8,217.4 955.8,195.5 858,195.5 858,165 700,165 700,195.5 700,195.5 
		700,217.4 700,911.7 700,911.7 700,935 1133,935 1133,911.7 	"/>
	<polygon class="st2" points="700,195.5 700,165 542,165 542,195.5 444.2,195.5 444.2,217.4 348.2,217.4 348.2,911.7 267,911.7 
		267,935 700,935 700,911.7 700,911.7 700,217.4 700,217.4 700,195.5 	"/>
	<path class="st3" d="M700,755.6c-45,0-81.5,15.1-81.5,33.7v122.4h18.6V808.9h125.7v102.7h18.6V789.3
		C781.5,770.7,745,755.6,700,755.6z"/>
	<rect x="920.6" y="634.9" class="st0" width="86.5" height="86.5"/>
	<rect x="744.7" y="634.9" class="st0" width="86.5" height="86.5"/>
	<rect x="920.6" y="510.9" class="st0" width="86.5" height="86.5"/>
	<rect x="744.7" y="510.9" class="st0" width="86.5" height="86.5"/>
	<rect x="920.6" y="386.9" class="st0" width="86.5" height="86.5"/>
	<rect x="744.7" y="386.9" class="st0" width="86.5" height="86.5"/>
	<rect x="920.6" y="262.9" class="st0" width="86.5" height="86.5"/>
	<rect x="744.7" y="262.9" class="st0" width="86.5" height="86.5"/>
	<rect x="568.8" y="634.9" class="st0" width="86.5" height="86.5"/>
	<rect x="392.9" y="634.9" class="st0" width="86.5" height="86.5"/>
	<rect x="568.8" y="510.9" class="st0" width="86.5" height="86.5"/>
	<rect x="392.9" y="510.9" class="st0" width="86.5" height="86.5"/>
	<rect x="568.8" y="386.9" class="st0" width="86.5" height="86.5"/>
	<rect x="392.9" y="386.9" class="st0" width="86.5" height="86.5"/>
	<rect x="568.8" y="262.9" class="st0" width="86.5" height="86.5"/>
	<rect x="392.9" y="262.9" class="st0" width="86.5" height="86.5"/>
</g>
</svg>
