<?xml version="1.0" encoding="utf-8"?>
<!-- Generator: Adobe Illustrator 23.0.2, SVG Export Plug-In . SVG Version: 6.00 Build 0)  -->
<svg version="1.1" id="Ebene_1" xmlns="http://www.w3.org/2000/svg" xmlns:xlink="http://www.w3.org/1999/xlink" x="0px" y="0px"
	 viewBox="0 0 1400 1100" style="enable-background:new 0 0 1400 1100;" xml:space="preserve">
<style type="text/css">
	.st0{fill:#FFFFFF;}
	.st1{fill:#E3E3E2;}
	.st2{fill:#033153;}
	.st3{fill:#D1D3D4;}
	.st4{fill:#032133;}
	.st5{fill:none;stroke:#D1D3D4;stroke-width:14;stroke-miterlimit:10;}
	.st6{fill:#F2931B;}
</style>
<rect y="0" class="st0" width="1400" height="1100"/>
<title>clock</title>
<g>
	<polygon class="st1" points="1094.6,805.1 1094.6,271.6 698.7,271.6 698.7,805.1 698.7,809.5 698.7,828.4 1133,828.4 1133,805.1 	
		"/>
	<polygon class="st2" points="305.4,271.6 305.4,805.1 267,805.1 267,828.4 698.7,828.4 698.7,813.5 698.7,805.1 698.7,271.6 	"/>
	<rect x="844" y="405" class="st3" width="213" height="42.4"/>
	<rect x="844" y="468.3" class="st3" width="213" height="42.4"/>
	<rect x="844" y="531.5" class="st3" width="213" height="42.4"/>
	<rect x="844" y="594.7" class="st3" width="213" height="42.4"/>
	<rect x="844" y="657.9" class="st3" width="213" height="42.4"/>
	<rect x="698.7" y="320.1" class="st3" width="76.3" height="79.6"/>
	<rect x="327.9" y="320.1" class="st4" width="370.8" height="79.6"/>
	<rect x="344" y="336.5" class="st0" width="60.2" height="46.8"/>
	<rect x="432.7" y="336.5" class="st0" width="60.2" height="46.8"/>
	<rect x="521.4" y="336.5" class="st0" width="60.2" height="46.8"/>
	<rect x="610.1" y="336.5" class="st0" width="60.2" height="46.8"/>
	<rect x="698.7" y="336.5" class="st0" width="60.2" height="46.8"/>
	<rect x="698.7" y="426.3" class="st3" width="76.3" height="79.6"/>
	<rect x="327.9" y="426.3" class="st4" width="370.8" height="79.6"/>
	<rect x="344" y="442.7" class="st0" width="60.2" height="46.8"/>
	<rect x="432.7" y="442.7" class="st0" width="60.2" height="46.8"/>
	<rect x="521.4" y="442.7" class="st0" width="60.2" height="46.8"/>
	<rect x="610.1" y="442.7" class="st0" width="60.2" height="46.8"/>
	<rect x="698.7" y="442.7" class="st0" width="60.2" height="46.8"/>
	<rect x="698.7" y="532.4" class="st3" width="76.3" height="79.6"/>
	<rect x="327.9" y="532.4" class="st4" width="370.8" height="79.6"/>
	<rect x="344" y="548.8" class="st0" width="60.2" height="46.8"/>
	<rect x="432.7" y="548.8" class="st0" width="60.2" height="46.8"/>
	<rect x="521.4" y="548.8" class="st0" width="60.2" height="46.8"/>
	<rect x="610.1" y="548.8" class="st0" width="60.2" height="46.8"/>
	<rect x="698.7" y="548.8" class="st0" width="60.2" height="46.8"/>
	<rect x="698.7" y="638.5" class="st3" width="76.3" height="79.6"/>
	<rect x="327.9" y="638.5" class="st4" width="370.8" height="79.6"/>
	<rect x="344" y="654.9" class="st0" width="60.2" height="46.8"/>
	<rect x="432.7" y="654.9" class="st0" width="60.2" height="46.8"/>
	<rect x="521.4" y="654.9" class="st0" width="60.2" height="46.8"/>
	<rect x="610.1" y="654.9" class="st0" width="60.2" height="46.8"/>
	<rect x="698.7" y="654.9" class="st0" width="60.2" height="46.8"/>
	<polyline class="st5" points="1094.6,805.1 1094.6,271.6 806.5,271.6 806.5,805.1 	"/>
	<polygon class="st6" points="989.4,325.6 961.4,325.6 961.4,297.7 939.6,297.7 939.6,325.6 911.7,325.6 911.7,347.4 939.6,347.4 
		939.6,375.4 961.4,375.4 961.4,347.4 989.4,347.4 	"/>
</g>
</svg>
