<?xml version="1.0" encoding="utf-8"?>
<!-- Generator: Adobe Illustrator 23.0.2, SVG Export Plug-In . SVG Version: 6.00 Build 0)  -->
<svg version="1.1" id="Ebene_1" xmlns="http://www.w3.org/2000/svg" xmlns:xlink="http://www.w3.org/1999/xlink" x="0px" y="0px"
	 viewBox="0 0 1400 1100" style="enable-background:new 0 0 1400 1100;" xml:space="preserve">
<style type="text/css">
	.st0{fill:#FFFFFF;}
	.st1{fill:#E3E3E2;}
	.st2{fill:#033153;}
	.st3{fill:#F2931B;}
	.st4{fill:none;stroke:#F2931B;stroke-width:5;stroke-miterlimit:10;}
</style>
<rect y="0" class="st0" width="1400" height="1100"/>
<title>clock</title>
<g>
	<polygon class="st1" points="1120.3,781.6 1120.3,558.7 1120.3,555.1 1120.3,365.7 877.1,365.7 877.1,295 833.9,295 833.9,365.7 
		700,365.7 700,555.1 700,558.7 700,781.6 700,789.2 700,805 1133,805 1133,781.6 	"/>
	<polygon class="st2" points="566.1,365.7 566.1,295 522.9,295 522.9,365.7 279.7,365.7 279.7,781.6 267,781.6 267,805 700,805 
		700,786 700,781.6 700,365.7 	"/>
	<rect x="943" y="564" class="st0" width="64.3" height="64.3"/>
	<rect x="1014.7" y="564" class="st0" width="64.3" height="64.3"/>
	<rect x="943" y="651.9" class="st0" width="135.9" height="64.3"/>
	<rect x="632" y="564" class="st0" width="64.3" height="64.3"/>
	<rect x="703.7" y="564" class="st0" width="64.3" height="64.3"/>
	<rect x="632" y="651.9" class="st0" width="135.9" height="64.3"/>
	<rect x="321.1" y="564" class="st0" width="64.3" height="64.3"/>
	<rect x="392.7" y="564" class="st0" width="64.3" height="64.3"/>
	<rect x="321.1" y="651.9" class="st0" width="135.9" height="64.3"/>
	<rect x="830.2" y="698.2" class="st3" width="50.6" height="83.5"/>
	<rect x="519.2" y="698.2" class="st3" width="50.6" height="83.5"/>
	<rect x="590.7" y="365.7" class="st4" width="311" height="415.9"/>
	<rect x="519.2" y="581.4" class="st0" width="50.6" height="50.6"/>
	<rect x="830.2" y="581.4" class="st0" width="50.6" height="50.6"/>
</g>
</svg>
