<?xml version="1.0" encoding="utf-8"?>
<!-- Generator: Adobe Illustrator 23.0.2, SVG Export Plug-In . SVG Version: 6.00 Build 0)  -->
<svg version="1.1" id="Ebene_1" xmlns="http://www.w3.org/2000/svg" xmlns:xlink="http://www.w3.org/1999/xlink" x="0px" y="0px"
	 viewBox="0 0 1400 1100" style="enable-background:new 0 0 1400 1100;" xml:space="preserve">
<style type="text/css">
	.st0{fill:#FFFFFF;}
	.st1{fill:#033153;}
	.st2{fill:#E3E3E2;}
	.st3{fill:#A7A9AC;}
	.st4{fill:#F2931B;}
</style>
<rect class="st0" width="1400" height="1100"/>
<title>clock</title>
<g>
	<circle class="st1" cx="647.8" cy="778.5" r="46.2"/>
	<circle class="st1" cx="910.2" cy="778.5" r="46.2"/>
	<polygon class="st2" points="1121.5,370.2 442.4,370.2 547.4,694.9 1031.4,648.9 	"/>
	<path class="st3" d="M1130.8,363.4c-2.2-3-5.6-4.7-9.3-4.7H450.8l-24.4-75.4c-1.5-4.7-6-8-10.9-8h-137c-6.4,0-11.5,5.1-11.5,11.5
		c0,6.4,5.1,11.5,11.5,11.5h128.6l24.4,75.4l104.9,324.8c1.5,4.8,6,8,10.9,8c0.4,0,0.7,0,1.1-0.1l484.1-46.1
		c4.6-0.4,8.4-3.5,9.9-7.9l90.1-278.7C1133.6,370.2,1133,366.4,1130.8,363.4z M1055,538.6L517.8,566l-39.6-122.6h607.6L1055,538.6z
		 M1022.8,638.1l-467.3,44.5L520.4,574l531.9-27.2L1022.8,638.1z M1088.4,435.3H475.6l-17.3-53.6h647.5L1088.4,435.3z"/>
	<g>
		<path class="st4" d="M664.9,461H675v37.8h0.3c2.1-3,4.2-5.8,6.2-8.4l24-29.4h12.6l-28.4,33.3l30.6,45.1h-12l-25.8-38.5l-7.4,8.6
			v29.9h-10.1V461z"/>
		<path class="st4" d="M760.6,539.4l-0.8-7.1h-0.3c-3.1,4.4-9.2,8.4-17.2,8.4c-11.4,0-17.2-8-17.2-16.2c0-13.6,12.1-21,33.8-20.9
			v-1.2c0-4.7-1.3-13-12.8-13c-5.2,0-10.7,1.6-14.7,4.2l-2.3-6.7c4.7-3,11.4-5,18.5-5c17.2,0,21.4,11.7,21.4,23v21
			c0,4.9,0.2,9.7,0.9,13.5H760.6z M759.1,510.7c-11.2-0.2-23.8,1.7-23.8,12.7c0,6.6,4.4,9.8,9.7,9.8c7.3,0,12-4.7,13.6-9.4
			c0.3-1,0.6-2.2,0.6-3.3V510.7z"/>
		<path class="st4" d="M832.6,524.1c0,5.8,0.1,10.9,0.5,15.4H824l-0.6-9.2h-0.2c-2.7,4.5-8.6,10.5-18.6,10.5
			c-8.8,0-19.4-4.9-19.4-24.7v-32.9h10.2v31.2c0,10.7,3.3,17.9,12.6,17.9c6.9,0,11.6-4.8,13.5-9.3c0.6-1.5,0.9-3.4,0.9-5.2v-34.5
			h10.2V524.1z"/>
		<path class="st4" d="M850.6,539.4v-48.5h-7.9v-7.8h7.9v-2.7c0-7.9,1.7-15.1,6.5-19.7c3.8-3.7,9-5.2,13.7-5.2
			c3.6,0,6.7,0.8,8.7,1.6l-1.4,7.9c-1.5-0.7-3.6-1.3-6.5-1.3c-8.7,0-10.9,7.7-10.9,16.3v3h13.6v7.8h-13.6v48.5H850.6z"/>
	</g>
</g>
</svg>
