<?xml version="1.0" encoding="utf-8"?>
<!-- Generator: Adobe Illustrator 23.0.2, SVG Export Plug-In . SVG Version: 6.00 Build 0)  -->
<svg version="1.1" id="Ebene_1" xmlns="http://www.w3.org/2000/svg" xmlns:xlink="http://www.w3.org/1999/xlink" x="0px" y="0px"
	 viewBox="0 0 1400 1100" style="enable-background:new 0 0 1400 1100;" xml:space="preserve">
<style type="text/css">
	.st0{fill:#FFFFFF;}
	.st1{fill:#033153;}
	.st2{fill:#E3E3E2;}
	.st3{fill:#D1D3D4;}
	.st4{fill:#F2931B;}
	.st5{fill:none;stroke:#033153;stroke-width:15;stroke-miterlimit:10;}
</style>
<rect class="st0" width="1400" height="1100"/>
<title>clock</title>
<g>
	<rect x="267" y="763.5" class="st1" width="866" height="23.3"/>
	<rect x="337.3" y="375.5" class="st2" width="709" height="366.2"/>
	<rect x="305.4" y="741.6" class="st2" width="789.1" height="21.9"/>
	<rect x="375.7" y="391.8" class="st3" width="632.2" height="349.8"/>
	<rect x="417.3" y="432.3" class="st0" width="394.5" height="252.8"/>
	<rect x="857.4" y="499.8" class="st4" width="120.4" height="241.9"/>
	<polygon class="st2" points="1046.3,375.5 337.3,375.5 375.7,313.2 1007.9,313.2 	"/>
	<g>
		<ellipse class="st1" cx="614" cy="627.9" rx="85.3" ry="24"/>
		<path class="st0" d="M651,618.1c-13,8.7-32.1,9.7-37,9.7c-4.9,0-24-1.1-37-9.7c0,0,0,0,0,0c-0.8,13.4,31.3,14.5,37,14.5
			C619.7,632.6,651.8,631.5,651,618.1C651,618.1,651,618.1,651,618.1z"/>
		<path class="st1" d="M701.9,565.4c0-0.5-0.1-0.9-0.2-1.4c-0.2-0.9-0.5-1.9-0.9-2.8c-0.8-1.8-2.2-3.5-3.7-4.7
			c-1.6-1.2-3.3-2.1-5.1-2.6c-0.9-0.3-1.8-0.5-2.7-0.6c-0.4-0.1-0.9-0.1-1.3-0.2c-0.4,0-0.8-0.1-1.2-0.1c-3.3-0.3-6.9-0.2-10.5,0.8
			c-0.4,0.1-0.9,0.2-1.3,0.4c-0.4,0.2-0.9,0.3-1.3,0.5c-0.2,0.1-0.4,0.2-0.7,0.3l-0.3,0.1c-1.5-9-27.1-16.1-58.5-16.1
			c-32.4,0-58.6,7.6-58.6,17c0,0.2,0,0.5,0.1,0.7c0.4,5,3.1,34.7,12,51.2c9.7,18.1,40.2,19.9,46.6,19.9c6.4,0,36.9-1.8,46.6-19.9
			c6.4-11.9,9.6-30.7,11-42.2c0,0,0.1-0.1,0.1-0.1c1.1-0.9,2.2-1.6,3.3-2.3l0.8-0.4l0.4-0.2c0.1-0.1,0.3-0.1,0.4-0.2
			c0.3-0.1,0.6-0.2,0.9-0.3c0.3-0.1,0.6-0.2,0.9-0.3c2.4-0.7,5-0.9,7.6-0.7c0.3,0,0.7,0,1,0c0.3,0,0.6,0.1,0.9,0.1
			c0.6,0.1,1.1,0.2,1.6,0.3c1,0.3,1.9,0.7,2.6,1.2c0.7,0.5,1.2,1.1,1.6,1.8c0.2,0.3,0.3,0.7,0.5,1.1c0,0.2,0.1,0.4,0.1,0.6
			c0,0.2,0.1,0.4,0.1,0.6c0.1,1.8-0.4,3.8-1.4,5.5c-1,1.7-2.3,3.2-3.9,4.3c-1.8,1.2-3.7,2.4-5.5,3.5c-3.7,2.2-7.1,4.4-9.9,6.9
			c-1.4,1.2-2.6,2.6-3.5,4c-0.9,1.4-1.5,2.9-1.8,4.3c-0.3,1.4-0.3,2.6-0.1,3.7c0,0.3,0.1,0.5,0.1,0.7c0,0.2,0.1,0.4,0.2,0.7
			c0.1,0.2,0.1,0.4,0.2,0.6c0.1,0.2,0.1,0.3,0.2,0.5c0.1,0.3,0.3,0.6,0.4,0.8c0.1,0.2,0.3,0.4,0.4,0.5c0.2,0.3,0.4,0.4,0.6,0.3
			c0.1,0,0.2-0.3,0.3-0.6c0-0.2,0-0.4,0-0.6c0-0.2,0-0.5,0-0.8c0-1.2,0.1-3,0.9-4.8c0.4-0.9,1-1.9,1.9-2.8c0.9-0.9,1.9-1.8,3.2-2.7
			c2.6-1.8,6-3.4,9.9-5.3c1.9-1,4-2,6.2-3.3c2.4-1.5,4.6-3.5,6.3-6.1c0.8-1.3,1.6-2.7,2.1-4.3c0.5-1.6,0.8-3.3,0.8-5.1
			C702,566.4,702,565.9,701.9,565.4z M568.4,556c0-7.3,20.4-13.2,45.6-13.2c25.2,0,45.6,5.9,45.6,13.2s-20.4,13.2-45.6,13.2
			C588.8,569.2,568.4,563.3,568.4,556z"/>
		<g>
			<path class="st1" d="M619,496.8c0.2,0.3-0.2,0.9-0.6,1.9c-0.2,0.5-0.4,1.1-0.5,1.7c-0.1,0.7-0.1,1.5-0.1,2.3
				c0.1,0.4,0.1,0.9,0.2,1.3c0.1,0.2,0.1,0.4,0.2,0.7c0.1,0.2,0.2,0.5,0.3,0.7c0.4,1,1,2,1.7,3c0.7,1.1,1.5,2.2,2.4,3.5
				c0.9,1.3,1.8,2.7,2.6,4.4c0.8,1.7,1.3,3.6,1.4,5.5c0.1,1.9-0.4,3.7-1,5.3c-1.3,3.1-3.3,5.2-5,6.7c-1.7,1.5-3.3,2.3-4.4,2.9
				c-1.1,0.5-1.9,0.6-2.1,0.4c-0.2-0.3,0.1-1,0.8-2c0.7-1,1.8-2.3,3-3.9c1.2-1.6,2.4-3.5,3.1-5.7c0.3-1.1,0.5-2.2,0.4-3.4
				c-0.1-1.1-0.4-2.3-1-3.6c-0.6-1.3-1.3-2.5-2.1-3.8c-0.8-1.3-1.6-2.6-2.3-3.9c-0.7-1.4-1.3-2.8-1.6-4.2c-0.1-0.4-0.2-0.7-0.2-1.1
				c-0.1-0.4-0.1-0.7-0.1-1.1c0-0.7,0-1.4,0.1-2c0.2-1.3,0.6-2.4,1.1-3.3c0.5-0.9,1.1-1.6,1.7-2c0.6-0.4,1.1-0.6,1.5-0.7
				C618.7,496.6,618.9,496.7,619,496.8z"/>
		</g>
		<g>
			<path class="st1" d="M615.7,488.9c0.2,0.3-0.3,1-1.1,1.8c-0.9,0.9-2.2,2-3.5,3.5c-1.4,1.5-2.8,3.4-3.6,5.6c-0.8,2.3-1,4.9,0,7.1
				c0.5,1.1,1.4,2.3,2.3,3.6c0.9,1.3,2,2.7,2.7,4.3c0.7,1.6,1,3.3,1.1,4.8c0,1.5-0.2,2.9-0.5,4.1c-0.4,1.2-0.8,2.3-1.4,3.1
				c-0.1,0.2-0.3,0.4-0.4,0.6c-0.1,0.2-0.3,0.4-0.4,0.5c-0.3,0.3-0.6,0.6-0.8,0.8c-0.3,0.2-0.5,0.4-0.7,0.6
				c-0.2,0.1-0.4,0.2-0.6,0.3c-0.4,0.1-0.6,0.1-0.7,0c-0.1-0.1-0.1-0.4-0.1-0.7c0-0.2,0.1-0.4,0.2-0.6c0.1-0.2,0.2-0.5,0.3-0.7
				c0.1-0.3,0.2-0.6,0.3-0.9c0-0.2,0.1-0.3,0.1-0.5c0.1-0.2,0.1-0.4,0.1-0.5c0.2-0.8,0.3-1.6,0.4-2.6c0.1-1.9-0.2-4.1-1.3-6.1
				c-0.5-1-1.4-2-2.4-3.2c-1-1.2-2.2-2.7-3-4.6c-0.4-1-0.7-2-0.9-3c-0.2-1-0.2-2-0.1-3c0.1-1,0.2-1.9,0.5-2.8
				c0.2-0.9,0.5-1.7,0.9-2.5c0.7-1.5,1.7-2.9,2.6-4c1-1.1,2-1.9,3-2.6c2-1.4,3.7-2.1,5-2.5C614.8,488.5,615.6,488.5,615.7,488.9z"/>
		</g>
		<g>
			<g>
				<path class="st5" d="M548.3,494.9"/>
			</g>
		</g>
	</g>
</g>
</svg>
