<?xml version="1.0" encoding="utf-8"?>
<!-- Generator: Adobe Illustrator 23.0.2, SVG Export Plug-In . SVG Version: 6.00 Build 0)  -->
<svg version="1.1" id="Слой_1" xmlns="http://www.w3.org/2000/svg" xmlns:xlink="http://www.w3.org/1999/xlink" x="0px" y="0px"
	 viewBox="0 0 1400 1100" style="enable-background:new 0 0 1400 1100;" xml:space="preserve">
<style type="text/css">
	.st0{fill:#070039;}
	.st1{fill:#FFFFFF;}
	.st2{fill:#F2931B;}
	.st3{fill:url(#SVGID_1_);}
	.st4{fill:url(#SVGID_2_);}
	.st5{fill:url(#SVGID_3_);}
	.st6{fill:#A7A9AC;}
	.st7{fill:#E3E3E2;}
	.st8{fill:#033153;}
	.st9{fill:#D1D3D4;}
	.st10{fill:#5B0E0E;}
	.st11{fill:#FF0209;}
	.st12{fill:#00A201;}
	.st13{fill:#F0FF24;}
	.st14{fill:#0F6691;}
	.st15{fill:#E20516;}
</style>
<g>
	<rect class="st0" width="1400" height="825.6"/>
	<path class="st1" d="M1349.9,132.4c-0.8-2-3.1-6.4-3.1-6.4s1.8-0.8,2.3-5.6s0.5-15,0.5-17.2s-0.1-5.2-4.8-5.7
		c-4.7-0.5-12,0.2-13.8-2.1c-1.9-2.3-1.8-5.8-3.1-9.8c-1.3-4-5.4-7.7-2.6-10c2.8-2.2,7.8-8.8,7.8-8.8s3.3-0.1,3.6-4.1
		c0.4-4-2.7-5.2-5.2-4.5s-2.8,4.5-2.8,4.5s-3.7,2.6-10,2.7s-9.9,0-11.7,0.8c-0.9,0.2-2.9-0.5-3.6-1.2s0.2-1.7,1.1-2.4
		c0.9-0.7,0.4-2.8-0.6-3.3c-1.1-0.5-2.5,0.7-3.4,1.7c-0.8,0.9-2.3,1.5-2.2-1c0.1-2.5,0.2-3.7,0.1-5.1s-3.8-2.3-4,0.5
		c-0.2,2.7,0,3.5-0.1,4.4s-1.5,2.6-4.3-0.1c-2.9-2.7-5.5-4.1-7.4-5.4c-1.8-1.2-5.8,1.1-2.6,3.7c3.2,2.6,8.7,6.1,8.7,6.1
		s0.2,1.7,0.5,2.6c0.3,0.8,0.1,2.3-2.6,1.6s-8.6-1.5-14.2-7.2c-2.3-2.3-4.9,0-3.7,2.3c1.2,2.3,8.2,7.8,18.5,9s14.5,1.2,14.5,1.2
		s-0.5,2.8,1.1,4.5c-6.6,1.1-14.3,7.5-17.4,15c11.7,0.6,18.7-6.1,20.2-10c2.1,1.6,3.7,8.6,0.2,11.8c-1.1-2.7-3.6-3.7-6-1.4
		s-4.9,4-10.2,5.8s-13.5,2.1-15.6,2c-2-0.1-4.6,2.4-3,4.8c-4,0-11.1,0.4-12.7,1.7c0,0-4.5-4.6-6.4-7s-4.7-3.8-4.7-3.8
		s-3.6,2.9-4.1,7.5c-0.5,4.6,2.1,6.3,4.2,6.1c-0.7,4.3,5.7,6.7,9.9,4.2c0.7,6.3,6.2,13.9,7.4,18.4c0.2,0.9,0.4,1.8,0.4,2.8
		c-16.1,14.5-27.7,19.7-37.5,23.9c-2.2-0.8-4.1-1.4-5-1.9c-2.6-1.3-2.5-3-2.3-6.7s-1.3-8.6-2.6-10.5s1-4.1,3.6-5.5s6.5-4.1,7.2-5.8
		c3.9-0.2,5-2.4,4.8-5.6s-3-3.9-5.3-3.4s-2.7,4.1-2.7,4.1s-4.8,1.5-9.1,0.9s-9.6-2.7-13.4-1.8c-1.4-0.8-3-1.2-2.9-2.2
		c0.2-1.1,1.9-1.2,2.1-3.6c0.2-2.4-2.5-2.3-3.9-1c-1.4,1.4-2.2,1.4-2.2,0c0.1-1.4,0.6-3.9,1.1-5.6c0.5-1.7-2.6-3.1-4.1-0.5
		s-0.5,5-1.7,5.6s-8-7.3-10.1-9.4c-2.2-2.1-4.1,0.7-2.5,2.9s7.1,7.2,7.1,7.2s0.1,3.5,0.1,4.1s-0.3,1.7-3.1,0.1
		c-2.8-1.6-10.3-5.8-12.2-9.3c-1.9-3.5-5.3-2-4.2,1.2c1,3.1,3.6,6.9,12.9,11.2c9.3,4.2,17.2,6,17.2,6l0.2,4.1c0,0-13.4,1.4-19.7,11
		c8.6,3.2,17.9,0.8,21.8-6.1c1.4,3.8,2.2,10.4-1.9,11.8c-1.1-3-3.4-4.1-6-2.3s-10.9,4.6-17.8,3.6s-11.6-2.3-12.6,0.9
		c-6.7-6.9-12.7-13.3-25.8-13.6c-13.1-0.3-31.1,17.4-31.1,17.4s0.6-5-5.3-5.3l-7.3-8.3c0,0,6.1-22-10.2-24.8
		c-0.1-0.2-0.9-1.1-0.9-1.1s3.6-0.2,0.5-5s-10.5-6.4-10.5-6.4s-6.3-3.6-13.7-1.2c-7.4,2.4-26.6,18.8-40.2,10.5
		c2.2-3.5-1.3-6.8-4.3-9.8s-7.2-3.7-10.1-0.9c-3,2.8-1.7,7.9,1.3,11.6c3,3.7,7.6,4.8,10.1,2.8c1.2,2.7,4.7,7.3,9.8,10
		c-9.6,0.2-20.1,5.5-19.5,12.9c-5.2,3.4-10.5,8.9-10.5,16.2c0.1,7.3,5.4,12.6,9.2,13.1c2,4.6,4.4,9.9,5.3,14.8
		c0.9,4.8,1,10,6.5,11.6c-3.7,1.7-6.4,9.5,0.3,13.6c-4.1-0.2-9.8-0.5-12.1-1.7c-2.3-1.3-1.8-4.1-0.8-5.2c0.9-1.1-0.1-2.9-1.2-3.3
		c-1.1-0.5-3.4,0.1-4,3.4c-0.6,3.3-0.5,10.5,11.2,11.4s79.5,6.8,87.5,7.1c8,0.4,14.6-5.6,14.6-13.7c0-5.3-1.8-7.9-1.8-7.9
		s8,1.4,11.9-6.4c3.9-7.8-0.6-15.5-6.6-18.4s-11.5,1-13,3.8c0.2-3.6-1.3-7.7-4.2-9.2c0.9-2.2,0.8-6.9,0.8-6.9s1.9,0.6,6.4-1.3
		c4.5-1.9,20-6.8,42.2,0c0.2,6.2,9.5,24.7-4.2,32.2c3.9,6.1,8.5,11.7,4.6,25.1c3.9,2.9,7.6,6.4,7.6,6.4s6-17.7,0-27.9
		c6.1,0.1,10.1-3.6,10.1-3.6s2.4,5.3,1.3,9.5c5.3,1,15.4,4.5,16.8,16.1c3.4,0.1,8.3,0.3,8.3,0.3s-1.2-13.3-11.9-22
		c3-3.3,2.1-11.9,2.1-11.9s22.4,4.9,35.7-9.6c1.6,2.6,4.9,7.1,4.9,7.1h-1.8l-0.9,9.1c0,0,4.2,0.3,6.5-0.6c0.4,0.7,0.9,1.5-0.2,2.3
		c-1.1,0.9-5.6,3.9-6.3,4.3c-0.7,0.5-2,0-3.3-1.9c-1.3-1.8-2.8-4-2.8-4l-3.7,7.4c0,0,2.9,7,8.4,7.9c2.1,0.3,7.8-3.4,11.6-6.9
		c3.7-3.5,4.4-5.9,3.8-8.1c-0.6-2.2-1.2-4-1.2-4s2.8-1.8,4.9-10.4c2.1-8.6,2.8-13.7,2.7-15.4c-0.1-0.8-3.3-2.2-6.8-3.4
		c17.9-8.1,28.4-16.1,33.3-20.5c-0.7,3.1-2.1,6.2-4.6,8.6c8,7,10.4,14.3,9.4,22.5c3.9,1.4,8.6,4.6,8.6,4.6s1.7-18.1-5.2-26.9
		c4-1.1,9.2-5.2,9.2-5.2s3.3,4.8,3,9.5c6-0.5,15.7-0.1,19.5,12c3.5-0.8,8.2-1.7,8.2-1.7s-4.2-12.7-16.2-19.1
		c2.1-5.3-0.2-12.2-0.2-12.2s24.6-1.4,33.2-16.6c3.4,3.3,5.9,6.1,5.9,6.1l-1.3,0.2l0.6,9.2c0,0,4-0.3,6.1-2.1
		c0.5,0.7,1.3,1.6,0.8,2.5s-5.2,5.2-5.8,5.8s-2.1,0.7-3.3-0.8s-3.2-3.7-3.2-3.7l-2.5,7.8c0,0,5.2,3.4,6.8,4.1s3,1,6.7-1.4
		s7.9-5.9,9.2-7.1C1351.3,136,1350.7,134.4,1349.9,132.4z M1022.7,212.3c4.1-2.2,3.8-5.7,2.1-7.3c-1.7-1.6-4.4-1.3-6-0.1
		c-1.6,1.1-3-1.1-2.4-2.1s3-5.1,9.5-2.4c6.6,2.7,16.4,11.7,28.2,14.5C1048.1,214,1022.7,212.3,1022.7,212.3z M1030.9,199.1l26.2,0.6
		c0,0-2,1.8-1.7,5.5s3.7,6.9,7.7,7s4.9-4,3.6-5.5s-4.6-1.4-5.5-2.2s-1-4.4,4.5-4.2c5.6,0.2,6.1,4.7,6.1,6.3s-1,6.8-9.8,6.7
		C1053.3,213.2,1044.3,207.9,1030.9,199.1z M1097.9,188.2l1-1.5c1,3.2,3.6,4.5,5.5,3.3c1.9-1.1,2.5-2.6,1.6-4.2
		c-0.9-1.6,0.8-3,2.8-2.9s6.2,1.2,6.1,7.2s-7.1,6.3-9.9,6s-4.3-2.9-8.5-2.6C1099.5,191.3,1097.9,188.2,1097.9,188.2z M1096.3,200.2
		c5.5,0,7.5,4.8,7.4,8.1s-1.7,8.7-8,8.9s-28.8-1.5-28.8-1.5c15.9-5.3,7.2-15.9,7.2-15.9l12.1-0.5c0,0-1.6,2.5-1.5,5.3s3,5.3,5.4,4
		s1.4-3.3,1.1-4.5C1091,203,1090.8,200.2,1096.3,200.2z M1147.4,155.3c0,0-6.5-8.1-7.9-12.4c-3.9,3-4.7,12.1,3.7,17.2
		c-9.4-3-17.2-5.4-39.2,0.3c0.1-0.4,0-1,0-1s21.5-16.6,31.6-17.1s14.1,3.9,24.9,13C1156.2,155.6,1147.4,155.3,1147.4,155.3z
		 M1228.4,179.5l-2.9-9.3c0,0,4.6-0.2,4.5,0.6C1229.9,171.5,1228.4,179.5,1228.4,179.5z M1342.1,116.4l-4.6-9.5c0,0,1.5-0.4,3.1-0.4
		s2.1,0.5,2.1,1.7S1342.1,116.4,1342.1,116.4z"/>
	<polygon class="st2" points="1020.5,25.7 1027,45.4 1047.7,45.4 1030.9,57.6 1037.3,77.3 1020.5,65.1 1003.8,77.3 1010.2,57.6 
		993.4,45.4 1014.1,45.4 	"/>
	<polygon class="st2" points="538.2,101.8 544.6,121.6 565.4,121.6 548.6,133.7 555,153.5 538.2,141.3 521.4,153.5 527.8,133.7 
		511,121.6 531.8,121.6 	"/>
	<polygon class="st2" points="107,448.9 113.4,468.6 134.2,468.6 117.4,480.8 123.8,500.5 107,488.4 90.2,500.5 96.6,480.8 
		79.9,468.6 100.6,468.6 	"/>
	<polygon class="st2" points="1187.6,436.3 1194.1,456 1214.8,456 1198,468.2 1204.4,487.9 1187.6,475.7 1170.9,487.9 1177.3,468.2 
		1160.5,456 1181.2,456 	"/>
	<polygon class="st2" points="1304.8,288 1309.1,301.2 1323,301.2 1311.8,309.3 1316.1,322.6 1304.8,314.4 1293.6,322.6 
		1297.9,309.3 1286.6,301.2 1300.5,301.2 	"/>
	<polygon class="st2" points="728,230.8 732.3,244 746.2,244 735,252.1 739.2,265.3 728,257.2 716.8,265.3 721.1,252.1 709.8,244 
		723.7,244 	"/>
	<polygon class="st2" points="251.3,344.9 255.6,358.1 269.5,358.1 258.3,366.2 262.6,379.5 251.3,371.3 240.1,379.5 244.4,366.2 
		233.1,358.1 247,358.1 	"/>
	<polygon class="st2" points="359.2,68.6 363.5,81.8 377.4,81.8 366.1,89.9 370.4,103.2 359.2,95 347.9,103.2 352.2,89.9 341,81.8 
		354.9,81.8 	"/>
	<polygon class="st2" points="786.4,42.7 790.7,55.9 804.6,55.9 793.3,64.1 797.6,77.3 786.4,69.2 775.1,77.3 779.4,64.1 
		768.2,55.9 782.1,55.9 	"/>
	<path class="st1" d="M190.2,228.5c-35.6,0-64.5-28.9-64.5-64.5s28.9-64.5,64.5-64.5c1.3,0,2.6,0,3.9,0.1
		c-12.2-8.1-26.9-12.9-42.7-12.9c-42.6,0-77.2,34.6-77.2,77.2s34.6,77.2,77.2,77.2c15.8,0,30.5-4.7,42.7-12.9
		C192.8,228.4,191.5,228.5,190.2,228.5z"/>
</g>
<g>
	<linearGradient id="SVGID_1_" gradientUnits="userSpaceOnUse" x1="700" y1="627.5032" x2="700" y2="1100">
		<stop  offset="0" style="stop-color:#FFFFFF"/>
		<stop  offset="0.3995" style="stop-color:#FCFCFC"/>
		<stop  offset="1" style="stop-color:#9C9C9C"/>
	</linearGradient>
	<path class="st3" d="M0,863.7c0,0,230.3-236.2,699.6-236.2S1400,865,1400,865v235H0V863.7z"/>
	<linearGradient id="SVGID_2_" gradientUnits="userSpaceOnUse" x1="1050.9207" y1="716.1154" x2="1050.9207" y2="1100">
		<stop  offset="0.2714" style="stop-color:#FFFFFF"/>
		<stop  offset="1" style="stop-color:#B8B8B8"/>
	</linearGradient>
	<path class="st4" d="M1400,716.1c0,0-502.8,68.3-698.2,383.9c265.6,0,698.2,0,698.2,0V716.1z"/>
	<linearGradient id="SVGID_3_" gradientUnits="userSpaceOnUse" x1="516.7156" y1="1100" x2="516.7156" y2="724.5087">
		<stop  offset="0.3266" style="stop-color:#FFFFFF"/>
		<stop  offset="0.5288" style="stop-color:#FBFBFB"/>
		<stop  offset="0.7372" style="stop-color:#EEEEEE"/>
		<stop  offset="0.9478" style="stop-color:#DADADA"/>
		<stop  offset="1" style="stop-color:#D4D4D4"/>
	</linearGradient>
	<path class="st5" d="M0,724.5c201.8,7.1,758.1,132.4,1033.4,375.5C728,1100,0,1100,0,1100V724.5z"/>
</g>
<g>
	<rect x="267" y="898.2" class="st6" width="866" height="23.3"/>
	<g>
		<rect x="308.3" y="563.1" class="st7" width="748.6" height="335.1"/>
		<rect x="308.3" y="283" class="st8" width="783.4" height="280.1"/>
		<polygon class="st7" points="930,283 768.3,563.1 768.3,898.2 1091.7,898.2 1091.7,563.1 		"/>
		<rect x="829.5" y="576.2" class="st1" width="95.1" height="95.1"/>
		<rect x="935.5" y="576.2" class="st1" width="95.1" height="95.1"/>
		<rect x="829.5" y="706.3" class="st1" width="201.1" height="95.1"/>
		<polygon class="st7" points="470,283 308.3,563.1 308.3,898.2 631.7,898.2 631.7,563.1 		"/>
		<rect x="369.5" y="576.2" class="st1" width="95.1" height="95.1"/>
		<rect x="475.5" y="576.2" class="st1" width="95.1" height="95.1"/>
		<rect x="369.5" y="706.3" class="st1" width="201.1" height="95.1"/>
		<rect x="506.3" y="178.5" class="st6" width="63.8" height="104.5"/>
		<rect x="631.7" y="563.1" class="st9" width="136.5" height="335.1"/>
		<rect x="662.6" y="774.7" class="st2" width="74.9" height="123.5"/>
	</g>
	<rect x="663.8" y="611.6" class="st1" width="72.5" height="72.5"/>
</g>
<g>
	<path class="st10" d="M1201.5,935.9c-3.4-0.2-14.5,0.5-15.3,0.5s-18.4-14.4-20.6-15.5s-8.6-2.8-8.6-2.8s1.9-6,1.9-6.4
		s-5.4,5.1-6,5.1c-0.5,0-2.8-4-2.6-7c0.2-3,1-7.4,0.3-8.6c-0.7-1.2-7-3.6-8.1-4.2s5.1,3.7,5.1,5.7c0.1,2-1,8.4,0.5,11.4
		c-6.5-4.6-10.8-7.7-13.4-7.7c-2.6,0-12.4,1.4-12.4,1.4s11,0.7,12.5,0.8c1.5,0.2,12.3,9.7,14.7,11.6c2.4,1.9,12.1,3,13.1,3.8
		c1,0.8,18.9,17.4,21.1,18.8s18.3,1.4,19.5,1.2C1204.5,943.8,1209.6,936.4,1201.5,935.9z"/>
	<circle class="st1" cx="1247.2" cy="971.1" r="68.2"/>
	<circle class="st1" cx="1247.2" cy="875.8" r="37.9"/>
	<path class="st2" d="M1231.9,868c-8.6-0.7-31.3,4.2-39.3,8.3c-8,4.2,41.1,3.8,44,3.1C1239.4,878.8,1241.9,868.8,1231.9,868z"/>
	<circle cx="1249.9" cy="861.6" r="4.5"/>
	<circle cx="1226.1" cy="861.6" r="4.5"/>
	<path class="st2" d="M1219.3,850.1c5.2-0.2,18.2-0.9,22,0c3.9,0.9,14.3,1.4,20.9,1.6s11,2.7,15.7,1.9c4.7-0.8,6.2-9.8,0-14.9
		s-15.5-4-21.2-5.7s-16.1-1.5-20,0c-3.9,1.5-9.1,0.3-13.4,2.1S1210.2,850.5,1219.3,850.1z"/>
	<circle class="st2" cx="1314.6" cy="832.6" r="6.9"/>
	<path class="st11" d="M1226.1,834.4c2-12.5,13.9-37.5,41.9-37.5s44.9,17.6,48,30.5c-2.2,6.9-6.2,4.6-6.2,4.6l-1.6-2.5
		c0,0-10.7-10-20.9-6.8s-9.3,16.1-9.3,16.1s-9.6-0.6-10.9-0.9s-23.6-3.3-27.9-2.7S1226.1,834.4,1226.1,834.4z"/>
	<circle cx="1217.4" cy="1006.2" r="4.8"/>
	<circle cx="1206" cy="986.2" r="4.1"/>
	<circle cx="1205" cy="962.1" r="3.1"/>
	<circle cx="1215.5" cy="936.9" r="3.1"/>
	<path class="st11" d="M1279.9,895.5c1.2-0.9,2.6,0.3,1,3.6s3.7,10.8,5.2,12.2c1.4,1.4,3.6,5.1-10.3,8.5c-13.8,3.4-32,7.1-51.3,1.5
		c-19.3-5.6-19.4-7.8-19.3-9.2c0.1-1.4,6.1-1.7,9.1-6.4c3.1-4.7-1.4-6.7,1.8-7.8c3.3-1.1,10.9,6.4,29.5,7S1278,896.8,1279.9,895.5z"
		/>
	<path class="st11" d="M1249.3,924.3c7.9,9.7,9.2,24.2,0,34.5c-9.2,10.3-11.2,16.2-11.2,16.2s13.3-0.7,17.6,5.4
		c1.8-11.2,7.1-21.3,8.8-30.7c1.6-9.4-8.3-26-8.3-26s-3.4-3.1-6.4-3.1C1246.8,920.5,1249.3,924.3,1249.3,924.3z"/>
	<path class="st11" d="M1258.5,921.4c1.6,3.1,10,17.2,10.2,26.4c0.2,9.2-4.1,17.1-4.6,21.9c4.3-1.3,8.4,0,8.4,0s3.2-14,2.2-24.1
		c-1-10.1-11.4-25.6-12.4-26.7C1261.4,917.7,1256.7,918,1258.5,921.4z"/>
	<path class="st10" d="M1294.2,942.7c3.7-0.1,9.3,0.3,9.9,0c0.6-0.3,17.4-5,18.3-5.6c0.9-0.5,17.2-17.2,19.1-19.3
		c1.8-2.1,18.2-14.5,19.6-14.9c1.4-0.4,13,1.1,13.9,1.6c0.9,0.5-10.4,1.5-12.4,2.1s-14.8,11.2-15.4,11.2c-0.5,0,4.4,1.1,5.7,1
		c1.4,0,9.2-1.3,11.4-1.4s15.3,3.8,16.2,3.8c0.9,0-15.1-0.3-16.6-0.5s-11.6,3.1-14.6,2.5c-2.9-0.5-6.5-1.3-6.5-1.3
		s-14.8,17.8-15.6,18.5s-21.1,9.6-23.6,9.6c-2.5,0-7.5-0.4-9.1-0.4S1290.7,942.8,1294.2,942.7z"/>
</g>
<g>
	<g>
		<path class="st12" d="M723.6,819.7c-1.1-0.6-1.9-1.8-1.9-3.2c0-1.2,0.5-2.2,1.4-2.9c-1.5-0.5-2.6-1.9-2.6-3.5
			c0-0.8,0.2-1.5,0.6-2.1c-1.9-0.2-3.3-1.7-3.3-3.7c0-0.4,0.1-0.8,0.2-1.2c-0.2,0-0.3,0-0.5,0c-2,0-3.7-1.6-3.7-3.7
			c0-0.1,0-0.2,0-0.3c-0.4,0.2-0.9,0.3-1.4,0.3c-1.9,0-3.4-1.4-3.6-3.2c-0.6,0.5-1.4,0.8-2.2,0.8c-1.6,0-3-1-3.5-2.5
			c-0.7,1-1.8,1.6-3,1.6c-1.3,0-2.4-0.7-3.1-1.7c-0.5,1.4-1.9,2.5-3.5,2.5c-0.9,0-1.7-0.3-2.3-0.8c-0.3,1.8-1.8,3.1-3.6,3.1
			c-0.5,0-1-0.1-1.4-0.3c0,0.1,0,0.2,0,0.3c0,2-1.6,3.7-3.7,3.7c-0.2,0-0.4,0-0.5,0c0.1,0.4,0.2,0.8,0.2,1.2c0,1.9-1.5,3.5-3.4,3.7
			c0.4,0.6,0.6,1.3,0.6,2c0,1.7-1.1,3.1-2.6,3.5c0.8,0.7,1.4,1.7,1.4,2.8c0,1.4-0.8,2.6-1.9,3.2c1.3,0.5,2.3,1.9,2.3,3.4
			c0,1-0.4,1.8-1,2.5c1.7,0.3,3,1.8,3,3.6c0,0.6-0.1,1.1-0.4,1.6c0,0,0,0,0.1,0c2,0,3.7,1.6,3.7,3.7c0,0.3,0,0.5-0.1,0.8
			c0.3-0.1,0.6-0.1,0.9-0.1c2,0,3.6,1.6,3.7,3.6c0.5-0.3,1.2-0.5,1.8-0.5c1.7,0,3.2,1.2,3.6,2.8c0.7-0.7,1.6-1.1,2.7-1.1
			c1.5,0,2.8,0.9,3.3,2.1c0.6-1.2,1.9-2.1,3.3-2.1c1.1,0,2,0.5,2.7,1.2c0.4-1.6,1.8-2.8,3.6-2.8c0.7,0,1.3,0.2,1.9,0.5
			c0.1-2,1.7-3.5,3.7-3.5c0.3,0,0.7,0,1,0.1c0-0.2-0.1-0.5-0.1-0.7c0-2,1.6-3.7,3.7-3.7c0,0,0.1,0,0.1,0c-0.2-0.5-0.4-1-0.4-1.6
			c0-1.8,1.3-3.3,3-3.6c-0.6-0.7-0.9-1.5-0.9-2.4C721.3,821.5,722.2,820.2,723.6,819.7z M714.1,820.4c0,0.9-0.6,1.6-1.5,1.8
			c0.3,0.3,0.5,0.7,0.5,1.2c0,1-0.8,1.8-1.8,1.8c0,0,0,0-0.1,0c0.1,0.2,0.2,0.5,0.2,0.8c0,1-0.8,1.8-1.8,1.8c-0.2,0-0.3,0-0.5-0.1
			c0,0.1,0,0.2,0,0.4c0,1-0.8,1.8-1.8,1.8c-0.3,0-0.6-0.1-0.9-0.2c0,1-0.8,1.7-1.8,1.7c-0.5,0-1-0.2-1.3-0.6
			c-0.2,0.8-0.9,1.4-1.8,1.4c-0.7,0-1.4-0.4-1.6-1.1c-0.3,0.6-0.9,1-1.6,1c-0.9,0-1.6-0.6-1.8-1.4c-0.3,0.3-0.8,0.6-1.3,0.6
			c-1,0-1.8-0.8-1.8-1.8c-0.3,0.1-0.6,0.2-0.9,0.2c-1,0-1.8-0.8-1.8-1.8c0-0.1,0-0.3,0-0.4c-0.1,0-0.3,0.1-0.5,0.1
			c-1,0-1.8-0.8-1.8-1.8c0-0.3,0.1-0.6,0.2-0.8c0,0,0,0,0,0c-1,0-1.8-0.8-1.8-1.8c0-0.5,0.2-0.9,0.5-1.2c-0.8-0.2-1.5-0.9-1.5-1.8
			c0-0.7,0.4-1.3,0.9-1.6c-0.7-0.3-1.1-0.9-1.1-1.7c0-0.8,0.5-1.5,1.3-1.7c-0.4-0.3-0.7-0.8-0.7-1.4c0-1,0.7-1.7,1.7-1.8
			c-0.2-0.3-0.3-0.6-0.3-1c0-1,0.8-1.8,1.8-1.8c0.1,0,0.2,0,0.3,0c-0.1-0.2-0.1-0.4-0.1-0.6c0-1,0.8-1.8,1.8-1.8
			c0.2,0,0.5,0,0.7,0.1c0,0,0-0.1,0-0.1c0-1,0.8-1.8,1.8-1.8c0.4,0,0.8,0.1,1.1,0.4c0.1-0.9,0.9-1.6,1.8-1.6c0.6,0,1.2,0.3,1.5,0.8
			c0.2-0.7,0.9-1.2,1.7-1.2c0.8,0,1.5,0.5,1.7,1.2c0.3-0.5,0.9-0.8,1.5-0.8c0.9,0,1.7,0.7,1.8,1.6c0.3-0.2,0.7-0.4,1.1-0.4
			c1,0,1.8,0.8,1.8,1.8c0,0.1,0,0.1,0,0.2c0.2-0.1,0.4-0.1,0.7-0.1c1,0,1.8,0.8,1.8,1.8c0,0.2,0,0.4-0.1,0.6c0.1,0,0.2,0,0.2,0
			c1,0,1.8,0.8,1.8,1.8c0,0.4-0.1,0.7-0.3,1c0.9,0.1,1.6,0.9,1.6,1.8c0,0.6-0.3,1.1-0.7,1.4c0.7,0.2,1.3,0.9,1.3,1.7
			c0,0.8-0.5,1.4-1.1,1.7C713.7,819.2,714.1,819.8,714.1,820.4z"/>
	</g>
	<circle class="st1" cx="685.6" cy="804.9" r="1.6"/>
	<circle class="st1" cx="688.9" cy="832.2" r="1.6"/>
	<circle class="st1" cx="716.5" cy="813" r="1.6"/>
	<circle class="st11" cx="681" cy="817.4" r="0.7"/>
	<circle class="st11" cx="682" cy="816" r="0.7"/>
	<circle class="st11" cx="682.9" cy="817.4" r="0.7"/>
	<circle class="st11" cx="705.5" cy="834.8" r="0.7"/>
	<circle class="st11" cx="706.5" cy="833.4" r="0.7"/>
	<circle class="st11" cx="707.4" cy="834.8" r="0.7"/>
	<circle class="st11" cx="718" cy="819.5" r="0.7"/>
	<circle class="st11" cx="719" cy="818.1" r="0.7"/>
	<circle class="st11" cx="681.2" cy="828.4" r="1.3"/>
	<circle class="st11" cx="716.5" cy="830.2" r="1.5"/>
	<circle class="st11" cx="716.5" cy="803.5" r="1.3"/>
	<path class="st11" d="M713.5,790.6c-4.8-0.4-10.3,4.3-10.3,4.3c-0.6-1-1.7-1.2-2.3-1c-0.6,0.2-0.6,0.2-0.8,0.2s-0.2-0.1-0.8-0.2
		c-0.6-0.2-1.7,0-2.3,1c0,0-5.6-4.8-10.3-4.3c-4.8,0.4-2.5,8-1.5,8.8c1,0.8,0.8,3.4,2,4c1.2,0.6,5.1,0.1,9.4-2.5
		c-0.3,5.6-1.3,22.8-1.3,22.8s1.2-4,2.3-4.1c1.1,0,1.6,2.1,1.6,2.1l0.5-20c0.1,0,0.3-0.1,0.4-0.1c0.4,0,0.6,0.1,1.1,0.4
		c0.1,0.1,0.3,0.1,0.5,0.2l0.6,23.1c0,0,1.2-2.1,1.8-2.2s1.8,1.3,1.8,1.3l-1.3-23c3.9,2.1,7.4,2.6,8.5,2c1.2-0.6,1-3.2,2-4
		S718.2,791.1,713.5,790.6z"/>
</g>
<g>
	<rect x="308.3" y="563.1" class="st1" width="25.5" height="335.1"/>
	<g>
		<polygon class="st11" points="333.8,627 333.8,614.5 308.3,624.6 308.3,637.1 		"/>
		<polygon class="st11" points="333.8,653.3 333.8,640.8 308.3,650.9 308.3,663.4 		"/>
		<polygon class="st11" points="333.8,706 333.8,693.4 308.3,703.5 308.3,716 		"/>
		<polygon class="st11" points="333.8,679.7 333.8,667.1 308.3,677.2 308.3,689.7 		"/>
		<polygon class="st11" points="333.8,574.4 333.8,563.1 330.8,563.1 308.3,572 308.3,584.5 		"/>
		<polygon class="st11" points="333.8,877.6 308.3,887.7 308.3,898.2 313.4,898.2 333.8,890.1 		"/>
		<polygon class="st11" points="333.8,600.7 333.8,588.2 308.3,598.3 308.3,610.8 		"/>
		<polygon class="st11" points="333.8,732.3 333.8,719.7 308.3,729.8 308.3,742.3 		"/>
		<polygon class="st11" points="333.8,811.2 333.8,798.7 308.3,808.7 308.3,821.3 		"/>
		<polygon class="st11" points="333.8,863.8 333.8,851.3 308.3,861.4 308.3,873.9 		"/>
		<polygon class="st11" points="333.8,837.5 333.8,825 308.3,835.1 308.3,847.6 		"/>
		<polygon class="st11" points="333.8,784.9 333.8,772.4 308.3,782.4 308.3,795 		"/>
		<polygon class="st11" points="333.8,758.6 333.8,746.1 308.3,756.1 308.3,768.7 		"/>
	</g>
</g>
<g>
	
		<rect x="1066.2" y="563.1" transform="matrix(-1 -4.493218e-11 4.493218e-11 -1 2157.855 1461.3)" class="st1" width="25.5" height="335.1"/>
	<g>
		<polygon class="st11" points="1066.2,627 1066.2,614.5 1091.7,624.6 1091.7,637.1 		"/>
		<polygon class="st11" points="1066.2,653.3 1066.2,640.8 1091.7,650.9 1091.7,663.4 		"/>
		<polygon class="st11" points="1066.2,706 1066.2,693.4 1091.7,703.5 1091.7,716 		"/>
		<polygon class="st11" points="1066.2,679.7 1066.2,667.1 1091.7,677.2 1091.7,689.7 		"/>
		<polygon class="st11" points="1066.2,574.4 1066.2,563.1 1069.2,563.1 1091.7,572 1091.7,584.5 		"/>
		<polygon class="st11" points="1066.2,877.6 1091.7,887.7 1091.7,898.2 1086.6,898.2 1066.2,890.1 		"/>
		<polygon class="st11" points="1066.2,600.7 1066.2,588.2 1091.7,598.3 1091.7,610.8 		"/>
		<polygon class="st11" points="1066.2,732.3 1066.2,719.7 1091.7,729.8 1091.7,742.3 		"/>
		<polygon class="st11" points="1066.2,811.2 1066.2,798.7 1091.7,808.7 1091.7,821.3 		"/>
		<polygon class="st11" points="1066.2,863.8 1066.2,851.3 1091.7,861.4 1091.7,873.9 		"/>
		<polygon class="st11" points="1066.2,837.5 1066.2,825 1091.7,835.1 1091.7,847.6 		"/>
		<polygon class="st11" points="1066.2,784.9 1066.2,772.4 1091.7,782.4 1091.7,795 		"/>
		<polygon class="st11" points="1066.2,758.6 1066.2,746.1 1091.7,756.1 1091.7,768.7 		"/>
	</g>
</g>
<g>
	<g>
		<path class="st12" d="M359.5,894.6c-31.8,2.6-56.2-2.7-71-24.9c28.9-9.7,38.5-38.9,38.5-38.9s-51.4,20.6-71.7-24.8
			c28.5-5.2,40.8-23.3,40.8-23.3s-45.5-2.3-64.2-49.1c20.5,0.3,42.6-21.9,42.6-21.9s-41.3-6-56-26.3c22.7-14.4,29-31,29-31
			s-23.5,1.9-36.3-19.4c16.3-0.3,22.3-10.8,22.3-10.8s-17.5-2.3-44.1-57.7c-26.6,55.4-44.1,57.7-44.1,57.7s6,10.5,22.3,10.8
			c-12.8,21.3-36.3,19.4-36.3,19.4s6.3,16.6,29,31c-14.7,20.3-56,26.3-56,26.3s22.1,22.2,42.6,21.9c-18.7,46.8-64.2,49.1-64.2,49.1
			s12.3,18,40.8,23.3C103.4,851.3,52,830.7,52,830.7s9.6,29.2,38.5,38.9c-14.8,22.2-39.3,27.5-71,24.9c5.4,11.6,23.9,32.5,51.9,36
			c-19.9,5.2-13.5,17.2,41.1,4.6c17.1,34.4,59.9,14.1,59.9,14.1v28h17.1h17.1v-28c0,0,42.9,20.2,59.9-14.1
			c54.6,12.6,61,0.6,41.1-4.6C335.6,927.1,354.1,906.1,359.5,894.6z"/>
		<polygon class="st11" points="128.3,843.9 127.6,848.8 132.1,851 127.2,851.8 126.6,856.7 124.2,852.4 119.4,853.3 122.8,849.7 
			120.4,845.3 124.9,847.5 		"/>
		<polygon class="st11" points="170,914.7 171.3,919.5 176.3,919.6 172.2,922.4 173.5,927.2 169.6,924.1 165.5,926.9 167.2,922.2 
			163.3,919.2 168.3,919.3 		"/>
		<polygon class="st11" points="267.3,778.6 264.8,782.9 268,786.6 263.2,785.5 260.7,789.8 260.2,784.9 255.4,783.8 259.9,781.8 
			259.5,776.9 262.8,780.6 		"/>
		<polygon class="st11" points="172.5,678.2 168.5,681.2 170.1,685.9 166,683 162.1,686 163.5,681.2 159.5,678.4 164.4,678.3 
			165.9,673.6 167.5,678.3 		"/>
		<polygon class="st11" points="196.5,857.7 197.3,859.5 199.3,859.3 197.9,860.6 198.7,862.4 197,861.5 195.5,862.8 195.9,860.9 
			194.2,859.9 196.1,859.7 		"/>
		<polygon class="st13" points="244,903 245.4,904.4 247.2,903.4 246.3,905.2 247.8,906.6 245.8,906.3 244.9,908.1 244.6,906.2 
			242.6,905.9 244.3,905 		"/>
		<polygon class="st11" points="231.5,910.9 232.3,912.7 234.3,912.5 232.8,913.8 233.7,915.6 231.9,914.7 230.5,916 230.9,914.1 
			229.1,913.1 231.1,912.9 		"/>
		<polygon class="st13" points="153,853.5 153.8,855.3 155.8,855.1 154.3,856.4 155.1,858.2 153.4,857.3 152,858.6 152.3,856.7 
			150.6,855.7 152.6,855.5 		"/>
		<polygon class="st13" points="77.1,888.3 76.3,890.1 77.8,891.4 75.8,891.2 75,893 74.6,891.1 72.6,890.8 74.4,889.9 73.9,887.9 
			75.4,889.3 		"/>
		<polygon class="st11" points="134.5,914.9 134.9,916.8 136.9,917 135.2,918 135.6,920 134.1,918.7 132.5,919.7 133.2,917.9 
			131.7,916.6 133.7,916.7 		"/>
		<polygon class="st13" points="113.4,920 113.9,921.9 115.9,922.1 114.2,923.1 114.6,925 113.1,923.7 111.4,924.7 112.2,922.9 
			110.7,921.6 112.7,921.8 		"/>
		<polygon class="st13" points="144.9,925.1 145.3,927 147.3,927.2 145.6,928.2 146,930.2 144.5,928.9 142.8,929.9 143.6,928.1 
			142.1,926.8 144.1,926.9 		"/>
		<polygon class="st11" points="231.5,796 232.3,797.8 234.3,797.6 232.8,798.9 233.7,800.7 231.9,799.8 230.5,801.1 230.9,799.2 
			229.1,798.2 231.1,798 		"/>
		<polygon class="st13" points="268.5,834.9 269.3,836.7 271.3,836.5 269.8,837.8 270.7,839.6 268.9,838.6 267.5,840 267.9,838 
			266.1,837.1 268.1,836.8 		"/>
		<polygon class="st13" points="126.2,809.1 126.3,811 128.3,811.5 126.4,812.3 126.6,814.2 125.3,812.7 123.5,813.5 124.5,811.8 
			123.2,810.3 125.1,810.8 		"/>
		<polygon class="st11" points="145.4,807.7 146.2,809.5 148.2,809.3 146.7,810.6 147.5,812.4 145.8,811.4 144.3,812.7 144.7,810.8 
			143,809.8 145,809.6 		"/>
		<polygon class="st13" points="217.9,753.5 218.4,755.4 220.4,755.6 218.7,756.6 219.1,758.5 217.6,757.2 215.9,758.3 216.7,756.5 
			215.2,755.2 217.2,755.3 		"/>
		<polygon class="st11" points="167.3,749.2 167.8,751.1 169.8,751.2 168.1,752.3 168.5,754.2 167,752.9 165.3,754 166.1,752.1 
			164.6,750.8 166.6,751 		"/>
		<polygon class="st11" points="221.2,655.1 222.6,656.5 224.4,655.5 223.5,657.3 225,658.7 223,658.4 222.2,660.2 221.8,658.3 
			219.8,658 221.6,657.1 		"/>
		<polygon class="st13" points="230.5,653.2 231.9,654.5 233.7,653.6 232.8,655.4 234.3,656.7 232.3,656.5 231.5,658.3 231.1,656.3 
			229.1,656.1 230.9,655.1 		"/>
		<polygon class="st13" points="195.4,677.2 196.3,679 198.3,678.6 196.9,680.1 197.8,681.8 196,680.9 194.6,682.3 194.9,680.4 
			193.2,679.5 195.1,679.2 		"/>
		<polygon class="st13" points="242.6,789.5 243.6,791.2 245.6,790.7 244.3,792.2 245.3,793.9 243.5,793.1 242.1,794.6 242.3,792.7 
			240.5,791.9 242.4,791.4 		"/>
		<polygon class="st13" points="153.1,810.8 153.8,812.7 155.8,812.6 154.2,813.8 155,815.7 153.3,814.6 151.8,815.9 152.3,814 
			150.6,812.9 152.6,812.8 		"/>
		<polygon class="st11" points="258.9,851.3 259.8,853.1 261.7,852.9 260.3,854.2 261.1,856 259.4,855.1 257.9,856.4 258.3,854.5 
			256.6,853.5 258.5,853.3 		"/>
		<polygon class="st13" points="220.8,865.5 221.9,868 224.7,867.7 222.7,869.6 223.9,872.2 221.4,870.8 219.3,872.7 219.9,869.9 
			217.4,868.6 220.2,868.2 		"/>
		<circle class="st11" cx="108.7" cy="838.2" r="5.7"/>
		<circle class="st1" cx="140.9" cy="856.5" r="2.1"/>
		<circle class="st0" cx="159.2" cy="863.1" r="2.1"/>
		<circle class="st0" cx="148.2" cy="923" r="2.1"/>
		<circle class="st1" cx="123.2" cy="920.9" r="2.1"/>
		<circle class="st0" cx="79.9" cy="900.9" r="2.1"/>
		<circle class="st1" cx="254.5" cy="794.6" r="2.1"/>
		<circle class="st1" cx="265.4" cy="847.4" r="2.1"/>
		<circle class="st0" cx="136.8" cy="813.4" r="2.1"/>
		<circle class="st0" cx="229.6" cy="863.1" r="2.1"/>
		<circle class="st0" cx="217.4" cy="913.5" r="2.1"/>
		<circle class="st0" cx="289.3" cy="884.9" r="2.1"/>
		<circle class="st1" cx="277.8" cy="896.2" r="2.1"/>
		<circle class="st1" cx="194.6" cy="808.8" r="2.1"/>
		<circle class="st1" cx="189.5" cy="753.1" r="2.1"/>
		<circle class="st0" cx="161.7" cy="746.6" r="2.1"/>
		<circle class="st0" cx="180.5" cy="681" r="2.1"/>
		<circle class="st1" cx="149.3" cy="741.9" r="2.1"/>
		<circle class="st1" cx="187.9" cy="676.9" r="2.1"/>
		<circle class="st0" cx="182.6" cy="810.8" r="2.1"/>
		<circle class="st0" cx="234.3" cy="756" r="2.1"/>
		<circle class="st0" cx="219.9" cy="667.5" r="2.1"/>
		<circle class="st11" cx="206.6" cy="866.1" r="3"/>
		<circle class="st11" cx="245.2" cy="856.5" r="5.2"/>
		<circle class="st11" cx="195.8" cy="920" r="5.2"/>
		<circle class="st11" cx="204.6" cy="753.1" r="5.2"/>
		<circle class="st11" cx="169.8" cy="812.1" r="5.2"/>
		<circle class="st11" cx="207.4" cy="670.6" r="5.2"/>
		<circle class="st11" cx="182.2" cy="866.1" r="9.6"/>
		<circle class="st11" cx="97.5" cy="913.5" r="9.6"/>
		<circle class="st11" cx="263.3" cy="903.7" r="9.6"/>
		<circle class="st11" cx="213.2" cy="802.1" r="9.6"/>
		<polygon class="st2" points="189.5,538.6 194.3,553.4 209.8,553.4 197.2,562.6 202.1,577.4 189.5,568.2 176.9,577.4 181.7,562.6 
			169.1,553.4 184.6,553.4 		"/>
	</g>
	<g>
		<g>
			<rect x="220.2" y="980.1" class="st11" width="37.4" height="28"/>
			<path class="st11" d="M239.1,970.7c0,0-2.6-2.9-7.7-4.7c0.4,1.2,0.4,2.9,0.4,2.9l-3.2,1.6c0,0,5.5,1.2,8.2,2.2
				c2.7,1,4.5,0.8,5.8-0.6s6.6-5.1,6.6-5.1l-3.8-0.3l-0.5-3.2C244.9,963.7,240.6,966.8,239.1,970.7z"/>
			<g>
				<polygon class="st1" points="245.6,980.1 242.7,980.1 226.4,1008.1 229.3,1008.1 				"/>
				<polygon class="st1" points="225.3,980.1 222.4,980.1 220.2,983.9 220.2,988.9 				"/>
				<polygon class="st1" points="235.9,980.1 220.2,1007.2 220.2,1008.1 222.6,1008.1 238.8,980.1 				"/>
				<polygon class="st1" points="232.1,980.1 229.2,980.1 220.2,995.6 220.2,1000.5 				"/>
				<polygon class="st1" points="257.6,994.4 257.6,989.4 246.7,1008.1 249.6,1008.1 				"/>
				<polygon class="st1" points="257.6,1006 257.6,1001.1 253.5,1008.1 256.4,1008.1 				"/>
				<polygon class="st1" points="257.6,982.7 257.6,980.1 256.2,980.1 240,1008.1 242.8,1008.1 				"/>
				<polygon class="st1" points="252.3,980.1 249.5,980.1 233.2,1008.1 236.1,1008.1 				"/>
			</g>
			<path class="st8" d="M254,982.2h-30.3c-2.7,0-4.8-2.2-4.8-4.8v-0.7c0-2.7,2.2-4.8,4.8-4.8H254c2.7,0,4.8,2.2,4.8,4.8v0.7
				C258.9,980,256.7,982.2,254,982.2z"/>
		</g>
		<g>
			<rect x="159.6" y="974.1" class="st8" width="53.8" height="42.3"/>
			<rect x="157.4" y="966.8" class="st14" width="58.1" height="11.6"/>
			<rect x="159.6" y="986.4" class="st15" width="53.8" height="8.8"/>
			<path class="st15" d="M186.5,965c-7.2-24.2-20.5-10.6-19.6-5.3c0.9,5.3,11.9,7,15.2,7v49.6h8.8v-49.6c3.3,0,14.3-1.8,15.2-7
				C207,954.4,193.8,940.8,186.5,965z M171.8,957.9c-0.4-3.6,6-4.5,9.5,0.5c2.6,3.6,3.2,6.5,3.2,6.5
				C181.1,963.8,172.2,961.5,171.8,957.9z M201.2,957.9c-0.4,3.6-9.3,5.9-12.6,6.9c0,0,0.6-2.9,3.2-6.5
				C195.2,953.4,201.6,954.2,201.2,957.9z"/>
		</g>
		<g>
			<rect x="105.6" y="981.3" class="st11" width="49.4" height="30.8"/>
			<path class="st11" d="M130.6,969c0,0-3.4-3.9-10.1-6.2c0.5,1.6,0.5,3.9,0.5,3.9l-4.2,2.1c0,0,7.3,1.6,10.8,3c3.6,1.4,6,1,7.6-0.7
				c1.6-1.8,8.7-6.7,8.7-6.7l-5.1-0.4l-0.6-4.2C138.3,959.6,132.6,963.8,130.6,969z"/>
			<path class="st1" d="M114.6,1010h-5.9c-1.8,0-3.2-1.4-3.2-3.2v-0.8c0-1.8,1.4-3.2,3.2-3.2h5.9c1.8,0,3.2,1.4,3.2,3.2v0.8
				C117.8,1008.6,116.4,1010,114.6,1010z"/>
			<path class="st1" d="M151.8,1010H146c-1.8,0-3.2-1.4-3.2-3.2v-0.8c0-1.8,1.4-3.2,3.2-3.2h5.9c1.8,0,3.2,1.4,3.2,3.2v0.8
				C155,1008.6,153.6,1010,151.8,1010z"/>
			<path class="st1" d="M133.2,1010h-5.9c-1.8,0-3.2-1.4-3.2-3.2v-0.8c0-1.8,1.4-3.2,3.2-3.2h5.9c1.8,0,3.2,1.4,3.2,3.2v0.8
				C136.4,1008.6,135,1010,133.2,1010z"/>
			<path class="st1" d="M114.6,999.7h-5.9c-1.8,0-3.2-1.4-3.2-3.2v-0.8c0-1.8,1.4-3.2,3.2-3.2h5.9c1.8,0,3.2,1.4,3.2,3.2v0.8
				C117.8,998.2,116.4,999.7,114.6,999.7z"/>
			<path class="st1" d="M151.8,999.7H146c-1.8,0-3.2-1.4-3.2-3.2v-0.8c0-1.8,1.4-3.2,3.2-3.2h5.9c1.8,0,3.2,1.4,3.2,3.2v0.8
				C155,998.2,153.6,999.7,151.8,999.7z"/>
			<path class="st1" d="M133.2,999.7h-5.9c-1.8,0-3.2-1.4-3.2-3.2v-0.8c0-1.8,1.4-3.2,3.2-3.2h5.9c1.8,0,3.2,1.4,3.2,3.2v0.8
				C136.4,998.2,135,999.7,133.2,999.7z"/>
			<path class="st8" d="M150.4,984.2h-40.3c-3.5,0-6.3-2.8-6.3-6.3v-1.2c0-3.5,2.8-6.3,6.3-6.3h40.3c3.5,0,6.3,2.8,6.3,6.3v1.2
				C156.7,981.3,153.9,984.2,150.4,984.2z"/>
		</g>
	</g>
</g>
<g>
	<rect x="654.1" y="774.7" class="st1" width="8.4" height="123.5"/>
	<g>
		<polygon class="st11" points="662.5,798.3 662.5,793.6 654.1,797.4 654.1,802 		"/>
		<polygon class="st11" points="662.5,808 662.5,803.3 654.1,807.1 654.1,811.7 		"/>
		<polygon class="st11" points="662.5,827.4 662.5,822.7 654.1,826.4 654.1,831.1 		"/>
		<polygon class="st11" points="662.5,817.7 662.5,813 654.1,816.8 654.1,821.4 		"/>
		<polygon class="st11" points="662.5,778.9 662.5,774.7 661.5,774.7 654.1,778 654.1,782.6 		"/>
		<polygon class="st11" points="662.5,890.6 654.1,894.3 654.1,898.2 655.7,898.2 662.5,895.2 		"/>
		<polygon class="st11" points="662.5,788.6 662.5,784 654.1,787.7 654.1,792.3 		"/>
		<polygon class="st11" points="662.5,837 662.5,832.4 654.1,836.1 654.1,840.8 		"/>
		<polygon class="st11" points="662.5,866.1 662.5,861.5 654.1,865.2 654.1,869.8 		"/>
		<polygon class="st11" points="662.5,885.5 662.5,880.9 654.1,884.6 654.1,889.2 		"/>
		<polygon class="st11" points="662.5,875.8 662.5,871.2 654.1,874.9 654.1,879.5 		"/>
		<polygon class="st11" points="662.5,856.4 662.5,851.8 654.1,855.5 654.1,860.2 		"/>
		<polygon class="st11" points="662.5,846.7 662.5,842.1 654.1,845.8 654.1,850.5 		"/>
	</g>
	<path class="st1" d="M658.3,770.5c-2.3,0-4.2,1.9-4.2,4.2h8.4C662.5,772.4,660.6,770.5,658.3,770.5z"/>
</g>
<g>
	
		<rect x="737.4" y="774.7" transform="matrix(-1 -4.490598e-11 4.490598e-11 -1 1483.2255 1672.9)" class="st1" width="8.4" height="123.5"/>
	<g>
		<polygon class="st11" points="737.4,798.3 737.4,793.6 745.8,797.4 745.8,802 		"/>
		<polygon class="st11" points="737.4,808 737.4,803.3 745.8,807.1 745.8,811.7 		"/>
		<polygon class="st11" points="737.4,827.4 737.4,822.7 745.8,826.4 745.8,831.1 		"/>
		<polygon class="st11" points="737.4,817.7 737.4,813 745.8,816.8 745.8,821.4 		"/>
		<polygon class="st11" points="737.4,778.9 737.4,774.7 738.4,774.7 745.8,778 745.8,782.6 		"/>
		<polygon class="st11" points="737.4,890.6 745.8,894.3 745.8,898.2 744.2,898.2 737.4,895.2 		"/>
		<polygon class="st11" points="737.4,788.6 737.4,784 745.8,787.7 745.8,792.3 		"/>
		<polygon class="st11" points="737.4,837 737.4,832.4 745.8,836.1 745.8,840.8 		"/>
		<polygon class="st11" points="737.4,866.1 737.4,861.5 745.8,865.2 745.8,869.8 		"/>
		<polygon class="st11" points="737.4,885.5 737.4,880.9 745.8,884.6 745.8,889.2 		"/>
		<polygon class="st11" points="737.4,875.8 737.4,871.2 745.8,874.9 745.8,879.5 		"/>
		<polygon class="st11" points="737.4,856.4 737.4,851.8 745.8,855.5 745.8,860.2 		"/>
		<polygon class="st11" points="737.4,846.7 737.4,842.1 745.8,845.8 745.8,850.5 		"/>
	</g>
	<path class="st1" d="M741.6,770.5c2.3,0,4.2,1.9,4.2,4.2h-8.4C737.4,772.4,739.3,770.5,741.6,770.5z"/>
</g>
</svg>
