<svg xmlns="http://www.w3.org/2000/svg" viewBox="0 0 866 770"><defs><style>.cls-1{fill:#a7a9ac;}.cls-2{fill:#033153;}.cls-3{fill:#e3e3e2;}.cls-4{fill:#f2931b;}.cls-5{fill:#fff;}</style></defs><title>Sonderimmobilien </title><g id="Слой_2" data-name="Слой 2"><g id="Слой_2-2" data-name="Слой 2"><rect class="cls-1" y="746.69" width="866" height="23.31"/><rect class="cls-2" x="177.23" y="30.55" width="511.55" height="21.85"/><rect class="cls-3" x="81.21" y="52.4" width="703.58" height="694.28"/><rect class="cls-2" x="81.21" y="631.2" width="703.58" height="115.49"/><path class="cls-4" d="M433,590.58c-45,0-81.48,15.09-81.48,33.7V746.69h163V624.28C514.48,605.67,478,590.58,433,590.58Z"/><rect class="cls-3" x="370.15" y="643.95" width="125.7" height="102.74"/><rect class="cls-5" x="653.6" y="469.94" width="86.49" height="86.49"/><rect class="cls-5" x="477.7" y="469.94" width="86.49" height="86.49"/><rect class="cls-5" x="653.6" y="345.93" width="86.49" height="86.49"/><rect class="cls-5" x="477.7" y="345.93" width="86.49" height="86.49"/><rect class="cls-5" x="653.6" y="221.93" width="86.49" height="86.49"/><rect class="cls-5" x="477.7" y="221.93" width="86.49" height="86.49"/><rect class="cls-5" x="653.6" y="97.93" width="86.49" height="86.49"/><rect class="cls-5" x="477.7" y="97.93" width="86.49" height="86.49"/><rect class="cls-5" x="301.81" y="469.94" width="86.49" height="86.49"/><rect class="cls-5" x="125.91" y="469.94" width="86.49" height="86.49"/><rect class="cls-5" x="301.81" y="345.93" width="86.49" height="86.49"/><rect class="cls-5" x="125.91" y="345.93" width="86.49" height="86.49"/><rect class="cls-5" x="301.81" y="221.93" width="86.49" height="86.49"/><rect class="cls-5" x="125.91" y="221.93" width="86.49" height="86.49"/><rect class="cls-5" x="301.81" y="97.93" width="86.49" height="86.49"/><rect class="cls-5" x="125.91" y="97.93" width="86.49" height="86.49"/><rect class="cls-4" x="274.99" width="316.02" height="30.55"/></g></g></svg>