<svg xmlns="http://www.w3.org/2000/svg" viewBox="0 0 866 770"><defs><style>.cls-1{fill:#a7a9ac;}.cls-2{fill:#e3e3e2;}.cls-3{fill:#033153;}.cls-4{fill:#f2931b;}.cls-5{fill:#fff;}.cls-6{fill:#d1d3d4;}</style></defs><title>Wohnung (Apartement)</title><g id="Слой_2" data-name="Слой 2"><g id="Слой_2-2" data-name="Слой 2"><rect class="cls-1" y="746.69" width="866" height="23.31"/><rect class="cls-2" x="38.43" y="90.69" width="789.14" height="656"/><rect class="cls-2" x="111.82" y="21.85" width="642.35" height="68.83"/><rect class="cls-3" x="38.43" width="789.14" height="21.85"/><rect class="cls-4" x="38.43" y="161.71" width="394.57" height="136.23"/><rect class="cls-5" x="111.82" y="201.77" width="84.87" height="84.87"/><rect class="cls-5" x="111.82" y="313.23" width="84.87" height="84.87"/><rect class="cls-5" x="111.82" y="424.69" width="84.87" height="84.87"/><rect class="cls-5" x="111.82" y="536.15" width="84.87" height="84.87"/><rect class="cls-1" x="255.52" y="244.21" width="99.44" height="42.43"/><rect class="cls-1" x="255.52" y="355.67" width="99.44" height="42.43"/><rect class="cls-1" x="255.52" y="467.13" width="99.44" height="42.43"/><rect class="cls-1" x="255.52" y="578.59" width="99.44" height="42.43"/><rect class="cls-5" x="669.31" y="201.77" width="84.87" height="84.87" transform="translate(1423.48 488.42) rotate(-180)"/><rect class="cls-5" x="669.31" y="313.23" width="84.87" height="84.87" transform="translate(1423.48 711.34) rotate(-180)"/><rect class="cls-5" x="669.31" y="424.69" width="84.87" height="84.87" transform="translate(1423.48 934.26) rotate(-180)"/><rect class="cls-5" x="669.31" y="536.15" width="84.87" height="84.87" transform="translate(1423.48 1157.17) rotate(-180)"/><rect class="cls-1" x="511.04" y="244.21" width="99.44" height="42.43" transform="translate(1121.52 530.85) rotate(-180)"/><rect class="cls-1" x="511.04" y="355.67" width="99.44" height="42.43" transform="translate(1121.52 753.77) rotate(-180)"/><rect class="cls-1" x="511.04" y="467.13" width="99.44" height="42.43" transform="translate(1121.52 976.69) rotate(-180)"/><rect class="cls-1" x="511.04" y="578.59" width="99.44" height="42.43" transform="translate(1121.52 1199.61) rotate(-180)"/><polygon class="cls-6" points="111.82 21.86 754.18 90.69 754.18 21.86 111.82 21.86"/></g></g></svg>