<?xml version="1.0" encoding="utf-8"?>
<!-- Generator: Adobe Illustrator 23.0.2, SVG Export Plug-In . SVG Version: 6.00 Build 0)  -->
<svg version="1.1" id="Ebene_1" xmlns="http://www.w3.org/2000/svg" xmlns:xlink="http://www.w3.org/1999/xlink" x="0px" y="0px"
	 viewBox="0 0 1400 1100" style="enable-background:new 0 0 1400 1100;" xml:space="preserve">
<style type="text/css">
	.st0{fill:#FFFFFF;}
	.st1{fill:#6D6E70;}
	.st2{fill:#E3E3E2;}
	.st3{fill:#F2931B;}
	.st4{fill:#033153;}
</style>
<rect class="st0" width="1400" height="1100"/>
<title>clock</title>
<g>
	<path class="st1" d="M877.4,271c0.8,0,1.5,0.1,2.1,0.2C878.9,271.1,878.2,271,877.4,271z"/>
	<path class="st1" d="M880.2,305.7c0.1,0.1,0.1,0.1,0.1,0.2C880.3,305.9,880.2,305.8,880.2,305.7z"/>
	<path class="st1" d="M890.6,277c-2.8-0.6-4.7-2-6.4-3.2c-0.4-0.3-0.8-0.6-1.2-0.9c0.4,0.3,0.8,0.6,1.2,0.9
		C885.9,275,887.8,276.4,890.6,277z"/>
	<path class="st1" d="M879.4,305.4c0.1,0,0.1,0,0.2,0C879.6,305.4,879.6,305.4,879.4,305.4C879.5,305.4,879.5,305.4,879.4,305.4z"/>
	<path class="st1" d="M880.1,305.6C880,305.6,880,305.6,880.1,305.6C880,305.6,880,305.6,880.1,305.6z"/>
	<path class="st1" d="M879.9,305.5c0,0-0.1,0-0.1,0C879.8,305.5,879.8,305.5,879.9,305.5z"/>
	<path class="st1" d="M877.4,269.4c3.6,0,5.8,1.6,7.8,3.1c2.1,1.6,4.3,3.2,8.6,3.2c-4.3,0-6.5-1.6-8.6-3.2
		C883.2,270.9,881.1,269.4,877.4,269.4z"/>
	<path class="st1" d="M445.1,276c-0.3,1.2-0.5,2.5-0.7,3.6C444.5,278.5,444.8,277.3,445.1,276z"/>
	<path class="st1" d="M443.3,297.1C443.3,297.1,443.3,297.1,443.3,297.1c-0.6-2.4-1.2-6.3-1.8-9.6
		C442,290.8,442.6,294.7,443.3,297.1z"/>
	<path class="st1" d="M462.2,255.4c-0.2,0-0.4-0.1-0.5-0.2C461.8,255.3,462,255.3,462.2,255.4z"/>
	<path class="st1" d="M461.4,255.2c-1.1-0.4-2-0.9-2.7-1.3C459.4,254.3,460.3,254.8,461.4,255.2z"/>
	<path class="st1" d="M443.2,293.6c0-3.8,0.2-8.6,1.1-13.9C443.4,285,443.2,289.7,443.2,293.6z"/>
	<path class="st1" d="M455.1,251.8c0.6-0.1,1.1,0.1,1.7,0.6C456.2,251.9,455.7,251.7,455.1,251.8z"/>
	<path class="st1" d="M438.9,281.4c0-0.1,0-0.3-0.1-0.4c0,0,0,0,0,0C438.8,281.1,438.8,281.3,438.9,281.4z"/>
	<path class="st1" d="M445,300.2c0,0.2-0.1,0.5-0.3,0.6c-0.2,0.2-0.5,0.2-0.7,0.2l1,0.2L445,300.2z"/>
	<path class="st1" d="M439.3,283.9c0.2,1.3,0.4,2.6,0.6,3.8C439.7,286.5,439.5,285.3,439.3,283.9z"/>
	<path class="st1" d="M439,282.1c0.1,0.5,0.2,1,0.2,1.5C439.1,283.1,439.1,282.6,439,282.1z"/>
	<g>
		<path class="st2" d="M654.7,701.1c-0.9,0-1.8,0.1-2.6,0.3c-1,0.2-1.7,1-2.2,2.2c-2,4.5-0.4,13.5,2.3,18.8
			c2.8,5.4,8.1,7.6,10.3,8.3l0.5,0.1l0.1,0.5c1,5.1,2.3,9.2,3.7,12.1c6.4,13,24.3,25.6,33,25.6c8.7,0,26.6-12.7,33-25.6
			c1.4-2.9,2.7-7,3.7-12.1l0.1-0.5l0.5-0.1c2.2-0.7,7.6-2.8,10.3-8.3c2.7-5.3,4.3-14.3,2.3-18.8c-0.5-1.2-1.3-1.9-2.2-2.2
			c-1.8-0.5-4.1-0.4-6.7,0.2l-1.1,0.2l0-1.1c0.3-6.8,0.5-14.2,0.5-22c0-17.2-20.8-35.4-40.4-35.4c-19.6,0-40.4,18.2-40.4,35.4
			c0,7.9,0.2,15.3,0.5,22l0,1.1l-1.1-0.2C657.3,701.2,655.9,701.1,654.7,701.1z"/>
		<path class="st2" d="M777.4,795.2c-6.4-3.6-32.3-14.2-43.1-18.6c-1-0.4-2.2-0.4-3.1,0.1c-1,0.5-1.7,1.4-2,2.5l-0.2,0.8
			c-2.9,11.4-9.2,36.4-12.8,50.7c-4,15.7-11.7,28.2-14.3,32.1h86c1.6,0,4.1-1.4,6.5-4.4c1.7-2.3,5.4-8.5,2.8-17.6
			C793.5,828.5,785.3,799.7,777.4,795.2z"/>
		<path class="st2" d="M670.5,780l-0.2-0.8c-0.3-1.1-1-2-2-2.5c-0.5-0.3-1.1-0.4-1.7-0.4c-0.5,0-1,0.1-1.4,0.3
			c-10.8,4.4-36.8,15-43.1,18.6c-7.9,4.5-16.2,33.4-19.7,45.7c-2.6,9,1.1,15.3,2.8,17.6c2.3,3.1,4.9,4.4,6.5,4.4h86
			c-2.6-3.9-10.3-16.4-14.3-32.1C679.7,816.4,673.4,791.4,670.5,780z"/>
		<path class="st1" d="M699.7,863c-1.1-1.5-10.3-15-14.8-32.7c-3.6-14.4-9.9-39.4-12.8-50.7l-0.2-0.8c-0.4-1.5-1.4-2.8-2.8-3.5
			c-1.4-0.7-3-0.8-4.5-0.2c-10.9,4.4-36.9,15-43.3,18.7c-8.5,4.9-16.6,33.1-20.5,46.7c-2.8,9.8,1.2,16.5,3.1,19
			c2.3,3.1,5.4,5.1,7.8,5.1h87l0.9-1.3C699.6,863.2,699.7,863.1,699.7,863z M611.7,862.9c-1.6,0-4.1-1.4-6.5-4.4
			c-1.7-2.3-5.4-8.5-2.8-17.6c3.5-12.3,11.8-41.2,19.7-45.7c6.4-3.6,32.3-14.2,43.1-18.6c0.5-0.2,0.9-0.3,1.4-0.3
			c0.6,0,1.2,0.1,1.7,0.4c1,0.5,1.7,1.4,2,2.5l0.2,0.8c2.9,11.4,9.2,36.4,12.8,50.7c4,15.7,11.7,28.2,14.3,32.1H611.7z"/>
		<path class="st1" d="M658.1,699.8c-2.5-0.5-4.6-0.5-6.4,0c-1.5,0.4-2.6,1.4-3.3,3.1c-2.2,5-0.6,14.5,2.3,20.2
			c2.9,5.6,8.2,8.1,10.8,9c1,5.1,2.3,9.1,3.7,12c6.6,13.4,25.3,26.5,34.5,26.5c9.2,0,27.9-13.1,34.5-26.5c1.4-2.9,2.7-7,3.7-12
			c2.6-0.9,8-3.3,10.8-9c2.9-5.8,4.5-15.3,2.3-20.2c-0.7-1.7-1.9-2.7-3.3-3.1c-1.8-0.5-4-0.5-6.4,0c0.3-6.5,0.4-13.6,0.4-21
			c0-18.3-21.2-37-42-37c-20.8,0-42,18.7-42,37C657.7,686.2,657.8,693.3,658.1,699.8z M659.8,700.8c-0.3-6.7-0.5-14.2-0.5-22
			c0-17.2,20.8-35.4,40.4-35.4c19.6,0,40.4,18.2,40.4,35.4c0,7.8-0.2,15.3-0.5,22l0,1.1l1.1-0.2c2.6-0.6,4.9-0.7,6.7-0.2
			c1,0.2,1.7,1,2.2,2.2c2,4.5,0.4,13.5-2.3,18.8c-2.8,5.4-8.1,7.6-10.3,8.3l-0.5,0.1l-0.1,0.5c-1,5.1-2.3,9.2-3.7,12.1
			c-6.4,13-24.3,25.6-33,25.6c-8.7,0-26.6-12.7-33-25.6c-1.4-2.9-2.7-7-3.7-12.1l-0.1-0.5l-0.5-0.1c-2.2-0.7-7.6-2.8-10.3-8.3
			c-2.7-5.3-4.3-14.3-2.3-18.8c0.5-1.2,1.3-1.9,2.2-2.2c0.8-0.2,1.6-0.3,2.6-0.3c1.2,0,2.6,0.2,4.1,0.5l1.1,0.2L659.8,700.8z"/>
		<path class="st1" d="M778.2,793.8c-6.4-3.7-32.4-14.3-43.3-18.7c-1.5-0.6-3.1-0.5-4.5,0.2c-1.4,0.7-2.4,2-2.8,3.5l-0.2,0.8
			c-2.9,11.4-9.2,36.4-12.8,50.7c-4.5,17.6-13.7,31.2-14.8,32.7c-0.1,0.1-0.1,0.1-0.1,0.2l-0.9,1.3h2.1h87c2.4,0,5.4-2,7.8-5.1
			c1.9-2.5,5.9-9.2,3.1-19C794.7,826.8,786.7,798.6,778.2,793.8z M794.2,858.4c-2.3,3.1-4.9,4.4-6.5,4.4h-86
			c2.6-3.9,10.3-16.4,14.3-32.1c3.6-14.4,9.9-39.4,12.8-50.7l0.2-0.8c0.3-1.1,1-2,2-2.5c1-0.5,2.1-0.5,3.1-0.1
			c10.8,4.4,36.8,15,43.1,18.6c7.9,4.5,16.2,33.4,19.7,45.7C799.6,849.9,795.9,856.2,794.2,858.4z"/>
		<path class="st3" d="M706.3,795.1c0,0,3.2-4.8,6.7-10.5c1.3-2-1-4.4-3.1-3.2c-2.4,1.3-4.4,2.1-5.3,2.1c-2.1,0-4.9,0-4.9,0
			s-2.8,0-4.9,0c-1,0-3-0.8-5.3-2.1c-2.1-1.2-4.4,1.2-3.1,3.2c3.5,5.6,6.7,10.5,6.7,10.5s-3.6,27.2-5.2,35.3c-1,5.1,4,15,7.8,21.7
			c1.8,3.1,6.3,3.1,8,0c3.8-6.6,8.8-16.6,7.8-21.7C710,822.3,706.3,795.1,706.3,795.1z"/>
	</g>
	<g>
		<path class="st2" d="M866.5,336.1c-3.7,4.4-7,10.8,0.4,21.6c7.9-3.2,13.8-7.1,18.3-11.9l7.3-8c0.2-0.2,0.4-0.3,0.7-0.3
			c0.2,0,0.5,0.1,0.6,0.3l4.9,6.9v-14.4c-8.5-7.5-15.9-16.1-18.9-21.9c-0.9,1.5-2.2,1.9-3.1,2c-4.5,0.4-11.7-5.4-14.8-14.4
			c-2.5-7.1-0.9-11.3,0.8-13.6c1.6-2.2,3.8-3.1,4.8-3c1.2,0.1,1.9,1.7,3.2,4.9c0.7,1.6,1.5,3.5,2.4,5.1c-1.3-5.8-1.7-14,0.7-17.8
			c0.9-1.5,2.3-2.3,3.9-2.3c3.6,0,5.8,1.6,7.8,3.1c2.1,1.6,4.3,3.2,8.6,3.2c4.8,0,10.3-12.1,14.7-21.8c3-6.7,5.6-12.4,8-14.6
			c4.9-6,10-8.9,15-8.6c6.3,0.3,10.5,5.5,11.9,7.8c4.2,6.2,8.9,11.4,15.4,16.9c0.8,0.7,1.6,1.4,2.3,2c0.3,0.3,0.7,0.6,1,0.9
			c0.3,0.3,0.6,0.6,0.9,0.9c0.3,0.3,0.6,0.6,0.8,0.9c2.9,3.4,4.2,6.9,5.1,13.2c0.2,1.5,0.3,3.1,0.3,4.8c0,1.7-0.1,3.4-0.2,5.2
			c-0.3,3.4-0.7,6.7-1.1,9.1c2.8-4.9,4-9.3,4.6-11.6c0-0.2,0.1-0.3,0.1-0.4c0.4-1.5,0.5-1.9,1-2.1c0.1,0,0.1,0,0.2,0
			c0,0,0.1,0,0.1,0c0,0,0.1,0,0.1,0c0,0,0,0,0.1,0c0,0,0.1,0,0.1,0c0,0,0,0,0.1,0c0,0,0.1,0,0.1,0.1c0.2,0.2,0.5,0.3,0.7,0.5
			c6.4,4.8,7.3,12.2,2.6,22.6c-0.2,0.3-0.3,0.7-0.5,1c-2.2,4.7-6.3,7.9-10.4,8.1c-1.9,0.1-3.5-0.5-4.6-1.6
			c-4.8,7.5-12.4,16.2-20.1,22.8v13.6l5.3-7.5c0.1-0.2,0.4-0.3,0.6-0.3c0,0,0,0,0.1,0c0.2,0,0.4,0.1,0.6,0.3l7.3,8
			c4.5,5,10.7,8.9,18.8,12.1c5-6.6,5-13.1,0.1-20.5c-5.7-8.4-5.3-12.3,1.8-20.2c4.4-4.9,8.7-16.3,7.9-26.1
			c-0.4-5.4-2.3-9.5-5.5-12.1c-0.2-0.1-0.3-0.3-0.3-0.6c-0.7-9.4-7.9-15.4-7.9-15.5c-0.2-0.2-0.3-0.4-0.3-0.6c0-0.3-0.8-25.4-9-31.8
			c-0.2-0.1-0.3-0.3-0.3-0.5c-4.1-21-25.9-21.4-26.1-21.4c-0.2,0-0.3-0.1-0.5-0.1c-0.1-0.1-9.6-6.6-19.8-3c-10.1,3.6-12,9.6-12,9.6
			c-0.1,0.2-0.2,0.4-0.4,0.5c-0.2,0.1-0.4,0.1-0.6,0.1c-0.5-0.2-13.5-4.2-21.6,6.9c-8.6,11.9-12.3,26.8-12.8,36
			c-0.5,10-2.3,13.9-7.2,24.2c-5,10.6-2.8,24.4,5.2,33.6C874.4,326.9,870.9,330.9,866.5,336.1z"/>
		<path class="st2" d="M1005.5,376.2c-1.9-0.4-3.9-0.8-6-1.2c-15.6-3-36.8-7.2-50.5-21.6c-3.3,4.6-19.1,26.1-28.1,30.2
			c-0.2,0.1-0.5,0.1-0.7,0c-9-4.1-24.8-25.6-28.1-30.2c-13.7,14.4-34.9,18.5-50.5,21.6c-2.1,0.4-4.1,0.8-6,1.2
			c-9.5,2-12,22.2-12.7,34c-0.2,3.6,1.1,7.1,3.6,9.7c2.5,2.6,5.9,4.1,9.5,4.1h169.2c3.6,0,7-1.5,9.5-4.1c2.5-2.6,3.8-6.1,3.6-9.7
			C1017.5,398.4,1015,378.2,1005.5,376.2z"/>
		<path class="st2" d="M920.6,374.6c4.7,0,19.9-19.9,19.9-22.4v-4.3v-16.5c0-0.2,0.1-0.5,0.3-0.6c8.1-6.9,16-15.9,20.7-23.7
			c0.1-0.2,0.4-0.4,0.7-0.4c0,0,0,0,0,0c0.1,0,0.2,0,0.3,0.1c0.1,0.1,0.3,0.2,0.3,0.3c0.8,1.3,2.2,1.9,3.9,1.8
			c2.9-0.2,6.8-2.5,9-7.2c4.8-10,4.3-17-1.4-21.4c0,0.1-0.1,0.3-0.1,0.4c-0.7,2.8-2.3,9.2-7.1,16c-0.2,0.3-0.6,0.4-1,0.3
			c-0.4-0.2-0.6-0.5-0.5-0.9c0-0.1,2.8-14.1,1.7-22.6c-1.2-8.7-3.2-11.6-9.5-16.9c-6.6-5.6-11.4-10.9-15.7-17.2
			c-1.3-2-5.1-6.7-10.7-7c-4.5-0.2-9.1,2.5-13.7,8.1c-2.2,2.1-4.8,8-7.7,14.2c-5.1,11.2-10.3,22.8-16.2,22.8c-1.2,0-2.3-0.1-3.2-0.3
			c-2.8-0.6-4.7-2-6.4-3.2c-0.4-0.3-0.8-0.6-1.2-0.9c-1.1-0.7-2.1-1.4-3.5-1.7c-0.6-0.1-1.3-0.2-2.1-0.2c-0.3,0-0.5,0-0.7,0.1
			c-0.7,0.2-1.3,0.7-1.8,1.4c-2.2,3.5-1.6,12-0.2,17.5c0.4,1.6,0.8,2.9,1.3,3.8c0.2,0.4,0.1,0.8-0.3,1c-0.3,0.2-0.8,0.2-1-0.1
			c-2.5-2.4-4.3-6.5-5.7-9.8c-0.7-1.6-1.6-3.6-2-3.9c-0.2,0-1.9,0.6-3.2,2.4c-1.5,2-2.8,5.6-0.5,12.1c3,8.6,9.9,13.6,13.1,13.3
			c1.3-0.1,2.1-1,2.3-2.7c0.1-0.4,0.3-0.7,0.7-0.7c0,0,0.1,0,0.1,0c0,0,0.1,0,0.1,0c0,0,0.1,0,0.1,0c0,0,0.1,0,0.1,0
			c0,0,0.1,0,0.1,0.1c0,0,0.1,0.1,0.1,0.1c0,0,0.1,0,0.1,0.1c0.1,0.1,0.1,0.1,0.1,0.2c2.1,5.5,10.4,15.3,19.7,23.5
			c0.2,0.2,0.3,0.4,0.3,0.6v17.3v4.1C900.2,355.5,915.8,374.6,920.6,374.6z"/>
		<path class="st1" d="M962.5,306.8c0.1,0.1,0.3,0.2,0.3,0.3C962.7,307,962.6,306.9,962.5,306.8z"/>
		<path class="st1" d="M973.7,278.2c0.1,0,0.1,0,0.2,0C973.8,278.2,973.8,278.2,973.7,278.2z"/>
		<path class="st1" d="M974.4,278.2c0,0,0.1,0,0.1,0.1c0.2,0.1,0.4,0.3,0.6,0.5c-0.2-0.2-0.4-0.3-0.7-0.5
			C974.4,278.3,974.4,278.3,974.4,278.2z"/>
		<path class="st1" d="M962.1,258.2c-0.3-0.3-0.7-0.6-1-0.9C961.5,257.5,961.8,257.9,962.1,258.2z"/>
		<path class="st1" d="M962.1,258.2c0.3,0.3,0.6,0.6,0.9,0.9C962.8,258.8,962.4,258.5,962.1,258.2z"/>
		<path class="st1" d="M968.9,273.2c-0.8-6.3-2.2-9.8-5.1-13.2C966.8,263.4,968.1,266.9,968.9,273.2c0.2,1.5,0.3,3.1,0.3,4.8
			C969.2,276.3,969.1,274.7,968.9,273.2z"/>
		<path class="st1" d="M963.9,260c-0.3-0.3-0.5-0.6-0.8-0.9C963.3,259.4,963.6,259.7,963.9,260z"/>
		<path class="st1" d="M941,348.7c-0.3-0.1-0.6-0.4-0.6-0.8v4.3c0,2.5-15.3,22.4-19.9,22.4c-4.7,0-20.3-19.1-20.3-23.1v-4.1
			c0,0.4-0.2,0.7-0.6,0.8c-0.3,0.1-0.7,0-0.9-0.3l0.3-0.5H899l-0.4,0.2v3.8c0,5.2,16.3,24.8,21.9,24.8c5.6,0,21.6-20.6,21.6-24.1v-4
			l-0.2,0.2C941.8,348.7,941.4,348.8,941,348.7z"/>
		<path class="st1" d="M974.1,278.2c0,0-0.1,0-0.1,0C974,278.2,974.1,278.2,974.1,278.2z"/>
		<path class="st1" d="M974.3,278.2c0,0-0.1,0-0.1,0C974.2,278.2,974.3,278.2,974.3,278.2z"/>
		<path class="st1" d="M968,292.3C968,292.3,968,292.3,968,292.3c0.4-2.4,0.8-5.7,1.1-9.1C968.8,286.6,968.3,289.9,968,292.3z"/>
		<path class="st1" d="M1005.9,374.6c-1.9-0.4-3.9-0.8-6-1.2c-15.6-3-37-7.2-50.3-21.8c-0.2-0.2-0.4-0.3-0.7-0.3
			c-0.2,0-0.5,0.1-0.6,0.3c-0.2,0.3-18.1,25.5-27.7,30.3c-9.6-4.8-27.5-30.1-27.7-30.3c-0.1-0.2-0.4-0.3-0.6-0.3
			c-0.3,0-0.5,0.1-0.7,0.3c-13.3,14.6-34.7,18.8-50.3,21.8c-2.1,0.4-4.2,0.8-6,1.2c-10,2.1-13.1,20.5-14,35.5c-0.2,4.1,1.2,8,4,10.9
			c2.8,3,6.6,4.6,10.7,4.6h169.2c4.1,0,7.9-1.6,10.7-4.6c2.8-3,4.2-6.8,4-10.9C1019,395.1,1015.9,376.7,1005.9,374.6z M1014.7,420
			c-2.5,2.6-5.9,4.1-9.5,4.1H835.9c-3.6,0-7-1.5-9.5-4.1c-2.5-2.6-3.8-6.1-3.6-9.7c0.7-11.8,3.2-32,12.7-34c1.9-0.4,3.9-0.8,6-1.2
			c15.6-3,36.8-7.2,50.5-21.6c3.3,4.6,19.1,26.1,28.1,30.2c0.2,0.1,0.5,0.1,0.7,0c9-4.1,24.8-25.6,28.1-30.2
			c13.7,14.4,34.9,18.5,50.5,21.6c2.1,0.4,4.1,0.8,6,1.2c9.5,2,12,22.2,12.7,34C1018.4,413.9,1017.2,417.3,1014.7,420z"/>
		<path class="st1" d="M865.3,335c-3.8,4.5-8,11.9,0.7,24.1c0.2,0.3,0.6,0.4,1,0.3c8.4-3.3,14.8-7.4,19.5-12.6l6.6-7.2l5.6,8l0,0
			l0.4-0.2h0.1l-0.3,0.5c0.2,0.3,0.6,0.4,0.9,0.3c0.3-0.1,0.6-0.4,0.6-0.8V330c0-0.2-0.1-0.5-0.3-0.6c-9.3-8.2-17.6-18-19.7-23.5
			c0-0.1-0.1-0.2-0.1-0.2c0,0-0.1-0.1-0.1-0.1c0,0-0.1-0.1-0.1-0.1c0,0-0.1,0-0.1-0.1c0,0-0.1,0-0.1,0c0,0-0.1,0-0.1,0
			c-0.1,0-0.1,0-0.2,0c-0.4,0-0.7,0.3-0.7,0.7c-0.2,1.7-1,2.6-2.3,2.7c-3.3,0.3-10.1-4.7-13.1-13.3c-2.2-6.4-0.9-10.1,0.5-12.1
			c1.4-1.8,3.1-2.4,3.2-2.4c0.4,0.3,1.3,2.3,2,3.9c1.4,3.3,3.2,7.4,5.7,9.8c0.3,0.3,0.7,0.3,1,0.1c0.3-0.2,0.4-0.7,0.3-1
			c-0.5-0.9-0.9-2.3-1.3-3.8c-1.4-5.5-2-14,0.2-17.5c0.5-0.8,1.1-1.2,1.8-1.4c0.2-0.1,0.5-0.1,0.7-0.1c0.8,0,1.5,0.1,2.1,0.2
			c1.4,0.3,2.5,0.9,3.5,1.7c0.4,0.3,0.8,0.6,1.2,0.9c1.7,1.3,3.5,2.6,6.4,3.2c0.9,0.2,2,0.3,3.2,0.3c5.9,0,11.1-11.6,16.2-22.8
			c2.8-6.2,5.5-12.1,7.7-14.2c4.6-5.6,9.3-8.3,13.7-8.1c5.6,0.3,9.3,5,10.7,7c4.2,6.4,9.1,11.7,15.7,17.2c6.4,5.4,8.4,8.2,9.5,16.9
			c1.1,8.5-1.6,22.5-1.7,22.6c-0.1,0.4,0.1,0.8,0.5,0.9c0.4,0.2,0.8,0,1-0.3c4.8-6.7,6.5-13.2,7.1-16c0-0.2,0.1-0.3,0.1-0.4
			c5.7,4.4,6.2,11.5,1.4,21.4c-2.3,4.7-6.2,7-9,7.2c-1.7,0.1-3.1-0.5-3.9-1.8c-0.1-0.1-0.2-0.2-0.3-0.3c-0.1-0.1-0.2-0.1-0.3-0.1
			c0,0,0,0,0,0c-0.3,0-0.5,0.2-0.7,0.4c-4.7,7.7-12.6,16.8-20.7,23.7c-0.2,0.2-0.3,0.4-0.3,0.6v16.5c0,0.4,0.2,0.7,0.6,0.8
			c0.3,0.1,0.7,0,0.9-0.3l0.2-0.2l6-8.5l6.6,7.2c4.8,5.3,11.4,9.5,20,12.8c0.1,0,0.2,0.1,0.3,0.1c0.2,0,0.5-0.1,0.6-0.3
			c5.8-7.3,6-14.8,0.5-22.9c-5.3-7.8-5-10.8,1.7-18.2c4.6-5.2,9.1-17,8.3-27.3c-0.4-5.6-2.5-10.1-5.9-13c-0.8-8.9-6.8-14.8-8.2-16
			c-0.1-3.2-1.2-25.7-9.4-32.5c-4.3-20.7-24.8-22.3-27.4-22.4c-1.5-1-10.8-6.7-21-3.1c-8.9,3.2-11.9,8.1-12.7,10
			c-3.1-0.7-15-2.8-22.7,7.7c-8.9,12.2-12.6,27.5-13.1,36.9c-0.5,9.7-2.3,13.5-7,23.6c-5.2,11.1-3,25.7,5.4,35.4
			C872.3,326.9,869.6,329.9,865.3,335z M860.3,282.9c4.8-10.3,6.6-14.2,7.2-24.2c0.5-9.2,4.1-24.1,12.8-36c8.1-11.1,21-7.1,21.6-6.9
			c0.2,0.1,0.4,0,0.6-0.1c0.2-0.1,0.3-0.3,0.4-0.5c0-0.1,1.9-6,12-9.6c10.1-3.6,19.7,2.9,19.8,3c0.1,0.1,0.3,0.1,0.5,0.1
			c0.2,0,22,0.4,26.1,21.4c0,0.2,0.1,0.4,0.3,0.5c8.2,6.4,9,31.5,9,31.8c0,0.2,0.1,0.5,0.3,0.6c0.1,0.1,7.2,6.1,7.9,15.5
			c0,0.2,0.1,0.4,0.3,0.6c3.3,2.6,5.1,6.7,5.5,12.1c0.8,9.8-3.5,21.2-7.9,26.1c-7.1,7.9-7.4,11.9-1.8,20.2c5,7.3,4.9,13.8-0.1,20.5
			c-8.1-3.2-14.3-7.2-18.8-12.1l-7.3-8c-0.2-0.2-0.4-0.3-0.6-0.3c0,0,0,0-0.1,0c-0.2,0-0.5,0.1-0.6,0.3l-5.3,7.5v-13.6
			c7.8-6.7,15.4-15.3,20.1-22.8c1.1,1.1,2.8,1.7,4.6,1.6c4.1-0.2,8.2-3.4,10.4-8.1c0.2-0.4,0.3-0.7,0.5-1
			c4.7-10.4,3.8-17.8-2.6-22.6c-0.2-0.2-0.4-0.3-0.6-0.5c0,0-0.1-0.1-0.1-0.1c0,0,0,0-0.1,0c0,0-0.1,0-0.1,0c0,0,0,0-0.1,0
			c0,0-0.1,0-0.1,0c0,0-0.1,0-0.1,0c-0.1,0-0.1,0-0.2,0c-0.5,0.2-0.7,0.6-1,2.1c0,0.1-0.1,0.3-0.1,0.4c-0.6,2.3-1.8,6.7-4.6,11.6
			c0,0,0,0,0,0c0.4-2.4,0.8-5.7,1.1-9.1c0.1-1.7,0.2-3.5,0.2-5.2c0-1.7-0.1-3.3-0.3-4.8c-0.8-6.3-2.2-9.8-5.1-13.2
			c-0.3-0.3-0.5-0.6-0.8-0.9c-0.3-0.3-0.6-0.6-0.9-0.9c-0.3-0.3-0.7-0.6-1-0.9c-0.7-0.6-1.5-1.3-2.3-2c-6.5-5.5-11.2-10.7-15.4-16.9
			c-1.5-2.2-5.6-7.4-11.9-7.8c-5-0.2-10.1,2.7-15,8.6c-2.3,2.2-4.9,8-8,14.6c-4.4,9.7-9.9,21.8-14.7,21.8c-4.3,0-6.5-1.6-8.6-3.2
			c-2-1.5-4.1-3.1-7.8-3.1c-1.6,0-2.9,0.8-3.9,2.3c-2.4,3.9-2,12-0.7,17.8c-0.9-1.7-1.7-3.5-2.4-5.1c-1.4-3.2-2-4.8-3.2-4.9
			c-1-0.1-3.2,0.8-4.8,3c-1.7,2.3-3.2,6.5-0.8,13.6c3.1,9,10.3,14.8,14.8,14.4c0.9-0.1,2.3-0.5,3.1-2c3.1,5.8,10.5,14.4,18.9,21.9
			v14.4l-4.9-6.9c-0.1-0.2-0.4-0.3-0.6-0.3c-0.3,0-0.5,0.1-0.7,0.3l-7.3,8c-4.4,4.9-10.4,8.8-18.3,11.9c-7.4-10.8-4.1-17.2-0.4-21.6
			c4.4-5.2,7.9-9.2-1-19.5C857.5,307.3,855.4,293.5,860.3,282.9z"/>
		<path class="st3" d="M951.3,271.4c-5.3,0-17.3,0.8-21,2.4c-3.7,1.6-3.5,2.2-9.2,2.2s-5.4-0.5-9.2-2.2c-3.7-1.6-15.7-2.4-21-2.4
			c-5.3,0-14.9,0.8-14.9,4c0,1.6,0,2.5,0,3.6c0,1,3.5,1.7,3.5,3.5c0,1.8-0.4,9.6,1.3,13.2c1.7,3.6,5.8,9.3,15.7,9.1
			c10-0.2,16.4-7.3,17.6-10.6c1.2-3.3,4-11,6.9-11c2.9,0,5.8,7.8,6.9,11c1.2,3.3,7.6,10.4,17.6,10.6c10,0.2,14-5.5,15.7-9.1
			c1.7-3.6,1.3-11.4,1.3-13.2c0-1.8,3.5-2.5,3.5-3.5c0-1,0-2,0-3.6C966.2,272.2,956.6,271.4,951.3,271.4z M913.9,286.8
			c-1.2,3.8-6.4,14.1-16.6,14.1s-13.1-6.4-13.6-9.8c-0.5-3.4-0.7-13.1,2.7-15.2c3.4-2.1,16.8-1.2,20.6-0.3
			C912.6,277,915.1,283,913.9,286.8z M958.7,291.2c-0.5,3.4-3.4,9.8-13.6,9.8c-10.2,0-15.4-10.3-16.6-14.1
			c-1.2-3.8,1.3-9.8,6.9-11.1c3.8-0.9,17.2-1.9,20.6,0.3C959.4,278.1,959.2,287.8,958.7,291.2z"/>
	</g>
	<g>
		<path class="st2" d="M574.2,419.6c2.3-2.8,3.4-6.5,3-10.2c-1.4-12.5-4.5-28.4-10.6-33.2c-7.2-5.6-29-18.4-44.8-27.6
			c-7.3-4.3-13.7-8-17.1-10.1c-5.1,7.5-18.6,13.5-25.1,13.5c-6.5,0-20-6-25.1-13.5c-3.4,2.1-9.8,5.9-17.1,10.1
			c-15.9,9.3-37.6,22-44.8,27.6c-6.1,4.8-9.1,20.7-10.6,33.2c-0.4,3.7,0.7,7.4,3,10.2c2.4,2.8,5.7,4.4,9.3,4.4H479
			c0.3,0,0.4,0,0.5,0l85.4,0C568.5,424,571.9,422.4,574.2,419.6z"/>
		<path class="st2" d="M522.9,233.8c0.2-5.4,1.2-9.4,1.9-12.3c0.6-2.6,1.1-4.5,0.6-5.9c-0.9-2.5-13.4-11.1-33.1-11.1
			c-1.9,0-4,0.1-6,0.3c-24.3,2.1-40.8,13.4-46.3,23.6c-5.7,10.6-5.3,27.8-3.1,40.5c0.5,2.9,1,5.7,1.4,8.3c0.5,3.3,1.1,7.2,1.8,9.6
			c0-1.1-0.1-2.3-0.1-3.5c0-3.8,0.2-8.6,1.1-13.9c0.2-1.2,0.5-2.4,0.7-3.6c0.3-1.2,0.6-2.5,1-3.8c2.6-9,6.3-19.9,9-20.4
			c0.6-0.1,1.1,0.1,1.7,0.6c0.2,0.1,0.4,0.3,0.6,0.5c0.4,0.3,0.8,0.7,1.3,1c0.7,0.5,1.6,1,2.7,1.3c0.1,0,0.2,0,0.2,0.1
			c0.2,0.1,0.3,0.1,0.5,0.2c1.9,0.5,4.4,0.7,7.9,0.3c3.5-0.4,6.8-1.6,9.9-3.1c0.3-0.1,0.6-0.3,0.9-0.4c0.1,0,0.1,0,0.2-0.1
			c1.6-0.8,3.2-1.6,4.7-2.4c2.7-1.4,5.4-2.8,8-3.8c2.2-0.8,4.3-1.3,6.5-1.3c9.4,0,14.9,8.4,16.2,16.2c0.5,3.4,1.9,5.8,3.4,8.3
			c1.5,2.6,3.3,5.5,4.2,10c0.1,0.3,0.1,0.6,0.2,0.9c0.2,1.1,0.3,2.1,0.5,3.2c0,0,0,0.1,0,0.1c0,0.2,0,0.5,0.1,0.7c0,0.1,0,0.3,0,0.4
			c0,0.2,0,0.3,0,0.5c0,0.2,0,0.4,0,0.6c0,0.1,0,0.1,0,0.2c0.2,3.9-0.1,7.5-0.5,10c0.3-1.1,0.5-2.6,0.6-4.8c0-0.1,0-0.3,0-0.5
			c0.1-2.4,0.3-6,0.4-11.2c0,0,0,0,0,0c0.1-5.8,0.3-12.7,0.4-19.1C522.7,243.4,522.8,237.5,522.9,233.8z"/>
		<path class="st2" d="M433.6,282.6c0.7,4.4,3.7,6.8,6.1,8.2c0.2,0.1,0.4,0.3,0.4,0.6c0.9,5.4,2.2,10.3,3.9,14.4
			c1.9,4.5,7.5,10.3,15.3,15.8c0.2,0.2,0.3,0.4,0.3,0.7v12c0,1.9,8.5,9.2,19.9,9.2c11.5,0,19.9-7.3,19.9-9.2v-12
			c0-0.3,0.1-0.5,0.3-0.7c7.9-5.5,13.4-11.3,15.3-15.8c1.7-4.1,3-8.9,3.9-14.4c0-0.2,0.2-0.5,0.4-0.6c2.4-1.3,5.4-3.8,6.1-8.2
			c0.8-5.1,0.2-9.2-1.9-11.7c-0.1,4.1-0.2,7.6-0.4,9.8c-0.3,4.7-1.1,7.6-2.5,8.7c-0.6,0.5-1.2,0.5-1.3,0.5l-0.9-0.1l0.2-0.9
			c0-0.1,2.1-10,0.4-19c-0.1-0.3-0.1-0.6-0.2-0.9c-0.9-4.2-2.5-6.9-4-9.5c-1.2-2.1-2.4-4.1-3.1-6.7c-0.2-0.7-0.4-1.4-0.5-2.2
			c-0.9-5.8-4.4-11.9-10.2-14.1c-1.3-0.5-2.8-0.8-4.4-0.8c-0.5,0-1.1,0-1.6,0.1c-3.8,0.5-7.8,2.6-12.1,4.8
			c-5.1,2.7-10.3,5.4-16.2,6.2c-8.6,1.1-12.1-1.7-13.9-3.2c-0.4-0.3-0.8-0.7-1-0.7c-0.8,0.3-3.5,4.6-7.7,19.2
			c-3.2,11.1-2.9,20.4-2.7,25.9l0.1,1.6c0,0,0,0,0,0l0,1l-1-0.2c-2-0.4-2.7-4.4-4.1-13.3c-0.2-1.2-0.4-2.5-0.6-3.8
			c0-0.1,0-0.3-0.1-0.4c-0.1-0.5-0.2-1-0.2-1.5c0-0.2-0.1-0.5-0.1-0.7c0-0.1,0-0.3-0.1-0.4C433.4,273.2,432.7,277.4,433.6,282.6z"/>
		<path class="st1" d="M521.5,274c0-0.1,0-0.3,0-0.4C521.5,273.7,521.5,273.9,521.5,274z"/>
		<path class="st1" d="M521.6,275.1c0-0.2,0-0.4,0-0.6C521.6,274.7,521.6,274.9,521.6,275.1z"/>
		<path class="st1" d="M521.8,280.1c0,0.2,0,0.3,0,0.5C521.8,280.4,521.8,280.3,521.8,280.1z"/>
		<path class="st1" d="M477.9,241.7c1.6-0.8,3.2-1.6,4.7-2.4c2.7-1.4,5.4-2.8,8-3.8c-2.6,1-5.2,2.4-8,3.8
			C481,240.2,479.5,241,477.9,241.7z"/>
		<path class="st1" d="M521.5,272.9c0,0,0-0.1,0-0.1C521.4,272.8,521.4,272.9,521.5,272.9z"/>
		<path class="st1" d="M477.7,241.8c-0.3,0.1-0.6,0.3-0.9,0.4C477.1,242.1,477.4,242,477.7,241.8z"/>
		<path class="st1" d="M519.6,289.9c-0.2,0-0.4-0.2-0.6-0.3c-0.1-0.2-0.2-0.4-0.1-0.6l-0.2,0.9L519.6,289.9z"/>
		<path class="st1" d="M523.8,270.8c-0.1,4.5-0.2,7.8-0.4,9.8C523.6,278.4,523.7,275,523.8,270.8
			C523.8,270.8,523.8,270.8,523.8,270.8z"/>
		<path class="st1" d="M467.1,246.9c-8.6,1.1-12.1-1.7-13.9-3.2C455,245.3,458.5,248,467.1,246.9z"/>
		<path class="st1" d="M519.2,269.1c-0.9-4.2-2.5-6.9-4-9.5c-1.2-2.1-2.4-4.1-3.1-6.7c0.7,2.6,1.9,4.6,3.1,6.7
			C516.7,262.2,518.3,264.9,519.2,269.1z"/>
		<path class="st1" d="M521.6,275.3c0.2,3.9-0.1,7.5-0.5,10.1c0.3-1.1,0.5-2.7,0.6-4.8c-0.1,2.1-0.4,3.6-0.6,4.8
			C521.5,282.8,521.8,279.2,521.6,275.3z"/>
		<path class="st1" d="M436.4,268.2c0.3,0.1,0.5,0.3,0.5,0.6c0.5,2.9,1,5.7,1.4,8.3c-0.4-2.5-0.8-5.3-1.4-8.3
			c-2.3-12.6-2.7-29.9,3.1-40.5c5.5-10.2,22-21.5,46.3-23.6c2.1-0.2,4.1-0.3,6-0.3c19.6,0,32.2,8.6,33.1,11.1c0.5,1.3,0,3.2-0.6,5.9
			c-0.7,2.9-1.7,6.9-1.9,12.3c-0.1,3.7-0.2,9.6-0.3,16c-0.1,6.4-0.2,13.3-0.4,19.1c0-0.3,0.2-0.6,0.5-0.7c0.3-0.1,0.6-0.1,0.9,0.1
			c0.1,0.1,0.2,0.2,0.3,0.3c0.1-5.8,0.3-12.5,0.4-18.7c0.1-6.4,0.2-12.3,0.3-16c0.2-5.2,1.1-9,1.8-12c0.7-2.9,1.2-5,0.6-6.8
			c-1.4-3.8-17.6-13.9-40.8-11.9c-24.9,2.2-41.9,13.9-47.6,24.5c-5.9,10.8-5.6,28.2-3.3,41.1c0.1-0.1,0.2-0.2,0.4-0.3
			C435.9,268.2,436.2,268.1,436.4,268.2z"/>
		<path class="st1" d="M432,282.9c0.8,4.8,4,7.6,6.6,9.1c0.9,5.4,2.2,10.2,3.9,14.3c2.7,6.5,10.7,12.9,15.5,16.3v11.6
			c0,3.1,9.3,10.8,21.6,10.8c12.2,0,21.6-7.7,21.6-10.8v-11.6c4.8-3.4,12.9-9.9,15.5-16.3c1.7-4.1,3-8.9,3.9-14.3
			c2.6-1.5,5.8-4.3,6.6-9.1c1.1-6.4-0.2-11.5-3.4-14.3c-0.1-0.1-0.2-0.2-0.3-0.3c-0.2-0.2-0.6-0.2-0.9-0.1c-0.3,0.1-0.5,0.4-0.5,0.7
			c0,0,0,0,0,0c-0.1,5.2-0.3,8.8-0.4,11.2c0,0.2,0,0.3,0,0.5c-0.1,2.1-0.4,3.7-0.6,4.8c0.3-2.6,0.6-6.2,0.5-10.1c0-0.1,0-0.1,0-0.2
			c0-0.2,0-0.4,0-0.6c0-0.2,0-0.3,0-0.5c0-0.1,0-0.3,0-0.4c0-0.2,0-0.5-0.1-0.7c0,0,0-0.1,0-0.1c-0.1-1.1-0.3-2.1-0.5-3.2
			c-0.1-0.3-0.1-0.6-0.2-0.9c-1-4.4-2.7-7.4-4.2-10c-1.5-2.5-2.9-4.9-3.4-8.3c-1.2-7.8-6.8-16.2-16.2-16.2c-2.1,0-4.3,0.5-6.5,1.3
			c-2.6,1-5.2,2.4-8,3.8c-1.5,0.8-3.1,1.6-4.7,2.4c-0.1,0-0.1,0-0.2,0.1c-0.3,0.1-0.6,0.3-0.9,0.4c-3.2,1.5-6.5,2.7-9.9,3.1
			c-3.5,0.4-6,0.2-7.9-0.3c-0.2,0-0.4-0.1-0.5-0.2c-0.1,0-0.2,0-0.2-0.1c-1.1-0.4-2-0.9-2.7-1.3c-0.5-0.4-1-0.7-1.3-1
			c-0.2-0.2-0.4-0.3-0.6-0.5c-0.6-0.4-1.1-0.7-1.7-0.6c-2.7,0.5-6.4,11.4-9,20.4c-0.4,1.3-0.7,2.6-1,3.8c-0.3,1.2-0.5,2.5-0.7,3.6
			c-0.9,5.3-1.1,10.1-1.1,13.9c0,1.3,0,2.5,0.1,3.5c0,0,0,0,0,0c-0.6-2.4-1.2-6.3-1.8-9.6c-0.4-2.5-0.8-5.3-1.4-8.3
			c-0.1-0.3-0.2-0.5-0.5-0.6c-0.3-0.1-0.6-0.1-0.8,0.1c-0.1,0.1-0.2,0.2-0.4,0.3C432.1,271.5,430.9,276.5,432,282.9z M435.7,271
			c0,0.2,0.1,0.5,0.1,0.7c0.1,0.5,0.2,1,0.2,1.5c0,0.1,0,0.3,0.1,0.4c0.2,1.3,0.4,2.6,0.6,3.8c1.4,8.9,2.1,12.9,4.1,13.3
			c0.2,0.1,0.5,0,0.7-0.2c0.2-0.2,0.3-0.4,0.3-0.6c0,0,0,0,0,0l-0.1-1.6c-0.2-5.5-0.5-14.8,2.7-25.9c4.2-14.6,6.9-19,7.7-19.2
			c0.2,0,0.7,0.4,1,0.7c1.9,1.5,5.3,4.3,13.9,3.2c5.9-0.7,11.2-3.5,16.2-6.2c4.2-2.2,8.3-4.3,12.1-4.8c0.5-0.1,1.1-0.1,1.6-0.1
			c1.6,0,3,0.3,4.4,0.8c5.8,2.1,9.3,8.3,10.2,14.1c0.1,0.8,0.3,1.5,0.5,2.2c0.7,2.6,1.9,4.6,3.1,6.7c1.5,2.6,3.1,5.3,4,9.5
			c0.1,0.3,0.1,0.6,0.2,0.9c1.7,9-0.4,18.9-0.4,19c0,0.2,0,0.5,0.1,0.6c0.1,0.2,0.3,0.3,0.6,0.3c0.2,0,0.7,0,1.3-0.5
			c1.4-1.1,2.2-4.1,2.5-8.7c0.1-2.1,0.2-5.3,0.4-9.8c0,0,0,0,0,0c2.1,2.6,2.7,6.7,1.9,11.7c-0.7,4.4-3.7,6.8-6.1,8.2
			c-0.2,0.1-0.4,0.3-0.4,0.6c-0.9,5.4-2.2,10.3-3.9,14.4c-1.9,4.5-7.5,10.3-15.3,15.8c-0.2,0.2-0.3,0.4-0.3,0.7v12
			c0,1.9-8.5,9.2-19.9,9.2c-11.5,0-19.9-7.3-19.9-9.2v-12c0-0.3-0.1-0.5-0.3-0.7c-7.9-5.5-13.4-11.3-15.3-15.8
			c-1.7-4.1-3-8.9-3.9-14.4c0-0.2-0.2-0.5-0.4-0.6c-2.4-1.3-5.4-3.8-6.1-8.2c-0.9-5.2-0.1-9.4,2-11.9c0,0,0,0,0,0
			C435.6,270.8,435.7,270.9,435.7,271z"/>
		<path class="st1" d="M575.4,420.7c2.6-3.1,3.9-7.3,3.4-11.5c-1.5-12.8-4.6-29.1-11.2-34.3c-7.3-5.7-29.1-18.4-45-27.8
			c-7.8-4.6-14.5-8.5-17.7-10.5c-0.4-0.2-0.8-0.1-1.1,0.3c-4.4,7.3-18,13.4-24.3,13.4s-19.8-6.1-24.3-13.4c-0.2-0.4-0.7-0.5-1.1-0.3
			c-3.2,2-9.9,5.9-17.7,10.5c-15.9,9.3-37.7,22.1-45,27.8c-6.6,5.1-9.7,21.5-11.2,34.3c-0.5,4.2,0.8,8.3,3.4,11.5
			c2.7,3.2,6.5,5,10.5,5l84.6,0c0.2,0,0.3,0,0.4,0c0.1,0,0.2,0,0.3,0H565C568.9,425.7,572.8,423.9,575.4,420.7z M479.5,424
			c-0.1,0-0.3,0-0.5,0h-84.7c-3.6,0-6.9-1.6-9.3-4.4c-2.3-2.8-3.4-6.5-3-10.2c1.4-12.5,4.5-28.4,10.6-33.2
			c7.2-5.6,29-18.4,44.8-27.6c7.3-4.3,13.7-8,17.1-10.1c5.1,7.5,18.6,13.5,25.1,13.5c6.5,0,20-6,25.1-13.5
			c3.4,2.1,9.8,5.9,17.1,10.1c15.9,9.3,37.6,22,44.8,27.6c6.1,4.8,9.1,20.7,10.6,33.2c0.4,3.7-0.7,7.4-3,10.2
			c-2.4,2.8-5.7,4.4-9.3,4.4L479.5,424z"/>
		<path class="st3" d="M479.6,299.8c-6.4,0-18.6,2.6-24.5,8.4l22.9,0c0,0,0.4-3.2,1.5-3.2s1.5,3.2,1.5,3.2l22.9,0
			C498.2,302.4,486,299.8,479.6,299.8z"/>
	</g>
	<path class="st4" d="M920.4,188.4c-77.6,0-140.7,63.1-140.7,140.7c0,44.1,20.4,83.5,52.2,109.3L700,532.5l-131.8-94.1
		c31.8-25.8,52.1-65.2,52.1-109.2c0-77.6-63.1-140.7-140.7-140.7s-140.7,63.1-140.7,140.7S402,469.9,479.6,469.9
		c30.9,0,59.6-10,82.8-27L695,537.6v89.6c-76.3,2.5-137.6,65.3-137.6,142.2c0,78.4,63.8,142.2,142.2,142.2S842,847.7,842,769.3
		C842,692.7,781,630,705,627.2v-89.6l132.5-94.6c23.2,17,51.9,27,82.8,27c77.6,0,140.7-63.1,140.7-140.7S998,188.4,920.4,188.4z
		 M345.9,329.2c0-73.7,60-133.7,133.7-133.7s133.7,60,133.7,133.7s-60,133.7-133.7,133.7S345.9,402.9,345.9,329.2z M832,769.3
		c0,72.9-59.3,132.2-132.2,132.2s-132.2-59.3-132.2-132.2s59.3-132.2,132.2-132.2S832,696.4,832,769.3z M920.4,462.9
		c-73.7,0-133.7-60-133.7-133.7s60-133.7,133.7-133.7s133.7,60,133.7,133.7S994.1,462.9,920.4,462.9z"/>
</g>
</svg>
