<?xml version="1.0" encoding="utf-8"?>
<!-- Generator: Adobe Illustrator 23.0.2, SVG Export Plug-In . SVG Version: 6.00 Build 0)  -->
<svg version="1.1" id="Ebene_1" xmlns="http://www.w3.org/2000/svg" xmlns:xlink="http://www.w3.org/1999/xlink" x="0px" y="0px"
	 viewBox="0 0 1400 1100" style="enable-background:new 0 0 1400 1100;" xml:space="preserve">
<style type="text/css">
	.st0{fill:#FFFFFF;}
	.st1{fill:#F2931B;}
	.st2{fill:#CC710D;}
	.st3{fill:#033153;}
</style>
<rect class="st0" width="1400" height="1100"/>
<title>clock</title>
<g>
	<g>
		<path class="st1" d="M365.6,380.3v39.7c0,6,11.5,15.2,43.9,22.8c30,7.1,70,11,112.6,11c42.6,0,82.6-3.9,112.6-11
			c32.4-7.6,43.9-16.8,43.9-22.8h0v-39.7c-22.9,18.4-91.4,28.1-156.5,28.1C457,408.4,388.5,398.6,365.6,380.3z"/>
		<path class="st1" d="M365.6,433.5v39.7c0,6,11.5,15.2,43.9,22.8c30,7.1,70,11,112.6,11s82.6-3.9,112.6-11
			c32.4-7.6,43.9-16.8,43.9-22.8h0v-39.7c-22.9,18.4-91.4,28.1-156.5,28.1C457,461.7,388.5,451.9,365.6,433.5z"/>
		<path class="st1" d="M365.6,273.7v39.7c0,6,11.5,15.2,43.9,22.8c30,7.1,70,11,112.6,11s82.6-3.9,112.6-11
			c32.4-7.6,43.9-16.8,43.9-22.8h0v-39.7c-22.9,18.4-91.4,28.1-156.5,28.1C457,301.8,388.5,292,365.6,273.7z"/>
		<path class="st1" d="M365.6,327v39.7c0,6,11.5,15.2,43.9,22.8c30,7.1,70,11,112.6,11s82.6-3.9,112.6-11
			c32.4-7.6,43.9-16.8,43.9-22.8h0V327c-22.9,18.4-91.4,28.1-156.5,28.1C457,355.1,388.5,345.3,365.6,327z"/>
		<path class="st1" d="M365.6,486.8v39.7c0,6,11.5,15.2,43.9,22.8c30,7.1,70,11,112.6,11s82.6-3.9,112.6-11
			c32.4-7.6,43.9-16.8,43.9-22.8h0v-39.7c-22.9,18.4-91.4,28.1-156.5,28.1C457,515,388.5,505.2,365.6,486.8z"/>
		<path class="st1" d="M365.6,220.4v39.7c0,6,11.5,15.2,43.9,22.8c30,7.1,70,11,112.6,11s82.6-3.9,112.6-11
			c32.4-7.6,43.9-16.8,43.9-22.8h0v-39.7c-22.9,18.4-91.4,28.1-156.5,28.1C457,248.5,388.5,238.8,365.6,220.4z"/>
		<path class="st1" d="M365.6,646.7v39.7c0,6,11.5,15.2,43.9,22.8c30,7.1,70,11,112.6,11s82.6-3.9,112.6-11
			c32.4-7.6,43.9-16.8,43.9-22.8h0v-39.7c-22.9,18.4-91.4,28.1-156.5,28.1C457,674.8,388.5,665.1,365.6,646.7z"/>
		<path class="st1" d="M365.6,700v39.7c0,6,11.5,15.2,43.9,22.8c30,7.1,70,11,112.6,11c42.6,0,82.6-3.9,112.6-11
			c32.4-7.6,43.9-16.8,43.9-22.8V700c-22.9,18.4-91.4,28.1-156.5,28.1C457,728.1,388.5,718.4,365.6,700z"/>
		<path class="st1" d="M365.6,540.1v39.7c0,6,11.5,15.2,43.9,22.8c30,7.1,70,11,112.6,11c42.6,0,82.6-3.9,112.6-11
			c32.4-7.6,43.9-16.8,43.9-22.8h0v-39.7c-22.9,18.4-91.4,28.1-156.5,28.1C457,568.3,388.5,558.5,365.6,540.1z"/>
		<path class="st1" d="M365.6,593.4v39.7c0,6,11.5,15.2,43.9,22.8c30,7.1,70,11,112.6,11s82.6-3.9,112.6-11
			c32.4-7.6,43.9-16.8,43.9-22.8h0v-39.7c-22.9,18.4-91.4,28.1-156.5,28.1C457,621.5,388.5,611.8,365.6,593.4z"/>
		<path class="st1" d="M634.8,183.9c-30-7.1-70-11-112.6-11s-82.6,3.9-112.6,11c-32.4,7.6-43.9,16.8-43.9,22.8
			c0,6,11.5,15.2,43.9,22.8c30,7.1,70,11,112.6,11s82.6-3.9,112.6-11c32.4-7.6,43.9-16.8,43.9-22.8h0
			C678.7,200.7,667.2,191.6,634.8,183.9z"/>
		<path class="st2" d="M594.1,240.5v532.9c0,0,72.1-4.9,88.7-32.1c0-37.3,0-529.6,0-529.6s-11.8,11.1-40,19.1
			C614.6,238.7,594.1,240.5,594.1,240.5z"/>
		<path class="st2" d="M389.3,227.8v533.7c0,0,13.7,3.9,27.5,6.4c0-26.1,0-532.2,0-532.2L389.3,227.8z"/>
		<polygon class="st2" points="428.5,237.7 428.5,769.9 434.9,771.2 434.9,237.7 		"/>
		<path class="st3" d="M522.1,165c-79.8,0-164.5,14.6-164.5,41.8v532.9c0,27.1,84.8,41.8,164.5,41.8c79.8,0,164.5-14.6,164.5-41.8
			V206.8C686.7,179.6,601.9,165,522.1,165z M678.7,739.7c0,6-11.5,15.2-43.9,22.8c-30,7.1-70,11-112.6,11c-42.6,0-82.6-3.9-112.6-11
			c-32.4-7.6-43.9-16.8-43.9-22.8V700c22.9,18.4,91.4,28.1,156.5,28.1c65.2,0,133.7-9.8,156.5-28.1V739.7z M678.7,686.4L678.7,686.4
			c0,6-11.5,15.2-43.9,22.8c-30,7.1-70,11-112.6,11s-82.6-3.9-112.6-11c-32.4-7.6-43.9-16.8-43.9-22.8v-39.7
			c22.9,18.4,91.4,28.1,156.5,28.1c65.2,0,133.7-9.8,156.5-28.1V686.4z M678.7,633.1L678.7,633.1c0,6-11.5,15.2-43.9,22.8
			c-30,7.1-70,11-112.6,11s-82.6-3.9-112.6-11c-32.4-7.6-43.9-16.8-43.9-22.8v-39.7c22.9,18.4,91.4,28.1,156.5,28.1
			c65.2,0,133.7-9.8,156.5-28.1V633.1z M678.7,579.8L678.7,579.8c0,6-11.5,15.2-43.9,22.8c-30,7.1-70,11-112.6,11
			c-42.6,0-82.6-3.9-112.6-11c-32.4-7.6-43.9-16.8-43.9-22.8v-39.7c22.9,18.4,91.4,28.1,156.5,28.1c65.2,0,133.7-9.8,156.5-28.1
			V579.8z M678.7,526.5L678.7,526.5c0,6-11.5,15.2-43.9,22.8c-30,7.1-70,11-112.6,11s-82.6-3.9-112.6-11
			c-32.4-7.6-43.9-16.8-43.9-22.8v-39.7C388.5,505.2,457,515,522.1,515c65.2,0,133.7-9.8,156.5-28.1V526.5z M678.7,473.2
			L678.7,473.2c0,6-11.5,15.2-43.9,22.8c-30,7.1-70,11-112.6,11s-82.6-3.9-112.6-11c-32.4-7.6-43.9-16.8-43.9-22.8v-39.7
			c22.9,18.4,91.4,28.1,156.5,28.1c65.2,0,133.7-9.8,156.5-28.1V473.2z M678.7,419.9L678.7,419.9c0,6-11.5,15.2-43.9,22.8
			c-30,7.1-70,11-112.6,11c-42.6,0-82.6-3.9-112.6-11c-32.4-7.6-43.9-16.8-43.9-22.8v-39.7c22.9,18.4,91.4,28.1,156.5,28.1
			c65.2,0,133.7-9.8,156.5-28.1V419.9z M678.7,366.6L678.7,366.6c0,6-11.5,15.2-43.9,22.8c-30,7.1-70,11-112.6,11
			s-82.6-3.9-112.6-11c-32.4-7.6-43.9-16.8-43.9-22.8V327c22.9,18.4,91.4,28.1,156.5,28.1c65.2,0,133.7-9.8,156.5-28.1V366.6z
			 M678.7,313.3L678.7,313.3c0,6-11.5,15.2-43.9,22.8c-30,7.1-70,11-112.6,11s-82.6-3.9-112.6-11c-32.4-7.6-43.9-16.8-43.9-22.8
			v-39.7c22.9,18.4,91.4,28.1,156.5,28.1c65.2,0,133.7-9.8,156.5-28.1V313.3z M678.7,260.1L678.7,260.1c0,6-11.5,15.2-43.9,22.8
			c-30,7.1-70,11-112.6,11s-82.6-3.9-112.6-11c-32.4-7.6-43.9-16.8-43.9-22.8v-39.7c22.9,18.4,91.4,28.1,156.5,28.1
			c65.2,0,133.7-9.8,156.5-28.1V260.1z M678.7,206.8c0,6-11.5,15.2-43.9,22.8c-30,7.1-70,11-112.6,11s-82.6-3.9-112.6-11
			c-32.4-7.6-43.9-16.8-43.9-22.8c0-6,11.5-15.2,43.9-22.8c30-7.1,70-11,112.6-11s82.6,3.9,112.6,11
			C667.2,191.6,678.7,200.7,678.7,206.8L678.7,206.8z"/>
	</g>
	<g>
		<path class="st1" d="M721.3,484.1v39.7c0,6,11.5,15.2,43.9,22.8c30,7.1,70,11,112.6,11c42.6,0,82.6-3.9,112.6-11
			c32.4-7.6,43.9-16.8,43.9-22.8v-39.7c-22.9,18.4-91.4,28.1-156.5,28.1S744.2,502.4,721.3,484.1z"/>
		<path class="st1" d="M990.5,394.3c-30-7.1-70-11-112.6-11s-82.6,3.9-112.6,11c-32.4,7.6-43.9,16.8-43.9,22.8
			c0,6,11.5,15.2,43.9,22.8c30,7.1,70,11,112.6,11c42.6,0,82.6-3.9,112.6-11c32.4-7.6,43.9-16.8,43.9-22.8
			C1034.4,411.1,1022.9,401.9,990.5,394.3z"/>
		<path class="st1" d="M721.3,430.8v39.7c0,6,11.5,15.2,43.9,22.8c30,7.1,70,11,112.6,11c42.6,0,82.6-3.9,112.6-11
			c32.4-7.6,43.9-16.8,43.9-22.8v-39.7c-22.9,18.4-91.4,28.1-156.5,28.1S744.2,449.1,721.3,430.8z"/>
		<path class="st1" d="M721.3,537.3V577c0,6,11.5,15.2,43.9,22.8c30,7.1,70,11,112.6,11c42.6,0,82.6-3.9,112.6-11
			c32.4-7.6,43.9-16.8,43.9-22.8v-39.7c-22.9,18.4-91.4,28.1-156.5,28.1S744.2,555.7,721.3,537.3z"/>
		<path class="st1" d="M721.3,643.9v39.7c0,6,11.5,15.2,43.9,22.8c30,7.1,70,11,112.6,11c42.6,0,82.6-3.9,112.6-11
			c32.4-7.6,43.9-16.8,43.9-22.8v-39.7c-22.9,18.4-91.4,28.1-156.5,28.1S744.2,662.3,721.3,643.9z"/>
		<path class="st1" d="M721.3,590.6v39.7c0,6,11.5,15.2,43.9,22.8c30,7.1,70,11,112.6,11c42.6,0,82.6-3.9,112.6-11
			c32.4-7.6,43.9-16.8,43.9-22.8v-39.7c-22.9,18.4-91.4,28.1-156.5,28.1S744.2,609,721.3,590.6z"/>
		<path class="st2" d="M957.8,450.9c-0.2,3,0,265.8,0,265.8s68-8.4,80.5-29.6c0-27.9,0-265.7,0-265.7s-9.4,13.2-30.4,19.2
			C987,446.8,957.8,450.9,957.8,450.9z"/>
		<polygon class="st2" points="758.5,441.8 758.5,708.5 783.3,713.9 783.3,448.3 		"/>
		<polygon class="st2" points="791.1,449.7 791.1,715 800.8,717.4 800.8,450.9 		"/>
		<path class="st3" d="M877.9,375.4c-79.8,0-164.5,14.6-164.5,41.8v266.4c0,27.1,84.8,41.8,164.5,41.8s164.5-14.6,164.5-41.8V417.1
			C1042.4,390,957.6,375.4,877.9,375.4z M1034.4,683.6c0,6-11.5,15.2-43.9,22.8c-30,7.1-70,11-112.6,11c-42.6,0-82.6-3.9-112.6-11
			c-32.4-7.6-43.9-16.8-43.9-22.8v-39.7c22.9,18.4,91.4,28.1,156.5,28.1s133.7-9.8,156.5-28.1V683.6z M1034.4,630.3
			c0,6-11.5,15.2-43.9,22.8c-30,7.1-70,11-112.6,11c-42.6,0-82.6-3.9-112.6-11c-32.4-7.6-43.9-16.8-43.9-22.8v-39.7
			c22.9,18.4,91.4,28.1,156.5,28.1s133.7-9.8,156.5-28.1V630.3z M1034.4,577c0,6-11.5,15.2-43.9,22.8c-30,7.1-70,11-112.6,11
			c-42.6,0-82.6-3.9-112.6-11c-32.4-7.6-43.9-16.8-43.9-22.8v-39.7c22.9,18.4,91.4,28.1,156.5,28.1s133.7-9.8,156.5-28.1V577z
			 M1034.4,523.7c0,6-11.5,15.2-43.9,22.8c-30,7.1-70,11-112.6,11c-42.6,0-82.6-3.9-112.6-11c-32.4-7.6-43.9-16.8-43.9-22.8v-39.7
			c22.9,18.4,91.4,28.1,156.5,28.1s133.7-9.8,156.5-28.1V523.7z M1034.4,470.4c0,6-11.5,15.2-43.9,22.8c-30,7.1-70,11-112.6,11
			c-42.6,0-82.6-3.9-112.6-11c-32.4-7.6-43.9-16.8-43.9-22.8v-39.7c22.9,18.4,91.4,28.1,156.5,28.1s133.7-9.8,156.5-28.1V470.4z
			 M990.5,440c-30,7.1-70,11-112.6,11c-42.6,0-82.6-3.9-112.6-11c-32.4-7.6-43.9-16.8-43.9-22.8c0-6,11.5-15.2,43.9-22.8
			c30-7.1,70-11,112.6-11s82.6,3.9,112.6,11c32.4,7.6,43.9,16.8,43.9,22.8C1034.4,423.2,1022.9,432.3,990.5,440z"/>
	</g>
	<g>
		<g>
			
				<ellipse transform="matrix(0.7071 -0.7071 0.7071 0.7071 -341.5771 720.3455)" class="st1" cx="698.7" cy="772.5" rx="154.5" ry="154.5"/>
			<polygon class="st2" points="847.3,717.7 559.5,849.1 547.4,822.7 540.3,796.3 819.7,668.7 837.2,693.5 			"/>
			<polygon class="st2" points="853.3,743.6 573.4,871.3 569.5,862.8 564.1,855.6 849.3,725.3 852.6,733.7 			"/>
			<polygon class="st2" points="851.8,817.3 632.7,917.3 622.9,913 613.2,906.2 856.3,795.2 855.1,805.1 			"/>
			<path class="st3" d="M698.7,610c-89.6,0-162.5,72.9-162.5,162.5S609.1,935,698.7,935s162.5-72.9,162.5-162.5S788.4,610,698.7,610
				z M698.7,927c-85.2,0-154.5-69.3-154.5-154.5S613.5,618,698.7,618s154.5,69.3,154.5,154.5S784,927,698.7,927z"/>
		</g>
		<g>
			<path class="st3" d="M583.1,801.6l-18-55.3h7.7l8.6,27.2c2.4,7.5,4.4,14.2,5.9,20.7h0.2c1.6-6.4,3.9-13.4,6.3-20.6l9.4-27.3h7.6
				L591,801.6H583.1z"/>
			<path class="st3" d="M617.8,783.1c0.2,9.8,6.4,13.8,13.6,13.8c5.2,0,8.3-0.9,11-2.1l1.2,5.2c-2.5,1.1-6.9,2.5-13.2,2.5
				c-12.2,0-19.5-8-19.5-20c0-12,7.1-21.4,18.6-21.4c13,0,16.4,11.4,16.4,18.7c0,1.5-0.2,2.6-0.2,3.4H617.8z M639,777.9
				c0.1-4.6-1.9-11.7-10-11.7c-7.3,0-10.5,6.7-11.1,11.7H639z"/>
			<path class="st3" d="M654.9,774.3c0-4.7-0.1-8.7-0.3-12.4h6.3l0.2,7.8h0.3c1.8-5.3,6.2-8.7,11-8.7c0.8,0,1.4,0.1,2.1,0.2v6.8
				c-0.7-0.2-1.5-0.2-2.5-0.2c-5.1,0-8.7,3.9-9.7,9.3c-0.2,1-0.3,2.1-0.3,3.4v21.2h-7.1V774.3z"/>
			<path class="st3" d="M689.2,780.1h0.2c1-1.4,2.4-3.1,3.5-4.5l11.6-13.7h8.7l-15.3,16.3l17.5,23.4h-8.8l-13.7-19l-3.7,4.1v14.9
				h-7.1v-58.2h7.1V780.1z"/>
			<path class="st3" d="M744,801.6l-0.6-5h-0.2c-2.2,3.1-6.5,5.9-12.1,5.9c-8,0-12.1-5.7-12.1-11.4c0-9.6,8.5-14.8,23.9-14.8v-0.8
				c0-3.3-0.9-9.2-9-9.2c-3.7,0-7.5,1.1-10.3,3l-1.6-4.8c3.3-2.1,8-3.5,13-3.5c12.1,0,15.1,8.3,15.1,16.2v14.8
				c0,3.4,0.2,6.8,0.7,9.5H744z M742.9,781.4c-7.9-0.2-16.8,1.2-16.8,8.9c0,4.7,3.1,6.9,6.8,6.9c5.2,0,8.4-3.3,9.6-6.6
				c0.2-0.7,0.4-1.6,0.4-2.3V781.4z"/>
			<path class="st3" d="M794.8,790.8c0,4.1,0.1,7.7,0.3,10.8h-6.4l-0.4-6.5h-0.2c-1.9,3.2-6.1,7.4-13.1,7.4
				c-6.2,0-13.7-3.4-13.7-17.4v-23.2h7.2v22c0,7.5,2.3,12.6,8.9,12.6c4.8,0,8.2-3.4,9.5-6.6c0.4-1.1,0.7-2.4,0.7-3.7v-24.4h7.2
				V790.8z"/>
			<path class="st3" d="M807.5,801.6v-34.2h-5.6v-5.5h5.6V760c0-5.6,1.2-10.7,4.6-13.9c2.7-2.6,6.3-3.7,9.7-3.7
				c2.5,0,4.8,0.6,6.2,1.1l-1,5.6c-1.1-0.5-2.5-0.9-4.6-0.9c-6.2,0-7.7,5.4-7.7,11.5v2.1h9.6v5.5h-9.6v34.2H807.5z"/>
		</g>
	</g>
</g>
</svg>
